ISO-10303-21;
HEADER;
FILE_DESCRIPTION(('ViewDefinition[CoordinationView_V2.0, QuantityTakeOffAddOnView]', 'ExchangeRequirement[Structural, SurfaceGeometry]', 'Option [BaseQuantities:On]', 'Option [GridExport:On]', 'Option [Assemblies:Off]', 'Option [Bolts:On]', 'Option [Rebars:On]', 'Option [PourObjects:Off]', 'Option [Welds:Off]', 'Option [SurfaceTreatments:On]', 'Option [LocationBy:0]', 'Option [ViewColors:Off]', 'Option [SectionedSpine:Off]', 'Option [PropertySets:On]', 'Option [Export all:Off]'),'2;1');
FILE_NAME('5-1-A13.ifc','2026-03-10T09:14:52',('DESKTOP-NLV509P\\Ahmed'),('Structural Designer'),'IFC Parser version: 3.13.2','Tekla Structures 2023 Service Pack 8, IFC Export Version: 4.0.0.0 Jan 19 2024','');
FILE_SCHEMA(('IFC2X3'));
ENDSEC;

DATA;
#1= IFCPERSON('DESKTOP-NLV509P\\Ahmed','Undefined',$,$,$,$,$,$);
#2= IFCORGANIZATION($,'Trimble Solutions Corporation',$,$,$);
#3= IFCPERSONANDORGANIZATION(#1,#2,$);
#4= IFCAPPLICATION(#2,'2023 Service Pack 8','Tekla Structures','Multi material modeling');
#5= IFCOWNERHISTORY(#3,#4,$,.NOCHANGE.,$,$,$,1773123291);
#6= IFCCARTESIANPOINT((0.,0.,0.));
#7= IFCDIRECTION((1.,0.,0.));
#8= IFCDIRECTION((0.,1.,0.));
#9= IFCDIRECTION((0.,0.,1.));
#10= IFCAXIS2PLACEMENT3D(#6,#9,#7);
#11= IFCGEOMETRICREPRESENTATIONCONTEXT($,'Model',3,1.E-05,#10,$);
#12= IFCGEOMETRICREPRESENTATIONSUBCONTEXT('Body','Model',*,*,*,*,#11,$,.MODEL_VIEW.,$);
#13= IFCGEOMETRICREPRESENTATIONSUBCONTEXT('Axis','Model',*,*,*,*,#11,$,.GRAPH_VIEW.,$);
#14= IFCGEOMETRICREPRESENTATIONSUBCONTEXT('FootPrint','Model',*,*,*,*,#11,$,.MODEL_VIEW.,$);
#15= IFCSIUNIT(*,.LENGTHUNIT.,.MILLI.,.METRE.);
#16= IFCMEASUREWITHUNIT(IFCRATIOMEASURE(304.8),#15);
#17= IFCDIMENSIONALEXPONENTS(1,0,0,0,0,0,0);
#18= IFCCONVERSIONBASEDUNIT(#17,.LENGTHUNIT.,'FOOT',#16);
#19= IFCSIUNIT(*,.AREAUNIT.,$,.SQUARE_METRE.);
#20= IFCMEASUREWITHUNIT(IFCRATIOMEASURE(0.09290304),#19);
#21= IFCDIMENSIONALEXPONENTS(2,0,0,0,0,0,0);
#22= IFCCONVERSIONBASEDUNIT(#21,.AREAUNIT.,'SQUARE FOOT',#20);
#23= IFCSIUNIT(*,.VOLUMEUNIT.,$,.CUBIC_METRE.);
#24= IFCMEASUREWITHUNIT(IFCRATIOMEASURE(0.028316846592),#23);
#25= IFCDIMENSIONALEXPONENTS(3,0,0,0,0,0,0);
#26= IFCCONVERSIONBASEDUNIT(#25,.VOLUMEUNIT.,'CUBIC FOOT',#24);
#27= IFCSIUNIT(*,.MASSUNIT.,.KILO.,.GRAM.);
#28= IFCSIUNIT(*,.TIMEUNIT.,$,.SECOND.);
#29= IFCSIUNIT(*,.PLANEANGLEUNIT.,$,.RADIAN.);
#30= IFCMEASUREWITHUNIT(IFCRATIOMEASURE(0.0174532925199433),#29);
#31= IFCDIMENSIONALEXPONENTS(0,0,0,0,0,0,0);
#32= IFCCONVERSIONBASEDUNIT(#31,.PLANEANGLEUNIT.,'DEGREE',#30);
#33= IFCSIUNIT(*,.SOLIDANGLEUNIT.,$,.STERADIAN.);
#34= IFCSIUNIT(*,.THERMODYNAMICTEMPERATUREUNIT.,$,.DEGREE_CELSIUS.);
#35= IFCSIUNIT(*,.LUMINOUSINTENSITYUNIT.,$,.LUMEN.);
#36= IFCUNITASSIGNMENT((#15,#19,#23,#27,#28,#29,#33,#34,#35));
#37= IFCPROJECT('0HUJ7ElCDFpxHVq6mpLU6N',#5,'Undefined',$,$,$,$,(#11),#36);
#38= IFCLOCALPLACEMENT($,#10);
#39= IFCSITE('2n5LlUybT8fPi_h1j3mgsl',#5,'Undefined',$,$,#38,$,$,.ELEMENT.,$,$,$,$,$);
#40= IFCLOCALPLACEMENT(#38,#10);
#41= IFCBUILDING('3zq4TjYsv8mQ1vKV6yOkLz',#5,'Undefined',$,$,#40,$,$,.ELEMENT.,$,$,$);
#42= IFCLOCALPLACEMENT(#40,#10);
#43= IFCBUILDINGSTOREY('3gJPpYF7LCbf7I109fNVl5',#5,'Undefined',$,$,#42,$,$,.ELEMENT.,0.);
#44= IFCOWNERHISTORY(#3,#4,$,.NOCHANGE.,$,$,$,1770796800);
#45= IFCCOLOURRGB($,0.698039215686274,0.4,0.);
#46= IFCSURFACESTYLERENDERING(#45,0.,$,$,$,$,IFCNORMALISEDRATIOMEASURE(0.00390625),IFCSPECULAREXPONENT(10.),.NOTDEFINED.);
#47= IFCSURFACESTYLE('TS10.9',.POSITIVE.,(#46));
#48= IFCPRESENTATIONSTYLEASSIGNMENT((#47));
#49= IFCCARTESIANPOINT((11.,0.0999999998581188,0.));
#50= IFCCARTESIANPOINT((9.52627944162863,0.0999999998581188,5.50000000000033));
#51= IFCCARTESIANPOINT((5.49999999999934,0.0999999998581188,9.5262794416292));
#52= IFCCARTESIANPOINT((-1.13996957976035E-12,0.0999999998581188,11.));
#53= IFCCARTESIANPOINT((-5.50000000000131,0.0999999998581188,9.52627944162807));
#54= IFCCARTESIANPOINT((-9.52627944162977,0.0999999998581188,5.49999999999836));
#55= IFCCARTESIANPOINT((-11.,0.0999999998581188,-2.27993915952071E-12));
#56= IFCCARTESIANPOINT((-9.5262794416275,0.0999999998581188,-5.5000000000023));
#57= IFCCARTESIANPOINT((-5.49999999999737,0.0999999998581188,-9.52627944163034));
#58= IFCCARTESIANPOINT((3.40769628601019E-12,0.0999999998581188,-11.));
#59= IFCCARTESIANPOINT((5.50000000000328,0.0999999998581188,-9.52627944162693));
#60= IFCCARTESIANPOINT((9.52627944163091,0.0999999998581188,-5.49999999999638));
#61= IFCCARTESIANPOINT((11.,12.0999999998581,0.));
#62= IFCCARTESIANPOINT((9.52627944162863,12.0999999998581,5.50000000000033));
#63= IFCCARTESIANPOINT((5.49999999999934,12.0999999998581,9.5262794416292));
#64= IFCCARTESIANPOINT((-1.13996957976035E-12,12.0999999998581,11.));
#65= IFCCARTESIANPOINT((-5.50000000000131,12.0999999998581,9.52627944162807));
#66= IFCCARTESIANPOINT((-9.52627944162977,12.0999999998581,5.49999999999836));
#67= IFCCARTESIANPOINT((-11.,12.0999999998581,-2.27993915952071E-12));
#68= IFCCARTESIANPOINT((-9.5262794416275,12.0999999998581,-5.5000000000023));
#69= IFCCARTESIANPOINT((-5.49999999999737,12.0999999998581,-9.52627944163034));
#70= IFCCARTESIANPOINT((3.40769628601019E-12,12.0999999998581,-11.));
#71= IFCCARTESIANPOINT((5.50000000000328,12.0999999998581,-9.52627944162693));
#72= IFCCARTESIANPOINT((9.52627944163091,12.0999999998581,-5.49999999999638));
#73= IFCPOLYLOOP((#49,#50,#51,#52,#53,#54,#55,#56,#57,#58,#59,#60));
#74= IFCFACEOUTERBOUND(#73,.T.);
#75= IFCFACE((#74));
#76= IFCPOLYLOOP((#72,#71,#70,#69,#68,#67,#66,#65,#64,#63,#62,#61));
#77= IFCFACEOUTERBOUND(#76,.T.);
#78= IFCFACE((#77));
#79= IFCPOLYLOOP((#49,#61,#62,#50));
#80= IFCFACEOUTERBOUND(#79,.T.);
#81= IFCFACE((#80));
#82= IFCPOLYLOOP((#50,#62,#63,#51));
#83= IFCFACEOUTERBOUND(#82,.T.);
#84= IFCFACE((#83));
#85= IFCPOLYLOOP((#51,#63,#64,#52));
#86= IFCFACEOUTERBOUND(#85,.T.);
#87= IFCFACE((#86));
#88= IFCPOLYLOOP((#52,#64,#65,#53));
#89= IFCFACEOUTERBOUND(#88,.T.);
#90= IFCFACE((#89));
#91= IFCPOLYLOOP((#53,#65,#66,#54));
#92= IFCFACEOUTERBOUND(#91,.T.);
#93= IFCFACE((#92));
#94= IFCPOLYLOOP((#54,#66,#67,#55));
#95= IFCFACEOUTERBOUND(#94,.T.);
#96= IFCFACE((#95));
#97= IFCPOLYLOOP((#55,#67,#68,#56));
#98= IFCFACEOUTERBOUND(#97,.T.);
#99= IFCFACE((#98));
#100= IFCPOLYLOOP((#56,#68,#69,#57));
#101= IFCFACEOUTERBOUND(#100,.T.);
#102= IFCFACE((#101));
#103= IFCPOLYLOOP((#57,#69,#70,#58));
#104= IFCFACEOUTERBOUND(#103,.T.);
#105= IFCFACE((#104));
#106= IFCPOLYLOOP((#58,#70,#71,#59));
#107= IFCFACEOUTERBOUND(#106,.T.);
#108= IFCFACE((#107));
#109= IFCPOLYLOOP((#59,#71,#72,#60));
#110= IFCFACEOUTERBOUND(#109,.T.);
#111= IFCFACE((#110));
#112= IFCPOLYLOOP((#60,#72,#61,#49));
#113= IFCFACEOUTERBOUND(#112,.T.);
#114= IFCFACE((#113));
#115= IFCCARTESIANPOINT((30.,11.9999999999218,0.));
#116= IFCCARTESIANPOINT((29.162674857624,11.9999999999218,4.20951775601625));
#117= IFCCARTESIANPOINT((26.7781745930516,11.9999999999218,7.77817459305242));
#118= IFCCARTESIANPOINT((23.2095177560152,11.9999999999218,10.1626748576245));
#119= IFCCARTESIANPOINT((-19.0000000000011,11.9999999999218,11.));
#120= IFCCARTESIANPOINT((-24.5000000000013,11.9999999999218,9.52627944162807));
#121= IFCCARTESIANPOINT((-28.5262794416298,11.9999999999218,5.49999999999836));
#122= IFCCARTESIANPOINT((-30.,11.9999999999218,-2.27993915952071E-12));
#123= IFCCARTESIANPOINT((-28.5262794416275,11.9999999999218,-5.5000000000023));
#124= IFCCARTESIANPOINT((-24.4999999999974,11.9999999999218,-9.52627944163034));
#125= IFCCARTESIANPOINT((-18.9999999999966,11.9999999999218,-11.));
#126= IFCCARTESIANPOINT((19.0000000000034,11.9999999999218,-11.));
#127= IFCCARTESIANPOINT((24.5000000000033,11.9999999999218,-9.52627944162693));
#128= IFCCARTESIANPOINT((28.5262794416309,11.9999999999218,-5.49999999999638));
#129= IFCCARTESIANPOINT((30.,29.9999999999218,0.));
#130= IFCCARTESIANPOINT((29.162674857624,29.9999999999218,4.20951775601625));
#131= IFCCARTESIANPOINT((26.7781745930516,29.9999999999218,7.77817459305242));
#132= IFCCARTESIANPOINT((23.2095177560152,29.9999999999218,10.1626748576245));
#133= IFCCARTESIANPOINT((-19.0000000000011,29.9999999999218,11.));
#134= IFCCARTESIANPOINT((-24.5000000000013,29.9999999999218,9.52627944162807));
#135= IFCCARTESIANPOINT((-28.5262794416298,29.9999999999218,5.49999999999836));
#136= IFCCARTESIANPOINT((-30.,29.9999999999218,-2.27993915952071E-12));
#137= IFCCARTESIANPOINT((-28.5262794416275,29.9999999999218,-5.5000000000023));
#138= IFCCARTESIANPOINT((-24.4999999999974,29.9999999999218,-9.52627944163034));
#139= IFCCARTESIANPOINT((-18.9999999999966,29.9999999999218,-11.));
#140= IFCCARTESIANPOINT((19.0000000000034,29.9999999999218,-11.));
#141= IFCCARTESIANPOINT((24.5000000000033,29.9999999999218,-9.52627944162693));
#142= IFCCARTESIANPOINT((28.5262794416309,29.9999999999218,-5.49999999999638));
#143= IFCPOLYLOOP((#115,#116,#117,#118,#119,#120,#121,#122,#123,#124,#125,#126,#127,#128));
#144= IFCFACEOUTERBOUND(#143,.T.);
#145= IFCFACE((#144));
#146= IFCPOLYLOOP((#129,#142,#141,#140,#139,#138,#137,#136,#135,#134,#133,#132,#131,#130));
#147= IFCFACEOUTERBOUND(#146,.T.);
#148= IFCFACE((#147));
#149= IFCPOLYLOOP((#115,#129,#130,#116));
#150= IFCFACEOUTERBOUND(#149,.T.);
#151= IFCFACE((#150));
#152= IFCPOLYLOOP((#116,#130,#131,#117));
#153= IFCFACEOUTERBOUND(#152,.T.);
#154= IFCFACE((#153));
#155= IFCPOLYLOOP((#117,#131,#132,#118));
#156= IFCFACEOUTERBOUND(#155,.T.);
#157= IFCFACE((#156));
#158= IFCPOLYLOOP((#118,#132,#133,#119));
#159= IFCFACEOUTERBOUND(#158,.T.);
#160= IFCFACE((#159));
#161= IFCPOLYLOOP((#119,#133,#134,#120));
#162= IFCFACEOUTERBOUND(#161,.T.);
#163= IFCFACE((#162));
#164= IFCPOLYLOOP((#120,#134,#135,#121));
#165= IFCFACEOUTERBOUND(#164,.T.);
#166= IFCFACE((#165));
#167= IFCPOLYLOOP((#121,#135,#136,#122));
#168= IFCFACEOUTERBOUND(#167,.T.);
#169= IFCFACE((#168));
#170= IFCPOLYLOOP((#122,#136,#137,#123));
#171= IFCFACEOUTERBOUND(#170,.T.);
#172= IFCFACE((#171));
#173= IFCPOLYLOOP((#123,#137,#138,#124));
#174= IFCFACEOUTERBOUND(#173,.T.);
#175= IFCFACE((#174));
#176= IFCPOLYLOOP((#124,#138,#139,#125));
#177= IFCFACEOUTERBOUND(#176,.T.);
#178= IFCFACE((#177));
#179= IFCPOLYLOOP((#125,#139,#140,#126));
#180= IFCFACEOUTERBOUND(#179,.T.);
#181= IFCFACE((#180));
#182= IFCPOLYLOOP((#126,#140,#141,#127));
#183= IFCFACEOUTERBOUND(#182,.T.);
#184= IFCFACE((#183));
#185= IFCPOLYLOOP((#127,#141,#142,#128));
#186= IFCFACEOUTERBOUND(#185,.T.);
#187= IFCFACE((#186));
#188= IFCPOLYLOOP((#128,#142,#129,#115));
#189= IFCFACEOUTERBOUND(#188,.T.);
#190= IFCFACE((#189));
#191= IFCCARTESIANPOINT((30.,285.999999999922,0.));
#192= IFCCARTESIANPOINT((29.162674857624,285.999999999922,4.20951775601625));
#193= IFCCARTESIANPOINT((26.7781745930516,285.999999999922,7.77817459305242));
#194= IFCCARTESIANPOINT((23.2095177560152,285.999999999922,10.1626748576245));
#195= IFCCARTESIANPOINT((-19.0000000000011,285.999999999922,11.));
#196= IFCCARTESIANPOINT((-24.5000000000013,285.999999999922,9.52627944162807));
#197= IFCCARTESIANPOINT((-28.5262794416298,285.999999999922,5.49999999999836));
#198= IFCCARTESIANPOINT((-30.,285.999999999922,-2.27993915952071E-12));
#199= IFCCARTESIANPOINT((-28.5262794416275,285.999999999922,-5.5000000000023));
#200= IFCCARTESIANPOINT((-24.4999999999974,285.999999999922,-9.52627944163034));
#201= IFCCARTESIANPOINT((-18.9999999999966,285.999999999922,-11.));
#202= IFCCARTESIANPOINT((19.0000000000034,285.999999999922,-11.));
#203= IFCCARTESIANPOINT((24.5000000000033,285.999999999922,-9.52627944162693));
#204= IFCCARTESIANPOINT((28.5262794416309,285.999999999922,-5.49999999999638));
#205= IFCCARTESIANPOINT((30.,303.999999999922,0.));
#206= IFCCARTESIANPOINT((29.162674857624,303.999999999922,4.20951775601625));
#207= IFCCARTESIANPOINT((26.7781745930516,303.999999999922,7.77817459305242));
#208= IFCCARTESIANPOINT((23.2095177560152,303.999999999922,10.1626748576245));
#209= IFCCARTESIANPOINT((-19.0000000000011,303.999999999922,11.));
#210= IFCCARTESIANPOINT((-24.5000000000013,303.999999999922,9.52627944162807));
#211= IFCCARTESIANPOINT((-28.5262794416298,303.999999999922,5.49999999999836));
#212= IFCCARTESIANPOINT((-30.,303.999999999922,-2.27993915952071E-12));
#213= IFCCARTESIANPOINT((-28.5262794416275,303.999999999922,-5.5000000000023));
#214= IFCCARTESIANPOINT((-24.4999999999974,303.999999999922,-9.52627944163034));
#215= IFCCARTESIANPOINT((-18.9999999999966,303.999999999922,-11.));
#216= IFCCARTESIANPOINT((19.0000000000034,303.999999999922,-11.));
#217= IFCCARTESIANPOINT((24.5000000000033,303.999999999922,-9.52627944162693));
#218= IFCCARTESIANPOINT((28.5262794416309,303.999999999922,-5.49999999999638));
#219= IFCPOLYLOOP((#191,#192,#193,#194,#195,#196,#197,#198,#199,#200,#201,#202,#203,#204));
#220= IFCFACEOUTERBOUND(#219,.T.);
#221= IFCFACE((#220));
#222= IFCPOLYLOOP((#205,#218,#217,#216,#215,#214,#213,#212,#211,#210,#209,#208,#207,#206));
#223= IFCFACEOUTERBOUND(#222,.T.);
#224= IFCFACE((#223));
#225= IFCPOLYLOOP((#191,#205,#206,#192));
#226= IFCFACEOUTERBOUND(#225,.T.);
#227= IFCFACE((#226));
#228= IFCPOLYLOOP((#192,#206,#207,#193));
#229= IFCFACEOUTERBOUND(#228,.T.);
#230= IFCFACE((#229));
#231= IFCPOLYLOOP((#193,#207,#208,#194));
#232= IFCFACEOUTERBOUND(#231,.T.);
#233= IFCFACE((#232));
#234= IFCPOLYLOOP((#194,#208,#209,#195));
#235= IFCFACEOUTERBOUND(#234,.T.);
#236= IFCFACE((#235));
#237= IFCPOLYLOOP((#195,#209,#210,#196));
#238= IFCFACEOUTERBOUND(#237,.T.);
#239= IFCFACE((#238));
#240= IFCPOLYLOOP((#196,#210,#211,#197));
#241= IFCFACEOUTERBOUND(#240,.T.);
#242= IFCFACE((#241));
#243= IFCPOLYLOOP((#197,#211,#212,#198));
#244= IFCFACEOUTERBOUND(#243,.T.);
#245= IFCFACE((#244));
#246= IFCPOLYLOOP((#198,#212,#213,#199));
#247= IFCFACEOUTERBOUND(#246,.T.);
#248= IFCFACE((#247));
#249= IFCPOLYLOOP((#199,#213,#214,#200));
#250= IFCFACEOUTERBOUND(#249,.T.);
#251= IFCFACE((#250));
#252= IFCPOLYLOOP((#200,#214,#215,#201));
#253= IFCFACEOUTERBOUND(#252,.T.);
#254= IFCFACE((#253));
#255= IFCPOLYLOOP((#201,#215,#216,#202));
#256= IFCFACEOUTERBOUND(#255,.T.);
#257= IFCFACE((#256));
#258= IFCPOLYLOOP((#202,#216,#217,#203));
#259= IFCFACEOUTERBOUND(#258,.T.);
#260= IFCFACE((#259));
#261= IFCPOLYLOOP((#203,#217,#218,#204));
#262= IFCFACEOUTERBOUND(#261,.T.);
#263= IFCFACE((#262));
#264= IFCPOLYLOOP((#204,#218,#205,#191));
#265= IFCFACEOUTERBOUND(#264,.T.);
#266= IFCFACE((#265));
#267= IFCCARTESIANPOINT((11.,303.899999999858,0.));
#268= IFCCARTESIANPOINT((9.52627944162863,303.899999999858,5.50000000000033));
#269= IFCCARTESIANPOINT((5.49999999999934,303.899999999858,9.5262794416292));
#270= IFCCARTESIANPOINT((-1.13996957976035E-12,303.899999999858,11.));
#271= IFCCARTESIANPOINT((-5.50000000000131,303.899999999858,9.52627944162807));
#272= IFCCARTESIANPOINT((-9.52627944162977,303.899999999858,5.49999999999836));
#273= IFCCARTESIANPOINT((-11.,303.899999999858,-2.27993915952071E-12));
#274= IFCCARTESIANPOINT((-9.5262794416275,303.899999999858,-5.5000000000023));
#275= IFCCARTESIANPOINT((-5.49999999999737,303.899999999858,-9.52627944163034));
#276= IFCCARTESIANPOINT((3.40769628601019E-12,303.899999999858,-11.));
#277= IFCCARTESIANPOINT((5.50000000000328,303.899999999858,-9.52627944162693));
#278= IFCCARTESIANPOINT((9.52627944163091,303.899999999858,-5.49999999999638));
#279= IFCCARTESIANPOINT((11.,315.999999999858,0.));
#280= IFCCARTESIANPOINT((9.52627944162863,315.999999999858,5.50000000000033));
#281= IFCCARTESIANPOINT((5.49999999999934,315.999999999858,9.5262794416292));
#282= IFCCARTESIANPOINT((-1.13996957976035E-12,315.999999999858,11.));
#283= IFCCARTESIANPOINT((-5.50000000000131,315.999999999858,9.52627944162807));
#284= IFCCARTESIANPOINT((-9.52627944162977,315.999999999858,5.49999999999836));
#285= IFCCARTESIANPOINT((-11.,315.999999999858,-2.27993915952071E-12));
#286= IFCCARTESIANPOINT((-9.5262794416275,315.999999999858,-5.5000000000023));
#287= IFCCARTESIANPOINT((-5.49999999999737,315.999999999858,-9.52627944163034));
#288= IFCCARTESIANPOINT((3.40769628601019E-12,315.999999999858,-11.));
#289= IFCCARTESIANPOINT((5.50000000000328,315.999999999858,-9.52627944162693));
#290= IFCCARTESIANPOINT((9.52627944163091,315.999999999858,-5.49999999999638));
#291= IFCPOLYLOOP((#267,#268,#269,#270,#271,#272,#273,#274,#275,#276,#277,#278));
#292= IFCFACEOUTERBOUND(#291,.T.);
#293= IFCFACE((#292));
#294= IFCPOLYLOOP((#290,#289,#288,#287,#286,#285,#284,#283,#282,#281,#280,#279));
#295= IFCFACEOUTERBOUND(#294,.T.);
#296= IFCFACE((#295));
#297= IFCPOLYLOOP((#267,#279,#280,#268));
#298= IFCFACEOUTERBOUND(#297,.T.);
#299= IFCFACE((#298));
#300= IFCPOLYLOOP((#268,#280,#281,#269));
#301= IFCFACEOUTERBOUND(#300,.T.);
#302= IFCFACE((#301));
#303= IFCPOLYLOOP((#269,#281,#282,#270));
#304= IFCFACEOUTERBOUND(#303,.T.);
#305= IFCFACE((#304));
#306= IFCPOLYLOOP((#270,#282,#283,#271));
#307= IFCFACEOUTERBOUND(#306,.T.);
#308= IFCFACE((#307));
#309= IFCPOLYLOOP((#271,#283,#284,#272));
#310= IFCFACEOUTERBOUND(#309,.T.);
#311= IFCFACE((#310));
#312= IFCPOLYLOOP((#272,#284,#285,#273));
#313= IFCFACEOUTERBOUND(#312,.T.);
#314= IFCFACE((#313));
#315= IFCPOLYLOOP((#273,#285,#286,#274));
#316= IFCFACEOUTERBOUND(#315,.T.);
#317= IFCFACE((#316));
#318= IFCPOLYLOOP((#274,#286,#287,#275));
#319= IFCFACEOUTERBOUND(#318,.T.);
#320= IFCFACE((#319));
#321= IFCPOLYLOOP((#275,#287,#288,#276));
#322= IFCFACEOUTERBOUND(#321,.T.);
#323= IFCFACE((#322));
#324= IFCPOLYLOOP((#276,#288,#289,#277));
#325= IFCFACEOUTERBOUND(#324,.T.);
#326= IFCFACE((#325));
#327= IFCPOLYLOOP((#277,#289,#290,#278));
#328= IFCFACEOUTERBOUND(#327,.T.);
#329= IFCFACE((#328));
#330= IFCPOLYLOOP((#278,#290,#279,#267));
#331= IFCFACEOUTERBOUND(#330,.T.);
#332= IFCFACE((#331));
#333= IFCCLOSEDSHELL((#75,#78,#81,#84,#87,#90,#93,#96,#99,#102,#105,#108,#111,#114,#145,#148,#151,#154,#157,#160,#163,#166,#169,#172,#175,#178,#181,#184,#187,#190,#221,#224,#227,#230,#233,#236,#239,#242,#245,#248,#251,#254,#257,#260,#263,#266,#293,#296,#299,#302,#305,#308,#311,#314,#317,#320,#323,#326,#329,#332));
#334= IFCCOLOURRGB($,0.,0.,0.);
#335= IFCSURFACESTYLERENDERING(#334,0.,$,$,$,$,IFCNORMALISEDRATIOMEASURE(0.00390625),IFCSPECULAREXPONENT(10.),.NOTDEFINED.);
#336= IFCSURFACESTYLE($,.POSITIVE.,(#335));
#337= IFCPRESENTATIONSTYLEASSIGNMENT((#336));
#338= IFCFACETEDBREP(#333);
#339= IFCSTYLEDITEM(#338,(#337),$);
#340= IFCCARTESIANPOINT((39.9999999999418,0.,39.9999999997963));
#341= IFCCARTESIANTRANSFORMATIONOPERATOR3D($,$,#340,$,$);
#342= IFCSHAPEREPRESENTATION(#12,'Body','Brep',(#338));
#343= IFCREPRESENTATIONMAP(#10,#342);
#344= IFCMAPPEDITEM(#343,#341);
#345= IFCSHAPEREPRESENTATION(#12,'Body','MappedRepresentation',(#344));
#346= IFCPRODUCTDEFINITIONSHAPE($,$,(#345));
#347= IFCCARTESIANPOINT((56489.9930114951,16151.7024001656,10336.0001907369));
#348= IFCDIRECTION((0.999999999398649,-3.46800000297662E-05,0.));
#349= IFCDIRECTION((-3.46800000302662E-05,-0.999999999398649,0.));
#350= IFCAXIS2PLACEMENT3D(#347,#348,#349);
#351= IFCLOCALPLACEMENT(#42,#350);
#352= IFCMECHANICALFASTENER('1cTq0x4Sj6GPZh4CKXTF$Q',#44,'Bolt assembly',$,$,#351,#346,'ID6677403b-11cb-4641-98eb-10c52174ffda',20.,1316.);
#353= IFCMECHANICALFASTENERTYPE('2trCjXKDD6FRSLbx51ITtW',#5,'Bolt assembly',$,$,$,$,$,$);
#354= IFCPROPERTYSINGLEVALUE('Washer count',$,IFCINTEGER(0),$);
#355= IFCPROPERTYSINGLEVALUE('Washer diameter',$,IFCLENGTHMEASURE(20.),$);
#356= IFCPROPERTYSINGLEVALUE('Washer type',$,IFCLABEL(''),$);
#357= IFCPROPERTYSINGLEVALUE('Washer name',$,IFCLABEL(''),$);
#358= IFCPROPERTYSINGLEVALUE('Nut count',$,IFCINTEGER(0),$);
#359= IFCPROPERTYSINGLEVALUE('Nut type',$,IFCLABEL(''),$);
#360= IFCPROPERTYSINGLEVALUE('Nut name',$,IFCLABEL(''),$);
#361= IFCPROPERTYSINGLEVALUE('Slotted hole y',$,IFCLENGTHMEASURE(0.),$);
#362= IFCPROPERTYSINGLEVALUE('Slotted hole x',$,IFCLENGTHMEASURE(38.),$);
#363= IFCPROPERTYSINGLEVALUE('Bolt hole diameter',$,IFCLENGTHMEASURE(22.),$);
#364= IFCPROPERTYSINGLEVALUE('Location',$,IFCLABEL('Site'),$);
#365= IFCPROPERTYSINGLEVALUE('Bolt count',$,IFCINTEGER(1),$);
#366= IFCPROPERTYSINGLEVALUE('Bolt size',$,IFCLENGTHMEASURE(22.),$);
#367= IFCPROPERTYSINGLEVALUE('Bolt length',$,IFCLENGTHMEASURE(1316.),$);
#368= IFCPROPERTYSINGLEVALUE('Bolt standard',$,IFCLABEL('TS10.9'),$);
#369= IFCPROPERTYSINGLEVALUE('Bolt Name',$,IFCLABEL(''),$);
#370= IFCPROPERTYSET('2Y2Glp9L5B7wc0Tf2q$0Xk',#5,'Tekla Bolt','Bolt Properties',(#354,#355,#356,#357,#358,#359,#360,#361,#362,#363,#364,#365,#366,#367,#368,#369));
#371= IFCMATERIAL('TS10.9');
#372= IFCCOLOURRGB('Light Red',0.905882352941176,0.325490196078431,0.36078431372549);
#373= IFCSURFACESTYLERENDERING(#372,0.,$,$,$,$,IFCNORMALISEDRATIOMEASURE(0.00390625),IFCSPECULAREXPONENT(10.),.NOTDEFINED.);
#374= IFCSURFACESTYLE('STEEL/S275',.POSITIVE.,(#373));
#375= IFCPRESENTATIONSTYLEASSIGNMENT((#374));
#376= IFCCARTESIANPOINT((0.,-6.,0.));
#377= IFCCARTESIANPOINT((-0.00138719996903092,-6.,80.));
#378= IFCCARTESIANPOINT((-0.00138719996903092,6.,80.));
#379= IFCCARTESIANPOINT((0.,6.,0.));
#380= IFCPOLYLOOP((#376,#377,#378,#379));
#381= IFCFACEOUTERBOUND(#380,.T.);
#382= IFCFACE((#381));
#383= IFCCARTESIANPOINT((80.0019073486328,-6.,80.));
#384= IFCCARTESIANPOINT((80.0019073486328,6.,80.));
#385= IFCPOLYLOOP((#377,#383,#384,#378));
#386= IFCFACEOUTERBOUND(#385,.T.);
#387= IFCFACE((#386));
#388= IFCCARTESIANPOINT((80.0019073486328,-6.,0.));
#389= IFCCARTESIANPOINT((80.0019073486328,6.,0.));
#390= IFCPOLYLOOP((#383,#388,#389,#384));
#391= IFCFACEOUTERBOUND(#390,.T.);
#392= IFCFACE((#391));
#393= IFCPOLYLOOP((#388,#376,#379,#389));
#394= IFCFACEOUTERBOUND(#393,.T.);
#395= IFCFACE((#394));
#396= IFCPOLYLOOP((#384,#389,#379,#378));
#397= IFCFACEOUTERBOUND(#396,.T.);
#398= IFCFACE((#397));
#399= IFCPOLYLOOP((#388,#383,#377,#376));
#400= IFCFACEOUTERBOUND(#399,.T.);
#401= IFCFACE((#400));
#402= IFCCLOSEDSHELL((#382,#387,#392,#395,#398,#401));
#403= IFCFACETEDBREP(#402);
#404= IFCSTYLEDITEM(#403,(#375),$);
#405= IFCSHAPEREPRESENTATION(#12,'Body','Brep',(#403));
#406= IFCPRODUCTDEFINITIONSHAPE($,$,(#405));
#407= IFCCARTESIANPOINT((56570.004394995,16151.6989319711,10026.000190737));
#408= IFCDIRECTION((-1.,0.,0.));
#409= IFCDIRECTION((0.,-1.,0.));
#410= IFCAXIS2PLACEMENT3D(#407,#408,#409);
#411= IFCLOCALPLACEMENT(#42,#410);
#412= IFCPLATE('3kDfCVRTX7IP3xtsknX_MX',#44,'PLATE-12','PL12*80',$,#411,#406,'IDee36931f-6dd8-4749-90fb-df6bb187e5a1');
#413= IFCPLATETYPE('3aodLmAwD5XORKWwYFwYns',#5,'PL12*80',$,$,$,$,$,$,.NOTDEFINED.);
#414= IFCPROPERTYSINGLEVALUE('Bottom elevation',$,IFCLABEL(' +10.020'),$);
#415= IFCPROPERTYSINGLEVALUE('Top elevation',$,IFCLABEL(' +10.032'),$);
#416= IFCPROPERTYSINGLEVALUE('Initial GUID',$,$,$);
#417= IFCPROPERTYSINGLEVALUE('Preliminary mark',$,IFCLABEL('5-1-P20'),$);
#418= IFCPROPERTYSINGLEVALUE('Phase',$,IFCINTEGER(4),$);
#419= IFCPROPERTYSINGLEVALUE('Class',$,IFCLABEL('16'),$);
#420= IFCPROPERTYSET('3mC3bG65HBeuS$ZWEwcY0j',#5,'Tekla Common','Common Properties to Shared building elements',(#414,#415,#416,#417,#418,#419));
#421= IFCPROPERTYSINGLEVALUE('Weight',$,IFCMASSMEASURE(0.6),$);
#422= IFCPROPERTYSINGLEVALUE('Volume',$,IFCVOLUMEMEASURE(0.),$);
#423= IFCPROPERTYSINGLEVALUE('Gross footprint area',$,IFCAREAMEASURE(0.006),$);
#424= IFCPROPERTYSINGLEVALUE('Area per tons',$,IFCAREAMEASURE(27.601),$);
#425= IFCPROPERTYSINGLEVALUE('Net surface area',$,IFCAREAMEASURE(0.017),$);
#426= IFCPROPERTYSINGLEVALUE('Height',$,IFCLENGTHMEASURE(80.),$);
#427= IFCPROPERTYSINGLEVALUE('Width',$,IFCLENGTHMEASURE(12.),$);
#428= IFCPROPERTYSINGLEVALUE('Length',$,IFCLENGTHMEASURE(80.),$);
#429= IFCPROPERTYSET('1MBdBoG25CmgcM5C6FsnQD',#5,'Tekla Quantity','Quantity Properties to Shared building elements',(#421,#422,#423,#424,#425,#426,#427,#428));
#430= IFCPROPERTYSINGLEVALUE('LoadBearing',$,IFCBOOLEAN(.F.),$);
#431= IFCPROPERTYSINGLEVALUE('Reference',$,IFCIDENTIFIER('5-1-P20'),$);
#432= IFCPROPERTYSET('3kMT5YkfHF$8Zxcy5zNNit',#5,'Pset_PlateCommon','Common Properties to plate elements',(#430,#431));
#433= IFCQUANTITYLENGTH('Width',$,$,80.0000000000018);
#434= IFCQUANTITYAREA('NetArea',$,$,0.0166404785746901);
#435= IFCQUANTITYAREA('GrossArea',$,$,0.00640026356388829);
#436= IFCQUANTITYAREA('CrossSectionArea',$,$,0.000144);
#437= IFCQUANTITYVOLUME('NetVolume',$,$,7.68024969106735E-05);
#438= IFCQUANTITYVOLUME('GrossVolume',$,$,7.68024969106735E-05);
#439= IFCELEMENTQUANTITY('1I3yy_FPPFkuUF8FhVaey2',#5,'BaseQuantities',$,$,(#433,#434,#435,#436,#437,#438));
#440= IFCMATERIAL('STEEL/S275');
#441= IFCRELAGGREGATES('1kSJKd0e9DKg383qQBWyQR',#5,$,$,#37,(#39));
#442= IFCRELAGGREGATES('0WlHQtWkj12edoJHCRHLWh',#5,$,$,#39,(#41));
#443= IFCRELAGGREGATES('2MFAFE2Az8Xv7_quOLz9Kf',#5,$,$,#41,(#43));
#444= IFCRELCONTAINEDINSPATIALSTRUCTURE('1Bx$yW2uX0$f7JETKfpWg_',#5,$,$,(#412,#352),#43);
#445= IFCRELDEFINESBYPROPERTIES('0LgjBDpdX4rQ1BQSgew$uI',#5,$,$,(#352),#370);
#446= IFCRELDEFINESBYPROPERTIES('1Q8ylk2Lr3ov$2foAdt9Bf',#5,$,$,(#412),#420);
#447= IFCRELDEFINESBYPROPERTIES('2bq7RON8H7B87nK$oMZMv_',#5,$,$,(#412),#429);
#448= IFCRELDEFINESBYPROPERTIES('2b32Low2jB7euZTWJs21aY',#5,$,$,(#412),#432);
#449= IFCRELDEFINESBYPROPERTIES('1gTDZb$6bDue9BSSjbZoGq',#5,$,$,(#412),#439);
#450= IFCRELDEFINESBYTYPE('0PLC_MluTFefA_BAJZbwiu',#5,$,$,(#352),#353);
#451= IFCRELDEFINESBYTYPE('1z3cZoRJv7bud2fGEYVlJK',#5,$,$,(#412),#413);
#452= IFCRELASSOCIATESMATERIAL('1MToTwvBjBI8S8MnPPlm1i',#5,$,$,(#352),#371);
#453= IFCRELASSOCIATESMATERIAL('1PrWz$UAH7vAbQvqtK_udV',#5,$,$,(#412),#440);
#454= IFCPRESENTATIONLAYERASSIGNMENT('BoltArray',$,(#345),$);
#455= IFCPRESENTATIONLAYERASSIGNMENT('PLATE-12',$,(#405),$);
ENDSEC;

END-ISO-10303-21;
