ISO-10303-21;
HEADER;
FILE_DESCRIPTION(('ViewDefinition[CoordinationView_V2.0, QuantityTakeOffAddOnView]', 'ExchangeRequirement[Structural, SurfaceGeometry]', 'Option [BaseQuantities:On]', 'Option [GridExport:On]', 'Option [Assemblies:Off]', 'Option [Bolts:On]', 'Option [Rebars:On]', 'Option [PourObjects:Off]', 'Option [Welds:Off]', 'Option [SurfaceTreatments:On]', 'Option [LocationBy:0]', 'Option [ViewColors:Off]', 'Option [SectionedSpine:Off]', 'Option [PropertySets:On]', 'Option [Export all:Off]'),'2;1');
FILE_NAME('5-1-A2.ifc','2026-03-10T09:15:06',('DESKTOP-NLV509P\\Ahmed'),('Structural Designer'),'IFC Parser version: 3.13.2','Tekla Structures 2023 Service Pack 8, IFC Export Version: 4.0.0.0 Jan 19 2024','');
FILE_SCHEMA(('IFC2X3'));
ENDSEC;

DATA;
#1= IFCPERSON('DESKTOP-NLV509P\\Ahmed','Undefined',$,$,$,$,$,$);
#2= IFCORGANIZATION($,'Trimble Solutions Corporation',$,$,$);
#3= IFCPERSONANDORGANIZATION(#1,#2,$);
#4= IFCAPPLICATION(#2,'2023 Service Pack 8','Tekla Structures','Multi material modeling');
#5= IFCOWNERHISTORY(#3,#4,$,.NOCHANGE.,$,$,$,1773123306);
#6= IFCCARTESIANPOINT((0.,0.,0.));
#7= IFCDIRECTION((1.,0.,0.));
#8= IFCDIRECTION((0.,1.,0.));
#9= IFCDIRECTION((0.,0.,1.));
#10= IFCAXIS2PLACEMENT3D(#6,#9,#7);
#11= IFCGEOMETRICREPRESENTATIONCONTEXT($,'Model',3,1.E-05,#10,$);
#12= IFCGEOMETRICREPRESENTATIONSUBCONTEXT('Body','Model',*,*,*,*,#11,$,.MODEL_VIEW.,$);
#13= IFCGEOMETRICREPRESENTATIONSUBCONTEXT('Axis','Model',*,*,*,*,#11,$,.GRAPH_VIEW.,$);
#14= IFCGEOMETRICREPRESENTATIONSUBCONTEXT('FootPrint','Model',*,*,*,*,#11,$,.MODEL_VIEW.,$);
#15= IFCSIUNIT(*,.LENGTHUNIT.,.MILLI.,.METRE.);
#16= IFCMEASUREWITHUNIT(IFCRATIOMEASURE(304.8),#15);
#17= IFCDIMENSIONALEXPONENTS(1,0,0,0,0,0,0);
#18= IFCCONVERSIONBASEDUNIT(#17,.LENGTHUNIT.,'FOOT',#16);
#19= IFCSIUNIT(*,.AREAUNIT.,$,.SQUARE_METRE.);
#20= IFCMEASUREWITHUNIT(IFCRATIOMEASURE(0.09290304),#19);
#21= IFCDIMENSIONALEXPONENTS(2,0,0,0,0,0,0);
#22= IFCCONVERSIONBASEDUNIT(#21,.AREAUNIT.,'SQUARE FOOT',#20);
#23= IFCSIUNIT(*,.VOLUMEUNIT.,$,.CUBIC_METRE.);
#24= IFCMEASUREWITHUNIT(IFCRATIOMEASURE(0.028316846592),#23);
#25= IFCDIMENSIONALEXPONENTS(3,0,0,0,0,0,0);
#26= IFCCONVERSIONBASEDUNIT(#25,.VOLUMEUNIT.,'CUBIC FOOT',#24);
#27= IFCSIUNIT(*,.MASSUNIT.,.KILO.,.GRAM.);
#28= IFCSIUNIT(*,.TIMEUNIT.,$,.SECOND.);
#29= IFCSIUNIT(*,.PLANEANGLEUNIT.,$,.RADIAN.);
#30= IFCMEASUREWITHUNIT(IFCRATIOMEASURE(0.0174532925199433),#29);
#31= IFCDIMENSIONALEXPONENTS(0,0,0,0,0,0,0);
#32= IFCCONVERSIONBASEDUNIT(#31,.PLANEANGLEUNIT.,'DEGREE',#30);
#33= IFCSIUNIT(*,.SOLIDANGLEUNIT.,$,.STERADIAN.);
#34= IFCSIUNIT(*,.THERMODYNAMICTEMPERATUREUNIT.,$,.DEGREE_CELSIUS.);
#35= IFCSIUNIT(*,.LUMINOUSINTENSITYUNIT.,$,.LUMEN.);
#36= IFCUNITASSIGNMENT((#15,#19,#23,#27,#28,#29,#33,#34,#35));
#37= IFCPROJECT('2lfvZfe_L9yxOYW1UdUFKj',#5,'Undefined',$,$,$,$,(#11),#36);
#38= IFCLOCALPLACEMENT($,#10);
#39= IFCSITE('3UTlPjwN15cAIrC7JnoLlI',#5,'Undefined',$,$,#38,$,$,.ELEMENT.,$,$,$,$,$);
#40= IFCLOCALPLACEMENT(#38,#10);
#41= IFCBUILDING('0w$q0pK9fEqPvFacgxsIfq',#5,'Undefined',$,$,#40,$,$,.ELEMENT.,$,$,$);
#42= IFCLOCALPLACEMENT(#40,#10);
#43= IFCBUILDINGSTOREY('3gJPpYF7LCbf7I109fNVl5',#5,'Undefined',$,$,#42,$,$,.ELEMENT.,0.);
#44= IFCOWNERHISTORY(#3,#4,$,.NOCHANGE.,$,$,$,1770840000);
#45= IFCCOLOURRGB($,0.698039215686274,0.4,0.);
#46= IFCSURFACESTYLERENDERING(#45,0.,$,$,$,$,IFCNORMALISEDRATIOMEASURE(0.00390625),IFCSPECULAREXPONENT(10.),.NOTDEFINED.);
#47= IFCSURFACESTYLE('EVENT',.POSITIVE.,(#46));
#48= IFCPRESENTATIONSTYLEASSIGNMENT((#47));
#49= IFCCARTESIANPOINT((7.5,-4.,0.));
#50= IFCCARTESIANPOINT((6.49519052838316,-4.,3.75000000000022));
#51= IFCCARTESIANPOINT((3.74999999999955,-4.,6.49519052838355));
#52= IFCCARTESIANPOINT((-7.77251986200242E-13,-4.,7.5));
#53= IFCCARTESIANPOINT((-3.7500000000009,-4.,6.49519052838277));
#54= IFCCARTESIANPOINT((-6.49519052838394,-4.,3.74999999999888));
#55= IFCCARTESIANPOINT((-7.5,-4.,-1.55450397240048E-12));
#56= IFCCARTESIANPOINT((-6.49519052838238,-4.,-3.75000000000157));
#57= IFCCARTESIANPOINT((-3.74999999999821,-4.,-6.49519052838432));
#58= IFCCARTESIANPOINT((2.32342928591604E-12,-4.,-7.5));
#59= IFCCARTESIANPOINT((3.75000000000224,-4.,-6.495190528382));
#60= IFCCARTESIANPOINT((6.49519052838471,-4.,-3.74999999999753));
#61= IFCCARTESIANPOINT((7.5,4.1,0.));
#62= IFCCARTESIANPOINT((6.49519052838316,4.1,3.75000000000022));
#63= IFCCARTESIANPOINT((3.74999999999955,4.1,6.49519052838355));
#64= IFCCARTESIANPOINT((-7.77251986200242E-13,4.1,7.5));
#65= IFCCARTESIANPOINT((-3.7500000000009,4.1,6.49519052838277));
#66= IFCCARTESIANPOINT((-6.49519052838394,4.1,3.74999999999888));
#67= IFCCARTESIANPOINT((-7.5,4.1,-1.55450397240048E-12));
#68= IFCCARTESIANPOINT((-6.49519052838238,4.1,-3.75000000000157));
#69= IFCCARTESIANPOINT((-3.74999999999821,4.1,-6.49519052838432));
#70= IFCCARTESIANPOINT((2.32342928591604E-12,4.1,-7.5));
#71= IFCCARTESIANPOINT((3.75000000000224,4.1,-6.495190528382));
#72= IFCCARTESIANPOINT((6.49519052838471,4.1,-3.74999999999753));
#73= IFCPOLYLOOP((#49,#50,#51,#52,#53,#54,#55,#56,#57,#58,#59,#60));
#74= IFCFACEOUTERBOUND(#73,.T.);
#75= IFCFACE((#74));
#76= IFCPOLYLOOP((#72,#71,#70,#69,#68,#67,#66,#65,#64,#63,#62,#61));
#77= IFCFACEOUTERBOUND(#76,.T.);
#78= IFCFACE((#77));
#79= IFCPOLYLOOP((#49,#61,#62,#50));
#80= IFCFACEOUTERBOUND(#79,.T.);
#81= IFCFACE((#80));
#82= IFCPOLYLOOP((#50,#62,#63,#51));
#83= IFCFACEOUTERBOUND(#82,.T.);
#84= IFCFACE((#83));
#85= IFCPOLYLOOP((#51,#63,#64,#52));
#86= IFCFACEOUTERBOUND(#85,.T.);
#87= IFCFACE((#86));
#88= IFCPOLYLOOP((#52,#64,#65,#53));
#89= IFCFACEOUTERBOUND(#88,.T.);
#90= IFCFACE((#89));
#91= IFCPOLYLOOP((#53,#65,#66,#54));
#92= IFCFACEOUTERBOUND(#91,.T.);
#93= IFCFACE((#92));
#94= IFCPOLYLOOP((#54,#66,#67,#55));
#95= IFCFACEOUTERBOUND(#94,.T.);
#96= IFCFACE((#95));
#97= IFCPOLYLOOP((#55,#67,#68,#56));
#98= IFCFACEOUTERBOUND(#97,.T.);
#99= IFCFACE((#98));
#100= IFCPOLYLOOP((#56,#68,#69,#57));
#101= IFCFACEOUTERBOUND(#100,.T.);
#102= IFCFACE((#101));
#103= IFCPOLYLOOP((#57,#69,#70,#58));
#104= IFCFACEOUTERBOUND(#103,.T.);
#105= IFCFACE((#104));
#106= IFCPOLYLOOP((#58,#70,#71,#59));
#107= IFCFACEOUTERBOUND(#106,.T.);
#108= IFCFACE((#107));
#109= IFCPOLYLOOP((#59,#71,#72,#60));
#110= IFCFACEOUTERBOUND(#109,.T.);
#111= IFCFACE((#110));
#112= IFCPOLYLOOP((#60,#72,#61,#49));
#113= IFCFACEOUTERBOUND(#112,.T.);
#114= IFCFACE((#113));
#115= IFCCLOSEDSHELL((#75,#78,#81,#84,#87,#90,#93,#96,#99,#102,#105,#108,#111,#114));
#116= IFCCOLOURRGB($,0.,0.,0.);
#117= IFCSURFACESTYLERENDERING(#116,0.,$,$,$,$,IFCNORMALISEDRATIOMEASURE(0.00390625),IFCSPECULAREXPONENT(10.),.NOTDEFINED.);
#118= IFCSURFACESTYLE($,.POSITIVE.,(#117));
#119= IFCPRESENTATIONSTYLEASSIGNMENT((#118));
#120= IFCFACETEDBREP(#115);
#121= IFCSTYLEDITEM(#120,(#119),$);
#122= IFCCARTESIANTRANSFORMATIONOPERATOR3D($,$,#6,$,$);
#123= IFCSHAPEREPRESENTATION(#12,'Body','Brep',(#120));
#124= IFCREPRESENTATIONMAP(#10,#123);
#125= IFCMAPPEDITEM(#124,#122);
#126= IFCSHAPEREPRESENTATION(#12,'Body','MappedRepresentation',(#125));
#127= IFCPRODUCTDEFINITIONSHAPE($,$,(#126));
#128= IFCCARTESIANPOINT((53960.6191149902,26537.0005187988,10100.5001907349));
#129= IFCDIRECTION((0.513481812030185,0.,0.858100477050443));
#130= IFCDIRECTION((-0.858100477050444,0.,0.513481812030183));
#131= IFCAXIS2PLACEMENT3D(#128,#129,#130);
#132= IFCLOCALPLACEMENT(#42,#131);
#133= IFCMECHANICALFASTENER('3wnvm4a55EavL2SG0pZrgh',#44,'Bolt assembly',$,$,#132,#127,'IDfac79c04-9051-4e93-9542-7100338f5aab',15.,8.);
#134= IFCMECHANICALFASTENERTYPE('3VvScIO7r5kAfbNJ1M32Fg',#5,'Bolt assembly',$,$,$,$,$,$);
#135= IFCPROPERTYSINGLEVALUE('Washer count',$,IFCINTEGER(0),$);
#136= IFCPROPERTYSINGLEVALUE('Washer diameter',$,IFCLENGTHMEASURE(15.),$);
#137= IFCPROPERTYSINGLEVALUE('Washer type',$,IFCLABEL(''),$);
#138= IFCPROPERTYSINGLEVALUE('Washer name',$,IFCLABEL(''),$);
#139= IFCPROPERTYSINGLEVALUE('Nut count',$,IFCINTEGER(0),$);
#140= IFCPROPERTYSINGLEVALUE('Nut type',$,IFCLABEL(''),$);
#141= IFCPROPERTYSINGLEVALUE('Nut name',$,IFCLABEL(''),$);
#142= IFCPROPERTYSINGLEVALUE('Slotted hole y',$,IFCLENGTHMEASURE(0.),$);
#143= IFCPROPERTYSINGLEVALUE('Slotted hole x',$,IFCLENGTHMEASURE(0.),$);
#144= IFCPROPERTYSINGLEVALUE('Bolt hole diameter',$,IFCLENGTHMEASURE(15.),$);
#145= IFCPROPERTYSINGLEVALUE('Location',$,IFCLABEL('Site'),$);
#146= IFCPROPERTYSINGLEVALUE('Bolt count',$,IFCINTEGER(1),$);
#147= IFCPROPERTYSINGLEVALUE('Bolt size',$,IFCLENGTHMEASURE(15.),$);
#148= IFCPROPERTYSINGLEVALUE('Bolt length',$,IFCLENGTHMEASURE(8.),$);
#149= IFCPROPERTYSINGLEVALUE('Bolt standard',$,IFCLABEL('EVENT'),$);
#150= IFCPROPERTYSINGLEVALUE('Bolt Name',$,IFCLABEL(''),$);
#151= IFCPROPERTYSET('0y9UqVs854_BjnOzwOCmci',#5,'Tekla Bolt','Bolt Properties',(#135,#136,#137,#138,#139,#140,#141,#142,#143,#144,#145,#146,#147,#148,#149,#150));
#152= IFCMATERIAL('EVENT');
#153= IFCMAPPEDITEM(#124,#122);
#154= IFCSHAPEREPRESENTATION(#12,'Body','MappedRepresentation',(#153));
#155= IFCPRODUCTDEFINITIONSHAPE($,$,(#154));
#156= IFCCARTESIANPOINT((53960.6191149902,26537.0005187988,10249.5001907349));
#157= IFCDIRECTION((0.513481812030185,0.,-0.858100477050443));
#158= IFCDIRECTION((-0.858100477050444,0.,-0.513481812030183));
#159= IFCAXIS2PLACEMENT3D(#156,#157,#158);
#160= IFCLOCALPLACEMENT(#42,#159);
#161= IFCMECHANICALFASTENER('2bzXxHjq5DfgV4QDqHq8NT',#44,'Bolt assembly',$,$,#160,#155,'IDa5f61ed1-b741-4da6-a7c4-68dd11d085dd',15.,8.);
#162= IFCMAPPEDITEM(#124,#122);
#163= IFCSHAPEREPRESENTATION(#12,'Body','MappedRepresentation',(#162));
#164= IFCPRODUCTDEFINITIONSHAPE($,$,(#163));
#165= IFCCARTESIANPOINT((53711.6191149902,26537.0005187988,10249.5001907349));
#166= IFCDIRECTION((0.858100477050444,0.,-0.513481812030183));
#167= IFCAXIS2PLACEMENT3D(#165,#129,#166);
#168= IFCLOCALPLACEMENT(#42,#167);
#169= IFCMECHANICALFASTENER('2J$Q8SGRT1YO7BzjM$MZL9',#44,'Bolt assembly',$,$,#168,#164,'ID93fda21c-41b7-4189-81cb-f6d5bf5a3549',15.,8.);
#170= IFCMAPPEDITEM(#124,#122);
#171= IFCSHAPEREPRESENTATION(#12,'Body','MappedRepresentation',(#170));
#172= IFCPRODUCTDEFINITIONSHAPE($,$,(#171));
#173= IFCCARTESIANPOINT((53711.6191149902,26537.0005187988,10100.5001907349));
#174= IFCDIRECTION((-0.513481812030185,0.,0.858100477050443));
#175= IFCDIRECTION((0.858100477050444,0.,0.513481812030183));
#176= IFCAXIS2PLACEMENT3D(#173,#174,#175);
#177= IFCLOCALPLACEMENT(#42,#176);
#178= IFCMECHANICALFASTENER('0xfczXu0D56POG9QZEOARc',#44,'Bolt assembly',$,$,#177,#172,'ID3ba66f61-e003-4519-9610-25a8ce60a6e6',15.,8.);
#179= IFCMAPPEDITEM(#124,#122);
#180= IFCSHAPEREPRESENTATION(#12,'Body','MappedRepresentation',(#179));
#181= IFCPRODUCTDEFINITIONSHAPE($,$,(#180));
#182= IFCCARTESIANPOINT((53960.6191149902,29669.0021972656,10249.5001907349));
#183= IFCAXIS2PLACEMENT3D(#182,#157,#158);
#184= IFCLOCALPLACEMENT(#42,#183);
#185= IFCMECHANICALFASTENER('3u8n3DDx9B9RVwcMeuF8y1',#44,'Bolt assembly',$,$,#184,#181,'IDf82310cd-37b2-4b25-b7fa-996a383c8f01',15.,8.);
#186= IFCMAPPEDITEM(#124,#122);
#187= IFCSHAPEREPRESENTATION(#12,'Body','MappedRepresentation',(#186));
#188= IFCPRODUCTDEFINITIONSHAPE($,$,(#187));
#189= IFCCARTESIANPOINT((53960.6191149902,29669.0021972656,10100.5001907349));
#190= IFCAXIS2PLACEMENT3D(#189,#129,#130);
#191= IFCLOCALPLACEMENT(#42,#190);
#192= IFCMECHANICALFASTENER('33fG805ZX72OHruumDoX$H',#44,'Bolt assembly',$,$,#191,#188,'IDc3a50200-1638-4709-8475-e38c0dca1fd1',15.,8.);
#193= IFCMAPPEDITEM(#124,#122);
#194= IFCSHAPEREPRESENTATION(#12,'Body','MappedRepresentation',(#193));
#195= IFCPRODUCTDEFINITIONSHAPE($,$,(#194));
#196= IFCCARTESIANPOINT((53711.6191149902,29669.0021972656,10100.5001907349));
#197= IFCAXIS2PLACEMENT3D(#196,#157,#175);
#198= IFCLOCALPLACEMENT(#42,#197);
#199= IFCMECHANICALFASTENER('3mITUKAYT48uaMp0V$Hac4',#44,'Bolt assembly',$,$,#198,#195,'IDf049d794-2a27-4423-8916-cc07ff464984',15.,8.);
#200= IFCMAPPEDITEM(#124,#122);
#201= IFCSHAPEREPRESENTATION(#12,'Body','MappedRepresentation',(#200));
#202= IFCPRODUCTDEFINITIONSHAPE($,$,(#201));
#203= IFCCARTESIANPOINT((53711.6191149902,29669.0021972656,10249.5001907349));
#204= IFCDIRECTION((-0.513481812030185,0.,-0.858100477050443));
#205= IFCAXIS2PLACEMENT3D(#203,#204,#166);
#206= IFCLOCALPLACEMENT(#42,#205);
#207= IFCMECHANICALFASTENER('38nweQbdH41gCoSxL7M2jp',#44,'Bolt assembly',$,$,#206,#202,'IDc8c7aa1a-9674-4406-a332-73b547582b73',15.,8.);
#208= IFCMAPPEDITEM(#124,#122);
#209= IFCSHAPEREPRESENTATION(#12,'Body','MappedRepresentation',(#208));
#210= IFCPRODUCTDEFINITIONSHAPE($,$,(#209));
#211= IFCCARTESIANPOINT((56515.4991149902,29989.0021972656,10100.5001907349));
#212= IFCAXIS2PLACEMENT3D(#211,#174,#175);
#213= IFCLOCALPLACEMENT(#42,#212);
#214= IFCMECHANICALFASTENER('36tdHPnin3cgZ9i2loPPpT',#44,'Bolt assembly',$,$,#213,#210,'IDc6de7459-c6cc-439a-a8c9-b02bf2659cdd',15.,8.);
#215= IFCMAPPEDITEM(#124,#122);
#216= IFCSHAPEREPRESENTATION(#12,'Body','MappedRepresentation',(#215));
#217= IFCPRODUCTDEFINITIONSHAPE($,$,(#216));
#218= IFCCARTESIANPOINT((56515.4991149902,29989.0021972656,10249.5001907349));
#219= IFCAXIS2PLACEMENT3D(#218,#204,#166);
#220= IFCLOCALPLACEMENT(#42,#219);
#221= IFCMECHANICALFASTENER('0L5dauN5v2sOx1$idKgaBt',#44,'Bolt assembly',$,$,#220,#217,'ID15167938-5c5e-42d9-8ec1-fec9d4aa42f7',15.,8.);
#222= IFCMAPPEDITEM(#124,#122);
#223= IFCSHAPEREPRESENTATION(#12,'Body','MappedRepresentation',(#222));
#224= IFCPRODUCTDEFINITIONSHAPE($,$,(#223));
#225= IFCCARTESIANPOINT((56764.4991149902,29989.0021972656,10249.5001907349));
#226= IFCAXIS2PLACEMENT3D(#225,#174,#158);
#227= IFCLOCALPLACEMENT(#42,#226);
#228= IFCMECHANICALFASTENER('1LmlR_4rzF3gufoYlU$95$',#44,'Bolt assembly',$,$,#227,#224,'ID55c2f6fe-135f-4f0e-ae29-ca2bdefc917f',15.,8.);
#229= IFCMAPPEDITEM(#124,#122);
#230= IFCSHAPEREPRESENTATION(#12,'Body','MappedRepresentation',(#229));
#231= IFCPRODUCTDEFINITIONSHAPE($,$,(#230));
#232= IFCCARTESIANPOINT((56764.4991149902,29989.0021972656,10100.5001907349));
#233= IFCAXIS2PLACEMENT3D(#232,#129,#130);
#234= IFCLOCALPLACEMENT(#42,#233);
#235= IFCMECHANICALFASTENER('2xRsGeCunCjQOJvRgnatSe',#44,'Bolt assembly',$,$,#234,#231,'IDbb6f6428-338c-4cb5-a613-e5bab1937728',15.,8.);
#236= IFCCARTESIANPOINT((7.5,-3.,0.));
#237= IFCCARTESIANPOINT((6.49519052838316,-3.,3.75000000000022));
#238= IFCCARTESIANPOINT((3.74999999999955,-3.,6.49519052838355));
#239= IFCCARTESIANPOINT((-7.77251986200242E-13,-3.,7.5));
#240= IFCCARTESIANPOINT((-3.7500000000009,-3.,6.49519052838277));
#241= IFCCARTESIANPOINT((-6.49519052838394,-3.,3.74999999999888));
#242= IFCCARTESIANPOINT((-7.5,-3.,-1.55450397240048E-12));
#243= IFCCARTESIANPOINT((-6.49519052838238,-3.,-3.75000000000157));
#244= IFCCARTESIANPOINT((-3.74999999999821,-3.,-6.49519052838432));
#245= IFCCARTESIANPOINT((2.32342928591604E-12,-3.,-7.5));
#246= IFCCARTESIANPOINT((3.75000000000224,-3.,-6.495190528382));
#247= IFCCARTESIANPOINT((6.49519052838471,-3.,-3.74999999999753));
#248= IFCCARTESIANPOINT((7.5,3.1,0.));
#249= IFCCARTESIANPOINT((6.49519052838316,3.1,3.75000000000022));
#250= IFCCARTESIANPOINT((3.74999999999955,3.1,6.49519052838355));
#251= IFCCARTESIANPOINT((-7.77251986200242E-13,3.1,7.5));
#252= IFCCARTESIANPOINT((-3.7500000000009,3.1,6.49519052838277));
#253= IFCCARTESIANPOINT((-6.49519052838394,3.1,3.74999999999888));
#254= IFCCARTESIANPOINT((-7.5,3.1,-1.55450397240048E-12));
#255= IFCCARTESIANPOINT((-6.49519052838238,3.1,-3.75000000000157));
#256= IFCCARTESIANPOINT((-3.74999999999821,3.1,-6.49519052838432));
#257= IFCCARTESIANPOINT((2.32342928591604E-12,3.1,-7.5));
#258= IFCCARTESIANPOINT((3.75000000000224,3.1,-6.495190528382));
#259= IFCCARTESIANPOINT((6.49519052838471,3.1,-3.74999999999753));
#260= IFCPOLYLOOP((#236,#237,#238,#239,#240,#241,#242,#243,#244,#245,#246,#247));
#261= IFCFACEOUTERBOUND(#260,.T.);
#262= IFCFACE((#261));
#263= IFCPOLYLOOP((#259,#258,#257,#256,#255,#254,#253,#252,#251,#250,#249,#248));
#264= IFCFACEOUTERBOUND(#263,.T.);
#265= IFCFACE((#264));
#266= IFCPOLYLOOP((#236,#248,#249,#237));
#267= IFCFACEOUTERBOUND(#266,.T.);
#268= IFCFACE((#267));
#269= IFCPOLYLOOP((#237,#249,#250,#238));
#270= IFCFACEOUTERBOUND(#269,.T.);
#271= IFCFACE((#270));
#272= IFCPOLYLOOP((#238,#250,#251,#239));
#273= IFCFACEOUTERBOUND(#272,.T.);
#274= IFCFACE((#273));
#275= IFCPOLYLOOP((#239,#251,#252,#240));
#276= IFCFACEOUTERBOUND(#275,.T.);
#277= IFCFACE((#276));
#278= IFCPOLYLOOP((#240,#252,#253,#241));
#279= IFCFACEOUTERBOUND(#278,.T.);
#280= IFCFACE((#279));
#281= IFCPOLYLOOP((#241,#253,#254,#242));
#282= IFCFACEOUTERBOUND(#281,.T.);
#283= IFCFACE((#282));
#284= IFCPOLYLOOP((#242,#254,#255,#243));
#285= IFCFACEOUTERBOUND(#284,.T.);
#286= IFCFACE((#285));
#287= IFCPOLYLOOP((#243,#255,#256,#244));
#288= IFCFACEOUTERBOUND(#287,.T.);
#289= IFCFACE((#288));
#290= IFCPOLYLOOP((#244,#256,#257,#245));
#291= IFCFACEOUTERBOUND(#290,.T.);
#292= IFCFACE((#291));
#293= IFCPOLYLOOP((#245,#257,#258,#246));
#294= IFCFACEOUTERBOUND(#293,.T.);
#295= IFCFACE((#294));
#296= IFCPOLYLOOP((#246,#258,#259,#247));
#297= IFCFACEOUTERBOUND(#296,.T.);
#298= IFCFACE((#297));
#299= IFCPOLYLOOP((#247,#259,#248,#236));
#300= IFCFACEOUTERBOUND(#299,.T.);
#301= IFCFACE((#300));
#302= IFCCLOSEDSHELL((#262,#265,#268,#271,#274,#277,#280,#283,#286,#289,#292,#295,#298,#301));
#303= IFCFACETEDBREP(#302);
#304= IFCSTYLEDITEM(#303,(#119),$);
#305= IFCSHAPEREPRESENTATION(#12,'Body','Brep',(#303));
#306= IFCREPRESENTATIONMAP(#10,#305);
#307= IFCMAPPEDITEM(#306,#122);
#308= IFCSHAPEREPRESENTATION(#12,'Body','MappedRepresentation',(#307));
#309= IFCPRODUCTDEFINITIONSHAPE($,$,(#308));
#310= IFCCARTESIANPOINT((56515.4991149902,27122.4101373291,10249.5001907349));
#311= IFCAXIS2PLACEMENT3D(#310,#204,#166);
#312= IFCLOCALPLACEMENT(#42,#311);
#313= IFCMECHANICALFASTENER('3FB6iCdX5D_g_Wt4d0NuJn',#44,'Bolt assembly',$,$,#312,#309,'IDcf2c6b0c-9e11-4dfa-afa0-dc49c05f84f1',15.,6.);
#314= IFCPROPERTYSINGLEVALUE('Bolt length',$,IFCLENGTHMEASURE(6.),$);
#315= IFCPROPERTYSET('2NceUxpm97yxQTvWTO1nA_',#5,'Tekla Bolt','Bolt Properties',(#135,#136,#137,#138,#139,#140,#141,#142,#143,#144,#145,#146,#147,#314,#149,#150));
#316= IFCMAPPEDITEM(#306,#122);
#317= IFCSHAPEREPRESENTATION(#12,'Body','MappedRepresentation',(#316));
#318= IFCPRODUCTDEFINITIONSHAPE($,$,(#317));
#319= IFCCARTESIANPOINT((56515.4991149902,27122.4101373291,10100.5001907349));
#320= IFCAXIS2PLACEMENT3D(#319,#174,#175);
#321= IFCLOCALPLACEMENT(#42,#320);
#322= IFCMECHANICALFASTENER('2itdc96Z98Rx0wbAZ4RpVm',#44,'Bolt assembly',$,$,#321,#318,'IDacde7989-1a32-486f-b03a-94a8c46f37f0',15.,6.);
#323= IFCMAPPEDITEM(#306,#122);
#324= IFCSHAPEREPRESENTATION(#12,'Body','MappedRepresentation',(#323));
#325= IFCPRODUCTDEFINITIONSHAPE($,$,(#324));
#326= IFCCARTESIANPOINT((56764.4991149902,27122.4101373291,10100.5001907349));
#327= IFCAXIS2PLACEMENT3D(#326,#204,#130);
#328= IFCLOCALPLACEMENT(#42,#327);
#329= IFCMECHANICALFASTENER('09ZM$HRpvDvAZmndJAqCN$',#44,'Bolt assembly',$,$,#328,#325,'ID098d6fd1-6f3e-4de4-a8f0-c674cad0c5ff',15.,6.);
#330= IFCMAPPEDITEM(#306,#122);
#331= IFCSHAPEREPRESENTATION(#12,'Body','MappedRepresentation',(#330));
#332= IFCPRODUCTDEFINITIONSHAPE($,$,(#331));
#333= IFCCARTESIANPOINT((56764.4991149902,27122.4101373291,10249.5001907349));
#334= IFCAXIS2PLACEMENT3D(#333,#157,#158);
#335= IFCLOCALPLACEMENT(#42,#334);
#336= IFCMECHANICALFASTENER('20FDM$CXH1QR3l4wLHUKLF',#44,'Bolt assembly',$,$,#335,#332,'ID803cd5bf-3214-4169-b0ef-13a55179454f',15.,6.);
#337= IFCOWNERHISTORY(#3,#4,$,.NOCHANGE.,$,$,$,1770796800);
#338= IFCSURFACESTYLE('TS10.9',.POSITIVE.,(#46));
#339= IFCPRESENTATIONSTYLEASSIGNMENT((#338));
#340= IFCCARTESIANPOINT((11.,36.0000000039781,0.));
#341= IFCCARTESIANPOINT((9.52627944162863,36.0000000039781,5.50000000000033));
#342= IFCCARTESIANPOINT((5.49999999999934,36.0000000039781,9.5262794416292));
#343= IFCCARTESIANPOINT((-1.13996957976035E-12,36.0000000039781,11.));
#344= IFCCARTESIANPOINT((-5.50000000000131,36.0000000039781,9.52627944162807));
#345= IFCCARTESIANPOINT((-9.52627944162977,36.0000000039781,5.49999999999836));
#346= IFCCARTESIANPOINT((-11.,36.0000000039781,-2.27993915952071E-12));
#347= IFCCARTESIANPOINT((-9.5262794416275,36.0000000039781,-5.5000000000023));
#348= IFCCARTESIANPOINT((-5.49999999999737,36.0000000039781,-9.52627944163034));
#349= IFCCARTESIANPOINT((3.40769628601019E-12,36.0000000039781,-11.));
#350= IFCCARTESIANPOINT((5.50000000000328,36.0000000039781,-9.52627944162693));
#351= IFCCARTESIANPOINT((9.52627944163091,36.0000000039781,-5.49999999999638));
#352= IFCCARTESIANPOINT((11.,286.100000003978,0.));
#353= IFCCARTESIANPOINT((9.52627944162863,286.100000003978,5.50000000000033));
#354= IFCCARTESIANPOINT((5.49999999999934,286.100000003978,9.5262794416292));
#355= IFCCARTESIANPOINT((-1.13996957976035E-12,286.100000003978,11.));
#356= IFCCARTESIANPOINT((-5.50000000000131,286.100000003978,9.52627944162807));
#357= IFCCARTESIANPOINT((-9.52627944162977,286.100000003978,5.49999999999836));
#358= IFCCARTESIANPOINT((-11.,286.100000003978,-2.27993915952071E-12));
#359= IFCCARTESIANPOINT((-9.5262794416275,286.100000003978,-5.5000000000023));
#360= IFCCARTESIANPOINT((-5.49999999999737,286.100000003978,-9.52627944163034));
#361= IFCCARTESIANPOINT((3.40769628601019E-12,286.100000003978,-11.));
#362= IFCCARTESIANPOINT((5.50000000000328,286.100000003978,-9.52627944162693));
#363= IFCCARTESIANPOINT((9.52627944163091,286.100000003978,-5.49999999999638));
#364= IFCPOLYLOOP((#340,#341,#342,#343,#344,#345,#346,#347,#348,#349,#350,#351));
#365= IFCFACEOUTERBOUND(#364,.T.);
#366= IFCFACE((#365));
#367= IFCPOLYLOOP((#363,#362,#361,#360,#359,#358,#357,#356,#355,#354,#353,#352));
#368= IFCFACEOUTERBOUND(#367,.T.);
#369= IFCFACE((#368));
#370= IFCPOLYLOOP((#340,#352,#353,#341));
#371= IFCFACEOUTERBOUND(#370,.T.);
#372= IFCFACE((#371));
#373= IFCPOLYLOOP((#341,#353,#354,#342));
#374= IFCFACEOUTERBOUND(#373,.T.);
#375= IFCFACE((#374));
#376= IFCPOLYLOOP((#342,#354,#355,#343));
#377= IFCFACEOUTERBOUND(#376,.T.);
#378= IFCFACE((#377));
#379= IFCPOLYLOOP((#343,#355,#356,#344));
#380= IFCFACEOUTERBOUND(#379,.T.);
#381= IFCFACE((#380));
#382= IFCPOLYLOOP((#344,#356,#357,#345));
#383= IFCFACEOUTERBOUND(#382,.T.);
#384= IFCFACE((#383));
#385= IFCPOLYLOOP((#345,#357,#358,#346));
#386= IFCFACEOUTERBOUND(#385,.T.);
#387= IFCFACE((#386));
#388= IFCPOLYLOOP((#346,#358,#359,#347));
#389= IFCFACEOUTERBOUND(#388,.T.);
#390= IFCFACE((#389));
#391= IFCPOLYLOOP((#347,#359,#360,#348));
#392= IFCFACEOUTERBOUND(#391,.T.);
#393= IFCFACE((#392));
#394= IFCPOLYLOOP((#348,#360,#361,#349));
#395= IFCFACEOUTERBOUND(#394,.T.);
#396= IFCFACE((#395));
#397= IFCPOLYLOOP((#349,#361,#362,#350));
#398= IFCFACEOUTERBOUND(#397,.T.);
#399= IFCFACE((#398));
#400= IFCPOLYLOOP((#350,#362,#363,#351));
#401= IFCFACEOUTERBOUND(#400,.T.);
#402= IFCFACE((#401));
#403= IFCPOLYLOOP((#351,#363,#352,#340));
#404= IFCFACEOUTERBOUND(#403,.T.);
#405= IFCFACE((#404));
#406= IFCCLOSEDSHELL((#366,#369,#372,#375,#378,#381,#384,#387,#390,#393,#396,#399,#402,#405));
#407= IFCFACETEDBREP(#406);
#408= IFCSTYLEDITEM(#407,(#119),$);
#409= IFCCARTESIANPOINT((40.,0.,40.));
#410= IFCCARTESIANTRANSFORMATIONOPERATOR3D($,$,#409,$,$);
#411= IFCSHAPEREPRESENTATION(#12,'Body','Brep',(#407));
#412= IFCREPRESENTATIONMAP(#10,#411);
#413= IFCMAPPEDITEM(#412,#410);
#414= IFCSHAPEREPRESENTATION(#12,'Body','MappedRepresentation',(#413));
#415= IFCPRODUCTDEFINITIONSHAPE($,$,(#414));
#416= IFCCARTESIANPOINT((56620.0035661308,27169.4121056154,10336.0001907388));
#417= IFCDIRECTION((-1.,0.,0.));
#418= IFCAXIS2PLACEMENT3D(#416,#417,#8);
#419= IFCLOCALPLACEMENT(#42,#418);
#420= IFCMECHANICALFASTENER('2abv55HlL8MuQviey6F5yB',#337,'Bolt assembly',$,$,#419,#415,'IDa4979145-46f5-485b-86b9-b28f063c5f0b',20.,1250.);
#421= IFCPROPERTYSINGLEVALUE('Washer diameter',$,IFCLENGTHMEASURE(20.),$);
#422= IFCPROPERTYSINGLEVALUE('Bolt hole diameter',$,IFCLENGTHMEASURE(22.),$);
#423= IFCPROPERTYSINGLEVALUE('Bolt size',$,IFCLENGTHMEASURE(22.),$);
#424= IFCPROPERTYSINGLEVALUE('Bolt length',$,IFCLENGTHMEASURE(1250.),$);
#425= IFCPROPERTYSINGLEVALUE('Bolt standard',$,IFCLABEL('TS10.9'),$);
#426= IFCPROPERTYSET('1DbiT$o_z6iRyimu75KL4s',#5,'Tekla Bolt','Bolt Properties',(#135,#421,#137,#138,#139,#140,#141,#142,#143,#422,#145,#146,#423,#424,#425,#150));
#427= IFCMATERIAL('TS10.9');
#428= IFCCOLOURRGB('Light Green',0.356862745098039,0.592156862745098,0.137254901960784);
#429= IFCSURFACESTYLERENDERING(#428,0.,$,$,$,$,IFCNORMALISEDRATIOMEASURE(0.00390625),IFCSPECULAREXPONENT(10.),.NOTDEFINED.);
#430= IFCSURFACESTYLE('STEEL/S275',.POSITIVE.,(#429));
#431= IFCPRESENTATIONSTYLEASSIGNMENT((#430));
#432= IFCCARTESIANPOINT((0.,-4.,0.));
#433= IFCCARTESIANPOINT((0.,-4.,234.));
#434= IFCCARTESIANPOINT((0.,4.,234.));
#435= IFCCARTESIANPOINT((0.,4.,0.));
#436= IFCPOLYLOOP((#432,#433,#434,#435));
#437= IFCFACEOUTERBOUND(#436,.T.);
#438= IFCFACE((#437));
#439= IFCCARTESIANPOINT((334.,-4.,234.));
#440= IFCCARTESIANPOINT((334.,4.,234.));
#441= IFCPOLYLOOP((#433,#439,#440,#434));
#442= IFCFACEOUTERBOUND(#441,.T.);
#443= IFCFACE((#442));
#444= IFCCARTESIANPOINT((334.,-4.,0.));
#445= IFCCARTESIANPOINT((334.,4.,0.));
#446= IFCPOLYLOOP((#439,#444,#445,#440));
#447= IFCFACEOUTERBOUND(#446,.T.);
#448= IFCFACE((#447));
#449= IFCPOLYLOOP((#444,#432,#435,#445));
#450= IFCFACEOUTERBOUND(#449,.T.);
#451= IFCFACE((#450));
#452= IFCPOLYLOOP((#440,#445,#435,#434));
#453= IFCFACEOUTERBOUND(#452,.T.);
#454= IFCFACE((#453));
#455= IFCPOLYLOOP((#444,#439,#433,#432));
#456= IFCFACEOUTERBOUND(#455,.T.);
#457= IFCFACE((#456));
#458= IFCCLOSEDSHELL((#438,#443,#448,#451,#454,#457));
#459= IFCFACETEDBREP(#458);
#460= IFCSTYLEDITEM(#459,(#431),$);
#461= IFCSHAPEREPRESENTATION(#12,'Body','Brep',(#459));
#462= IFCPRODUCTDEFINITIONSHAPE($,$,(#461));
#463= IFCCARTESIANPOINT((54003.1191149903,26537.0005187988,10292.0001907349));
#464= IFCDIRECTION((0.,0.,-1.));
#465= IFCAXIS2PLACEMENT3D(#463,#464,#417);
#466= IFCLOCALPLACEMENT(#42,#465);
#467= IFCPLATE('1zTlMpR_b9ZRA6sM0Y9JbH',#44,'PLATE-8','PL8*234',$,#466,#462,'ID7d76f5b3-6fe9-498d-b286-d96022253951');
#468= IFCPLATETYPE('0eBPaS4Gr3LPqisHa_3vlA',#5,'PL8*234',$,$,$,$,$,$,.NOTDEFINED.);
#469= IFCPROPERTYSINGLEVALUE('Bottom elevation',$,IFCLABEL(' +10.058'),$);
#470= IFCPROPERTYSINGLEVALUE('Top elevation',$,IFCLABEL(' +10.292'),$);
#471= IFCPROPERTYSINGLEVALUE('Initial GUID',$,$,$);
#472= IFCPROPERTYSINGLEVALUE('Preliminary mark',$,IFCLABEL('5-1-P49'),$);
#473= IFCPROPERTYSINGLEVALUE('Phase',$,IFCINTEGER(4),$);
#474= IFCPROPERTYSINGLEVALUE('Class',$,IFCLABEL('17'),$);
#475= IFCPROPERTYSET('3_TQ5x1yPDyenLk8QSESCg',#5,'Tekla Common','Common Properties to Shared building elements',(#469,#470,#471,#472,#473,#474));
#476= IFCPROPERTYSINGLEVALUE('Weight',$,IFCMASSMEASURE(4.91),$);
#477= IFCPROPERTYSINGLEVALUE('Volume',$,IFCVOLUMEMEASURE(0.001),$);
#478= IFCPROPERTYSINGLEVALUE('Gross footprint area',$,IFCAREAMEASURE(0.003),$);
#479= IFCPROPERTYSINGLEVALUE('Area per tons',$,IFCAREAMEASURE(33.699),$);
#480= IFCPROPERTYSINGLEVALUE('Net surface area',$,IFCAREAMEASURE(0.165),$);
#481= IFCPROPERTYSINGLEVALUE('Height',$,IFCLENGTHMEASURE(234.),$);
#482= IFCPROPERTYSINGLEVALUE('Width',$,IFCLENGTHMEASURE(8.),$);
#483= IFCPROPERTYSINGLEVALUE('Length',$,IFCLENGTHMEASURE(334.),$);
#484= IFCPROPERTYSET('29bUZXAhf8XviP6nNPgnXC',#5,'Tekla Quantity','Quantity Properties to Shared building elements',(#476,#477,#478,#479,#480,#481,#482,#483));
#485= IFCPROPERTYSINGLEVALUE('LoadBearing',$,IFCBOOLEAN(.F.),$);
#486= IFCPROPERTYSINGLEVALUE('Reference',$,IFCIDENTIFIER('5-1-P49'),$);
#487= IFCPROPERTYSET('3qjXY9dKX4OR8nQgefHqil',#5,'Pset_PlateCommon','Common Properties to plate elements',(#485,#486));
#488= IFCQUANTITYLENGTH('Width',$,$,234.);
#489= IFCQUANTITYAREA('NetArea',$,$,0.1654);
#490= IFCQUANTITYAREA('GrossArea',$,$,0.078156);
#491= IFCQUANTITYAREA('CrossSectionArea',$,$,6.4E-05);
#492= IFCQUANTITYVOLUME('NetVolume',$,$,0.000625248);
#493= IFCQUANTITYVOLUME('GrossVolume',$,$,0.000625248);
#494= IFCELEMENTQUANTITY('1ADMZ3d193dQCjI$RjDY1L',#5,'BaseQuantities',$,$,(#488,#489,#490,#491,#492,#493));
#495= IFCMATERIAL('STEEL/S275');
#496= IFCMAPPEDITEM(#412,#410);
#497= IFCSHAPEREPRESENTATION(#12,'Body','MappedRepresentation',(#496));
#498= IFCPRODUCTDEFINITIONSHAPE($,$,(#497));
#499= IFCCARTESIANPOINT((56740.0035661308,27169.4121056154,10336.0001907388));
#500= IFCAXIS2PLACEMENT3D(#499,#417,#8);
#501= IFCLOCALPLACEMENT(#42,#500);
#502= IFCMECHANICALFASTENER('3Qh4OxMsX9hhy7GPLE9$HQ',#337,'Bolt assembly',$,$,#501,#498,'IDdaac463b-5b68-49ae-bf07-41954e27f45a',20.,1250.);
#503= IFCCARTESIANPOINT((13.,23.9999236859821,0.));
#504= IFCCARTESIANPOINT((11.2583302491975,23.9999236859821,6.50000000000039));
#505= IFCCARTESIANPOINT((6.49999999999922,23.9999236859821,11.2583302491982));
#506= IFCCARTESIANPOINT((-1.34723677608042E-12,23.9999236859821,13.));
#507= IFCCARTESIANPOINT((-6.50000000000155,23.9999236859821,11.2583302491968));
#508= IFCCARTESIANPOINT((-11.2583302491988,23.9999236859821,6.49999999999806));
#509= IFCCARTESIANPOINT((-13.,23.9999236859821,-2.69447355216084E-12));
#510= IFCCARTESIANPOINT((-11.2583302491961,23.9999236859821,-6.50000000000272));
#511= IFCCARTESIANPOINT((-6.4999999999969,23.9999236859821,-11.2583302491995));
#512= IFCCARTESIANPOINT((4.02727742892113E-12,23.9999236859821,-13.));
#513= IFCCARTESIANPOINT((6.50000000000388,23.9999236859821,-11.2583302491955));
#514= IFCCARTESIANPOINT((11.2583302492002,23.9999236859821,-6.49999999999573));
#515= IFCCARTESIANPOINT((13.,274.099923685982,0.));
#516= IFCCARTESIANPOINT((11.2583302491975,274.099923685982,6.50000000000039));
#517= IFCCARTESIANPOINT((6.49999999999922,274.099923685982,11.2583302491982));
#518= IFCCARTESIANPOINT((-1.34723677608042E-12,274.099923685982,13.));
#519= IFCCARTESIANPOINT((-6.50000000000155,274.099923685982,11.2583302491968));
#520= IFCCARTESIANPOINT((-11.2583302491988,274.099923685982,6.49999999999806));
#521= IFCCARTESIANPOINT((-13.,274.099923685982,-2.69447355216084E-12));
#522= IFCCARTESIANPOINT((-11.2583302491961,274.099923685982,-6.50000000000272));
#523= IFCCARTESIANPOINT((-6.4999999999969,274.099923685982,-11.2583302491995));
#524= IFCCARTESIANPOINT((4.02727742892113E-12,274.099923685982,-13.));
#525= IFCCARTESIANPOINT((6.50000000000388,274.099923685982,-11.2583302491955));
#526= IFCCARTESIANPOINT((11.2583302492002,274.099923685982,-6.49999999999573));
#527= IFCPOLYLOOP((#503,#504,#505,#506,#507,#508,#509,#510,#511,#512,#513,#514));
#528= IFCFACEOUTERBOUND(#527,.T.);
#529= IFCFACE((#528));
#530= IFCPOLYLOOP((#526,#525,#524,#523,#522,#521,#520,#519,#518,#517,#516,#515));
#531= IFCFACEOUTERBOUND(#530,.T.);
#532= IFCFACE((#531));
#533= IFCPOLYLOOP((#503,#515,#516,#504));
#534= IFCFACEOUTERBOUND(#533,.T.);
#535= IFCFACE((#534));
#536= IFCPOLYLOOP((#504,#516,#517,#505));
#537= IFCFACEOUTERBOUND(#536,.T.);
#538= IFCFACE((#537));
#539= IFCPOLYLOOP((#505,#517,#518,#506));
#540= IFCFACEOUTERBOUND(#539,.T.);
#541= IFCFACE((#540));
#542= IFCPOLYLOOP((#506,#518,#519,#507));
#543= IFCFACEOUTERBOUND(#542,.T.);
#544= IFCFACE((#543));
#545= IFCPOLYLOOP((#507,#519,#520,#508));
#546= IFCFACEOUTERBOUND(#545,.T.);
#547= IFCFACE((#546));
#548= IFCPOLYLOOP((#508,#520,#521,#509));
#549= IFCFACEOUTERBOUND(#548,.T.);
#550= IFCFACE((#549));
#551= IFCPOLYLOOP((#509,#521,#522,#510));
#552= IFCFACEOUTERBOUND(#551,.T.);
#553= IFCFACE((#552));
#554= IFCPOLYLOOP((#510,#522,#523,#511));
#555= IFCFACEOUTERBOUND(#554,.T.);
#556= IFCFACE((#555));
#557= IFCPOLYLOOP((#511,#523,#524,#512));
#558= IFCFACEOUTERBOUND(#557,.T.);
#559= IFCFACE((#558));
#560= IFCPOLYLOOP((#512,#524,#525,#513));
#561= IFCFACEOUTERBOUND(#560,.T.);
#562= IFCFACE((#561));
#563= IFCPOLYLOOP((#513,#525,#526,#514));
#564= IFCFACEOUTERBOUND(#563,.T.);
#565= IFCFACE((#564));
#566= IFCPOLYLOOP((#514,#526,#515,#503));
#567= IFCFACEOUTERBOUND(#566,.T.);
#568= IFCFACE((#567));
#569= IFCCLOSEDSHELL((#529,#532,#535,#538,#541,#544,#547,#550,#553,#556,#559,#562,#565,#568));
#570= IFCFACETEDBREP(#569);
#571= IFCSTYLEDITEM(#570,(#119),$);
#572= IFCCARTESIANPOINT((3.63797880709171E-12,0.,-74.99999999992));
#573= IFCCARTESIANTRANSFORMATIONOPERATOR3D($,$,#572,$,$);
#574= IFCSHAPEREPRESENTATION(#12,'Body','Brep',(#570));
#575= IFCREPRESENTATIONMAP(#10,#574);
#576= IFCMAPPEDITEM(#575,#573);
#577= IFCCARTESIANPOINT((159.999999999836,0.,-74.99999999992));
#578= IFCCARTESIANTRANSFORMATIONOPERATOR3D($,$,#577,$,$);
#579= IFCMAPPEDITEM(#575,#578);
#580= IFCCARTESIANPOINT((319.999999999669,0.,-74.99999999992));
#581= IFCCARTESIANTRANSFORMATIONOPERATOR3D($,$,#580,$,$);
#582= IFCMAPPEDITEM(#575,#581);
#583= IFCCARTESIANPOINT((3.63797880709171E-12,0.,74.99999999992));
#584= IFCCARTESIANTRANSFORMATIONOPERATOR3D($,$,#583,$,$);
#585= IFCMAPPEDITEM(#575,#584);
#586= IFCCARTESIANPOINT((159.999999999836,0.,74.99999999992));
#587= IFCCARTESIANTRANSFORMATIONOPERATOR3D($,$,#586,$,$);
#588= IFCMAPPEDITEM(#575,#587);
#589= IFCCARTESIANPOINT((319.999999999669,0.,74.99999999992));
#590= IFCCARTESIANTRANSFORMATIONOPERATOR3D($,$,#589,$,$);
#591= IFCMAPPEDITEM(#575,#590);
#592= IFCSHAPEREPRESENTATION(#12,'Body','MappedRepresentation',(#576,#579,#582,#585,#588,#591));
#593= IFCPRODUCTDEFINITIONSHAPE($,$,(#592));
#594= IFCCARTESIANPOINT((53836.1086267373,26952.7283837548,10324.0001144209));
#595= IFCDIRECTION((0.999999997446663,7.14610000432003E-05,0.));
#596= IFCDIRECTION((7.14610000433548E-05,-0.999999997446663,0.));
#597= IFCAXIS2PLACEMENT3D(#594,#595,#596);
#598= IFCLOCALPLACEMENT(#42,#597);
#599= IFCMECHANICALFASTENER('0Gnhvj2Hj3rQZy5JiT05az',#337,'Bolt assembly',$,$,#598,#593,'ID10c6be6d-091b-43d5-a8fc-153b1d00593d',24.,508.);
#600= IFCPROPERTYSINGLEVALUE('Washer diameter',$,IFCLENGTHMEASURE(24.),$);
#601= IFCPROPERTYSINGLEVALUE('Bolt hole diameter',$,IFCLENGTHMEASURE(26.),$);
#602= IFCPROPERTYSINGLEVALUE('Bolt count',$,IFCINTEGER(6),$);
#603= IFCPROPERTYSINGLEVALUE('Bolt size',$,IFCLENGTHMEASURE(26.),$);
#604= IFCPROPERTYSINGLEVALUE('Bolt length',$,IFCLENGTHMEASURE(508.),$);
#605= IFCPROPERTYSET('0b3MEGYp544v423TY2LYKp',#5,'Tekla Bolt','Bolt Properties',(#135,#600,#137,#138,#139,#140,#141,#142,#143,#601,#145,#602,#603,#604,#425,#150));
#606= IFCSHAPEREPRESENTATION(#12,'Body','Brep',(#459));
#607= IFCPRODUCTDEFINITIONSHAPE($,$,(#606));
#608= IFCCARTESIANPOINT((53669.1191149902,29669.0021972656,10292.0001907349));
#609= IFCAXIS2PLACEMENT3D(#608,#464,#7);
#610= IFCLOCALPLACEMENT(#42,#609);
#611= IFCPLATE('1UHevtuw93FxQ31HYZ1Fst',#44,'PLATE-8','PL8*234',$,#610,#607,'ID5e468e77-e3a2-433f-b683-0518a304fdb7');
#612= IFCCOLOURRGB('Dark Blue',0.117647058823529,0.262745098039216,0.513725490196078);
#613= IFCSURFACESTYLERENDERING(#612,0.,$,$,$,$,IFCNORMALISEDRATIOMEASURE(0.00390625),IFCSPECULAREXPONENT(10.),.NOTDEFINED.);
#614= IFCSURFACESTYLE('STEEL/S275',.POSITIVE.,(#613));
#615= IFCPRESENTATIONSTYLEASSIGNMENT((#614));
#616= IFCCARTESIANPOINT((0.,-3.,0.));
#617= IFCCARTESIANPOINT((0.,-3.,234.));
#618= IFCCARTESIANPOINT((0.,3.,234.));
#619= IFCCARTESIANPOINT((0.,3.,0.));
#620= IFCPOLYLOOP((#616,#617,#618,#619));
#621= IFCFACEOUTERBOUND(#620,.T.);
#622= IFCFACE((#621));
#623= IFCCARTESIANPOINT((334.,-3.,234.));
#624= IFCCARTESIANPOINT((334.,3.,234.));
#625= IFCPOLYLOOP((#617,#623,#624,#618));
#626= IFCFACEOUTERBOUND(#625,.T.);
#627= IFCFACE((#626));
#628= IFCCARTESIANPOINT((334.,-3.,-1.81898940354586E-12));
#629= IFCCARTESIANPOINT((334.,3.,-1.81898940354586E-12));
#630= IFCPOLYLOOP((#623,#628,#629,#624));
#631= IFCFACEOUTERBOUND(#630,.T.);
#632= IFCFACE((#631));
#633= IFCPOLYLOOP((#628,#616,#619,#629));
#634= IFCFACEOUTERBOUND(#633,.T.);
#635= IFCFACE((#634));
#636= IFCPOLYLOOP((#624,#629,#619,#618));
#637= IFCFACEOUTERBOUND(#636,.T.);
#638= IFCFACE((#637));
#639= IFCPOLYLOOP((#628,#623,#617,#616));
#640= IFCFACEOUTERBOUND(#639,.T.);
#641= IFCFACE((#640));
#642= IFCCLOSEDSHELL((#622,#627,#632,#635,#638,#641));
#643= IFCFACETEDBREP(#642);
#644= IFCSTYLEDITEM(#643,(#615),$);
#645= IFCSHAPEREPRESENTATION(#12,'Body','Brep',(#643));
#646= IFCPRODUCTDEFINITIONSHAPE($,$,(#645));
#647= IFCCARTESIANPOINT((56806.9991149936,27122.4101373291,10292.0001907389));
#648= IFCAXIS2PLACEMENT3D(#647,#464,#417);
#649= IFCLOCALPLACEMENT(#42,#648);
#650= IFCPLATE('1FQVEqyaHAbQWwtCo7XlcO',#44,'PLATE-6','PL6*234',$,#649,#646,'ID4f69f3b4-f244-4a95-a83a-dccc8786f998');
#651= IFCPLATETYPE('2HPcg7TmbEKvDdqqpOvzi1',#5,'PL6*234',$,$,$,$,$,$,.NOTDEFINED.);
#652= IFCPROPERTYSINGLEVALUE('Preliminary mark',$,IFCLABEL('5-1-P61'),$);
#653= IFCPROPERTYSINGLEVALUE('Class',$,IFCLABEL('18'),$);
#654= IFCPROPERTYSET('17zbD$kmP79wy0_XxxU3SM',#5,'Tekla Common','Common Properties to Shared building elements',(#469,#470,#471,#652,#473,#653));
#655= IFCPROPERTYSINGLEVALUE('Weight',$,IFCMASSMEASURE(3.68),$);
#656= IFCPROPERTYSINGLEVALUE('Volume',$,IFCVOLUMEMEASURE(0.),$);
#657= IFCPROPERTYSINGLEVALUE('Gross footprint area',$,IFCAREAMEASURE(0.002),$);
#658= IFCPROPERTYSINGLEVALUE('Area per tons',$,IFCAREAMEASURE(44.314),$);
#659= IFCPROPERTYSINGLEVALUE('Net surface area',$,IFCAREAMEASURE(0.163),$);
#660= IFCPROPERTYSINGLEVALUE('Width',$,IFCLENGTHMEASURE(6.),$);
#661= IFCPROPERTYSET('0NzuzHhfn8JBjXu7DxjP47',#5,'Tekla Quantity','Quantity Properties to Shared building elements',(#655,#656,#657,#658,#659,#481,#660,#483));
#662= IFCPROPERTYSINGLEVALUE('Reference',$,IFCIDENTIFIER('5-1-P61'),$);
#663= IFCPROPERTYSET('1XuOkvfpn3axZwZE2iWQt5',#5,'Pset_PlateCommon','Common Properties to plate elements',(#485,#662));
#664= IFCQUANTITYLENGTH('Width',$,$,234.000000000002);
#665= IFCQUANTITYAREA('NetArea',$,$,0.163128000000001);
#666= IFCQUANTITYAREA('GrossArea',$,$,0.0781560000000006);
#667= IFCQUANTITYAREA('CrossSectionArea',$,$,3.6E-05);
#668= IFCQUANTITYVOLUME('NetVolume',$,$,0.000468936000000002);
#669= IFCQUANTITYVOLUME('GrossVolume',$,$,0.000468936000000002);
#670= IFCELEMENTQUANTITY('2ay0EA6iDAyPcfB5G3ynjq',#5,'BaseQuantities',$,$,(#664,#665,#666,#667,#668,#669));
#671= IFCSHAPEREPRESENTATION(#12,'Body','Brep',(#459));
#672= IFCPRODUCTDEFINITIONSHAPE($,$,(#671));
#673= IFCCARTESIANPOINT((56472.9991149902,29989.0021972656,10292.0001907349));
#674= IFCAXIS2PLACEMENT3D(#673,#464,#7);
#675= IFCLOCALPLACEMENT(#42,#674);
#676= IFCPLATE('1uN4gSa6D2vx7EZ2LieM7Y',#44,'PLATE-8','PL8*234',$,#675,#672,'ID785c4a9c-9063-42e7-b1ce-8c256ca161e2');
#677= IFCCARTESIANPOINT((0.,117.,-167.));
#678= IFCCARTESIANPOINT((0.,-117.,-167.));
#679= IFCCARTESIANPOINT((3160.00106811524,-117.,-167.));
#680= IFCCARTESIANPOINT((3160.00106811524,117.,-167.));
#681= IFCPOLYLOOP((#677,#678,#679,#680));
#682= IFCFACEOUTERBOUND(#681,.T.);
#683= IFCFACE((#682));
#684= IFCCARTESIANPOINT((0.,-117.,167.));
#685= IFCCARTESIANPOINT((3160.00106811524,-117.,167.));
#686= IFCPOLYLOOP((#678,#684,#685,#679));
#687= IFCFACEOUTERBOUND(#686,.T.);
#688= IFCFACE((#687));
#689= IFCCARTESIANPOINT((0.,117.,167.));
#690= IFCCARTESIANPOINT((3160.00106811524,117.,167.));
#691= IFCPOLYLOOP((#684,#689,#690,#685));
#692= IFCFACEOUTERBOUND(#691,.T.);
#693= IFCFACE((#692));
#694= IFCPOLYLOOP((#689,#677,#680,#690));
#695= IFCFACEOUTERBOUND(#694,.T.);
#696= IFCFACE((#695));
#697= IFCCARTESIANPOINT((0.,125.,-175.));
#698= IFCCARTESIANPOINT((0.,125.,175.));
#699= IFCCARTESIANPOINT((3160.00106811524,125.,175.));
#700= IFCCARTESIANPOINT((3160.00106811524,125.,-175.));
#701= IFCPOLYLOOP((#697,#698,#699,#700));
#702= IFCFACEOUTERBOUND(#701,.T.);
#703= IFCFACE((#702));
#704= IFCCARTESIANPOINT((0.,-125.,175.));
#705= IFCCARTESIANPOINT((3160.00106811524,-125.,175.));
#706= IFCPOLYLOOP((#698,#704,#705,#699));
#707= IFCFACEOUTERBOUND(#706,.T.);
#708= IFCFACE((#707));
#709= IFCCARTESIANPOINT((0.,-125.,-175.));
#710= IFCCARTESIANPOINT((3160.00106811524,-125.,-175.));
#711= IFCPOLYLOOP((#704,#709,#710,#705));
#712= IFCFACEOUTERBOUND(#711,.T.);
#713= IFCFACE((#712));
#714= IFCPOLYLOOP((#709,#697,#700,#710));
#715= IFCFACEOUTERBOUND(#714,.T.);
#716= IFCFACE((#715));
#717= IFCPOLYLOOP((#705,#710,#700,#699));
#718= IFCFACEOUTERBOUND(#717,.T.);
#719= IFCPOLYLOOP((#685,#690,#680,#679));
#720= IFCFACEBOUND(#719,.T.);
#721= IFCFACE((#718,#720));
#722= IFCPOLYLOOP((#709,#704,#698,#697));
#723= IFCFACEOUTERBOUND(#722,.T.);
#724= IFCPOLYLOOP((#689,#684,#678,#677));
#725= IFCFACEBOUND(#724,.T.);
#726= IFCFACE((#723,#725));
#727= IFCCLOSEDSHELL((#683,#688,#693,#696,#703,#708,#713,#716,#721,#726));
#728= IFCFACETEDBREP(#727);
#729= IFCSTYLEDITEM(#728,(#431),$);
#730= IFCSHAPEREPRESENTATION(#12,'Body','Brep',(#728));
#731= IFCPRODUCTDEFINITIONSHAPE($,$,(#730));
#732= IFCCARTESIANPOINT((53836.1191149902,26523.0005187988,10175.0001907349));
#733= IFCAXIS2PLACEMENT3D(#732,#417,#8);
#734= IFCLOCALPLACEMENT(#42,#733);
#735= IFCBEAM('2sNANZAtfEgxjTIy6ts2gk',#44,'B1-\S\?\S\Z350x250x8','TUB350X250X8 ',$,#734,#731,'IDb65ca5e3-2b7a-4eab-bb5d-4bc1b7d82aae');
#736= IFCBEAMTYPE('0nsurzX_j85e9MmWYp9YAh',#5,'TUB350X250X8 ',$,$,$,$,$,$,.NOTDEFINED.);
#737= IFCPROPERTYSINGLEVALUE('Bottom elevation',$,IFCLABEL(' +10.050'),$);
#738= IFCPROPERTYSINGLEVALUE('Top elevation',$,IFCLABEL(' +10.300'),$);
#739= IFCPROPERTYSINGLEVALUE('Preliminary mark',$,IFCLABEL('5-1-P3'),$);
#740= IFCPROPERTYSINGLEVALUE('Class',$,IFCLABEL('3'),$);
#741= IFCPROPERTYSET('0jHO2pf2LAsBTV1vBAjGqn',#5,'Tekla Common','Common Properties to Shared building elements',(#737,#738,#471,#739,#473,#740));
#742= IFCPROPERTYSINGLEVALUE('Weight',$,IFCMASSMEASURE(231.79),$);
#743= IFCPROPERTYSINGLEVALUE('Volume',$,IFCVOLUMEMEASURE(0.03),$);
#744= IFCPROPERTYSINGLEVALUE('Gross footprint area',$,IFCAREAMEASURE(1.106),$);
#745= IFCPROPERTYSINGLEVALUE('Area per tons',$,IFCAREAMEASURE(16.337),$);
#746= IFCPROPERTYSINGLEVALUE('Net surface area',$,IFCAREAMEASURE(3.787),$);
#747= IFCPROPERTYSINGLEVALUE('Height',$,IFCLENGTHMEASURE(350.),$);
#748= IFCPROPERTYSINGLEVALUE('Width',$,IFCLENGTHMEASURE(250.),$);
#749= IFCPROPERTYSINGLEVALUE('Length',$,IFCLENGTHMEASURE(3160.),$);
#750= IFCPROPERTYSET('1poaOFW3bCMvcieHBYD30U',#5,'Tekla Quantity','Quantity Properties to Shared building elements',(#742,#743,#744,#745,#746,#747,#748,#749));
#751= IFCPROPERTYSINGLEVALUE('Reference',$,IFCIDENTIFIER('5-1-P3'),$);
#752= IFCPROPERTYSET('0MEKGsz4bCgQ4FkKfx5Rpj',#5,'Pset_BeamCommon','Common Properties to beam elements',(#485,#751));
#753= IFCQUANTITYLENGTH('Length',$,$,3160.00106811524);
#754= IFCQUANTITYAREA('OuterSurfaceArea',$,$,3.78678022410968);
#755= IFCQUANTITYVOLUME('NetVolume',$,$,0.029527049980468);
#756= IFCQUANTITYWEIGHT('NetWeight',$,$,231.787342346674);
#757= IFCELEMENTQUANTITY('1Rf0UTApz0gvJ5JGN_N_8r',#5,'BaseQuantities',$,$,(#753,#754,#755,#756));
#758= IFCCARTESIANPOINT((2893.59205993652,-117.,-167.));
#759= IFCCARTESIANPOINT((2893.59205993652,117.,-167.));
#760= IFCPOLYLOOP((#677,#678,#758,#759));
#761= IFCFACEOUTERBOUND(#760,.T.);
#762= IFCFACE((#761));
#763= IFCCARTESIANPOINT((2893.59205993652,-117.,167.));
#764= IFCPOLYLOOP((#678,#684,#763,#758));
#765= IFCFACEOUTERBOUND(#764,.T.);
#766= IFCFACE((#765));
#767= IFCCARTESIANPOINT((2893.59205993652,117.,167.));
#768= IFCPOLYLOOP((#684,#689,#767,#763));
#769= IFCFACEOUTERBOUND(#768,.T.);
#770= IFCFACE((#769));
#771= IFCPOLYLOOP((#689,#677,#759,#767));
#772= IFCFACEOUTERBOUND(#771,.T.);
#773= IFCFACE((#772));
#774= IFCCARTESIANPOINT((2893.59205993652,125.,175.));
#775= IFCCARTESIANPOINT((2893.59205993652,125.,-175.));
#776= IFCPOLYLOOP((#697,#698,#774,#775));
#777= IFCFACEOUTERBOUND(#776,.T.);
#778= IFCFACE((#777));
#779= IFCCARTESIANPOINT((2893.59205993652,-125.,175.));
#780= IFCPOLYLOOP((#698,#704,#779,#774));
#781= IFCFACEOUTERBOUND(#780,.T.);
#782= IFCFACE((#781));
#783= IFCCARTESIANPOINT((2893.59205993652,-125.,-175.));
#784= IFCPOLYLOOP((#704,#709,#783,#779));
#785= IFCFACEOUTERBOUND(#784,.T.);
#786= IFCFACE((#785));
#787= IFCPOLYLOOP((#709,#697,#775,#783));
#788= IFCFACEOUTERBOUND(#787,.T.);
#789= IFCFACE((#788));
#790= IFCPOLYLOOP((#779,#783,#775,#774));
#791= IFCFACEOUTERBOUND(#790,.T.);
#792= IFCPOLYLOOP((#763,#767,#759,#758));
#793= IFCFACEBOUND(#792,.T.);
#794= IFCFACE((#791,#793));
#795= IFCCLOSEDSHELL((#762,#766,#770,#773,#778,#782,#786,#789,#794,#726));
#796= IFCFACETEDBREP(#795);
#797= IFCSTYLEDITEM(#796,(#431),$);
#798= IFCSHAPEREPRESENTATION(#12,'Body','Brep',(#796));
#799= IFCPRODUCTDEFINITIONSHAPE($,$,(#798));
#800= IFCCARTESIANPOINT((56639.9991149902,30003.0021972656,10175.0001907349));
#801= IFCDIRECTION((0.,-1.,0.));
#802= IFCAXIS2PLACEMENT3D(#800,#7,#801);
#803= IFCLOCALPLACEMENT(#42,#802);
#804= IFCBEAM('2oXHJdBQnEtR3EAoozjPI3',#44,'B1-\S\?\S\Z350x250x8','TUB350X250X8 ',$,#803,#799,'IDb28514e7-2dac-4edd-b0ce-2b2cbdb59483');
#805= IFCPROPERTYSINGLEVALUE('Preliminary mark',$,IFCLABEL('5-1-P2'),$);
#806= IFCPROPERTYSET('00Ouriir1DEASbJDKjXD97',#5,'Tekla Common','Common Properties to Shared building elements',(#737,#738,#471,#805,#473,#740));
#807= IFCPROPERTYSINGLEVALUE('Weight',$,IFCMASSMEASURE(212.25),$);
#808= IFCPROPERTYSINGLEVALUE('Volume',$,IFCVOLUMEMEASURE(0.027),$);
#809= IFCPROPERTYSINGLEVALUE('Gross footprint area',$,IFCAREAMEASURE(1.013),$);
#810= IFCPROPERTYSINGLEVALUE('Area per tons',$,IFCAREAMEASURE(16.341),$);
#811= IFCPROPERTYSINGLEVALUE('Net surface area',$,IFCAREAMEASURE(3.468),$);
#812= IFCPROPERTYSINGLEVALUE('Length',$,IFCLENGTHMEASURE(2893.6),$);
#813= IFCPROPERTYSET('0H_1HXxrj3mAvro31Zc0A4',#5,'Tekla Quantity','Quantity Properties to Shared building elements',(#807,#808,#809,#810,#811,#747,#748,#812));
#814= IFCPROPERTYSINGLEVALUE('Reference',$,IFCIDENTIFIER('5-1-P2'),$);
#815= IFCPROPERTYSET('1I7KznoOv4KQvatv2KkiDc',#5,'Pset_BeamCommon','Common Properties to beam elements',(#485,#814));
#816= IFCQUANTITYLENGTH('Length',$,$,2893.59205993652);
#817= IFCQUANTITYAREA('OuterSurfaceArea',$,$,3.46833577222821);
#818= IFCQUANTITYVOLUME('NetVolume',$,$,0.0270377242080501);
#819= IFCQUANTITYWEIGHT('NetWeight',$,$,212.246135033194);
#820= IFCELEMENTQUANTITY('2XIerFoUX9Zujdja39guAx',#5,'BaseQuantities',$,$,(#816,#817,#818,#819));
#821= IFCCARTESIANPOINT((2453.87923706055,-117.,-167.));
#822= IFCCARTESIANPOINT((2453.87923706055,117.,-167.));
#823= IFCPOLYLOOP((#677,#678,#821,#822));
#824= IFCFACEOUTERBOUND(#823,.T.);
#825= IFCFACE((#824));
#826= IFCCARTESIANPOINT((2453.87923706055,-117.,167.));
#827= IFCPOLYLOOP((#678,#684,#826,#821));
#828= IFCFACEOUTERBOUND(#827,.T.);
#829= IFCFACE((#828));
#830= IFCCARTESIANPOINT((2453.87923706055,117.,167.));
#831= IFCPOLYLOOP((#684,#689,#830,#826));
#832= IFCFACEOUTERBOUND(#831,.T.);
#833= IFCFACE((#832));
#834= IFCPOLYLOOP((#689,#677,#822,#830));
#835= IFCFACEOUTERBOUND(#834,.T.);
#836= IFCFACE((#835));
#837= IFCCARTESIANPOINT((2453.87923706055,125.,175.));
#838= IFCCARTESIANPOINT((2453.87923706055,125.,-175.));
#839= IFCPOLYLOOP((#697,#698,#837,#838));
#840= IFCFACEOUTERBOUND(#839,.T.);
#841= IFCFACE((#840));
#842= IFCCARTESIANPOINT((2453.87923706055,-125.,175.));
#843= IFCPOLYLOOP((#698,#704,#842,#837));
#844= IFCFACEOUTERBOUND(#843,.T.);
#845= IFCFACE((#844));
#846= IFCCARTESIANPOINT((2453.87923706055,-125.,-175.));
#847= IFCPOLYLOOP((#704,#709,#846,#842));
#848= IFCFACEOUTERBOUND(#847,.T.);
#849= IFCFACE((#848));
#850= IFCPOLYLOOP((#709,#697,#838,#846));
#851= IFCFACEOUTERBOUND(#850,.T.);
#852= IFCFACE((#851));
#853= IFCPOLYLOOP((#842,#846,#838,#837));
#854= IFCFACEOUTERBOUND(#853,.T.);
#855= IFCPOLYLOOP((#826,#830,#822,#821));
#856= IFCFACEBOUND(#855,.T.);
#857= IFCFACE((#854,#856));
#858= IFCCLOSEDSHELL((#825,#829,#833,#836,#841,#845,#849,#852,#857,#726));
#859= IFCFACETEDBREP(#858);
#860= IFCSTYLEDITEM(#859,(#431),$);
#861= IFCSHAPEREPRESENTATION(#12,'Body','Brep',(#859));
#862= IFCPRODUCTDEFINITIONSHAPE($,$,(#861));
#863= IFCCARTESIANPOINT((54011.1206408691,29498.0008239746,10175.0001907349));
#864= IFCAXIS2PLACEMENT3D(#863,#8,#7);
#865= IFCLOCALPLACEMENT(#42,#864);
#866= IFCBEAM('33L_4mx0z6z8TedXaMIAD6',#337,'B1-\S\?\S\Z350x250x8','TUB350X250X8 ',$,#865,#862,'IDc357e130-ec0f-46f4-8768-9e191648a346');
#867= IFCPROPERTYSINGLEVALUE('Preliminary mark',$,IFCLABEL('5-1-P5'),$);
#868= IFCPROPERTYSET('3t1lZ1fvf5Uxih7VVDM$DM',#5,'Tekla Common','Common Properties to Shared building elements',(#737,#738,#471,#867,#473,#740));
#869= IFCPROPERTYSINGLEVALUE('Weight',$,IFCMASSMEASURE(179.99),$);
#870= IFCPROPERTYSINGLEVALUE('Volume',$,IFCVOLUMEMEASURE(0.023),$);
#871= IFCPROPERTYSINGLEVALUE('Gross footprint area',$,IFCAREAMEASURE(0.859),$);
#872= IFCPROPERTYSINGLEVALUE('Area per tons',$,IFCAREAMEASURE(16.349),$);
#873= IFCPROPERTYSINGLEVALUE('Net surface area',$,IFCAREAMEASURE(2.943),$);
#874= IFCPROPERTYSINGLEVALUE('Length',$,IFCLENGTHMEASURE(2453.9),$);
#875= IFCPROPERTYSET('2MoWb9xw93EgT2AbfZM2KF',#5,'Tekla Quantity','Quantity Properties to Shared building elements',(#869,#870,#871,#872,#873,#747,#748,#874));
#876= IFCPROPERTYSINGLEVALUE('Reference',$,IFCIDENTIFIER('5-1-P5'),$);
#877= IFCPROPERTYSET('26uZ89NJv5MR88$GRNOpIC',#5,'Pset_BeamCommon','Common Properties to beam elements',(#485,#876));
#878= IFCQUANTITYLENGTH('Length',$,$,2453.87923706055);
#879= IFCQUANTITYAREA('OuterSurfaceArea',$,$,2.94273752079051);
#880= IFCQUANTITYVOLUME('NetVolume',$,$,0.0229290475910971);
#881= IFCQUANTITYWEIGHT('NetWeight',$,$,179.993023590112);
#882= IFCELEMENTQUANTITY('1ZXL83PBvE18C2Hfwpwv0R',#5,'BaseQuantities',$,$,(#878,#879,#880,#881));
#883= IFCRELAGGREGATES('15JnEp3L9CFetKKt2luVVq',#5,$,$,#37,(#39));
#884= IFCRELAGGREGATES('3oxGSdeKP7p9ZJBB_uqC6q',#5,$,$,#39,(#41));
#885= IFCRELAGGREGATES('3$kULpqqLDlAvaBT4evzJh',#5,$,$,#41,(#43));
#886= IFCRELCONTAINEDINSPATIALSTRUCTURE('3peOPmyZb56AXROSInEX_g',#5,$,$,(#866,#804,#735,#676,#650,#611,#599,#502,#467,#420,#336,#329,#322,#313,#235,#228,#221,#214,#207,#199,#192,#185,#178,#169,#161,#133),#43);
#887= IFCRELDEFINESBYPROPERTIES('1PvxxLuRLF9AZRIPN8i7jV',#5,$,$,(#235,#228,#221,#214,#207,#199,#192,#185,#178,#169,#161,#133),#151);
#888= IFCRELDEFINESBYPROPERTIES('3tJ3NyEB1FD9DJ2HXqPDQy',#5,$,$,(#336,#329,#322,#313),#315);
#889= IFCRELDEFINESBYPROPERTIES('3yXUzv2Wz1yAhXpRDyN98X',#5,$,$,(#502,#420),#426);
#890= IFCRELDEFINESBYPROPERTIES('3XpXsGjRj8u9_$U0vAjaI4',#5,$,$,(#676,#611,#467),#475);
#891= IFCRELDEFINESBYPROPERTIES('2i75Fx2nn2AuxAaKmh$Sg8',#5,$,$,(#676,#611,#467),#484);
#892= IFCRELDEFINESBYPROPERTIES('0_5wPIFDTBHfrUuN5eajou',#5,$,$,(#676,#611,#467),#487);
#893= IFCRELDEFINESBYPROPERTIES('3Xjex_dbjFLe4ofKL8y6q5',#5,$,$,(#676,#611,#467),#494);
#894= IFCRELDEFINESBYPROPERTIES('2njdPmU9v2DvcgoI5psOYs',#5,$,$,(#599),#605);
#895= IFCRELDEFINESBYPROPERTIES('3j4pbDIoLEvv9qI$4DAfDT',#5,$,$,(#650),#654);
#896= IFCRELDEFINESBYPROPERTIES('3lsoZRsCP1rPZeMrjK8ZF9',#5,$,$,(#650),#661);
#897= IFCRELDEFINESBYPROPERTIES('2PZ58KCkb9fOlNvDLDSn9j',#5,$,$,(#650),#663);
#898= IFCRELDEFINESBYPROPERTIES('17SpJ4jev1Nf9w4U9fQ11t',#5,$,$,(#650),#670);
#899= IFCRELDEFINESBYPROPERTIES('2JMEsme0DEXfqVXboJsTtu',#5,$,$,(#735),#741);
#900= IFCRELDEFINESBYPROPERTIES('0486A8JjTEk98VJiMx$gqR',#5,$,$,(#735),#750);
#901= IFCRELDEFINESBYPROPERTIES('2OYJsTsET4Yea8Kf1FtopZ',#5,$,$,(#735),#752);
#902= IFCRELDEFINESBYPROPERTIES('1d5Or$yXf5lQZlNCgxlRNs',#5,$,$,(#735),#757);
#903= IFCRELDEFINESBYPROPERTIES('0AaLuFyPr1P8Yjo0A9pNHw',#5,$,$,(#804),#806);
#904= IFCRELDEFINESBYPROPERTIES('2fGO83QXX1$OoJ0rPDQqmO',#5,$,$,(#804),#813);
#905= IFCRELDEFINESBYPROPERTIES('3pDxn7w0584vifL603vuee',#5,$,$,(#804),#815);
#906= IFCRELDEFINESBYPROPERTIES('3Q95mRkIb0LhdAHQ28PtS5',#5,$,$,(#804),#820);
#907= IFCRELDEFINESBYPROPERTIES('3e2TuI21HDVO8uz0ztgSYh',#5,$,$,(#866),#868);
#908= IFCRELDEFINESBYPROPERTIES('1Ajm_0EaL2C8tSHtxw5Ydf',#5,$,$,(#866),#875);
#909= IFCRELDEFINESBYPROPERTIES('2vPCM2suXDewGsj301snSt',#5,$,$,(#866),#877);
#910= IFCRELDEFINESBYPROPERTIES('0tw0KO8Oj35x50zX67LM9v',#5,$,$,(#866),#882);
#911= IFCRELDEFINESBYTYPE('1AWCd72eH7Z9VZ_Y5dbjyf',#5,$,$,(#599,#502,#420,#336,#329,#322,#313,#235,#228,#221,#214,#207,#199,#192,#185,#178,#169,#161,#133),#134);
#912= IFCRELDEFINESBYTYPE('3Qy3Eiky9BMv0YrtBR2EE1',#5,$,$,(#676,#611,#467),#468);
#913= IFCRELDEFINESBYTYPE('1wSb694IH2vAk7tYESRfYJ',#5,$,$,(#650),#651);
#914= IFCRELDEFINESBYTYPE('0_sx6tYm51qxyKbA1RqjNY',#5,$,$,(#866,#804,#735),#736);
#915= IFCRELASSOCIATESMATERIAL('0tuQcIemL6swazNnXHzjLe',#5,$,$,(#336,#329,#322,#313,#235,#228,#221,#214,#207,#199,#192,#185,#178,#169,#161,#133),#152);
#916= IFCRELASSOCIATESMATERIAL('3uwt1dJxz11f6wxuU4Ioqq',#5,$,$,(#599,#502,#420),#427);
#917= IFCRELASSOCIATESMATERIAL('0h6VOnMyz80ueOBuWNj_1S',#5,$,$,(#866,#804,#735,#676,#650,#611,#467),#495);
#918= IFCPRESENTATIONLAYERASSIGNMENT('BoltArray',$,(#126,#154,#163,#171,#180,#187,#194,#201,#209,#216,#223,#230,#308,#317,#324,#331,#414,#497,#592),$);
#919= IFCPRESENTATIONLAYERASSIGNMENT('PLATE-8',$,(#461,#606,#671),$);
#920= IFCPRESENTATIONLAYERASSIGNMENT('PLATE-6',$,(#645),$);
#921= IFCPRESENTATIONLAYERASSIGNMENT('B1-\S\?\S\Z350x250x8',$,(#730,#798,#861),$);
ENDSEC;

END-ISO-10303-21;
