ISO-10303-21;
HEADER;
FILE_DESCRIPTION(('ViewDefinition[CoordinationView_V2.0, QuantityTakeOffAddOnView]', 'ExchangeRequirement[Structural, SurfaceGeometry]', 'Option [BaseQuantities:On]', 'Option [GridExport:On]', 'Option [Assemblies:Off]', 'Option [Bolts:On]', 'Option [Rebars:On]', 'Option [PourObjects:Off]', 'Option [Welds:Off]', 'Option [SurfaceTreatments:On]', 'Option [LocationBy:0]', 'Option [ViewColors:Off]', 'Option [SectionedSpine:Off]', 'Option [PropertySets:On]', 'Option [Export all:Off]'),'2;1');
FILE_NAME('5-1-A11_20.ifc','2026-03-10T08:04:19',('DESKTOP-NLV509P\\Ahmed'),('Structural Designer'),'IFC Parser version: 3.13.2','Tekla Structures 2023 Service Pack 8, IFC Export Version: 4.0.0.0 Jan 19 2024','');
FILE_SCHEMA(('IFC2X3'));
ENDSEC;

DATA;
#1= IFCPERSON('DESKTOP-NLV509P\\Ahmed','Undefined',$,$,$,$,$,$);
#2= IFCORGANIZATION($,'Trimble Solutions Corporation',$,$,$);
#3= IFCPERSONANDORGANIZATION(#1,#2,$);
#4= IFCAPPLICATION(#2,'2023 Service Pack 8','Tekla Structures','Multi material modeling');
#5= IFCOWNERHISTORY(#3,#4,$,.NOCHANGE.,$,$,$,1773119059);
#6= IFCCARTESIANPOINT((0.,0.,0.));
#7= IFCDIRECTION((1.,0.,0.));
#8= IFCDIRECTION((0.,1.,0.));
#9= IFCDIRECTION((0.,0.,1.));
#10= IFCAXIS2PLACEMENT3D(#6,#9,#7);
#11= IFCGEOMETRICREPRESENTATIONCONTEXT($,'Model',3,1.E-05,#10,$);
#12= IFCGEOMETRICREPRESENTATIONSUBCONTEXT('Body','Model',*,*,*,*,#11,$,.MODEL_VIEW.,$);
#13= IFCGEOMETRICREPRESENTATIONSUBCONTEXT('Axis','Model',*,*,*,*,#11,$,.GRAPH_VIEW.,$);
#14= IFCGEOMETRICREPRESENTATIONSUBCONTEXT('FootPrint','Model',*,*,*,*,#11,$,.MODEL_VIEW.,$);
#15= IFCSIUNIT(*,.LENGTHUNIT.,.MILLI.,.METRE.);
#16= IFCMEASUREWITHUNIT(IFCRATIOMEASURE(304.8),#15);
#17= IFCDIMENSIONALEXPONENTS(1,0,0,0,0,0,0);
#18= IFCCONVERSIONBASEDUNIT(#17,.LENGTHUNIT.,'FOOT',#16);
#19= IFCSIUNIT(*,.AREAUNIT.,$,.SQUARE_METRE.);
#20= IFCMEASUREWITHUNIT(IFCRATIOMEASURE(0.09290304),#19);
#21= IFCDIMENSIONALEXPONENTS(2,0,0,0,0,0,0);
#22= IFCCONVERSIONBASEDUNIT(#21,.AREAUNIT.,'SQUARE FOOT',#20);
#23= IFCSIUNIT(*,.VOLUMEUNIT.,$,.CUBIC_METRE.);
#24= IFCMEASUREWITHUNIT(IFCRATIOMEASURE(0.028316846592),#23);
#25= IFCDIMENSIONALEXPONENTS(3,0,0,0,0,0,0);
#26= IFCCONVERSIONBASEDUNIT(#25,.VOLUMEUNIT.,'CUBIC FOOT',#24);
#27= IFCSIUNIT(*,.MASSUNIT.,.KILO.,.GRAM.);
#28= IFCSIUNIT(*,.TIMEUNIT.,$,.SECOND.);
#29= IFCSIUNIT(*,.PLANEANGLEUNIT.,$,.RADIAN.);
#30= IFCMEASUREWITHUNIT(IFCRATIOMEASURE(0.0174532925199433),#29);
#31= IFCDIMENSIONALEXPONENTS(0,0,0,0,0,0,0);
#32= IFCCONVERSIONBASEDUNIT(#31,.PLANEANGLEUNIT.,'DEGREE',#30);
#33= IFCSIUNIT(*,.SOLIDANGLEUNIT.,$,.STERADIAN.);
#34= IFCSIUNIT(*,.THERMODYNAMICTEMPERATUREUNIT.,$,.DEGREE_CELSIUS.);
#35= IFCSIUNIT(*,.LUMINOUSINTENSITYUNIT.,$,.LUMEN.);
#36= IFCUNITASSIGNMENT((#15,#19,#23,#27,#28,#29,#33,#34,#35));
#37= IFCPROJECT('0oEHLV7hTAlw38uuDTo_BX',#5,'Undefined',$,$,$,$,(#11),#36);
#38= IFCLOCALPLACEMENT($,#10);
#39= IFCSITE('1KHio6j1z3qvCssIDXpp5b',#5,'Undefined',$,$,#38,$,$,.ELEMENT.,$,$,$,$,$);
#40= IFCLOCALPLACEMENT(#38,#10);
#41= IFCBUILDING('08z15l8Tn8wg_Cn0OmXBx1',#5,'Undefined',$,$,#40,$,$,.ELEMENT.,$,$,$);
#42= IFCLOCALPLACEMENT(#40,#10);
#43= IFCBUILDINGSTOREY('3gJPpYF7LCbf7I109fNVl5',#5,'Undefined',$,$,#42,$,$,.ELEMENT.,0.);
#44= IFCOWNERHISTORY(#3,#4,$,.NOCHANGE.,$,$,$,1770796800);
#45= IFCCOLOURRGB($,0.698039215686274,0.4,0.);
#46= IFCSURFACESTYLERENDERING(#45,0.,$,$,$,$,IFCNORMALISEDRATIOMEASURE(0.00390625),IFCSPECULAREXPONENT(10.),.NOTDEFINED.);
#47= IFCSURFACESTYLE('TS10.9',.POSITIVE.,(#46));
#48= IFCPRESENTATIONSTYLEASSIGNMENT((#47));
#49= IFCCARTESIANPOINT((13.,-13.9000000000018,0.));
#50= IFCCARTESIANPOINT((11.2583302491975,-13.9000000000018,6.50000000000039));
#51= IFCCARTESIANPOINT((6.49999999999922,-13.9000000000018,11.2583302491982));
#52= IFCCARTESIANPOINT((-1.34723677608042E-12,-13.9000000000018,13.));
#53= IFCCARTESIANPOINT((-6.50000000000155,-13.9000000000018,11.2583302491968));
#54= IFCCARTESIANPOINT((-11.2583302491988,-13.9000000000018,6.49999999999806));
#55= IFCCARTESIANPOINT((-13.,-13.9000000000018,-2.69447355216084E-12));
#56= IFCCARTESIANPOINT((-11.2583302491961,-13.9000000000018,-6.50000000000272));
#57= IFCCARTESIANPOINT((-6.4999999999969,-13.9000000000018,-11.2583302491995));
#58= IFCCARTESIANPOINT((4.02727742892113E-12,-13.9000000000018,-13.));
#59= IFCCARTESIANPOINT((6.50000000000388,-13.9000000000018,-11.2583302491955));
#60= IFCCARTESIANPOINT((11.2583302492002,-13.9000000000018,-6.49999999999573));
#61= IFCCARTESIANPOINT((13.,-1.90000000000182,0.));
#62= IFCCARTESIANPOINT((11.2583302491975,-1.90000000000182,6.50000000000039));
#63= IFCCARTESIANPOINT((6.49999999999922,-1.90000000000182,11.2583302491982));
#64= IFCCARTESIANPOINT((-1.34723677608042E-12,-1.90000000000182,13.));
#65= IFCCARTESIANPOINT((-6.50000000000155,-1.90000000000182,11.2583302491968));
#66= IFCCARTESIANPOINT((-11.2583302491988,-1.90000000000182,6.49999999999806));
#67= IFCCARTESIANPOINT((-13.,-1.90000000000182,-2.69447355216084E-12));
#68= IFCCARTESIANPOINT((-11.2583302491961,-1.90000000000182,-6.50000000000272));
#69= IFCCARTESIANPOINT((-6.4999999999969,-1.90000000000182,-11.2583302491995));
#70= IFCCARTESIANPOINT((4.02727742892113E-12,-1.90000000000182,-13.));
#71= IFCCARTESIANPOINT((6.50000000000388,-1.90000000000182,-11.2583302491955));
#72= IFCCARTESIANPOINT((11.2583302492002,-1.90000000000182,-6.49999999999573));
#73= IFCPOLYLOOP((#49,#50,#51,#52,#53,#54,#55,#56,#57,#58,#59,#60));
#74= IFCFACEOUTERBOUND(#73,.T.);
#75= IFCFACE((#74));
#76= IFCPOLYLOOP((#72,#71,#70,#69,#68,#67,#66,#65,#64,#63,#62,#61));
#77= IFCFACEOUTERBOUND(#76,.T.);
#78= IFCFACE((#77));
#79= IFCPOLYLOOP((#49,#61,#62,#50));
#80= IFCFACEOUTERBOUND(#79,.T.);
#81= IFCFACE((#80));
#82= IFCPOLYLOOP((#50,#62,#63,#51));
#83= IFCFACEOUTERBOUND(#82,.T.);
#84= IFCFACE((#83));
#85= IFCPOLYLOOP((#51,#63,#64,#52));
#86= IFCFACEOUTERBOUND(#85,.T.);
#87= IFCFACE((#86));
#88= IFCPOLYLOOP((#52,#64,#65,#53));
#89= IFCFACEOUTERBOUND(#88,.T.);
#90= IFCFACE((#89));
#91= IFCPOLYLOOP((#53,#65,#66,#54));
#92= IFCFACEOUTERBOUND(#91,.T.);
#93= IFCFACE((#92));
#94= IFCPOLYLOOP((#54,#66,#67,#55));
#95= IFCFACEOUTERBOUND(#94,.T.);
#96= IFCFACE((#95));
#97= IFCPOLYLOOP((#55,#67,#68,#56));
#98= IFCFACEOUTERBOUND(#97,.T.);
#99= IFCFACE((#98));
#100= IFCPOLYLOOP((#56,#68,#69,#57));
#101= IFCFACEOUTERBOUND(#100,.T.);
#102= IFCFACE((#101));
#103= IFCPOLYLOOP((#57,#69,#70,#58));
#104= IFCFACEOUTERBOUND(#103,.T.);
#105= IFCFACE((#104));
#106= IFCPOLYLOOP((#58,#70,#71,#59));
#107= IFCFACEOUTERBOUND(#106,.T.);
#108= IFCFACE((#107));
#109= IFCPOLYLOOP((#59,#71,#72,#60));
#110= IFCFACEOUTERBOUND(#109,.T.);
#111= IFCFACE((#110));
#112= IFCPOLYLOOP((#60,#72,#61,#49));
#113= IFCFACEOUTERBOUND(#112,.T.);
#114= IFCFACE((#113));
#115= IFCCARTESIANPOINT((35.,-2.,0.));
#116= IFCCARTESIANPOINT((34.0104339226466,-2.,4.97488462074648));
#117= IFCCARTESIANPOINT((31.1923881554246,-2.,9.19238815542559));
#118= IFCCARTESIANPOINT((26.9748846207452,-2.,12.0104339226471));
#119= IFCCARTESIANPOINT((-22.0000000000013,-2.,13.));
#120= IFCCARTESIANPOINT((-28.5000000000016,-2.,11.2583302491968));
#121= IFCCARTESIANPOINT((-33.2583302491988,-2.,6.49999999999806));
#122= IFCCARTESIANPOINT((-35.,-2.,-2.69447355216084E-12));
#123= IFCCARTESIANPOINT((-33.2583302491961,-2.,-6.50000000000272));
#124= IFCCARTESIANPOINT((-28.4999999999969,-2.,-11.2583302491995));
#125= IFCCARTESIANPOINT((-21.999999999996,-2.,-13.));
#126= IFCCARTESIANPOINT((22.000000000004,-2.,-13.));
#127= IFCCARTESIANPOINT((28.5000000000039,-2.,-11.2583302491955));
#128= IFCCARTESIANPOINT((33.2583302492002,-2.,-6.49999999999573));
#129= IFCCARTESIANPOINT((35.,16.,0.));
#130= IFCCARTESIANPOINT((34.0104339226466,16.,4.97488462074648));
#131= IFCCARTESIANPOINT((31.1923881554246,16.,9.19238815542559));
#132= IFCCARTESIANPOINT((26.9748846207452,16.,12.0104339226471));
#133= IFCCARTESIANPOINT((-22.0000000000013,16.,13.));
#134= IFCCARTESIANPOINT((-28.5000000000016,16.,11.2583302491968));
#135= IFCCARTESIANPOINT((-33.2583302491988,16.,6.49999999999806));
#136= IFCCARTESIANPOINT((-35.,16.,-2.69447355216084E-12));
#137= IFCCARTESIANPOINT((-33.2583302491961,16.,-6.50000000000272));
#138= IFCCARTESIANPOINT((-28.4999999999969,16.,-11.2583302491995));
#139= IFCCARTESIANPOINT((-21.999999999996,16.,-13.));
#140= IFCCARTESIANPOINT((22.000000000004,16.,-13.));
#141= IFCCARTESIANPOINT((28.5000000000039,16.,-11.2583302491955));
#142= IFCCARTESIANPOINT((33.2583302492002,16.,-6.49999999999573));
#143= IFCPOLYLOOP((#115,#116,#117,#118,#119,#120,#121,#122,#123,#124,#125,#126,#127,#128));
#144= IFCFACEOUTERBOUND(#143,.T.);
#145= IFCFACE((#144));
#146= IFCPOLYLOOP((#129,#142,#141,#140,#139,#138,#137,#136,#135,#134,#133,#132,#131,#130));
#147= IFCFACEOUTERBOUND(#146,.T.);
#148= IFCFACE((#147));
#149= IFCPOLYLOOP((#115,#129,#130,#116));
#150= IFCFACEOUTERBOUND(#149,.T.);
#151= IFCFACE((#150));
#152= IFCPOLYLOOP((#116,#130,#131,#117));
#153= IFCFACEOUTERBOUND(#152,.T.);
#154= IFCFACE((#153));
#155= IFCPOLYLOOP((#117,#131,#132,#118));
#156= IFCFACEOUTERBOUND(#155,.T.);
#157= IFCFACE((#156));
#158= IFCPOLYLOOP((#118,#132,#133,#119));
#159= IFCFACEOUTERBOUND(#158,.T.);
#160= IFCFACE((#159));
#161= IFCPOLYLOOP((#119,#133,#134,#120));
#162= IFCFACEOUTERBOUND(#161,.T.);
#163= IFCFACE((#162));
#164= IFCPOLYLOOP((#120,#134,#135,#121));
#165= IFCFACEOUTERBOUND(#164,.T.);
#166= IFCFACE((#165));
#167= IFCPOLYLOOP((#121,#135,#136,#122));
#168= IFCFACEOUTERBOUND(#167,.T.);
#169= IFCFACE((#168));
#170= IFCPOLYLOOP((#122,#136,#137,#123));
#171= IFCFACEOUTERBOUND(#170,.T.);
#172= IFCFACE((#171));
#173= IFCPOLYLOOP((#123,#137,#138,#124));
#174= IFCFACEOUTERBOUND(#173,.T.);
#175= IFCFACE((#174));
#176= IFCPOLYLOOP((#124,#138,#139,#125));
#177= IFCFACEOUTERBOUND(#176,.T.);
#178= IFCFACE((#177));
#179= IFCPOLYLOOP((#125,#139,#140,#126));
#180= IFCFACEOUTERBOUND(#179,.T.);
#181= IFCFACE((#180));
#182= IFCPOLYLOOP((#126,#140,#141,#127));
#183= IFCFACEOUTERBOUND(#182,.T.);
#184= IFCFACE((#183));
#185= IFCPOLYLOOP((#127,#141,#142,#128));
#186= IFCFACEOUTERBOUND(#185,.T.);
#187= IFCFACE((#186));
#188= IFCPOLYLOOP((#128,#142,#129,#115));
#189= IFCFACEOUTERBOUND(#188,.T.);
#190= IFCFACE((#189));
#191= IFCCARTESIANPOINT((35.,372.,0.));
#192= IFCCARTESIANPOINT((34.0104339226466,372.,4.97488462074648));
#193= IFCCARTESIANPOINT((31.1923881554246,372.,9.19238815542559));
#194= IFCCARTESIANPOINT((26.9748846207452,372.,12.0104339226471));
#195= IFCCARTESIANPOINT((-22.0000000000013,372.,13.));
#196= IFCCARTESIANPOINT((-28.5000000000016,372.,11.2583302491968));
#197= IFCCARTESIANPOINT((-33.2583302491988,372.,6.49999999999806));
#198= IFCCARTESIANPOINT((-35.,372.,-2.69447355216084E-12));
#199= IFCCARTESIANPOINT((-33.2583302491961,372.,-6.50000000000272));
#200= IFCCARTESIANPOINT((-28.4999999999969,372.,-11.2583302491995));
#201= IFCCARTESIANPOINT((-21.999999999996,372.,-13.));
#202= IFCCARTESIANPOINT((22.000000000004,372.,-13.));
#203= IFCCARTESIANPOINT((28.5000000000039,372.,-11.2583302491955));
#204= IFCCARTESIANPOINT((33.2583302492002,372.,-6.49999999999573));
#205= IFCCARTESIANPOINT((35.,390.,0.));
#206= IFCCARTESIANPOINT((34.0104339226466,390.,4.97488462074648));
#207= IFCCARTESIANPOINT((31.1923881554246,390.,9.19238815542559));
#208= IFCCARTESIANPOINT((26.9748846207452,390.,12.0104339226471));
#209= IFCCARTESIANPOINT((-22.0000000000013,390.,13.));
#210= IFCCARTESIANPOINT((-28.5000000000016,390.,11.2583302491968));
#211= IFCCARTESIANPOINT((-33.2583302491988,390.,6.49999999999806));
#212= IFCCARTESIANPOINT((-35.,390.,-2.69447355216084E-12));
#213= IFCCARTESIANPOINT((-33.2583302491961,390.,-6.50000000000272));
#214= IFCCARTESIANPOINT((-28.4999999999969,390.,-11.2583302491995));
#215= IFCCARTESIANPOINT((-21.999999999996,390.,-13.));
#216= IFCCARTESIANPOINT((22.000000000004,390.,-13.));
#217= IFCCARTESIANPOINT((28.5000000000039,390.,-11.2583302491955));
#218= IFCCARTESIANPOINT((33.2583302492002,390.,-6.49999999999573));
#219= IFCPOLYLOOP((#191,#192,#193,#194,#195,#196,#197,#198,#199,#200,#201,#202,#203,#204));
#220= IFCFACEOUTERBOUND(#219,.T.);
#221= IFCFACE((#220));
#222= IFCPOLYLOOP((#205,#218,#217,#216,#215,#214,#213,#212,#211,#210,#209,#208,#207,#206));
#223= IFCFACEOUTERBOUND(#222,.T.);
#224= IFCFACE((#223));
#225= IFCPOLYLOOP((#191,#205,#206,#192));
#226= IFCFACEOUTERBOUND(#225,.T.);
#227= IFCFACE((#226));
#228= IFCPOLYLOOP((#192,#206,#207,#193));
#229= IFCFACEOUTERBOUND(#228,.T.);
#230= IFCFACE((#229));
#231= IFCPOLYLOOP((#193,#207,#208,#194));
#232= IFCFACEOUTERBOUND(#231,.T.);
#233= IFCFACE((#232));
#234= IFCPOLYLOOP((#194,#208,#209,#195));
#235= IFCFACEOUTERBOUND(#234,.T.);
#236= IFCFACE((#235));
#237= IFCPOLYLOOP((#195,#209,#210,#196));
#238= IFCFACEOUTERBOUND(#237,.T.);
#239= IFCFACE((#238));
#240= IFCPOLYLOOP((#196,#210,#211,#197));
#241= IFCFACEOUTERBOUND(#240,.T.);
#242= IFCFACE((#241));
#243= IFCPOLYLOOP((#197,#211,#212,#198));
#244= IFCFACEOUTERBOUND(#243,.T.);
#245= IFCFACE((#244));
#246= IFCPOLYLOOP((#198,#212,#213,#199));
#247= IFCFACEOUTERBOUND(#246,.T.);
#248= IFCFACE((#247));
#249= IFCPOLYLOOP((#199,#213,#214,#200));
#250= IFCFACEOUTERBOUND(#249,.T.);
#251= IFCFACE((#250));
#252= IFCPOLYLOOP((#200,#214,#215,#201));
#253= IFCFACEOUTERBOUND(#252,.T.);
#254= IFCFACE((#253));
#255= IFCPOLYLOOP((#201,#215,#216,#202));
#256= IFCFACEOUTERBOUND(#255,.T.);
#257= IFCFACE((#256));
#258= IFCPOLYLOOP((#202,#216,#217,#203));
#259= IFCFACEOUTERBOUND(#258,.T.);
#260= IFCFACE((#259));
#261= IFCPOLYLOOP((#203,#217,#218,#204));
#262= IFCFACEOUTERBOUND(#261,.T.);
#263= IFCFACE((#262));
#264= IFCPOLYLOOP((#204,#218,#205,#191));
#265= IFCFACEOUTERBOUND(#264,.T.);
#266= IFCFACE((#265));
#267= IFCCARTESIANPOINT((13.,389.899999999998,0.));
#268= IFCCARTESIANPOINT((11.2583302491975,389.899999999998,6.50000000000039));
#269= IFCCARTESIANPOINT((6.49999999999922,389.899999999998,11.2583302491982));
#270= IFCCARTESIANPOINT((-1.34723677608042E-12,389.899999999998,13.));
#271= IFCCARTESIANPOINT((-6.50000000000155,389.899999999998,11.2583302491968));
#272= IFCCARTESIANPOINT((-11.2583302491988,389.899999999998,6.49999999999806));
#273= IFCCARTESIANPOINT((-13.,389.899999999998,-2.69447355216084E-12));
#274= IFCCARTESIANPOINT((-11.2583302491961,389.899999999998,-6.50000000000272));
#275= IFCCARTESIANPOINT((-6.4999999999969,389.899999999998,-11.2583302491995));
#276= IFCCARTESIANPOINT((4.02727742892113E-12,389.899999999998,-13.));
#277= IFCCARTESIANPOINT((6.50000000000388,389.899999999998,-11.2583302491955));
#278= IFCCARTESIANPOINT((11.2583302492002,389.899999999998,-6.49999999999573));
#279= IFCCARTESIANPOINT((13.,401.999999999998,0.));
#280= IFCCARTESIANPOINT((11.2583302491975,401.999999999998,6.50000000000039));
#281= IFCCARTESIANPOINT((6.49999999999922,401.999999999998,11.2583302491982));
#282= IFCCARTESIANPOINT((-1.34723677608042E-12,401.999999999998,13.));
#283= IFCCARTESIANPOINT((-6.50000000000155,401.999999999998,11.2583302491968));
#284= IFCCARTESIANPOINT((-11.2583302491988,401.999999999998,6.49999999999806));
#285= IFCCARTESIANPOINT((-13.,401.999999999998,-2.69447355216084E-12));
#286= IFCCARTESIANPOINT((-11.2583302491961,401.999999999998,-6.50000000000272));
#287= IFCCARTESIANPOINT((-6.4999999999969,401.999999999998,-11.2583302491995));
#288= IFCCARTESIANPOINT((4.02727742892113E-12,401.999999999998,-13.));
#289= IFCCARTESIANPOINT((6.50000000000388,401.999999999998,-11.2583302491955));
#290= IFCCARTESIANPOINT((11.2583302492002,401.999999999998,-6.49999999999573));
#291= IFCPOLYLOOP((#267,#268,#269,#270,#271,#272,#273,#274,#275,#276,#277,#278));
#292= IFCFACEOUTERBOUND(#291,.T.);
#293= IFCFACE((#292));
#294= IFCPOLYLOOP((#290,#289,#288,#287,#286,#285,#284,#283,#282,#281,#280,#279));
#295= IFCFACEOUTERBOUND(#294,.T.);
#296= IFCFACE((#295));
#297= IFCPOLYLOOP((#267,#279,#280,#268));
#298= IFCFACEOUTERBOUND(#297,.T.);
#299= IFCFACE((#298));
#300= IFCPOLYLOOP((#268,#280,#281,#269));
#301= IFCFACEOUTERBOUND(#300,.T.);
#302= IFCFACE((#301));
#303= IFCPOLYLOOP((#269,#281,#282,#270));
#304= IFCFACEOUTERBOUND(#303,.T.);
#305= IFCFACE((#304));
#306= IFCPOLYLOOP((#270,#282,#283,#271));
#307= IFCFACEOUTERBOUND(#306,.T.);
#308= IFCFACE((#307));
#309= IFCPOLYLOOP((#271,#283,#284,#272));
#310= IFCFACEOUTERBOUND(#309,.T.);
#311= IFCFACE((#310));
#312= IFCPOLYLOOP((#272,#284,#285,#273));
#313= IFCFACEOUTERBOUND(#312,.T.);
#314= IFCFACE((#313));
#315= IFCPOLYLOOP((#273,#285,#286,#274));
#316= IFCFACEOUTERBOUND(#315,.T.);
#317= IFCFACE((#316));
#318= IFCPOLYLOOP((#274,#286,#287,#275));
#319= IFCFACEOUTERBOUND(#318,.T.);
#320= IFCFACE((#319));
#321= IFCPOLYLOOP((#275,#287,#288,#276));
#322= IFCFACEOUTERBOUND(#321,.T.);
#323= IFCFACE((#322));
#324= IFCPOLYLOOP((#276,#288,#289,#277));
#325= IFCFACEOUTERBOUND(#324,.T.);
#326= IFCFACE((#325));
#327= IFCPOLYLOOP((#277,#289,#290,#278));
#328= IFCFACEOUTERBOUND(#327,.T.);
#329= IFCFACE((#328));
#330= IFCPOLYLOOP((#278,#290,#279,#267));
#331= IFCFACEOUTERBOUND(#330,.T.);
#332= IFCFACE((#331));
#333= IFCCLOSEDSHELL((#75,#78,#81,#84,#87,#90,#93,#96,#99,#102,#105,#108,#111,#114,#145,#148,#151,#154,#157,#160,#163,#166,#169,#172,#175,#178,#181,#184,#187,#190,#221,#224,#227,#230,#233,#236,#239,#242,#245,#248,#251,#254,#257,#260,#263,#266,#293,#296,#299,#302,#305,#308,#311,#314,#317,#320,#323,#326,#329,#332));
#334= IFCCOLOURRGB($,0.,0.,0.);
#335= IFCSURFACESTYLERENDERING(#334,0.,$,$,$,$,IFCNORMALISEDRATIOMEASURE(0.00390625),IFCSPECULAREXPONENT(10.),.NOTDEFINED.);
#336= IFCSURFACESTYLE($,.POSITIVE.,(#335));
#337= IFCPRESENTATIONSTYLEASSIGNMENT((#336));
#338= IFCFACETEDBREP(#333);
#339= IFCSTYLEDITEM(#338,(#337),$);
#340= IFCCARTESIANTRANSFORMATIONOPERATOR3D($,$,#6,$,$);
#341= IFCSHAPEREPRESENTATION(#12,'Body','Brep',(#338));
#342= IFCREPRESENTATIONMAP(#10,#341);
#343= IFCMAPPEDITEM(#342,#340);
#344= IFCSHAPEREPRESENTATION(#12,'Body','MappedRepresentation',(#343));
#345= IFCPRODUCTDEFINITIONSHAPE($,$,(#344));
#346= IFCCARTESIANPOINT((1895.24810530618,25784.0041256889,10034.0001907349));
#347= IFCDIRECTION((-0.999999999381395,3.5174000015104E-05,0.));
#348= IFCDIRECTION((-3.51740000136694E-05,-0.999999999381395,0.));
#349= IFCAXIS2PLACEMENT3D(#346,#347,#348);
#350= IFCLOCALPLACEMENT(#42,#349);
#351= IFCMECHANICALFASTENER('1_qfEWq$f1zB_c9LYoYNDs',#44,'Bolt assembly',$,$,#350,#345,'ID7ed293a0-d3fa-41f4-bfa6-2558b2897376',24.,416.);
#352= IFCMECHANICALFASTENERTYPE('0hkbrXYxvEJeRiDLzHiKIW',#5,'Bolt assembly',$,$,$,$,$,$);
#353= IFCPROPERTYSINGLEVALUE('Washer count',$,IFCINTEGER(0),$);
#354= IFCPROPERTYSINGLEVALUE('Washer diameter',$,IFCLENGTHMEASURE(24.),$);
#355= IFCPROPERTYSINGLEVALUE('Washer type',$,IFCLABEL(''),$);
#356= IFCPROPERTYSINGLEVALUE('Washer name',$,IFCLABEL(''),$);
#357= IFCPROPERTYSINGLEVALUE('Nut count',$,IFCINTEGER(0),$);
#358= IFCPROPERTYSINGLEVALUE('Nut type',$,IFCLABEL(''),$);
#359= IFCPROPERTYSINGLEVALUE('Nut name',$,IFCLABEL(''),$);
#360= IFCPROPERTYSINGLEVALUE('Slotted hole y',$,IFCLENGTHMEASURE(0.),$);
#361= IFCPROPERTYSINGLEVALUE('Slotted hole x',$,IFCLENGTHMEASURE(44.),$);
#362= IFCPROPERTYSINGLEVALUE('Bolt hole diameter',$,IFCLENGTHMEASURE(26.),$);
#363= IFCPROPERTYSINGLEVALUE('Location',$,IFCLABEL('Site'),$);
#364= IFCPROPERTYSINGLEVALUE('Bolt count',$,IFCINTEGER(1),$);
#365= IFCPROPERTYSINGLEVALUE('Bolt size',$,IFCLENGTHMEASURE(26.),$);
#366= IFCPROPERTYSINGLEVALUE('Bolt length',$,IFCLENGTHMEASURE(416.),$);
#367= IFCPROPERTYSINGLEVALUE('Bolt standard',$,IFCLABEL('TS10.9'),$);
#368= IFCPROPERTYSINGLEVALUE('Bolt Name',$,IFCLABEL(''),$);
#369= IFCPROPERTYSET('3xOxd5eP1EZh1hpCQXp$3G',#5,'Tekla Bolt','Bolt Properties',(#353,#354,#355,#356,#357,#358,#359,#360,#361,#362,#363,#364,#365,#366,#367,#368));
#370= IFCMATERIAL('TS10.9');
#371= IFCCOLOURRGB('Light Red',0.905882352941176,0.325490196078431,0.36078431372549);
#372= IFCSURFACESTYLERENDERING(#371,0.,$,$,$,$,IFCNORMALISEDRATIOMEASURE(0.00390625),IFCSPECULAREXPONENT(10.),.NOTDEFINED.);
#373= IFCSURFACESTYLE('STEEL/S275',.POSITIVE.,(#372));
#374= IFCPRESENTATIONSTYLEASSIGNMENT((#373));
#375= IFCCARTESIANPOINT((-3.63797880709171E-12,-6.,-2.27373675443232E-13));
#376= IFCCARTESIANPOINT((-0.00138720011818805,-6.,79.9999999999939));
#377= IFCCARTESIANPOINT((-0.00138720011818805,6.,79.9999999999939));
#378= IFCCARTESIANPOINT((-3.63797880709171E-12,6.,-2.27373675443232E-13));
#379= IFCPOLYLOOP((#375,#376,#377,#378));
#380= IFCFACEOUTERBOUND(#379,.T.);
#381= IFCFACE((#380));
#382= IFCCARTESIANPOINT((80.0019073484982,-6.,79.999999999993));
#383= IFCCARTESIANPOINT((80.0019073484982,6.,79.999999999993));
#384= IFCPOLYLOOP((#376,#382,#383,#377));
#385= IFCFACEOUTERBOUND(#384,.T.);
#386= IFCFACE((#385));
#387= IFCCARTESIANPOINT((80.0019073486401,-6.,-2.72848410531878E-12));
#388= IFCCARTESIANPOINT((80.0019073486401,6.,-2.72848410531878E-12));
#389= IFCPOLYLOOP((#382,#387,#388,#383));
#390= IFCFACEOUTERBOUND(#389,.T.);
#391= IFCFACE((#390));
#392= IFCPOLYLOOP((#387,#375,#378,#388));
#393= IFCFACEOUTERBOUND(#392,.T.);
#394= IFCFACE((#393));
#395= IFCPOLYLOOP((#383,#388,#378,#377));
#396= IFCFACEOUTERBOUND(#395,.T.);
#397= IFCFACE((#396));
#398= IFCPOLYLOOP((#387,#382,#376,#375));
#399= IFCFACEOUTERBOUND(#398,.T.);
#400= IFCFACE((#399));
#401= IFCCLOSEDSHELL((#381,#386,#391,#394,#397,#400));
#402= IFCFACETEDBREP(#401);
#403= IFCSTYLEDITEM(#402,(#374),$);
#404= IFCSHAPEREPRESENTATION(#12,'Body','Brep',(#402));
#405= IFCPRODUCTDEFINITIONSHAPE($,$,(#404));
#406= IFCCARTESIANPOINT((1935.2495123086,25824.004626105,10026.0001907349));
#407= IFCAXIS2PLACEMENT3D(#406,#347,#348);
#408= IFCLOCALPLACEMENT(#42,#407);
#409= IFCPLATE('3j_TJJlW16ke1icRlWkZTL',#44,'PLATE-12','PL12*80',$,#408,#405,'IDedf9d4d3-be00-46ba-806c-99bbe0ba3755');
#410= IFCPLATETYPE('323Qgjc5T3AA6Ipn5WuZ4Z',#5,'PL12*80',$,$,$,$,$,$,.NOTDEFINED.);
#411= IFCPROPERTYSINGLEVALUE('Bottom elevation',$,IFCLABEL(' +10.020'),$);
#412= IFCPROPERTYSINGLEVALUE('Top elevation',$,IFCLABEL(' +10.032'),$);
#413= IFCPROPERTYSINGLEVALUE('Initial GUID',$,$,$);
#414= IFCPROPERTYSINGLEVALUE('Preliminary mark',$,IFCLABEL('5-1-P17'),$);
#415= IFCPROPERTYSINGLEVALUE('Phase',$,IFCINTEGER(4),$);
#416= IFCPROPERTYSINGLEVALUE('Class',$,IFCLABEL('16'),$);
#417= IFCPROPERTYSET('1Wb71CoND0LwqtLQJFCHaK',#5,'Tekla Common','Common Properties to Shared building elements',(#411,#412,#413,#414,#415,#416));
#418= IFCPROPERTYSINGLEVALUE('Weight',$,IFCMASSMEASURE(0.6),$);
#419= IFCPROPERTYSINGLEVALUE('Volume',$,IFCVOLUMEMEASURE(0.),$);
#420= IFCPROPERTYSINGLEVALUE('Gross footprint area',$,IFCAREAMEASURE(0.006),$);
#421= IFCPROPERTYSINGLEVALUE('Area per tons',$,IFCAREAMEASURE(27.601),$);
#422= IFCPROPERTYSINGLEVALUE('Net surface area',$,IFCAREAMEASURE(0.017),$);
#423= IFCPROPERTYSINGLEVALUE('Height',$,IFCLENGTHMEASURE(80.),$);
#424= IFCPROPERTYSINGLEVALUE('Width',$,IFCLENGTHMEASURE(12.),$);
#425= IFCPROPERTYSINGLEVALUE('Length',$,IFCLENGTHMEASURE(80.),$);
#426= IFCPROPERTYSET('2c1V$ZgE97QfkjexkGgMXm',#5,'Tekla Quantity','Quantity Properties to Shared building elements',(#418,#419,#420,#421,#422,#423,#424,#425));
#427= IFCPROPERTYSINGLEVALUE('LoadBearing',$,IFCBOOLEAN(.F.),$);
#428= IFCPROPERTYSINGLEVALUE('Reference',$,IFCIDENTIFIER('5-1-P17'),$);
#429= IFCPROPERTYSET('3D4iFIIm53WArGbkM8kWyT',#5,'Pset_PlateCommon','Common Properties to plate elements',(#427,#428));
#430= IFCQUANTITYLENGTH('Width',$,$,80.0000000000018);
#431= IFCQUANTITYAREA('NetArea',$,$,0.0166404785746901);
#432= IFCQUANTITYAREA('GrossArea',$,$,0.00640026356388829);
#433= IFCQUANTITYAREA('CrossSectionArea',$,$,0.000144);
#434= IFCQUANTITYVOLUME('NetVolume',$,$,7.68024969106735E-05);
#435= IFCQUANTITYVOLUME('GrossVolume',$,$,7.68024969106735E-05);
#436= IFCELEMENTQUANTITY('0i6ZAIBhz01vLktKMNXghr',#5,'BaseQuantities',$,$,(#430,#431,#432,#433,#434,#435));
#437= IFCMATERIAL('STEEL/S275');
#438= IFCRELAGGREGATES('1VLcoj6An8fhexqQl6anwv',#5,$,$,#37,(#39));
#439= IFCRELAGGREGATES('1BRbi59t9Ds8oX$d0txZmt',#5,$,$,#39,(#41));
#440= IFCRELAGGREGATES('02dvUQfRT3bwj6VArC2oWo',#5,$,$,#41,(#43));
#441= IFCRELCONTAINEDINSPATIALSTRUCTURE('2QutEijY959BNKNaG4Jyyt',#5,$,$,(#409,#351),#43);
#442= IFCRELDEFINESBYPROPERTIES('2POWOfgpXDBB3xfJHCa1As',#5,$,$,(#351),#369);
#443= IFCRELDEFINESBYPROPERTIES('2SDDw_GU531xh_ESmyWDvp',#5,$,$,(#409),#417);
#444= IFCRELDEFINESBYPROPERTIES('1Ki2CxssvACBeF9ivYHpOA',#5,$,$,(#409),#426);
#445= IFCRELDEFINESBYPROPERTIES('3FTN26$MDCPOQENMPo5XiJ',#5,$,$,(#409),#429);
#446= IFCRELDEFINESBYPROPERTIES('1uKh76bfLCOBDC5bUdmpdD',#5,$,$,(#409),#436);
#447= IFCRELDEFINESBYTYPE('34nR2iNF5CbO1iMKgm8VYC',#5,$,$,(#351),#352);
#448= IFCRELDEFINESBYTYPE('2_YJzBYYv5uAL9JIUEzFYH',#5,$,$,(#409),#410);
#449= IFCRELASSOCIATESMATERIAL('3ICtdoL_j81v9b$KFkk$Wf',#5,$,$,(#351),#370);
#450= IFCRELASSOCIATESMATERIAL('1WTKU1lk9CkBfWw9AWv6W2',#5,$,$,(#409),#437);
#451= IFCPRESENTATIONLAYERASSIGNMENT('BoltArray',$,(#344),$);
#452= IFCPRESENTATIONLAYERASSIGNMENT('PLATE-12',$,(#404),$);
ENDSEC;

END-ISO-10303-21;
