ISO-10303-21;
HEADER;
FILE_DESCRIPTION(('ViewDefinition[CoordinationView_V2.0, QuantityTakeOffAddOnView]', 'ExchangeRequirement[Structural, SurfaceGeometry]', 'Option [BaseQuantities:On]', 'Option [GridExport:On]', 'Option [Assemblies:Off]', 'Option [Bolts:On]', 'Option [Rebars:On]', 'Option [PourObjects:Off]', 'Option [Welds:Off]', 'Option [SurfaceTreatments:On]', 'Option [LocationBy:0]', 'Option [ViewColors:Off]', 'Option [SectionedSpine:Off]', 'Option [PropertySets:On]', 'Option [Export all:Off]'),'2;1');
FILE_NAME('5-1-A10.ifc','2026-03-10T09:15:04',('DESKTOP-NLV509P\\Ahmed'),('Structural Designer'),'IFC Parser version: 3.13.2','Tekla Structures 2023 Service Pack 8, IFC Export Version: 4.0.0.0 Jan 19 2024','');
FILE_SCHEMA(('IFC2X3'));
ENDSEC;

DATA;
#1= IFCPERSON('DESKTOP-NLV509P\\Ahmed','Undefined',$,$,$,$,$,$);
#2= IFCORGANIZATION($,'Trimble Solutions Corporation',$,$,$);
#3= IFCPERSONANDORGANIZATION(#1,#2,$);
#4= IFCAPPLICATION(#2,'2023 Service Pack 8','Tekla Structures','Multi material modeling');
#5= IFCOWNERHISTORY(#3,#4,$,.NOCHANGE.,$,$,$,1773123304);
#6= IFCCARTESIANPOINT((0.,0.,0.));
#7= IFCDIRECTION((1.,0.,0.));
#8= IFCDIRECTION((0.,1.,0.));
#9= IFCDIRECTION((0.,0.,1.));
#10= IFCAXIS2PLACEMENT3D(#6,#9,#7);
#11= IFCGEOMETRICREPRESENTATIONCONTEXT($,'Model',3,1.E-05,#10,$);
#12= IFCGEOMETRICREPRESENTATIONSUBCONTEXT('Body','Model',*,*,*,*,#11,$,.MODEL_VIEW.,$);
#13= IFCGEOMETRICREPRESENTATIONSUBCONTEXT('Axis','Model',*,*,*,*,#11,$,.GRAPH_VIEW.,$);
#14= IFCGEOMETRICREPRESENTATIONSUBCONTEXT('FootPrint','Model',*,*,*,*,#11,$,.MODEL_VIEW.,$);
#15= IFCSIUNIT(*,.LENGTHUNIT.,.MILLI.,.METRE.);
#16= IFCMEASUREWITHUNIT(IFCRATIOMEASURE(304.8),#15);
#17= IFCDIMENSIONALEXPONENTS(1,0,0,0,0,0,0);
#18= IFCCONVERSIONBASEDUNIT(#17,.LENGTHUNIT.,'FOOT',#16);
#19= IFCSIUNIT(*,.AREAUNIT.,$,.SQUARE_METRE.);
#20= IFCMEASUREWITHUNIT(IFCRATIOMEASURE(0.09290304),#19);
#21= IFCDIMENSIONALEXPONENTS(2,0,0,0,0,0,0);
#22= IFCCONVERSIONBASEDUNIT(#21,.AREAUNIT.,'SQUARE FOOT',#20);
#23= IFCSIUNIT(*,.VOLUMEUNIT.,$,.CUBIC_METRE.);
#24= IFCMEASUREWITHUNIT(IFCRATIOMEASURE(0.028316846592),#23);
#25= IFCDIMENSIONALEXPONENTS(3,0,0,0,0,0,0);
#26= IFCCONVERSIONBASEDUNIT(#25,.VOLUMEUNIT.,'CUBIC FOOT',#24);
#27= IFCSIUNIT(*,.MASSUNIT.,.KILO.,.GRAM.);
#28= IFCSIUNIT(*,.TIMEUNIT.,$,.SECOND.);
#29= IFCSIUNIT(*,.PLANEANGLEUNIT.,$,.RADIAN.);
#30= IFCMEASUREWITHUNIT(IFCRATIOMEASURE(0.0174532925199433),#29);
#31= IFCDIMENSIONALEXPONENTS(0,0,0,0,0,0,0);
#32= IFCCONVERSIONBASEDUNIT(#31,.PLANEANGLEUNIT.,'DEGREE',#30);
#33= IFCSIUNIT(*,.SOLIDANGLEUNIT.,$,.STERADIAN.);
#34= IFCSIUNIT(*,.THERMODYNAMICTEMPERATUREUNIT.,$,.DEGREE_CELSIUS.);
#35= IFCSIUNIT(*,.LUMINOUSINTENSITYUNIT.,$,.LUMEN.);
#36= IFCUNITASSIGNMENT((#15,#19,#23,#27,#28,#29,#33,#34,#35));
#37= IFCPROJECT('3nyX22jxjARxlthJ1V6NWh',#5,'Undefined',$,$,$,$,(#11),#36);
#38= IFCLOCALPLACEMENT($,#10);
#39= IFCSITE('3lf21nXujBJB8JYOzOIgrd',#5,'Undefined',$,$,#38,$,$,.ELEMENT.,$,$,$,$,$);
#40= IFCLOCALPLACEMENT(#38,#10);
#41= IFCBUILDING('2qOUDHegD2G9bqyk$R9$Mc',#5,'Undefined',$,$,#40,$,$,.ELEMENT.,$,$,$);
#42= IFCLOCALPLACEMENT(#40,#10);
#43= IFCBUILDINGSTOREY('3gJPpYF7LCbf7I109fNVl5',#5,'Undefined',$,$,#42,$,$,.ELEMENT.,0.);
#44= IFCOWNERHISTORY(#3,#4,$,.NOCHANGE.,$,$,$,1770796800);
#45= IFCCOLOURRGB($,0.698039215686274,0.4,0.);
#46= IFCSURFACESTYLERENDERING(#45,0.,$,$,$,$,IFCNORMALISEDRATIOMEASURE(0.00390625),IFCSPECULAREXPONENT(10.),.NOTDEFINED.);
#47= IFCSURFACESTYLE('Undefined',.POSITIVE.,(#46));
#48= IFCPRESENTATIONSTYLEASSIGNMENT((#47));
#49= IFCCARTESIANPOINT((14.,23.4872891464183,0.));
#50= IFCCARTESIANPOINT((12.1243556529819,23.4872891464183,7.00000000000042));
#51= IFCCARTESIANPOINT((6.99999999999916,23.4872891464183,12.1243556529826));
#52= IFCCARTESIANPOINT((-1.45087037424045E-12,23.4872891464183,14.));
#53= IFCCARTESIANPOINT((-7.00000000000167,23.4872891464183,12.1243556529812));
#54= IFCCARTESIANPOINT((-12.1243556529833,23.4872891464183,6.99999999999791));
#55= IFCCARTESIANPOINT((-14.,23.4872891464183,-2.9017407484809E-12));
#56= IFCCARTESIANPOINT((-12.1243556529805,23.4872891464183,-7.00000000000293));
#57= IFCCARTESIANPOINT((-6.99999999999666,23.4872891464183,-12.1243556529841));
#58= IFCCARTESIANPOINT((4.3370680003766E-12,23.4872891464183,-14.));
#59= IFCCARTESIANPOINT((7.00000000000418,23.4872891464183,-12.1243556529797));
#60= IFCCARTESIANPOINT((12.1243556529848,23.4872891464183,-6.9999999999954));
#61= IFCCARTESIANPOINT((14.,35.5872891464183,0.));
#62= IFCCARTESIANPOINT((12.1243556529819,35.5872891464183,7.00000000000042));
#63= IFCCARTESIANPOINT((6.99999999999916,35.5872891464183,12.1243556529826));
#64= IFCCARTESIANPOINT((-1.45087037424045E-12,35.5872891464183,14.));
#65= IFCCARTESIANPOINT((-7.00000000000167,35.5872891464183,12.1243556529812));
#66= IFCCARTESIANPOINT((-12.1243556529833,35.5872891464183,6.99999999999791));
#67= IFCCARTESIANPOINT((-14.,35.5872891464183,-2.9017407484809E-12));
#68= IFCCARTESIANPOINT((-12.1243556529805,35.5872891464183,-7.00000000000293));
#69= IFCCARTESIANPOINT((-6.99999999999666,35.5872891464183,-12.1243556529841));
#70= IFCCARTESIANPOINT((4.3370680003766E-12,35.5872891464183,-14.));
#71= IFCCARTESIANPOINT((7.00000000000418,35.5872891464183,-12.1243556529797));
#72= IFCCARTESIANPOINT((12.1243556529848,35.5872891464183,-6.9999999999954));
#73= IFCPOLYLOOP((#49,#50,#51,#52,#53,#54,#55,#56,#57,#58,#59,#60));
#74= IFCFACEOUTERBOUND(#73,.T.);
#75= IFCFACE((#74));
#76= IFCPOLYLOOP((#72,#71,#70,#69,#68,#67,#66,#65,#64,#63,#62,#61));
#77= IFCFACEOUTERBOUND(#76,.T.);
#78= IFCFACE((#77));
#79= IFCPOLYLOOP((#49,#61,#62,#50));
#80= IFCFACEOUTERBOUND(#79,.T.);
#81= IFCFACE((#80));
#82= IFCPOLYLOOP((#50,#62,#63,#51));
#83= IFCFACEOUTERBOUND(#82,.T.);
#84= IFCFACE((#83));
#85= IFCPOLYLOOP((#51,#63,#64,#52));
#86= IFCFACEOUTERBOUND(#85,.T.);
#87= IFCFACE((#86));
#88= IFCPOLYLOOP((#52,#64,#65,#53));
#89= IFCFACEOUTERBOUND(#88,.T.);
#90= IFCFACE((#89));
#91= IFCPOLYLOOP((#53,#65,#66,#54));
#92= IFCFACEOUTERBOUND(#91,.T.);
#93= IFCFACE((#92));
#94= IFCPOLYLOOP((#54,#66,#67,#55));
#95= IFCFACEOUTERBOUND(#94,.T.);
#96= IFCFACE((#95));
#97= IFCPOLYLOOP((#55,#67,#68,#56));
#98= IFCFACEOUTERBOUND(#97,.T.);
#99= IFCFACE((#98));
#100= IFCPOLYLOOP((#56,#68,#69,#57));
#101= IFCFACEOUTERBOUND(#100,.T.);
#102= IFCFACE((#101));
#103= IFCPOLYLOOP((#57,#69,#70,#58));
#104= IFCFACEOUTERBOUND(#103,.T.);
#105= IFCFACE((#104));
#106= IFCPOLYLOOP((#58,#70,#71,#59));
#107= IFCFACEOUTERBOUND(#106,.T.);
#108= IFCFACE((#107));
#109= IFCPOLYLOOP((#59,#71,#72,#60));
#110= IFCFACEOUTERBOUND(#109,.T.);
#111= IFCFACE((#110));
#112= IFCPOLYLOOP((#60,#72,#61,#49));
#113= IFCFACEOUTERBOUND(#112,.T.);
#114= IFCFACE((#113));
#115= IFCCLOSEDSHELL((#75,#78,#81,#84,#87,#90,#93,#96,#99,#102,#105,#108,#111,#114));
#116= IFCCOLOURRGB($,0.,0.,0.);
#117= IFCSURFACESTYLERENDERING(#116,0.,$,$,$,$,IFCNORMALISEDRATIOMEASURE(0.00390625),IFCSPECULAREXPONENT(10.),.NOTDEFINED.);
#118= IFCSURFACESTYLE($,.POSITIVE.,(#117));
#119= IFCPRESENTATIONSTYLEASSIGNMENT((#118));
#120= IFCFACETEDBREP(#115);
#121= IFCSTYLEDITEM(#120,(#119),$);
#122= IFCCARTESIANTRANSFORMATIONOPERATOR3D($,$,#6,$,$);
#123= IFCSHAPEREPRESENTATION(#12,'Body','Brep',(#120));
#124= IFCREPRESENTATIONMAP(#10,#123);
#125= IFCMAPPEDITEM(#124,#122);
#126= IFCSHAPEREPRESENTATION(#12,'Body','MappedRepresentation',(#125));
#127= IFCPRODUCTDEFINITIONSHAPE($,$,(#126));
#128= IFCCARTESIANPOINT((56591.5123723809,-4823.50045329912,11359.999701335));
#129= IFCDIRECTION((0.,0.,-1.));
#130= IFCAXIS2PLACEMENT3D(#128,#129,#8);
#131= IFCLOCALPLACEMENT(#42,#130);
#132= IFCMECHANICALFASTENER('33FckMUxr0UOS3dKdLBaRc',#44,'Bolt assembly',$,$,#131,#127,'IDc33e6b96-7bbd-4079-8703-9d49d52e46e6',26.,12.);
#133= IFCMECHANICALFASTENERTYPE('23ybplsL95dAEhafeggaM6',#5,'Bolt assembly',$,$,$,$,$,$);
#134= IFCPROPERTYSINGLEVALUE('Washer count',$,IFCINTEGER(0),$);
#135= IFCPROPERTYSINGLEVALUE('Washer diameter',$,IFCLENGTHMEASURE(26.),$);
#136= IFCPROPERTYSINGLEVALUE('Washer type',$,IFCLABEL('PLAIN'),$);
#137= IFCPROPERTYSINGLEVALUE('Washer name',$,IFCLABEL(''),$);
#138= IFCPROPERTYSINGLEVALUE('Nut count',$,IFCINTEGER(0),$);
#139= IFCPROPERTYSINGLEVALUE('Nut type',$,IFCLABEL('HEAVY_HEX'),$);
#140= IFCPROPERTYSINGLEVALUE('Nut name',$,IFCLABEL(''),$);
#141= IFCPROPERTYSINGLEVALUE('Slotted hole y',$,IFCLENGTHMEASURE(0.),$);
#142= IFCPROPERTYSINGLEVALUE('Slotted hole x',$,IFCLENGTHMEASURE(0.),$);
#143= IFCPROPERTYSINGLEVALUE('Bolt hole diameter',$,IFCLENGTHMEASURE(28.),$);
#144= IFCPROPERTYSINGLEVALUE('Location',$,IFCLABEL('Site'),$);
#145= IFCPROPERTYSINGLEVALUE('Bolt count',$,IFCINTEGER(1),$);
#146= IFCPROPERTYSINGLEVALUE('Bolt size',$,IFCLENGTHMEASURE(28.),$);
#147= IFCPROPERTYSINGLEVALUE('Bolt length',$,IFCLENGTHMEASURE(12.),$);
#148= IFCPROPERTYSINGLEVALUE('Bolt standard',$,IFCLABEL(''),$);
#149= IFCPROPERTYSINGLEVALUE('Bolt Name',$,IFCLABEL(''),$);
#150= IFCPROPERTYSET('3N1m$KR3zDNAF8$A0X2jNu',#5,'Tekla Bolt','Bolt Properties',(#134,#135,#136,#137,#138,#139,#140,#141,#142,#143,#144,#145,#146,#147,#148,#149));
#151= IFCMATERIAL('Undefined');
#152= IFCMAPPEDITEM(#124,#122);
#153= IFCSHAPEREPRESENTATION(#12,'Body','MappedRepresentation',(#152));
#154= IFCPRODUCTDEFINITIONSHAPE($,$,(#153));
#155= IFCLOCALPLACEMENT(#42,#130);
#156= IFCMECHANICALFASTENER('1HZtso8C1AjPDYR2SUN8gZ',#44,'Bolt assembly',$,$,#155,#154,'ID518f7db2-20c0-4ab5-9362-6c271e5c8aa3',26.,12.);
#157= IFCCARTESIANPOINT((14.,61.4872031523118,0.));
#158= IFCCARTESIANPOINT((12.1243556529819,61.4872031523118,7.00000000000042));
#159= IFCCARTESIANPOINT((6.99999999999916,61.4872031523118,12.1243556529826));
#160= IFCCARTESIANPOINT((-1.45087037424045E-12,61.4872031523118,14.));
#161= IFCCARTESIANPOINT((-7.00000000000167,61.4872031523118,12.1243556529812));
#162= IFCCARTESIANPOINT((-12.1243556529833,61.4872031523118,6.99999999999791));
#163= IFCCARTESIANPOINT((-14.,61.4872031523118,-2.9017407484809E-12));
#164= IFCCARTESIANPOINT((-12.1243556529805,61.4872031523118,-7.00000000000293));
#165= IFCCARTESIANPOINT((-6.99999999999666,61.4872031523118,-12.1243556529841));
#166= IFCCARTESIANPOINT((4.3370680003766E-12,61.4872031523118,-14.));
#167= IFCCARTESIANPOINT((7.00000000000418,61.4872031523118,-12.1243556529797));
#168= IFCCARTESIANPOINT((12.1243556529848,61.4872031523118,-6.9999999999954));
#169= IFCCARTESIANPOINT((14.,73.5872031523118,0.));
#170= IFCCARTESIANPOINT((12.1243556529819,73.5872031523118,7.00000000000042));
#171= IFCCARTESIANPOINT((6.99999999999916,73.5872031523118,12.1243556529826));
#172= IFCCARTESIANPOINT((-1.45087037424045E-12,73.5872031523118,14.));
#173= IFCCARTESIANPOINT((-7.00000000000167,73.5872031523118,12.1243556529812));
#174= IFCCARTESIANPOINT((-12.1243556529833,73.5872031523118,6.99999999999791));
#175= IFCCARTESIANPOINT((-14.,73.5872031523118,-2.9017407484809E-12));
#176= IFCCARTESIANPOINT((-12.1243556529805,73.5872031523118,-7.00000000000293));
#177= IFCCARTESIANPOINT((-6.99999999999666,73.5872031523118,-12.1243556529841));
#178= IFCCARTESIANPOINT((4.3370680003766E-12,73.5872031523118,-14.));
#179= IFCCARTESIANPOINT((7.00000000000418,73.5872031523118,-12.1243556529797));
#180= IFCCARTESIANPOINT((12.1243556529848,73.5872031523118,-6.9999999999954));
#181= IFCPOLYLOOP((#157,#158,#159,#160,#161,#162,#163,#164,#165,#166,#167,#168));
#182= IFCFACEOUTERBOUND(#181,.T.);
#183= IFCFACE((#182));
#184= IFCPOLYLOOP((#180,#179,#178,#177,#176,#175,#174,#173,#172,#171,#170,#169));
#185= IFCFACEOUTERBOUND(#184,.T.);
#186= IFCFACE((#185));
#187= IFCPOLYLOOP((#157,#169,#170,#158));
#188= IFCFACEOUTERBOUND(#187,.T.);
#189= IFCFACE((#188));
#190= IFCPOLYLOOP((#158,#170,#171,#159));
#191= IFCFACEOUTERBOUND(#190,.T.);
#192= IFCFACE((#191));
#193= IFCPOLYLOOP((#159,#171,#172,#160));
#194= IFCFACEOUTERBOUND(#193,.T.);
#195= IFCFACE((#194));
#196= IFCPOLYLOOP((#160,#172,#173,#161));
#197= IFCFACEOUTERBOUND(#196,.T.);
#198= IFCFACE((#197));
#199= IFCPOLYLOOP((#161,#173,#174,#162));
#200= IFCFACEOUTERBOUND(#199,.T.);
#201= IFCFACE((#200));
#202= IFCPOLYLOOP((#162,#174,#175,#163));
#203= IFCFACEOUTERBOUND(#202,.T.);
#204= IFCFACE((#203));
#205= IFCPOLYLOOP((#163,#175,#176,#164));
#206= IFCFACEOUTERBOUND(#205,.T.);
#207= IFCFACE((#206));
#208= IFCPOLYLOOP((#164,#176,#177,#165));
#209= IFCFACEOUTERBOUND(#208,.T.);
#210= IFCFACE((#209));
#211= IFCPOLYLOOP((#165,#177,#178,#166));
#212= IFCFACEOUTERBOUND(#211,.T.);
#213= IFCFACE((#212));
#214= IFCPOLYLOOP((#166,#178,#179,#167));
#215= IFCFACEOUTERBOUND(#214,.T.);
#216= IFCFACE((#215));
#217= IFCPOLYLOOP((#167,#179,#180,#168));
#218= IFCFACEOUTERBOUND(#217,.T.);
#219= IFCFACE((#218));
#220= IFCPOLYLOOP((#168,#180,#169,#157));
#221= IFCFACEOUTERBOUND(#220,.T.);
#222= IFCFACE((#221));
#223= IFCCLOSEDSHELL((#183,#186,#189,#192,#195,#198,#201,#204,#207,#210,#213,#216,#219,#222));
#224= IFCFACETEDBREP(#223);
#225= IFCSTYLEDITEM(#224,(#119),$);
#226= IFCSHAPEREPRESENTATION(#12,'Body','Brep',(#224));
#227= IFCREPRESENTATIONMAP(#10,#226);
#228= IFCMAPPEDITEM(#227,#122);
#229= IFCSHAPEREPRESENTATION(#12,'Body','MappedRepresentation',(#228));
#230= IFCPRODUCTDEFINITIONSHAPE($,$,(#229));
#231= IFCLOCALPLACEMENT(#42,#130);
#232= IFCMECHANICALFASTENER('0fuX48RaL6B9b$Q0xdfPR7',#44,'Bolt assembly',$,$,#231,#230,'ID29e21108-6e45-462c-997f-680ee7a596c7',26.,12.);
#233= IFCCOLOURRGB('Light Magenta',0.686274509803922,0.505882352941176,0.752941176470588);
#234= IFCSURFACESTYLERENDERING(#233,0.,$,$,$,$,IFCNORMALISEDRATIOMEASURE(0.00390625),IFCSPECULAREXPONENT(10.),.NOTDEFINED.);
#235= IFCSURFACESTYLE('STEEL/S275',.POSITIVE.,(#234));
#236= IFCPRESENTATIONSTYLEASSIGNMENT((#235));
#237= IFCCARTESIANPOINT((0.,-4.,0.));
#238= IFCCARTESIANPOINT((-80.,-4.,40.));
#239= IFCCARTESIANPOINT((-80.,4.,40.));
#240= IFCCARTESIANPOINT((0.,4.,0.));
#241= IFCPOLYLOOP((#237,#238,#239,#240));
#242= IFCFACEOUTERBOUND(#241,.T.);
#243= IFCFACE((#242));
#244= IFCCARTESIANPOINT((-80.,-4.,80.));
#245= IFCCARTESIANPOINT((-80.,4.,80.));
#246= IFCPOLYLOOP((#238,#244,#245,#239));
#247= IFCFACEOUTERBOUND(#246,.T.);
#248= IFCFACE((#247));
#249= IFCCARTESIANPOINT((20.,-4.,80.));
#250= IFCCARTESIANPOINT((20.,4.,80.));
#251= IFCPOLYLOOP((#244,#249,#250,#245));
#252= IFCFACEOUTERBOUND(#251,.T.);
#253= IFCFACE((#252));
#254= IFCCARTESIANPOINT((20.3842943919353,-4.,76.0981935596792));
#255= IFCCARTESIANPOINT((20.3842943919353,4.,76.0981935596792));
#256= IFCPOLYLOOP((#249,#254,#255,#250));
#257= IFCFACEOUTERBOUND(#256,.T.);
#258= IFCFACE((#257));
#259= IFCCARTESIANPOINT((21.5224093497745,-4.,72.3463313526954));
#260= IFCCARTESIANPOINT((21.5224093497745,4.,72.3463313526954));
#261= IFCPOLYLOOP((#254,#259,#260,#255));
#262= IFCFACEOUTERBOUND(#261,.T.);
#263= IFCFACE((#262));
#264= IFCCARTESIANPOINT((23.3706077539482,-4.,68.8885953396093));
#265= IFCCARTESIANPOINT((23.3706077539482,4.,68.8885953396093));
#266= IFCPOLYLOOP((#259,#264,#265,#260));
#267= IFCFACEOUTERBOUND(#266,.T.);
#268= IFCFACE((#267));
#269= IFCCARTESIANPOINT((25.8578643762685,-4.,65.8578643762667));
#270= IFCCARTESIANPOINT((25.8578643762685,4.,65.8578643762667));
#271= IFCPOLYLOOP((#264,#269,#270,#265));
#272= IFCFACEOUTERBOUND(#271,.T.);
#273= IFCFACE((#272));
#274= IFCCARTESIANPOINT((28.8885953396075,-4.,63.3706077539464));
#275= IFCCARTESIANPOINT((28.8885953396075,4.,63.3706077539464));
#276= IFCPOLYLOOP((#269,#274,#275,#270));
#277= IFCFACEOUTERBOUND(#276,.T.);
#278= IFCFACE((#277));
#279= IFCCARTESIANPOINT((32.3463313526991,-4.,61.5224093497745));
#280= IFCCARTESIANPOINT((32.3463313526991,4.,61.5224093497745));
#281= IFCPOLYLOOP((#274,#279,#280,#275));
#282= IFCFACEOUTERBOUND(#281,.T.);
#283= IFCFACE((#282));
#284= IFCCARTESIANPOINT((36.0981935596774,-4.,60.3842943919371));
#285= IFCCARTESIANPOINT((36.0981935596774,4.,60.3842943919371));
#286= IFCPOLYLOOP((#279,#284,#285,#280));
#287= IFCFACEOUTERBOUND(#286,.T.);
#288= IFCFACE((#287));
#289= IFCCARTESIANPOINT((40.,-4.,60.));
#290= IFCCARTESIANPOINT((40.,4.,60.));
#291= IFCPOLYLOOP((#284,#289,#290,#285));
#292= IFCFACEOUTERBOUND(#291,.T.);
#293= IFCFACE((#292));
#294= IFCCARTESIANPOINT((40.,-4.,-7.27595761418343E-12));
#295= IFCCARTESIANPOINT((40.,4.,-7.27595761418343E-12));
#296= IFCPOLYLOOP((#289,#294,#295,#290));
#297= IFCFACEOUTERBOUND(#296,.T.);
#298= IFCFACE((#297));
#299= IFCPOLYLOOP((#294,#237,#240,#295));
#300= IFCFACEOUTERBOUND(#299,.T.);
#301= IFCFACE((#300));
#302= IFCPOLYLOOP((#245,#250,#255,#260,#265,#270,#275,#280,#285,#290,#295,#240,#239));
#303= IFCFACEOUTERBOUND(#302,.T.);
#304= IFCFACE((#303));
#305= IFCPOLYLOOP((#294,#289,#284,#279,#274,#269,#264,#259,#254,#249,#244,#238,#237));
#306= IFCFACEOUTERBOUND(#305,.T.);
#307= IFCFACE((#306));
#308= IFCCLOSEDSHELL((#243,#248,#253,#258,#263,#268,#273,#278,#283,#288,#293,#298,#301,#304,#307));
#309= IFCFACETEDBREP(#308);
#310= IFCSTYLEDITEM(#309,(#236),$);
#311= IFCSHAPEREPRESENTATION(#12,'Body','Brep',(#309));
#312= IFCPRODUCTDEFINITIONSHAPE($,$,(#311));
#313= IFCCARTESIANPOINT((56534.9995755332,-4763.49930889189,11439.9997011096));
#314= IFCAXIS2PLACEMENT3D(#313,#7,#9);
#315= IFCLOCALPLACEMENT(#42,#314);
#316= IFCPLATE('0XXbOOVKLElB4Wy$M5a13R',#44,'PLATE-8','PL8*80',$,#315,#312,'ID21865618-7d45-4ebc-b120-f3f5859010db');
#317= IFCPLATETYPE('3LhZ5teKb9pufePp96RYTB',#5,'PL8*80',$,$,$,$,$,$,.NOTDEFINED.);
#318= IFCPROPERTYSINGLEVALUE('Bottom elevation',$,IFCLABEL(' +11.360'),$);
#319= IFCPROPERTYSINGLEVALUE('Top elevation',$,IFCLABEL(' +11.480'),$);
#320= IFCPROPERTYSINGLEVALUE('Initial GUID',$,$,$);
#321= IFCPROPERTYSINGLEVALUE('Preliminary mark',$,IFCLABEL('5-1-P40(?)'),$);
#322= IFCPROPERTYSINGLEVALUE('Phase',$,IFCINTEGER(1),$);
#323= IFCPROPERTYSINGLEVALUE('Class',$,IFCLABEL('12'),$);
#324= IFCPROPERTYSET('24xaViC3TE1RWXU1HT6Lwj',#5,'Tekla Common','Common Properties to Shared building elements',(#318,#319,#320,#321,#322,#323));
#325= IFCPROPERTYSINGLEVALUE('Weight',$,IFCMASSMEASURE(0.48),$);
#326= IFCPROPERTYSINGLEVALUE('Volume',$,IFCVOLUMEMEASURE(0.),$);
#327= IFCPROPERTYSINGLEVALUE('Gross footprint area',$,IFCAREAMEASURE(0.),$);
#328= IFCPROPERTYSINGLEVALUE('Area per tons',$,IFCAREAMEASURE(37.826),$);
#329= IFCPROPERTYSINGLEVALUE('Net surface area',$,IFCAREAMEASURE(0.018),$);
#330= IFCPROPERTYSINGLEVALUE('Height',$,IFCLENGTHMEASURE(80.),$);
#331= IFCPROPERTYSINGLEVALUE('Width',$,IFCLENGTHMEASURE(8.),$);
#332= IFCPROPERTYSINGLEVALUE('Length',$,IFCLENGTHMEASURE(120.),$);
#333= IFCPROPERTYSET('0cqnYFfWv8Axx2gOKW56pn',#5,'Tekla Quantity','Quantity Properties to Shared building elements',(#325,#326,#327,#328,#329,#330,#331,#332));
#334= IFCPROPERTYSINGLEVALUE('LoadBearing',$,IFCBOOLEAN(.F.),$);
#335= IFCPROPERTYSINGLEVALUE('Reference',$,IFCIDENTIFIER('5-1-P40'),$);
#336= IFCPROPERTYSET('3ELcT5M019Wg7mrD0lt$uE',#5,'Pset_PlateCommon','Common Properties to plate elements',(#334,#335));
#337= IFCQUANTITYLENGTH('Width',$,$,80.0000000000073);
#338= IFCQUANTITYAREA('NetArea',$,$,0.0182621766015923);
#339= IFCQUANTITYAREA('GrossArea',$,$,0.00960000000000087);
#340= IFCQUANTITYAREA('CrossSectionArea',$,$,6.4E-05);
#341= IFCQUANTITYVOLUME('NetVolume',$,$,6.15028438781947E-05);
#342= IFCQUANTITYVOLUME('GrossVolume',$,$,6.15028438781947E-05);
#343= IFCELEMENTQUANTITY('0EQIkMTHD37xY09NIaSPTz',#5,'BaseQuantities',$,$,(#337,#338,#339,#340,#341,#342));
#344= IFCMATERIAL('STEEL/S275');
#345= IFCSHAPEREPRESENTATION(#12,'Body','Brep',(#309));
#346= IFCPRODUCTDEFINITIONSHAPE($,$,(#345));
#347= IFCCARTESIANPOINT((56534.9995755332,-4883.49930889189,11439.9997011096));
#348= IFCAXIS2PLACEMENT3D(#347,#7,#9);
#349= IFCLOCALPLACEMENT(#42,#348);
#350= IFCPLATE('2TqeTNrEX2swoJkMndsD7s',#44,'PLATE-8','PL8*80',$,#349,#346,'ID9dd28757-d4e8-42db-ac93-b96c67d8d1f6');
#351= IFCSHAPEREPRESENTATION(#12,'Body','Brep',(#309));
#352= IFCPRODUCTDEFINITIONSHAPE($,$,(#351));
#353= IFCCARTESIANPOINT((56744.999489539,-4763.49930889191,11439.9997011096));
#354= IFCDIRECTION((-1.,0.,0.));
#355= IFCAXIS2PLACEMENT3D(#353,#354,#9);
#356= IFCLOCALPLACEMENT(#42,#355);
#357= IFCPLATE('3YaCzY$GXFpgEgyEX6TscO',#44,'PLATE-8','PL8*80',$,#356,#352,'IDe290cf62-fd08-4fce-a3aa-f0e846776998');
#358= IFCSHAPEREPRESENTATION(#12,'Body','Brep',(#309));
#359= IFCPRODUCTDEFINITIONSHAPE($,$,(#358));
#360= IFCCARTESIANPOINT((56744.999489539,-4883.49930889191,11439.9997011096));
#361= IFCAXIS2PLACEMENT3D(#360,#354,#9);
#362= IFCLOCALPLACEMENT(#42,#361);
#363= IFCPLATE('0Wy1a8UwX9wvXC6Xbpm9tY',#44,'PLATE-8','PL8*80',$,#362,#359,'ID20f01908-7ba8-49eb-984c-1a1973c09de2');
#364= IFCCOLOURRGB('Light Red',0.905882352941176,0.325490196078431,0.36078431372549);
#365= IFCSURFACESTYLERENDERING(#364,0.,$,$,$,$,IFCNORMALISEDRATIOMEASURE(0.00390625),IFCSPECULAREXPONENT(10.),.NOTDEFINED.);
#366= IFCSURFACESTYLE('STEEL/S275',.POSITIVE.,(#365));
#367= IFCPRESENTATIONSTYLEASSIGNMENT((#366));
#368= IFCCARTESIANPOINT((393.342277398405,6.,9.99999999999818));
#369= IFCCARTESIANPOINT((399.999237060547,-4.,-1.81898940354586E-12));
#370= IFCCARTESIANPOINT((6.65609784952721,6.,10.));
#371= IFCPOLYLOOP((#368,#369,#237,#370));
#372= IFCFACEOUTERBOUND(#371,.T.);
#373= IFCFACE((#372));
#374= IFCCARTESIANPOINT((0.,-6.,0.));
#375= IFCCARTESIANPOINT((116.754005432129,-6.,175.409088134766));
#376= IFCCARTESIANPOINT((116.754005432129,6.,175.409088134766));
#377= IFCPOLYLOOP((#374,#375,#376,#370,#237));
#378= IFCFACEOUTERBOUND(#377,.T.);
#379= IFCFACE((#378));
#380= IFCCARTESIANPOINT((131.287851198038,-6.,192.523593646367));
#381= IFCCARTESIANPOINT((131.287851198038,6.,192.523593646367));
#382= IFCPOLYLOOP((#375,#380,#381,#376));
#383= IFCFACEOUTERBOUND(#382,.T.);
#384= IFCFACE((#383));
#385= IFCCARTESIANPOINT((149.184801751132,-6.,206.082285786611));
#386= IFCCARTESIANPOINT((149.184801751132,6.,206.082285786611));
#387= IFCPOLYLOOP((#380,#385,#386,#381));
#388= IFCFACEOUTERBOUND(#387,.T.);
#389= IFCFACE((#388));
#390= IFCCARTESIANPOINT((169.594479250608,-6.,215.440920089821));
#391= IFCCARTESIANPOINT((169.594479250608,6.,215.440920089821));
#392= IFCPOLYLOOP((#385,#390,#391,#386));
#393= IFCFACEOUTERBOUND(#392,.T.);
#394= IFCFACE((#393));
#395= IFCCARTESIANPOINT((191.547113040173,-6.,220.15481883238));
#396= IFCCARTESIANPOINT((191.547113040173,6.,220.15481883238));
#397= IFCPOLYLOOP((#390,#395,#396,#391));
#398= IFCFACEOUTERBOUND(#397,.T.);
#399= IFCFACE((#398));
#400= IFCCARTESIANPOINT((213.999618530273,-6.,220.));
#401= IFCCARTESIANPOINT((213.999618530273,6.,220.));
#402= IFCPOLYLOOP((#395,#400,#401,#396));
#403= IFCFACEOUTERBOUND(#402,.T.);
#404= IFCFACE((#403));
#405= IFCCARTESIANPOINT((234.345649844419,-6.,214.348491407178));
#406= IFCCARTESIANPOINT((234.345649844419,6.,214.348491407178));
#407= IFCPOLYLOOP((#400,#405,#406,#401));
#408= IFCFACEOUTERBOUND(#407,.T.);
#409= IFCFACE((#408));
#410= IFCCARTESIANPOINT((253.15512407052,-6.,204.751397110018));
#411= IFCCARTESIANPOINT((253.15512407052,6.,204.751397110018));
#412= IFCPOLYLOOP((#405,#410,#411,#406));
#413= IFCFACEOUTERBOUND(#412,.T.);
#414= IFCFACE((#413));
#415= IFCCARTESIANPOINT((269.671754705678,-6.,191.594594608168));
#416= IFCCARTESIANPOINT((269.671754705678,6.,191.594594608168));
#417= IFCPOLYLOOP((#410,#415,#416,#411));
#418= IFCFACEOUTERBOUND(#417,.T.);
#419= IFCFACE((#418));
#420= IFCCARTESIANPOINT((283.2314453125,-6.,175.407089233398));
#421= IFCCARTESIANPOINT((283.2314453125,6.,175.407089233398));
#422= IFCPOLYLOOP((#415,#420,#421,#416));
#423= IFCFACEOUTERBOUND(#422,.T.);
#424= IFCFACE((#423));
#425= IFCCARTESIANPOINT((399.999237060547,-6.,-1.81898940354586E-12));
#426= IFCPOLYLOOP((#421,#420,#425,#369,#368));
#427= IFCFACEOUTERBOUND(#426,.T.);
#428= IFCFACE((#427));
#429= IFCPOLYLOOP((#425,#374,#237,#369));
#430= IFCFACEOUTERBOUND(#429,.T.);
#431= IFCFACE((#430));
#432= IFCPOLYLOOP((#376,#381,#386,#391,#396,#401,#406,#411,#416,#421,#368,#370));
#433= IFCFACEOUTERBOUND(#432,.T.);
#434= IFCFACE((#433));
#435= IFCPOLYLOOP((#425,#420,#415,#410,#405,#400,#395,#390,#385,#380,#375,#374));
#436= IFCFACEOUTERBOUND(#435,.T.);
#437= IFCFACE((#436));
#438= IFCCLOSEDSHELL((#373,#379,#384,#389,#394,#399,#404,#409,#414,#419,#424,#428,#431,#434,#437));
#439= IFCFACETEDBREP(#438);
#440= IFCSTYLEDITEM(#439,(#367),$);
#441= IFCSHAPEREPRESENTATION(#12,'Body','Brep',(#439));
#442= IFCPRODUCTDEFINITIONSHAPE($,$,(#441));
#443= IFCCARTESIANPOINT((56620.9996615273,-4623.50083476875,11479.9997011097));
#444= IFCDIRECTION((0.,-1.,0.));
#445= IFCAXIS2PLACEMENT3D(#443,#129,#444);
#446= IFCLOCALPLACEMENT(#42,#445);
#447= IFCPLATE('3rwdERoTnAuBeFdAWLUlea',#44,'PLATE-12','PL12*220.2',$,#446,#442,'IDf5ea739b-c9dc-4ae0-ba0f-9ca8157afa24');
#448= IFCPLATETYPE('3Q6AVVoBL8SRigtcUZsFtr',#5,'PL12*220.2',$,$,$,$,$,$,.NOTDEFINED.);
#449= IFCPROPERTYSINGLEVALUE('Bottom elevation',$,IFCLABEL(' +11.260'),$);
#450= IFCPROPERTYSINGLEVALUE('Preliminary mark',$,IFCLABEL('5-1-P16(?)'),$);
#451= IFCPROPERTYSINGLEVALUE('Class',$,IFCLABEL('16'),$);
#452= IFCPROPERTYSET('3oIk2KDT9BFBA9kPMQ9zs5',#5,'Tekla Common','Common Properties to Shared building elements',(#449,#319,#320,#450,#322,#451));
#453= IFCPROPERTYSINGLEVALUE('Weight',$,IFCMASSMEASURE(5.01),$);
#454= IFCPROPERTYSINGLEVALUE('Volume',$,IFCVOLUMEMEASURE(0.001),$);
#455= IFCPROPERTYSINGLEVALUE('Gross footprint area',$,IFCAREAMEASURE(0.005),$);
#456= IFCPROPERTYSINGLEVALUE('Area per tons',$,IFCAREAMEASURE(23.829),$);
#457= IFCPROPERTYSINGLEVALUE('Net surface area',$,IFCAREAMEASURE(0.119),$);
#458= IFCPROPERTYSINGLEVALUE('Height',$,IFCLENGTHMEASURE(220.2),$);
#459= IFCPROPERTYSINGLEVALUE('Width',$,IFCLENGTHMEASURE(12.),$);
#460= IFCPROPERTYSINGLEVALUE('Length',$,IFCLENGTHMEASURE(400.),$);
#461= IFCPROPERTYSET('3b8vDhtCX159aDUhQnlvhj',#5,'Tekla Quantity','Quantity Properties to Shared building elements',(#453,#454,#455,#456,#457,#458,#459,#460));
#462= IFCPROPERTYSINGLEVALUE('Reference',$,IFCIDENTIFIER('5-1-P16'),$);
#463= IFCPROPERTYSET('04zDMyjKT9yg2zF98_MH1n',#5,'Pset_PlateCommon','Common Properties to plate elements',(#334,#462));
#464= IFCQUANTITYLENGTH('Width',$,$,220.154818832381);
#465= IFCQUANTITYAREA('NetArea',$,$,0.119461262478946);
#466= IFCQUANTITYAREA('GrossArea',$,$,0.0880617595681554);
#467= IFCQUANTITYAREA('CrossSectionArea',$,$,0.000144);
#468= IFCQUANTITYVOLUME('NetVolume',$,$,0.000638626941032553);
#469= IFCQUANTITYVOLUME('GrossVolume',$,$,0.000658405018593719);
#470= IFCELEMENTQUANTITY('1PIfb8u1zEPu$QfyQ71Hq5',#5,'BaseQuantities',$,$,(#464,#465,#466,#467,#468,#469));
#471= IFCCARTESIANPOINT((399.999237060547,4.,-1.81898940354586E-12));
#472= IFCCARTESIANPOINT((393.342277398405,-6.,9.99999999999818));
#473= IFCCARTESIANPOINT((6.65609784952721,-6.,10.));
#474= IFCPOLYLOOP((#471,#472,#473,#240));
#475= IFCFACEOUTERBOUND(#474,.T.);
#476= IFCFACE((#475));
#477= IFCCARTESIANPOINT((0.,6.,0.));
#478= IFCPOLYLOOP((#375,#376,#477,#240,#473));
#479= IFCFACEOUTERBOUND(#478,.T.);
#480= IFCFACE((#479));
#481= IFCCARTESIANPOINT((399.999237060547,6.,-1.81898940354586E-12));
#482= IFCPOLYLOOP((#481,#421,#420,#472,#471));
#483= IFCFACEOUTERBOUND(#482,.T.);
#484= IFCFACE((#483));
#485= IFCPOLYLOOP((#477,#481,#471,#240));
#486= IFCFACEOUTERBOUND(#485,.T.);
#487= IFCFACE((#486));
#488= IFCPOLYLOOP((#381,#386,#391,#396,#401,#406,#411,#416,#421,#481,#477,#376));
#489= IFCFACEOUTERBOUND(#488,.T.);
#490= IFCFACE((#489));
#491= IFCPOLYLOOP((#420,#415,#410,#405,#400,#395,#390,#385,#380,#375,#473,#472));
#492= IFCFACEOUTERBOUND(#491,.T.);
#493= IFCFACE((#492));
#494= IFCCLOSEDSHELL((#476,#480,#384,#389,#394,#399,#404,#409,#414,#419,#424,#484,#487,#490,#493));
#495= IFCFACETEDBREP(#494);
#496= IFCSTYLEDITEM(#495,(#367),$);
#497= IFCSHAPEREPRESENTATION(#12,'Body','Brep',(#495));
#498= IFCPRODUCTDEFINITIONSHAPE($,$,(#497));
#499= IFCCARTESIANPOINT((56658.9995755332,-4623.50083476875,11479.9997011097));
#500= IFCAXIS2PLACEMENT3D(#499,#129,#444);
#501= IFCLOCALPLACEMENT(#42,#500);
#502= IFCPLATE('39nGAzD8TFJe0rGya$5wrD',#44,'PLATE-12','PL12*220.2',$,#501,#498,'IDc9c502bd-3487-4f4e-8035-43c93f17ad4d');
#503= IFCPROPERTYSINGLEVALUE('Preliminary mark',$,IFCLABEL('5-1-P15(?)'),$);
#504= IFCPROPERTYSET('2GZuwIF_5CtB4X6IWGs_ae',#5,'Tekla Common','Common Properties to Shared building elements',(#449,#319,#320,#503,#322,#451));
#505= IFCPROPERTYSINGLEVALUE('Reference',$,IFCIDENTIFIER('5-1-P15'),$);
#506= IFCPROPERTYSET('1_pVMnQJTAzPCduGKx8Xo_',#5,'Pset_PlateCommon','Common Properties to plate elements',(#334,#505));
#507= IFCCARTESIANPOINT((15.,15.0000000000091,0.));
#508= IFCCARTESIANPOINT((12.9903810567663,15.0000000000091,7.50000000000045));
#509= IFCCARTESIANPOINT((7.4999999999991,15.0000000000091,12.9903810567671));
#510= IFCCARTESIANPOINT((-1.55450397240048E-12,15.0000000000091,15.));
#511= IFCCARTESIANPOINT((-7.50000000000179,15.0000000000091,12.9903810567655));
#512= IFCCARTESIANPOINT((-12.9903810567679,15.0000000000091,7.49999999999776));
#513= IFCCARTESIANPOINT((-15.,15.0000000000091,-3.10900794480097E-12));
#514= IFCCARTESIANPOINT((-12.9903810567648,15.0000000000091,-7.50000000000313));
#515= IFCCARTESIANPOINT((-7.49999999999642,15.0000000000091,-12.9903810567686));
#516= IFCCARTESIANPOINT((4.64685857183207E-12,15.0000000000091,-15.));
#517= IFCCARTESIANPOINT((7.50000000000448,15.0000000000091,-12.990381056764));
#518= IFCCARTESIANPOINT((12.9903810567694,15.0000000000091,-7.49999999999507));
#519= IFCCARTESIANPOINT((15.,35.1000000000091,0.));
#520= IFCCARTESIANPOINT((12.9903810567663,35.1000000000091,7.50000000000045));
#521= IFCCARTESIANPOINT((7.4999999999991,35.1000000000091,12.9903810567671));
#522= IFCCARTESIANPOINT((-1.55450397240048E-12,35.1000000000091,15.));
#523= IFCCARTESIANPOINT((-7.50000000000179,35.1000000000091,12.9903810567655));
#524= IFCCARTESIANPOINT((-12.9903810567679,35.1000000000091,7.49999999999776));
#525= IFCCARTESIANPOINT((-15.,35.1000000000091,-3.10900794480097E-12));
#526= IFCCARTESIANPOINT((-12.9903810567648,35.1000000000091,-7.50000000000313));
#527= IFCCARTESIANPOINT((-7.49999999999642,35.1000000000091,-12.9903810567686));
#528= IFCCARTESIANPOINT((4.64685857183207E-12,35.1000000000091,-15.));
#529= IFCCARTESIANPOINT((7.50000000000448,35.1000000000091,-12.990381056764));
#530= IFCCARTESIANPOINT((12.9903810567694,35.1000000000091,-7.49999999999507));
#531= IFCPOLYLOOP((#507,#508,#509,#510,#511,#512,#513,#514,#515,#516,#517,#518));
#532= IFCFACEOUTERBOUND(#531,.T.);
#533= IFCFACE((#532));
#534= IFCPOLYLOOP((#530,#529,#528,#527,#526,#525,#524,#523,#522,#521,#520,#519));
#535= IFCFACEOUTERBOUND(#534,.T.);
#536= IFCFACE((#535));
#537= IFCPOLYLOOP((#507,#519,#520,#508));
#538= IFCFACEOUTERBOUND(#537,.T.);
#539= IFCFACE((#538));
#540= IFCPOLYLOOP((#508,#520,#521,#509));
#541= IFCFACEOUTERBOUND(#540,.T.);
#542= IFCFACE((#541));
#543= IFCPOLYLOOP((#509,#521,#522,#510));
#544= IFCFACEOUTERBOUND(#543,.T.);
#545= IFCFACE((#544));
#546= IFCPOLYLOOP((#510,#522,#523,#511));
#547= IFCFACEOUTERBOUND(#546,.T.);
#548= IFCFACE((#547));
#549= IFCPOLYLOOP((#511,#523,#524,#512));
#550= IFCFACEOUTERBOUND(#549,.T.);
#551= IFCFACE((#550));
#552= IFCPOLYLOOP((#512,#524,#525,#513));
#553= IFCFACEOUTERBOUND(#552,.T.);
#554= IFCFACE((#553));
#555= IFCPOLYLOOP((#513,#525,#526,#514));
#556= IFCFACEOUTERBOUND(#555,.T.);
#557= IFCFACE((#556));
#558= IFCPOLYLOOP((#514,#526,#527,#515));
#559= IFCFACEOUTERBOUND(#558,.T.);
#560= IFCFACE((#559));
#561= IFCPOLYLOOP((#515,#527,#528,#516));
#562= IFCFACEOUTERBOUND(#561,.T.);
#563= IFCFACE((#562));
#564= IFCPOLYLOOP((#516,#528,#529,#517));
#565= IFCFACEOUTERBOUND(#564,.T.);
#566= IFCFACE((#565));
#567= IFCPOLYLOOP((#517,#529,#530,#518));
#568= IFCFACEOUTERBOUND(#567,.T.);
#569= IFCFACE((#568));
#570= IFCPOLYLOOP((#518,#530,#519,#507));
#571= IFCFACEOUTERBOUND(#570,.T.);
#572= IFCFACE((#571));
#573= IFCCLOSEDSHELL((#533,#536,#539,#542,#545,#548,#551,#554,#557,#560,#563,#566,#569,#572));
#574= IFCFACETEDBREP(#573);
#575= IFCSTYLEDITEM(#574,(#119),$);
#576= IFCSHAPEREPRESENTATION(#12,'Body','Brep',(#574));
#577= IFCREPRESENTATIONMAP(#10,#576);
#578= IFCMAPPEDITEM(#577,#122);
#579= IFCSHAPEREPRESENTATION(#12,'Body','MappedRepresentation',(#578));
#580= IFCPRODUCTDEFINITIONSHAPE($,$,(#579));
#581= IFCCARTESIANPOINT((56714.9998616355,-5023.50083476876,11514.9997011097));
#582= IFCAXIS2PLACEMENT3D(#581,#444,#354);
#583= IFCLOCALPLACEMENT(#42,#582);
#584= IFCMECHANICALFASTENER('0zXarfWED9_u_wJvapEQfk',#44,'Bolt assembly',$,$,#583,#580,'ID3d864d69-80e3-49fb-8fba-4f993339aa6e',28.,20.);
#585= IFCPROPERTYSINGLEVALUE('Washer diameter',$,IFCLENGTHMEASURE(28.),$);
#586= IFCPROPERTYSINGLEVALUE('Bolt hole diameter',$,IFCLENGTHMEASURE(30.),$);
#587= IFCPROPERTYSINGLEVALUE('Bolt size',$,IFCLENGTHMEASURE(30.),$);
#588= IFCPROPERTYSINGLEVALUE('Bolt length',$,IFCLENGTHMEASURE(20.),$);
#589= IFCPROPERTYSET('34ub4Lrvz3cQV0c$FE7_Yx',#5,'Tekla Bolt','Bolt Properties',(#134,#585,#136,#137,#138,#139,#140,#141,#142,#586,#144,#145,#587,#588,#148,#149));
#590= IFCMAPPEDITEM(#577,#122);
#591= IFCSHAPEREPRESENTATION(#12,'Body','MappedRepresentation',(#590));
#592= IFCPRODUCTDEFINITIONSHAPE($,$,(#591));
#593= IFCCARTESIANPOINT((56564.9998616355,-5023.50083476876,11514.9997011097));
#594= IFCAXIS2PLACEMENT3D(#593,#444,#354);
#595= IFCLOCALPLACEMENT(#42,#594);
#596= IFCMECHANICALFASTENER('2LHVc9qIHCYhZdlrmVHB38',#44,'Bolt assembly',$,$,#595,#592,'ID9545f989-d124-4c8a-b8e7-bf5c1f44b0c8',28.,20.);
#597= IFCMAPPEDITEM(#577,#122);
#598= IFCSHAPEREPRESENTATION(#12,'Body','MappedRepresentation',(#597));
#599= IFCPRODUCTDEFINITIONSHAPE($,$,(#598));
#600= IFCCARTESIANPOINT((56714.9998616355,-4823.50083476876,11514.9997011097));
#601= IFCAXIS2PLACEMENT3D(#600,#444,#354);
#602= IFCLOCALPLACEMENT(#42,#601);
#603= IFCMECHANICALFASTENER('3WYwCdKUfBeviXdSqZwgv0',#44,'Bolt assembly',$,$,#602,#599,'IDe08ba327-51ea-4ba3-9b21-9dcd23eaae40',28.,20.);
#604= IFCMAPPEDITEM(#577,#122);
#605= IFCSHAPEREPRESENTATION(#12,'Body','MappedRepresentation',(#604));
#606= IFCPRODUCTDEFINITIONSHAPE($,$,(#605));
#607= IFCCARTESIANPOINT((56564.9998616355,-4823.50083476876,11514.9997011097));
#608= IFCAXIS2PLACEMENT3D(#607,#444,#354);
#609= IFCLOCALPLACEMENT(#42,#608);
#610= IFCMECHANICALFASTENER('1wGQMNhpzFtg8gJfUMcHUP',#44,'Bolt assembly',$,$,#609,#606,'ID7a41a597-af3f-4fde-a22a-4e9796991799',28.,20.);
#611= IFCMAPPEDITEM(#577,#122);
#612= IFCSHAPEREPRESENTATION(#12,'Body','MappedRepresentation',(#611));
#613= IFCPRODUCTDEFINITIONSHAPE($,$,(#612));
#614= IFCCARTESIANPOINT((56714.9998616355,-4623.50083476876,11514.9997011097));
#615= IFCAXIS2PLACEMENT3D(#614,#444,#354);
#616= IFCLOCALPLACEMENT(#42,#615);
#617= IFCMECHANICALFASTENER('0HjLfLNS97QBoeRi1EINdj',#44,'Bolt assembly',$,$,#616,#613,'ID11b55a55-5dc2-4768-bca8-6ec04e4979ed',28.,20.);
#618= IFCMAPPEDITEM(#577,#122);
#619= IFCSHAPEREPRESENTATION(#12,'Body','MappedRepresentation',(#618));
#620= IFCPRODUCTDEFINITIONSHAPE($,$,(#619));
#621= IFCCARTESIANPOINT((56564.9998616355,-4623.50083476876,11514.9997011097));
#622= IFCAXIS2PLACEMENT3D(#621,#444,#354);
#623= IFCLOCALPLACEMENT(#42,#622);
#624= IFCMECHANICALFASTENER('3xNN9SgxLBrRZQ9AQvBDNS',#44,'Bolt assembly',$,$,#623,#620,'IDfb5d725c-abb5-4bd5-b8da-24a6b92cd5dc',28.,20.);
#625= IFCCOLOURRGB('Light Blue',0.23921568627451,0.,0.63921568627451);
#626= IFCSURFACESTYLERENDERING(#625,0.,$,$,$,$,IFCNORMALISEDRATIOMEASURE(0.00390625),IFCSPECULAREXPONENT(10.),.NOTDEFINED.);
#627= IFCSURFACESTYLE('STEEL/S275',.POSITIVE.,(#626));
#628= IFCPRESENTATIONSTYLEASSIGNMENT((#627));
#629= IFCCARTESIANPOINT((0.,-10.,0.));
#630= IFCCARTESIANPOINT((0.,-10.,500.));
#631= IFCCARTESIANPOINT((0.,10.,500.));
#632= IFCCARTESIANPOINT((0.,10.,0.));
#633= IFCPOLYLOOP((#629,#630,#631,#632));
#634= IFCFACEOUTERBOUND(#633,.T.);
#635= IFCFACE((#634));
#636= IFCCARTESIANPOINT((250.,-10.,500.));
#637= IFCCARTESIANPOINT((250.,10.,500.));
#638= IFCPOLYLOOP((#630,#636,#637,#631));
#639= IFCFACEOUTERBOUND(#638,.T.);
#640= IFCFACE((#639));
#641= IFCCARTESIANPOINT((250.,-10.,7.27595761418343E-12));
#642= IFCCARTESIANPOINT((250.,10.,7.27595761418343E-12));
#643= IFCPOLYLOOP((#636,#641,#642,#637));
#644= IFCFACEOUTERBOUND(#643,.T.);
#645= IFCFACE((#644));
#646= IFCPOLYLOOP((#641,#629,#632,#642));
#647= IFCFACEOUTERBOUND(#646,.T.);
#648= IFCFACE((#647));
#649= IFCPOLYLOOP((#637,#642,#632,#631));
#650= IFCFACEOUTERBOUND(#649,.T.);
#651= IFCFACE((#650));
#652= IFCPOLYLOOP((#641,#636,#630,#629));
#653= IFCFACEOUTERBOUND(#652,.T.);
#654= IFCFACE((#653));
#655= IFCCLOSEDSHELL((#635,#640,#645,#648,#651,#654));
#656= IFCFACETEDBREP(#655);
#657= IFCSTYLEDITEM(#656,(#628),$);
#658= IFCSHAPEREPRESENTATION(#12,'Body','Brep',(#656));
#659= IFCPRODUCTDEFINITIONSHAPE($,$,(#658));
#660= IFCCARTESIANPOINT((56514.9995755332,-5073.50007182932,11489.9997011097));
#661= IFCAXIS2PLACEMENT3D(#660,#8,#7);
#662= IFCLOCALPLACEMENT(#42,#661);
#663= IFCPLATE('0WrLw5O8TFCB1XYNJ7ueJO',#44,'PLATE-20','PL20*250',$,#662,#659,'ID20d55e85-6087-4f30-b061-8974c7e284d8');
#664= IFCPLATETYPE('1E2H5Y38H44O6zMu7R77uI',#5,'PL20*250',$,$,$,$,$,$,.NOTDEFINED.);
#665= IFCPROPERTYSINGLEVALUE('Bottom elevation',$,IFCLABEL(' +11.480'),$);
#666= IFCPROPERTYSINGLEVALUE('Top elevation',$,IFCLABEL(' +11.500'),$);
#667= IFCPROPERTYSINGLEVALUE('Preliminary mark',$,IFCLABEL('5-1-P57(?)'),$);
#668= IFCPROPERTYSINGLEVALUE('Class',$,IFCLABEL('14'),$);
#669= IFCPROPERTYSET('0AKHWZHNz9jPUXBH2F9hx9',#5,'Tekla Common','Common Properties to Shared building elements',(#665,#666,#320,#667,#322,#668));
#670= IFCPROPERTYSINGLEVALUE('Weight',$,IFCMASSMEASURE(19.63),$);
#671= IFCPROPERTYSINGLEVALUE('Volume',$,IFCVOLUMEMEASURE(0.003),$);
#672= IFCPROPERTYSINGLEVALUE('Gross footprint area',$,IFCAREAMEASURE(0.125),$);
#673= IFCPROPERTYSINGLEVALUE('Area per tons',$,IFCAREAMEASURE(14.268),$);
#674= IFCPROPERTYSINGLEVALUE('Net surface area',$,IFCAREAMEASURE(0.28),$);
#675= IFCPROPERTYSINGLEVALUE('Height',$,IFCLENGTHMEASURE(250.),$);
#676= IFCPROPERTYSINGLEVALUE('Width',$,IFCLENGTHMEASURE(20.),$);
#677= IFCPROPERTYSINGLEVALUE('Length',$,IFCLENGTHMEASURE(500.),$);
#678= IFCPROPERTYSET('1N6GzIkKD40PEpdaWpEjy5',#5,'Tekla Quantity','Quantity Properties to Shared building elements',(#670,#671,#672,#673,#674,#675,#676,#677));
#679= IFCPROPERTYSINGLEVALUE('Reference',$,IFCIDENTIFIER('5-1-P57'),$);
#680= IFCPROPERTYSET('13yzgKD958Kw2VtyCZyewl',#5,'Pset_PlateCommon','Common Properties to plate elements',(#334,#679));
#681= IFCQUANTITYLENGTH('Width',$,$,250.);
#682= IFCQUANTITYAREA('NetArea',$,$,0.279999999999997);
#683= IFCQUANTITYAREA('GrossArea',$,$,0.125);
#684= IFCQUANTITYAREA('CrossSectionArea',$,$,0.0004);
#685= IFCQUANTITYVOLUME('NetVolume',$,$,0.00249999999999997);
#686= IFCQUANTITYVOLUME('GrossVolume',$,$,0.00249999999999997);
#687= IFCELEMENTQUANTITY('3E$Tt0Q1L35hPszxPP7763',#5,'BaseQuantities',$,$,(#681,#682,#683,#684,#685,#686));
#688= IFCRELAGGREGATES('1S9nY1Mqv7OPkXhRpmAi4D',#5,$,$,#37,(#39));
#689= IFCRELAGGREGATES('0MDeee4HT3ugZiakFhbSpN',#5,$,$,#39,(#41));
#690= IFCRELAGGREGATES('1XUiQLay9DPA6_lxRBnMPg',#5,$,$,#41,(#43));
#691= IFCRELCONTAINEDINSPATIALSTRUCTURE('3XcoxN99n5reJ3JR6QEYUp',#5,$,$,(#663,#624,#617,#610,#603,#596,#584,#502,#447,#363,#357,#350,#316,#232,#156,#132),#43);
#692= IFCRELDEFINESBYPROPERTIES('0jt1RcXBf15PdPzJyHHJgL',#5,$,$,(#232,#156,#132),#150);
#693= IFCRELDEFINESBYPROPERTIES('0UaYqpqiP3XPA974So3vur',#5,$,$,(#363,#357,#350,#316),#324);
#694= IFCRELDEFINESBYPROPERTIES('2RLoADLx1DoAsXYVOy$yer',#5,$,$,(#363,#357,#350,#316),#333);
#695= IFCRELDEFINESBYPROPERTIES('2XNbI2trLBg9PkUTHbzdiV',#5,$,$,(#363,#357,#350,#316),#336);
#696= IFCRELDEFINESBYPROPERTIES('3Y6Ge1kFP7nhtPQ1qkzy8I',#5,$,$,(#363,#357,#350,#316),#343);
#697= IFCRELDEFINESBYPROPERTIES('1LHBYTogH8WeEj9VKi9AdV',#5,$,$,(#447),#452);
#698= IFCRELDEFINESBYPROPERTIES('3jXiELK_TAUfhlGXQJ0_cA',#5,$,$,(#502,#447),#461);
#699= IFCRELDEFINESBYPROPERTIES('3I1vSg21z6hQBWwJCU9NOO',#5,$,$,(#447),#463);
#700= IFCRELDEFINESBYPROPERTIES('3UCgMgYe18T8U9QBQtCWm_',#5,$,$,(#502,#447),#470);
#701= IFCRELDEFINESBYPROPERTIES('2VSEUYdiX3d8TPepZvEK8s',#5,$,$,(#502),#504);
#702= IFCRELDEFINESBYPROPERTIES('13jS1OS$bC5P0AiRu8pL0y',#5,$,$,(#502),#506);
#703= IFCRELDEFINESBYPROPERTIES('00ya96VY5CjgqBtcpYoH6R',#5,$,$,(#624,#617,#610,#603,#596,#584),#589);
#704= IFCRELDEFINESBYPROPERTIES('2tTmqIiV91cRF6mbKMOvvV',#5,$,$,(#663),#669);
#705= IFCRELDEFINESBYPROPERTIES('1jaG6O4E99uAS5zLW4cU1J',#5,$,$,(#663),#678);
#706= IFCRELDEFINESBYPROPERTIES('2YV2mSKN58dBIYmBhhRpgN',#5,$,$,(#663),#680);
#707= IFCRELDEFINESBYPROPERTIES('3oJiIC3K9EWxsXNO7BkFok',#5,$,$,(#663),#687);
#708= IFCRELDEFINESBYTYPE('0gLlQb1XL9GPtRB2YbR9E4',#5,$,$,(#624,#617,#610,#603,#596,#584,#232,#156,#132),#133);
#709= IFCRELDEFINESBYTYPE('2VOX_Z58P1EOy92foyG$VU',#5,$,$,(#363,#357,#350,#316),#317);
#710= IFCRELDEFINESBYTYPE('2NCJP5A1r1gOLaXFJUhi5a',#5,$,$,(#502,#447),#448);
#711= IFCRELDEFINESBYTYPE('2FzrMomV1BDO_KgAk5rTxm',#5,$,$,(#663),#664);
#712= IFCRELASSOCIATESMATERIAL('1O6L$yE_92sef_PDq4nugo',#5,$,$,(#624,#617,#610,#603,#596,#584,#232,#156,#132),#151);
#713= IFCRELASSOCIATESMATERIAL('3QFLs98hD56eYXlirA83AG',#5,$,$,(#663,#502,#447,#363,#357,#350,#316),#344);
#714= IFCPRESENTATIONLAYERASSIGNMENT('BoltArray',$,(#126,#153,#229,#579,#591,#598,#605,#612,#619),$);
#715= IFCPRESENTATIONLAYERASSIGNMENT('PLATE-8',$,(#311,#345,#351,#358),$);
#716= IFCPRESENTATIONLAYERASSIGNMENT('PLATE-12',$,(#441,#497),$);
#717= IFCPRESENTATIONLAYERASSIGNMENT('PLATE-20',$,(#658),$);
ENDSEC;

END-ISO-10303-21;
