ISO-10303-21;
HEADER;
FILE_DESCRIPTION(('ViewDefinition[CoordinationView_V2.0, QuantityTakeOffAddOnView]', 'ExchangeRequirement[Structural, SurfaceGeometry]', 'Option [BaseQuantities:On]', 'Option [GridExport:On]', 'Option [Assemblies:Off]', 'Option [Bolts:On]', 'Option [Rebars:On]', 'Option [PourObjects:Off]', 'Option [Welds:Off]', 'Option [SurfaceTreatments:On]', 'Option [LocationBy:0]', 'Option [ViewColors:Off]', 'Option [SectionedSpine:Off]', 'Option [PropertySets:On]', 'Option [Export all:Off]'),'2;1');
FILE_NAME('5-1-A17.ifc','2026-03-10T09:15:06',('DESKTOP-NLV509P\\Ahmed'),('Structural Designer'),'IFC Parser version: 3.13.2','Tekla Structures 2023 Service Pack 8, IFC Export Version: 4.0.0.0 Jan 19 2024','');
FILE_SCHEMA(('IFC2X3'));
ENDSEC;

DATA;
#1= IFCPERSON('DESKTOP-NLV509P\\Ahmed','Undefined',$,$,$,$,$,$);
#2= IFCORGANIZATION($,'Trimble Solutions Corporation',$,$,$);
#3= IFCPERSONANDORGANIZATION(#1,#2,$);
#4= IFCAPPLICATION(#2,'2023 Service Pack 8','Tekla Structures','Multi material modeling');
#5= IFCOWNERHISTORY(#3,#4,$,.NOCHANGE.,$,$,$,1773123306);
#6= IFCCARTESIANPOINT((0.,0.,0.));
#7= IFCDIRECTION((1.,0.,0.));
#8= IFCDIRECTION((0.,1.,0.));
#9= IFCDIRECTION((0.,0.,1.));
#10= IFCAXIS2PLACEMENT3D(#6,#9,#7);
#11= IFCGEOMETRICREPRESENTATIONCONTEXT($,'Model',3,1.E-05,#10,$);
#12= IFCGEOMETRICREPRESENTATIONSUBCONTEXT('Body','Model',*,*,*,*,#11,$,.MODEL_VIEW.,$);
#13= IFCGEOMETRICREPRESENTATIONSUBCONTEXT('Axis','Model',*,*,*,*,#11,$,.GRAPH_VIEW.,$);
#14= IFCGEOMETRICREPRESENTATIONSUBCONTEXT('FootPrint','Model',*,*,*,*,#11,$,.MODEL_VIEW.,$);
#15= IFCSIUNIT(*,.LENGTHUNIT.,.MILLI.,.METRE.);
#16= IFCMEASUREWITHUNIT(IFCRATIOMEASURE(304.8),#15);
#17= IFCDIMENSIONALEXPONENTS(1,0,0,0,0,0,0);
#18= IFCCONVERSIONBASEDUNIT(#17,.LENGTHUNIT.,'FOOT',#16);
#19= IFCSIUNIT(*,.AREAUNIT.,$,.SQUARE_METRE.);
#20= IFCMEASUREWITHUNIT(IFCRATIOMEASURE(0.09290304),#19);
#21= IFCDIMENSIONALEXPONENTS(2,0,0,0,0,0,0);
#22= IFCCONVERSIONBASEDUNIT(#21,.AREAUNIT.,'SQUARE FOOT',#20);
#23= IFCSIUNIT(*,.VOLUMEUNIT.,$,.CUBIC_METRE.);
#24= IFCMEASUREWITHUNIT(IFCRATIOMEASURE(0.028316846592),#23);
#25= IFCDIMENSIONALEXPONENTS(3,0,0,0,0,0,0);
#26= IFCCONVERSIONBASEDUNIT(#25,.VOLUMEUNIT.,'CUBIC FOOT',#24);
#27= IFCSIUNIT(*,.MASSUNIT.,.KILO.,.GRAM.);
#28= IFCSIUNIT(*,.TIMEUNIT.,$,.SECOND.);
#29= IFCSIUNIT(*,.PLANEANGLEUNIT.,$,.RADIAN.);
#30= IFCMEASUREWITHUNIT(IFCRATIOMEASURE(0.0174532925199433),#29);
#31= IFCDIMENSIONALEXPONENTS(0,0,0,0,0,0,0);
#32= IFCCONVERSIONBASEDUNIT(#31,.PLANEANGLEUNIT.,'DEGREE',#30);
#33= IFCSIUNIT(*,.SOLIDANGLEUNIT.,$,.STERADIAN.);
#34= IFCSIUNIT(*,.THERMODYNAMICTEMPERATUREUNIT.,$,.DEGREE_CELSIUS.);
#35= IFCSIUNIT(*,.LUMINOUSINTENSITYUNIT.,$,.LUMEN.);
#36= IFCUNITASSIGNMENT((#15,#19,#23,#27,#28,#29,#33,#34,#35));
#37= IFCPROJECT('1Fhcq2l_P4gPwODr5R3YfY',#5,'Undefined',$,$,$,$,(#11),#36);
#38= IFCLOCALPLACEMENT($,#10);
#39= IFCSITE('3U952$YZ5FNeWcskAPlHCX',#5,'Undefined',$,$,#38,$,$,.ELEMENT.,$,$,$,$,$);
#40= IFCLOCALPLACEMENT(#38,#10);
#41= IFCBUILDING('2VmZGn1AbC7gZ5BK5Xkc$W',#5,'Undefined',$,$,#40,$,$,.ELEMENT.,$,$,$);
#42= IFCLOCALPLACEMENT(#40,#10);
#43= IFCBUILDINGSTOREY('3gJPpYF7LCbf7I109fNVl5',#5,'Undefined',$,$,#42,$,$,.ELEMENT.,0.);
#44= IFCOWNERHISTORY(#3,#4,$,.NOCHANGE.,$,$,$,1770840000);
#45= IFCCOLOURRGB($,0.698039215686274,0.4,0.);
#46= IFCSURFACESTYLERENDERING(#45,0.,$,$,$,$,IFCNORMALISEDRATIOMEASURE(0.00390625),IFCSPECULAREXPONENT(10.),.NOTDEFINED.);
#47= IFCSURFACESTYLE('EVENT',.POSITIVE.,(#46));
#48= IFCPRESENTATIONSTYLEASSIGNMENT((#47));
#49= IFCCARTESIANPOINT((7.5,-3.,0.));
#50= IFCCARTESIANPOINT((6.49519052838316,-3.,3.75000000000022));
#51= IFCCARTESIANPOINT((3.74999999999955,-3.,6.49519052838355));
#52= IFCCARTESIANPOINT((-7.77251986200242E-13,-3.,7.5));
#53= IFCCARTESIANPOINT((-3.7500000000009,-3.,6.49519052838277));
#54= IFCCARTESIANPOINT((-6.49519052838394,-3.,3.74999999999888));
#55= IFCCARTESIANPOINT((-7.5,-3.,-1.55450397240048E-12));
#56= IFCCARTESIANPOINT((-6.49519052838238,-3.,-3.75000000000157));
#57= IFCCARTESIANPOINT((-3.74999999999821,-3.,-6.49519052838432));
#58= IFCCARTESIANPOINT((2.32342928591604E-12,-3.,-7.5));
#59= IFCCARTESIANPOINT((3.75000000000224,-3.,-6.495190528382));
#60= IFCCARTESIANPOINT((6.49519052838471,-3.,-3.74999999999753));
#61= IFCCARTESIANPOINT((7.5,3.1,0.));
#62= IFCCARTESIANPOINT((6.49519052838316,3.1,3.75000000000022));
#63= IFCCARTESIANPOINT((3.74999999999955,3.1,6.49519052838355));
#64= IFCCARTESIANPOINT((-7.77251986200242E-13,3.1,7.5));
#65= IFCCARTESIANPOINT((-3.7500000000009,3.1,6.49519052838277));
#66= IFCCARTESIANPOINT((-6.49519052838394,3.1,3.74999999999888));
#67= IFCCARTESIANPOINT((-7.5,3.1,-1.55450397240048E-12));
#68= IFCCARTESIANPOINT((-6.49519052838238,3.1,-3.75000000000157));
#69= IFCCARTESIANPOINT((-3.74999999999821,3.1,-6.49519052838432));
#70= IFCCARTESIANPOINT((2.32342928591604E-12,3.1,-7.5));
#71= IFCCARTESIANPOINT((3.75000000000224,3.1,-6.495190528382));
#72= IFCCARTESIANPOINT((6.49519052838471,3.1,-3.74999999999753));
#73= IFCPOLYLOOP((#49,#50,#51,#52,#53,#54,#55,#56,#57,#58,#59,#60));
#74= IFCFACEOUTERBOUND(#73,.T.);
#75= IFCFACE((#74));
#76= IFCPOLYLOOP((#72,#71,#70,#69,#68,#67,#66,#65,#64,#63,#62,#61));
#77= IFCFACEOUTERBOUND(#76,.T.);
#78= IFCFACE((#77));
#79= IFCPOLYLOOP((#49,#61,#62,#50));
#80= IFCFACEOUTERBOUND(#79,.T.);
#81= IFCFACE((#80));
#82= IFCPOLYLOOP((#50,#62,#63,#51));
#83= IFCFACEOUTERBOUND(#82,.T.);
#84= IFCFACE((#83));
#85= IFCPOLYLOOP((#51,#63,#64,#52));
#86= IFCFACEOUTERBOUND(#85,.T.);
#87= IFCFACE((#86));
#88= IFCPOLYLOOP((#52,#64,#65,#53));
#89= IFCFACEOUTERBOUND(#88,.T.);
#90= IFCFACE((#89));
#91= IFCPOLYLOOP((#53,#65,#66,#54));
#92= IFCFACEOUTERBOUND(#91,.T.);
#93= IFCFACE((#92));
#94= IFCPOLYLOOP((#54,#66,#67,#55));
#95= IFCFACEOUTERBOUND(#94,.T.);
#96= IFCFACE((#95));
#97= IFCPOLYLOOP((#55,#67,#68,#56));
#98= IFCFACEOUTERBOUND(#97,.T.);
#99= IFCFACE((#98));
#100= IFCPOLYLOOP((#56,#68,#69,#57));
#101= IFCFACEOUTERBOUND(#100,.T.);
#102= IFCFACE((#101));
#103= IFCPOLYLOOP((#57,#69,#70,#58));
#104= IFCFACEOUTERBOUND(#103,.T.);
#105= IFCFACE((#104));
#106= IFCPOLYLOOP((#58,#70,#71,#59));
#107= IFCFACEOUTERBOUND(#106,.T.);
#108= IFCFACE((#107));
#109= IFCPOLYLOOP((#59,#71,#72,#60));
#110= IFCFACEOUTERBOUND(#109,.T.);
#111= IFCFACE((#110));
#112= IFCPOLYLOOP((#60,#72,#61,#49));
#113= IFCFACEOUTERBOUND(#112,.T.);
#114= IFCFACE((#113));
#115= IFCCLOSEDSHELL((#75,#78,#81,#84,#87,#90,#93,#96,#99,#102,#105,#108,#111,#114));
#116= IFCCOLOURRGB($,0.,0.,0.);
#117= IFCSURFACESTYLERENDERING(#116,0.,$,$,$,$,IFCNORMALISEDRATIOMEASURE(0.00390625),IFCSPECULAREXPONENT(10.),.NOTDEFINED.);
#118= IFCSURFACESTYLE($,.POSITIVE.,(#117));
#119= IFCPRESENTATIONSTYLEASSIGNMENT((#118));
#120= IFCFACETEDBREP(#115);
#121= IFCSTYLEDITEM(#120,(#119),$);
#122= IFCCARTESIANTRANSFORMATIONOPERATOR3D($,$,#6,$,$);
#123= IFCSHAPEREPRESENTATION(#12,'Body','Brep',(#120));
#124= IFCREPRESENTATIONMAP(#10,#123);
#125= IFCMAPPEDITEM(#124,#122);
#126= IFCSHAPEREPRESENTATION(#12,'Body','MappedRepresentation',(#125));
#127= IFCPRODUCTDEFINITIONSHAPE($,$,(#126));
#128= IFCCARTESIANPOINT((56415.4998778803,16198.6985892062,10100.4995383289));
#129= IFCDIRECTION((-0.392646749111169,0.,0.919689366260386));
#130= IFCDIRECTION((0.919689366260386,0.,0.392646749111169));
#131= IFCAXIS2PLACEMENT3D(#128,#129,#130);
#132= IFCLOCALPLACEMENT(#42,#131);
#133= IFCMECHANICALFASTENER('2U$_VRZN1DaelYc4J9P_zt',#44,'Bolt assembly',$,$,#132,#127,'ID9effe7db-8d70-4d92-8be2-9844c967ef77',15.,6.);
#134= IFCMECHANICALFASTENERTYPE('1irakNtAL8WfNKtRX$H7Qo',#5,'Bolt assembly',$,$,$,$,$,$);
#135= IFCPROPERTYSINGLEVALUE('Washer count',$,IFCINTEGER(0),$);
#136= IFCPROPERTYSINGLEVALUE('Washer diameter',$,IFCLENGTHMEASURE(15.),$);
#137= IFCPROPERTYSINGLEVALUE('Washer type',$,IFCLABEL(''),$);
#138= IFCPROPERTYSINGLEVALUE('Washer name',$,IFCLABEL(''),$);
#139= IFCPROPERTYSINGLEVALUE('Nut count',$,IFCINTEGER(0),$);
#140= IFCPROPERTYSINGLEVALUE('Nut type',$,IFCLABEL(''),$);
#141= IFCPROPERTYSINGLEVALUE('Nut name',$,IFCLABEL(''),$);
#142= IFCPROPERTYSINGLEVALUE('Slotted hole y',$,IFCLENGTHMEASURE(0.),$);
#143= IFCPROPERTYSINGLEVALUE('Slotted hole x',$,IFCLENGTHMEASURE(0.),$);
#144= IFCPROPERTYSINGLEVALUE('Bolt hole diameter',$,IFCLENGTHMEASURE(15.),$);
#145= IFCPROPERTYSINGLEVALUE('Location',$,IFCLABEL('Site'),$);
#146= IFCPROPERTYSINGLEVALUE('Bolt count',$,IFCINTEGER(1),$);
#147= IFCPROPERTYSINGLEVALUE('Bolt size',$,IFCLENGTHMEASURE(15.),$);
#148= IFCPROPERTYSINGLEVALUE('Bolt length',$,IFCLENGTHMEASURE(6.),$);
#149= IFCPROPERTYSINGLEVALUE('Bolt standard',$,IFCLABEL('EVENT'),$);
#150= IFCPROPERTYSINGLEVALUE('Bolt Name',$,IFCLABEL(''),$);
#151= IFCPROPERTYSET('0GGSaSboP1vuQT7SM8y3Sv',#5,'Tekla Bolt','Bolt Properties',(#135,#136,#137,#138,#139,#140,#141,#142,#143,#144,#145,#146,#147,#148,#149,#150));
#152= IFCMATERIAL('EVENT');
#153= IFCMAPPEDITEM(#124,#122);
#154= IFCSHAPEREPRESENTATION(#12,'Body','MappedRepresentation',(#153));
#155= IFCPRODUCTDEFINITIONSHAPE($,$,(#154));
#156= IFCCARTESIANPOINT((56415.4998778803,16198.6985892062,10249.4995383289));
#157= IFCDIRECTION((-0.392646749111169,0.,-0.919689366260386));
#158= IFCDIRECTION((0.919689366260387,0.,-0.392646749111167));
#159= IFCAXIS2PLACEMENT3D(#156,#157,#158);
#160= IFCLOCALPLACEMENT(#42,#159);
#161= IFCMECHANICALFASTENER('1s8sv8yOXBqQ1bSJ$eVb0K',#44,'Bolt assembly',$,$,#160,#155,'ID76236e48-f188-4bd1-a065-713fe87e5014',15.,6.);
#162= IFCMAPPEDITEM(#124,#122);
#163= IFCSHAPEREPRESENTATION(#12,'Body','MappedRepresentation',(#162));
#164= IFCPRODUCTDEFINITIONSHAPE($,$,(#163));
#165= IFCCARTESIANPOINT((56764.4998778803,16198.6985892062,10249.4995383289));
#166= IFCDIRECTION((-0.919689366260387,0.,-0.392646749111167));
#167= IFCAXIS2PLACEMENT3D(#165,#129,#166);
#168= IFCLOCALPLACEMENT(#42,#167);
#169= IFCMECHANICALFASTENER('3hD6_SpjfFtOKXn2c5SCKj',#44,'Bolt assembly',$,$,#168,#164,'IDeb346f9c-ceda-4fdd-8521-c4298570c52d',15.,6.);
#170= IFCMAPPEDITEM(#124,#122);
#171= IFCSHAPEREPRESENTATION(#12,'Body','MappedRepresentation',(#170));
#172= IFCPRODUCTDEFINITIONSHAPE($,$,(#171));
#173= IFCCARTESIANPOINT((56764.4998778803,16198.6985892062,10100.4995383289));
#174= IFCDIRECTION((0.392646749111169,0.,0.919689366260386));
#175= IFCDIRECTION((-0.919689366260386,0.,0.392646749111169));
#176= IFCAXIS2PLACEMENT3D(#173,#174,#175);
#177= IFCLOCALPLACEMENT(#42,#176);
#178= IFCMECHANICALFASTENER('2dCErAhsv52eEANmkYrukV',#44,'Bolt assembly',$,$,#177,#172,'IDa730ed4a-af6e-450a-838a-5f0ba2d78b9f',15.,6.);
#179= IFCMAPPEDITEM(#124,#122);
#180= IFCSHAPEREPRESENTATION(#12,'Body','MappedRepresentation',(#179));
#181= IFCPRODUCTDEFINITIONSHAPE($,$,(#180));
#182= IFCCARTESIANPOINT((56415.4998778803,7118.62013732908,10249.5001920959));
#183= IFCAXIS2PLACEMENT3D(#182,#157,#158);
#184= IFCLOCALPLACEMENT(#42,#183);
#185= IFCMECHANICALFASTENER('0olgdOVO99Ov7_M25CWc0t',#44,'Bolt assembly',$,$,#184,#181,'ID32bea9d8-7d82-4963-91fe-58214c826037',15.,6.);
#186= IFCMAPPEDITEM(#124,#122);
#187= IFCSHAPEREPRESENTATION(#12,'Body','MappedRepresentation',(#186));
#188= IFCPRODUCTDEFINITIONSHAPE($,$,(#187));
#189= IFCCARTESIANPOINT((56415.4998778803,7118.62013732908,10100.5001920959));
#190= IFCAXIS2PLACEMENT3D(#189,#129,#130);
#191= IFCLOCALPLACEMENT(#42,#190);
#192= IFCMECHANICALFASTENER('3GYiQD6EP3UOj0B2G0EZ6x',#44,'Bolt assembly',$,$,#191,#188,'IDd08ac68d-18e6-4379-8b40-2c24003a31bb',15.,6.);
#193= IFCMAPPEDITEM(#124,#122);
#194= IFCSHAPEREPRESENTATION(#12,'Body','MappedRepresentation',(#193));
#195= IFCPRODUCTDEFINITIONSHAPE($,$,(#194));
#196= IFCCARTESIANPOINT((56764.4998778803,7118.62013732908,10100.5001920959));
#197= IFCAXIS2PLACEMENT3D(#196,#157,#175);
#198= IFCLOCALPLACEMENT(#42,#197);
#199= IFCMECHANICALFASTENER('25_ZxVAfLBuh9vvkqV26OG',#44,'Bolt assembly',$,$,#198,#195,'ID85fa3edf-2a95-4be2-b279-e6ed1f086610',15.,6.);
#200= IFCMAPPEDITEM(#124,#122);
#201= IFCSHAPEREPRESENTATION(#12,'Body','MappedRepresentation',(#200));
#202= IFCPRODUCTDEFINITIONSHAPE($,$,(#201));
#203= IFCCARTESIANPOINT((56764.4998778803,7118.62013732908,10249.5001920959));
#204= IFCDIRECTION((0.392646749111161,0.,-0.91968936626039));
#205= IFCAXIS2PLACEMENT3D(#203,#204,#166);
#206= IFCLOCALPLACEMENT(#42,#205);
#207= IFCMECHANICALFASTENER('3UReajJWH1Bul2iiWty2dk',#44,'Bolt assembly',$,$,#206,#202,'IDde6e892d-4e04-412f-8bc2-b2c837f029ee',15.,6.);
#208= IFCOWNERHISTORY(#3,#4,$,.NOCHANGE.,$,$,$,1770796800);
#209= IFCSURFACESTYLE('TS10.9',.POSITIVE.,(#46));
#210= IFCPRESENTATIONSTYLEASSIGNMENT((#209));
#211= IFCCARTESIANPOINT((11.,36.0000049145391,0.));
#212= IFCCARTESIANPOINT((9.52627944162863,36.0000049145391,5.50000000000033));
#213= IFCCARTESIANPOINT((5.49999999999934,36.0000049145391,9.5262794416292));
#214= IFCCARTESIANPOINT((-1.13996957976035E-12,36.0000049145391,11.));
#215= IFCCARTESIANPOINT((-5.50000000000131,36.0000049145391,9.52627944162807));
#216= IFCCARTESIANPOINT((-9.52627944162977,36.0000049145391,5.49999999999836));
#217= IFCCARTESIANPOINT((-11.,36.0000049145391,-2.27993915952071E-12));
#218= IFCCARTESIANPOINT((-9.5262794416275,36.0000049145391,-5.5000000000023));
#219= IFCCARTESIANPOINT((-5.49999999999737,36.0000049145391,-9.52627944163034));
#220= IFCCARTESIANPOINT((3.40769628601019E-12,36.0000049145391,-11.));
#221= IFCCARTESIANPOINT((5.50000000000328,36.0000049145391,-9.52627944162693));
#222= IFCCARTESIANPOINT((9.52627944163091,36.0000049145391,-5.49999999999638));
#223= IFCCARTESIANPOINT((11.,286.10000491454,0.));
#224= IFCCARTESIANPOINT((9.52627944162863,286.10000491454,5.50000000000033));
#225= IFCCARTESIANPOINT((5.49999999999934,286.10000491454,9.5262794416292));
#226= IFCCARTESIANPOINT((-1.13996957976035E-12,286.10000491454,11.));
#227= IFCCARTESIANPOINT((-5.50000000000131,286.10000491454,9.52627944162807));
#228= IFCCARTESIANPOINT((-9.52627944162977,286.10000491454,5.49999999999836));
#229= IFCCARTESIANPOINT((-11.,286.10000491454,-2.27993915952071E-12));
#230= IFCCARTESIANPOINT((-9.5262794416275,286.10000491454,-5.5000000000023));
#231= IFCCARTESIANPOINT((-5.49999999999737,286.10000491454,-9.52627944163034));
#232= IFCCARTESIANPOINT((3.40769628601019E-12,286.10000491454,-11.));
#233= IFCCARTESIANPOINT((5.50000000000328,286.10000491454,-9.52627944162693));
#234= IFCCARTESIANPOINT((9.52627944163091,286.10000491454,-5.49999999999638));
#235= IFCPOLYLOOP((#211,#212,#213,#214,#215,#216,#217,#218,#219,#220,#221,#222));
#236= IFCFACEOUTERBOUND(#235,.T.);
#237= IFCFACE((#236));
#238= IFCPOLYLOOP((#234,#233,#232,#231,#230,#229,#228,#227,#226,#225,#224,#223));
#239= IFCFACEOUTERBOUND(#238,.T.);
#240= IFCFACE((#239));
#241= IFCPOLYLOOP((#211,#223,#224,#212));
#242= IFCFACEOUTERBOUND(#241,.T.);
#243= IFCFACE((#242));
#244= IFCPOLYLOOP((#212,#224,#225,#213));
#245= IFCFACEOUTERBOUND(#244,.T.);
#246= IFCFACE((#245));
#247= IFCPOLYLOOP((#213,#225,#226,#214));
#248= IFCFACEOUTERBOUND(#247,.T.);
#249= IFCFACE((#248));
#250= IFCPOLYLOOP((#214,#226,#227,#215));
#251= IFCFACEOUTERBOUND(#250,.T.);
#252= IFCFACE((#251));
#253= IFCPOLYLOOP((#215,#227,#228,#216));
#254= IFCFACEOUTERBOUND(#253,.T.);
#255= IFCFACE((#254));
#256= IFCPOLYLOOP((#216,#228,#229,#217));
#257= IFCFACEOUTERBOUND(#256,.T.);
#258= IFCFACE((#257));
#259= IFCPOLYLOOP((#217,#229,#230,#218));
#260= IFCFACEOUTERBOUND(#259,.T.);
#261= IFCFACE((#260));
#262= IFCPOLYLOOP((#218,#230,#231,#219));
#263= IFCFACEOUTERBOUND(#262,.T.);
#264= IFCFACE((#263));
#265= IFCPOLYLOOP((#219,#231,#232,#220));
#266= IFCFACEOUTERBOUND(#265,.T.);
#267= IFCFACE((#266));
#268= IFCPOLYLOOP((#220,#232,#233,#221));
#269= IFCFACEOUTERBOUND(#268,.T.);
#270= IFCFACE((#269));
#271= IFCPOLYLOOP((#221,#233,#234,#222));
#272= IFCFACEOUTERBOUND(#271,.T.);
#273= IFCFACE((#272));
#274= IFCPOLYLOOP((#222,#234,#223,#211));
#275= IFCFACEOUTERBOUND(#274,.T.);
#276= IFCFACE((#275));
#277= IFCCLOSEDSHELL((#237,#240,#243,#246,#249,#252,#255,#258,#261,#264,#267,#270,#273,#276));
#278= IFCFACETEDBREP(#277);
#279= IFCSTYLEDITEM(#278,(#119),$);
#280= IFCCARTESIANPOINT((40.,0.,40.));
#281= IFCCARTESIANTRANSFORMATIONOPERATOR3D($,$,#280,$,$);
#282= IFCSHAPEREPRESENTATION(#12,'Body','Brep',(#278));
#283= IFCREPRESENTATIONMAP(#10,#282);
#284= IFCMAPPEDITEM(#283,#281);
#285= IFCSHAPEREPRESENTATION(#12,'Body','MappedRepresentation',(#284));
#286= IFCPRODUCTDEFINITIONSHAPE($,$,(#285));
#287= IFCCARTESIANPOINT((56570.0135661308,7165.61210561539,10336.0001907388));
#288= IFCDIRECTION((-1.,0.,0.));
#289= IFCAXIS2PLACEMENT3D(#287,#288,#8);
#290= IFCLOCALPLACEMENT(#42,#289);
#291= IFCMECHANICALFASTENER('2I9bplhSvDzRXURfxNVU9S',#208,'Bolt assembly',$,$,#290,#286,'ID92265cef-adce-4df5-b85e-6e9ed77de25c',20.,1250.);
#292= IFCPROPERTYSINGLEVALUE('Washer diameter',$,IFCLENGTHMEASURE(20.),$);
#293= IFCPROPERTYSINGLEVALUE('Bolt hole diameter',$,IFCLENGTHMEASURE(22.),$);
#294= IFCPROPERTYSINGLEVALUE('Bolt size',$,IFCLENGTHMEASURE(22.),$);
#295= IFCPROPERTYSINGLEVALUE('Bolt length',$,IFCLENGTHMEASURE(1250.),$);
#296= IFCPROPERTYSINGLEVALUE('Bolt standard',$,IFCLABEL('TS10.9'),$);
#297= IFCPROPERTYSET('0QQzFeizj3fhV7RDIYV7wz',#5,'Tekla Bolt','Bolt Properties',(#135,#292,#137,#138,#139,#140,#141,#142,#143,#293,#145,#146,#294,#295,#296,#150));
#298= IFCMATERIAL('TS10.9');
#299= IFCMAPPEDITEM(#283,#281);
#300= IFCSHAPEREPRESENTATION(#12,'Body','MappedRepresentation',(#299));
#301= IFCPRODUCTDEFINITIONSHAPE($,$,(#300));
#302= IFCCARTESIANPOINT((56690.0135661308,7165.61210561539,10336.0001907388));
#303= IFCAXIS2PLACEMENT3D(#302,#288,#8);
#304= IFCLOCALPLACEMENT(#42,#303);
#305= IFCMECHANICALFASTENER('2IH_T7joH1qu0LxiFli47f',#208,'Bolt assembly',$,$,#304,#301,'ID9247e747-b724-41d3-8015-eec3efb041e9',20.,1250.);
#306= IFCCARTESIANPOINT((11.,36.0012492826102,0.));
#307= IFCCARTESIANPOINT((9.52627944162863,36.0012492826102,5.50000000000033));
#308= IFCCARTESIANPOINT((5.49999999999934,36.0012492826102,9.5262794416292));
#309= IFCCARTESIANPOINT((-1.13996957976035E-12,36.0012492826102,11.));
#310= IFCCARTESIANPOINT((-5.50000000000131,36.0012492826102,9.52627944162807));
#311= IFCCARTESIANPOINT((-9.52627944162977,36.0012492826102,5.49999999999836));
#312= IFCCARTESIANPOINT((-11.,36.0012492826102,-2.27993915952071E-12));
#313= IFCCARTESIANPOINT((-9.5262794416275,36.0012492826102,-5.5000000000023));
#314= IFCCARTESIANPOINT((-5.49999999999737,36.0012492826102,-9.52627944163034));
#315= IFCCARTESIANPOINT((3.40769628601019E-12,36.0012492826102,-11.));
#316= IFCCARTESIANPOINT((5.50000000000328,36.0012492826102,-9.52627944162693));
#317= IFCCARTESIANPOINT((9.52627944163091,36.0012492826102,-5.49999999999638));
#318= IFCCARTESIANPOINT((11.,286.101249282612,0.));
#319= IFCCARTESIANPOINT((9.52627944162863,286.101249282612,5.50000000000033));
#320= IFCCARTESIANPOINT((5.49999999999934,286.101249282612,9.5262794416292));
#321= IFCCARTESIANPOINT((-1.13996957976035E-12,286.101249282612,11.));
#322= IFCCARTESIANPOINT((-5.50000000000131,286.101249282612,9.52627944162807));
#323= IFCCARTESIANPOINT((-9.52627944162977,286.101249282612,5.49999999999836));
#324= IFCCARTESIANPOINT((-11.,286.101249282612,-2.27993915952071E-12));
#325= IFCCARTESIANPOINT((-9.5262794416275,286.101249282612,-5.5000000000023));
#326= IFCCARTESIANPOINT((-5.49999999999737,286.101249282612,-9.52627944163034));
#327= IFCCARTESIANPOINT((3.40769628601019E-12,286.101249282612,-11.));
#328= IFCCARTESIANPOINT((5.50000000000328,286.101249282612,-9.52627944162693));
#329= IFCCARTESIANPOINT((9.52627944163091,286.101249282612,-5.49999999999638));
#330= IFCPOLYLOOP((#306,#307,#308,#309,#310,#311,#312,#313,#314,#315,#316,#317));
#331= IFCFACEOUTERBOUND(#330,.T.);
#332= IFCFACE((#331));
#333= IFCPOLYLOOP((#329,#328,#327,#326,#325,#324,#323,#322,#321,#320,#319,#318));
#334= IFCFACEOUTERBOUND(#333,.T.);
#335= IFCFACE((#334));
#336= IFCPOLYLOOP((#306,#318,#319,#307));
#337= IFCFACEOUTERBOUND(#336,.T.);
#338= IFCFACE((#337));
#339= IFCPOLYLOOP((#307,#319,#320,#308));
#340= IFCFACEOUTERBOUND(#339,.T.);
#341= IFCFACE((#340));
#342= IFCPOLYLOOP((#308,#320,#321,#309));
#343= IFCFACEOUTERBOUND(#342,.T.);
#344= IFCFACE((#343));
#345= IFCPOLYLOOP((#309,#321,#322,#310));
#346= IFCFACEOUTERBOUND(#345,.T.);
#347= IFCFACE((#346));
#348= IFCPOLYLOOP((#310,#322,#323,#311));
#349= IFCFACEOUTERBOUND(#348,.T.);
#350= IFCFACE((#349));
#351= IFCPOLYLOOP((#311,#323,#324,#312));
#352= IFCFACEOUTERBOUND(#351,.T.);
#353= IFCFACE((#352));
#354= IFCPOLYLOOP((#312,#324,#325,#313));
#355= IFCFACEOUTERBOUND(#354,.T.);
#356= IFCFACE((#355));
#357= IFCPOLYLOOP((#313,#325,#326,#314));
#358= IFCFACEOUTERBOUND(#357,.T.);
#359= IFCFACE((#358));
#360= IFCPOLYLOOP((#314,#326,#327,#315));
#361= IFCFACEOUTERBOUND(#360,.T.);
#362= IFCFACE((#361));
#363= IFCPOLYLOOP((#315,#327,#328,#316));
#364= IFCFACEOUTERBOUND(#363,.T.);
#365= IFCFACE((#364));
#366= IFCPOLYLOOP((#316,#328,#329,#317));
#367= IFCFACEOUTERBOUND(#366,.T.);
#368= IFCFACE((#367));
#369= IFCPOLYLOOP((#317,#329,#318,#306));
#370= IFCFACEOUTERBOUND(#369,.T.);
#371= IFCFACE((#370));
#372= IFCCLOSEDSHELL((#332,#335,#338,#341,#344,#347,#350,#353,#356,#359,#362,#365,#368,#371));
#373= IFCFACETEDBREP(#372);
#374= IFCSTYLEDITEM(#373,(#119),$);
#375= IFCSHAPEREPRESENTATION(#12,'Body','Brep',(#373));
#376= IFCREPRESENTATIONMAP(#10,#375);
#377= IFCMAPPEDITEM(#376,#281);
#378= IFCSHAPEREPRESENTATION(#12,'Body','MappedRepresentation',(#377));
#379= IFCPRODUCTDEFINITIONSHAPE($,$,(#378));
#380= IFCCARTESIANPOINT((56609.993539408,16151.6916515448,10336.0007938761));
#381= IFCDIRECTION((0.999999999398649,-3.46800000297662E-05,0.));
#382= IFCDIRECTION((-3.46800000302954E-05,-0.999999999398649,0.));
#383= IFCAXIS2PLACEMENT3D(#380,#381,#382);
#384= IFCLOCALPLACEMENT(#42,#383);
#385= IFCMECHANICALFASTENER('26uDJ1pIz1owvTXg9CJhOf',#208,'Bolt assembly',$,$,#384,#379,'ID86e0d4c1-cd2f-41cb-ae5d-86a24c4eb629',20.,1250.);
#386= IFCCARTESIANPOINT((11.,36.0006461445685,0.));
#387= IFCCARTESIANPOINT((9.52627944162863,36.0006461445685,5.50000000000033));
#388= IFCCARTESIANPOINT((5.49999999999934,36.0006461445685,9.5262794416292));
#389= IFCCARTESIANPOINT((-1.13996957976035E-12,36.0006461445685,11.));
#390= IFCCARTESIANPOINT((-5.50000000000131,36.0006461445685,9.52627944162807));
#391= IFCCARTESIANPOINT((-9.52627944162977,36.0006461445685,5.49999999999836));
#392= IFCCARTESIANPOINT((-11.,36.0006461445685,-2.27993915952071E-12));
#393= IFCCARTESIANPOINT((-9.5262794416275,36.0006461445685,-5.5000000000023));
#394= IFCCARTESIANPOINT((-5.49999999999737,36.0006461445685,-9.52627944163034));
#395= IFCCARTESIANPOINT((3.40769628601019E-12,36.0006461445685,-11.));
#396= IFCCARTESIANPOINT((5.50000000000328,36.0006461445685,-9.52627944162693));
#397= IFCCARTESIANPOINT((9.52627944163091,36.0006461445685,-5.49999999999638));
#398= IFCCARTESIANPOINT((11.,286.10064614457,0.));
#399= IFCCARTESIANPOINT((9.52627944162863,286.10064614457,5.50000000000033));
#400= IFCCARTESIANPOINT((5.49999999999934,286.10064614457,9.5262794416292));
#401= IFCCARTESIANPOINT((-1.13996957976035E-12,286.10064614457,11.));
#402= IFCCARTESIANPOINT((-5.50000000000131,286.10064614457,9.52627944162807));
#403= IFCCARTESIANPOINT((-9.52627944162977,286.10064614457,5.49999999999836));
#404= IFCCARTESIANPOINT((-11.,286.10064614457,-2.27993915952071E-12));
#405= IFCCARTESIANPOINT((-9.5262794416275,286.10064614457,-5.5000000000023));
#406= IFCCARTESIANPOINT((-5.49999999999737,286.10064614457,-9.52627944163034));
#407= IFCCARTESIANPOINT((3.40769628601019E-12,286.10064614457,-11.));
#408= IFCCARTESIANPOINT((5.50000000000328,286.10064614457,-9.52627944162693));
#409= IFCCARTESIANPOINT((9.52627944163091,286.10064614457,-5.49999999999638));
#410= IFCPOLYLOOP((#386,#387,#388,#389,#390,#391,#392,#393,#394,#395,#396,#397));
#411= IFCFACEOUTERBOUND(#410,.T.);
#412= IFCFACE((#411));
#413= IFCPOLYLOOP((#409,#408,#407,#406,#405,#404,#403,#402,#401,#400,#399,#398));
#414= IFCFACEOUTERBOUND(#413,.T.);
#415= IFCFACE((#414));
#416= IFCPOLYLOOP((#386,#398,#399,#387));
#417= IFCFACEOUTERBOUND(#416,.T.);
#418= IFCFACE((#417));
#419= IFCPOLYLOOP((#387,#399,#400,#388));
#420= IFCFACEOUTERBOUND(#419,.T.);
#421= IFCFACE((#420));
#422= IFCPOLYLOOP((#388,#400,#401,#389));
#423= IFCFACEOUTERBOUND(#422,.T.);
#424= IFCFACE((#423));
#425= IFCPOLYLOOP((#389,#401,#402,#390));
#426= IFCFACEOUTERBOUND(#425,.T.);
#427= IFCFACE((#426));
#428= IFCPOLYLOOP((#390,#402,#403,#391));
#429= IFCFACEOUTERBOUND(#428,.T.);
#430= IFCFACE((#429));
#431= IFCPOLYLOOP((#391,#403,#404,#392));
#432= IFCFACEOUTERBOUND(#431,.T.);
#433= IFCFACE((#432));
#434= IFCPOLYLOOP((#392,#404,#405,#393));
#435= IFCFACEOUTERBOUND(#434,.T.);
#436= IFCFACE((#435));
#437= IFCPOLYLOOP((#393,#405,#406,#394));
#438= IFCFACEOUTERBOUND(#437,.T.);
#439= IFCFACE((#438));
#440= IFCPOLYLOOP((#394,#406,#407,#395));
#441= IFCFACEOUTERBOUND(#440,.T.);
#442= IFCFACE((#441));
#443= IFCPOLYLOOP((#395,#407,#408,#396));
#444= IFCFACEOUTERBOUND(#443,.T.);
#445= IFCFACE((#444));
#446= IFCPOLYLOOP((#396,#408,#409,#397));
#447= IFCFACEOUTERBOUND(#446,.T.);
#448= IFCFACE((#447));
#449= IFCPOLYLOOP((#397,#409,#398,#386));
#450= IFCFACEOUTERBOUND(#449,.T.);
#451= IFCFACE((#450));
#452= IFCCLOSEDSHELL((#412,#415,#418,#421,#424,#427,#430,#433,#436,#439,#442,#445,#448,#451));
#453= IFCFACETEDBREP(#452);
#454= IFCSTYLEDITEM(#453,(#119),$);
#455= IFCSHAPEREPRESENTATION(#12,'Body','Brep',(#453));
#456= IFCREPRESENTATIONMAP(#10,#455);
#457= IFCMAPPEDITEM(#456,#281);
#458= IFCSHAPEREPRESENTATION(#12,'Body','MappedRepresentation',(#457));
#459= IFCPRODUCTDEFINITIONSHAPE($,$,(#458));
#460= IFCCARTESIANPOINT((56489.993539481,16151.6916515418,10336.000190738));
#461= IFCAXIS2PLACEMENT3D(#460,#381,#382);
#462= IFCLOCALPLACEMENT(#42,#461);
#463= IFCMECHANICALFASTENER('29CzRkAK19SweapxBYEulP',#208,'Bolt assembly',$,$,#462,#459,'ID8933d6ee-2940-4973-aa24-cfb2e23b8bd9',20.,1250.);
#464= IFCCOLOURRGB('Dark Blue',0.117647058823529,0.262745098039216,0.513725490196078);
#465= IFCSURFACESTYLERENDERING(#464,0.,$,$,$,$,IFCNORMALISEDRATIOMEASURE(0.00390625),IFCSPECULAREXPONENT(10.),.NOTDEFINED.);
#466= IFCSURFACESTYLE('STEEL/S275',.POSITIVE.,(#465));
#467= IFCPRESENTATIONSTYLEASSIGNMENT((#466));
#468= IFCCARTESIANPOINT((0.,-3.,0.));
#469= IFCCARTESIANPOINT((0.,-3.,234.));
#470= IFCCARTESIANPOINT((0.,3.,234.));
#471= IFCCARTESIANPOINT((0.,3.,0.));
#472= IFCPOLYLOOP((#468,#469,#470,#471));
#473= IFCFACEOUTERBOUND(#472,.T.);
#474= IFCFACE((#473));
#475= IFCCARTESIANPOINT((434.,-3.,234.));
#476= IFCCARTESIANPOINT((434.,3.,234.));
#477= IFCPOLYLOOP((#469,#475,#476,#470));
#478= IFCFACEOUTERBOUND(#477,.T.);
#479= IFCFACE((#478));
#480= IFCCARTESIANPOINT((434.,-3.,-1.81898940354586E-12));
#481= IFCCARTESIANPOINT((434.,3.,-1.81898940354586E-12));
#482= IFCPOLYLOOP((#475,#480,#481,#476));
#483= IFCFACEOUTERBOUND(#482,.T.);
#484= IFCFACE((#483));
#485= IFCPOLYLOOP((#480,#468,#471,#481));
#486= IFCFACEOUTERBOUND(#485,.T.);
#487= IFCFACE((#486));
#488= IFCPOLYLOOP((#476,#481,#471,#470));
#489= IFCFACEOUTERBOUND(#488,.T.);
#490= IFCFACE((#489));
#491= IFCPOLYLOOP((#480,#475,#469,#468));
#492= IFCFACEOUTERBOUND(#491,.T.);
#493= IFCFACE((#492));
#494= IFCCLOSEDSHELL((#474,#479,#484,#487,#490,#493));
#495= IFCFACETEDBREP(#494);
#496= IFCSTYLEDITEM(#495,(#467),$);
#497= IFCSHAPEREPRESENTATION(#12,'Body','Brep',(#495));
#498= IFCPRODUCTDEFINITIONSHAPE($,$,(#497));
#499= IFCCARTESIANPOINT((56806.9999438918,16198.6985892062,10058.000192177));
#500= IFCAXIS2PLACEMENT3D(#499,#9,#288);
#501= IFCLOCALPLACEMENT(#42,#500);
#502= IFCPLATE('1EbfNFRZjBLRbuooHdUh1G',#44,'PLATE-6','PL6*234',$,#501,#498,'ID4e9695cf-6e3b-4b55-b978-cb24677ab050');
#503= IFCPLATETYPE('2BkGs6agvDTQHiwk8JX2Db',#5,'PL6*234',$,$,$,$,$,$,.NOTDEFINED.);
#504= IFCPROPERTYSINGLEVALUE('Bottom elevation',$,IFCLABEL(' +10.058'),$);
#505= IFCPROPERTYSINGLEVALUE('Top elevation',$,IFCLABEL(' +10.292'),$);
#506= IFCPROPERTYSINGLEVALUE('Initial GUID',$,$,$);
#507= IFCPROPERTYSINGLEVALUE('Preliminary mark',$,IFCLABEL('5-1-P62'),$);
#508= IFCPROPERTYSINGLEVALUE('Phase',$,IFCINTEGER(4),$);
#509= IFCPROPERTYSINGLEVALUE('Class',$,IFCLABEL('18'),$);
#510= IFCPROPERTYSET('0XOpcTiJz2xf1iPMwHM2$f',#5,'Tekla Common','Common Properties to Shared building elements',(#504,#505,#506,#507,#508,#509));
#511= IFCPROPERTYSINGLEVALUE('Weight',$,IFCMASSMEASURE(4.78),$);
#512= IFCPROPERTYSINGLEVALUE('Volume',$,IFCVOLUMEMEASURE(0.001),$);
#513= IFCPROPERTYSINGLEVALUE('Gross footprint area',$,IFCAREAMEASURE(0.003),$);
#514= IFCPROPERTYSINGLEVALUE('Area per tons',$,IFCAREAMEASURE(44.139),$);
#515= IFCPROPERTYSINGLEVALUE('Net surface area',$,IFCAREAMEASURE(0.211),$);
#516= IFCPROPERTYSINGLEVALUE('Height',$,IFCLENGTHMEASURE(234.),$);
#517= IFCPROPERTYSINGLEVALUE('Width',$,IFCLENGTHMEASURE(6.),$);
#518= IFCPROPERTYSINGLEVALUE('Length',$,IFCLENGTHMEASURE(434.),$);
#519= IFCPROPERTYSET('3Jsv6NW6P8URvB4hy24UJM',#5,'Tekla Quantity','Quantity Properties to Shared building elements',(#511,#512,#513,#514,#515,#516,#517,#518));
#520= IFCPROPERTYSINGLEVALUE('LoadBearing',$,IFCBOOLEAN(.F.),$);
#521= IFCPROPERTYSINGLEVALUE('Reference',$,IFCIDENTIFIER('5-1-P62'),$);
#522= IFCPROPERTYSET('3Nea8FcrbF4vFitvxRKiJ5',#5,'Pset_PlateCommon','Common Properties to plate elements',(#520,#521));
#523= IFCQUANTITYLENGTH('Width',$,$,234.000000000002);
#524= IFCQUANTITYAREA('NetArea',$,$,0.211128000000001);
#525= IFCQUANTITYAREA('GrossArea',$,$,0.101556000000001);
#526= IFCQUANTITYAREA('CrossSectionArea',$,$,3.6E-05);
#527= IFCQUANTITYVOLUME('NetVolume',$,$,0.000609336000000002);
#528= IFCQUANTITYVOLUME('GrossVolume',$,$,0.000609336000000002);
#529= IFCELEMENTQUANTITY('0k7VdecZH8R9nhNFDcTk$M',#5,'BaseQuantities',$,$,(#523,#524,#525,#526,#527,#528));
#530= IFCMATERIAL('STEEL/S275');
#531= IFCSHAPEREPRESENTATION(#12,'Body','Brep',(#495));
#532= IFCPRODUCTDEFINITIONSHAPE($,$,(#531));
#533= IFCCARTESIANPOINT((56372.9998779297,7118.62013732908,10058.0001907349));
#534= IFCAXIS2PLACEMENT3D(#533,#9,#7);
#535= IFCLOCALPLACEMENT(#42,#534);
#536= IFCPLATE('2Sf$4qkBf8j9aVXMZzuN$D',#44,'PLATE-6','PL6*234',$,#535,#532,'ID9ca7f134-b8ba-48b4-991f-8568fde17fcd');
#537= IFCCOLOURRGB('Dark Magenta',0.572549019607843,0.219607843137255,0.694117647058824);
#538= IFCSURFACESTYLERENDERING(#537,0.,$,$,$,$,IFCNORMALISEDRATIOMEASURE(0.00390625),IFCSPECULAREXPONENT(10.),.NOTDEFINED.);
#539= IFCSURFACESTYLE('STEEL/S275',.POSITIVE.,(#538));
#540= IFCPRESENTATIONSTYLEASSIGNMENT((#539));
#541= IFCCARTESIANPOINT((-8.9130480773747E-11,117.,-217.));
#542= IFCCARTESIANPOINT((8.9130480773747E-11,-117.000000000002,-217.));
#543= IFCCARTESIANPOINT((9106.07845187088,-116.999999993068,-217.));
#544= IFCCARTESIANPOINT((9106.07845187071,117.000000006934,-217.));
#545= IFCPOLYLOOP((#541,#542,#543,#544));
#546= IFCFACEOUTERBOUND(#545,.T.);
#547= IFCFACE((#546));
#548= IFCCARTESIANPOINT((8.9130480773747E-11,-117.000000000002,217.));
#549= IFCCARTESIANPOINT((9106.07845187088,-116.999999993068,217.));
#550= IFCPOLYLOOP((#542,#548,#549,#543));
#551= IFCFACEOUTERBOUND(#550,.T.);
#552= IFCFACE((#551));
#553= IFCCARTESIANPOINT((-8.9130480773747E-11,117.,217.));
#554= IFCCARTESIANPOINT((9106.07845187071,117.000000006934,217.));
#555= IFCPOLYLOOP((#548,#553,#554,#549));
#556= IFCFACEOUTERBOUND(#555,.T.);
#557= IFCFACE((#556));
#558= IFCPOLYLOOP((#553,#541,#544,#554));
#559= IFCFACEOUTERBOUND(#558,.T.);
#560= IFCFACE((#559));
#561= IFCCARTESIANPOINT((-9.45874489843845E-11,125.,-225.));
#562= IFCCARTESIANPOINT((-9.45874489843845E-11,125.,225.));
#563= IFCCARTESIANPOINT((9106.0784518707,125.000000006934,225.));
#564= IFCCARTESIANPOINT((9106.0784518707,125.000000006934,-225.));
#565= IFCPOLYLOOP((#561,#562,#563,#564));
#566= IFCFACEOUTERBOUND(#565,.T.);
#567= IFCFACE((#566));
#568= IFCCARTESIANPOINT((9.45874489843845E-11,-125.000000000002,225.));
#569= IFCCARTESIANPOINT((9106.07845187089,-124.999999993068,225.));
#570= IFCPOLYLOOP((#562,#568,#569,#563));
#571= IFCFACEOUTERBOUND(#570,.T.);
#572= IFCFACE((#571));
#573= IFCCARTESIANPOINT((9.45874489843845E-11,-125.000000000002,-225.));
#574= IFCCARTESIANPOINT((9106.07845187089,-124.999999993068,-225.));
#575= IFCPOLYLOOP((#568,#573,#574,#569));
#576= IFCFACEOUTERBOUND(#575,.T.);
#577= IFCFACE((#576));
#578= IFCPOLYLOOP((#573,#561,#564,#574));
#579= IFCFACEOUTERBOUND(#578,.T.);
#580= IFCFACE((#579));
#581= IFCPOLYLOOP((#569,#574,#564,#563));
#582= IFCFACEOUTERBOUND(#581,.T.);
#583= IFCPOLYLOOP((#549,#554,#544,#543));
#584= IFCFACEBOUND(#583,.T.);
#585= IFCFACE((#582,#584));
#586= IFCPOLYLOOP((#573,#568,#562,#561));
#587= IFCFACEOUTERBOUND(#586,.T.);
#588= IFCPOLYLOOP((#553,#548,#542,#541));
#589= IFCFACEBOUND(#588,.T.);
#590= IFCFACE((#587,#589));
#591= IFCCLOSEDSHELL((#547,#552,#557,#560,#567,#572,#577,#580,#585,#590));
#592= IFCFACETEDBREP(#591);
#593= IFCSTYLEDITEM(#592,(#540),$);
#594= IFCSHAPEREPRESENTATION(#12,'Body','Brep',(#592));
#595= IFCPRODUCTDEFINITIONSHAPE($,$,(#594));
#596= IFCCARTESIANPOINT((56589.9998778803,16211.6985892002,10174.9995373929));
#597= IFCDIRECTION((0.,-0.999999999999997,7.19999999828598E-08));
#598= IFCAXIS2PLACEMENT3D(#596,#7,#597);
#599= IFCLOCALPLACEMENT(#42,#598);
#600= IFCBEAM('2lHJr3r7fCYfhypmYcMFX0',#44,'B5-\S\?\S\Z450x250x8','TUB450X250X8',$,#599,#595,'IDaf453d43-d47a-4c8a-9afc-cf08a658f840');
#601= IFCBEAMTYPE('28Wh_TkMH6XfyPm4i0ZB8V',#5,'TUB450X250X8',$,$,$,$,$,$,.NOTDEFINED.);
#602= IFCPROPERTYSINGLEVALUE('Bottom elevation',$,IFCLABEL(' +10.050'),$);
#603= IFCPROPERTYSINGLEVALUE('Top elevation',$,IFCLABEL(' +10.300'),$);
#604= IFCPROPERTYSINGLEVALUE('Preliminary mark',$,IFCLABEL('5-1-P52'),$);
#605= IFCPROPERTYSINGLEVALUE('Class',$,IFCLABEL('7'),$);
#606= IFCPROPERTYSET('2mbXD4aa10OvEm4$m_Hr1P',#5,'Tekla Common','Common Properties to Shared building elements',(#602,#603,#506,#604,#508,#605));
#607= IFCPROPERTYSINGLEVALUE('Weight',$,IFCMASSMEASURE(782.31),$);
#608= IFCPROPERTYSINGLEVALUE('Volume',$,IFCVOLUMEMEASURE(0.1),$);
#609= IFCPROPERTYSINGLEVALUE('Gross footprint area',$,IFCAREAMEASURE(4.098),$);
#610= IFCPROPERTYSINGLEVALUE('Area per tons',$,IFCAREAMEASURE(16.226),$);
#611= IFCPROPERTYSINGLEVALUE('Net surface area',$,IFCAREAMEASURE(12.694),$);
#612= IFCPROPERTYSINGLEVALUE('Height',$,IFCLENGTHMEASURE(450.),$);
#613= IFCPROPERTYSINGLEVALUE('Width',$,IFCLENGTHMEASURE(250.),$);
#614= IFCPROPERTYSINGLEVALUE('Length',$,IFCLENGTHMEASURE(9106.1),$);
#615= IFCPROPERTYSET('3ETveGN4j4wB7jqeLk1YSK',#5,'Tekla Quantity','Quantity Properties to Shared building elements',(#607,#608,#609,#610,#611,#612,#613,#614));
#616= IFCPROPERTYSINGLEVALUE('Reference',$,IFCIDENTIFIER('5-1-P52'),$);
#617= IFCPROPERTYSET('3HYVwrOY1ESBtqsxCJPWOO',#5,'Pset_BeamCommon','Common Properties to beam elements',(#520,#616));
#618= IFCQUANTITYLENGTH('Length',$,$,9106.07845187077);
#619= IFCQUANTITYAREA('OuterSurfaceArea',$,$,12.6937255542345);
#620= IFCQUANTITYVOLUME('NetVolume',$,$,0.0996569225772735);
#621= IFCQUANTITYWEIGHT('NetWeight',$,$,782.306842231597);
#622= IFCELEMENTQUANTITY('0QOpj4o5j3JeTg$2xNboTP',#5,'BaseQuantities',$,$,(#618,#619,#620,#621));
#623= IFCRELAGGREGATES('2YBxBxPnL8cg024T0xdLoG',#5,$,$,#37,(#39));
#624= IFCRELAGGREGATES('09_pfUaM16IQsdhS5kz2A5',#5,$,$,#39,(#41));
#625= IFCRELAGGREGATES('0y9IgaKk1FoAwUwUp1wB8f',#5,$,$,#41,(#43));
#626= IFCRELCONTAINEDINSPATIALSTRUCTURE('2H7gKIISD2X8LlkxuDdiUn',#5,$,$,(#600,#536,#502,#463,#385,#305,#291,#207,#199,#192,#185,#178,#169,#161,#133),#43);
#627= IFCRELDEFINESBYPROPERTIES('3CeB_SCfP2K9UgeymzST$I',#5,$,$,(#207,#199,#192,#185,#178,#169,#161,#133),#151);
#628= IFCRELDEFINESBYPROPERTIES('0_HxYURSn5IONN$U_qFvx1',#5,$,$,(#463,#385,#305,#291),#297);
#629= IFCRELDEFINESBYPROPERTIES('1bAhTJD$X6LgdTlAxpKNZr',#5,$,$,(#536,#502),#510);
#630= IFCRELDEFINESBYPROPERTIES('36LpTQKMrAavINKLx1gb1z',#5,$,$,(#536,#502),#519);
#631= IFCRELDEFINESBYPROPERTIES('0qmgQ2HWH6if9Ul4xf6S_7',#5,$,$,(#536,#502),#522);
#632= IFCRELDEFINESBYPROPERTIES('2euTTqp0T10fevXnHwHDLw',#5,$,$,(#536,#502),#529);
#633= IFCRELDEFINESBYPROPERTIES('3Sm6IPHFPCVPcRWXpC5tE4',#5,$,$,(#600),#606);
#634= IFCRELDEFINESBYPROPERTIES('1cdxPJxbnCtBzZtgLfrC2U',#5,$,$,(#600),#615);
#635= IFCRELDEFINESBYPROPERTIES('39SoPWzaH8xAiV8XXu2lJq',#5,$,$,(#600),#617);
#636= IFCRELDEFINESBYPROPERTIES('3wrWSmU2z1ggOu3SVl7gYz',#5,$,$,(#600),#622);
#637= IFCRELDEFINESBYTYPE('1xLPyEA7H1WPiBxAj$oTvy',#5,$,$,(#463,#385,#305,#291,#207,#199,#192,#185,#178,#169,#161,#133),#134);
#638= IFCRELDEFINESBYTYPE('1HALfnRBrCD8bsclYkEGuq',#5,$,$,(#536,#502),#503);
#639= IFCRELDEFINESBYTYPE('1lYRuYv5HCLv0ZCZTFSwlT',#5,$,$,(#600),#601);
#640= IFCRELASSOCIATESMATERIAL('2_4$SWalPFjOWftv6Q6zUk',#5,$,$,(#207,#199,#192,#185,#178,#169,#161,#133),#152);
#641= IFCRELASSOCIATESMATERIAL('0h_acYKVf5CPYBCZMg28X7',#5,$,$,(#463,#385,#305,#291),#298);
#642= IFCRELASSOCIATESMATERIAL('3DoGsqprj3NAPr3SJ1Dmew',#5,$,$,(#600,#536,#502),#530);
#643= IFCPRESENTATIONLAYERASSIGNMENT('BoltArray',$,(#126,#154,#163,#171,#180,#187,#194,#201,#285,#300,#378,#458),$);
#644= IFCPRESENTATIONLAYERASSIGNMENT('PLATE-6',$,(#497,#531),$);
#645= IFCPRESENTATIONLAYERASSIGNMENT('B5-\S\?\S\Z450x250x8',$,(#594),$);
ENDSEC;

END-ISO-10303-21;
