ISO-10303-21;
HEADER;
FILE_DESCRIPTION(('ViewDefinition[CoordinationView_V2.0, QuantityTakeOffAddOnView]', 'ExchangeRequirement[Structural, SurfaceGeometry]', 'Option [BaseQuantities:On]', 'Option [GridExport:On]', 'Option [Assemblies:Off]', 'Option [Bolts:On]', 'Option [Rebars:On]', 'Option [PourObjects:Off]', 'Option [Welds:Off]', 'Option [SurfaceTreatments:On]', 'Option [LocationBy:0]', 'Option [ViewColors:Off]', 'Option [SectionedSpine:Off]', 'Option [PropertySets:On]', 'Option [Export all:Off]'),'2;1');
FILE_NAME('5-1-A23.ifc','2026-03-10T09:15:06',('DESKTOP-NLV509P\\Ahmed'),('Structural Designer'),'IFC Parser version: 3.13.2','Tekla Structures 2023 Service Pack 8, IFC Export Version: 4.0.0.0 Jan 19 2024','');
FILE_SCHEMA(('IFC2X3'));
ENDSEC;

DATA;
#1= IFCPERSON('DESKTOP-NLV509P\\Ahmed','Undefined',$,$,$,$,$,$);
#2= IFCORGANIZATION($,'Trimble Solutions Corporation',$,$,$);
#3= IFCPERSONANDORGANIZATION(#1,#2,$);
#4= IFCAPPLICATION(#2,'2023 Service Pack 8','Tekla Structures','Multi material modeling');
#5= IFCOWNERHISTORY(#3,#4,$,.NOCHANGE.,$,$,$,1773123306);
#6= IFCCARTESIANPOINT((0.,0.,0.));
#7= IFCDIRECTION((1.,0.,0.));
#8= IFCDIRECTION((0.,1.,0.));
#9= IFCDIRECTION((0.,0.,1.));
#10= IFCAXIS2PLACEMENT3D(#6,#9,#7);
#11= IFCGEOMETRICREPRESENTATIONCONTEXT($,'Model',3,1.E-05,#10,$);
#12= IFCGEOMETRICREPRESENTATIONSUBCONTEXT('Body','Model',*,*,*,*,#11,$,.MODEL_VIEW.,$);
#13= IFCGEOMETRICREPRESENTATIONSUBCONTEXT('Axis','Model',*,*,*,*,#11,$,.GRAPH_VIEW.,$);
#14= IFCGEOMETRICREPRESENTATIONSUBCONTEXT('FootPrint','Model',*,*,*,*,#11,$,.MODEL_VIEW.,$);
#15= IFCSIUNIT(*,.LENGTHUNIT.,.MILLI.,.METRE.);
#16= IFCMEASUREWITHUNIT(IFCRATIOMEASURE(304.8),#15);
#17= IFCDIMENSIONALEXPONENTS(1,0,0,0,0,0,0);
#18= IFCCONVERSIONBASEDUNIT(#17,.LENGTHUNIT.,'FOOT',#16);
#19= IFCSIUNIT(*,.AREAUNIT.,$,.SQUARE_METRE.);
#20= IFCMEASUREWITHUNIT(IFCRATIOMEASURE(0.09290304),#19);
#21= IFCDIMENSIONALEXPONENTS(2,0,0,0,0,0,0);
#22= IFCCONVERSIONBASEDUNIT(#21,.AREAUNIT.,'SQUARE FOOT',#20);
#23= IFCSIUNIT(*,.VOLUMEUNIT.,$,.CUBIC_METRE.);
#24= IFCMEASUREWITHUNIT(IFCRATIOMEASURE(0.028316846592),#23);
#25= IFCDIMENSIONALEXPONENTS(3,0,0,0,0,0,0);
#26= IFCCONVERSIONBASEDUNIT(#25,.VOLUMEUNIT.,'CUBIC FOOT',#24);
#27= IFCSIUNIT(*,.MASSUNIT.,.KILO.,.GRAM.);
#28= IFCSIUNIT(*,.TIMEUNIT.,$,.SECOND.);
#29= IFCSIUNIT(*,.PLANEANGLEUNIT.,$,.RADIAN.);
#30= IFCMEASUREWITHUNIT(IFCRATIOMEASURE(0.0174532925199433),#29);
#31= IFCDIMENSIONALEXPONENTS(0,0,0,0,0,0,0);
#32= IFCCONVERSIONBASEDUNIT(#31,.PLANEANGLEUNIT.,'DEGREE',#30);
#33= IFCSIUNIT(*,.SOLIDANGLEUNIT.,$,.STERADIAN.);
#34= IFCSIUNIT(*,.THERMODYNAMICTEMPERATUREUNIT.,$,.DEGREE_CELSIUS.);
#35= IFCSIUNIT(*,.LUMINOUSINTENSITYUNIT.,$,.LUMEN.);
#36= IFCUNITASSIGNMENT((#15,#19,#23,#27,#28,#29,#33,#34,#35));
#37= IFCPROJECT('3j2Q_ZsXrClwCCa9a08mHJ',#5,'Undefined',$,$,$,$,(#11),#36);
#38= IFCLOCALPLACEMENT($,#10);
#39= IFCSITE('1mL5UARXrBZevIO4Q8Zx_c',#5,'Undefined',$,$,#38,$,$,.ELEMENT.,$,$,$,$,$);
#40= IFCLOCALPLACEMENT(#38,#10);
#41= IFCBUILDING('3JrY9lxSrDHBaJ0yRWBGlo',#5,'Undefined',$,$,#40,$,$,.ELEMENT.,$,$,$);
#42= IFCLOCALPLACEMENT(#40,#10);
#43= IFCBUILDINGSTOREY('3gJPpYF7LCbf7I109fNVl5',#5,'Undefined',$,$,#42,$,$,.ELEMENT.,0.);
#44= IFCOWNERHISTORY(#3,#4,$,.NOCHANGE.,$,$,$,1770840000);
#45= IFCCOLOURRGB($,0.698039215686274,0.4,0.);
#46= IFCSURFACESTYLERENDERING(#45,0.,$,$,$,$,IFCNORMALISEDRATIOMEASURE(0.00390625),IFCSPECULAREXPONENT(10.),.NOTDEFINED.);
#47= IFCSURFACESTYLE('EVENT',.POSITIVE.,(#46));
#48= IFCPRESENTATIONSTYLEASSIGNMENT((#47));
#49= IFCCARTESIANPOINT((7.5,-3.,0.));
#50= IFCCARTESIANPOINT((6.49519052838316,-3.,3.75000000000022));
#51= IFCCARTESIANPOINT((3.74999999999955,-3.,6.49519052838355));
#52= IFCCARTESIANPOINT((-7.77251986200242E-13,-3.,7.5));
#53= IFCCARTESIANPOINT((-3.7500000000009,-3.,6.49519052838277));
#54= IFCCARTESIANPOINT((-6.49519052838394,-3.,3.74999999999888));
#55= IFCCARTESIANPOINT((-7.5,-3.,-1.55450397240048E-12));
#56= IFCCARTESIANPOINT((-6.49519052838238,-3.,-3.75000000000157));
#57= IFCCARTESIANPOINT((-3.74999999999821,-3.,-6.49519052838432));
#58= IFCCARTESIANPOINT((2.32342928591604E-12,-3.,-7.5));
#59= IFCCARTESIANPOINT((3.75000000000224,-3.,-6.495190528382));
#60= IFCCARTESIANPOINT((6.49519052838471,-3.,-3.74999999999753));
#61= IFCCARTESIANPOINT((7.5,3.1,0.));
#62= IFCCARTESIANPOINT((6.49519052838316,3.1,3.75000000000022));
#63= IFCCARTESIANPOINT((3.74999999999955,3.1,6.49519052838355));
#64= IFCCARTESIANPOINT((-7.77251986200242E-13,3.1,7.5));
#65= IFCCARTESIANPOINT((-3.7500000000009,3.1,6.49519052838277));
#66= IFCCARTESIANPOINT((-6.49519052838394,3.1,3.74999999999888));
#67= IFCCARTESIANPOINT((-7.5,3.1,-1.55450397240048E-12));
#68= IFCCARTESIANPOINT((-6.49519052838238,3.1,-3.75000000000157));
#69= IFCCARTESIANPOINT((-3.74999999999821,3.1,-6.49519052838432));
#70= IFCCARTESIANPOINT((2.32342928591604E-12,3.1,-7.5));
#71= IFCCARTESIANPOINT((3.75000000000224,3.1,-6.495190528382));
#72= IFCCARTESIANPOINT((6.49519052838471,3.1,-3.74999999999753));
#73= IFCPOLYLOOP((#49,#50,#51,#52,#53,#54,#55,#56,#57,#58,#59,#60));
#74= IFCFACEOUTERBOUND(#73,.T.);
#75= IFCFACE((#74));
#76= IFCPOLYLOOP((#72,#71,#70,#69,#68,#67,#66,#65,#64,#63,#62,#61));
#77= IFCFACEOUTERBOUND(#76,.T.);
#78= IFCFACE((#77));
#79= IFCPOLYLOOP((#49,#61,#62,#50));
#80= IFCFACEOUTERBOUND(#79,.T.);
#81= IFCFACE((#80));
#82= IFCPOLYLOOP((#50,#62,#63,#51));
#83= IFCFACEOUTERBOUND(#82,.T.);
#84= IFCFACE((#83));
#85= IFCPOLYLOOP((#51,#63,#64,#52));
#86= IFCFACEOUTERBOUND(#85,.T.);
#87= IFCFACE((#86));
#88= IFCPOLYLOOP((#52,#64,#65,#53));
#89= IFCFACEOUTERBOUND(#88,.T.);
#90= IFCFACE((#89));
#91= IFCPOLYLOOP((#53,#65,#66,#54));
#92= IFCFACEOUTERBOUND(#91,.T.);
#93= IFCFACE((#92));
#94= IFCPOLYLOOP((#54,#66,#67,#55));
#95= IFCFACEOUTERBOUND(#94,.T.);
#96= IFCFACE((#95));
#97= IFCPOLYLOOP((#55,#67,#68,#56));
#98= IFCFACEOUTERBOUND(#97,.T.);
#99= IFCFACE((#98));
#100= IFCPOLYLOOP((#56,#68,#69,#57));
#101= IFCFACEOUTERBOUND(#100,.T.);
#102= IFCFACE((#101));
#103= IFCPOLYLOOP((#57,#69,#70,#58));
#104= IFCFACEOUTERBOUND(#103,.T.);
#105= IFCFACE((#104));
#106= IFCPOLYLOOP((#58,#70,#71,#59));
#107= IFCFACEOUTERBOUND(#106,.T.);
#108= IFCFACE((#107));
#109= IFCPOLYLOOP((#59,#71,#72,#60));
#110= IFCFACEOUTERBOUND(#109,.T.);
#111= IFCFACE((#110));
#112= IFCPOLYLOOP((#60,#72,#61,#49));
#113= IFCFACEOUTERBOUND(#112,.T.);
#114= IFCFACE((#113));
#115= IFCCLOSEDSHELL((#75,#78,#81,#84,#87,#90,#93,#96,#99,#102,#105,#108,#111,#114));
#116= IFCCOLOURRGB($,0.,0.,0.);
#117= IFCSURFACESTYLERENDERING(#116,0.,$,$,$,$,IFCNORMALISEDRATIOMEASURE(0.00390625),IFCSPECULAREXPONENT(10.),.NOTDEFINED.);
#118= IFCSURFACESTYLE($,.POSITIVE.,(#117));
#119= IFCPRESENTATIONSTYLEASSIGNMENT((#118));
#120= IFCFACETEDBREP(#115);
#121= IFCSTYLEDITEM(#120,(#119),$);
#122= IFCCARTESIANTRANSFORMATIONOPERATOR3D($,$,#6,$,$);
#123= IFCSHAPEREPRESENTATION(#12,'Body','Brep',(#120));
#124= IFCREPRESENTATIONMAP(#10,#123);
#125= IFCMAPPEDITEM(#124,#122);
#126= IFCSHAPEREPRESENTATION(#12,'Body','MappedRepresentation',(#125));
#127= IFCPRODUCTDEFINITIONSHAPE($,$,(#126));
#128= IFCCARTESIANPOINT((56415.4998779297,26207.3809002686,10100.5001907349));
#129= IFCDIRECTION((-0.392646749111162,0.,0.919689366260389));
#130= IFCDIRECTION((0.91968936626039,0.,0.392646749111161));
#131= IFCAXIS2PLACEMENT3D(#128,#129,#130);
#132= IFCLOCALPLACEMENT(#42,#131);
#133= IFCMECHANICALFASTENER('1t4XRNntvBpxUOW1Cwz6fJ',#44,'Bolt assembly',$,$,#132,#127,'ID771216d7-c77e-4bcf-b798-80133af46a53',15.,6.);
#134= IFCMECHANICALFASTENERTYPE('31YmzmgPX7qB01vW0IsX_8',#5,'Bolt assembly',$,$,$,$,$,$);
#135= IFCPROPERTYSINGLEVALUE('Washer count',$,IFCINTEGER(0),$);
#136= IFCPROPERTYSINGLEVALUE('Washer diameter',$,IFCLENGTHMEASURE(15.),$);
#137= IFCPROPERTYSINGLEVALUE('Washer type',$,IFCLABEL(''),$);
#138= IFCPROPERTYSINGLEVALUE('Washer name',$,IFCLABEL(''),$);
#139= IFCPROPERTYSINGLEVALUE('Nut count',$,IFCINTEGER(0),$);
#140= IFCPROPERTYSINGLEVALUE('Nut type',$,IFCLABEL(''),$);
#141= IFCPROPERTYSINGLEVALUE('Nut name',$,IFCLABEL(''),$);
#142= IFCPROPERTYSINGLEVALUE('Slotted hole y',$,IFCLENGTHMEASURE(0.),$);
#143= IFCPROPERTYSINGLEVALUE('Slotted hole x',$,IFCLENGTHMEASURE(0.),$);
#144= IFCPROPERTYSINGLEVALUE('Bolt hole diameter',$,IFCLENGTHMEASURE(15.),$);
#145= IFCPROPERTYSINGLEVALUE('Location',$,IFCLABEL('Site'),$);
#146= IFCPROPERTYSINGLEVALUE('Bolt count',$,IFCINTEGER(1),$);
#147= IFCPROPERTYSINGLEVALUE('Bolt size',$,IFCLENGTHMEASURE(15.),$);
#148= IFCPROPERTYSINGLEVALUE('Bolt length',$,IFCLENGTHMEASURE(6.),$);
#149= IFCPROPERTYSINGLEVALUE('Bolt standard',$,IFCLABEL('EVENT'),$);
#150= IFCPROPERTYSINGLEVALUE('Bolt Name',$,IFCLABEL(''),$);
#151= IFCPROPERTYSET('1KgK02cjrCiQIb8dizVkoU',#5,'Tekla Bolt','Bolt Properties',(#135,#136,#137,#138,#139,#140,#141,#142,#143,#144,#145,#146,#147,#148,#149,#150));
#152= IFCMATERIAL('EVENT');
#153= IFCMAPPEDITEM(#124,#122);
#154= IFCSHAPEREPRESENTATION(#12,'Body','MappedRepresentation',(#153));
#155= IFCPRODUCTDEFINITIONSHAPE($,$,(#154));
#156= IFCCARTESIANPOINT((56415.4998779297,26207.3809002686,10249.5001907349));
#157= IFCDIRECTION((-0.392646749111162,0.,-0.919689366260389));
#158= IFCDIRECTION((0.91968936626039,0.,-0.392646749111161));
#159= IFCAXIS2PLACEMENT3D(#156,#157,#158);
#160= IFCLOCALPLACEMENT(#42,#159);
#161= IFCMECHANICALFASTENER('32EAdLHmr0LOTPlOlGOeir',#44,'Bolt assembly',$,$,#160,#155,'IDc238a9d5-470d-4055-8759-bd8bd0628b35',15.,6.);
#162= IFCMAPPEDITEM(#124,#122);
#163= IFCSHAPEREPRESENTATION(#12,'Body','MappedRepresentation',(#162));
#164= IFCPRODUCTDEFINITIONSHAPE($,$,(#163));
#165= IFCCARTESIANPOINT((56764.4998779297,26207.3809002686,10249.5001907349));
#166= IFCDIRECTION((-0.91968936626039,0.,-0.392646749111161));
#167= IFCAXIS2PLACEMENT3D(#165,#129,#166);
#168= IFCLOCALPLACEMENT(#42,#167);
#169= IFCMECHANICALFASTENER('0Dv38JeU1Bgx3AjUMBrTwI',#44,'Bolt assembly',$,$,#168,#164,'ID0de43213-a1e0-4bab-b0ca-b5e58bd5de92',15.,6.);
#170= IFCMAPPEDITEM(#124,#122);
#171= IFCSHAPEREPRESENTATION(#12,'Body','MappedRepresentation',(#170));
#172= IFCPRODUCTDEFINITIONSHAPE($,$,(#171));
#173= IFCCARTESIANPOINT((56764.4998779297,26207.3809002686,10100.5001907349));
#174= IFCDIRECTION((0.392646749111162,0.,0.919689366260389));
#175= IFCDIRECTION((-0.91968936626039,0.,0.392646749111161));
#176= IFCAXIS2PLACEMENT3D(#173,#174,#175);
#177= IFCLOCALPLACEMENT(#42,#176);
#178= IFCMECHANICALFASTENER('03a_LGS3P4_RnvNPWAKiw7',#44,'Bolt assembly',$,$,#177,#172,'ID0393e550-7036-44f9-bc79-5d980a52ce87',15.,6.);
#179= IFCMAPPEDITEM(#124,#122);
#180= IFCSHAPEREPRESENTATION(#12,'Body','MappedRepresentation',(#179));
#181= IFCPRODUCTDEFINITIONSHAPE($,$,(#180));
#182= IFCCARTESIANPOINT((56415.4998779297,17119.7301373291,10249.5001907349));
#183= IFCAXIS2PLACEMENT3D(#182,#157,#158);
#184= IFCLOCALPLACEMENT(#42,#183);
#185= IFCMECHANICALFASTENER('215tokBhvFjBACqk8e$eyH',#44,'Bolt assembly',$,$,#184,#181,'ID81177cae-2ebe-4fb4-b28c-d2e228fe8f11',15.,6.);
#186= IFCMAPPEDITEM(#124,#122);
#187= IFCSHAPEREPRESENTATION(#12,'Body','MappedRepresentation',(#186));
#188= IFCPRODUCTDEFINITIONSHAPE($,$,(#187));
#189= IFCCARTESIANPOINT((56415.4998779297,17119.7301373291,10100.5001907349));
#190= IFCAXIS2PLACEMENT3D(#189,#129,#130);
#191= IFCLOCALPLACEMENT(#42,#190);
#192= IFCMECHANICALFASTENER('3EEUKQzaX0Geh8cl0apzfB',#44,'Bolt assembly',$,$,#191,#188,'IDce39e51a-f648-4042-8ac8-9af024cfda4b',15.,6.);
#193= IFCMAPPEDITEM(#124,#122);
#194= IFCSHAPEREPRESENTATION(#12,'Body','MappedRepresentation',(#193));
#195= IFCPRODUCTDEFINITIONSHAPE($,$,(#194));
#196= IFCCARTESIANPOINT((56764.4998779297,17119.7301373291,10100.5001907349));
#197= IFCAXIS2PLACEMENT3D(#196,#157,#175);
#198= IFCLOCALPLACEMENT(#42,#197);
#199= IFCMECHANICALFASTENER('0UiTogkKr5ChSfiKO3hnTI',#44,'Bolt assembly',$,$,#198,#195,'ID1eb1dcaa-b94d-4532-b729-b14603af1752',15.,6.);
#200= IFCMAPPEDITEM(#124,#122);
#201= IFCSHAPEREPRESENTATION(#12,'Body','MappedRepresentation',(#200));
#202= IFCPRODUCTDEFINITIONSHAPE($,$,(#201));
#203= IFCCARTESIANPOINT((56764.4998779297,17119.7301373291,10249.5001907349));
#204= IFCDIRECTION((0.392646749111162,0.,-0.919689366260389));
#205= IFCAXIS2PLACEMENT3D(#203,#204,#166);
#206= IFCLOCALPLACEMENT(#42,#205);
#207= IFCMECHANICALFASTENER('2iLb9vzcz5YwxIf7HOfUNv',#44,'Bolt assembly',$,$,#206,#202,'IDac565279-f66f-458b-aed2-a47458a5e5f9',15.,6.);
#208= IFCOWNERHISTORY(#3,#4,$,.NOCHANGE.,$,$,$,1770796800);
#209= IFCSURFACESTYLE('TS10.9',.POSITIVE.,(#46));
#210= IFCPRESENTATIONSTYLEASSIGNMENT((#209));
#211= IFCCARTESIANPOINT((11.,36.0000000039709,0.));
#212= IFCCARTESIANPOINT((9.52627944162863,36.0000000039709,5.50000000000033));
#213= IFCCARTESIANPOINT((5.49999999999934,36.0000000039709,9.5262794416292));
#214= IFCCARTESIANPOINT((-1.13996957976035E-12,36.0000000039709,11.));
#215= IFCCARTESIANPOINT((-5.50000000000131,36.0000000039709,9.52627944162807));
#216= IFCCARTESIANPOINT((-9.52627944162977,36.0000000039709,5.49999999999836));
#217= IFCCARTESIANPOINT((-11.,36.0000000039709,-2.27993915952071E-12));
#218= IFCCARTESIANPOINT((-9.5262794416275,36.0000000039709,-5.5000000000023));
#219= IFCCARTESIANPOINT((-5.49999999999737,36.0000000039709,-9.52627944163034));
#220= IFCCARTESIANPOINT((3.40769628601019E-12,36.0000000039709,-11.));
#221= IFCCARTESIANPOINT((5.50000000000328,36.0000000039709,-9.52627944162693));
#222= IFCCARTESIANPOINT((9.52627944163091,36.0000000039709,-5.49999999999638));
#223= IFCCARTESIANPOINT((11.,286.100000003971,0.));
#224= IFCCARTESIANPOINT((9.52627944162863,286.100000003971,5.50000000000033));
#225= IFCCARTESIANPOINT((5.49999999999934,286.100000003971,9.5262794416292));
#226= IFCCARTESIANPOINT((-1.13996957976035E-12,286.100000003971,11.));
#227= IFCCARTESIANPOINT((-5.50000000000131,286.100000003971,9.52627944162807));
#228= IFCCARTESIANPOINT((-9.52627944162977,286.100000003971,5.49999999999836));
#229= IFCCARTESIANPOINT((-11.,286.100000003971,-2.27993915952071E-12));
#230= IFCCARTESIANPOINT((-9.5262794416275,286.100000003971,-5.5000000000023));
#231= IFCCARTESIANPOINT((-5.49999999999737,286.100000003971,-9.52627944163034));
#232= IFCCARTESIANPOINT((3.40769628601019E-12,286.100000003971,-11.));
#233= IFCCARTESIANPOINT((5.50000000000328,286.100000003971,-9.52627944162693));
#234= IFCCARTESIANPOINT((9.52627944163091,286.100000003971,-5.49999999999638));
#235= IFCPOLYLOOP((#211,#212,#213,#214,#215,#216,#217,#218,#219,#220,#221,#222));
#236= IFCFACEOUTERBOUND(#235,.T.);
#237= IFCFACE((#236));
#238= IFCPOLYLOOP((#234,#233,#232,#231,#230,#229,#228,#227,#226,#225,#224,#223));
#239= IFCFACEOUTERBOUND(#238,.T.);
#240= IFCFACE((#239));
#241= IFCPOLYLOOP((#211,#223,#224,#212));
#242= IFCFACEOUTERBOUND(#241,.T.);
#243= IFCFACE((#242));
#244= IFCPOLYLOOP((#212,#224,#225,#213));
#245= IFCFACEOUTERBOUND(#244,.T.);
#246= IFCFACE((#245));
#247= IFCPOLYLOOP((#213,#225,#226,#214));
#248= IFCFACEOUTERBOUND(#247,.T.);
#249= IFCFACE((#248));
#250= IFCPOLYLOOP((#214,#226,#227,#215));
#251= IFCFACEOUTERBOUND(#250,.T.);
#252= IFCFACE((#251));
#253= IFCPOLYLOOP((#215,#227,#228,#216));
#254= IFCFACEOUTERBOUND(#253,.T.);
#255= IFCFACE((#254));
#256= IFCPOLYLOOP((#216,#228,#229,#217));
#257= IFCFACEOUTERBOUND(#256,.T.);
#258= IFCFACE((#257));
#259= IFCPOLYLOOP((#217,#229,#230,#218));
#260= IFCFACEOUTERBOUND(#259,.T.);
#261= IFCFACE((#260));
#262= IFCPOLYLOOP((#218,#230,#231,#219));
#263= IFCFACEOUTERBOUND(#262,.T.);
#264= IFCFACE((#263));
#265= IFCPOLYLOOP((#219,#231,#232,#220));
#266= IFCFACEOUTERBOUND(#265,.T.);
#267= IFCFACE((#266));
#268= IFCPOLYLOOP((#220,#232,#233,#221));
#269= IFCFACEOUTERBOUND(#268,.T.);
#270= IFCFACE((#269));
#271= IFCPOLYLOOP((#221,#233,#234,#222));
#272= IFCFACEOUTERBOUND(#271,.T.);
#273= IFCFACE((#272));
#274= IFCPOLYLOOP((#222,#234,#223,#211));
#275= IFCFACEOUTERBOUND(#274,.T.);
#276= IFCFACE((#275));
#277= IFCCLOSEDSHELL((#237,#240,#243,#246,#249,#252,#255,#258,#261,#264,#267,#270,#273,#276));
#278= IFCFACETEDBREP(#277);
#279= IFCSTYLEDITEM(#278,(#119),$);
#280= IFCCARTESIANPOINT((40.,0.,40.));
#281= IFCCARTESIANTRANSFORMATIONOPERATOR3D($,$,#280,$,$);
#282= IFCSHAPEREPRESENTATION(#12,'Body','Brep',(#278));
#283= IFCREPRESENTATIONMAP(#10,#282);
#284= IFCMAPPEDITEM(#283,#281);
#285= IFCSHAPEREPRESENTATION(#12,'Body','MappedRepresentation',(#284));
#286= IFCPRODUCTDEFINITIONSHAPE($,$,(#285));
#287= IFCCARTESIANPOINT((56570.0135661308,17166.7221056154,10336.0001907388));
#288= IFCDIRECTION((-1.,0.,0.));
#289= IFCAXIS2PLACEMENT3D(#287,#288,#8);
#290= IFCLOCALPLACEMENT(#42,#289);
#291= IFCMECHANICALFASTENER('0ThJRQ26PEW9xBcthXm_CF',#208,'Bolt assembly',$,$,#290,#286,'ID1dad36da-0866-4e80-9ecb-9b7ae1c3e30f',20.,1250.);
#292= IFCPROPERTYSINGLEVALUE('Washer diameter',$,IFCLENGTHMEASURE(20.),$);
#293= IFCPROPERTYSINGLEVALUE('Bolt hole diameter',$,IFCLENGTHMEASURE(22.),$);
#294= IFCPROPERTYSINGLEVALUE('Bolt size',$,IFCLENGTHMEASURE(22.),$);
#295= IFCPROPERTYSINGLEVALUE('Bolt length',$,IFCLENGTHMEASURE(1250.),$);
#296= IFCPROPERTYSINGLEVALUE('Bolt standard',$,IFCLABEL('TS10.9'),$);
#297= IFCPROPERTYSET('1jM1sEzuv7JOr7InNdqEfp',#5,'Tekla Bolt','Bolt Properties',(#135,#292,#137,#138,#139,#140,#141,#142,#143,#293,#145,#146,#294,#295,#296,#150));
#298= IFCMATERIAL('TS10.9');
#299= IFCMAPPEDITEM(#283,#281);
#300= IFCSHAPEREPRESENTATION(#12,'Body','MappedRepresentation',(#299));
#301= IFCPRODUCTDEFINITIONSHAPE($,$,(#300));
#302= IFCCARTESIANPOINT((56690.0135661308,17166.7221056154,10336.0001907388));
#303= IFCAXIS2PLACEMENT3D(#302,#288,#8);
#304= IFCLOCALPLACEMENT(#42,#303);
#305= IFCMECHANICALFASTENER('1hQsHrUqjD6P4Tr0jIB6TH',#208,'Bolt assembly',$,$,#304,#301,'ID6b6b6475-7b4b-4d19-911d-d40b522c6751',20.,1250.);
#306= IFCMAPPEDITEM(#283,#281);
#307= IFCSHAPEREPRESENTATION(#12,'Body','MappedRepresentation',(#306));
#308= IFCPRODUCTDEFINITIONSHAPE($,$,(#307));
#309= IFCCARTESIANPOINT((56609.9929454901,26160.3782385773,10336.000190738));
#310= IFCDIRECTION((0.999999999398649,-3.46800000297662E-05,0.));
#311= IFCDIRECTION((-3.46800000302409E-05,-0.999999999398649,0.));
#312= IFCAXIS2PLACEMENT3D(#309,#310,#311);
#313= IFCLOCALPLACEMENT(#42,#312);
#314= IFCMECHANICALFASTENER('0ZshCa0bb4if53md4wzSLZ',#208,'Bolt assembly',$,$,#313,#308,'ID23dab324-0259-44b2-9143-c2713af5c563',20.,1250.);
#315= IFCMAPPEDITEM(#283,#281);
#316= IFCSHAPEREPRESENTATION(#12,'Body','MappedRepresentation',(#315));
#317= IFCPRODUCTDEFINITIONSHAPE($,$,(#316));
#318= IFCCARTESIANPOINT((56489.9929455629,26160.3824001768,10336.000190738));
#319= IFCAXIS2PLACEMENT3D(#318,#310,#311);
#320= IFCLOCALPLACEMENT(#42,#319);
#321= IFCMECHANICALFASTENER('1qUULzysf4BgJ1PYO0aKjR',#208,'Bolt assembly',$,$,#320,#317,'ID7479e57d-f36a-442e-a4c1-662600914b5b',20.,1250.);
#322= IFCCOLOURRGB('Dark Blue',0.117647058823529,0.262745098039216,0.513725490196078);
#323= IFCSURFACESTYLERENDERING(#322,0.,$,$,$,$,IFCNORMALISEDRATIOMEASURE(0.00390625),IFCSPECULAREXPONENT(10.),.NOTDEFINED.);
#324= IFCSURFACESTYLE('STEEL/S275',.POSITIVE.,(#323));
#325= IFCPRESENTATIONSTYLEASSIGNMENT((#324));
#326= IFCCARTESIANPOINT((0.,-3.,0.));
#327= IFCCARTESIANPOINT((0.,-3.,234.));
#328= IFCCARTESIANPOINT((0.,3.,234.));
#329= IFCCARTESIANPOINT((0.,3.,0.));
#330= IFCPOLYLOOP((#326,#327,#328,#329));
#331= IFCFACEOUTERBOUND(#330,.T.);
#332= IFCFACE((#331));
#333= IFCCARTESIANPOINT((434.,-3.,234.));
#334= IFCCARTESIANPOINT((434.,3.,234.));
#335= IFCPOLYLOOP((#327,#333,#334,#328));
#336= IFCFACEOUTERBOUND(#335,.T.);
#337= IFCFACE((#336));
#338= IFCCARTESIANPOINT((434.,-3.,-1.81898940354586E-12));
#339= IFCCARTESIANPOINT((434.,3.,-1.81898940354586E-12));
#340= IFCPOLYLOOP((#333,#338,#339,#334));
#341= IFCFACEOUTERBOUND(#340,.T.);
#342= IFCFACE((#341));
#343= IFCPOLYLOOP((#338,#326,#329,#339));
#344= IFCFACEOUTERBOUND(#343,.T.);
#345= IFCFACE((#344));
#346= IFCPOLYLOOP((#334,#339,#329,#328));
#347= IFCFACEOUTERBOUND(#346,.T.);
#348= IFCFACE((#347));
#349= IFCPOLYLOOP((#338,#333,#327,#326));
#350= IFCFACEOUTERBOUND(#349,.T.);
#351= IFCFACE((#350));
#352= IFCCLOSEDSHELL((#332,#337,#342,#345,#348,#351));
#353= IFCFACETEDBREP(#352);
#354= IFCSTYLEDITEM(#353,(#325),$);
#355= IFCSHAPEREPRESENTATION(#12,'Body','Brep',(#353));
#356= IFCPRODUCTDEFINITIONSHAPE($,$,(#355));
#357= IFCCARTESIANPOINT((56806.9998779252,26207.3809002686,10058.0001907381));
#358= IFCAXIS2PLACEMENT3D(#357,#9,#288);
#359= IFCLOCALPLACEMENT(#42,#358);
#360= IFCPLATE('3gBW40vE18hPDOo$8IUuJJ',#44,'PLATE-6','PL6*234',$,#359,#356,'IDea2e0100-e4e0-48ad-9358-cbf2127b84d3');
#361= IFCPLATETYPE('1gxfTG8ETEofVS6SVNllP8',#5,'PL6*234',$,$,$,$,$,$,.NOTDEFINED.);
#362= IFCPROPERTYSINGLEVALUE('Bottom elevation',$,IFCLABEL(' +10.058'),$);
#363= IFCPROPERTYSINGLEVALUE('Top elevation',$,IFCLABEL(' +10.292'),$);
#364= IFCPROPERTYSINGLEVALUE('Initial GUID',$,$,$);
#365= IFCPROPERTYSINGLEVALUE('Preliminary mark',$,IFCLABEL('5-1-P62'),$);
#366= IFCPROPERTYSINGLEVALUE('Phase',$,IFCINTEGER(4),$);
#367= IFCPROPERTYSINGLEVALUE('Class',$,IFCLABEL('18'),$);
#368= IFCPROPERTYSET('3ijYBpFRjDjgmZ1Om9ZyFJ',#5,'Tekla Common','Common Properties to Shared building elements',(#362,#363,#364,#365,#366,#367));
#369= IFCPROPERTYSINGLEVALUE('Weight',$,IFCMASSMEASURE(4.78),$);
#370= IFCPROPERTYSINGLEVALUE('Volume',$,IFCVOLUMEMEASURE(0.001),$);
#371= IFCPROPERTYSINGLEVALUE('Gross footprint area',$,IFCAREAMEASURE(0.003),$);
#372= IFCPROPERTYSINGLEVALUE('Area per tons',$,IFCAREAMEASURE(44.139),$);
#373= IFCPROPERTYSINGLEVALUE('Net surface area',$,IFCAREAMEASURE(0.211),$);
#374= IFCPROPERTYSINGLEVALUE('Height',$,IFCLENGTHMEASURE(234.),$);
#375= IFCPROPERTYSINGLEVALUE('Width',$,IFCLENGTHMEASURE(6.),$);
#376= IFCPROPERTYSINGLEVALUE('Length',$,IFCLENGTHMEASURE(434.),$);
#377= IFCPROPERTYSET('0qj4YeoC17AOn4dv96NtNM',#5,'Tekla Quantity','Quantity Properties to Shared building elements',(#369,#370,#371,#372,#373,#374,#375,#376));
#378= IFCPROPERTYSINGLEVALUE('LoadBearing',$,IFCBOOLEAN(.F.),$);
#379= IFCPROPERTYSINGLEVALUE('Reference',$,IFCIDENTIFIER('5-1-P62'),$);
#380= IFCPROPERTYSET('39Rf_q1DD0tQpymzzBn4Pa',#5,'Pset_PlateCommon','Common Properties to plate elements',(#378,#379));
#381= IFCQUANTITYLENGTH('Width',$,$,234.000000000002);
#382= IFCQUANTITYAREA('NetArea',$,$,0.211128000000001);
#383= IFCQUANTITYAREA('GrossArea',$,$,0.101556000000001);
#384= IFCQUANTITYAREA('CrossSectionArea',$,$,3.6E-05);
#385= IFCQUANTITYVOLUME('NetVolume',$,$,0.000609336000000002);
#386= IFCQUANTITYVOLUME('GrossVolume',$,$,0.000609336000000002);
#387= IFCELEMENTQUANTITY('0n9RniNlX23g7V_UVOJ4eS',#5,'BaseQuantities',$,$,(#381,#382,#383,#384,#385,#386));
#388= IFCMATERIAL('STEEL/S275');
#389= IFCSHAPEREPRESENTATION(#12,'Body','Brep',(#353));
#390= IFCPRODUCTDEFINITIONSHAPE($,$,(#389));
#391= IFCCARTESIANPOINT((56372.9998779297,17119.7301373291,10058.0001907349));
#392= IFCAXIS2PLACEMENT3D(#391,#9,#7);
#393= IFCLOCALPLACEMENT(#42,#392);
#394= IFCPLATE('1sC9u1pufAMui1mAubWHGr',#44,'PLATE-6','PL6*234',$,#393,#390,'ID76309e01-cf8a-4a5b-8b01-c0ae25811435');
#395= IFCCOLOURRGB('Dark Magenta',0.572549019607843,0.219607843137255,0.694117647058824);
#396= IFCSURFACESTYLERENDERING(#395,0.,$,$,$,$,IFCNORMALISEDRATIOMEASURE(0.00390625),IFCSPECULAREXPONENT(10.),.NOTDEFINED.);
#397= IFCSURFACESTYLE('STEEL/S275',.POSITIVE.,(#396));
#398= IFCPRESENTATIONSTYLEASSIGNMENT((#397));
#399= IFCCARTESIANPOINT((0.,117.,-217.));
#400= IFCCARTESIANPOINT((0.,-117.,-217.));
#401= IFCCARTESIANPOINT((9113.65076293946,-117.,-217.));
#402= IFCCARTESIANPOINT((9113.65076293946,117.,-217.));
#403= IFCPOLYLOOP((#399,#400,#401,#402));
#404= IFCFACEOUTERBOUND(#403,.T.);
#405= IFCFACE((#404));
#406= IFCCARTESIANPOINT((0.,-117.,217.));
#407= IFCCARTESIANPOINT((9113.65076293946,-117.,217.));
#408= IFCPOLYLOOP((#400,#406,#407,#401));
#409= IFCFACEOUTERBOUND(#408,.T.);
#410= IFCFACE((#409));
#411= IFCCARTESIANPOINT((0.,117.,217.));
#412= IFCCARTESIANPOINT((9113.65076293946,117.,217.));
#413= IFCPOLYLOOP((#406,#411,#412,#407));
#414= IFCFACEOUTERBOUND(#413,.T.);
#415= IFCFACE((#414));
#416= IFCPOLYLOOP((#411,#399,#402,#412));
#417= IFCFACEOUTERBOUND(#416,.T.);
#418= IFCFACE((#417));
#419= IFCCARTESIANPOINT((0.,125.,-225.));
#420= IFCCARTESIANPOINT((0.,125.,225.));
#421= IFCCARTESIANPOINT((9113.65076293946,125.,225.));
#422= IFCCARTESIANPOINT((9113.65076293946,125.,-225.));
#423= IFCPOLYLOOP((#419,#420,#421,#422));
#424= IFCFACEOUTERBOUND(#423,.T.);
#425= IFCFACE((#424));
#426= IFCCARTESIANPOINT((0.,-125.,225.));
#427= IFCCARTESIANPOINT((9113.65076293946,-125.,225.));
#428= IFCPOLYLOOP((#420,#426,#427,#421));
#429= IFCFACEOUTERBOUND(#428,.T.);
#430= IFCFACE((#429));
#431= IFCCARTESIANPOINT((0.,-125.,-225.));
#432= IFCCARTESIANPOINT((9113.65076293946,-125.,-225.));
#433= IFCPOLYLOOP((#426,#431,#432,#427));
#434= IFCFACEOUTERBOUND(#433,.T.);
#435= IFCFACE((#434));
#436= IFCPOLYLOOP((#431,#419,#422,#432));
#437= IFCFACEOUTERBOUND(#436,.T.);
#438= IFCFACE((#437));
#439= IFCPOLYLOOP((#427,#432,#422,#421));
#440= IFCFACEOUTERBOUND(#439,.T.);
#441= IFCPOLYLOOP((#407,#412,#402,#401));
#442= IFCFACEBOUND(#441,.T.);
#443= IFCFACE((#440,#442));
#444= IFCPOLYLOOP((#431,#426,#420,#419));
#445= IFCFACEOUTERBOUND(#444,.T.);
#446= IFCPOLYLOOP((#411,#406,#400,#399));
#447= IFCFACEBOUND(#446,.T.);
#448= IFCFACE((#445,#447));
#449= IFCCLOSEDSHELL((#405,#410,#415,#418,#425,#430,#435,#438,#443,#448));
#450= IFCFACETEDBREP(#449);
#451= IFCSTYLEDITEM(#450,(#398),$);
#452= IFCSHAPEREPRESENTATION(#12,'Body','Brep',(#450));
#453= IFCPRODUCTDEFINITIONSHAPE($,$,(#452));
#454= IFCCARTESIANPOINT((56589.9998779297,26220.3809002686,10175.0001907349));
#455= IFCDIRECTION((0.,-1.,0.));
#456= IFCAXIS2PLACEMENT3D(#454,#7,#455);
#457= IFCLOCALPLACEMENT(#42,#456);
#458= IFCBEAM('0i9d49BG99$vxIZ8izAo7Z',#44,'B5-\S\?\S\Z450x250x8','TUB450X250X8',$,#457,#453,'ID2c267109-2d02-49ff-9ed2-8c8b3d2b21e3');
#459= IFCBEAMTYPE('3obhWv4RbEzv0oyBJqI525',#5,'TUB450X250X8',$,$,$,$,$,$,.NOTDEFINED.);
#460= IFCPROPERTYSINGLEVALUE('Bottom elevation',$,IFCLABEL(' +10.050'),$);
#461= IFCPROPERTYSINGLEVALUE('Top elevation',$,IFCLABEL(' +10.300'),$);
#462= IFCPROPERTYSINGLEVALUE('Preliminary mark',$,IFCLABEL('5-1-P51'),$);
#463= IFCPROPERTYSINGLEVALUE('Class',$,IFCLABEL('7'),$);
#464= IFCPROPERTYSET('24qmOGAUn2sAILTJQhw4Qw',#5,'Tekla Common','Common Properties to Shared building elements',(#460,#461,#364,#462,#366,#463));
#465= IFCPROPERTYSINGLEVALUE('Weight',$,IFCMASSMEASURE(782.96),$);
#466= IFCPROPERTYSINGLEVALUE('Volume',$,IFCVOLUMEMEASURE(0.1),$);
#467= IFCPROPERTYSINGLEVALUE('Gross footprint area',$,IFCAREAMEASURE(4.101),$);
#468= IFCPROPERTYSINGLEVALUE('Area per tons',$,IFCAREAMEASURE(16.226),$);
#469= IFCPROPERTYSINGLEVALUE('Net surface area',$,IFCAREAMEASURE(12.704),$);
#470= IFCPROPERTYSINGLEVALUE('Height',$,IFCLENGTHMEASURE(450.),$);
#471= IFCPROPERTYSINGLEVALUE('Width',$,IFCLENGTHMEASURE(250.),$);
#472= IFCPROPERTYSINGLEVALUE('Length',$,IFCLENGTHMEASURE(9113.7),$);
#473= IFCPROPERTYSET('1Ogzk34rv9Gwuok4vVmHoC',#5,'Tekla Quantity','Quantity Properties to Shared building elements',(#465,#466,#467,#468,#469,#470,#471,#472));
#474= IFCPROPERTYSINGLEVALUE('Reference',$,IFCIDENTIFIER('5-1-P51'),$);
#475= IFCPROPERTYSET('3y7tztSoP7kwcn0uM7r1Tm',#5,'Pset_BeamCommon','Common Properties to beam elements',(#378,#474));
#476= IFCQUANTITYLENGTH('Length',$,$,9113.65076293946);
#477= IFCQUANTITYAREA('OuterSurfaceArea',$,$,12.7042719675691);
#478= IFCQUANTITYVOLUME('NetVolume',$,$,0.0997397939496092);
#479= IFCQUANTITYWEIGHT('NetWeight',$,$,782.957382504433);
#480= IFCELEMENTQUANTITY('3z0MENAi59ROIZ3wrRl8Bo',#5,'BaseQuantities',$,$,(#476,#477,#478,#479));
#481= IFCRELAGGREGATES('2gvYVYlzX369WMb9Gi7y$q',#5,$,$,#37,(#39));
#482= IFCRELAGGREGATES('3gFe2I4wb2CuIGyEongkdE',#5,$,$,#39,(#41));
#483= IFCRELAGGREGATES('39_qxdcib9CPD4_Q$OMuDB',#5,$,$,#41,(#43));
#484= IFCRELCONTAINEDINSPATIALSTRUCTURE('06vwk0141329B5PXMFCgAO',#5,$,$,(#458,#394,#360,#321,#314,#305,#291,#207,#199,#192,#185,#178,#169,#161,#133),#43);
#485= IFCRELDEFINESBYPROPERTIES('0L1SSet8LAIuNMB9hSAgCH',#5,$,$,(#207,#199,#192,#185,#178,#169,#161,#133),#151);
#486= IFCRELDEFINESBYPROPERTIES('2MjPGLTj1BlfwZIe29lm12',#5,$,$,(#321,#314,#305,#291),#297);
#487= IFCRELDEFINESBYPROPERTIES('3smE2p_H1AdxxRS_SxdyEq',#5,$,$,(#394,#360),#368);
#488= IFCRELDEFINESBYPROPERTIES('0LvcQhvCzD7QHSJ1qnns5L',#5,$,$,(#394,#360),#377);
#489= IFCRELDEFINESBYPROPERTIES('3sPoH7QSb7D85ZulXi0mdX',#5,$,$,(#394,#360),#380);
#490= IFCRELDEFINESBYPROPERTIES('3eRrR0PEf6Uv9WnTN_k8Lz',#5,$,$,(#394,#360),#387);
#491= IFCRELDEFINESBYPROPERTIES('2yKo1IgL9A2hwNB4rle3wl',#5,$,$,(#458),#464);
#492= IFCRELDEFINESBYPROPERTIES('2SL2B9E8zBfO8ZsIQtC6UQ',#5,$,$,(#458),#473);
#493= IFCRELDEFINESBYPROPERTIES('1JStdBeVX7TgndZD$BIg5i',#5,$,$,(#458),#475);
#494= IFCRELDEFINESBYPROPERTIES('3KaqhmY_X4dfF2$Ek_ajBr',#5,$,$,(#458),#480);
#495= IFCRELDEFINESBYTYPE('1Q3WvZDBfDjx29MVTD3dS8',#5,$,$,(#321,#314,#305,#291,#207,#199,#192,#185,#178,#169,#161,#133),#134);
#496= IFCRELDEFINESBYTYPE('2zA6J4Vgb3f9Pf3WLb4aPf',#5,$,$,(#394,#360),#361);
#497= IFCRELDEFINESBYTYPE('1AQI54LWH2wOL2rkibSnAT',#5,$,$,(#458),#459);
#498= IFCRELASSOCIATESMATERIAL('0Yw2IKaqP7ZePc27gvgy7w',#5,$,$,(#207,#199,#192,#185,#178,#169,#161,#133),#152);
#499= IFCRELASSOCIATESMATERIAL('3fVjlnEN9BKQsZHfpntGGS',#5,$,$,(#321,#314,#305,#291),#298);
#500= IFCRELASSOCIATESMATERIAL('0utOCtv3n4Ehc6J2O3nfBl',#5,$,$,(#458,#394,#360),#388);
#501= IFCPRESENTATIONLAYERASSIGNMENT('BoltArray',$,(#126,#154,#163,#171,#180,#187,#194,#201,#285,#300,#307,#316),$);
#502= IFCPRESENTATIONLAYERASSIGNMENT('PLATE-6',$,(#355,#389),$);
#503= IFCPRESENTATIONLAYERASSIGNMENT('B5-\S\?\S\Z450x250x8',$,(#452),$);
ENDSEC;

END-ISO-10303-21;
