ISO-10303-21;
HEADER;
FILE_DESCRIPTION(('ViewDefinition[CoordinationView_V2.0, QuantityTakeOffAddOnView]', 'ExchangeRequirement[Structural, SurfaceGeometry]', 'Option [BaseQuantities:On]', 'Option [GridExport:On]', 'Option [Assemblies:Off]', 'Option [Bolts:On]', 'Option [Rebars:On]', 'Option [PourObjects:Off]', 'Option [Welds:Off]', 'Option [SurfaceTreatments:On]', 'Option [LocationBy:0]', 'Option [ViewColors:Off]', 'Option [SectionedSpine:Off]', 'Option [PropertySets:On]', 'Option [Export all:Off]'),'2;1');
FILE_NAME('5-1-A1.ifc','2026-03-10T09:15:07',('DESKTOP-NLV509P\\Ahmed'),('Structural Designer'),'IFC Parser version: 3.13.2','Tekla Structures 2023 Service Pack 8, IFC Export Version: 4.0.0.0 Jan 19 2024','');
FILE_SCHEMA(('IFC2X3'));
ENDSEC;

DATA;
#1= IFCPERSON('DESKTOP-NLV509P\\Ahmed','Undefined',$,$,$,$,$,$);
#2= IFCORGANIZATION($,'Trimble Solutions Corporation',$,$,$);
#3= IFCPERSONANDORGANIZATION(#1,#2,$);
#4= IFCAPPLICATION(#2,'2023 Service Pack 8','Tekla Structures','Multi material modeling');
#5= IFCOWNERHISTORY(#3,#4,$,.NOCHANGE.,$,$,$,1773123307);
#6= IFCCARTESIANPOINT((0.,0.,0.));
#7= IFCDIRECTION((1.,0.,0.));
#8= IFCDIRECTION((0.,1.,0.));
#9= IFCDIRECTION((0.,0.,1.));
#10= IFCAXIS2PLACEMENT3D(#6,#9,#7);
#11= IFCGEOMETRICREPRESENTATIONCONTEXT($,'Model',3,1.E-05,#10,$);
#12= IFCGEOMETRICREPRESENTATIONSUBCONTEXT('Body','Model',*,*,*,*,#11,$,.MODEL_VIEW.,$);
#13= IFCGEOMETRICREPRESENTATIONSUBCONTEXT('Axis','Model',*,*,*,*,#11,$,.GRAPH_VIEW.,$);
#14= IFCGEOMETRICREPRESENTATIONSUBCONTEXT('FootPrint','Model',*,*,*,*,#11,$,.MODEL_VIEW.,$);
#15= IFCSIUNIT(*,.LENGTHUNIT.,.MILLI.,.METRE.);
#16= IFCMEASUREWITHUNIT(IFCRATIOMEASURE(304.8),#15);
#17= IFCDIMENSIONALEXPONENTS(1,0,0,0,0,0,0);
#18= IFCCONVERSIONBASEDUNIT(#17,.LENGTHUNIT.,'FOOT',#16);
#19= IFCSIUNIT(*,.AREAUNIT.,$,.SQUARE_METRE.);
#20= IFCMEASUREWITHUNIT(IFCRATIOMEASURE(0.09290304),#19);
#21= IFCDIMENSIONALEXPONENTS(2,0,0,0,0,0,0);
#22= IFCCONVERSIONBASEDUNIT(#21,.AREAUNIT.,'SQUARE FOOT',#20);
#23= IFCSIUNIT(*,.VOLUMEUNIT.,$,.CUBIC_METRE.);
#24= IFCMEASUREWITHUNIT(IFCRATIOMEASURE(0.028316846592),#23);
#25= IFCDIMENSIONALEXPONENTS(3,0,0,0,0,0,0);
#26= IFCCONVERSIONBASEDUNIT(#25,.VOLUMEUNIT.,'CUBIC FOOT',#24);
#27= IFCSIUNIT(*,.MASSUNIT.,.KILO.,.GRAM.);
#28= IFCSIUNIT(*,.TIMEUNIT.,$,.SECOND.);
#29= IFCSIUNIT(*,.PLANEANGLEUNIT.,$,.RADIAN.);
#30= IFCMEASUREWITHUNIT(IFCRATIOMEASURE(0.0174532925199433),#29);
#31= IFCDIMENSIONALEXPONENTS(0,0,0,0,0,0,0);
#32= IFCCONVERSIONBASEDUNIT(#31,.PLANEANGLEUNIT.,'DEGREE',#30);
#33= IFCSIUNIT(*,.SOLIDANGLEUNIT.,$,.STERADIAN.);
#34= IFCSIUNIT(*,.THERMODYNAMICTEMPERATUREUNIT.,$,.DEGREE_CELSIUS.);
#35= IFCSIUNIT(*,.LUMINOUSINTENSITYUNIT.,$,.LUMEN.);
#36= IFCUNITASSIGNMENT((#15,#19,#23,#27,#28,#29,#33,#34,#35));
#37= IFCPROJECT('0FkuaGTPr5RedNoVm8t9tM',#5,'Undefined',$,$,$,$,(#11),#36);
#38= IFCLOCALPLACEMENT($,#10);
#39= IFCSITE('1YY_Is6c1FLgZf_Qbi7O02',#5,'Undefined',$,$,#38,$,$,.ELEMENT.,$,$,$,$,$);
#40= IFCLOCALPLACEMENT(#38,#10);
#41= IFCBUILDING('1Y3rzrsf9CWe9ofa6Osfrz',#5,'Undefined',$,$,#40,$,$,.ELEMENT.,$,$,$);
#42= IFCLOCALPLACEMENT(#40,#10);
#43= IFCBUILDINGSTOREY('3gJPpYF7LCbf7I109fNVl5',#5,'Undefined',$,$,#42,$,$,.ELEMENT.,0.);
#44= IFCOWNERHISTORY(#3,#4,$,.NOCHANGE.,$,$,$,1770840000);
#45= IFCCOLOURRGB($,0.698039215686274,0.4,0.);
#46= IFCSURFACESTYLERENDERING(#45,0.,$,$,$,$,IFCNORMALISEDRATIOMEASURE(0.00390625),IFCSPECULAREXPONENT(10.),.NOTDEFINED.);
#47= IFCSURFACESTYLE('EVENT',.POSITIVE.,(#46));
#48= IFCPRESENTATIONSTYLEASSIGNMENT((#47));
#49= IFCCARTESIANPOINT((7.5,-2.99999999963902,0.));
#50= IFCCARTESIANPOINT((6.49519052838316,-2.99999999963902,3.75000000000022));
#51= IFCCARTESIANPOINT((3.74999999999955,-2.99999999963902,6.49519052838355));
#52= IFCCARTESIANPOINT((-7.77251986200242E-13,-2.99999999963902,7.5));
#53= IFCCARTESIANPOINT((-3.7500000000009,-2.99999999963902,6.49519052838277));
#54= IFCCARTESIANPOINT((-6.49519052838394,-2.99999999963902,3.74999999999888));
#55= IFCCARTESIANPOINT((-7.5,-2.99999999963902,-1.55450397240048E-12));
#56= IFCCARTESIANPOINT((-6.49519052838238,-2.99999999963902,-3.75000000000157));
#57= IFCCARTESIANPOINT((-3.74999999999821,-2.99999999963902,-6.49519052838432));
#58= IFCCARTESIANPOINT((2.32342928591604E-12,-2.99999999963902,-7.5));
#59= IFCCARTESIANPOINT((3.75000000000224,-2.99999999963902,-6.495190528382));
#60= IFCCARTESIANPOINT((6.49519052838471,-2.99999999963902,-3.74999999999753));
#61= IFCCARTESIANPOINT((7.5,3.10000000036533,0.));
#62= IFCCARTESIANPOINT((6.49519052838316,3.10000000036533,3.75000000000022));
#63= IFCCARTESIANPOINT((3.74999999999955,3.10000000036533,6.49519052838355));
#64= IFCCARTESIANPOINT((-7.77251986200242E-13,3.10000000036533,7.5));
#65= IFCCARTESIANPOINT((-3.7500000000009,3.10000000036533,6.49519052838277));
#66= IFCCARTESIANPOINT((-6.49519052838394,3.10000000036533,3.74999999999888));
#67= IFCCARTESIANPOINT((-7.5,3.10000000036533,-1.55450397240048E-12));
#68= IFCCARTESIANPOINT((-6.49519052838238,3.10000000036533,-3.75000000000157));
#69= IFCCARTESIANPOINT((-3.74999999999821,3.10000000036533,-6.49519052838432));
#70= IFCCARTESIANPOINT((2.32342928591604E-12,3.10000000036533,-7.5));
#71= IFCCARTESIANPOINT((3.75000000000224,3.10000000036533,-6.495190528382));
#72= IFCCARTESIANPOINT((6.49519052838471,3.10000000036533,-3.74999999999753));
#73= IFCPOLYLOOP((#49,#50,#51,#52,#53,#54,#55,#56,#57,#58,#59,#60));
#74= IFCFACEOUTERBOUND(#73,.T.);
#75= IFCFACE((#74));
#76= IFCPOLYLOOP((#72,#71,#70,#69,#68,#67,#66,#65,#64,#63,#62,#61));
#77= IFCFACEOUTERBOUND(#76,.T.);
#78= IFCFACE((#77));
#79= IFCPOLYLOOP((#49,#61,#62,#50));
#80= IFCFACEOUTERBOUND(#79,.T.);
#81= IFCFACE((#80));
#82= IFCPOLYLOOP((#50,#62,#63,#51));
#83= IFCFACEOUTERBOUND(#82,.T.);
#84= IFCFACE((#83));
#85= IFCPOLYLOOP((#51,#63,#64,#52));
#86= IFCFACEOUTERBOUND(#85,.T.);
#87= IFCFACE((#86));
#88= IFCPOLYLOOP((#52,#64,#65,#53));
#89= IFCFACEOUTERBOUND(#88,.T.);
#90= IFCFACE((#89));
#91= IFCPOLYLOOP((#53,#65,#66,#54));
#92= IFCFACEOUTERBOUND(#91,.T.);
#93= IFCFACE((#92));
#94= IFCPOLYLOOP((#54,#66,#67,#55));
#95= IFCFACEOUTERBOUND(#94,.T.);
#96= IFCFACE((#95));
#97= IFCPOLYLOOP((#55,#67,#68,#56));
#98= IFCFACEOUTERBOUND(#97,.T.);
#99= IFCFACE((#98));
#100= IFCPOLYLOOP((#56,#68,#69,#57));
#101= IFCFACEOUTERBOUND(#100,.T.);
#102= IFCFACE((#101));
#103= IFCPOLYLOOP((#57,#69,#70,#58));
#104= IFCFACEOUTERBOUND(#103,.T.);
#105= IFCFACE((#104));
#106= IFCPOLYLOOP((#58,#70,#71,#59));
#107= IFCFACEOUTERBOUND(#106,.T.);
#108= IFCFACE((#107));
#109= IFCPOLYLOOP((#59,#71,#72,#60));
#110= IFCFACEOUTERBOUND(#109,.T.);
#111= IFCFACE((#110));
#112= IFCPOLYLOOP((#60,#72,#61,#49));
#113= IFCFACEOUTERBOUND(#112,.T.);
#114= IFCFACE((#113));
#115= IFCCLOSEDSHELL((#75,#78,#81,#84,#87,#90,#93,#96,#99,#102,#105,#108,#111,#114));
#116= IFCCOLOURRGB($,0.,0.,0.);
#117= IFCSURFACESTYLERENDERING(#116,0.,$,$,$,$,IFCNORMALISEDRATIOMEASURE(0.00390625),IFCSPECULAREXPONENT(10.),.NOTDEFINED.);
#118= IFCSURFACESTYLE($,.POSITIVE.,(#117));
#119= IFCPRESENTATIONSTYLEASSIGNMENT((#118));
#120= IFCFACETEDBREP(#115);
#121= IFCSTYLEDITEM(#120,(#119),$);
#122= IFCCARTESIANTRANSFORMATIONOPERATOR3D($,$,#6,$,$);
#123= IFCSHAPEREPRESENTATION(#12,'Body','Brep',(#120));
#124= IFCREPRESENTATIONMAP(#10,#123);
#125= IFCMAPPEDITEM(#124,#122);
#126= IFCSHAPEREPRESENTATION(#12,'Body','MappedRepresentation',(#125));
#127= IFCPRODUCTDEFINITIONSHAPE($,$,(#126));
#128= IFCCARTESIANPOINT((1957.75659208611,25871.0102856367,10347.5001907349));
#129= IFCDIRECTION((0.707106781024066,-1.23769999991055E-05,-0.707106781240707));
#130= IFCDIRECTION((-0.707106781132385,1.2376999992634E-05,-0.707106781132389));
#131= IFCAXIS2PLACEMENT3D(#128,#129,#130);
#132= IFCLOCALPLACEMENT(#42,#131);
#133= IFCMECHANICALFASTENER('1ZxzL1cSv7M9xfa6Na1GeF',#44,'Bolt assembly',$,$,#132,#127,'ID63efd541-99ce-4758-9ee9-9065e4050a0f',15.,6.);
#134= IFCMECHANICALFASTENERTYPE('2k6pyDVtrCCRzUj4JBP97n',#5,'Bolt assembly',$,$,$,$,$,$);
#135= IFCPROPERTYSINGLEVALUE('Washer count',$,IFCINTEGER(0),$);
#136= IFCPROPERTYSINGLEVALUE('Washer diameter',$,IFCLENGTHMEASURE(15.),$);
#137= IFCPROPERTYSINGLEVALUE('Washer type',$,IFCLABEL(''),$);
#138= IFCPROPERTYSINGLEVALUE('Washer name',$,IFCLABEL(''),$);
#139= IFCPROPERTYSINGLEVALUE('Nut count',$,IFCINTEGER(0),$);
#140= IFCPROPERTYSINGLEVALUE('Nut type',$,IFCLABEL(''),$);
#141= IFCPROPERTYSINGLEVALUE('Nut name',$,IFCLABEL(''),$);
#142= IFCPROPERTYSINGLEVALUE('Slotted hole y',$,IFCLENGTHMEASURE(0.),$);
#143= IFCPROPERTYSINGLEVALUE('Slotted hole x',$,IFCLENGTHMEASURE(0.),$);
#144= IFCPROPERTYSINGLEVALUE('Bolt hole diameter',$,IFCLENGTHMEASURE(15.),$);
#145= IFCPROPERTYSINGLEVALUE('Location',$,IFCLABEL('Site'),$);
#146= IFCPROPERTYSINGLEVALUE('Bolt count',$,IFCINTEGER(1),$);
#147= IFCPROPERTYSINGLEVALUE('Bolt size',$,IFCLENGTHMEASURE(15.),$);
#148= IFCPROPERTYSINGLEVALUE('Bolt length',$,IFCLENGTHMEASURE(6.),$);
#149= IFCPROPERTYSINGLEVALUE('Bolt standard',$,IFCLABEL('EVENT'),$);
#150= IFCPROPERTYSINGLEVALUE('Bolt Name',$,IFCLABEL(''),$);
#151= IFCPROPERTYSET('1UsfX$OYD4hOfWNiGwEHSe',#5,'Tekla Bolt','Bolt Properties',(#135,#136,#137,#138,#139,#140,#141,#142,#143,#144,#145,#146,#147,#148,#149,#150));
#152= IFCMATERIAL('EVENT');
#153= IFCMAPPEDITEM(#124,#122);
#154= IFCSHAPEREPRESENTATION(#12,'Body','MappedRepresentation',(#153));
#155= IFCPRODUCTDEFINITIONSHAPE($,$,(#154));
#156= IFCCARTESIANPOINT((1957.75659208611,25871.0102856367,10102.5001907349));
#157= IFCDIRECTION((0.707106781024064,-1.23769999991055E-05,0.707106781240709));
#158= IFCDIRECTION((-0.707106781132387,1.23769999926339E-05,0.707106781132386));
#159= IFCAXIS2PLACEMENT3D(#156,#157,#158);
#160= IFCLOCALPLACEMENT(#42,#159);
#161= IFCMECHANICALFASTENER('2VCuXrdKP0U9SfvkdH9c8R',#44,'Bolt assembly',$,$,#160,#155,'ID9f338875-9d46-4078-9729-e6e9d126621b',15.,6.);
#162= IFCMAPPEDITEM(#124,#122);
#163= IFCSHAPEREPRESENTATION(#12,'Body','MappedRepresentation',(#162));
#164= IFCPRODUCTDEFINITIONSHAPE($,$,(#163));
#165= IFCCARTESIANPOINT((1712.75659212367,25871.0145741167,10102.5001907349));
#166= IFCAXIS2PLACEMENT3D(#165,#129,#157);
#167= IFCLOCALPLACEMENT(#42,#166);
#168= IFCMECHANICALFASTENER('0vtJnARjHABwt4$Yy_vt9J',#44,'Bolt assembly',$,$,#167,#164,'ID39dd3c4a-6ed4-4a2f-adc4-fe2f3ee77253',15.,6.);
#169= IFCMAPPEDITEM(#124,#122);
#170= IFCSHAPEREPRESENTATION(#12,'Body','MappedRepresentation',(#169));
#171= IFCPRODUCTDEFINITIONSHAPE($,$,(#170));
#172= IFCCARTESIANPOINT((1712.75659212367,25871.0145741167,10347.5001907349));
#173= IFCAXIS2PLACEMENT3D(#172,#130,#129);
#174= IFCLOCALPLACEMENT(#42,#173);
#175= IFCMECHANICALFASTENER('0_jFLozHn05Q6ba8y3j0co',#44,'Bolt assembly',$,$,#174,#171,'ID3eb4f572-f51c-4015-a1a5-908f03b409b2',15.,6.);
#176= IFCMAPPEDITEM(#124,#122);
#177= IFCSHAPEREPRESENTATION(#12,'Body','MappedRepresentation',(#176));
#178= IFCPRODUCTDEFINITIONSHAPE($,$,(#177));
#179= IFCCARTESIANPOINT((1957.60897078804,17467.680281899,10102.5001907349));
#180= IFCAXIS2PLACEMENT3D(#179,#157,#158);
#181= IFCLOCALPLACEMENT(#42,#180);
#182= IFCMECHANICALFASTENER('3THwY4Psj8xewmYLksmvZy',#44,'Bolt assembly',$,$,#181,#178,'IDdd47a884-676b-48ee-8eb0-895bb6c398fc',15.,6.);
#183= IFCMAPPEDITEM(#124,#122);
#184= IFCSHAPEREPRESENTATION(#12,'Body','MappedRepresentation',(#183));
#185= IFCPRODUCTDEFINITIONSHAPE($,$,(#184));
#186= IFCCARTESIANPOINT((1957.60897078804,17467.680281899,10347.5001907349));
#187= IFCAXIS2PLACEMENT3D(#186,#129,#130);
#188= IFCLOCALPLACEMENT(#42,#187);
#189= IFCMECHANICALFASTENER('1pmz3XVAr3VA61jmTJ0Jqo',#44,'Bolt assembly',$,$,#188,#185,'ID73c3d0e1-7cad-437c-a181-b70753013d32',15.,6.);
#190= IFCMAPPEDITEM(#124,#122);
#191= IFCSHAPEREPRESENTATION(#12,'Body','MappedRepresentation',(#190));
#192= IFCPRODUCTDEFINITIONSHAPE($,$,(#191));
#193= IFCCARTESIANPOINT((1712.60897082559,17467.684570379,10347.5001907349));
#194= IFCAXIS2PLACEMENT3D(#193,#157,#129);
#195= IFCLOCALPLACEMENT(#42,#194);
#196= IFCMECHANICALFASTENER('0J6jhwnXrCggyJ30IzZ6Yk',#44,'Bolt assembly',$,$,#195,#192,'ID131adafa-c61d-4caa-af13-0c04bd8c68ae',15.,6.);
#197= IFCMAPPEDITEM(#124,#122);
#198= IFCSHAPEREPRESENTATION(#12,'Body','MappedRepresentation',(#197));
#199= IFCPRODUCTDEFINITIONSHAPE($,$,(#198));
#200= IFCCARTESIANPOINT((1712.60897082559,17467.684570379,10102.5001907349));
#201= IFCAXIS2PLACEMENT3D(#200,#158,#157);
#202= IFCLOCALPLACEMENT(#42,#201);
#203= IFCMECHANICALFASTENER('0TtHPf$uP3nObP5tX4y_w$',#44,'Bolt assembly',$,$,#202,#199,'ID1ddd1669-ff86-43c5-8959-177844f3eebf',15.,6.);
#204= IFCCOLOURRGB('Dark Blue',0.117647058823529,0.262745098039216,0.513725490196078);
#205= IFCSURFACESTYLERENDERING(#204,0.,$,$,$,$,IFCNORMALISEDRATIOMEASURE(0.00390625),IFCSPECULAREXPONENT(10.),.NOTDEFINED.);
#206= IFCSURFACESTYLE('STEEL/S275',.POSITIVE.,(#205));
#207= IFCPRESENTATIONSTYLEASSIGNMENT((#206));
#208= IFCCARTESIANPOINT((0.,-3.00000000000364,0.));
#209= IFCCARTESIANPOINT((0.,-3.00000000000364,330.));
#210= IFCCARTESIANPOINT((0.,3.,330.));
#211= IFCCARTESIANPOINT((0.,3.,0.));
#212= IFCPOLYLOOP((#208,#209,#210,#211));
#213= IFCFACEOUTERBOUND(#212,.T.);
#214= IFCFACE((#213));
#215= IFCCARTESIANPOINT((329.999999999982,-2.99999999985812,330.));
#216= IFCCARTESIANPOINT((329.999999999982,3.00000000014188,330.));
#217= IFCPOLYLOOP((#209,#215,#216,#210));
#218= IFCFACEOUTERBOUND(#217,.T.);
#219= IFCFACE((#218));
#220= IFCCARTESIANPOINT((329.999999999982,-2.99999999985812,-3.63797880709171E-12));
#221= IFCCARTESIANPOINT((329.999999999982,3.00000000014188,-3.63797880709171E-12));
#222= IFCPOLYLOOP((#215,#220,#221,#216));
#223= IFCFACEOUTERBOUND(#222,.T.);
#224= IFCFACE((#223));
#225= IFCPOLYLOOP((#220,#208,#211,#221));
#226= IFCFACEOUTERBOUND(#225,.T.);
#227= IFCFACE((#226));
#228= IFCPOLYLOOP((#216,#221,#211,#210));
#229= IFCFACEOUTERBOUND(#228,.T.);
#230= IFCFACE((#229));
#231= IFCPOLYLOOP((#220,#215,#209,#208));
#232= IFCFACEOUTERBOUND(#231,.T.);
#233= IFCFACE((#232));
#234= IFCCLOSEDSHELL((#214,#219,#224,#227,#230,#233));
#235= IFCFACETEDBREP(#234);
#236= IFCSTYLEDITEM(#235,(#207),$);
#237= IFCSHAPEREPRESENTATION(#12,'Body','Brep',(#235));
#238= IFCPRODUCTDEFINITIONSHAPE($,$,(#237));
#239= IFCCARTESIANPOINT((2000.25325611064,25871.0095417751,10390.0001907349));
#240= IFCDIRECTION((0.,0.,-1.));
#241= IFCDIRECTION((-0.999999999846805,1.75039999951676E-05,0.));
#242= IFCAXIS2PLACEMENT3D(#239,#240,#241);
#243= IFCLOCALPLACEMENT(#42,#242);
#244= IFCPLATE('1HSiyY8lTE3PfUb6Y5WWRB',#44,'PLATE-6','PL6*330',$,#243,#238,'ID5172cf22-22f7-4e0d-9a5e-9468858206cb');
#245= IFCPLATETYPE('0q2kVHYTv4KBDgYgTJpBwr',#5,'PL6*330',$,$,$,$,$,$,.NOTDEFINED.);
#246= IFCPROPERTYSINGLEVALUE('Bottom elevation',$,IFCLABEL(' +10.060'),$);
#247= IFCPROPERTYSINGLEVALUE('Top elevation',$,IFCLABEL(' +10.390'),$);
#248= IFCPROPERTYSINGLEVALUE('Initial GUID',$,$,$);
#249= IFCPROPERTYSINGLEVALUE('Preliminary mark',$,IFCLABEL('5-1-P60'),$);
#250= IFCPROPERTYSINGLEVALUE('Phase',$,IFCINTEGER(4),$);
#251= IFCPROPERTYSINGLEVALUE('Class',$,IFCLABEL('18'),$);
#252= IFCPROPERTYSET('2Z2vga4x1EOuWAu8QrA6hX',#5,'Tekla Common','Common Properties to Shared building elements',(#246,#247,#248,#249,#250,#251));
#253= IFCPROPERTYSINGLEVALUE('Weight',$,IFCMASSMEASURE(5.13),$);
#254= IFCPROPERTYSINGLEVALUE('Volume',$,IFCVOLUMEMEASURE(0.001),$);
#255= IFCPROPERTYSINGLEVALUE('Gross footprint area',$,IFCAREAMEASURE(0.002),$);
#256= IFCPROPERTYSINGLEVALUE('Area per tons',$,IFCAREAMEASURE(44.007),$);
#257= IFCPROPERTYSINGLEVALUE('Net surface area',$,IFCAREAMEASURE(0.226),$);
#258= IFCPROPERTYSINGLEVALUE('Height',$,IFCLENGTHMEASURE(330.),$);
#259= IFCPROPERTYSINGLEVALUE('Width',$,IFCLENGTHMEASURE(6.),$);
#260= IFCPROPERTYSINGLEVALUE('Length',$,IFCLENGTHMEASURE(330.),$);
#261= IFCPROPERTYSET('2ioZc42I93sAdtm6Gz05er',#5,'Tekla Quantity','Quantity Properties to Shared building elements',(#253,#254,#255,#256,#257,#258,#259,#260));
#262= IFCPROPERTYSINGLEVALUE('LoadBearing',$,IFCBOOLEAN(.F.),$);
#263= IFCPROPERTYSINGLEVALUE('Reference',$,IFCIDENTIFIER('5-1-P60'),$);
#264= IFCPROPERTYSET('19m_wl1O5C6wIwwYOFDKhf',#5,'Pset_PlateCommon','Common Properties to plate elements',(#262,#263));
#265= IFCQUANTITYLENGTH('Width',$,$,330.);
#266= IFCQUANTITYAREA('NetArea',$,$,0.225720000000001);
#267= IFCQUANTITYAREA('GrossArea',$,$,0.108900000000001);
#268= IFCQUANTITYAREA('CrossSectionArea',$,$,3.6E-05);
#269= IFCQUANTITYVOLUME('NetVolume',$,$,0.000653400000000003);
#270= IFCQUANTITYVOLUME('GrossVolume',$,$,0.000653400000000003);
#271= IFCELEMENTQUANTITY('2SfOSSeYvD0BGo3$oivGPz',#5,'BaseQuantities',$,$,(#265,#266,#267,#268,#269,#270));
#272= IFCMATERIAL('STEEL/S275');
#273= IFCOWNERHISTORY(#3,#4,$,.NOCHANGE.,$,$,$,1770796800);
#274= IFCSURFACESTYLE('TS10.9',.POSITIVE.,(#46));
#275= IFCPRESENTATIONSTYLEASSIGNMENT((#274));
#276= IFCCARTESIANPOINT((13.,-384.718542423563,0.));
#277= IFCCARTESIANPOINT((11.2583302491975,-384.718542423563,6.50000000000039));
#278= IFCCARTESIANPOINT((6.49999999999922,-384.718542423563,11.2583302491982));
#279= IFCCARTESIANPOINT((-1.34723677608042E-12,-384.718542423563,13.));
#280= IFCCARTESIANPOINT((-6.50000000000155,-384.718542423563,11.2583302491968));
#281= IFCCARTESIANPOINT((-11.2583302491988,-384.718542423563,6.49999999999806));
#282= IFCCARTESIANPOINT((-13.,-384.718542423563,-2.69447355216084E-12));
#283= IFCCARTESIANPOINT((-11.2583302491961,-384.718542423563,-6.50000000000272));
#284= IFCCARTESIANPOINT((-6.4999999999969,-384.718542423563,-11.2583302491995));
#285= IFCCARTESIANPOINT((4.02727742892113E-12,-384.718542423563,-13.));
#286= IFCCARTESIANPOINT((6.50000000000388,-384.718542423563,-11.2583302491955));
#287= IFCCARTESIANPOINT((11.2583302492002,-384.718542423563,-6.49999999999573));
#288= IFCCARTESIANPOINT((13.,-34.6145741897301,0.));
#289= IFCCARTESIANPOINT((11.2583302491975,-34.6145741897301,6.50000000000039));
#290= IFCCARTESIANPOINT((6.49999999999922,-34.6145741897301,11.2583302491982));
#291= IFCCARTESIANPOINT((-1.34723677608042E-12,-34.6145741897301,13.));
#292= IFCCARTESIANPOINT((-6.50000000000155,-34.6145741897301,11.2583302491968));
#293= IFCCARTESIANPOINT((-11.2583302491988,-34.6145741897301,6.49999999999806));
#294= IFCCARTESIANPOINT((-13.,-34.6145741897301,-2.69447355216084E-12));
#295= IFCCARTESIANPOINT((-11.2583302491961,-34.6145741897301,-6.50000000000272));
#296= IFCCARTESIANPOINT((-6.4999999999969,-34.6145741897301,-11.2583302491995));
#297= IFCCARTESIANPOINT((4.02727742892113E-12,-34.6145741897301,-13.));
#298= IFCCARTESIANPOINT((6.50000000000388,-34.6145741897301,-11.2583302491955));
#299= IFCCARTESIANPOINT((11.2583302492002,-34.6145741897301,-6.49999999999573));
#300= IFCPOLYLOOP((#276,#277,#278,#279,#280,#281,#282,#283,#284,#285,#286,#287));
#301= IFCFACEOUTERBOUND(#300,.T.);
#302= IFCFACE((#301));
#303= IFCPOLYLOOP((#299,#298,#297,#296,#295,#294,#293,#292,#291,#290,#289,#288));
#304= IFCFACEOUTERBOUND(#303,.T.);
#305= IFCFACE((#304));
#306= IFCPOLYLOOP((#276,#288,#289,#277));
#307= IFCFACEOUTERBOUND(#306,.T.);
#308= IFCFACE((#307));
#309= IFCPOLYLOOP((#277,#289,#290,#278));
#310= IFCFACEOUTERBOUND(#309,.T.);
#311= IFCFACE((#310));
#312= IFCPOLYLOOP((#278,#290,#291,#279));
#313= IFCFACEOUTERBOUND(#312,.T.);
#314= IFCFACE((#313));
#315= IFCPOLYLOOP((#279,#291,#292,#280));
#316= IFCFACEOUTERBOUND(#315,.T.);
#317= IFCFACE((#316));
#318= IFCPOLYLOOP((#280,#292,#293,#281));
#319= IFCFACEOUTERBOUND(#318,.T.);
#320= IFCFACE((#319));
#321= IFCPOLYLOOP((#281,#293,#294,#282));
#322= IFCFACEOUTERBOUND(#321,.T.);
#323= IFCFACE((#322));
#324= IFCPOLYLOOP((#282,#294,#295,#283));
#325= IFCFACEOUTERBOUND(#324,.T.);
#326= IFCFACE((#325));
#327= IFCPOLYLOOP((#283,#295,#296,#284));
#328= IFCFACEOUTERBOUND(#327,.T.);
#329= IFCFACE((#328));
#330= IFCPOLYLOOP((#284,#296,#297,#285));
#331= IFCFACEOUTERBOUND(#330,.T.);
#332= IFCFACE((#331));
#333= IFCPOLYLOOP((#285,#297,#298,#286));
#334= IFCFACEOUTERBOUND(#333,.T.);
#335= IFCFACE((#334));
#336= IFCPOLYLOOP((#286,#298,#299,#287));
#337= IFCFACEOUTERBOUND(#336,.T.);
#338= IFCFACE((#337));
#339= IFCPOLYLOOP((#287,#299,#288,#276));
#340= IFCFACEOUTERBOUND(#339,.T.);
#341= IFCFACE((#340));
#342= IFCCLOSEDSHELL((#302,#305,#308,#311,#314,#317,#320,#323,#326,#329,#332,#335,#338,#341));
#343= IFCFACETEDBREP(#342);
#344= IFCSTYLEDITEM(#343,(#119),$);
#345= IFCCARTESIANPOINT((40.0000000000073,7.82165443524718E-11,-40.0000000001355));
#346= IFCCARTESIANTRANSFORMATIONOPERATOR3D($,$,#345,$,$);
#347= IFCSHAPEREPRESENTATION(#12,'Body','Brep',(#343));
#348= IFCREPRESENTATIONMAP(#10,#347);
#349= IFCMAPPEDITEM(#348,#346);
#350= IFCSHAPEREPRESENTATION(#12,'Body','MappedRepresentation',(#349));
#351= IFCPRODUCTDEFINITIONSHAPE($,$,(#350));
#352= IFCCARTESIANPOINT((1815.0574758364,17514.675635624,10434.9048486218));
#353= IFCDIRECTION((0.999988661717142,3.46799877734156E-05,0.00476185199865358));
#354= IFCDIRECTION((-3.46800000142813E-05,0.999999999398646,-7.99999976203125E-08));
#355= IFCAXIS2PLACEMENT3D(#352,#353,#354);
#356= IFCLOCALPLACEMENT(#42,#355);
#357= IFCMECHANICALFASTENER('0VGMowVKfAHvSPpXkekAAv',#273,'Bolt assembly',$,$,#356,#351,'ID1f416cba-7d4a-4a47-9719-ce1ba8b8a2b9',24.,350.);
#358= IFCPROPERTYSINGLEVALUE('Washer diameter',$,IFCLENGTHMEASURE(24.),$);
#359= IFCPROPERTYSINGLEVALUE('Bolt hole diameter',$,IFCLENGTHMEASURE(26.),$);
#360= IFCPROPERTYSINGLEVALUE('Bolt size',$,IFCLENGTHMEASURE(26.),$);
#361= IFCPROPERTYSINGLEVALUE('Bolt length',$,IFCLENGTHMEASURE(350.),$);
#362= IFCPROPERTYSINGLEVALUE('Bolt standard',$,IFCLABEL('TS10.9'),$);
#363= IFCPROPERTYSET('2QUTXZZxX0iv7JhuoivWOn',#5,'Tekla Bolt','Bolt Properties',(#135,#358,#137,#138,#139,#140,#141,#142,#143,#359,#145,#146,#360,#361,#362,#150));
#364= IFCMATERIAL('TS10.9');
#365= IFCCARTESIANPOINT((13.,-385.289971193617,0.));
#366= IFCCARTESIANPOINT((11.2583302491975,-385.289971193617,6.50000000000039));
#367= IFCCARTESIANPOINT((6.49999999999922,-385.289971193617,11.2583302491982));
#368= IFCCARTESIANPOINT((-1.34723677608042E-12,-385.289971193617,13.));
#369= IFCCARTESIANPOINT((-6.50000000000155,-385.289971193617,11.2583302491968));
#370= IFCCARTESIANPOINT((-11.2583302491988,-385.289971193617,6.49999999999806));
#371= IFCCARTESIANPOINT((-13.,-385.289971193617,-2.69447355216084E-12));
#372= IFCCARTESIANPOINT((-11.2583302491961,-385.289971193617,-6.50000000000272));
#373= IFCCARTESIANPOINT((-6.4999999999969,-385.289971193617,-11.2583302491995));
#374= IFCCARTESIANPOINT((4.02727742892113E-12,-385.289971193617,-13.));
#375= IFCCARTESIANPOINT((6.50000000000388,-385.289971193617,-11.2583302491955));
#376= IFCCARTESIANPOINT((11.2583302492002,-385.289971193617,-6.49999999999573));
#377= IFCCARTESIANPOINT((13.,-35.1860029597843,0.));
#378= IFCCARTESIANPOINT((11.2583302491975,-35.1860029597843,6.50000000000039));
#379= IFCCARTESIANPOINT((6.49999999999922,-35.1860029597843,11.2583302491982));
#380= IFCCARTESIANPOINT((-1.34723677608042E-12,-35.1860029597843,13.));
#381= IFCCARTESIANPOINT((-6.50000000000155,-35.1860029597843,11.2583302491968));
#382= IFCCARTESIANPOINT((-11.2583302491988,-35.1860029597843,6.49999999999806));
#383= IFCCARTESIANPOINT((-13.,-35.1860029597843,-2.69447355216084E-12));
#384= IFCCARTESIANPOINT((-11.2583302491961,-35.1860029597843,-6.50000000000272));
#385= IFCCARTESIANPOINT((-6.4999999999969,-35.1860029597843,-11.2583302491995));
#386= IFCCARTESIANPOINT((4.02727742892113E-12,-35.1860029597843,-13.));
#387= IFCCARTESIANPOINT((6.50000000000388,-35.1860029597843,-11.2583302491955));
#388= IFCCARTESIANPOINT((11.2583302492002,-35.1860029597843,-6.49999999999573));
#389= IFCPOLYLOOP((#365,#366,#367,#368,#369,#370,#371,#372,#373,#374,#375,#376));
#390= IFCFACEOUTERBOUND(#389,.T.);
#391= IFCFACE((#390));
#392= IFCPOLYLOOP((#388,#387,#386,#385,#384,#383,#382,#381,#380,#379,#378,#377));
#393= IFCFACEOUTERBOUND(#392,.T.);
#394= IFCFACE((#393));
#395= IFCPOLYLOOP((#365,#377,#378,#366));
#396= IFCFACEOUTERBOUND(#395,.T.);
#397= IFCFACE((#396));
#398= IFCPOLYLOOP((#366,#378,#379,#367));
#399= IFCFACEOUTERBOUND(#398,.T.);
#400= IFCFACE((#399));
#401= IFCPOLYLOOP((#367,#379,#380,#368));
#402= IFCFACEOUTERBOUND(#401,.T.);
#403= IFCFACE((#402));
#404= IFCPOLYLOOP((#368,#380,#381,#369));
#405= IFCFACEOUTERBOUND(#404,.T.);
#406= IFCFACE((#405));
#407= IFCPOLYLOOP((#369,#381,#382,#370));
#408= IFCFACEOUTERBOUND(#407,.T.);
#409= IFCFACE((#408));
#410= IFCPOLYLOOP((#370,#382,#383,#371));
#411= IFCFACEOUTERBOUND(#410,.T.);
#412= IFCFACE((#411));
#413= IFCPOLYLOOP((#371,#383,#384,#372));
#414= IFCFACEOUTERBOUND(#413,.T.);
#415= IFCFACE((#414));
#416= IFCPOLYLOOP((#372,#384,#385,#373));
#417= IFCFACEOUTERBOUND(#416,.T.);
#418= IFCFACE((#417));
#419= IFCPOLYLOOP((#373,#385,#386,#374));
#420= IFCFACEOUTERBOUND(#419,.T.);
#421= IFCFACE((#420));
#422= IFCPOLYLOOP((#374,#386,#387,#375));
#423= IFCFACEOUTERBOUND(#422,.T.);
#424= IFCFACE((#423));
#425= IFCPOLYLOOP((#375,#387,#388,#376));
#426= IFCFACEOUTERBOUND(#425,.T.);
#427= IFCFACE((#426));
#428= IFCPOLYLOOP((#376,#388,#377,#365));
#429= IFCFACEOUTERBOUND(#428,.T.);
#430= IFCFACE((#429));
#431= IFCCLOSEDSHELL((#391,#394,#397,#400,#403,#406,#409,#412,#415,#418,#421,#424,#427,#430));
#432= IFCFACETEDBREP(#431);
#433= IFCSTYLEDITEM(#432,(#119),$);
#434= IFCSHAPEREPRESENTATION(#12,'Body','Brep',(#432));
#435= IFCREPRESENTATIONMAP(#10,#434);
#436= IFCMAPPEDITEM(#435,#346);
#437= IFCSHAPEREPRESENTATION(#12,'Body','MappedRepresentation',(#436));
#438= IFCPRODUCTDEFINITIONSHAPE($,$,(#437));
#439= IFCCARTESIANPOINT((1935.05611502159,17514.6840180789,10435.4762709132));
#440= IFCAXIS2PLACEMENT3D(#439,#353,#354);
#441= IFCLOCALPLACEMENT(#42,#440);
#442= IFCMECHANICALFASTENER('0bPfEjdOP6URTWuQ8AHG0J',#273,'Bolt assembly',$,$,#441,#438,'ID256693ad-9d86-4679-b760-e1a20a450013',24.,350.);
#443= IFCCARTESIANPOINT((13.,-386.,0.));
#444= IFCCARTESIANPOINT((11.2583302491975,-386.,6.50000000000039));
#445= IFCCARTESIANPOINT((6.49999999999922,-386.,11.2583302491982));
#446= IFCCARTESIANPOINT((-1.34723677608042E-12,-386.,13.));
#447= IFCCARTESIANPOINT((-6.50000000000155,-386.,11.2583302491968));
#448= IFCCARTESIANPOINT((-11.2583302491988,-386.,6.49999999999806));
#449= IFCCARTESIANPOINT((-13.,-386.,-2.69447355216084E-12));
#450= IFCCARTESIANPOINT((-11.2583302491961,-386.,-6.50000000000272));
#451= IFCCARTESIANPOINT((-6.4999999999969,-386.,-11.2583302491995));
#452= IFCCARTESIANPOINT((4.02727742892113E-12,-386.,-13.));
#453= IFCCARTESIANPOINT((6.50000000000388,-386.,-11.2583302491955));
#454= IFCCARTESIANPOINT((11.2583302492002,-386.,-6.49999999999573));
#455= IFCCARTESIANPOINT((13.,-35.9,0.));
#456= IFCCARTESIANPOINT((11.2583302491975,-35.9,6.50000000000039));
#457= IFCCARTESIANPOINT((6.49999999999922,-35.9,11.2583302491982));
#458= IFCCARTESIANPOINT((-1.34723677608042E-12,-35.9,13.));
#459= IFCCARTESIANPOINT((-6.50000000000155,-35.9,11.2583302491968));
#460= IFCCARTESIANPOINT((-11.2583302491988,-35.9,6.49999999999806));
#461= IFCCARTESIANPOINT((-13.,-35.9,-2.69447355216084E-12));
#462= IFCCARTESIANPOINT((-11.2583302491961,-35.9,-6.50000000000272));
#463= IFCCARTESIANPOINT((-6.4999999999969,-35.9,-11.2583302491995));
#464= IFCCARTESIANPOINT((4.02727742892113E-12,-35.9,-13.));
#465= IFCCARTESIANPOINT((6.50000000000388,-35.9,-11.2583302491955));
#466= IFCCARTESIANPOINT((11.2583302492002,-35.9,-6.49999999999573));
#467= IFCPOLYLOOP((#443,#444,#445,#446,#447,#448,#449,#450,#451,#452,#453,#454));
#468= IFCFACEOUTERBOUND(#467,.T.);
#469= IFCFACE((#468));
#470= IFCPOLYLOOP((#466,#465,#464,#463,#462,#461,#460,#459,#458,#457,#456,#455));
#471= IFCFACEOUTERBOUND(#470,.T.);
#472= IFCFACE((#471));
#473= IFCPOLYLOOP((#443,#455,#456,#444));
#474= IFCFACEOUTERBOUND(#473,.T.);
#475= IFCFACE((#474));
#476= IFCPOLYLOOP((#444,#456,#457,#445));
#477= IFCFACEOUTERBOUND(#476,.T.);
#478= IFCFACE((#477));
#479= IFCPOLYLOOP((#445,#457,#458,#446));
#480= IFCFACEOUTERBOUND(#479,.T.);
#481= IFCFACE((#480));
#482= IFCPOLYLOOP((#446,#458,#459,#447));
#483= IFCFACEOUTERBOUND(#482,.T.);
#484= IFCFACE((#483));
#485= IFCPOLYLOOP((#447,#459,#460,#448));
#486= IFCFACEOUTERBOUND(#485,.T.);
#487= IFCFACE((#486));
#488= IFCPOLYLOOP((#448,#460,#461,#449));
#489= IFCFACEOUTERBOUND(#488,.T.);
#490= IFCFACE((#489));
#491= IFCPOLYLOOP((#449,#461,#462,#450));
#492= IFCFACEOUTERBOUND(#491,.T.);
#493= IFCFACE((#492));
#494= IFCPOLYLOOP((#450,#462,#463,#451));
#495= IFCFACEOUTERBOUND(#494,.T.);
#496= IFCFACE((#495));
#497= IFCPOLYLOOP((#451,#463,#464,#452));
#498= IFCFACEOUTERBOUND(#497,.T.);
#499= IFCFACE((#498));
#500= IFCPOLYLOOP((#452,#464,#465,#453));
#501= IFCFACEOUTERBOUND(#500,.T.);
#502= IFCFACE((#501));
#503= IFCPOLYLOOP((#453,#465,#466,#454));
#504= IFCFACEOUTERBOUND(#503,.T.);
#505= IFCFACE((#504));
#506= IFCPOLYLOOP((#454,#466,#455,#443));
#507= IFCFACEOUTERBOUND(#506,.T.);
#508= IFCFACE((#507));
#509= IFCCLOSEDSHELL((#469,#472,#475,#478,#481,#484,#487,#490,#493,#496,#499,#502,#505,#508));
#510= IFCFACETEDBREP(#509);
#511= IFCSTYLEDITEM(#510,(#119),$);
#512= IFCSHAPEREPRESENTATION(#12,'Body','Brep',(#510));
#513= IFCREPRESENTATIONMAP(#10,#512);
#514= IFCMAPPEDITEM(#513,#346);
#515= IFCSHAPEREPRESENTATION(#12,'Body','MappedRepresentation',(#514));
#516= IFCPRODUCTDEFINITIONSHAPE($,$,(#515));
#517= IFCCARTESIANPOINT((1855.24951248112,25824.0130481049,10436.0001907349));
#518= IFCDIRECTION((-0.999999999381395,3.5174000015104E-05,0.));
#519= IFCDIRECTION((-3.51740000143568E-05,-0.999999999381395,0.));
#520= IFCAXIS2PLACEMENT3D(#517,#518,#519);
#521= IFCLOCALPLACEMENT(#42,#520);
#522= IFCMECHANICALFASTENER('1TcTA62RH9JBZqafaWazuz',#273,'Bolt assembly',$,$,#521,#516,'ID5d99d286-09b4-494c-b8f4-92992093de3d',24.,350.);
#523= IFCMAPPEDITEM(#513,#346);
#524= IFCSHAPEREPRESENTATION(#12,'Body','MappedRepresentation',(#523));
#525= IFCPRODUCTDEFINITIONSHAPE($,$,(#524));
#526= IFCCARTESIANPOINT((1735.24951248112,25824.0130481049,10436.0001907349));
#527= IFCAXIS2PLACEMENT3D(#526,#518,#519);
#528= IFCLOCALPLACEMENT(#42,#527);
#529= IFCMECHANICALFASTENER('0hp7jNTCHEpQyyA2hAJrHP',#273,'Bolt assembly',$,$,#528,#525,'ID2bcc7b57-74c4-4ecd-af3c-282aca4f5459',24.,350.);
#530= IFCSHAPEREPRESENTATION(#12,'Body','Brep',(#235));
#531= IFCPRODUCTDEFINITIONSHAPE($,$,(#530));
#532= IFCCARTESIANPOINT((2000.10896996256,17467.679537979,10390.0001907349));
#533= IFCAXIS2PLACEMENT3D(#532,#240,#241);
#534= IFCLOCALPLACEMENT(#42,#533);
#535= IFCPLATE('1U$0gl4fj188CUwt$aWWSk',#44,'PLATE-6','PL6*330',$,#534,#531,'ID5efc0aaf-129b-4120-831e-eb7fe482072e');
#536= IFCCOLOURRGB('Light Yellow',1.,0.898039215686275,0.);
#537= IFCSURFACESTYLERENDERING(#536,0.,$,$,$,$,IFCNORMALISEDRATIOMEASURE(0.00390625),IFCSPECULAREXPONENT(10.),.NOTDEFINED.);
#538= IFCSURFACESTYLE('STEEL/S275',.POSITIVE.,(#537));
#539= IFCPRESENTATIONSTYLEASSIGNMENT((#538));
#540= IFCCARTESIANPOINT((1.16415321826935E-10,165.,-164.999999999986));
#541= IFCCARTESIANPOINT((1.16415321826935E-10,-165.,-164.999999999986));
#542= IFCCARTESIANPOINT((8429.32523041356,-165.,-164.999999999892));
#543= IFCCARTESIANPOINT((8429.32523041356,165.,-164.999999999892));
#544= IFCPOLYLOOP((#540,#541,#542,#543));
#545= IFCFACEOUTERBOUND(#544,.T.);
#546= IFCFACE((#545));
#547= IFCCARTESIANPOINT((-1.16415321826935E-10,-165.,164.999999999985));
#548= IFCCARTESIANPOINT((8429.32523041333,-165.,165.000000000079));
#549= IFCPOLYLOOP((#541,#547,#548,#542));
#550= IFCFACEOUTERBOUND(#549,.T.);
#551= IFCFACE((#550));
#552= IFCCARTESIANPOINT((-1.16415321826935E-10,165.,164.999999999985));
#553= IFCCARTESIANPOINT((8429.32523041333,165.,165.000000000079));
#554= IFCPOLYLOOP((#547,#552,#553,#548));
#555= IFCFACEOUTERBOUND(#554,.T.);
#556= IFCFACE((#555));
#557= IFCPOLYLOOP((#552,#540,#543,#553));
#558= IFCFACEOUTERBOUND(#557,.T.);
#559= IFCFACE((#558));
#560= IFCCARTESIANPOINT((1.23691279441118E-10,175.,-174.999999999985));
#561= IFCCARTESIANPOINT((-1.20053300634027E-10,175.,174.999999999985));
#562= IFCCARTESIANPOINT((8429.32523041332,175.,175.000000000078));
#563= IFCCARTESIANPOINT((8429.32523041356,175.,-174.999999999892));
#564= IFCPOLYLOOP((#560,#561,#562,#563));
#565= IFCFACEOUTERBOUND(#564,.T.);
#566= IFCFACE((#565));
#567= IFCCARTESIANPOINT((-1.20053300634027E-10,-175.,174.999999999985));
#568= IFCCARTESIANPOINT((8429.32523041332,-175.,175.000000000078));
#569= IFCPOLYLOOP((#561,#567,#568,#562));
#570= IFCFACEOUTERBOUND(#569,.T.);
#571= IFCFACE((#570));
#572= IFCCARTESIANPOINT((1.23691279441118E-10,-175.,-174.999999999985));
#573= IFCCARTESIANPOINT((8429.32523041356,-175.,-174.999999999892));
#574= IFCPOLYLOOP((#567,#572,#573,#568));
#575= IFCFACEOUTERBOUND(#574,.T.);
#576= IFCFACE((#575));
#577= IFCPOLYLOOP((#572,#560,#563,#573));
#578= IFCFACEOUTERBOUND(#577,.T.);
#579= IFCFACE((#578));
#580= IFCPOLYLOOP((#568,#573,#563,#562));
#581= IFCFACEOUTERBOUND(#580,.T.);
#582= IFCPOLYLOOP((#548,#553,#543,#542));
#583= IFCFACEBOUND(#582,.T.);
#584= IFCFACE((#581,#583));
#585= IFCPOLYLOOP((#572,#567,#561,#560));
#586= IFCFACEOUTERBOUND(#585,.T.);
#587= IFCPOLYLOOP((#552,#547,#541,#540));
#588= IFCFACEBOUND(#587,.T.);
#589= IFCFACE((#586,#588));
#590= IFCCLOSEDSHELL((#546,#551,#556,#559,#566,#571,#576,#579,#584,#589));
#591= IFCFACETEDBREP(#590);
#592= IFCSTYLEDITEM(#591,(#539),$);
#593= IFCSHAPEREPRESENTATION(#12,'Body','Brep',(#591));
#594= IFCPRODUCTDEFINITIONSHAPE($,$,(#593));
#595= IFCCARTESIANPOINT((1835.10874243581,17454.682426141,10225.0001907349));
#596= IFCDIRECTION((1.75669999972928E-05,0.9999999998457,0.));
#597= IFCAXIS2PLACEMENT3D(#595,#241,#596);
#598= IFCLOCALPLACEMENT(#42,#597);
#599= IFCBEAM('3owg1hzWf258mFaLF6SQ_R',#44,'B4-\S\?\S\Z350x350x10','TUB350X350X10',$,#598,#594,'IDf2eaa06b-f60a-4214-8c0f-9153c671af9b');
#600= IFCBEAMTYPE('37sXMpOXvCxgtSf_uwdMqu',#5,'TUB350X350X10',$,$,$,$,$,$,.NOTDEFINED.);
#601= IFCPROPERTYSINGLEVALUE('Bottom elevation',$,IFCLABEL(' +10.050'),$);
#602= IFCPROPERTYSINGLEVALUE('Top elevation',$,IFCLABEL(' +10.400'),$);
#603= IFCPROPERTYSINGLEVALUE('Preliminary mark',$,IFCLABEL('5-1-P1'),$);
#604= IFCPROPERTYSINGLEVALUE('Class',$,IFCLABEL('6'),$);
#605= IFCPROPERTYSET('05ZWpIBiPAPRB_8c2ERTO0',#5,'Tekla Common','Common Properties to Shared building elements',(#601,#602,#248,#603,#250,#604));
#606= IFCPROPERTYSINGLEVALUE('Weight',$,IFCMASSMEASURE(899.91),$);
#607= IFCPROPERTYSINGLEVALUE('Volume',$,IFCVOLUMEMEASURE(0.115),$);
#608= IFCPROPERTYSINGLEVALUE('Gross footprint area',$,IFCAREAMEASURE(2.95),$);
#609= IFCPROPERTYSINGLEVALUE('Area per tons',$,IFCAREAMEASURE(13.129),$);
#610= IFCPROPERTYSINGLEVALUE('Net surface area',$,IFCAREAMEASURE(11.815),$);
#611= IFCPROPERTYSINGLEVALUE('Height',$,IFCLENGTHMEASURE(350.),$);
#612= IFCPROPERTYSINGLEVALUE('Width',$,IFCLENGTHMEASURE(350.),$);
#613= IFCPROPERTYSINGLEVALUE('Length',$,IFCLENGTHMEASURE(8429.3),$);
#614= IFCPROPERTYSET('0gy2uSWiv2DPGemGwSTmkn',#5,'Tekla Quantity','Quantity Properties to Shared building elements',(#606,#607,#608,#609,#610,#611,#612,#613));
#615= IFCPROPERTYSINGLEVALUE('Reference',$,IFCIDENTIFIER('5-1-P1'),$);
#616= IFCPROPERTYSET('2AdGk3C3599x5ntPiJgWPq',#5,'Pset_BeamCommon','Common Properties to beam elements',(#262,#615));
#617= IFCQUANTITYLENGTH('Length',$,$,8429.32523040075);
#618= IFCQUANTITYAREA('OuterSurfaceArea',$,$,11.8150553225611);
#619= IFCQUANTITYVOLUME('NetVolume',$,$,0.11463882313345);
#620= IFCQUANTITYWEIGHT('NetWeight',$,$,899.914761597585);
#621= IFCELEMENTQUANTITY('3fBbKKGhT5SeBTuZ0KxXwB',#5,'BaseQuantities',$,$,(#617,#618,#619,#620));
#622= IFCRELAGGREGATES('34huXja8D1wuz21mkqfDMF',#5,$,$,#37,(#39));
#623= IFCRELAGGREGATES('1Y_60vlVf10vHGv$LZZzT7',#5,$,$,#39,(#41));
#624= IFCRELAGGREGATES('2GC8SZAybCX8PH$DOXe0Fx',#5,$,$,#41,(#43));
#625= IFCRELCONTAINEDINSPATIALSTRUCTURE('1folrtt2rFkuSqi6$Hh9l4',#5,$,$,(#599,#535,#529,#522,#442,#357,#244,#203,#196,#189,#182,#175,#168,#161,#133),#43);
#626= IFCRELDEFINESBYPROPERTIES('3PGeEM1JTCZ8QhS_J7lB7N',#5,$,$,(#203,#196,#189,#182,#175,#168,#161,#133),#151);
#627= IFCRELDEFINESBYPROPERTIES('1TzsNmjOX7Lgr8J_g9QswL',#5,$,$,(#535,#244),#252);
#628= IFCRELDEFINESBYPROPERTIES('2wwenuk_b0zOPCdjCLaVoJ',#5,$,$,(#535,#244),#261);
#629= IFCRELDEFINESBYPROPERTIES('35Ft2mHpH3vu6Uo1c11_Oa',#5,$,$,(#535,#244),#264);
#630= IFCRELDEFINESBYPROPERTIES('0EXo$KQkP2ROx6FctTKxo$',#5,$,$,(#535,#244),#271);
#631= IFCRELDEFINESBYPROPERTIES('0A$JqF6sj9JggMOduWMsdX',#5,$,$,(#529,#522,#442,#357),#363);
#632= IFCRELDEFINESBYPROPERTIES('122BuA$qrEFQh6JN5BI5K0',#5,$,$,(#599),#605);
#633= IFCRELDEFINESBYPROPERTIES('2l5yPgYgL8eg$mQnOtlwDi',#5,$,$,(#599),#614);
#634= IFCRELDEFINESBYPROPERTIES('2Rh40mkgnAZRDl0oT04mHL',#5,$,$,(#599),#616);
#635= IFCRELDEFINESBYPROPERTIES('3P9pXfxhD9Q9fGGLOngtEL',#5,$,$,(#599),#621);
#636= IFCRELDEFINESBYTYPE('3opNg6upj41BpLbGDrgU70',#5,$,$,(#529,#522,#442,#357,#203,#196,#189,#182,#175,#168,#161,#133),#134);
#637= IFCRELDEFINESBYTYPE('0fbDA0obH9WuE4PwHapWx8',#5,$,$,(#535,#244),#245);
#638= IFCRELDEFINESBYTYPE('1jzoNs52H4dAfwG6b1JoWq',#5,$,$,(#599),#600);
#639= IFCRELASSOCIATESMATERIAL('16u5Pr05L1RBsyGkLddgkk',#5,$,$,(#203,#196,#189,#182,#175,#168,#161,#133),#152);
#640= IFCRELASSOCIATESMATERIAL('2VWDIbfrj3_BXVyf2TY2zM',#5,$,$,(#599,#535,#244),#272);
#641= IFCRELASSOCIATESMATERIAL('17ZYzKHeT86v2jXHZT437P',#5,$,$,(#529,#522,#442,#357),#364);
#642= IFCPRESENTATIONLAYERASSIGNMENT('BoltArray',$,(#126,#154,#163,#170,#177,#184,#191,#198,#350,#437,#515,#524),$);
#643= IFCPRESENTATIONLAYERASSIGNMENT('PLATE-6',$,(#237,#530),$);
#644= IFCPRESENTATIONLAYERASSIGNMENT('B4-\S\?\S\Z350x350x10',$,(#593),$);
ENDSEC;

END-ISO-10303-21;
