ISO-10303-21;
HEADER;
FILE_DESCRIPTION(('ViewDefinition[CoordinationView_V2.0, QuantityTakeOffAddOnView]', 'ExchangeRequirement[Structural, SurfaceGeometry]', 'Option [BaseQuantities:On]', 'Option [GridExport:On]', 'Option [Assemblies:Off]', 'Option [Bolts:On]', 'Option [Rebars:On]', 'Option [PourObjects:Off]', 'Option [Welds:Off]', 'Option [SurfaceTreatments:On]', 'Option [LocationBy:0]', 'Option [ViewColors:Off]', 'Option [SectionedSpine:Off]', 'Option [PropertySets:On]', 'Option [Export all:Off]'),'2;1');
FILE_NAME('5-1-A8_16.ifc','2026-03-10T08:04:18',('DESKTOP-NLV509P\\Ahmed'),('Structural Designer'),'IFC Parser version: 3.13.2','Tekla Structures 2023 Service Pack 8, IFC Export Version: 4.0.0.0 Jan 19 2024','');
FILE_SCHEMA(('IFC2X3'));
ENDSEC;

DATA;
#1= IFCPERSON('DESKTOP-NLV509P\\Ahmed','Undefined',$,$,$,$,$,$);
#2= IFCORGANIZATION($,'Trimble Solutions Corporation',$,$,$);
#3= IFCPERSONANDORGANIZATION(#1,#2,$);
#4= IFCAPPLICATION(#2,'2023 Service Pack 8','Tekla Structures','Multi material modeling');
#5= IFCOWNERHISTORY(#3,#4,$,.NOCHANGE.,$,$,$,1773119058);
#6= IFCCARTESIANPOINT((0.,0.,0.));
#7= IFCDIRECTION((1.,0.,0.));
#8= IFCDIRECTION((0.,1.,0.));
#9= IFCDIRECTION((0.,0.,1.));
#10= IFCAXIS2PLACEMENT3D(#6,#9,#7);
#11= IFCGEOMETRICREPRESENTATIONCONTEXT($,'Model',3,1.E-05,#10,$);
#12= IFCGEOMETRICREPRESENTATIONSUBCONTEXT('Body','Model',*,*,*,*,#11,$,.MODEL_VIEW.,$);
#13= IFCGEOMETRICREPRESENTATIONSUBCONTEXT('Axis','Model',*,*,*,*,#11,$,.GRAPH_VIEW.,$);
#14= IFCGEOMETRICREPRESENTATIONSUBCONTEXT('FootPrint','Model',*,*,*,*,#11,$,.MODEL_VIEW.,$);
#15= IFCSIUNIT(*,.LENGTHUNIT.,.MILLI.,.METRE.);
#16= IFCMEASUREWITHUNIT(IFCRATIOMEASURE(304.8),#15);
#17= IFCDIMENSIONALEXPONENTS(1,0,0,0,0,0,0);
#18= IFCCONVERSIONBASEDUNIT(#17,.LENGTHUNIT.,'FOOT',#16);
#19= IFCSIUNIT(*,.AREAUNIT.,$,.SQUARE_METRE.);
#20= IFCMEASUREWITHUNIT(IFCRATIOMEASURE(0.09290304),#19);
#21= IFCDIMENSIONALEXPONENTS(2,0,0,0,0,0,0);
#22= IFCCONVERSIONBASEDUNIT(#21,.AREAUNIT.,'SQUARE FOOT',#20);
#23= IFCSIUNIT(*,.VOLUMEUNIT.,$,.CUBIC_METRE.);
#24= IFCMEASUREWITHUNIT(IFCRATIOMEASURE(0.028316846592),#23);
#25= IFCDIMENSIONALEXPONENTS(3,0,0,0,0,0,0);
#26= IFCCONVERSIONBASEDUNIT(#25,.VOLUMEUNIT.,'CUBIC FOOT',#24);
#27= IFCSIUNIT(*,.MASSUNIT.,.KILO.,.GRAM.);
#28= IFCSIUNIT(*,.TIMEUNIT.,$,.SECOND.);
#29= IFCSIUNIT(*,.PLANEANGLEUNIT.,$,.RADIAN.);
#30= IFCMEASUREWITHUNIT(IFCRATIOMEASURE(0.0174532925199433),#29);
#31= IFCDIMENSIONALEXPONENTS(0,0,0,0,0,0,0);
#32= IFCCONVERSIONBASEDUNIT(#31,.PLANEANGLEUNIT.,'DEGREE',#30);
#33= IFCSIUNIT(*,.SOLIDANGLEUNIT.,$,.STERADIAN.);
#34= IFCSIUNIT(*,.THERMODYNAMICTEMPERATUREUNIT.,$,.DEGREE_CELSIUS.);
#35= IFCSIUNIT(*,.LUMINOUSINTENSITYUNIT.,$,.LUMEN.);
#36= IFCUNITASSIGNMENT((#15,#19,#23,#27,#28,#29,#33,#34,#35));
#37= IFCPROJECT('0YimZfYD12buVnifZDMTg0',#5,'Undefined',$,$,$,$,(#11),#36);
#38= IFCLOCALPLACEMENT($,#10);
#39= IFCSITE('3wlEkivbLBuB$6CQq7EBda',#5,'Undefined',$,$,#38,$,$,.ELEMENT.,$,$,$,$,$);
#40= IFCLOCALPLACEMENT(#38,#10);
#41= IFCBUILDING('104uMOoLv9Kxw6Ec9g$sfz',#5,'Undefined',$,$,#40,$,$,.ELEMENT.,$,$,$);
#42= IFCLOCALPLACEMENT(#40,#10);
#43= IFCBUILDINGSTOREY('3gJPpYF7LCbf7I109fNVl5',#5,'Undefined',$,$,#42,$,$,.ELEMENT.,0.);
#44= IFCOWNERHISTORY(#3,#4,$,.NOCHANGE.,$,$,$,1770796800);
#45= IFCCOLOURRGB('Light Green',0.356862745098039,0.592156862745098,0.137254901960784);
#46= IFCSURFACESTYLERENDERING(#45,0.,$,$,$,$,IFCNORMALISEDRATIOMEASURE(0.00390625),IFCSPECULAREXPONENT(10.),.NOTDEFINED.);
#47= IFCSURFACESTYLE('STEEL/S275',.POSITIVE.,(#46));
#48= IFCPRESENTATIONSTYLEASSIGNMENT((#47));
#49= IFCCARTESIANPOINT((27.9999999999927,-1.5,320.003295898438));
#50= IFCCARTESIANPOINT((27.9999999999927,-1.5,217.999999999996));
#51= IFCCARTESIANPOINT((27.9999999999927,1.5,217.999999999996));
#52= IFCCARTESIANPOINT((27.9999999999927,1.5,320.003295898438));
#53= IFCPOLYLOOP((#49,#50,#51,#52));
#54= IFCFACEOUTERBOUND(#53,.T.);
#55= IFCFACE((#54));
#56= IFCCARTESIANPOINT((28.4860842946437,-1.5,214.619209470755));
#57= IFCCARTESIANPOINT((28.4860842946437,1.5,214.619209470755));
#58= IFCPOLYLOOP((#56,#57,#51,#50));
#59= IFCFACEOUTERBOUND(#58,.T.);
#60= IFCFACE((#59));
#61= IFCCARTESIANPOINT((29.9049575198951,-1.5,211.51231048386));
#62= IFCCARTESIANPOINT((29.9049575198951,1.5,211.51231048386));
#63= IFCPOLYLOOP((#61,#62,#57,#56));
#64= IFCFACEOUTERBOUND(#63,.T.);
#65= IFCFACE((#64));
#66= IFCCARTESIANPOINT((32.1416710053963,-1.5,208.931005517788));
#67= IFCCARTESIANPOINT((32.1416710053963,1.5,208.931005517788));
#68= IFCPOLYLOOP((#66,#67,#62,#61));
#69= IFCFACEOUTERBOUND(#68,.T.);
#70= IFCFACE((#69));
#71= IFCCARTESIANPOINT((35.0150195267925,-1.5,207.084416549278));
#72= IFCCARTESIANPOINT((35.0150195267925,1.5,207.084416549278));
#73= IFCPOLYLOOP((#71,#72,#67,#66));
#74= IFCFACEOUTERBOUND(#73,.T.);
#75= IFCFACE((#74));
#76= IFCCARTESIANPOINT((38.2922214753562,-1.5,206.122143234472));
#77= IFCCARTESIANPOINT((38.2922214753562,1.5,206.122143234472));
#78= IFCPOLYLOOP((#76,#77,#72,#71));
#79= IFCFACEOUTERBOUND(#78,.T.);
#80= IFCFACE((#79));
#81= IFCCARTESIANPOINT((41.7077774394784,-1.5,206.122143234472));
#82= IFCCARTESIANPOINT((41.7077774394784,1.5,206.122143234472));
#83= IFCPOLYLOOP((#81,#82,#77,#76));
#84= IFCFACEOUTERBOUND(#83,.T.);
#85= IFCFACE((#84));
#86= IFCCARTESIANPOINT((44.9849793880421,-1.5,207.084416549278));
#87= IFCCARTESIANPOINT((44.9849793880421,1.5,207.084416549278));
#88= IFCPOLYLOOP((#86,#87,#82,#81));
#89= IFCFACEOUTERBOUND(#88,.T.);
#90= IFCFACE((#89));
#91= IFCCARTESIANPOINT((47.8583279094382,-1.5,208.931005517788));
#92= IFCCARTESIANPOINT((47.8583279094382,1.5,208.931005517788));
#93= IFCPOLYLOOP((#91,#92,#87,#86));
#94= IFCFACEOUTERBOUND(#93,.T.);
#95= IFCFACE((#94));
#96= IFCCARTESIANPOINT((50.0950413949395,-1.5,211.51231048386));
#97= IFCCARTESIANPOINT((50.0950413949395,1.5,211.51231048386));
#98= IFCPOLYLOOP((#96,#97,#92,#91));
#99= IFCFACEOUTERBOUND(#98,.T.);
#100= IFCFACE((#99));
#101= IFCCARTESIANPOINT((51.5139146201909,-1.5,214.619209470755));
#102= IFCCARTESIANPOINT((51.5139146201909,1.5,214.619209470755));
#103= IFCPOLYLOOP((#101,#102,#97,#96));
#104= IFCFACEOUTERBOUND(#103,.T.);
#105= IFCFACE((#104));
#106= IFCCARTESIANPOINT((51.9999989148419,-1.5,217.999999999996));
#107= IFCCARTESIANPOINT((51.9999989148419,1.5,217.999999999996));
#108= IFCPOLYLOOP((#106,#107,#102,#101));
#109= IFCFACEOUTERBOUND(#108,.T.);
#110= IFCFACE((#109));
#111= IFCCARTESIANPOINT((52.0000016122431,-1.5,320.003295655195));
#112= IFCCARTESIANPOINT((52.0000016122431,1.5,320.003295898438));
#113= IFCPOLYLOOP((#111,#112,#107,#106));
#114= IFCFACEOUTERBOUND(#113,.T.);
#115= IFCFACE((#114));
#116= IFCCARTESIANPOINT((0.,-1.5,0.));
#117= IFCCARTESIANPOINT((-7.27595761418343E-12,-1.5,320.003295898438));
#118= IFCCARTESIANPOINT((-7.27595761418343E-12,1.5,320.003295898438));
#119= IFCCARTESIANPOINT((0.,1.5,0.));
#120= IFCPOLYLOOP((#116,#117,#118,#119));
#121= IFCFACEOUTERBOUND(#120,.T.);
#122= IFCFACE((#121));
#123= IFCCARTESIANPOINT((80.,-1.5,-3.63797880709171E-12));
#124= IFCCARTESIANPOINT((80.,1.5,-3.63797880709171E-12));
#125= IFCPOLYLOOP((#123,#116,#119,#124));
#126= IFCFACEOUTERBOUND(#125,.T.);
#127= IFCFACE((#126));
#128= IFCCARTESIANPOINT((80.,-1.5,320.003295898438));
#129= IFCCARTESIANPOINT((80.,1.5,320.003295898438));
#130= IFCPOLYLOOP((#128,#123,#124,#129));
#131= IFCFACEOUTERBOUND(#130,.T.);
#132= IFCFACE((#131));
#133= IFCPOLYLOOP((#101,#96,#91,#86,#81,#76,#71,#66,#61,#56,#50,#49,#117,#116,#123,#128,#111,#106));
#134= IFCFACEOUTERBOUND(#133,.T.);
#135= IFCFACE((#134));
#136= IFCPOLYLOOP((#118,#117,#49,#52));
#137= IFCFACEOUTERBOUND(#136,.T.);
#138= IFCFACE((#137));
#139= IFCPOLYLOOP((#129,#124,#119,#118,#52,#51,#57,#62,#67,#72,#77,#82,#87,#92,#97,#102,#107,#112));
#140= IFCFACEOUTERBOUND(#139,.T.);
#141= IFCFACE((#140));
#142= IFCPOLYLOOP((#128,#129,#112,#111));
#143= IFCFACEOUTERBOUND(#142,.T.);
#144= IFCFACE((#143));
#145= IFCCLOSEDSHELL((#55,#60,#65,#70,#75,#80,#85,#90,#95,#100,#105,#110,#115,#122,#127,#132,#135,#138,#141,#144));
#146= IFCFACETEDBREP(#145);
#147= IFCSTYLEDITEM(#146,(#48),$);
#148= IFCSHAPEREPRESENTATION(#12,'Body','Brep',(#146));
#149= IFCPRODUCTDEFINITIONSHAPE($,$,(#148));
#150= IFCCARTESIANPOINT((56620.0035661101,27429.4140129631,10301.5001907429));
#151= IFCDIRECTION((0.,-1.,0.));
#152= IFCDIRECTION((-1.,0.,0.));
#153= IFCAXIS2PLACEMENT3D(#150,#151,#152);
#154= IFCLOCALPLACEMENT(#42,#153);
#155= IFCPLATE('2WsdXIS1z4cvBfHHNBdIJ5',#44,'PLATE-3','PL3*80',$,#154,#149,'IDa0da7852-701f-449b-92e9-4515cb9d24c5');
#156= IFCPLATETYPE('1P7QGsFNj859lONx2t3PTu',#5,'PL3*80',$,$,$,$,$,$,.NOTDEFINED.);
#157= IFCPROPERTYSINGLEVALUE('Bottom elevation',$,IFCLABEL(' +10.300'),$);
#158= IFCPROPERTYSINGLEVALUE('Top elevation',$,IFCLABEL(' +10.303'),$);
#159= IFCPROPERTYSINGLEVALUE('Initial GUID',$,$,$);
#160= IFCPROPERTYSINGLEVALUE('Preliminary mark',$,IFCLABEL('5-1-P13'),$);
#161= IFCPROPERTYSINGLEVALUE('Phase',$,IFCINTEGER(4),$);
#162= IFCPROPERTYSINGLEVALUE('Class',$,IFCLABEL('17'),$);
#163= IFCPROPERTYSET('2dVOE5lEf8Rhz6KsBXynnc',#5,'Tekla Common','Common Properties to Shared building elements',(#157,#158,#159,#160,#161,#162));
#164= IFCPROPERTYSINGLEVALUE('Weight',$,IFCMASSMEASURE(0.54),$);
#165= IFCPROPERTYSINGLEVALUE('Volume',$,IFCVOLUMEMEASURE(0.),$);
#166= IFCPROPERTYSINGLEVALUE('Gross footprint area',$,IFCAREAMEASURE(0.023),$);
#167= IFCPROPERTYSINGLEVALUE('Area per tons',$,IFCAREAMEASURE(90.579),$);
#168= IFCPROPERTYSINGLEVALUE('Net surface area',$,IFCAREAMEASURE(0.049),$);
#169= IFCPROPERTYSINGLEVALUE('Height',$,IFCLENGTHMEASURE(80.),$);
#170= IFCPROPERTYSINGLEVALUE('Width',$,IFCLENGTHMEASURE(3.),$);
#171= IFCPROPERTYSINGLEVALUE('Length',$,IFCLENGTHMEASURE(320.),$);
#172= IFCPROPERTYSET('2XT$DtLGH9Xw9aze7i66LK',#5,'Tekla Quantity','Quantity Properties to Shared building elements',(#164,#165,#166,#167,#168,#169,#170,#171));
#173= IFCPROPERTYSINGLEVALUE('LoadBearing',$,IFCBOOLEAN(.F.),$);
#174= IFCPROPERTYSINGLEVALUE('Reference',$,IFCIDENTIFIER('5-1-P13'),$);
#175= IFCPROPERTYSET('3_ZQ3iihHC_RQWfksjg6lx',#5,'Pset_PlateCommon','Common Properties to plate elements',(#173,#174));
#176= IFCQUANTITYLENGTH('Width',$,$,80.0000000000073);
#177= IFCQUANTITYAREA('NetArea',$,$,0.0489108576461704);
#178= IFCQUANTITYAREA('GrossArea',$,$,0.0256002636718775);
#179= IFCQUANTITYAREA('CrossSectionArea',$,$,9.E-06);
#180= IFCQUANTITYVOLUME('NetVolume',$,$,6.87871571323646E-05);
#181= IFCQUANTITYVOLUME('GrossVolume',$,$,7.68007910156287E-05);
#182= IFCELEMENTQUANTITY('1HUeXnJg17JRCxUSq1s7QM',#5,'BaseQuantities',$,$,(#176,#177,#178,#179,#180,#181));
#183= IFCMATERIAL('STEEL/S275');
#184= IFCRELAGGREGATES('0958W0gbnC4gcJioUZuHdS',#5,$,$,#37,(#39));
#185= IFCRELAGGREGATES('0gIRKbgJT5$O97AbcgUzFv',#5,$,$,#39,(#41));
#186= IFCRELAGGREGATES('19aAelwDT2hBuPd_i$BhvA',#5,$,$,#41,(#43));
#187= IFCRELCONTAINEDINSPATIALSTRUCTURE('181zKEuPb3sAnMdCOTrG3z',#5,$,$,(#155),#43);
#188= IFCRELDEFINESBYPROPERTIES('2ZtVHh_Zf7awf43$SmTQ$6',#5,$,$,(#155),#163);
#189= IFCRELDEFINESBYPROPERTIES('3KYOLXSur4xg5NwKCKjEQ$',#5,$,$,(#155),#172);
#190= IFCRELDEFINESBYPROPERTIES('38UiB8Dsb4C8tGtKZk01$Z',#5,$,$,(#155),#175);
#191= IFCRELDEFINESBYPROPERTIES('1wG42_4eTB9vMT6Dh_Nzfl',#5,$,$,(#155),#182);
#192= IFCRELDEFINESBYTYPE('1wejCK13b0shvOix4IPXCQ',#5,$,$,(#155),#156);
#193= IFCRELASSOCIATESMATERIAL('2s3deRTDLEwRlRAhyYGlA5',#5,$,$,(#155),#183);
#194= IFCPRESENTATIONLAYERASSIGNMENT('PLATE-3',$,(#148),$);
ENDSEC;

END-ISO-10303-21;
