ISO-10303-21;
HEADER;
FILE_DESCRIPTION(('ViewDefinition[CoordinationView_V2.0, QuantityTakeOffAddOnView]', 'ExchangeRequirement[Structural, SurfaceGeometry]', 'Option [BaseQuantities:On]', 'Option [GridExport:On]', 'Option [Assemblies:Off]', 'Option [Bolts:On]', 'Option [Rebars:On]', 'Option [PourObjects:Off]', 'Option [Welds:Off]', 'Option [SurfaceTreatments:On]', 'Option [LocationBy:0]', 'Option [ViewColors:Off]', 'Option [SectionedSpine:Off]', 'Option [PropertySets:On]', 'Option [Export all:Off]'),'2;1');
FILE_NAME('5-2-A36.ifc','2026-03-10T09:14:50',('DESKTOP-NLV509P\\Ahmed'),('Structural Designer'),'IFC Parser version: 3.13.2','Tekla Structures 2023 Service Pack 8, IFC Export Version: 4.0.0.0 Jan 19 2024','');
FILE_SCHEMA(('IFC2X3'));
ENDSEC;

DATA;
#1= IFCPERSON('DESKTOP-NLV509P\\Ahmed','Undefined',$,$,$,$,$,$);
#2= IFCORGANIZATION($,'Trimble Solutions Corporation',$,$,$);
#3= IFCPERSONANDORGANIZATION(#1,#2,$);
#4= IFCAPPLICATION(#2,'2023 Service Pack 8','Tekla Structures','Multi material modeling');
#5= IFCOWNERHISTORY(#3,#4,$,.NOCHANGE.,$,$,$,1773123290);
#6= IFCCARTESIANPOINT((0.,0.,0.));
#7= IFCDIRECTION((1.,0.,0.));
#8= IFCDIRECTION((0.,1.,0.));
#9= IFCDIRECTION((0.,0.,1.));
#10= IFCAXIS2PLACEMENT3D(#6,#9,#7);
#11= IFCGEOMETRICREPRESENTATIONCONTEXT($,'Model',3,1.E-05,#10,$);
#12= IFCGEOMETRICREPRESENTATIONSUBCONTEXT('Body','Model',*,*,*,*,#11,$,.MODEL_VIEW.,$);
#13= IFCGEOMETRICREPRESENTATIONSUBCONTEXT('Axis','Model',*,*,*,*,#11,$,.GRAPH_VIEW.,$);
#14= IFCGEOMETRICREPRESENTATIONSUBCONTEXT('FootPrint','Model',*,*,*,*,#11,$,.MODEL_VIEW.,$);
#15= IFCSIUNIT(*,.LENGTHUNIT.,.MILLI.,.METRE.);
#16= IFCMEASUREWITHUNIT(IFCRATIOMEASURE(304.8),#15);
#17= IFCDIMENSIONALEXPONENTS(1,0,0,0,0,0,0);
#18= IFCCONVERSIONBASEDUNIT(#17,.LENGTHUNIT.,'FOOT',#16);
#19= IFCSIUNIT(*,.AREAUNIT.,$,.SQUARE_METRE.);
#20= IFCMEASUREWITHUNIT(IFCRATIOMEASURE(0.09290304),#19);
#21= IFCDIMENSIONALEXPONENTS(2,0,0,0,0,0,0);
#22= IFCCONVERSIONBASEDUNIT(#21,.AREAUNIT.,'SQUARE FOOT',#20);
#23= IFCSIUNIT(*,.VOLUMEUNIT.,$,.CUBIC_METRE.);
#24= IFCMEASUREWITHUNIT(IFCRATIOMEASURE(0.028316846592),#23);
#25= IFCDIMENSIONALEXPONENTS(3,0,0,0,0,0,0);
#26= IFCCONVERSIONBASEDUNIT(#25,.VOLUMEUNIT.,'CUBIC FOOT',#24);
#27= IFCSIUNIT(*,.MASSUNIT.,.KILO.,.GRAM.);
#28= IFCSIUNIT(*,.TIMEUNIT.,$,.SECOND.);
#29= IFCSIUNIT(*,.PLANEANGLEUNIT.,$,.RADIAN.);
#30= IFCMEASUREWITHUNIT(IFCRATIOMEASURE(0.0174532925199433),#29);
#31= IFCDIMENSIONALEXPONENTS(0,0,0,0,0,0,0);
#32= IFCCONVERSIONBASEDUNIT(#31,.PLANEANGLEUNIT.,'DEGREE',#30);
#33= IFCSIUNIT(*,.SOLIDANGLEUNIT.,$,.STERADIAN.);
#34= IFCSIUNIT(*,.THERMODYNAMICTEMPERATUREUNIT.,$,.DEGREE_CELSIUS.);
#35= IFCSIUNIT(*,.LUMINOUSINTENSITYUNIT.,$,.LUMEN.);
#36= IFCUNITASSIGNMENT((#15,#19,#23,#27,#28,#29,#33,#34,#35));
#37= IFCPROJECT('3bhl1Rv0rEWhIr$g8nPnZ0',#5,'Undefined',$,$,$,$,(#11),#36);
#38= IFCLOCALPLACEMENT($,#10);
#39= IFCSITE('1mBeccQmLFS8XFmbwFIT2k',#5,'Undefined',$,$,#38,$,$,.ELEMENT.,$,$,$,$,$);
#40= IFCLOCALPLACEMENT(#38,#10);
#41= IFCBUILDING('0aRDt$PJTFLQJvWpxtlAP1',#5,'Undefined',$,$,#40,$,$,.ELEMENT.,$,$,$);
#42= IFCLOCALPLACEMENT(#40,#10);
#43= IFCBUILDINGSTOREY('3gJPpYF7LCbf7I109fNVl5',#5,'Undefined',$,$,#42,$,$,.ELEMENT.,0.);
#44= IFCOWNERHISTORY(#3,#4,$,.NOCHANGE.,$,$,$,1770876000);
#45= IFCCOLOURRGB($,0.698039215686274,0.4,0.);
#46= IFCSURFACESTYLERENDERING(#45,0.,$,$,$,$,IFCNORMALISEDRATIOMEASURE(0.00390625),IFCSPECULAREXPONENT(10.),.NOTDEFINED.);
#47= IFCSURFACESTYLE('TS10.9',.POSITIVE.,(#46));
#48= IFCPRESENTATIONSTYLEASSIGNMENT((#47));
#49= IFCCARTESIANPOINT((13.,23.9993451901682,0.));
#50= IFCCARTESIANPOINT((11.2583302491975,23.9993451901682,6.50000000000039));
#51= IFCCARTESIANPOINT((6.49999999999922,23.9993451901682,11.2583302491982));
#52= IFCCARTESIANPOINT((-1.34723677608042E-12,23.9993451901682,13.));
#53= IFCCARTESIANPOINT((-6.50000000000155,23.9993451901682,11.2583302491968));
#54= IFCCARTESIANPOINT((-11.2583302491988,23.9993451901682,6.49999999999806));
#55= IFCCARTESIANPOINT((-13.,23.9993451901682,-2.69447355216084E-12));
#56= IFCCARTESIANPOINT((-11.2583302491961,23.9993451901682,-6.50000000000272));
#57= IFCCARTESIANPOINT((-6.4999999999969,23.9993451901682,-11.2583302491995));
#58= IFCCARTESIANPOINT((4.02727742892113E-12,23.9993451901682,-13.));
#59= IFCCARTESIANPOINT((6.50000000000388,23.9993451901682,-11.2583302491955));
#60= IFCCARTESIANPOINT((11.2583302492002,23.9993451901682,-6.49999999999573));
#61= IFCCARTESIANPOINT((13.,274.099345190168,0.));
#62= IFCCARTESIANPOINT((11.2583302491975,274.099345190168,6.50000000000039));
#63= IFCCARTESIANPOINT((6.49999999999922,274.099345190168,11.2583302491982));
#64= IFCCARTESIANPOINT((-1.34723677608042E-12,274.099345190168,13.));
#65= IFCCARTESIANPOINT((-6.50000000000155,274.099345190168,11.2583302491968));
#66= IFCCARTESIANPOINT((-11.2583302491988,274.099345190168,6.49999999999806));
#67= IFCCARTESIANPOINT((-13.,274.099345190168,-2.69447355216084E-12));
#68= IFCCARTESIANPOINT((-11.2583302491961,274.099345190168,-6.50000000000272));
#69= IFCCARTESIANPOINT((-6.4999999999969,274.099345190168,-11.2583302491995));
#70= IFCCARTESIANPOINT((4.02727742892113E-12,274.099345190168,-13.));
#71= IFCCARTESIANPOINT((6.50000000000388,274.099345190168,-11.2583302491955));
#72= IFCCARTESIANPOINT((11.2583302492002,274.099345190168,-6.49999999999573));
#73= IFCPOLYLOOP((#49,#50,#51,#52,#53,#54,#55,#56,#57,#58,#59,#60));
#74= IFCFACEOUTERBOUND(#73,.T.);
#75= IFCFACE((#74));
#76= IFCPOLYLOOP((#72,#71,#70,#69,#68,#67,#66,#65,#64,#63,#62,#61));
#77= IFCFACEOUTERBOUND(#76,.T.);
#78= IFCFACE((#77));
#79= IFCPOLYLOOP((#49,#61,#62,#50));
#80= IFCFACEOUTERBOUND(#79,.T.);
#81= IFCFACE((#80));
#82= IFCPOLYLOOP((#50,#62,#63,#51));
#83= IFCFACEOUTERBOUND(#82,.T.);
#84= IFCFACE((#83));
#85= IFCPOLYLOOP((#51,#63,#64,#52));
#86= IFCFACEOUTERBOUND(#85,.T.);
#87= IFCFACE((#86));
#88= IFCPOLYLOOP((#52,#64,#65,#53));
#89= IFCFACEOUTERBOUND(#88,.T.);
#90= IFCFACE((#89));
#91= IFCPOLYLOOP((#53,#65,#66,#54));
#92= IFCFACEOUTERBOUND(#91,.T.);
#93= IFCFACE((#92));
#94= IFCPOLYLOOP((#54,#66,#67,#55));
#95= IFCFACEOUTERBOUND(#94,.T.);
#96= IFCFACE((#95));
#97= IFCPOLYLOOP((#55,#67,#68,#56));
#98= IFCFACEOUTERBOUND(#97,.T.);
#99= IFCFACE((#98));
#100= IFCPOLYLOOP((#56,#68,#69,#57));
#101= IFCFACEOUTERBOUND(#100,.T.);
#102= IFCFACE((#101));
#103= IFCPOLYLOOP((#57,#69,#70,#58));
#104= IFCFACEOUTERBOUND(#103,.T.);
#105= IFCFACE((#104));
#106= IFCPOLYLOOP((#58,#70,#71,#59));
#107= IFCFACEOUTERBOUND(#106,.T.);
#108= IFCFACE((#107));
#109= IFCPOLYLOOP((#59,#71,#72,#60));
#110= IFCFACEOUTERBOUND(#109,.T.);
#111= IFCFACE((#110));
#112= IFCPOLYLOOP((#60,#72,#61,#49));
#113= IFCFACEOUTERBOUND(#112,.T.);
#114= IFCFACE((#113));
#115= IFCCLOSEDSHELL((#75,#78,#81,#84,#87,#90,#93,#96,#99,#102,#105,#108,#111,#114));
#116= IFCCOLOURRGB($,0.,0.,0.);
#117= IFCSURFACESTYLERENDERING(#116,0.,$,$,$,$,IFCNORMALISEDRATIOMEASURE(0.00390625),IFCSPECULAREXPONENT(10.),.NOTDEFINED.);
#118= IFCSURFACESTYLE($,.POSITIVE.,(#117));
#119= IFCPRESENTATIONSTYLEASSIGNMENT((#118));
#120= IFCFACETEDBREP(#115);
#121= IFCSTYLEDITEM(#120,(#119),$);
#122= IFCCARTESIANTRANSFORMATIONOPERATOR3D($,$,#6,$,$);
#123= IFCSHAPEREPRESENTATION(#12,'Body','Brep',(#120));
#124= IFCREPRESENTATIONMAP(#10,#123);
#125= IFCMAPPEDITEM(#124,#122);
#126= IFCSHAPEREPRESENTATION(#12,'Body','MappedRepresentation',(#125));
#127= IFCPRODUCTDEFINITIONSHAPE($,$,(#126));
#128= IFCCARTESIANPOINT((57164.9943480033,16633.0137438868,16904.0001144151));
#129= IFCDIRECTION((0.999999997446663,7.14610001668916E-05,0.));
#130= IFCDIRECTION((7.14610001664094E-05,-0.999999997446663,0.));
#131= IFCAXIS2PLACEMENT3D(#128,#129,#130);
#132= IFCLOCALPLACEMENT(#42,#131);
#133= IFCMECHANICALFASTENER('0AbOsFrs55qgERlqSFq6eo',#44,'Bolt assembly',$,$,#132,#127,'ID0a958d8f-d761-45d2-a39b-bf470fd06a32',24.,1250.);
#134= IFCMECHANICALFASTENERTYPE('0mBj_CsIv9JgbfCoH8hoeY',#5,'Bolt assembly',$,$,$,$,$,$);
#135= IFCPROPERTYSINGLEVALUE('Washer count',$,IFCINTEGER(0),$);
#136= IFCPROPERTYSINGLEVALUE('Washer diameter',$,IFCLENGTHMEASURE(24.),$);
#137= IFCPROPERTYSINGLEVALUE('Washer type',$,IFCLABEL(''),$);
#138= IFCPROPERTYSINGLEVALUE('Washer name',$,IFCLABEL(''),$);
#139= IFCPROPERTYSINGLEVALUE('Nut count',$,IFCINTEGER(0),$);
#140= IFCPROPERTYSINGLEVALUE('Nut type',$,IFCLABEL(''),$);
#141= IFCPROPERTYSINGLEVALUE('Nut name',$,IFCLABEL(''),$);
#142= IFCPROPERTYSINGLEVALUE('Slotted hole y',$,IFCLENGTHMEASURE(0.),$);
#143= IFCPROPERTYSINGLEVALUE('Slotted hole x',$,IFCLENGTHMEASURE(0.),$);
#144= IFCPROPERTYSINGLEVALUE('Bolt hole diameter',$,IFCLENGTHMEASURE(26.),$);
#145= IFCPROPERTYSINGLEVALUE('Location',$,IFCLABEL('Site'),$);
#146= IFCPROPERTYSINGLEVALUE('Bolt count',$,IFCINTEGER(1),$);
#147= IFCPROPERTYSINGLEVALUE('Bolt size',$,IFCLENGTHMEASURE(26.),$);
#148= IFCPROPERTYSINGLEVALUE('Bolt length',$,IFCLENGTHMEASURE(1250.),$);
#149= IFCPROPERTYSINGLEVALUE('Bolt standard',$,IFCLABEL('TS10.9'),$);
#150= IFCPROPERTYSINGLEVALUE('Bolt Name',$,IFCLABEL(''),$);
#151= IFCPROPERTYSET('3sX369AJjA2u5rJHxzzIrV',#5,'Tekla Bolt','Bolt Properties',(#135,#136,#137,#138,#139,#140,#141,#142,#143,#144,#145,#146,#147,#148,#149,#150));
#152= IFCMATERIAL('TS10.9');
#153= IFCMAPPEDITEM(#124,#122);
#154= IFCSHAPEREPRESENTATION(#12,'Body','MappedRepresentation',(#153));
#155= IFCPRODUCTDEFINITIONSHAPE($,$,(#154));
#156= IFCCARTESIANPOINT((57014.9943483868,16633.0030247366,16904.0001144151));
#157= IFCAXIS2PLACEMENT3D(#156,#129,#130);
#158= IFCLOCALPLACEMENT(#42,#157);
#159= IFCMECHANICALFASTENER('3YCi4bK3r2Lvxc8bk1R4AP',#44,'Bolt assembly',$,$,#158,#155,'IDe232c125-503d-4257-9ee6-225b816c4299',24.,1250.);
#160= IFCMAPPEDITEM(#124,#122);
#161= IFCSHAPEREPRESENTATION(#12,'Body','MappedRepresentation',(#160));
#162= IFCPRODUCTDEFINITIONSHAPE($,$,(#161));
#163= IFCCARTESIANPOINT((57164.9857726743,6753.01374357805,16904.0001144149));
#164= IFCAXIS2PLACEMENT3D(#163,#129,#130);
#165= IFCLOCALPLACEMENT(#42,#164);
#166= IFCMECHANICALFASTENER('3YFa8XtFTFexcAIVdUKmAW',#44,'Bolt assembly',$,$,#165,#162,'IDe23e4221-dcf7-4fa3-b98a-49f9de5302a0',24.,1250.);
#167= IFCMAPPEDITEM(#124,#122);
#168= IFCSHAPEREPRESENTATION(#12,'Body','MappedRepresentation',(#167));
#169= IFCPRODUCTDEFINITIONSHAPE($,$,(#168));
#170= IFCCARTESIANPOINT((57014.9857730578,6753.00302442784,16904.0001144149));
#171= IFCAXIS2PLACEMENT3D(#170,#129,#130);
#172= IFCLOCALPLACEMENT(#42,#171);
#173= IFCMECHANICALFASTENER('1ofkChP710083MeRHs_N$f',#44,'Bolt assembly',$,$,#172,#169,'ID72a6e32b-6470-4000-80d6-a1b476f97fe9',24.,1250.);
#174= IFCOWNERHISTORY(#3,#4,$,.NOCHANGE.,$,$,$,1770840000);
#175= IFCSURFACESTYLE('EVENT',.POSITIVE.,(#46));
#176= IFCPRESENTATIONSTYLEASSIGNMENT((#175));
#177= IFCCARTESIANPOINT((7.5,-4.00000000557253,0.));
#178= IFCCARTESIANPOINT((6.49519052838316,-4.00000000557253,3.75000000000022));
#179= IFCCARTESIANPOINT((3.74999999999955,-4.00000000557253,6.49519052838355));
#180= IFCCARTESIANPOINT((-7.77251986200242E-13,-4.00000000557253,7.5));
#181= IFCCARTESIANPOINT((-3.7500000000009,-4.00000000557253,6.49519052838277));
#182= IFCCARTESIANPOINT((-6.49519052838394,-4.00000000557253,3.74999999999888));
#183= IFCCARTESIANPOINT((-7.5,-4.00000000557253,-1.55450397240048E-12));
#184= IFCCARTESIANPOINT((-6.49519052838238,-4.00000000557253,-3.75000000000157));
#185= IFCCARTESIANPOINT((-3.74999999999821,-4.00000000557253,-6.49519052838432));
#186= IFCCARTESIANPOINT((2.32342928591604E-12,-4.00000000557253,-7.5));
#187= IFCCARTESIANPOINT((3.75000000000224,-4.00000000557253,-6.495190528382));
#188= IFCCARTESIANPOINT((6.49519052838471,-4.00000000557253,-3.74999999999753));
#189= IFCCARTESIANPOINT((7.5,4.09999999500315,0.));
#190= IFCCARTESIANPOINT((6.49519052838316,4.09999999500315,3.75000000000022));
#191= IFCCARTESIANPOINT((3.74999999999955,4.09999999500315,6.49519052838355));
#192= IFCCARTESIANPOINT((-7.77251986200242E-13,4.09999999500315,7.5));
#193= IFCCARTESIANPOINT((-3.7500000000009,4.09999999500315,6.49519052838277));
#194= IFCCARTESIANPOINT((-6.49519052838394,4.09999999500315,3.74999999999888));
#195= IFCCARTESIANPOINT((-7.5,4.09999999500315,-1.55450397240048E-12));
#196= IFCCARTESIANPOINT((-6.49519052838238,4.09999999500315,-3.75000000000157));
#197= IFCCARTESIANPOINT((-3.74999999999821,4.09999999500315,-6.49519052838432));
#198= IFCCARTESIANPOINT((2.32342928591604E-12,4.09999999500315,-7.5));
#199= IFCCARTESIANPOINT((3.75000000000224,4.09999999500315,-6.495190528382));
#200= IFCCARTESIANPOINT((6.49519052838471,4.09999999500315,-3.74999999999753));
#201= IFCPOLYLOOP((#177,#178,#179,#180,#181,#182,#183,#184,#185,#186,#187,#188));
#202= IFCFACEOUTERBOUND(#201,.T.);
#203= IFCFACE((#202));
#204= IFCPOLYLOOP((#200,#199,#198,#197,#196,#195,#194,#193,#192,#191,#190,#189));
#205= IFCFACEOUTERBOUND(#204,.T.);
#206= IFCFACE((#205));
#207= IFCPOLYLOOP((#177,#189,#190,#178));
#208= IFCFACEOUTERBOUND(#207,.T.);
#209= IFCFACE((#208));
#210= IFCPOLYLOOP((#178,#190,#191,#179));
#211= IFCFACEOUTERBOUND(#210,.T.);
#212= IFCFACE((#211));
#213= IFCPOLYLOOP((#179,#191,#192,#180));
#214= IFCFACEOUTERBOUND(#213,.T.);
#215= IFCFACE((#214));
#216= IFCPOLYLOOP((#180,#192,#193,#181));
#217= IFCFACEOUTERBOUND(#216,.T.);
#218= IFCFACE((#217));
#219= IFCPOLYLOOP((#181,#193,#194,#182));
#220= IFCFACEOUTERBOUND(#219,.T.);
#221= IFCFACE((#220));
#222= IFCPOLYLOOP((#182,#194,#195,#183));
#223= IFCFACEOUTERBOUND(#222,.T.);
#224= IFCFACE((#223));
#225= IFCPOLYLOOP((#183,#195,#196,#184));
#226= IFCFACEOUTERBOUND(#225,.T.);
#227= IFCFACE((#226));
#228= IFCPOLYLOOP((#184,#196,#197,#185));
#229= IFCFACEOUTERBOUND(#228,.T.);
#230= IFCFACE((#229));
#231= IFCPOLYLOOP((#185,#197,#198,#186));
#232= IFCFACEOUTERBOUND(#231,.T.);
#233= IFCFACE((#232));
#234= IFCPOLYLOOP((#186,#198,#199,#187));
#235= IFCFACEOUTERBOUND(#234,.T.);
#236= IFCFACE((#235));
#237= IFCPOLYLOOP((#187,#199,#200,#188));
#238= IFCFACEOUTERBOUND(#237,.T.);
#239= IFCFACE((#238));
#240= IFCPOLYLOOP((#188,#200,#189,#177));
#241= IFCFACEOUTERBOUND(#240,.T.);
#242= IFCFACE((#241));
#243= IFCCLOSEDSHELL((#203,#206,#209,#212,#215,#218,#221,#224,#227,#230,#233,#236,#239,#242));
#244= IFCFACETEDBREP(#243);
#245= IFCSTYLEDITEM(#244,(#119),$);
#246= IFCSHAPEREPRESENTATION(#12,'Body','Brep',(#244));
#247= IFCREPRESENTATIONMAP(#10,#246);
#248= IFCMAPPEDITEM(#247,#122);
#249= IFCSHAPEREPRESENTATION(#12,'Body','MappedRepresentation',(#248));
#250= IFCPRODUCTDEFINITIONSHAPE($,$,(#249));
#251= IFCCARTESIANPOINT((57212.7218454952,16668.995501694,16682.5007692248));
#252= IFCDIRECTION((0.509320893844517,5.75599999865517E-06,0.8605766828472));
#253= IFCDIRECTION((-0.860576682792239,-9.7259999923442E-06,0.509320893877044));
#254= IFCAXIS2PLACEMENT3D(#251,#252,#253);
#255= IFCLOCALPLACEMENT(#42,#254);
#256= IFCMECHANICALFASTENER('1IwZbDSxT3ju0CTFFM7gXu',#174,'Bolt assembly',$,$,#255,#250,'ID52ea394d-73b7-43b7-800c-74f3d61ea878',15.,8.);
#257= IFCPROPERTYSINGLEVALUE('Washer diameter',$,IFCLENGTHMEASURE(15.),$);
#258= IFCPROPERTYSINGLEVALUE('Bolt hole diameter',$,IFCLENGTHMEASURE(15.),$);
#259= IFCPROPERTYSINGLEVALUE('Bolt size',$,IFCLENGTHMEASURE(15.),$);
#260= IFCPROPERTYSINGLEVALUE('Bolt length',$,IFCLENGTHMEASURE(8.),$);
#261= IFCPROPERTYSINGLEVALUE('Bolt standard',$,IFCLABEL('EVENT'),$);
#262= IFCPROPERTYSET('0g_nyl22DBdBcs2bYGDzCY',#5,'Tekla Bolt','Bolt Properties',(#135,#257,#137,#138,#139,#140,#141,#142,#143,#258,#145,#146,#259,#260,#261,#150));
#263= IFCMATERIAL('EVENT');
#264= IFCMAPPEDITEM(#247,#122);
#265= IFCSHAPEREPRESENTATION(#12,'Body','MappedRepresentation',(#264));
#266= IFCPRODUCTDEFINITIONSHAPE($,$,(#265));
#267= IFCCARTESIANPOINT((57212.7218454952,16668.9955016939,16827.5007692248));
#268= IFCDIRECTION((-0.509320893844517,-5.75599999865517E-06,0.8605766828472));
#269= IFCDIRECTION((-0.860576682792239,-9.7259999923442E-06,-0.509320893877044));
#270= IFCAXIS2PLACEMENT3D(#267,#268,#269);
#271= IFCLOCALPLACEMENT(#42,#270);
#272= IFCMECHANICALFASTENER('3BVhkpJVzEKRGbQbuvnWWE',#174,'Bolt assembly',$,$,#271,#266,'IDcb7ebbb3-4dff-4e51-b425-6a5e39c6080e',15.,8.);
#273= IFCMAPPEDITEM(#247,#122);
#274= IFCSHAPEREPRESENTATION(#12,'Body','MappedRepresentation',(#273));
#275= IFCPRODUCTDEFINITIONSHAPE($,$,(#274));
#276= IFCCARTESIANPOINT((56982.3419691777,16668.9928981708,16682.5007692248));
#277= IFCDIRECTION((0.509320893844524,5.75599999865517E-06,-0.860576682847196));
#278= IFCDIRECTION((0.860576682792237,9.72599999231645E-06,0.509320893877047));
#279= IFCAXIS2PLACEMENT3D(#276,#277,#278);
#280= IFCLOCALPLACEMENT(#42,#279);
#281= IFCMECHANICALFASTENER('2F3xKVzDfAmekTybI5LOsB',#174,'Bolt assembly',$,$,#280,#275,'ID8f0fb51f-f4da-4ac2-8b9d-f25485558d8b',15.,8.);
#282= IFCMAPPEDITEM(#247,#122);
#283= IFCSHAPEREPRESENTATION(#12,'Body','MappedRepresentation',(#282));
#284= IFCPRODUCTDEFINITIONSHAPE($,$,(#283));
#285= IFCCARTESIANPOINT((56982.3419691777,16668.9928981707,16827.5007692248));
#286= IFCDIRECTION((-0.509320893844524,-5.75599999865517E-06,-0.860576682847196));
#287= IFCDIRECTION((0.860576682792237,9.72599999231645E-06,-0.509320893877047));
#288= IFCAXIS2PLACEMENT3D(#285,#286,#287);
#289= IFCLOCALPLACEMENT(#42,#288);
#290= IFCMECHANICALFASTENER('1tkXgiFlz6iwdU5Foy5SPk',#174,'Bolt assembly',$,$,#289,#284,'ID77ba1aac-3eff-46b3-a9de-14fcbc15c66e',15.,8.);
#291= IFCMAPPEDITEM(#247,#122);
#292= IFCSHAPEREPRESENTATION(#12,'Body','MappedRepresentation',(#291));
#293= IFCPRODUCTDEFINITIONSHAPE($,$,(#292));
#294= IFCCARTESIANPOINT((57212.7318454949,16477.025501694,16682.5007692248));
#295= IFCAXIS2PLACEMENT3D(#294,#252,#253);
#296= IFCLOCALPLACEMENT(#42,#295);
#297= IFCMECHANICALFASTENER('2ApxD84Xf2pAZ1DDOafcAd',#174,'Bolt assembly',$,$,#296,#293,'ID8acfb348-121a-42cc-a8c1-34d624a662a7',15.,8.);
#298= IFCMAPPEDITEM(#247,#122);
#299= IFCSHAPEREPRESENTATION(#12,'Body','MappedRepresentation',(#298));
#300= IFCPRODUCTDEFINITIONSHAPE($,$,(#299));
#301= IFCCARTESIANPOINT((57212.7318454949,16477.0255016939,16827.5007692248));
#302= IFCAXIS2PLACEMENT3D(#301,#268,#269);
#303= IFCLOCALPLACEMENT(#42,#302);
#304= IFCMECHANICALFASTENER('0$W4awdlX5bPHLjDlpW0_F',#174,'Bolt assembly',$,$,#303,#300,'ID3f80493a-9ef8-4595-9455-b4dbf3800f8f',15.,8.);
#305= IFCMAPPEDITEM(#247,#122);
#306= IFCSHAPEREPRESENTATION(#12,'Body','MappedRepresentation',(#305));
#307= IFCPRODUCTDEFINITIONSHAPE($,$,(#306));
#308= IFCCARTESIANPOINT((56982.3519691774,16477.0228981709,16682.5007692248));
#309= IFCAXIS2PLACEMENT3D(#308,#277,#278);
#310= IFCLOCALPLACEMENT(#42,#309);
#311= IFCMECHANICALFASTENER('1DOMSA78D6EBrOKJvhnux_',#174,'Bolt assembly',$,$,#310,#307,'ID4d61670a-1c83-4638-bd58-513e6bc78efe',15.,8.);
#312= IFCMAPPEDITEM(#247,#122);
#313= IFCSHAPEREPRESENTATION(#12,'Body','MappedRepresentation',(#312));
#314= IFCPRODUCTDEFINITIONSHAPE($,$,(#313));
#315= IFCCARTESIANPOINT((56982.3519691774,16477.0228981707,16827.5007692248));
#316= IFCAXIS2PLACEMENT3D(#315,#286,#287);
#317= IFCLOCALPLACEMENT(#42,#316);
#318= IFCMECHANICALFASTENER('184_Usf6L8kv2T1zyyELfi',#174,'Bolt assembly',$,$,#317,#314,'ID4813e7b6-a465-48bb-909d-07df3c395a6c',15.,8.);
#319= IFCMAPPEDITEM(#247,#122);
#320= IFCSHAPEREPRESENTATION(#12,'Body','MappedRepresentation',(#319));
#321= IFCPRODUCTDEFINITIONSHAPE($,$,(#320));
#322= IFCCARTESIANPOINT((57212.7024408837,6909.0150459135,16682.5007692248));
#323= IFCDIRECTION((0.509320890061658,6.35810000076161E-05,0.860576682756544));
#324= IFCDIRECTION((-0.860576676051038,-0.000107430000005956,0.50932089403022));
#325= IFCAXIS2PLACEMENT3D(#322,#323,#324);
#326= IFCLOCALPLACEMENT(#42,#325);
#327= IFCMECHANICALFASTENER('0Kjr8HOy53quatrFnT4pxg',#174,'Bolt assembly',$,$,#326,#321,'ID14b75211-63c1-43d3-8937-d4fc5d133eea',15.,8.);
#328= IFCMAPPEDITEM(#247,#122);
#329= IFCSHAPEREPRESENTATION(#12,'Body','MappedRepresentation',(#328));
#330= IFCPRODUCTDEFINITIONSHAPE($,$,(#329));
#331= IFCCARTESIANPOINT((57212.7024408837,6909.01504591337,16827.5007692248));
#332= IFCDIRECTION((-0.509320890061658,-6.35810000076161E-05,0.860576682756544));
#333= IFCDIRECTION((-0.860576676051038,-0.000107430000005956,-0.50932089403022));
#334= IFCAXIS2PLACEMENT3D(#331,#332,#333);
#335= IFCLOCALPLACEMENT(#42,#334);
#336= IFCMECHANICALFASTENER('30iz4b$IjBh8WFN584ta8T',#174,'Bolt assembly',$,$,#335,#330,'IDc0b3d125-fd2b-4bac-880f-5c5204de421d',15.,8.);
#337= IFCMAPPEDITEM(#247,#122);
#338= IFCSHAPEREPRESENTATION(#12,'Body','MappedRepresentation',(#337));
#339= IFCPRODUCTDEFINITIONSHAPE($,$,(#338));
#340= IFCCARTESIANPOINT((56982.3225663465,6908.98628644133,16682.5007692248));
#341= IFCDIRECTION((0.509320890061638,6.35810000076163E-05,-0.860576682756556));
#342= IFCDIRECTION((0.860576676051049,0.000107430000005645,0.509320894030201));
#343= IFCAXIS2PLACEMENT3D(#340,#341,#342);
#344= IFCLOCALPLACEMENT(#42,#343);
#345= IFCMECHANICALFASTENER('3Z9GYPfBXFcuxglwF734Hx',#174,'Bolt assembly',$,$,#344,#339,'IDe3250899-a4b8-4f9b-8eea-bfa3c70c447b',15.,8.);
#346= IFCMAPPEDITEM(#247,#122);
#347= IFCSHAPEREPRESENTATION(#12,'Body','MappedRepresentation',(#346));
#348= IFCPRODUCTDEFINITIONSHAPE($,$,(#347));
#349= IFCCARTESIANPOINT((56982.3225663465,6908.9862864412,16827.5007692248));
#350= IFCDIRECTION((-0.509320890061638,-6.35810000076163E-05,-0.860576682756556));
#351= IFCDIRECTION((0.860576676051049,0.000107430000005645,-0.509320894030201));
#352= IFCAXIS2PLACEMENT3D(#349,#350,#351);
#353= IFCLOCALPLACEMENT(#42,#352);
#354= IFCMECHANICALFASTENER('1K3mJSrOrDXxBsuCX7uvh9',#174,'Bolt assembly',$,$,#353,#348,'ID540f04dc-d58d-4d87-b2f6-e0c847e39ac9',15.,8.);
#355= IFCMAPPEDITEM(#247,#122);
#356= IFCSHAPEREPRESENTATION(#12,'Body','MappedRepresentation',(#355));
#357= IFCPRODUCTDEFINITIONSHAPE($,$,(#356));
#358= IFCCARTESIANPOINT((57212.7185748504,6717.045046331,16682.5007692248));
#359= IFCAXIS2PLACEMENT3D(#358,#323,#324);
#360= IFCLOCALPLACEMENT(#42,#359);
#361= IFCMECHANICALFASTENER('3ALNV74nr2gPzRYw$nfQV5',#174,'Bolt assembly',$,$,#360,#357,'IDca5577c7-131d-42a9-9f5b-8baff1a5a7c5',15.,8.);
#362= IFCMAPPEDITEM(#247,#122);
#363= IFCSHAPEREPRESENTATION(#12,'Body','MappedRepresentation',(#362));
#364= IFCPRODUCTDEFINITIONSHAPE($,$,(#363));
#365= IFCCARTESIANPOINT((57212.7185748504,6717.04504633087,16827.5007692248));
#366= IFCAXIS2PLACEMENT3D(#365,#332,#333);
#367= IFCLOCALPLACEMENT(#42,#366);
#368= IFCMECHANICALFASTENER('0Pnkn2PWb3AP3JNJiukuan',#174,'Bolt assembly',$,$,#367,#364,'ID19c6ec42-6609-4329-90d3-5d3b38bb8931',15.,8.);
#369= IFCMAPPEDITEM(#247,#122);
#370= IFCSHAPEREPRESENTATION(#12,'Body','MappedRepresentation',(#369));
#371= IFCPRODUCTDEFINITIONSHAPE($,$,(#370));
#372= IFCCARTESIANPOINT((56982.3387003132,6717.01628685883,16682.5007692248));
#373= IFCAXIS2PLACEMENT3D(#372,#341,#342);
#374= IFCLOCALPLACEMENT(#42,#373);
#375= IFCMECHANICALFASTENER('0OEBIArcbCbQ0Rfe5hd1Nv',#174,'Bolt assembly',$,$,#374,#371,'ID1838b48a-d669-4c95-a01b-a6816b9c15f9',15.,8.);
#376= IFCMAPPEDITEM(#247,#122);
#377= IFCSHAPEREPRESENTATION(#12,'Body','MappedRepresentation',(#376));
#378= IFCPRODUCTDEFINITIONSHAPE($,$,(#377));
#379= IFCCARTESIANPOINT((56982.3387003132,6717.0162868587,16827.5007692248));
#380= IFCAXIS2PLACEMENT3D(#379,#350,#351);
#381= IFCLOCALPLACEMENT(#42,#380);
#382= IFCMECHANICALFASTENER('2khIESU8r1$hd0Y3VAwRQN',#174,'Bolt assembly',$,$,#381,#378,'IDaead239c-788d-41fe-b9c0-8837cae9b697',15.,8.);
#383= IFCCOLOURRGB('Dark Blue',0.117647058823529,0.262745098039216,0.513725490196078);
#384= IFCSURFACESTYLERENDERING(#383,0.,$,$,$,$,IFCNORMALISEDRATIOMEASURE(0.00390625),IFCSPECULAREXPONENT(10.),.NOTDEFINED.);
#385= IFCSURFACESTYLE('STEEL/S275',.POSITIVE.,(#384));
#386= IFCPRESENTATIONSTYLEASSIGNMENT((#385));
#387= IFCCARTESIANPOINT((9724.9508233762,115.,-165.));
#388= IFCCARTESIANPOINT((9693.37285703829,115.,-165.));
#389= IFCCARTESIANPOINT((9696.54044120214,115.,-174.487789990686));
#390= IFCPOLYLOOP((#387,#388,#389));
#391= IFCFACEOUTERBOUND(#390,.T.);
#392= IFCFACE((#391));
#393= IFCCARTESIANPOINT((9693.37285703889,-115.,-164.999937817876));
#394= IFCCARTESIANPOINT((9696.54044120214,-115.,-174.487789990686));
#395= IFCPOLYLOOP((#389,#388,#393,#394));
#396= IFCFACEOUTERBOUND(#395,.T.);
#397= IFCFACE((#396));
#398= IFCCARTESIANPOINT((9724.95082361057,-115.,-164.999999988999));
#399= IFCPOLYLOOP((#398,#394,#393));
#400= IFCFACEOUTERBOUND(#399,.T.);
#401= IFCFACE((#400));
#402= IFCCARTESIANPOINT((0.,-115.,165.));
#403= IFCCARTESIANPOINT((0.,115.,165.));
#404= IFCCARTESIANPOINT((9980.0000000107,115.,165.));
#405= IFCCARTESIANPOINT((9980.0000000107,-115.,165.));
#406= IFCPOLYLOOP((#402,#403,#404,#405));
#407= IFCFACEOUTERBOUND(#406,.T.);
#408= IFCFACE((#407));
#409= IFCCARTESIANPOINT((0.,115.,-149.940612004459));
#410= IFCCARTESIANPOINT((0.,125.,-149.940612004459));
#411= IFCCARTESIANPOINT((209.995634291896,125.,-149.997927288248));
#412= IFCCARTESIANPOINT((209.995634291896,115.,-149.997927288248));
#413= IFCPOLYLOOP((#409,#410,#411,#412));
#414= IFCFACEOUTERBOUND(#413,.T.);
#415= IFCFACE((#414));
#416= IFCCARTESIANPOINT((255.010483763206,115.,-165.));
#417= IFCCARTESIANPOINT((283.470676557208,115.,-174.484912097418));
#418= IFCCARTESIANPOINT((286.632408486796,115.,-165.));
#419= IFCPOLYLOOP((#416,#417,#418));
#420= IFCFACEOUTERBOUND(#419,.T.);
#421= IFCFACE((#420));
#422= IFCCARTESIANPOINT((286.632408486796,-115.,-164.997897079113));
#423= IFCCARTESIANPOINT((283.470676557208,-115.,-174.484912097418));
#424= IFCCARTESIANPOINT((255.010483763206,-115.,-165.));
#425= IFCPOLYLOOP((#422,#423,#424));
#426= IFCFACEOUTERBOUND(#425,.T.);
#427= IFCFACE((#426));
#428= IFCPOLYLOOP((#418,#417,#423,#422));
#429= IFCFACEOUTERBOUND(#428,.T.);
#430= IFCFACE((#429));
#431= IFCCARTESIANPOINT((284.997069114841,125.,-175.));
#432= IFCCARTESIANPOINT((284.997069114841,-125.,-174.993611866281));
#433= IFCCARTESIANPOINT((209.995634291896,-125.,-149.997927288248));
#434= IFCCARTESIANPOINT((209.995634291896,-115.,-149.997927288248));
#435= IFCPOLYLOOP((#416,#412,#411,#431,#432,#433,#434,#424,#423,#417));
#436= IFCFACEOUTERBOUND(#435,.T.);
#437= IFCFACE((#436));
#438= IFCCARTESIANPOINT((0.,-125.,-149.940612004459));
#439= IFCCARTESIANPOINT((0.,-115.,-149.940612004459));
#440= IFCPOLYLOOP((#438,#439,#434,#433));
#441= IFCFACEOUTERBOUND(#440,.T.);
#442= IFCFACE((#441));
#443= IFCCARTESIANPOINT((0.,-125.,175.));
#444= IFCCARTESIANPOINT((0.,125.,175.));
#445= IFCPOLYLOOP((#443,#444,#410,#409,#403,#402,#439,#438));
#446= IFCFACEOUTERBOUND(#445,.T.);
#447= IFCFACE((#446));
#448= IFCCARTESIANPOINT((9980.0000000107,-125.,175.));
#449= IFCCARTESIANPOINT((9980.0000000107,125.,175.));
#450= IFCPOLYLOOP((#444,#443,#448,#449));
#451= IFCFACEOUTERBOUND(#450,.T.);
#452= IFCFACE((#451));
#453= IFCCARTESIANPOINT((9980.0000000107,115.,-150.002776398236));
#454= IFCCARTESIANPOINT((9980.0000000107,125.,-150.002776398236));
#455= IFCCARTESIANPOINT((9979.99998801447,-125.,-150.002776398236));
#456= IFCCARTESIANPOINT((9980.0000000107,-115.,-150.002776398236));
#457= IFCPOLYLOOP((#405,#404,#453,#454,#449,#448,#455,#456));
#458= IFCFACEOUTERBOUND(#457,.T.);
#459= IFCFACE((#458));
#460= IFCCARTESIANPOINT((9769.99320621115,115.,-149.957870188002));
#461= IFCCARTESIANPOINT((9769.99320621115,125.,-149.957870188002));
#462= IFCPOLYLOOP((#453,#460,#461,#454));
#463= IFCFACEOUTERBOUND(#462,.T.);
#464= IFCFACE((#463));
#465= IFCCARTESIANPOINT((9695.00667091987,125.,-175.));
#466= IFCPOLYLOOP((#465,#431,#411,#410,#444,#449,#454,#461));
#467= IFCFACEOUTERBOUND(#466,.T.);
#468= IFCFACE((#467));
#469= IFCCARTESIANPOINT((9695.00667091999,-125.,-174.999812215065));
#470= IFCPOLYLOOP((#432,#431,#465,#469));
#471= IFCFACEOUTERBOUND(#470,.T.);
#472= IFCFACE((#471));
#473= IFCCARTESIANPOINT((9769.99320621115,-125.,-149.957870188002));
#474= IFCPOLYLOOP((#448,#443,#438,#433,#432,#469,#473,#455));
#475= IFCFACEOUTERBOUND(#474,.T.);
#476= IFCFACE((#475));
#477= IFCCARTESIANPOINT((9769.99320621115,-115.,-149.957870188002));
#478= IFCPOLYLOOP((#455,#473,#477,#456));
#479= IFCFACEOUTERBOUND(#478,.T.);
#480= IFCFACE((#479));
#481= IFCPOLYLOOP((#422,#424,#434,#439,#402,#405,#456,#477,#398,#393));
#482= IFCFACEOUTERBOUND(#481,.T.);
#483= IFCFACE((#482));
#484= IFCPOLYLOOP((#418,#422,#393,#388));
#485= IFCFACEOUTERBOUND(#484,.T.);
#486= IFCFACE((#485));
#487= IFCPOLYLOOP((#460,#453,#404,#403,#409,#412,#416,#418,#388,#387));
#488= IFCFACEOUTERBOUND(#487,.T.);
#489= IFCFACE((#488));
#490= IFCPOLYLOOP((#477,#473,#469,#465,#461,#460,#387,#389,#394,#398));
#491= IFCFACEOUTERBOUND(#490,.T.);
#492= IFCFACE((#491));
#493= IFCCLOSEDSHELL((#392,#397,#401,#408,#415,#421,#427,#430,#437,#442,#447,#452,#459,#464,#468,#472,#476,#480,#483,#486,#489,#492));
#494= IFCFACETEDBREP(#493);
#495= IFCSTYLEDITEM(#494,(#386),$);
#496= IFCSHAPEREPRESENTATION(#12,'Body','Brep',(#494));
#497= IFCPRODUCTDEFINITIONSHAPE($,$,(#496));
#498= IFCCARTESIANPOINT((57089.8429261499,16682.9924500391,16755.0007692249));
#499= IFCDIRECTION((0.,-1.,0.));
#500= IFCAXIS2PLACEMENT3D(#498,#7,#499);
#501= IFCLOCALPLACEMENT(#42,#500);
#502= IFCBEAM('2mh5_bWoX5khqxWk1RhnyD',#44,'B2-\S\?\S\Z350x250x10','TUB350X250X10 ',$,#501,#497,'IDb0ac5fa5-8328-45ba-bd3b-82e05baf1f0d');
#503= IFCBEAMTYPE('0EpnKu$Hn8YeMCOA69wtgq',#5,'TUB350X250X10 ',$,$,$,$,$,$,.NOTDEFINED.);
#504= IFCPROPERTYSINGLEVALUE('Bottom elevation',$,IFCLABEL(' +16.630'),$);
#505= IFCPROPERTYSINGLEVALUE('Top elevation',$,IFCLABEL(' +16.880'),$);
#506= IFCPROPERTYSINGLEVALUE('Initial GUID',$,$,$);
#507= IFCPROPERTYSINGLEVALUE('Preliminary mark',$,IFCLABEL('5-2-P36'),$);
#508= IFCPROPERTYSINGLEVALUE('Phase',$,IFCINTEGER(4),$);
#509= IFCPROPERTYSINGLEVALUE('Class',$,IFCLABEL('4'),$);
#510= IFCPROPERTYSET('307cCUCq161BLK7HYKUmAs',#5,'Tekla Common','Common Properties to Shared building elements',(#504,#505,#506,#507,#508,#509));
#511= IFCPROPERTYSINGLEVALUE('Weight',$,IFCMASSMEASURE(896.51),$);
#512= IFCPROPERTYSINGLEVALUE('Volume',$,IFCVOLUMEMEASURE(0.114),$);
#513= IFCPROPERTYSINGLEVALUE('Gross footprint area',$,IFCAREAMEASURE(3.481),$);
#514= IFCPROPERTYSINGLEVALUE('Area per tons',$,IFCAREAMEASURE(13.133),$);
#515= IFCPROPERTYSINGLEVALUE('Net surface area',$,IFCAREAMEASURE(11.774),$);
#516= IFCPROPERTYSINGLEVALUE('Height',$,IFCLENGTHMEASURE(350.),$);
#517= IFCPROPERTYSINGLEVALUE('Width',$,IFCLENGTHMEASURE(250.),$);
#518= IFCPROPERTYSINGLEVALUE('Length',$,IFCLENGTHMEASURE(9980.),$);
#519= IFCPROPERTYSET('2lYmhfRv55p8wY171y8wZf',#5,'Tekla Quantity','Quantity Properties to Shared building elements',(#511,#512,#513,#514,#515,#516,#517,#518));
#520= IFCPROPERTYSINGLEVALUE('LoadBearing',$,IFCBOOLEAN(.F.),$);
#521= IFCPROPERTYSINGLEVALUE('Reference',$,IFCIDENTIFIER('5-2-P36'),$);
#522= IFCPROPERTYSET('0xCbuJCoz9NeFaRO$9UsRE',#5,'Pset_BeamCommon','Common Properties to beam elements',(#520,#521));
#523= IFCQUANTITYLENGTH('Length',$,$,9980.0000000107);
#524= IFCQUANTITYAREA('OuterSurfaceArea',$,$,11.7741885165663);
#525= IFCQUANTITYVOLUME('NetVolume',$,$,0.114204954449282);
#526= IFCQUANTITYWEIGHT('NetWeight',$,$,896.508892426864);
#527= IFCELEMENTQUANTITY('1A6HhH3kP95fa$oqpPkxSj',#5,'BaseQuantities',$,$,(#523,#524,#525,#526));
#528= IFCMATERIAL('STEEL/S275');
#529= IFCOWNERHISTORY(#3,#4,$,.NOCHANGE.,$,$,$,1770796800);
#530= IFCCOLOURRGB('Dark Gray',0.709803921568627,0.403921568627451,0.2);
#531= IFCSURFACESTYLERENDERING(#530,0.,$,$,$,$,IFCNORMALISEDRATIOMEASURE(0.00390625),IFCSPECULAREXPONENT(10.),.NOTDEFINED.);
#532= IFCSURFACESTYLE('STEEL/S275',.POSITIVE.,(#531));
#533= IFCPRESENTATIONSTYLEASSIGNMENT((#532));
#534= IFCCARTESIANPOINT((7.27595761418343E-12,-5.00000000002183,0.));
#535= IFCCARTESIANPOINT((7.27595761418343E-12,-5.00000000002183,230.));
#536= IFCCARTESIANPOINT((-3.63797880709171E-12,5.00000000001455,230.));
#537= IFCCARTESIANPOINT((-3.63797880709171E-12,5.00000000001455,0.));
#538= IFCPOLYLOOP((#534,#535,#536,#537));
#539= IFCFACEOUTERBOUND(#538,.T.);
#540= IFCFACE((#539));
#541= IFCCARTESIANPOINT((80.7797543958077,-4.99999999982538,229.988964624212));
#542= IFCCARTESIANPOINT((77.4404634457824,5.00000000020373,229.98942080696));
#543= IFCPOLYLOOP((#536,#535,#541,#542));
#544= IFCFACEOUTERBOUND(#543,.T.);
#545= IFCFACE((#544));
#546= IFCCARTESIANPOINT((77.4404634457824,5.00000000020373,3.63797880709171E-12));
#547= IFCPOLYLOOP((#537,#536,#542,#546));
#548= IFCFACEOUTERBOUND(#547,.T.);
#549= IFCFACE((#548));
#550= IFCCARTESIANPOINT((80.7797543958077,-4.99999999982538,3.63797880709171E-12));
#551= IFCPOLYLOOP((#534,#537,#546,#550));
#552= IFCFACEOUTERBOUND(#551,.T.);
#553= IFCFACE((#552));
#554= IFCPOLYLOOP((#535,#534,#550,#541));
#555= IFCFACEOUTERBOUND(#554,.T.);
#556= IFCFACE((#555));
#557= IFCPOLYLOOP((#546,#542,#541,#550));
#558= IFCFACEOUTERBOUND(#557,.T.);
#559= IFCFACE((#558));
#560= IFCCLOSEDSHELL((#540,#545,#549,#553,#556,#559));
#561= IFCFACETEDBREP(#560);
#562= IFCSTYLEDITEM(#561,(#533),$);
#563= IFCSHAPEREPRESENTATION(#12,'Body','Brep',(#561));
#564= IFCPRODUCTDEFINITIONSHAPE($,$,(#563));
#565= IFCCARTESIANPOINT((56920.0976676907,6988.03580089173,16870.000769225));
#566= IFCDIRECTION((0.,0.,-1.));
#567= IFCDIRECTION((0.316758421936199,-0.948506247808885,0.));
#568= IFCAXIS2PLACEMENT3D(#565,#566,#567);
#569= IFCLOCALPLACEMENT(#42,#568);
#570= IFCPLATE('35NsxvI1H5lucvNwa4v1B1',#529,'PLATE-10','PL10*80.8',$,#569,#564,'IDc55f6ef9-4814-45bf-89b9-5fa904e412c1');
#571= IFCPLATETYPE('3fqygjvpX7feh3VQ$ZtCwQ',#5,'PL10*80.8',$,$,$,$,$,$,.NOTDEFINED.);
#572= IFCPROPERTYSINGLEVALUE('Bottom elevation',$,IFCLABEL(' +16.640'),$);
#573= IFCPROPERTYSINGLEVALUE('Top elevation',$,IFCLABEL(' +16.870'),$);
#574= IFCPROPERTYSINGLEVALUE('Preliminary mark',$,IFCLABEL('5-2-P111'),$);
#575= IFCPROPERTYSINGLEVALUE('Class',$,IFCLABEL('22'),$);
#576= IFCPROPERTYSET('2tzRq1ljHA1PovPHUpkJWq',#5,'Tekla Common','Common Properties to Shared building elements',(#572,#573,#506,#574,#508,#575));
#577= IFCPROPERTYSINGLEVALUE('Weight',$,IFCMASSMEASURE(1.43),$);
#578= IFCPROPERTYSINGLEVALUE('Volume',$,IFCVOLUMEMEASURE(0.),$);
#579= IFCPROPERTYSINGLEVALUE('Gross footprint area',$,IFCAREAMEASURE(0.001),$);
#580= IFCPROPERTYSINGLEVALUE('Area per tons',$,IFCAREAMEASURE(29.893),$);
#581= IFCPROPERTYSINGLEVALUE('Net surface area',$,IFCAREAMEASURE(0.043),$);
#582= IFCPROPERTYSINGLEVALUE('Height',$,IFCLENGTHMEASURE(80.8),$);
#583= IFCPROPERTYSINGLEVALUE('Width',$,IFCLENGTHMEASURE(10.),$);
#584= IFCPROPERTYSINGLEVALUE('Length',$,IFCLENGTHMEASURE(230.),$);
#585= IFCPROPERTYSET('1LUlzUPzTEyBxO_SnjtxRl',#5,'Tekla Quantity','Quantity Properties to Shared building elements',(#577,#578,#579,#580,#581,#582,#583,#584));
#586= IFCPROPERTYSINGLEVALUE('Reference',$,IFCIDENTIFIER('5-2-P111'),$);
#587= IFCPROPERTYSET('127b9oFoHBN8ouih9Jn6UU',#5,'Pset_PlateCommon','Common Properties to plate elements',(#520,#586));
#588= IFCQUANTITYLENGTH('Width',$,$,80.7797543958009);
#589= IFCQUANTITYAREA('NetArea',$,$,0.0426967295368728);
#590= IFCQUANTITYAREA('GrossArea',$,$,0.0185793435110342);
#591= IFCQUANTITYAREA('CrossSectionArea',$,$,0.0001);
#592= IFCQUANTITYVOLUME('NetVolume',$,$,0.000181948975056023);
#593= IFCQUANTITYVOLUME('GrossVolume',$,$,0.000197550697911734);
#594= IFCELEMENTQUANTITY('29aJi$M7T6nhOfJ5GSEdW8',#5,'BaseQuantities',$,$,(#588,#589,#590,#591,#592,#593));
#595= IFCCARTESIANPOINT((183.97000122069,-5.00000000042201,230.));
#596= IFCCARTESIANPOINT((183.970001220694,4.99999999958527,230.));
#597= IFCPOLYLOOP((#535,#595,#596,#536));
#598= IFCFACEOUTERBOUND(#597,.T.);
#599= IFCFACE((#598));
#600= IFCCARTESIANPOINT((183.97000122069,-5.00000000042201,-7.27595761418343E-12));
#601= IFCCARTESIANPOINT((183.970001220694,4.99999999958527,-7.27595761418343E-12));
#602= IFCPOLYLOOP((#595,#600,#601,#596));
#603= IFCFACEOUTERBOUND(#602,.T.);
#604= IFCFACE((#603));
#605= IFCPOLYLOOP((#600,#534,#537,#601));
#606= IFCFACEOUTERBOUND(#605,.T.);
#607= IFCFACE((#606));
#608= IFCPOLYLOOP((#596,#601,#537,#536));
#609= IFCFACEOUTERBOUND(#608,.T.);
#610= IFCFACE((#609));
#611= IFCPOLYLOOP((#600,#595,#535,#534));
#612= IFCFACEOUTERBOUND(#611,.T.);
#613= IFCFACE((#612));
#614= IFCCLOSEDSHELL((#540,#599,#604,#607,#610,#613));
#615= IFCFACETEDBREP(#614);
#616= IFCSTYLEDITEM(#615,(#533),$);
#617= IFCSHAPEREPRESENTATION(#12,'Body','Brep',(#615));
#618= IFCPRODUCTDEFINITIONSHAPE($,$,(#617));
#619= IFCCARTESIANPOINT((56944.8560851997,6904.98139656179,16870.0007692249));
#620= IFCDIRECTION((8.22699999553102E-05,-0.999999996615824,0.));
#621= IFCAXIS2PLACEMENT3D(#619,#566,#620);
#622= IFCLOCALPLACEMENT(#42,#621);
#623= IFCPLATE('04zFgERpX5gA5NYpE0uE0g',#529,'PLATE-10','PL10*184',$,#622,#618,'ID04f4fa8e-6f38-45a8-a157-8b3380e0e02a');
#624= IFCPLATETYPE('0o2l0Hxz5B8vbFyBD2mTpn',#5,'PL10*184',$,$,$,$,$,$,.NOTDEFINED.);
#625= IFCPROPERTYSINGLEVALUE('Preliminary mark',$,IFCLABEL('5-2-P100'),$);
#626= IFCPROPERTYSET('0$5fC6T1r97ATCD7WE6C1B',#5,'Tekla Common','Common Properties to Shared building elements',(#572,#573,#506,#625,#508,#575));
#627= IFCPROPERTYSINGLEVALUE('Weight',$,IFCMASSMEASURE(3.32),$);
#628= IFCPROPERTYSINGLEVALUE('Gross footprint area',$,IFCAREAMEASURE(0.002),$);
#629= IFCPROPERTYSINGLEVALUE('Area per tons',$,IFCAREAMEASURE(27.97),$);
#630= IFCPROPERTYSINGLEVALUE('Net surface area',$,IFCAREAMEASURE(0.093),$);
#631= IFCPROPERTYSINGLEVALUE('Height',$,IFCLENGTHMEASURE(184.),$);
#632= IFCPROPERTYSET('2DW8A9as96L9D7uvZyIjwe',#5,'Tekla Quantity','Quantity Properties to Shared building elements',(#627,#578,#628,#629,#630,#631,#583,#584));
#633= IFCPROPERTYSINGLEVALUE('Reference',$,IFCIDENTIFIER('5-2-P100'),$);
#634= IFCPROPERTYSET('0XR44Bezv269hrsnkfm5oY',#5,'Pset_PlateCommon','Common Properties to plate elements',(#520,#633));
#635= IFCQUANTITYLENGTH('Width',$,$,183.970001220702);
#636= IFCQUANTITYAREA('NetArea',$,$,0.092905600585938);
#637= IFCQUANTITYAREA('GrossArea',$,$,0.0423131002807627);
#638= IFCQUANTITYVOLUME('NetVolume',$,$,0.00042313100280762);
#639= IFCQUANTITYVOLUME('GrossVolume',$,$,0.00042313100280762);
#640= IFCELEMENTQUANTITY('15vM4HaJnAmBwgOv2$Jzno',#5,'BaseQuantities',$,$,(#635,#636,#637,#591,#638,#639));
#641= IFCOWNERHISTORY(#3,#4,$,.NOCHANGE.,$,$,$,1770843600);
#642= IFCCOLOURRGB('Light Green',0.356862745098039,0.592156862745098,0.137254901960784);
#643= IFCSURFACESTYLERENDERING(#642,0.,$,$,$,$,IFCNORMALISEDRATIOMEASURE(0.00390625),IFCSPECULAREXPONENT(10.),.NOTDEFINED.);
#644= IFCSURFACESTYLE('STEEL/S275',.POSITIVE.,(#643));
#645= IFCPRESENTATIONSTYLEASSIGNMENT((#644));
#646= IFCCARTESIANPOINT((0.,-4.00000000000091,0.));
#647= IFCCARTESIANPOINT((0.,-4.00000000000091,230.));
#648= IFCCARTESIANPOINT((1.45519152283669E-11,4.,230.));
#649= IFCCARTESIANPOINT((1.45519152283669E-11,4.,0.));
#650= IFCPOLYLOOP((#646,#647,#648,#649));
#651= IFCFACEOUTERBOUND(#650,.T.);
#652= IFCFACE((#651));
#653= IFCCARTESIANPOINT((314.966918945101,-3.99999999997908,230.));
#654= IFCCARTESIANPOINT((314.966918945116,4.00000000002365,230.));
#655= IFCPOLYLOOP((#647,#653,#654,#648));
#656= IFCFACEOUTERBOUND(#655,.T.);
#657= IFCFACE((#656));
#658= IFCCARTESIANPOINT((314.966918945101,-3.99999999997908,-3.63797880709171E-12));
#659= IFCCARTESIANPOINT((314.966918945116,4.00000000002365,-3.63797880709171E-12));
#660= IFCPOLYLOOP((#653,#658,#659,#654));
#661= IFCFACEOUTERBOUND(#660,.T.);
#662= IFCFACE((#661));
#663= IFCPOLYLOOP((#658,#646,#649,#659));
#664= IFCFACEOUTERBOUND(#663,.T.);
#665= IFCFACE((#664));
#666= IFCPOLYLOOP((#654,#659,#649,#648));
#667= IFCFACEOUTERBOUND(#666,.T.);
#668= IFCFACE((#667));
#669= IFCPOLYLOOP((#658,#653,#647,#646));
#670= IFCFACEOUTERBOUND(#669,.T.);
#671= IFCFACE((#670));
#672= IFCCLOSEDSHELL((#652,#657,#662,#665,#668,#671));
#673= IFCFACETEDBREP(#672);
#674= IFCSTYLEDITEM(#673,(#645),$);
#675= IFCSHAPEREPRESENTATION(#12,'Body','Brep',(#673));
#676= IFCPRODUCTDEFINITIONSHAPE($,$,(#675));
#677= IFCCARTESIANPOINT((57254.8225023708,6909.02030397254,16870.0007692249));
#678= IFCDIRECTION((-0.999999992208111,-0.000124835000025413,0.));
#679= IFCAXIS2PLACEMENT3D(#677,#566,#678);
#680= IFCLOCALPLACEMENT(#42,#679);
#681= IFCPLATE('2tAqoAgHjDNgGnL06JoCfH',#641,'PLATE-8','PL8*230',$,#680,#676,'IDb72b4c8a-a91b-4d5e-a431-540193c8ca51');
#682= IFCPLATETYPE('1KCD_QMGvDOhTGJ1_KpcEn',#5,'PL8*230',$,$,$,$,$,$,.NOTDEFINED.);
#683= IFCPROPERTYSINGLEVALUE('Preliminary mark',$,IFCLABEL('5-2-P75'),$);
#684= IFCPROPERTYSINGLEVALUE('Class',$,IFCLABEL('17'),$);
#685= IFCPROPERTYSET('2qzKA4EvrBMeQWwZip2CNU',#5,'Tekla Common','Common Properties to Shared building elements',(#572,#573,#506,#683,#508,#684));
#686= IFCPROPERTYSINGLEVALUE('Weight',$,IFCMASSMEASURE(4.55),$);
#687= IFCPROPERTYSINGLEVALUE('Volume',$,IFCVOLUMEMEASURE(0.001),$);
#688= IFCPROPERTYSINGLEVALUE('Gross footprint area',$,IFCAREAMEASURE(0.003),$);
#689= IFCPROPERTYSINGLEVALUE('Area per tons',$,IFCAREAMEASURE(33.764),$);
#690= IFCPROPERTYSINGLEVALUE('Net surface area',$,IFCAREAMEASURE(0.154),$);
#691= IFCPROPERTYSINGLEVALUE('Height',$,IFCLENGTHMEASURE(230.),$);
#692= IFCPROPERTYSINGLEVALUE('Width',$,IFCLENGTHMEASURE(8.),$);
#693= IFCPROPERTYSINGLEVALUE('Length',$,IFCLENGTHMEASURE(315.),$);
#694= IFCPROPERTYSET('0$WGemfw52khyDPcOG6AEv',#5,'Tekla Quantity','Quantity Properties to Shared building elements',(#686,#687,#688,#689,#690,#691,#692,#693));
#695= IFCPROPERTYSINGLEVALUE('Reference',$,IFCIDENTIFIER('5-2-P75'),$);
#696= IFCPROPERTYSET('3iyfG3nxP6lw5xxAwhOYZ5',#5,'Pset_PlateCommon','Common Properties to plate elements',(#520,#695));
#697= IFCQUANTITYLENGTH('Width',$,$,230.000000000004);
#698= IFCQUANTITYAREA('NetArea',$,$,0.15360425341797);
#699= IFCQUANTITYAREA('GrossArea',$,$,0.072442391357423);
#700= IFCQUANTITYAREA('CrossSectionArea',$,$,6.4E-05);
#701= IFCQUANTITYVOLUME('NetVolume',$,$,0.00057953913085938);
#702= IFCQUANTITYVOLUME('GrossVolume',$,$,0.00057953913085938);
#703= IFCELEMENTQUANTITY('21Q4TgdPzE_fspL8Ba61yU',#5,'BaseQuantities',$,$,(#697,#698,#699,#700,#701,#702));
#704= IFCSHAPEREPRESENTATION(#12,'Body','Brep',(#673));
#705= IFCPRODUCTDEFINITIONSHAPE($,$,(#704));
#706= IFCCARTESIANPOINT((57254.8386363378,6717.05030439001,16870.0007692249));
#707= IFCAXIS2PLACEMENT3D(#706,#566,#678);
#708= IFCLOCALPLACEMENT(#42,#707);
#709= IFCPLATE('03rk63O11BVP5QOn582fhy',#641,'PLATE-8','PL8*230',$,#708,#705,'ID03d6e183-6010-4b7d-915a-6311480a9afc');
#710= IFCSHAPEREPRESENTATION(#12,'Body','Brep',(#615));
#711= IFCPRODUCTDEFINITIONSHAPE($,$,(#710));
#712= IFCCARTESIANPOINT((56944.8849431537,16481.0226875787,16870.0007692249));
#713= IFCDIRECTION((-5.38649999766846E-05,0.999999998549281,0.));
#714= IFCAXIS2PLACEMENT3D(#712,#566,#713);
#715= IFCLOCALPLACEMENT(#42,#714);
#716= IFCPLATE('2z7HV_xvLDFgaGWZOrr$YW',#529,'PLATE-10','PL10*184',$,#715,#711,'IDbd1d17fe-ef95-4d3e-a910-823635d7f8a0');
#717= IFCQUANTITYLENGTH('Width',$,$,183.970001220396);
#718= IFCQUANTITYAREA('GrossArea',$,$,0.0423131002806924);
#719= IFCELEMENTQUANTITY('0pzJSYDaf7eu3BArOvO9l2',#5,'BaseQuantities',$,$,(#717,#636,#718,#591,#638,#639));
#720= IFCSHAPEREPRESENTATION(#12,'Body','Brep',(#673));
#721= IFCPRODUCTDEFINITIONSHAPE($,$,(#720));
#722= IFCCARTESIANPOINT((57254.8519072901,16477.0259776951,16870.0007692249));
#723= IFCDIRECTION((-0.999999999936144,-1.13009999943161E-05,0.));
#724= IFCAXIS2PLACEMENT3D(#722,#566,#723);
#725= IFCLOCALPLACEMENT(#42,#724);
#726= IFCPLATE('31BQ$Mj$1FkvY4BYF3Zcln',#641,'PLATE-8','PL8*230',$,#725,#721,'IDc12dafd6-b7f0-4fbb-9884-2e23c38e6bf1');
#727= IFCCARTESIANPOINT((89.1660003663856,-5.00000000018917,229.999999999782));
#728= IFCCARTESIANPOINT((89.1660308835853,-5.00000000011642,-9.09494701772928E-11));
#729= IFCCARTESIANPOINT((89.1660308835999,4.99999999991269,-8.73114913702011E-11));
#730= IFCCARTESIANPOINT((89.1660003664001,4.99999999983265,229.999999999782));
#731= IFCPOLYLOOP((#727,#728,#729,#730));
#732= IFCFACEOUTERBOUND(#731,.T.);
#733= IFCFACE((#732));
#734= IFCCARTESIANPOINT((11.7610140956531,4.99999999993452,229.999999999782));
#735= IFCCARTESIANPOINT((8.41667975543533,-5.00000000008731,229.999999999782));
#736= IFCPOLYLOOP((#727,#730,#734,#735));
#737= IFCFACEOUTERBOUND(#736,.T.);
#738= IFCFACE((#737));
#739= IFCCARTESIANPOINT((8.42450855386414,-5.00000000002183,-1.09139364212751E-11));
#740= IFCPOLYLOOP((#728,#727,#735,#739));
#741= IFCFACEOUTERBOUND(#740,.T.);
#742= IFCFACE((#741));
#743= IFCCARTESIANPOINT((11.7688428940892,5.00000000000728,-1.09139364212751E-11));
#744= IFCPOLYLOOP((#729,#728,#739,#743));
#745= IFCFACEOUTERBOUND(#744,.T.);
#746= IFCFACE((#745));
#747= IFCPOLYLOOP((#730,#729,#743,#734));
#748= IFCFACEOUTERBOUND(#747,.T.);
#749= IFCFACE((#748));
#750= IFCPOLYLOOP((#739,#735,#734,#743));
#751= IFCFACEOUTERBOUND(#750,.T.);
#752= IFCFACE((#751));
#753= IFCCLOSEDSHELL((#733,#738,#742,#746,#749,#752));
#754= IFCFACETEDBREP(#753);
#755= IFCSTYLEDITEM(#754,(#533),$);
#756= IFCSHAPEREPRESENTATION(#12,'Body','Brep',(#754));
#757= IFCPRODUCTDEFINITIONSHAPE($,$,(#756));
#758= IFCCARTESIANPOINT((56948.3555706748,16482.5978966371,16870.0012781214));
#759= IFCDIRECTION((9.65250076333178E-05,-3.22799771092832E-05,-0.999999994820463));
#760= IFCDIRECTION((-0.317155867140259,-0.94837342641942,0.));
#761= IFCAXIS2PLACEMENT3D(#758,#759,#760);
#762= IFCLOCALPLACEMENT(#42,#761);
#763= IFCPLATE('0Kdhp6WBz1G9VrXejgOb$q',#529,'PLATE-10','PL10*80.7',$,#762,#757,'ID149ebcc6-80bf-4140-97f5-868b6a625ff4');
#764= IFCPLATETYPE('3ph59eA6T8AO1poLT8FPCi',#5,'PL10*80.7',$,$,$,$,$,$,.NOTDEFINED.);
#765= IFCPROPERTYSINGLEVALUE('Area per tons',$,IFCAREAMEASURE(29.895),$);
#766= IFCPROPERTYSINGLEVALUE('Height',$,IFCLENGTHMEASURE(80.7),$);
#767= IFCPROPERTYSET('23mvSBlo5DsvOKXuVUdRar',#5,'Tekla Quantity','Quantity Properties to Shared building elements',(#577,#578,#579,#765,#581,#766,#583,#584));
#768= IFCQUANTITYLENGTH('Width',$,$,80.7493240065832);
#769= IFCQUANTITYAREA('NetArea',$,$,0.0426803762556555);
#770= IFCQUANTITYAREA('GrossArea',$,$,0.0185725665532477);
#771= IFCQUANTITYVOLUME('NetVolume',$,$,0.000181868484890986);
#772= IFCQUANTITYVOLUME('GrossVolume',$,$,0.00020509084301497);
#773= IFCELEMENTQUANTITY('1WhvpzLCf5HR_Oz3oSTu1D',#5,'BaseQuantities',$,$,(#768,#769,#770,#591,#771,#772));
#774= IFCSHAPEREPRESENTATION(#12,'Body','Brep',(#673));
#775= IFCPRODUCTDEFINITIONSHAPE($,$,(#774));
#776= IFCCARTESIANPOINT((57254.8419072901,16668.9959776951,16870.0007692249));
#777= IFCAXIS2PLACEMENT3D(#776,#566,#723);
#778= IFCLOCALPLACEMENT(#42,#777);
#779= IFCPLATE('3eGHIkF8f8_gwes2NE9S23',#641,'PLATE-8','PL8*230',$,#778,#775,'IDe84114ae-3c8a-48fa-aea8-d825ce25c083');
#780= IFCRELAGGREGATES('3fCL8lcLT3vBOn$1Cx6wGx',#5,$,$,#37,(#39));
#781= IFCRELAGGREGATES('1F5VlUmNH30xQu1nKPPDwe',#5,$,$,#39,(#41));
#782= IFCRELAGGREGATES('1OnBStU6jC1P3jifZssMAt',#5,$,$,#41,(#43));
#783= IFCRELCONTAINEDINSPATIALSTRUCTURE('3HVwWZlfHEvg0zUvpXKab3',#5,$,$,(#779,#763,#726,#716,#709,#681,#623,#570,#502,#382,#375,#368,#361,#354,#345,#336,#327,#318,#311,#304,#297,#290,#281,#272,#256,#173,#166,#159,#133),#43);
#784= IFCRELDEFINESBYPROPERTIES('2s8FvqNrfFev4OiLrFKkxJ',#5,$,$,(#173,#166,#159,#133),#151);
#785= IFCRELDEFINESBYPROPERTIES('17fLt0gK16_hhwaQvgJIKP',#5,$,$,(#382,#375,#368,#361,#354,#345,#336,#327,#318,#311,#304,#297,#290,#281,#272,#256),#262);
#786= IFCRELDEFINESBYPROPERTIES('2aRrRElSf3nAaIPxBsFl1a',#5,$,$,(#502),#510);
#787= IFCRELDEFINESBYPROPERTIES('33dKUO_UL6s8jrsL$BRGEs',#5,$,$,(#502),#519);
#788= IFCRELDEFINESBYPROPERTIES('1EbLr_F$z9UhNUN2ZcYCwj',#5,$,$,(#502),#522);
#789= IFCRELDEFINESBYPROPERTIES('1Ih_cDxtTBKfQc_hez5G1d',#5,$,$,(#502),#527);
#790= IFCRELDEFINESBYPROPERTIES('0vE3fWsBzBXBkbI3jxxgsS',#5,$,$,(#763,#570),#576);
#791= IFCRELDEFINESBYPROPERTIES('0xZlPTaRzCsf88si7E$c$t',#5,$,$,(#570),#585);
#792= IFCRELDEFINESBYPROPERTIES('3wOiCHNhnBjuva_knh4$VC',#5,$,$,(#763,#570),#587);
#793= IFCRELDEFINESBYPROPERTIES('3sA7EYQBzCIAp0dJ4LTrWm',#5,$,$,(#570),#594);
#794= IFCRELDEFINESBYPROPERTIES('0bUhkOqcz6bRaJ7A9GpHxt',#5,$,$,(#716,#623),#626);
#795= IFCRELDEFINESBYPROPERTIES('3KADRFyv52OeVRjjx1hqgi',#5,$,$,(#716,#623),#632);
#796= IFCRELDEFINESBYPROPERTIES('3YqPC0ICnFtA$905nQbs9_',#5,$,$,(#716,#623),#634);
#797= IFCRELDEFINESBYPROPERTIES('26HIoCaC58dgdef7sTlojc',#5,$,$,(#623),#640);
#798= IFCRELDEFINESBYPROPERTIES('1pmeCVHc59t8UUd8o2HYTS',#5,$,$,(#779,#726,#709,#681),#685);
#799= IFCRELDEFINESBYPROPERTIES('3$YYB3zCP4vuI3r85tZ4UJ',#5,$,$,(#779,#726,#709,#681),#694);
#800= IFCRELDEFINESBYPROPERTIES('3KYNVICCLBa9W6$OaiApuB',#5,$,$,(#779,#726,#709,#681),#696);
#801= IFCRELDEFINESBYPROPERTIES('3JsTttEMDDnuXE3TKY6Ljx',#5,$,$,(#779,#726,#709,#681),#703);
#802= IFCRELDEFINESBYPROPERTIES('2PvGN5G9H3JBudVy3t_HSm',#5,$,$,(#716),#719);
#803= IFCRELDEFINESBYPROPERTIES('1mT2_8lOD3QBYZnlP6yqb6',#5,$,$,(#763),#767);
#804= IFCRELDEFINESBYPROPERTIES('3lXjX4WJTENu0Wa4rser90',#5,$,$,(#763),#773);
#805= IFCRELDEFINESBYTYPE('21D5xRCF55NB7V_hUsh6ql',#5,$,$,(#382,#375,#368,#361,#354,#345,#336,#327,#318,#311,#304,#297,#290,#281,#272,#256,#173,#166,#159,#133),#134);
#806= IFCRELDEFINESBYTYPE('3l4tKh_V10$9$QjDyfuBQL',#5,$,$,(#502),#503);
#807= IFCRELDEFINESBYTYPE('1EYqu3p8z5dOPawhNm1gDb',#5,$,$,(#570),#571);
#808= IFCRELDEFINESBYTYPE('2olfcnewj608umBtTiMzqF',#5,$,$,(#716,#623),#624);
#809= IFCRELDEFINESBYTYPE('3dPKI02yr33w6_TsGDU$00',#5,$,$,(#779,#726,#709,#681),#682);
#810= IFCRELDEFINESBYTYPE('2Gj_vJcWDF78hTQydwvdOi',#5,$,$,(#763),#764);
#811= IFCRELASSOCIATESMATERIAL('3TEXBdpkP2sQCRurC6H2CM',#5,$,$,(#173,#166,#159,#133),#152);
#812= IFCRELASSOCIATESMATERIAL('324HxOwH9BD8lEpEtpeu8F',#5,$,$,(#382,#375,#368,#361,#354,#345,#336,#327,#318,#311,#304,#297,#290,#281,#272,#256),#263);
#813= IFCRELASSOCIATESMATERIAL('3EgrOr1Vv8ihhjOm_l9IWj',#5,$,$,(#779,#763,#726,#716,#709,#681,#623,#570,#502),#528);
#814= IFCPRESENTATIONLAYERASSIGNMENT('BoltArray',$,(#126,#154,#161,#168,#249,#265,#274,#283,#292,#299,#306,#313,#320,#329,#338,#347,#356,#363,#370,#377),$);
#815= IFCPRESENTATIONLAYERASSIGNMENT('B2-\S\?\S\Z350x250x10',$,(#496),$);
#816= IFCPRESENTATIONLAYERASSIGNMENT('PLATE-10',$,(#563,#617,#710,#756),$);
#817= IFCPRESENTATIONLAYERASSIGNMENT('PLATE-8',$,(#675,#704,#720,#774),$);
ENDSEC;

END-ISO-10303-21;
