ISO-10303-21;
HEADER;
FILE_DESCRIPTION(('ViewDefinition[CoordinationView_V2.0, QuantityTakeOffAddOnView]', 'ExchangeRequirement[Structural, SurfaceGeometry]', 'Option [BaseQuantities:On]', 'Option [GridExport:On]', 'Option [Assemblies:Off]', 'Option [Bolts:On]', 'Option [Rebars:On]', 'Option [PourObjects:Off]', 'Option [Welds:Off]', 'Option [SurfaceTreatments:On]', 'Option [LocationBy:0]', 'Option [ViewColors:Off]', 'Option [SectionedSpine:Off]', 'Option [PropertySets:On]', 'Option [Export all:Off]'),'2;1');
FILE_NAME('5-2-A41.ifc','2026-03-10T09:14:58',('DESKTOP-NLV509P\\Ahmed'),('Structural Designer'),'IFC Parser version: 3.13.2','Tekla Structures 2023 Service Pack 8, IFC Export Version: 4.0.0.0 Jan 19 2024','');
FILE_SCHEMA(('IFC2X3'));
ENDSEC;

DATA;
#1= IFCPERSON('DESKTOP-NLV509P\\Ahmed','Undefined',$,$,$,$,$,$);
#2= IFCORGANIZATION($,'Trimble Solutions Corporation',$,$,$);
#3= IFCPERSONANDORGANIZATION(#1,#2,$);
#4= IFCAPPLICATION(#2,'2023 Service Pack 8','Tekla Structures','Multi material modeling');
#5= IFCOWNERHISTORY(#3,#4,$,.NOCHANGE.,$,$,$,1773123298);
#6= IFCCARTESIANPOINT((0.,0.,0.));
#7= IFCDIRECTION((1.,0.,0.));
#8= IFCDIRECTION((0.,1.,0.));
#9= IFCDIRECTION((0.,0.,1.));
#10= IFCAXIS2PLACEMENT3D(#6,#9,#7);
#11= IFCGEOMETRICREPRESENTATIONCONTEXT($,'Model',3,1.E-05,#10,$);
#12= IFCGEOMETRICREPRESENTATIONSUBCONTEXT('Body','Model',*,*,*,*,#11,$,.MODEL_VIEW.,$);
#13= IFCGEOMETRICREPRESENTATIONSUBCONTEXT('Axis','Model',*,*,*,*,#11,$,.GRAPH_VIEW.,$);
#14= IFCGEOMETRICREPRESENTATIONSUBCONTEXT('FootPrint','Model',*,*,*,*,#11,$,.MODEL_VIEW.,$);
#15= IFCSIUNIT(*,.LENGTHUNIT.,.MILLI.,.METRE.);
#16= IFCMEASUREWITHUNIT(IFCRATIOMEASURE(304.8),#15);
#17= IFCDIMENSIONALEXPONENTS(1,0,0,0,0,0,0);
#18= IFCCONVERSIONBASEDUNIT(#17,.LENGTHUNIT.,'FOOT',#16);
#19= IFCSIUNIT(*,.AREAUNIT.,$,.SQUARE_METRE.);
#20= IFCMEASUREWITHUNIT(IFCRATIOMEASURE(0.09290304),#19);
#21= IFCDIMENSIONALEXPONENTS(2,0,0,0,0,0,0);
#22= IFCCONVERSIONBASEDUNIT(#21,.AREAUNIT.,'SQUARE FOOT',#20);
#23= IFCSIUNIT(*,.VOLUMEUNIT.,$,.CUBIC_METRE.);
#24= IFCMEASUREWITHUNIT(IFCRATIOMEASURE(0.028316846592),#23);
#25= IFCDIMENSIONALEXPONENTS(3,0,0,0,0,0,0);
#26= IFCCONVERSIONBASEDUNIT(#25,.VOLUMEUNIT.,'CUBIC FOOT',#24);
#27= IFCSIUNIT(*,.MASSUNIT.,.KILO.,.GRAM.);
#28= IFCSIUNIT(*,.TIMEUNIT.,$,.SECOND.);
#29= IFCSIUNIT(*,.PLANEANGLEUNIT.,$,.RADIAN.);
#30= IFCMEASUREWITHUNIT(IFCRATIOMEASURE(0.0174532925199433),#29);
#31= IFCDIMENSIONALEXPONENTS(0,0,0,0,0,0,0);
#32= IFCCONVERSIONBASEDUNIT(#31,.PLANEANGLEUNIT.,'DEGREE',#30);
#33= IFCSIUNIT(*,.SOLIDANGLEUNIT.,$,.STERADIAN.);
#34= IFCSIUNIT(*,.THERMODYNAMICTEMPERATUREUNIT.,$,.DEGREE_CELSIUS.);
#35= IFCSIUNIT(*,.LUMINOUSINTENSITYUNIT.,$,.LUMEN.);
#36= IFCUNITASSIGNMENT((#15,#19,#23,#27,#28,#29,#33,#34,#35));
#37= IFCPROJECT('1E$Zh7Sf9FUA4$YVyCNBbL',#5,'Undefined',$,$,$,$,(#11),#36);
#38= IFCLOCALPLACEMENT($,#10);
#39= IFCSITE('0rq9IZRI97mQDs3Yz$Tebq',#5,'Undefined',$,$,#38,$,$,.ELEMENT.,$,$,$,$,$);
#40= IFCLOCALPLACEMENT(#38,#10);
#41= IFCBUILDING('00um0sH8L08Q3nCvPIDNvf',#5,'Undefined',$,$,#40,$,$,.ELEMENT.,$,$,$);
#42= IFCLOCALPLACEMENT(#40,#10);
#43= IFCBUILDINGSTOREY('3gJPpYF7LCbf7I109fNVl5',#5,'Undefined',$,$,#42,$,$,.ELEMENT.,0.);
#44= IFCOWNERHISTORY(#3,#4,$,.NOCHANGE.,$,$,$,1770876000);
#45= IFCCOLOURRGB($,0.698039215686274,0.4,0.);
#46= IFCSURFACESTYLERENDERING(#45,0.,$,$,$,$,IFCNORMALISEDRATIOMEASURE(0.00390625),IFCSPECULAREXPONENT(10.),.NOTDEFINED.);
#47= IFCSURFACESTYLE('TS10.9',.POSITIVE.,(#46));
#48= IFCPRESENTATIONSTYLEASSIGNMENT((#47));
#49= IFCCARTESIANPOINT((13.,23.6473680172469,0.));
#50= IFCCARTESIANPOINT((11.2583302491975,23.6473680172469,6.50000000000039));
#51= IFCCARTESIANPOINT((6.49999999999922,23.6473680172469,11.2583302491982));
#52= IFCCARTESIANPOINT((-1.34723677608042E-12,23.6473680172469,13.));
#53= IFCCARTESIANPOINT((-6.50000000000155,23.6473680172469,11.2583302491968));
#54= IFCCARTESIANPOINT((-11.2583302491988,23.6473680172469,6.49999999999806));
#55= IFCCARTESIANPOINT((-13.,23.6473680172469,-2.69447355216084E-12));
#56= IFCCARTESIANPOINT((-11.2583302491961,23.6473680172469,-6.50000000000272));
#57= IFCCARTESIANPOINT((-6.4999999999969,23.6473680172469,-11.2583302491995));
#58= IFCCARTESIANPOINT((4.02727742892113E-12,23.6473680172469,-13.));
#59= IFCCARTESIANPOINT((6.50000000000388,23.6473680172469,-11.2583302491955));
#60= IFCCARTESIANPOINT((11.2583302492002,23.6473680172469,-6.49999999999573));
#61= IFCCARTESIANPOINT((13.,273.747372570566,0.));
#62= IFCCARTESIANPOINT((11.2583302491975,273.747372570566,6.50000000000039));
#63= IFCCARTESIANPOINT((6.49999999999922,273.747372570566,11.2583302491982));
#64= IFCCARTESIANPOINT((-1.34723677608042E-12,273.747372570566,13.));
#65= IFCCARTESIANPOINT((-6.50000000000155,273.747372570566,11.2583302491968));
#66= IFCCARTESIANPOINT((-11.2583302491988,273.747372570566,6.49999999999806));
#67= IFCCARTESIANPOINT((-13.,273.747372570566,-2.69447355216084E-12));
#68= IFCCARTESIANPOINT((-11.2583302491961,273.747372570566,-6.50000000000272));
#69= IFCCARTESIANPOINT((-6.4999999999969,273.747372570566,-11.2583302491995));
#70= IFCCARTESIANPOINT((4.02727742892113E-12,273.747372570566,-13.));
#71= IFCCARTESIANPOINT((6.50000000000388,273.747372570566,-11.2583302491955));
#72= IFCCARTESIANPOINT((11.2583302492002,273.747372570566,-6.49999999999573));
#73= IFCPOLYLOOP((#49,#50,#51,#52,#53,#54,#55,#56,#57,#58,#59,#60));
#74= IFCFACEOUTERBOUND(#73,.T.);
#75= IFCFACE((#74));
#76= IFCPOLYLOOP((#72,#71,#70,#69,#68,#67,#66,#65,#64,#63,#62,#61));
#77= IFCFACEOUTERBOUND(#76,.T.);
#78= IFCFACE((#77));
#79= IFCPOLYLOOP((#49,#61,#62,#50));
#80= IFCFACEOUTERBOUND(#79,.T.);
#81= IFCFACE((#80));
#82= IFCPOLYLOOP((#50,#62,#63,#51));
#83= IFCFACEOUTERBOUND(#82,.T.);
#84= IFCFACE((#83));
#85= IFCPOLYLOOP((#51,#63,#64,#52));
#86= IFCFACEOUTERBOUND(#85,.T.);
#87= IFCFACE((#86));
#88= IFCPOLYLOOP((#52,#64,#65,#53));
#89= IFCFACEOUTERBOUND(#88,.T.);
#90= IFCFACE((#89));
#91= IFCPOLYLOOP((#53,#65,#66,#54));
#92= IFCFACEOUTERBOUND(#91,.T.);
#93= IFCFACE((#92));
#94= IFCPOLYLOOP((#54,#66,#67,#55));
#95= IFCFACEOUTERBOUND(#94,.T.);
#96= IFCFACE((#95));
#97= IFCPOLYLOOP((#55,#67,#68,#56));
#98= IFCFACEOUTERBOUND(#97,.T.);
#99= IFCFACE((#98));
#100= IFCPOLYLOOP((#56,#68,#69,#57));
#101= IFCFACEOUTERBOUND(#100,.T.);
#102= IFCFACE((#101));
#103= IFCPOLYLOOP((#57,#69,#70,#58));
#104= IFCFACEOUTERBOUND(#103,.T.);
#105= IFCFACE((#104));
#106= IFCPOLYLOOP((#58,#70,#71,#59));
#107= IFCFACEOUTERBOUND(#106,.T.);
#108= IFCFACE((#107));
#109= IFCPOLYLOOP((#59,#71,#72,#60));
#110= IFCFACEOUTERBOUND(#109,.T.);
#111= IFCFACE((#110));
#112= IFCPOLYLOOP((#60,#72,#61,#49));
#113= IFCFACEOUTERBOUND(#112,.T.);
#114= IFCFACE((#113));
#115= IFCCLOSEDSHELL((#75,#78,#81,#84,#87,#90,#93,#96,#99,#102,#105,#108,#111,#114));
#116= IFCCOLOURRGB($,0.,0.,0.);
#117= IFCSURFACESTYLERENDERING(#116,0.,$,$,$,$,IFCNORMALISEDRATIOMEASURE(0.00390625),IFCSPECULAREXPONENT(10.),.NOTDEFINED.);
#118= IFCSURFACESTYLE($,.POSITIVE.,(#117));
#119= IFCPRESENTATIONSTYLEASSIGNMENT((#118));
#120= IFCFACETEDBREP(#115);
#121= IFCSTYLEDITEM(#120,(#119),$);
#122= IFCCARTESIANTRANSFORMATIONOPERATOR3D($,$,#6,$,$);
#123= IFCSHAPEREPRESENTATION(#12,'Body','Brep',(#120));
#124= IFCREPRESENTATIONMAP(#10,#123);
#125= IFCMAPPEDITEM(#124,#122);
#126= IFCSHAPEREPRESENTATION(#12,'Body','MappedRepresentation',(#125));
#127= IFCPRODUCTDEFINITIONSHAPE($,$,(#126));
#128= IFCCARTESIANPOINT((22599.9988891465,30118.0027034087,16903.9881485368));
#129= IFCDIRECTION((-1.39369999851624E-05,0.99999999990288,0.));
#130= IFCDIRECTION((0.999999999902879,1.39369999838059E-05,-5.30000341735398E-08));
#131= IFCAXIS2PLACEMENT3D(#128,#129,#130);
#132= IFCLOCALPLACEMENT(#42,#131);
#133= IFCMECHANICALFASTENER('213nFseG5AwOUtWhjxEJ2T',#44,'Bolt assembly',$,$,#132,#127,'ID810f13f6-a101-4ae9-87b7-82bb7b39309d',24.,1250.);
#134= IFCMECHANICALFASTENERTYPE('1w2YgYW0v9gO11bzkCUtKz',#5,'Bolt assembly',$,$,$,$,$,$);
#135= IFCPROPERTYSINGLEVALUE('Washer count',$,IFCINTEGER(0),$);
#136= IFCPROPERTYSINGLEVALUE('Washer diameter',$,IFCLENGTHMEASURE(24.),$);
#137= IFCPROPERTYSINGLEVALUE('Washer type',$,IFCLABEL(''),$);
#138= IFCPROPERTYSINGLEVALUE('Washer name',$,IFCLABEL(''),$);
#139= IFCPROPERTYSINGLEVALUE('Nut count',$,IFCINTEGER(0),$);
#140= IFCPROPERTYSINGLEVALUE('Nut type',$,IFCLABEL(''),$);
#141= IFCPROPERTYSINGLEVALUE('Nut name',$,IFCLABEL(''),$);
#142= IFCPROPERTYSINGLEVALUE('Slotted hole y',$,IFCLENGTHMEASURE(0.),$);
#143= IFCPROPERTYSINGLEVALUE('Slotted hole x',$,IFCLENGTHMEASURE(0.),$);
#144= IFCPROPERTYSINGLEVALUE('Bolt hole diameter',$,IFCLENGTHMEASURE(26.),$);
#145= IFCPROPERTYSINGLEVALUE('Location',$,IFCLABEL('Site'),$);
#146= IFCPROPERTYSINGLEVALUE('Bolt count',$,IFCINTEGER(1),$);
#147= IFCPROPERTYSINGLEVALUE('Bolt size',$,IFCLENGTHMEASURE(26.),$);
#148= IFCPROPERTYSINGLEVALUE('Bolt length',$,IFCLENGTHMEASURE(1250.),$);
#149= IFCPROPERTYSINGLEVALUE('Bolt standard',$,IFCLABEL('TS10.9'),$);
#150= IFCPROPERTYSINGLEVALUE('Bolt Name',$,IFCLABEL(''),$);
#151= IFCPROPERTYSET('09Um56vqbCtuGQqUS$fb0E',#5,'Tekla Bolt','Bolt Properties',(#135,#136,#137,#138,#139,#140,#141,#142,#143,#144,#145,#146,#147,#148,#149,#150));
#152= IFCMATERIAL('TS10.9');
#153= IFCMAPPEDITEM(#124,#122);
#154= IFCSHAPEREPRESENTATION(#12,'Body','MappedRepresentation',(#153));
#155= IFCPRODUCTDEFINITIONSHAPE($,$,(#154));
#156= IFCCARTESIANPOINT((22600.000979696,29968.0027034238,16903.988148537));
#157= IFCAXIS2PLACEMENT3D(#156,#129,#130);
#158= IFCLOCALPLACEMENT(#42,#157);
#159= IFCMECHANICALFASTENER('0lG5RuZb57$A1N9cT2C2HY',#44,'Bolt assembly',$,$,#158,#155,'ID2f4056f8-8e51-47fc-a057-266742302462',24.,1250.);
#160= IFCCARTESIANPOINT((13.,23.9865493229031,0.));
#161= IFCCARTESIANPOINT((11.2583302491975,23.9865493229031,6.50000000000039));
#162= IFCCARTESIANPOINT((6.49999999999922,23.9865493229031,11.2583302491982));
#163= IFCCARTESIANPOINT((-1.34723677608042E-12,23.9865493229031,13.));
#164= IFCCARTESIANPOINT((-6.50000000000155,23.9865493229031,11.2583302491968));
#165= IFCCARTESIANPOINT((-11.2583302491988,23.9865493229031,6.49999999999806));
#166= IFCCARTESIANPOINT((-13.,23.9865493229031,-2.69447355216084E-12));
#167= IFCCARTESIANPOINT((-11.2583302491961,23.9865493229031,-6.50000000000272));
#168= IFCCARTESIANPOINT((-6.4999999999969,23.9865493229031,-11.2583302491995));
#169= IFCCARTESIANPOINT((4.02727742892113E-12,23.9865493229031,-13.));
#170= IFCCARTESIANPOINT((6.50000000000388,23.9865493229031,-11.2583302491955));
#171= IFCCARTESIANPOINT((11.2583302492002,23.9865493229031,-6.49999999999573));
#172= IFCCARTESIANPOINT((13.,274.08654946292,0.));
#173= IFCCARTESIANPOINT((11.2583302491975,274.08654946292,6.50000000000039));
#174= IFCCARTESIANPOINT((6.49999999999922,274.08654946292,11.2583302491982));
#175= IFCCARTESIANPOINT((-1.34723677608042E-12,274.08654946292,13.));
#176= IFCCARTESIANPOINT((-6.50000000000155,274.08654946292,11.2583302491968));
#177= IFCCARTESIANPOINT((-11.2583302491988,274.08654946292,6.49999999999806));
#178= IFCCARTESIANPOINT((-13.,274.08654946292,-2.69447355216084E-12));
#179= IFCCARTESIANPOINT((-11.2583302491961,274.08654946292,-6.50000000000272));
#180= IFCCARTESIANPOINT((-6.4999999999969,274.08654946292,-11.2583302491995));
#181= IFCCARTESIANPOINT((4.02727742892113E-12,274.08654946292,-13.));
#182= IFCCARTESIANPOINT((6.50000000000388,274.08654946292,-11.2583302491955));
#183= IFCCARTESIANPOINT((11.2583302492002,274.08654946292,-6.49999999999573));
#184= IFCPOLYLOOP((#160,#161,#162,#163,#164,#165,#166,#167,#168,#169,#170,#171));
#185= IFCFACEOUTERBOUND(#184,.T.);
#186= IFCFACE((#185));
#187= IFCPOLYLOOP((#183,#182,#181,#180,#179,#178,#177,#176,#175,#174,#173,#172));
#188= IFCFACEOUTERBOUND(#187,.T.);
#189= IFCFACE((#188));
#190= IFCPOLYLOOP((#160,#172,#173,#161));
#191= IFCFACEOUTERBOUND(#190,.T.);
#192= IFCFACE((#191));
#193= IFCPOLYLOOP((#161,#173,#174,#162));
#194= IFCFACEOUTERBOUND(#193,.T.);
#195= IFCFACE((#194));
#196= IFCPOLYLOOP((#162,#174,#175,#163));
#197= IFCFACEOUTERBOUND(#196,.T.);
#198= IFCFACE((#197));
#199= IFCPOLYLOOP((#163,#175,#176,#164));
#200= IFCFACEOUTERBOUND(#199,.T.);
#201= IFCFACE((#200));
#202= IFCPOLYLOOP((#164,#176,#177,#165));
#203= IFCFACEOUTERBOUND(#202,.T.);
#204= IFCFACE((#203));
#205= IFCPOLYLOOP((#165,#177,#178,#166));
#206= IFCFACEOUTERBOUND(#205,.T.);
#207= IFCFACE((#206));
#208= IFCPOLYLOOP((#166,#178,#179,#167));
#209= IFCFACEOUTERBOUND(#208,.T.);
#210= IFCFACE((#209));
#211= IFCPOLYLOOP((#167,#179,#180,#168));
#212= IFCFACEOUTERBOUND(#211,.T.);
#213= IFCFACE((#212));
#214= IFCPOLYLOOP((#168,#180,#181,#169));
#215= IFCFACEOUTERBOUND(#214,.T.);
#216= IFCFACE((#215));
#217= IFCPOLYLOOP((#169,#181,#182,#170));
#218= IFCFACEOUTERBOUND(#217,.T.);
#219= IFCFACE((#218));
#220= IFCPOLYLOOP((#170,#182,#183,#171));
#221= IFCFACEOUTERBOUND(#220,.T.);
#222= IFCFACE((#221));
#223= IFCPOLYLOOP((#171,#183,#172,#160));
#224= IFCFACEOUTERBOUND(#223,.T.);
#225= IFCFACE((#224));
#226= IFCCLOSEDSHELL((#186,#189,#192,#195,#198,#201,#204,#207,#210,#213,#216,#219,#222,#225));
#227= IFCFACETEDBREP(#226);
#228= IFCSTYLEDITEM(#227,(#119),$);
#229= IFCSHAPEREPRESENTATION(#12,'Body','Brep',(#227));
#230= IFCREPRESENTATIONMAP(#10,#229);
#231= IFCMAPPEDITEM(#230,#122);
#232= IFCSHAPEREPRESENTATION(#12,'Body','MappedRepresentation',(#231));
#233= IFCPRODUCTDEFINITIONSHAPE($,$,(#232));
#234= IFCCARTESIANPOINT((32479.9988891393,30118.0010309869,16903.988154897));
#235= IFCAXIS2PLACEMENT3D(#234,#129,#130);
#236= IFCLOCALPLACEMENT(#42,#235);
#237= IFCMECHANICALFASTENER('2sB6$O98v4N86l_JVd9yx6',#44,'Bolt assembly',$,$,#236,#233,'IDb62c6fd8-248e-445c-81af-f937e727cec6',24.,1250.);
#238= IFCMAPPEDITEM(#230,#122);
#239= IFCSHAPEREPRESENTATION(#12,'Body','MappedRepresentation',(#238));
#240= IFCPRODUCTDEFINITIONSHAPE($,$,(#239));
#241= IFCCARTESIANPOINT((32480.0009796888,29968.001031002,16903.9881548972));
#242= IFCAXIS2PLACEMENT3D(#241,#129,#130);
#243= IFCLOCALPLACEMENT(#42,#242);
#244= IFCMECHANICALFASTENER('2Re1$M_GX1uQf6LSivnJkv',#44,'Bolt assembly',$,$,#243,#240,'ID9ba01fd6-f908-41e1-aa46-55cb39c53bb9',24.,1250.);
#245= IFCOWNERHISTORY(#3,#4,$,.NOCHANGE.,$,$,$,1770840000);
#246= IFCSURFACESTYLE('EVENT',.POSITIVE.,(#46));
#247= IFCPRESENTATIONSTYLEASSIGNMENT((#246));
#248= IFCCARTESIANPOINT((7.5,-4.00000025513489,0.));
#249= IFCCARTESIANPOINT((6.49519052838316,-4.00000025513489,3.75000000000022));
#250= IFCCARTESIANPOINT((3.74999999999955,-4.00000025513489,6.49519052838355));
#251= IFCCARTESIANPOINT((-7.77251986200242E-13,-4.00000025513489,7.5));
#252= IFCCARTESIANPOINT((-3.7500000000009,-4.00000025513489,6.49519052838277));
#253= IFCCARTESIANPOINT((-6.49519052838394,-4.00000025513489,3.74999999999888));
#254= IFCCARTESIANPOINT((-7.5,-4.00000025513489,-1.55450397240048E-12));
#255= IFCCARTESIANPOINT((-6.49519052838238,-4.00000025513489,-3.75000000000157));
#256= IFCCARTESIANPOINT((-3.74999999999821,-4.00000025513489,-6.49519052838432));
#257= IFCCARTESIANPOINT((2.32342928591604E-12,-4.00000025513489,-7.5));
#258= IFCCARTESIANPOINT((3.75000000000224,-4.00000025513489,-6.495190528382));
#259= IFCCARTESIANPOINT((6.49519052838471,-4.00000025513489,-3.74999999999753));
#260= IFCCARTESIANPOINT((7.5,4.09999974486818,0.));
#261= IFCCARTESIANPOINT((6.49519052838316,4.09999974486818,3.75000000000022));
#262= IFCCARTESIANPOINT((3.74999999999955,4.09999974486818,6.49519052838355));
#263= IFCCARTESIANPOINT((-7.77251986200242E-13,4.09999974486818,7.5));
#264= IFCCARTESIANPOINT((-3.7500000000009,4.09999974486818,6.49519052838277));
#265= IFCCARTESIANPOINT((-6.49519052838394,4.09999974486818,3.74999999999888));
#266= IFCCARTESIANPOINT((-7.5,4.09999974486818,-1.55450397240048E-12));
#267= IFCCARTESIANPOINT((-6.49519052838238,4.09999974486818,-3.75000000000157));
#268= IFCCARTESIANPOINT((-3.74999999999821,4.09999974486818,-6.49519052838432));
#269= IFCCARTESIANPOINT((2.32342928591604E-12,4.09999974486818,-7.5));
#270= IFCCARTESIANPOINT((3.75000000000224,4.09999974486818,-6.495190528382));
#271= IFCCARTESIANPOINT((6.49519052838471,4.09999974486818,-3.74999999999753));
#272= IFCPOLYLOOP((#248,#249,#250,#251,#252,#253,#254,#255,#256,#257,#258,#259));
#273= IFCFACEOUTERBOUND(#272,.T.);
#274= IFCFACE((#273));
#275= IFCPOLYLOOP((#271,#270,#269,#268,#267,#266,#265,#264,#263,#262,#261,#260));
#276= IFCFACEOUTERBOUND(#275,.T.);
#277= IFCFACE((#276));
#278= IFCPOLYLOOP((#248,#260,#261,#249));
#279= IFCFACEOUTERBOUND(#278,.T.);
#280= IFCFACE((#279));
#281= IFCPOLYLOOP((#249,#261,#262,#250));
#282= IFCFACEOUTERBOUND(#281,.T.);
#283= IFCFACE((#282));
#284= IFCPOLYLOOP((#250,#262,#263,#251));
#285= IFCFACEOUTERBOUND(#284,.T.);
#286= IFCFACE((#285));
#287= IFCPOLYLOOP((#251,#263,#264,#252));
#288= IFCFACEOUTERBOUND(#287,.T.);
#289= IFCFACE((#288));
#290= IFCPOLYLOOP((#252,#264,#265,#253));
#291= IFCFACEOUTERBOUND(#290,.T.);
#292= IFCFACE((#291));
#293= IFCPOLYLOOP((#253,#265,#266,#254));
#294= IFCFACEOUTERBOUND(#293,.T.);
#295= IFCFACE((#294));
#296= IFCPOLYLOOP((#254,#266,#267,#255));
#297= IFCFACEOUTERBOUND(#296,.T.);
#298= IFCFACE((#297));
#299= IFCPOLYLOOP((#255,#267,#268,#256));
#300= IFCFACEOUTERBOUND(#299,.T.);
#301= IFCFACE((#300));
#302= IFCPOLYLOOP((#256,#268,#269,#257));
#303= IFCFACEOUTERBOUND(#302,.T.);
#304= IFCFACE((#303));
#305= IFCPOLYLOOP((#257,#269,#270,#258));
#306= IFCFACEOUTERBOUND(#305,.T.);
#307= IFCFACE((#306));
#308= IFCPOLYLOOP((#258,#270,#271,#259));
#309= IFCFACEOUTERBOUND(#308,.T.);
#310= IFCFACE((#309));
#311= IFCPOLYLOOP((#259,#271,#260,#248));
#312= IFCFACEOUTERBOUND(#311,.T.);
#313= IFCFACE((#312));
#314= IFCCLOSEDSHELL((#274,#277,#280,#283,#286,#289,#292,#295,#298,#301,#304,#307,#310,#313));
#315= IFCFACETEDBREP(#314);
#316= IFCSTYLEDITEM(#315,(#119),$);
#317= IFCSHAPEREPRESENTATION(#12,'Body','Brep',(#315));
#318= IFCREPRESENTATIONMAP(#10,#317);
#319= IFCMAPPEDITEM(#318,#122);
#320= IFCSHAPEREPRESENTATION(#12,'Body','MappedRepresentation',(#319));
#321= IFCPRODUCTDEFINITIONSHAPE($,$,(#320));
#322= IFCCARTESIANPOINT((22756.0549649334,30166.015665616,16682.8540797773));
#323= IFCDIRECTION((-4.84039999755624E-05,0.509320893757176,0.860576681556875));
#324= IFCDIRECTION((-2.86469999968907E-05,-0.860576682918141,0.509320892951544));
#325= IFCAXIS2PLACEMENT3D(#322,#323,#324);
#326= IFCLOCALPLACEMENT(#42,#325);
#327= IFCMECHANICALFASTENER('0OLmMpvXDCm8pSVEUuiZa9',#245,'Bolt assembly',$,$,#326,#321,'ID185705b3-e613-4cc0-8cdc-7ce7b8b23909',15.,8.);
#328= IFCPROPERTYSINGLEVALUE('Washer diameter',$,IFCLENGTHMEASURE(15.),$);
#329= IFCPROPERTYSINGLEVALUE('Bolt hole diameter',$,IFCLENGTHMEASURE(15.),$);
#330= IFCPROPERTYSINGLEVALUE('Bolt size',$,IFCLENGTHMEASURE(15.),$);
#331= IFCPROPERTYSINGLEVALUE('Bolt length',$,IFCLENGTHMEASURE(8.),$);
#332= IFCPROPERTYSINGLEVALUE('Bolt standard',$,IFCLABEL('EVENT'),$);
#333= IFCPROPERTYSET('3x9d1Fmov1mBNI7mTqZEof',#5,'Tekla Bolt','Bolt Properties',(#135,#328,#137,#138,#139,#140,#141,#142,#143,#329,#145,#146,#330,#331,#332,#150));
#334= IFCMATERIAL('EVENT');
#335= IFCMAPPEDITEM(#318,#122);
#336= IFCSHAPEREPRESENTATION(#12,'Body','MappedRepresentation',(#335));
#337= IFCPRODUCTDEFINITIONSHAPE($,$,(#336));
#338= IFCCARTESIANPOINT((22756.0468092639,30166.015665616,16827.8540795479));
#339= IFCDIRECTION((-4.84039999755624E-05,-0.509320893757176,0.860576681556875));
#340= IFCDIRECTION((2.86469999968907E-05,-0.860576682918141,-0.509320892951544));
#341= IFCAXIS2PLACEMENT3D(#338,#339,#340);
#342= IFCLOCALPLACEMENT(#42,#341);
#343= IFCMECHANICALFASTENER('1d7DlhLbHCaRQeqB6a4tNX',#245,'Bolt assembly',$,$,#342,#337,'ID671cdbeb-5654-4c91-b6a8-d0b1a41375e1',15.,8.);
#344= IFCMAPPEDITEM(#318,#122);
#345= IFCSHAPEREPRESENTATION(#12,'Body','MappedRepresentation',(#344));
#346= IFCPRODUCTDEFINITIONSHAPE($,$,(#345));
#347= IFCCARTESIANPOINT((22756.0549649334,29935.6357892838,16682.8540797773));
#348= IFCDIRECTION((4.84039999755623E-05,0.509320893757183,-0.860576681556871));
#349= IFCDIRECTION((-2.86469999968106E-05,0.860576682918137,0.509320892951551));
#350= IFCAXIS2PLACEMENT3D(#347,#348,#349);
#351= IFCLOCALPLACEMENT(#42,#350);
#352= IFCMECHANICALFASTENER('1oDzsUmg5CnPVIFFY7du7X',#245,'Bolt assembly',$,$,#351,#346,'ID7237dd9e-c2a1-4cc5-97d2-3cf8879f81e1',15.,8.);
#353= IFCMAPPEDITEM(#318,#122);
#354= IFCSHAPEREPRESENTATION(#12,'Body','MappedRepresentation',(#353));
#355= IFCPRODUCTDEFINITIONSHAPE($,$,(#354));
#356= IFCCARTESIANPOINT((22756.0468092639,29935.6357892838,16827.8540795479));
#357= IFCDIRECTION((4.84039999755623E-05,-0.509320893757183,-0.860576681556871));
#358= IFCDIRECTION((2.86469999968106E-05,0.860576682918137,-0.509320892951551));
#359= IFCAXIS2PLACEMENT3D(#356,#357,#358);
#360= IFCLOCALPLACEMENT(#42,#359);
#361= IFCMECHANICALFASTENER('3ZzO5hxurB2gFQc12BRuqY',#245,'Bolt assembly',$,$,#360,#355,'IDe3f5816b-ef8d-4b0a-a3da-98108b6f8d22',15.,8.);
#362= IFCMAPPEDITEM(#318,#122);
#363= IFCSHAPEREPRESENTATION(#12,'Body','MappedRepresentation',(#362));
#364= IFCPRODUCTDEFINITIONSHAPE($,$,(#363));
#365= IFCCARTESIANPOINT((22564.004965265,30165.8756656156,16682.8427152729));
#366= IFCAXIS2PLACEMENT3D(#365,#323,#324);
#367= IFCLOCALPLACEMENT(#42,#366);
#368= IFCMECHANICALFASTENER('3Tq2CVIRL0QwQFg3_8esID',#245,'Bolt assembly',$,$,#367,#364,'IDddd0231f-49b5-406b-a68f-a83f88a3648d',15.,8.);
#369= IFCMAPPEDITEM(#318,#122);
#370= IFCSHAPEREPRESENTATION(#12,'Body','MappedRepresentation',(#369));
#371= IFCPRODUCTDEFINITIONSHAPE($,$,(#370));
#372= IFCCARTESIANPOINT((22563.9968095955,30165.8756656156,16827.8427150436));
#373= IFCAXIS2PLACEMENT3D(#372,#339,#340);
#374= IFCLOCALPLACEMENT(#42,#373);
#375= IFCMECHANICALFASTENER('1uICTWie12CQi04BPz8GX9',#245,'Bolt assembly',$,$,#374,#371,'ID7848c760-b280-4231-ab00-10b67d210849',15.,8.);
#376= IFCMAPPEDITEM(#318,#122);
#377= IFCSHAPEREPRESENTATION(#12,'Body','MappedRepresentation',(#376));
#378= IFCPRODUCTDEFINITIONSHAPE($,$,(#377));
#379= IFCCARTESIANPOINT((22564.0049652649,29935.4957892834,16682.8427152729));
#380= IFCAXIS2PLACEMENT3D(#379,#348,#349);
#381= IFCLOCALPLACEMENT(#42,#380);
#382= IFCMECHANICALFASTENER('360BXIOer1n8_EPZE92T5c',#245,'Bolt assembly',$,$,#381,#378,'IDc600b852-628d-41c4-8f8e-66338909d166',15.,8.);
#383= IFCMAPPEDITEM(#318,#122);
#384= IFCSHAPEREPRESENTATION(#12,'Body','MappedRepresentation',(#383));
#385= IFCPRODUCTDEFINITIONSHAPE($,$,(#384));
#386= IFCCARTESIANPOINT((22563.9968095954,29935.4957892834,16827.8427150436));
#387= IFCAXIS2PLACEMENT3D(#386,#357,#358);
#388= IFCLOCALPLACEMENT(#42,#387);
#389= IFCMECHANICALFASTENER('3h1aAxmmP9UhUQumhklY8J',#245,'Bolt assembly',$,$,#388,#385,'IDeb0642bb-c306-497a-b79a-e30aeebe2213',15.,8.);
#390= IFCMAPPEDITEM(#318,#122);
#391= IFCSHAPEREPRESENTATION(#12,'Body','MappedRepresentation',(#390));
#392= IFCPRODUCTDEFINITIONSHAPE($,$,(#391));
#393= IFCCARTESIANPOINT((32323.8902645243,29934.9147447803,16682.5069393281));
#394= IFCDIRECTION((2.94650000068941E-05,-0.509320894122211,0.860576682197679));
#395= IFCDIRECTION((1.74379999846082E-05,0.860576682702101,0.509320893823692));
#396= IFCAXIS2PLACEMENT3D(#393,#394,#395);
#397= IFCLOCALPLACEMENT(#42,#396);
#398= IFCMECHANICALFASTENER('1_xDsz6CX0QOVXsGRSlvXl',#245,'Bolt assembly',$,$,#397,#392,'ID7eecddbd-18c8-4069-87e1-d906dcbf986f',15.,8.);
#399= IFCMAPPEDITEM(#318,#122);
#400= IFCSHAPEREPRESENTATION(#12,'Body','MappedRepresentation',(#399));
#401= IFCPRODUCTDEFINITIONSHAPE($,$,(#400));
#402= IFCCARTESIANPOINT((32323.8952291794,29934.9147447808,16827.5069392432));
#403= IFCDIRECTION((2.94650000068941E-05,0.509320894122229,0.860576682197668));
#404= IFCDIRECTION((-1.7438999987654E-05,0.86057668270209,-0.509320893823675));
#405= IFCAXIS2PLACEMENT3D(#402,#403,#404);
#406= IFCLOCALPLACEMENT(#42,#405);
#407= IFCMECHANICALFASTENER('1i$WRyQgTA3P8L4TIpleaR',#245,'Bolt assembly',$,$,#406,#401,'ID6cfe06fc-6aa7-4a0d-9215-11d4b3be891b',15.,8.);
#408= IFCMAPPEDITEM(#318,#122);
#409= IFCSHAPEREPRESENTATION(#12,'Body','MappedRepresentation',(#408));
#410= IFCPRODUCTDEFINITIONSHAPE($,$,(#409));
#411= IFCCARTESIANPOINT((32323.8902645243,30165.2946211125,16682.5069393281));
#412= IFCDIRECTION((-2.94650000068941E-05,-0.509320894122236,-0.860576682197664));
#413= IFCDIRECTION((1.74389999876053E-05,-0.860576682702086,0.509320893823682));
#414= IFCAXIS2PLACEMENT3D(#411,#412,#413);
#415= IFCLOCALPLACEMENT(#42,#414);
#416= IFCMECHANICALFASTENER('3tCwDIyRX6uRAIK47k31eW',#245,'Bolt assembly',$,$,#415,#410,'IDf733a352-f1b8-46e1-b292-5041ee0c1a20',15.,8.);
#417= IFCMAPPEDITEM(#318,#122);
#418= IFCSHAPEREPRESENTATION(#12,'Body','MappedRepresentation',(#417));
#419= IFCPRODUCTDEFINITIONSHAPE($,$,(#418));
#420= IFCCARTESIANPOINT((32323.8952291794,30165.294621113,16827.5069392432));
#421= IFCDIRECTION((-2.94650000068941E-05,0.509320894122207,-0.860576682197681));
#422= IFCDIRECTION((-1.7437999984559E-05,-0.860576682702103,-0.509320893823687));
#423= IFCAXIS2PLACEMENT3D(#420,#421,#422);
#424= IFCLOCALPLACEMENT(#42,#423);
#425= IFCMECHANICALFASTENER('05KXL71efB78vrbwv_nAKV',#245,'Bolt assembly',$,$,#424,#419,'ID05521547-068a-4b1c-8e75-97ae7ec4a51f',15.,8.);
#426= IFCMAPPEDITEM(#318,#122);
#427= IFCSHAPEREPRESENTATION(#12,'Body','MappedRepresentation',(#426));
#428= IFCPRODUCTDEFINITIONSHAPE($,$,(#427));
#429= IFCCARTESIANPOINT((32516.000264407,29935.0047447806,16682.5003616735));
#430= IFCAXIS2PLACEMENT3D(#429,#394,#395);
#431= IFCLOCALPLACEMENT(#42,#430);
#432= IFCMECHANICALFASTENER('1k2WXUcD9CnvPvvSBui5zE',#245,'Bolt assembly',$,$,#431,#428,'ID6e0a085e-98d2-4cc7-9679-e5c2f8b05f4e',15.,8.);
#433= IFCMAPPEDITEM(#318,#122);
#434= IFCSHAPEREPRESENTATION(#12,'Body','MappedRepresentation',(#433));
#435= IFCPRODUCTDEFINITIONSHAPE($,$,(#434));
#436= IFCCARTESIANPOINT((32516.0052290621,29935.0047447811,16827.5003615885));
#437= IFCAXIS2PLACEMENT3D(#436,#403,#404);
#438= IFCLOCALPLACEMENT(#42,#437);
#439= IFCMECHANICALFASTENER('29Ihq93x987BQnQY_nnSh9',#245,'Bolt assembly',$,$,#438,#435,'ID894abd09-0fb2-481c-b6b1-6a2fb1c5cac9',15.,8.);
#440= IFCMAPPEDITEM(#318,#122);
#441= IFCSHAPEREPRESENTATION(#12,'Body','MappedRepresentation',(#440));
#442= IFCPRODUCTDEFINITIONSHAPE($,$,(#441));
#443= IFCCARTESIANPOINT((32516.0002644071,30165.3846211129,16682.5003616735));
#444= IFCAXIS2PLACEMENT3D(#443,#412,#413);
#445= IFCLOCALPLACEMENT(#42,#444);
#446= IFCMECHANICALFASTENER('00KZJ0Ol53MAhnmrFiZaVY',#245,'Bolt assembly',$,$,#445,#442,'ID005234c0-62f1-4358-aaf1-c353ec8e47e2',15.,8.);
#447= IFCMAPPEDITEM(#318,#122);
#448= IFCSHAPEREPRESENTATION(#12,'Body','MappedRepresentation',(#447));
#449= IFCPRODUCTDEFINITIONSHAPE($,$,(#448));
#450= IFCCARTESIANPOINT((32516.0052290621,30165.3846211133,16827.5003615885));
#451= IFCAXIS2PLACEMENT3D(#450,#421,#422);
#452= IFCLOCALPLACEMENT(#42,#451);
#453= IFCMECHANICALFASTENER('3$_sUNJvDFcRtz7NErmV30',#245,'Bolt assembly',$,$,#452,#449,'IDfffb6797-4f93-4f99-bdfd-1d73b5c1f0c0',15.,8.);
#454= IFCOWNERHISTORY(#3,#4,$,.NOCHANGE.,$,$,$,1770796800);
#455= IFCCOLOURRGB('Dark Gray',0.709803921568627,0.403921568627451,0.2);
#456= IFCSURFACESTYLERENDERING(#455,0.,$,$,$,$,IFCNORMALISEDRATIOMEASURE(0.00390625),IFCSPECULAREXPONENT(10.),.NOTDEFINED.);
#457= IFCSURFACESTYLE('STEEL/S275',.POSITIVE.,(#456));
#458= IFCPRESENTATIONSTYLEASSIGNMENT((#457));
#459= IFCCARTESIANPOINT((7.27595761418343E-12,-4.99999999999272,-7.27595761418343E-12));
#460= IFCCARTESIANPOINT((2.27810232900083E-08,-4.99999999954889,229.999999999662));
#461= IFCCARTESIANPOINT((2.27591954171658E-08,5.00000000045111,229.999999999669));
#462= IFCCARTESIANPOINT((-7.27595761418343E-12,5.00000000000728,0.));
#463= IFCPOLYLOOP((#459,#460,#461,#462));
#464= IFCFACEOUTERBOUND(#463,.T.);
#465= IFCFACE((#464));
#466= IFCCARTESIANPOINT((80.758154449868,-4.99999999938154,229.999999999665));
#467= IFCCARTESIANPOINT((77.4283038122085,5.0000000006039,229.999999999673));
#468= IFCPOLYLOOP((#461,#460,#466,#467));
#469= IFCFACEOUTERBOUND(#468,.T.);
#470= IFCFACE((#469));
#471= IFCCARTESIANPOINT((77.4283037838977,5.00000000016007,1.81898940354586E-11));
#472= IFCPOLYLOOP((#462,#461,#467,#471));
#473= IFCFACEOUTERBOUND(#472,.T.);
#474= IFCFACE((#473));
#475= IFCCARTESIANPOINT((80.75815442155,-4.99999999983265,1.09139364212751E-11));
#476= IFCPOLYLOOP((#459,#462,#471,#475));
#477= IFCFACEOUTERBOUND(#476,.T.);
#478= IFCFACE((#477));
#479= IFCPOLYLOOP((#460,#459,#475,#466));
#480= IFCFACEOUTERBOUND(#479,.T.);
#481= IFCFACE((#480));
#482= IFCPOLYLOOP((#471,#467,#466,#475));
#483= IFCFACEOUTERBOUND(#482,.T.);
#484= IFCFACE((#483));
#485= IFCCLOSEDSHELL((#465,#470,#474,#478,#481,#484));
#486= IFCFACETEDBREP(#485);
#487= IFCSTYLEDITEM(#486,(#458),$);
#488= IFCSHAPEREPRESENTATION(#12,'Body','Brep',(#486));
#489= IFCPRODUCTDEFINITIONSHAPE($,$,(#488));
#490= IFCCARTESIANPOINT((32244.9655431139,29873.2518742544,16869.9441531576));
#491= IFCDIRECTION((-6.93211557882023E-06,-3.84898157790303E-11,-0.999999999975973));
#492= IFCDIRECTION((0.948770652404007,0.31596558213454,-6.57699998193064E-06));
#493= IFCAXIS2PLACEMENT3D(#490,#491,#492);
#494= IFCLOCALPLACEMENT(#42,#493);
#495= IFCPLATE('03glNrPA92dxx1wTtUGAWu',#454,'PLATE-10','PL10*80.8',$,#494,#489,'ID03aaf5f5-64a2-429f-bec1-e9ddde40a838');
#496= IFCPLATETYPE('2J$8uDdsz0NPgQIxaqZfWA',#5,'PL10*80.8',$,$,$,$,$,$,.NOTDEFINED.);
#497= IFCPROPERTYSINGLEVALUE('Bottom elevation',$,IFCLABEL(' +16.640'),$);
#498= IFCPROPERTYSINGLEVALUE('Top elevation',$,IFCLABEL(' +16.870'),$);
#499= IFCPROPERTYSINGLEVALUE('Initial GUID',$,$,$);
#500= IFCPROPERTYSINGLEVALUE('Preliminary mark',$,IFCLABEL('5-2-P111'),$);
#501= IFCPROPERTYSINGLEVALUE('Phase',$,IFCINTEGER(4),$);
#502= IFCPROPERTYSINGLEVALUE('Class',$,IFCLABEL('22'),$);
#503= IFCPROPERTYSET('0TJNA9Qs176QKjNEDLoFB6',#5,'Tekla Common','Common Properties to Shared building elements',(#497,#498,#499,#500,#501,#502));
#504= IFCPROPERTYSINGLEVALUE('Weight',$,IFCMASSMEASURE(1.43),$);
#505= IFCPROPERTYSINGLEVALUE('Volume',$,IFCVOLUMEMEASURE(0.),$);
#506= IFCPROPERTYSINGLEVALUE('Gross footprint area',$,IFCAREAMEASURE(0.001),$);
#507= IFCPROPERTYSINGLEVALUE('Area per tons',$,IFCAREAMEASURE(29.894),$);
#508= IFCPROPERTYSINGLEVALUE('Net surface area',$,IFCAREAMEASURE(0.043),$);
#509= IFCPROPERTYSINGLEVALUE('Height',$,IFCLENGTHMEASURE(80.8),$);
#510= IFCPROPERTYSINGLEVALUE('Width',$,IFCLENGTHMEASURE(10.),$);
#511= IFCPROPERTYSINGLEVALUE('Length',$,IFCLENGTHMEASURE(230.),$);
#512= IFCPROPERTYSET('35hDoBmAzEZRLKYiN8PWeN',#5,'Tekla Quantity','Quantity Properties to Shared building elements',(#504,#505,#506,#507,#508,#509,#510,#511));
#513= IFCPROPERTYSINGLEVALUE('LoadBearing',$,IFCBOOLEAN(.F.),$);
#514= IFCPROPERTYSINGLEVALUE('Reference',$,IFCIDENTIFIER('5-2-P111'),$);
#515= IFCPROPERTYSET('2vFm2HjWPEkgOACMofK9tl',#5,'Pset_PlateCommon','Common Properties to plate elements',(#513,#514));
#516= IFCQUANTITYLENGTH('Width',$,$,80.758154427121);
#517= IFCQUANTITYAREA('NetArea',$,$,0.0426889096577528);
#518= IFCQUANTITYAREA('GrossArea',$,$,0.0185743755188362);
#519= IFCQUANTITYAREA('CrossSectionArea',$,$,0.0001);
#520= IFCQUANTITYVOLUME('NetVolume',$,$,0.000181914426942545);
#521= IFCQUANTITYVOLUME('GrossVolume',$,$,0.000197478369877628);
#522= IFCELEMENTQUANTITY('2CPoqAMBbAjxjeJXFCUy30',#5,'BaseQuantities',$,$,(#516,#517,#518,#519,#520,#521));
#523= IFCMATERIAL('STEEL/S275');
#524= IFCCARTESIANPOINT((80.526160194584,4.9999999998181,229.999999999527));
#525= IFCCARTESIANPOINT((80.5261601981601,4.99999999989814,-1.23691279441118E-10));
#526= IFCPOLYLOOP((#462,#461,#524,#525));
#527= IFCFACEOUTERBOUND(#526,.T.);
#528= IFCFACE((#527));
#529= IFCCARTESIANPOINT((77.2163672740717,-5.00000000010914,-1.2732925824821E-10));
#530= IFCPOLYLOOP((#459,#462,#525,#529));
#531= IFCFACEOUTERBOUND(#530,.T.);
#532= IFCFACE((#531));
#533= IFCCARTESIANPOINT((77.2163672704919,-5.00000000018917,229.999999999527));
#534= IFCPOLYLOOP((#460,#459,#529,#533));
#535= IFCFACEOUTERBOUND(#534,.T.);
#536= IFCFACE((#535));
#537= IFCPOLYLOOP((#461,#460,#533,#524));
#538= IFCFACEOUTERBOUND(#537,.T.);
#539= IFCFACE((#538));
#540= IFCPOLYLOOP((#529,#525,#524,#533));
#541= IFCFACEOUTERBOUND(#540,.T.);
#542= IFCFACE((#541));
#543= IFCCLOSEDSHELL((#465,#528,#532,#536,#539,#542));
#544= IFCFACETEDBREP(#543);
#545= IFCSTYLEDITEM(#544,(#458),$);
#546= IFCSHAPEREPRESENTATION(#12,'Body','Brep',(#544));
#547= IFCPRODUCTDEFINITIONSHAPE($,$,(#546));
#548= IFCCARTESIANPOINT((22834.8681027153,29873.288498156,16870.3326701566));
#549= IFCDIRECTION((-0.949363373217362,0.314180180071949,6.58100000138463E-06));
#550= IFCAXIS2PLACEMENT3D(#548,#491,#549);
#551= IFCLOCALPLACEMENT(#42,#550);
#552= IFCPLATE('0xUeMCfgLC_PoQBfgbAlNr',#454,'PLATE-10','PL10*80.5',$,#551,#547,'ID3b7a858c-a6a5-4cf9-9c9a-2e9aa52af5f5');
#553= IFCPLATETYPE('2un1r_SYH6IQseSdlp$UAl',#5,'PL10*80.5',$,$,$,$,$,$,.NOTDEFINED.);
#554= IFCPROPERTYSINGLEVALUE('Weight',$,IFCMASSMEASURE(1.42),$);
#555= IFCPROPERTYSINGLEVALUE('Area per tons',$,IFCAREAMEASURE(29.902),$);
#556= IFCPROPERTYSINGLEVALUE('Height',$,IFCLENGTHMEASURE(80.5),$);
#557= IFCPROPERTYSET('1Ym8KHiOb2YecO3U25$TqD',#5,'Tekla Quantity','Quantity Properties to Shared building elements',(#554,#505,#506,#555,#508,#556,#510,#511));
#558= IFCQUANTITYLENGTH('Width',$,$,80.5261601980427);
#559= IFCQUANTITYAREA('NetArea',$,$,0.0425809127495002);
#560= IFCQUANTITYAREA('GrossArea',$,$,0.0185210168467207);
#561= IFCQUANTITYVOLUME('NetVolume',$,$,0.000181403906538107);
#562= IFCQUANTITYVOLUME('GrossVolume',$,$,0.000198568795725128);
#563= IFCELEMENTQUANTITY('0ce_0N8W9FTuzlWUvfuuS6',#5,'BaseQuantities',$,$,(#558,#559,#560,#519,#561,#562));
#564= IFCCARTESIANPOINT((184.04283142072,-4.99999999973079,230.000000000007));
#565= IFCCARTESIANPOINT((184.042831420717,5.00000000028012,229.999999999993));
#566= IFCPOLYLOOP((#460,#564,#565,#461));
#567= IFCFACEOUTERBOUND(#566,.T.);
#568= IFCFACE((#567));
#569= IFCCARTESIANPOINT((184.042831420902,-4.99999999972715,2.11002770811319E-10));
#570= IFCCARTESIANPOINT((184.042831420902,5.00000000028012,1.96450855582952E-10));
#571= IFCPOLYLOOP((#564,#569,#570,#565));
#572= IFCFACEOUTERBOUND(#571,.T.);
#573= IFCFACE((#572));
#574= IFCPOLYLOOP((#569,#459,#462,#570));
#575= IFCFACEOUTERBOUND(#574,.T.);
#576= IFCFACE((#575));
#577= IFCPOLYLOOP((#565,#570,#462,#461));
#578= IFCFACEOUTERBOUND(#577,.T.);
#579= IFCFACE((#578));
#580= IFCPOLYLOOP((#569,#564,#460,#459));
#581= IFCFACEOUTERBOUND(#580,.T.);
#582= IFCFACE((#581));
#583= IFCCLOSEDSHELL((#465,#568,#573,#576,#579,#582));
#584= IFCFACETEDBREP(#583);
#585= IFCSTYLEDITEM(#584,(#458),$);
#586= IFCSHAPEREPRESENTATION(#12,'Body','Brep',(#584));
#587= IFCPRODUCTDEFINITIONSHAPE($,$,(#586));
#588= IFCCARTESIANPOINT((22752.0408113188,29898.0225365174,16870.3538542934));
#589= IFCDIRECTION((5.62460146466038E-05,1.09139364212751E-14,-0.999999998418193));
#590= IFCDIRECTION((-0.999999738163729,-0.000721463000125113,-5.62460000094323E-05));
#591= IFCAXIS2PLACEMENT3D(#588,#589,#590);
#592= IFCLOCALPLACEMENT(#42,#591);
#593= IFCPLATE('2AtIpH8RPENu2IXHE0UMnG',#454,'PLATE-10','PL10*184',$,#592,#587,'ID8add2cd1-21b6-4e5f-8092-851380796c50');
#594= IFCPLATETYPE('2BoIvC0tvB4enukDLfhKUg',#5,'PL10*184',$,$,$,$,$,$,.NOTDEFINED.);
#595= IFCPROPERTYSINGLEVALUE('Preliminary mark',$,IFCLABEL('5-2-P100'),$);
#596= IFCPROPERTYSET('05JZ0CeSv2SQGWLo54K01H',#5,'Tekla Common','Common Properties to Shared building elements',(#497,#498,#499,#595,#501,#502));
#597= IFCPROPERTYSINGLEVALUE('Weight',$,IFCMASSMEASURE(3.32),$);
#598= IFCPROPERTYSINGLEVALUE('Gross footprint area',$,IFCAREAMEASURE(0.002),$);
#599= IFCPROPERTYSINGLEVALUE('Area per tons',$,IFCAREAMEASURE(27.97),$);
#600= IFCPROPERTYSINGLEVALUE('Net surface area',$,IFCAREAMEASURE(0.093),$);
#601= IFCPROPERTYSINGLEVALUE('Height',$,IFCLENGTHMEASURE(184.),$);
#602= IFCPROPERTYSET('11eff3y3n27Q6LlWv96akW',#5,'Tekla Quantity','Quantity Properties to Shared building elements',(#597,#505,#598,#599,#600,#601,#510,#511));
#603= IFCPROPERTYSINGLEVALUE('Reference',$,IFCIDENTIFIER('5-2-P100'),$);
#604= IFCPROPERTYSET('13FRWet8jCfeY2c1vCH5Vp',#5,'Pset_PlateCommon','Common Properties to plate elements',(#513,#603));
#605= IFCQUANTITYLENGTH('Width',$,$,184.042831420937);
#606= IFCQUANTITYAREA('NetArea',$,$,0.0929405590820016);
#607= IFCQUANTITYAREA('GrossArea',$,$,0.0423298512267675);
#608= IFCQUANTITYVOLUME('NetVolume',$,$,0.000423298512267925);
#609= IFCQUANTITYVOLUME('GrossVolume',$,$,0.000423298512267925);
#610= IFCELEMENTQUANTITY('3utN_y0BP2ufjHR_Nki4Ow',#5,'BaseQuantities',$,$,(#605,#606,#607,#519,#608,#609));
#611= IFCOWNERHISTORY(#3,#4,$,.NOCHANGE.,$,$,$,1770843600);
#612= IFCCOLOURRGB('Light Green',0.356862745098039,0.592156862745098,0.137254901960784);
#613= IFCSURFACESTYLERENDERING(#612,0.,$,$,$,$,IFCNORMALISEDRATIOMEASURE(0.00390625),IFCSPECULAREXPONENT(10.),.NOTDEFINED.);
#614= IFCSURFACESTYLE('STEEL/S275',.POSITIVE.,(#613));
#615= IFCPRESENTATIONSTYLEASSIGNMENT((#614));
#616= IFCCARTESIANPOINT((0.,-4.,-3.63797880709171E-12));
#617= IFCCARTESIANPOINT((-1.09139364212751E-11,-4.00000000019645,229.999999999833));
#618= IFCCARTESIANPOINT((-1.09139364212751E-11,3.99999999979264,229.99999999984));
#619= IFCCARTESIANPOINT((0.,3.99999999999636,0.));
#620= IFCPOLYLOOP((#616,#617,#618,#619));
#621= IFCFACEOUTERBOUND(#620,.T.);
#622= IFCFACE((#621));
#623= IFCCARTESIANPOINT((315.113189697266,-4.00000000019645,229.999999999833));
#624= IFCCARTESIANPOINT((315.113189697266,3.99999999979264,229.99999999984));
#625= IFCPOLYLOOP((#617,#623,#624,#618));
#626= IFCFACEOUTERBOUND(#625,.T.);
#627= IFCFACE((#626));
#628= IFCCARTESIANPOINT((315.113189697266,-4.,-7.27595761418343E-12));
#629= IFCCARTESIANPOINT((315.113189697266,3.99999999999636,-3.63797880709171E-12));
#630= IFCPOLYLOOP((#623,#628,#629,#624));
#631= IFCFACEOUTERBOUND(#630,.T.);
#632= IFCFACE((#631));
#633= IFCPOLYLOOP((#628,#616,#619,#629));
#634= IFCFACEOUTERBOUND(#633,.T.);
#635= IFCFACE((#634));
#636= IFCPOLYLOOP((#624,#629,#619,#618));
#637= IFCFACEOUTERBOUND(#636,.T.);
#638= IFCFACE((#637));
#639= IFCPOLYLOOP((#628,#623,#617,#616));
#640= IFCFACEOUTERBOUND(#639,.T.);
#641= IFCFACE((#640));
#642= IFCCLOSEDSHELL((#622,#627,#632,#635,#638,#641));
#643= IFCFACETEDBREP(#642);
#644= IFCSTYLEDITEM(#643,(#615),$);
#645= IFCSHAPEREPRESENTATION(#12,'Body','Brep',(#643));
#646= IFCPRODUCTDEFINITIONSHAPE($,$,(#645));
#647= IFCCARTESIANPOINT((22756.0444186807,30208.135727516,16870.3540794808));
#648= IFCDIRECTION((0.,-1.,0.));
#649= IFCAXIS2PLACEMENT3D(#647,#589,#648);
#650= IFCLOCALPLACEMENT(#42,#649);
#651= IFCPLATE('3YEyFUYk1Fcv$8htrALaBk',#611,'PLATE-8','PL8*230',$,#650,#646,'IDe23bc3de-8ae0-4f9b-9fc8-af7d4a5642ee');
#652= IFCPLATETYPE('1BZ2AaCT1BARg00tgsus0i',#5,'PL8*230',$,$,$,$,$,$,.NOTDEFINED.);
#653= IFCPROPERTYSINGLEVALUE('Preliminary mark',$,IFCLABEL('5-2-P75'),$);
#654= IFCPROPERTYSINGLEVALUE('Class',$,IFCLABEL('17'),$);
#655= IFCPROPERTYSET('1NKfVbr1bEj9ythhgYz_1U',#5,'Tekla Common','Common Properties to Shared building elements',(#497,#498,#499,#653,#501,#654));
#656= IFCPROPERTYSINGLEVALUE('Weight',$,IFCMASSMEASURE(4.55),$);
#657= IFCPROPERTYSINGLEVALUE('Volume',$,IFCVOLUMEMEASURE(0.001),$);
#658= IFCPROPERTYSINGLEVALUE('Gross footprint area',$,IFCAREAMEASURE(0.003),$);
#659= IFCPROPERTYSINGLEVALUE('Area per tons',$,IFCAREAMEASURE(33.763),$);
#660= IFCPROPERTYSINGLEVALUE('Net surface area',$,IFCAREAMEASURE(0.154),$);
#661= IFCPROPERTYSINGLEVALUE('Height',$,IFCLENGTHMEASURE(230.),$);
#662= IFCPROPERTYSINGLEVALUE('Width',$,IFCLENGTHMEASURE(8.),$);
#663= IFCPROPERTYSINGLEVALUE('Length',$,IFCLENGTHMEASURE(315.1),$);
#664= IFCPROPERTYSET('2Hy0Dqj8zAWA2F0vOsCNV8',#5,'Tekla Quantity','Quantity Properties to Shared building elements',(#656,#657,#658,#659,#660,#661,#662,#663));
#665= IFCPROPERTYSINGLEVALUE('Reference',$,IFCIDENTIFIER('5-2-P75'),$);
#666= IFCPROPERTYSET('0VBRc4hWr73ghl2KxMp$ke',#5,'Pset_PlateCommon','Common Properties to plate elements',(#513,#665));
#667= IFCQUANTITYLENGTH('Width',$,$,230.000000000004);
#668= IFCQUANTITYAREA('NetArea',$,$,0.153673878295902);
#669= IFCQUANTITYAREA('GrossArea',$,$,0.0724760336303747);
#670= IFCQUANTITYAREA('CrossSectionArea',$,$,6.4E-05);
#671= IFCQUANTITYVOLUME('NetVolume',$,$,0.000579808269042983);
#672= IFCQUANTITYVOLUME('GrossVolume',$,$,0.000579808269042983);
#673= IFCELEMENTQUANTITY('3p$3xGVXf49uIYZkXLCko4',#5,'BaseQuantities',$,$,(#667,#668,#669,#670,#671,#672));
#674= IFCSHAPEREPRESENTATION(#12,'Body','Brep',(#643));
#675= IFCPRODUCTDEFINITIONSHAPE($,$,(#674));
#676= IFCCARTESIANPOINT((22563.9944190119,30207.995727516,16870.3427149765));
#677= IFCAXIS2PLACEMENT3D(#676,#589,#648);
#678= IFCLOCALPLACEMENT(#42,#677);
#679= IFCPLATE('0dZxFdzs1CMuIv3eISKp$n',#611,'PLATE-8','PL8*230',$,#678,#675,'ID278fb3e7-f760-4c5b-84b9-0e849c533ff1');
#680= IFCCARTESIANPOINT((0.000534229686309118,-4.99999999977445,229.989959716961));
#681= IFCCARTESIANPOINT((0.000534229686309118,5.00000000021828,229.989959716975));
#682= IFCPOLYLOOP((#459,#680,#681,#462));
#683= IFCFACEOUTERBOUND(#682,.T.);
#684= IFCFACE((#683));
#685= IFCCARTESIANPOINT((184.110641479394,-4.9999999996835,229.989929199677));
#686= IFCCARTESIANPOINT((184.110641479398,5.00000000031287,229.989929199692));
#687= IFCPOLYLOOP((#680,#685,#686,#681));
#688= IFCFACEOUTERBOUND(#687,.T.);
#689= IFCFACE((#688));
#690= IFCCARTESIANPOINT((184.11015319849,-4.99999999989814,1.81898940354586E-11));
#691= IFCCARTESIANPOINT((184.110153198493,5.00000000009095,3.27418092638254E-11));
#692= IFCPOLYLOOP((#685,#690,#691,#686));
#693= IFCFACEOUTERBOUND(#692,.T.);
#694= IFCFACE((#693));
#695= IFCPOLYLOOP((#690,#459,#462,#691));
#696= IFCFACEOUTERBOUND(#695,.T.);
#697= IFCFACE((#696));
#698= IFCPOLYLOOP((#686,#691,#462,#681));
#699= IFCFACEOUTERBOUND(#698,.T.);
#700= IFCFACE((#699));
#701= IFCPOLYLOOP((#690,#685,#680,#459));
#702= IFCFACEOUTERBOUND(#701,.T.);
#703= IFCFACE((#702));
#704= IFCCLOSEDSHELL((#684,#689,#694,#697,#700,#703));
#705= IFCFACETEDBREP(#704);
#706= IFCSTYLEDITEM(#705,(#458),$);
#707= IFCSHAPEREPRESENTATION(#12,'Body','Brep',(#705));
#708= IFCPRODUCTDEFINITIONSHAPE($,$,(#707));
#709= IFCCARTESIANPOINT((32327.8902408605,29897.7946785216,16870.0085994321));
#710= IFCDIRECTION((-3.6562165732903E-05,0.000359386999698472,-0.999999934752094));
#711= IFCDIRECTION((0.999999168989705,0.00128868799997761,-3.60989999909799E-05));
#712= IFCAXIS2PLACEMENT3D(#709,#710,#711);
#713= IFCLOCALPLACEMENT(#42,#712);
#714= IFCPLATE('3TR6kV8cn9VuSykJIP_W36',#454,'PLATE-10','PL10*184.1',$,#713,#708,'IDdd6c6b9f-226c-497f-873c-b93499fa00c6');
#715= IFCPLATETYPE('20DBEQg5L46RsCy8l7YAGL',#5,'PL10*184.1',$,$,$,$,$,$,.NOTDEFINED.);
#716= IFCPROPERTYSINGLEVALUE('Height',$,IFCLENGTHMEASURE(184.1),$);
#717= IFCPROPERTYSET('3hGsMdmzHDavrG1_u6R$wJ',#5,'Tekla Quantity','Quantity Properties to Shared building elements',(#597,#505,#598,#599,#600,#716,#510,#511));
#718= IFCQUANTITYLENGTH('Width',$,$,184.11015319821);
#719= IFCQUANTITYAREA('NetArea',$,$,0.0929689587423969);
#720= IFCQUANTITYAREA('GrossArea',$,$,0.0423435598353131);
#721= IFCQUANTITYVOLUME('NetVolume',$,$,0.000423434786243728);
#722= IFCQUANTITYVOLUME('GrossVolume',$,$,0.000423434786243728);
#723= IFCELEMENTQUANTITY('3VBrzGmCnDF8WAtyQ5yUs_',#5,'BaseQuantities',$,$,(#718,#719,#720,#519,#721,#722));
#724= IFCCARTESIANPOINT((-0.00734384078532457,-4.00000000029104,229.989944458106));
#725= IFCCARTESIANPOINT((-0.00734384078532457,3.9999999997126,229.989944458117));
#726= IFCPOLYLOOP((#616,#724,#725,#619));
#727= IFCFACEOUTERBOUND(#726,.T.);
#728= IFCFACE((#727));
#729= IFCCARTESIANPOINT((315.111053466797,-4.0000000002874,230.000000000098));
#730= IFCCARTESIANPOINT((315.111053466797,3.99999999971624,230.000000000109));
#731= IFCPOLYLOOP((#724,#729,#730,#725));
#732= IFCFACEOUTERBOUND(#731,.T.);
#733= IFCFACE((#732));
#734= IFCCARTESIANPOINT((315.111053466797,-4.00000000000364,-3.63797880709171E-12));
#735= IFCCARTESIANPOINT((315.111053466797,4.,7.27595761418343E-12));
#736= IFCPOLYLOOP((#729,#734,#735,#730));
#737= IFCFACEOUTERBOUND(#736,.T.);
#738= IFCFACE((#737));
#739= IFCPOLYLOOP((#734,#616,#619,#735));
#740= IFCFACEOUTERBOUND(#739,.T.);
#741= IFCFACE((#740));
#742= IFCPOLYLOOP((#730,#735,#619,#725));
#743= IFCFACEOUTERBOUND(#742,.T.);
#744= IFCFACE((#743));
#745= IFCPOLYLOOP((#734,#729,#724,#616));
#746= IFCFACEOUTERBOUND(#745,.T.);
#747= IFCFACE((#746));
#748= IFCCLOSEDSHELL((#728,#733,#738,#741,#744,#747));
#749= IFCFACETEDBREP(#748);
#750= IFCSTYLEDITEM(#749,(#615),$);
#751= IFCSHAPEREPRESENTATION(#12,'Body','Brep',(#749));
#752= IFCPRODUCTDEFINITIONSHAPE($,$,(#751));
#753= IFCCARTESIANPOINT((32323.8966842287,29892.7946829962,16870.0069392184));
#754= IFCDIRECTION((-3.42390000150772E-05,0.,-0.999999999413845));
#755= IFCAXIS2PLACEMENT3D(#753,#754,#8);
#756= IFCLOCALPLACEMENT(#42,#755);
#757= IFCPLATE('2ycouu3Vn3_x6zETSPzgDd',#611,'PLATE-8','PL8*230',$,#756,#752,'IDbc9b2e38-0dfc-43fb-b1bd-39d719f6a367');
#758= IFCQUANTITYLENGTH('Width',$,$,230.);
#759= IFCQUANTITYAREA('NetArea',$,$,0.153671360229757);
#760= IFCQUANTITYAREA('GrossArea',$,$,0.0724772313807439);
#761= IFCQUANTITYVOLUME('NetVolume',$,$,0.000579798420262707);
#762= IFCQUANTITYVOLUME('GrossVolume',$,$,0.000579798420262707);
#763= IFCELEMENTQUANTITY('2bTLF9hUX0g8xJYsCGKO3c',#5,'BaseQuantities',$,$,(#758,#759,#760,#670,#761,#762));
#764= IFCSHAPEREPRESENTATION(#12,'Body','Brep',(#749));
#765= IFCPRODUCTDEFINITIONSHAPE($,$,(#764));
#766= IFCCARTESIANPOINT((32516.0066841118,29892.8846829962,16870.0003615638));
#767= IFCAXIS2PLACEMENT3D(#766,#754,#8);
#768= IFCLOCALPLACEMENT(#42,#767);
#769= IFCPLATE('3433Tl9$L5Jwi9XXuAHQ7D',#611,'PLATE-8','PL8*230',$,#768,#765,'IDc40c376f-27f5-454f-ab09-861e0a45a1cd');
#770= IFCOWNERHISTORY(#3,#4,$,.NOCHANGE.,$,$,$,1770879600);
#771= IFCCOLOURRGB('Dark Blue',0.117647058823529,0.262745098039216,0.513725490196078);
#772= IFCSURFACESTYLERENDERING(#771,0.,$,$,$,$,IFCNORMALISEDRATIOMEASURE(0.00390625),IFCSPECULAREXPONENT(10.),.NOTDEFINED.);
#773= IFCSURFACESTYLE('STEEL/S275',.POSITIVE.,(#772));
#774= IFCPRESENTATIONSTYLEASSIGNMENT((#773));
#775= IFCCARTESIANPOINT((9979.98227089172,115.000000011922,-149.96832538132));
#776= IFCCARTESIANPOINT((9769.84853343313,115.000000011667,-149.915019066892));
#777= IFCCARTESIANPOINT((9769.84943918481,125.000000011667,-149.91501907042));
#778= IFCCARTESIANPOINT((9979.98227089171,125.000000011918,-149.968325384849));
#779= IFCPOLYLOOP((#775,#776,#777,#778));
#780= IFCFACEOUTERBOUND(#779,.T.);
#781= IFCFACE((#780));
#782= IFCCARTESIANPOINT((9694.86830287843,-124.999999988391,-174.999941582832));
#783= IFCCARTESIANPOINT((9694.8909466863,125.000000011576,-175.));
#784= IFCCARTESIANPOINT((9724.63332052177,115.000000011612,-165.));
#785= IFCCARTESIANPOINT((9725.01659422425,114.644697029205,-164.999999978263));
#786= IFCCARTESIANPOINT((9696.5272327199,114.645477552207,-174.487706191168));
#787= IFCCARTESIANPOINT((9696.52093141019,-115.354522361096,-174.487706191168));
#788= IFCCARTESIANPOINT((9725.01029291454,-115.355302884098,-164.999999978263));
#789= IFCCARTESIANPOINT((9725.01030265065,-114.99993144703,-164.999999978263));
#790= IFCCARTESIANPOINT((9769.82770119354,-114.999457073962,-149.915018985728));
#791= IFCCARTESIANPOINT((9769.82679539268,-124.999999988304,-149.915018982199));
#792= IFCPOLYLOOP((#782,#783,#777,#776,#784,#785,#786,#787,#788,#789,#790,#791));
#793= IFCFACEOUTERBOUND(#792,.T.);
#794= IFCFACE((#793));
#795= IFCCARTESIANPOINT((9979.87661163092,-124.999990417946,-149.968325296628));
#796= IFCCARTESIANPOINT((9979.98227089199,-114.999999988057,-149.968325300157));
#797= IFCPOLYLOOP((#795,#791,#790,#796));
#798= IFCFACEOUTERBOUND(#797,.T.);
#799= IFCFACE((#798));
#800= IFCCARTESIANPOINT((-1.38243194669485E-10,114.999999999985,-149.970874777959));
#801= IFCCARTESIANPOINT((-1.4915713109076E-10,124.999999999985,-149.970874778031));
#802= IFCCARTESIANPOINT((210.041548818019,125.000000000236,-149.970872996462));
#803= IFCCARTESIANPOINT((210.040643072589,115.00000000024,-149.97087299639));
#804= IFCPOLYLOOP((#800,#801,#802,#803));
#805= IFCFACEOUTERBOUND(#804,.T.);
#806= IFCFACE((#805));
#807= IFCCARTESIANPOINT((255.050390935579,115.000000000295,-165.));
#808= IFCCARTESIANPOINT((283.286259374134,115.002692117407,-174.456424175827));
#809= IFCCARTESIANPOINT((286.439586174572,115.000000000327,-165.));
#810= IFCPOLYLOOP((#807,#808,#809));
#811= IFCFACEOUTERBOUND(#810,.T.);
#812= IFCFACE((#811));
#813= IFCCARTESIANPOINT((9693.36127559248,-115.354435796009,-165.000000009943));
#814= IFCCARTESIANPOINT((9693.36128530512,-114.999922939209,-164.99989081188));
#815= IFCPOLYLOOP((#813,#814,#789,#788));
#816= IFCFACEOUTERBOUND(#815,.T.);
#817= IFCFACE((#816));
#818= IFCPOLYLOOP((#813,#788,#787));
#819= IFCFACEOUTERBOUND(#818,.T.);
#820= IFCFACE((#819));
#821= IFCCARTESIANPOINT((9693.3675769022,114.645564117291,-165.000000009943));
#822= IFCPOLYLOOP((#821,#814,#813,#787,#786));
#823= IFCFACEOUTERBOUND(#822,.T.);
#824= IFCFACE((#823));
#825= IFCPOLYLOOP((#821,#786,#785));
#826= IFCFACEOUTERBOUND(#825,.T.);
#827= IFCFACE((#826));
#828= IFCCARTESIANPOINT((286.433284864863,-114.99739418878,-164.99630724742));
#829= IFCPOLYLOOP((#809,#828,#814,#821,#785,#784));
#830= IFCFACEOUTERBOUND(#829,.T.);
#831= IFCFACE((#830));
#832= IFCCARTESIANPOINT((9979.98227089172,115.000000011922,165.));
#833= IFCCARTESIANPOINT((-1.38243194669485E-10,114.999999999985,165.));
#834= IFCPOLYLOOP((#832,#833,#800,#803,#807,#809,#784,#776,#775));
#835= IFCFACEOUTERBOUND(#834,.T.);
#836= IFCFACE((#835));
#837= IFCCARTESIANPOINT((1.38243194669485E-10,-114.999999999985,165.));
#838= IFCCARTESIANPOINT((9979.98227089199,-114.999999988057,165.));
#839= IFCPOLYLOOP((#837,#833,#832,#838));
#840= IFCFACEOUTERBOUND(#839,.T.);
#841= IFCFACE((#840));
#842= IFCCARTESIANPOINT((255.029558794806,-114.99999999968,-165.));
#843= IFCCARTESIANPOINT((210.019810927744,-114.999999999734,-149.970872994716));
#844= IFCCARTESIANPOINT((1.38243194669485E-10,-114.999999999985,-149.970874776285));
#845= IFCPOLYLOOP((#789,#814,#828,#842,#843,#844,#837,#838,#796,#790));
#846= IFCFACEOUTERBOUND(#845,.T.);
#847= IFCFACE((#846));
#848= IFCCARTESIANPOINT((283.279958064424,-114.997307795893,-174.456424205113));
#849= IFCPOLYLOOP((#828,#848,#842));
#850= IFCFACEOUTERBOUND(#849,.T.);
#851= IFCFACE((#850));
#852= IFCPOLYLOOP((#809,#808,#848,#828));
#853= IFCFACEOUTERBOUND(#852,.T.);
#854= IFCFACE((#853));
#855= IFCCARTESIANPOINT((284.993692569864,125.000000000327,-175.));
#856= IFCCARTESIANPOINT((284.971048934163,-124.999999999643,-174.998013583401));
#857= IFCCARTESIANPOINT((210.018905182318,-124.999999999734,-149.970872994643));
#858= IFCPOLYLOOP((#807,#803,#802,#855,#856,#857,#843,#842,#848,#808));
#859= IFCFACEOUTERBOUND(#858,.T.);
#860= IFCFACE((#859));
#861= IFCCARTESIANPOINT((1.4915713109076E-10,-124.999999999985,-149.970874776212));
#862= IFCPOLYLOOP((#861,#844,#843,#857));
#863= IFCFACEOUTERBOUND(#862,.T.);
#864= IFCFACE((#863));
#865= IFCCARTESIANPOINT((1.4915713109076E-10,-124.999999999985,175.));
#866= IFCCARTESIANPOINT((-1.4915713109076E-10,124.999999999985,175.));
#867= IFCPOLYLOOP((#865,#866,#801,#800,#833,#837,#844,#861));
#868= IFCFACEOUTERBOUND(#867,.T.);
#869= IFCFACE((#868));
#870= IFCCARTESIANPOINT((9979.98227089201,-124.999999988053,175.));
#871= IFCCARTESIANPOINT((9979.98227089171,125.000000011918,175.));
#872= IFCPOLYLOOP((#866,#865,#870,#871));
#873= IFCFACEOUTERBOUND(#872,.T.);
#874= IFCFACE((#873));
#875= IFCPOLYLOOP((#838,#832,#775,#778,#871,#870,#795,#796));
#876= IFCFACEOUTERBOUND(#875,.T.);
#877= IFCFACE((#876));
#878= IFCPOLYLOOP((#783,#855,#802,#801,#866,#871,#778,#777));
#879= IFCFACEOUTERBOUND(#878,.T.);
#880= IFCFACE((#879));
#881= IFCPOLYLOOP((#856,#855,#783,#782));
#882= IFCFACEOUTERBOUND(#881,.T.);
#883= IFCFACE((#882));
#884= IFCPOLYLOOP((#870,#865,#861,#857,#856,#782,#791,#795));
#885= IFCFACEOUTERBOUND(#884,.T.);
#886= IFCFACE((#885));
#887= IFCCLOSEDSHELL((#781,#794,#799,#806,#812,#817,#820,#824,#827,#831,#836,#841,#847,#851,#854,#860,#864,#869,#874,#877,#880,#883,#886));
#888= IFCFACETEDBREP(#887);
#889= IFCSTYLEDITEM(#888,(#774),$);
#890= IFCSHAPEREPRESENTATION(#12,'Body','Brep',(#888));
#891= IFCPRODUCTDEFINITIONSHAPE($,$,(#890));
#892= IFCCARTESIANPOINT((22550.020481573,30042.9957275166,16755.3424917481));
#893= IFCDIRECTION((0.99999999941076,0.,-3.43290000140077E-05));
#894= IFCAXIS2PLACEMENT3D(#892,#8,#893);
#895= IFCLOCALPLACEMENT(#42,#894);
#896= IFCBEAM('2kjrZKgw16ie7_ev10sS2E',#770,'B2-\S\?\S\Z350x250x10','TUB350X250X10 ',$,#895,#891,'IDaeb758d4-aba0-46b2-81fe-a39040d9c08e');
#897= IFCBEAMTYPE('2jh7IHB4LFwR_CajpKVwwY',#5,'TUB350X250X10 ',$,$,$,$,$,$,.NOTDEFINED.);
#898= IFCPROPERTYSINGLEVALUE('Bottom elevation',$,IFCLABEL(' +16.630'),$);
#899= IFCPROPERTYSINGLEVALUE('Top elevation',$,IFCLABEL(' +16.880'),$);
#900= IFCPROPERTYSINGLEVALUE('Preliminary mark',$,IFCLABEL('5-2-P39'),$);
#901= IFCPROPERTYSINGLEVALUE('Class',$,IFCLABEL('4'),$);
#902= IFCPROPERTYSET('2R4E7IAyf2WumOQQkr6jlk',#5,'Tekla Common','Common Properties to Shared building elements',(#898,#899,#499,#900,#501,#901));
#903= IFCPROPERTYSINGLEVALUE('Weight',$,IFCMASSMEASURE(896.54),$);
#904= IFCPROPERTYSINGLEVALUE('Volume',$,IFCVOLUMEMEASURE(0.114),$);
#905= IFCPROPERTYSINGLEVALUE('Gross footprint area',$,IFCAREAMEASURE(0.),$);
#906= IFCPROPERTYSINGLEVALUE('Area per tons',$,IFCAREAMEASURE(13.133),$);
#907= IFCPROPERTYSINGLEVALUE('Net surface area',$,IFCAREAMEASURE(11.774),$);
#908= IFCPROPERTYSINGLEVALUE('Height',$,IFCLENGTHMEASURE(350.),$);
#909= IFCPROPERTYSINGLEVALUE('Width',$,IFCLENGTHMEASURE(250.),$);
#910= IFCPROPERTYSINGLEVALUE('Length',$,IFCLENGTHMEASURE(9980.),$);
#911= IFCPROPERTYSET('3_vxvvf4f7J88sUz$IndNN',#5,'Tekla Quantity','Quantity Properties to Shared building elements',(#903,#904,#905,#906,#907,#908,#909,#910));
#912= IFCPROPERTYSINGLEVALUE('Reference',$,IFCIDENTIFIER('5-2-P39'),$);
#913= IFCPROPERTYSET('0KL$VQgg50EwV0gZ534kL0',#5,'Pset_BeamCommon','Common Properties to beam elements',(#513,#912));
#914= IFCQUANTITYLENGTH('Length',$,$,9979.98227089298);
#915= IFCQUANTITYAREA('OuterSurfaceArea',$,$,11.7741855745198);
#916= IFCQUANTITYVOLUME('NetVolume',$,$,0.114208859038408);
#917= IFCQUANTITYWEIGHT('NetWeight',$,$,896.5395434515);
#918= IFCELEMENTQUANTITY('0XRxYYaRj08AZu6zaxPp8b',#5,'BaseQuantities',$,$,(#914,#915,#916,#917));
#919= IFCRELAGGREGATES('30Mhg9dl94B9kp4EU4wnFg',#5,$,$,#37,(#39));
#920= IFCRELAGGREGATES('2dtrFJ8zjCsete0i8dQwKA',#5,$,$,#39,(#41));
#921= IFCRELAGGREGATES('1K6QgG54X8wO3O9m0HTwbN',#5,$,$,#41,(#43));
#922= IFCRELCONTAINEDINSPATIALSTRUCTURE('3uT3VJR2n3UAuGftAUd_tp',#5,$,$,(#896,#769,#757,#714,#679,#651,#593,#552,#495,#453,#446,#439,#432,#425,#416,#407,#398,#389,#382,#375,#368,#361,#352,#343,#327,#244,#237,#159,#133),#43);
#923= IFCRELDEFINESBYPROPERTIES('1GCqJZ7hLC7u3GOeU0Hu8J',#5,$,$,(#244,#237,#159,#133),#151);
#924= IFCRELDEFINESBYPROPERTIES('1_ApOFXNT1qeueLKsYbjL1',#5,$,$,(#453,#446,#439,#432,#425,#416,#407,#398,#389,#382,#375,#368,#361,#352,#343,#327),#333);
#925= IFCRELDEFINESBYPROPERTIES('0XcjUi5Z5F$Bs_0$Xt1GWa',#5,$,$,(#552,#495),#503);
#926= IFCRELDEFINESBYPROPERTIES('3eWhp67LjDFBZitYrrATEV',#5,$,$,(#495),#512);
#927= IFCRELDEFINESBYPROPERTIES('1nbJIREE16wQ3JM6DvjCH4',#5,$,$,(#552,#495),#515);
#928= IFCRELDEFINESBYPROPERTIES('0ajH1l6IPDrBrBNlTjXPu5',#5,$,$,(#495),#522);
#929= IFCRELDEFINESBYPROPERTIES('0n3Y4bHnr3p9kSKPq9pZ_Y',#5,$,$,(#552),#557);
#930= IFCRELDEFINESBYPROPERTIES('22_nkU52jBbRWkRgfOcFJn',#5,$,$,(#552),#563);
#931= IFCRELDEFINESBYPROPERTIES('341sYu$ID8Vf6UMAA7Pl5x',#5,$,$,(#714,#593),#596);
#932= IFCRELDEFINESBYPROPERTIES('0Md4PDgQr8Ug__Ir_x3eQh',#5,$,$,(#593),#602);
#933= IFCRELDEFINESBYPROPERTIES('3_EvNq_7z7ewiwPweIp5Tq',#5,$,$,(#714,#593),#604);
#934= IFCRELDEFINESBYPROPERTIES('3UY9OM$yr8OOEVzFqZUtaM',#5,$,$,(#593),#610);
#935= IFCRELDEFINESBYPROPERTIES('0RO_Z8njn1jhSxA6NGs6b2',#5,$,$,(#769,#757,#679,#651),#655);
#936= IFCRELDEFINESBYPROPERTIES('09uT6LkTb8wP5ZbgLbrAQa',#5,$,$,(#769,#757,#679,#651),#664);
#937= IFCRELDEFINESBYPROPERTIES('1OhB56kAX2ZuLlp6ZuLOCz',#5,$,$,(#769,#757,#679,#651),#666);
#938= IFCRELDEFINESBYPROPERTIES('3sl8L$ULv1oAn6l6VqxTpc',#5,$,$,(#679,#651),#673);
#939= IFCRELDEFINESBYPROPERTIES('05dPecLYP1hBr$ZmxGW0N1',#5,$,$,(#714),#717);
#940= IFCRELDEFINESBYPROPERTIES('1TVz6Dblb4GQUZCkSAAENC',#5,$,$,(#714),#723);
#941= IFCRELDEFINESBYPROPERTIES('0NB_bQnubFu9EufB7J5MPF',#5,$,$,(#769,#757),#763);
#942= IFCRELDEFINESBYPROPERTIES('1XRX1_J4rDpAWEadeVveBz',#5,$,$,(#896),#902);
#943= IFCRELDEFINESBYPROPERTIES('2A8SvUCvPBr9v6N8Ceu1dh',#5,$,$,(#896),#911);
#944= IFCRELDEFINESBYPROPERTIES('24dryQgXHF9QZBeai3dPGf',#5,$,$,(#896),#913);
#945= IFCRELDEFINESBYPROPERTIES('1iXrsh7kT2RQYO4RNJBf7v',#5,$,$,(#896),#918);
#946= IFCRELDEFINESBYTYPE('0fwCA_mVHEi9ncy_7cY5Cq',#5,$,$,(#453,#446,#439,#432,#425,#416,#407,#398,#389,#382,#375,#368,#361,#352,#343,#327,#244,#237,#159,#133),#134);
#947= IFCRELDEFINESBYTYPE('2htb17SUT848OcLAZeFqBm',#5,$,$,(#495),#496);
#948= IFCRELDEFINESBYTYPE('3MjN_OMPP5zgnzbZVXyyUA',#5,$,$,(#552),#553);
#949= IFCRELDEFINESBYTYPE('0mSBdPKx95QAaxE5FJbaY0',#5,$,$,(#593),#594);
#950= IFCRELDEFINESBYTYPE('20daS$WN91TP8TFC0yVdgH',#5,$,$,(#769,#757,#679,#651),#652);
#951= IFCRELDEFINESBYTYPE('3wmrQcSP952ejZ_YEv1a1C',#5,$,$,(#714),#715);
#952= IFCRELDEFINESBYTYPE('3XgoZ$f0bBMe5zsJQW9LV6',#5,$,$,(#896),#897);
#953= IFCRELASSOCIATESMATERIAL('2dGZc6goP9LOsaeaHBMSH5',#5,$,$,(#244,#237,#159,#133),#152);
#954= IFCRELASSOCIATESMATERIAL('1j_VAY00v7wxmwLOfDb350',#5,$,$,(#453,#446,#439,#432,#425,#416,#407,#398,#389,#382,#375,#368,#361,#352,#343,#327),#334);
#955= IFCRELASSOCIATESMATERIAL('0sdABaLif3gAnJq5uT9qhn',#5,$,$,(#896,#769,#757,#714,#679,#651,#593,#552,#495),#523);
#956= IFCPRESENTATIONLAYERASSIGNMENT('BoltArray',$,(#126,#154,#232,#239,#320,#336,#345,#354,#363,#370,#377,#384,#391,#400,#409,#418,#427,#434,#441,#448),$);
#957= IFCPRESENTATIONLAYERASSIGNMENT('PLATE-10',$,(#488,#546,#586,#707),$);
#958= IFCPRESENTATIONLAYERASSIGNMENT('PLATE-8',$,(#645,#674,#751,#764),$);
#959= IFCPRESENTATIONLAYERASSIGNMENT('B2-\S\?\S\Z350x250x10',$,(#890),$);
ENDSEC;

END-ISO-10303-21;
