ISO-10303-21;
HEADER;
FILE_DESCRIPTION(('ViewDefinition[CoordinationView_V2.0, QuantityTakeOffAddOnView]', 'ExchangeRequirement[Structural, SurfaceGeometry]', 'Option [BaseQuantities:On]', 'Option [GridExport:On]', 'Option [Assemblies:Off]', 'Option [Bolts:On]', 'Option [Rebars:On]', 'Option [PourObjects:Off]', 'Option [Welds:Off]', 'Option [SurfaceTreatments:On]', 'Option [LocationBy:0]', 'Option [ViewColors:Off]', 'Option [SectionedSpine:Off]', 'Option [PropertySets:On]', 'Option [Export all:Off]'),'2;1');
FILE_NAME('5-2-A10_16.ifc','2026-03-10T08:04:14',('DESKTOP-NLV509P\\Ahmed'),('Structural Designer'),'IFC Parser version: 3.13.2','Tekla Structures 2023 Service Pack 8, IFC Export Version: 4.0.0.0 Jan 19 2024','');
FILE_SCHEMA(('IFC2X3'));
ENDSEC;

DATA;
#1= IFCPERSON('DESKTOP-NLV509P\\Ahmed','Undefined',$,$,$,$,$,$);
#2= IFCORGANIZATION($,'Trimble Solutions Corporation',$,$,$);
#3= IFCPERSONANDORGANIZATION(#1,#2,$);
#4= IFCAPPLICATION(#2,'2023 Service Pack 8','Tekla Structures','Multi material modeling');
#5= IFCOWNERHISTORY(#3,#4,$,.NOCHANGE.,$,$,$,1773119054);
#6= IFCCARTESIANPOINT((0.,0.,0.));
#7= IFCDIRECTION((1.,0.,0.));
#8= IFCDIRECTION((0.,1.,0.));
#9= IFCDIRECTION((0.,0.,1.));
#10= IFCAXIS2PLACEMENT3D(#6,#9,#7);
#11= IFCGEOMETRICREPRESENTATIONCONTEXT($,'Model',3,1.E-05,#10,$);
#12= IFCGEOMETRICREPRESENTATIONSUBCONTEXT('Body','Model',*,*,*,*,#11,$,.MODEL_VIEW.,$);
#13= IFCGEOMETRICREPRESENTATIONSUBCONTEXT('Axis','Model',*,*,*,*,#11,$,.GRAPH_VIEW.,$);
#14= IFCGEOMETRICREPRESENTATIONSUBCONTEXT('FootPrint','Model',*,*,*,*,#11,$,.MODEL_VIEW.,$);
#15= IFCSIUNIT(*,.LENGTHUNIT.,.MILLI.,.METRE.);
#16= IFCMEASUREWITHUNIT(IFCRATIOMEASURE(304.8),#15);
#17= IFCDIMENSIONALEXPONENTS(1,0,0,0,0,0,0);
#18= IFCCONVERSIONBASEDUNIT(#17,.LENGTHUNIT.,'FOOT',#16);
#19= IFCSIUNIT(*,.AREAUNIT.,$,.SQUARE_METRE.);
#20= IFCMEASUREWITHUNIT(IFCRATIOMEASURE(0.09290304),#19);
#21= IFCDIMENSIONALEXPONENTS(2,0,0,0,0,0,0);
#22= IFCCONVERSIONBASEDUNIT(#21,.AREAUNIT.,'SQUARE FOOT',#20);
#23= IFCSIUNIT(*,.VOLUMEUNIT.,$,.CUBIC_METRE.);
#24= IFCMEASUREWITHUNIT(IFCRATIOMEASURE(0.028316846592),#23);
#25= IFCDIMENSIONALEXPONENTS(3,0,0,0,0,0,0);
#26= IFCCONVERSIONBASEDUNIT(#25,.VOLUMEUNIT.,'CUBIC FOOT',#24);
#27= IFCSIUNIT(*,.MASSUNIT.,.KILO.,.GRAM.);
#28= IFCSIUNIT(*,.TIMEUNIT.,$,.SECOND.);
#29= IFCSIUNIT(*,.PLANEANGLEUNIT.,$,.RADIAN.);
#30= IFCMEASUREWITHUNIT(IFCRATIOMEASURE(0.0174532925199433),#29);
#31= IFCDIMENSIONALEXPONENTS(0,0,0,0,0,0,0);
#32= IFCCONVERSIONBASEDUNIT(#31,.PLANEANGLEUNIT.,'DEGREE',#30);
#33= IFCSIUNIT(*,.SOLIDANGLEUNIT.,$,.STERADIAN.);
#34= IFCSIUNIT(*,.THERMODYNAMICTEMPERATUREUNIT.,$,.DEGREE_CELSIUS.);
#35= IFCSIUNIT(*,.LUMINOUSINTENSITYUNIT.,$,.LUMEN.);
#36= IFCUNITASSIGNMENT((#15,#19,#23,#27,#28,#29,#33,#34,#35));
#37= IFCPROJECT('0Ea6w0NBj6EQRuyGV1ZhR8',#5,'Undefined',$,$,$,$,(#11),#36);
#38= IFCLOCALPLACEMENT($,#10);
#39= IFCSITE('1rLcw$uOj30AbzHDTml1R2',#5,'Undefined',$,$,#38,$,$,.ELEMENT.,$,$,$,$,$);
#40= IFCLOCALPLACEMENT(#38,#10);
#41= IFCBUILDING('0K$NamDpTC_OJFloxSE9$D',#5,'Undefined',$,$,#40,$,$,.ELEMENT.,$,$,$);
#42= IFCLOCALPLACEMENT(#40,#10);
#43= IFCBUILDINGSTOREY('3gJPpYF7LCbf7I109fNVl5',#5,'Undefined',$,$,#42,$,$,.ELEMENT.,0.);
#44= IFCOWNERHISTORY(#3,#4,$,.NOCHANGE.,$,$,$,1770796800);
#45= IFCCOLOURRGB('Light Green',0.356862745098039,0.592156862745098,0.137254901960784);
#46= IFCSURFACESTYLERENDERING(#45,0.,$,$,$,$,IFCNORMALISEDRATIOMEASURE(0.00390625),IFCSPECULAREXPONENT(10.),.NOTDEFINED.);
#47= IFCSURFACESTYLE('STEEL/S275',.POSITIVE.,(#46));
#48= IFCPRESENTATIONSTYLEASSIGNMENT((#47));
#49= IFCCARTESIANPOINT((25.988151314368,-1.5,400.003295899074));
#50= IFCCARTESIANPOINT((25.994857183103,-1.5,155.999929472673));
#51= IFCCARTESIANPOINT((25.994857183103,1.5,155.999929472673));
#52= IFCCARTESIANPOINT((25.988151314368,1.5,400.003295899074));
#53= IFCPOLYLOOP((#49,#50,#51,#52));
#54= IFCFACEOUTERBOUND(#53,.T.);
#55= IFCFACE((#54));
#56= IFCCARTESIANPOINT((26.4719137659727,-1.5,152.376465515928));
#57= IFCCARTESIANPOINT((26.4719137659727,1.5,152.376465515928));
#58= IFCPOLYLOOP((#56,#57,#51,#50));
#59= IFCFACEOUTERBOUND(#58,.T.);
#60= IFCFACE((#59));
#61= IFCCARTESIANPOINT((27.8705365212138,-1.5,148.999939428722));
#62= IFCCARTESIANPOINT((27.8705365212138,1.5,148.999939428722));
#63= IFCPOLYLOOP((#61,#62,#57,#56));
#64= IFCFACEOUTERBOUND(#63,.T.);
#65= IFCFACE((#64));
#66= IFCCARTESIANPOINT((30.09541161939,-1.5,146.100455883919));
#67= IFCCARTESIANPOINT((30.09541161939,1.5,146.100455883919));
#68= IFCPOLYLOOP((#66,#67,#62,#61));
#69= IFCFACEOUTERBOUND(#68,.T.);
#70= IFCFACE((#69));
#71= IFCCARTESIANPOINT((32.9949174993405,-1.5,143.875609893479));
#72= IFCCARTESIANPOINT((32.9949174993405,1.5,143.875609893479));
#73= IFCPOLYLOOP((#71,#72,#67,#66));
#74= IFCFACEOUTERBOUND(#73,.T.);
#75= IFCFACE((#74));
#76= IFCCARTESIANPOINT((36.3714576270065,-1.5,142.477021034916));
#77= IFCCARTESIANPOINT((36.3714576270065,1.5,142.477021034916));
#78= IFCPOLYLOOP((#76,#77,#72,#71));
#79= IFCFACEOUTERBOUND(#78,.T.);
#80= IFCFACE((#79));
#81= IFCCARTESIANPOINT((39.9949263726844,-1.5,142.000000827662));
#82= IFCCARTESIANPOINT((39.9949263726844,1.5,142.000000827662));
#83= IFCPOLYLOOP((#81,#82,#77,#76));
#84= IFCFACEOUTERBOUND(#83,.T.);
#85= IFCFACE((#84));
#86= IFCCARTESIANPOINT((43.6183903294216,-1.5,142.477057410531));
#87= IFCCARTESIANPOINT((43.6183903294216,1.5,142.477057410531));
#88= IFCPOLYLOOP((#86,#87,#82,#81));
#89= IFCFACEOUTERBOUND(#88,.T.);
#90= IFCFACE((#89));
#91= IFCCARTESIANPOINT((46.9949164166237,-1.5,143.875680165773));
#92= IFCCARTESIANPOINT((46.9949164166237,1.5,143.875680165773));
#93= IFCPOLYLOOP((#91,#92,#87,#86));
#94= IFCFACEOUTERBOUND(#93,.T.);
#95= IFCFACE((#94));
#96= IFCCARTESIANPOINT((49.894399961421,-1.5,146.100555263951));
#97= IFCCARTESIANPOINT((49.894399961421,1.5,146.100555263951));
#98= IFCPOLYLOOP((#96,#97,#92,#91));
#99= IFCFACEOUTERBOUND(#98,.T.);
#100= IFCFACE((#99));
#101= IFCCARTESIANPOINT((52.1192459518588,-1.5,149.000061143906));
#102= IFCCARTESIANPOINT((52.1192459518588,1.5,149.000061143906));
#103= IFCPOLYLOOP((#101,#102,#97,#96));
#104= IFCFACEOUTERBOUND(#103,.T.);
#105= IFCFACE((#104));
#106= IFCCARTESIANPOINT((53.5178348104212,-1.5,152.376601271575));
#107= IFCCARTESIANPOINT((53.5178348104212,1.5,152.376601271575));
#108= IFCPOLYLOOP((#106,#107,#102,#101));
#109= IFCFACEOUTERBOUND(#108,.T.);
#110= IFCFACE((#109));
#111= IFCCARTESIANPOINT((53.9948550176739,-1.5,156.000070017257));
#112= IFCCARTESIANPOINT((53.9948550176739,1.5,156.000070017257));
#113= IFCPOLYLOOP((#111,#112,#107,#106));
#114= IFCFACEOUTERBOUND(#113,.T.);
#115= IFCFACE((#114));
#116= IFCCARTESIANPOINT((53.9881599314913,-1.5,400.003375856086));
#117= IFCCARTESIANPOINT((53.9881599314913,1.5,400.003295899092));
#118= IFCPOLYLOOP((#116,#117,#112,#111));
#119= IFCFACEOUTERBOUND(#118,.T.);
#120= IFCFACE((#119));
#121= IFCCARTESIANPOINT((-4.54747350886464E-13,-1.5,3.63797880709171E-12));
#122= IFCCARTESIANPOINT((-0.0118420422445524,-1.5,400.003295899063));
#123= IFCCARTESIANPOINT((-0.0118420422445524,1.5,400.003295899063));
#124= IFCCARTESIANPOINT((-4.54747350886464E-13,1.5,3.63797880709171E-12));
#125= IFCPOLYLOOP((#121,#122,#123,#124));
#126= IFCFACEOUTERBOUND(#125,.T.);
#127= IFCFACE((#126));
#128= IFCCARTESIANPOINT((79.9999999999966,-1.5,4.72937244921923E-11));
#129= IFCCARTESIANPOINT((79.9999999999966,1.5,4.72937244921923E-11));
#130= IFCPOLYLOOP((#128,#121,#124,#129));
#131= IFCFACEOUTERBOUND(#130,.T.);
#132= IFCFACE((#131));
#133= IFCCARTESIANPOINT((79.9881591796475,-1.5,400.003295899107));
#134= IFCCARTESIANPOINT((79.9881591796475,1.5,400.003295899107));
#135= IFCPOLYLOOP((#133,#128,#129,#134));
#136= IFCFACEOUTERBOUND(#135,.T.);
#137= IFCFACE((#136));
#138= IFCPOLYLOOP((#106,#101,#96,#91,#86,#81,#76,#71,#66,#61,#56,#50,#49,#122,#121,#128,#133,#116,#111));
#139= IFCFACEOUTERBOUND(#138,.T.);
#140= IFCFACE((#139));
#141= IFCPOLYLOOP((#123,#122,#49,#52));
#142= IFCFACEOUTERBOUND(#141,.T.);
#143= IFCFACE((#142));
#144= IFCPOLYLOOP((#134,#129,#124,#123,#52,#51,#57,#62,#67,#72,#77,#82,#87,#92,#97,#102,#107,#112,#117));
#145= IFCFACEOUTERBOUND(#144,.T.);
#146= IFCFACE((#145));
#147= IFCPOLYLOOP((#133,#134,#117,#116));
#148= IFCFACEOUTERBOUND(#147,.T.);
#149= IFCFACE((#148));
#150= IFCCLOSEDSHELL((#55,#60,#65,#70,#75,#80,#85,#90,#95,#100,#105,#110,#115,#120,#127,#132,#137,#140,#143,#146,#149));
#151= IFCFACETEDBREP(#150);
#152= IFCSTYLEDITEM(#151,(#48),$);
#153= IFCSHAPEREPRESENTATION(#12,'Body','Brep',(#151));
#154= IFCPRODUCTDEFINITIONSHAPE($,$,(#153));
#155= IFCCARTESIANPOINT((1405.03503823312,26282.9850429193,16881.4901442892));
#156= IFCDIRECTION((-8.41150000269407E-05,0.999999996462333,0.));
#157= IFCDIRECTION((-0.999999996462334,-8.41150000269232E-05,0.));
#158= IFCAXIS2PLACEMENT3D(#155,#156,#157);
#159= IFCLOCALPLACEMENT(#42,#158);
#160= IFCPLATE('1jzBi87_L8IA1pssTxpv5a',#44,'PLATE-3','PL3*80',$,#159,#154,'ID6df4bb08-1fe5-4848-a073-db677bcf9164');
#161= IFCPLATETYPE('2M5ohjTvP2UfoIskiL7XHi',#5,'PL3*80',$,$,$,$,$,$,.NOTDEFINED.);
#162= IFCPROPERTYSINGLEVALUE('Bottom elevation',$,IFCLABEL(' +16.880'),$);
#163= IFCPROPERTYSINGLEVALUE('Top elevation',$,IFCLABEL(' +16.883'),$);
#164= IFCPROPERTYSINGLEVALUE('Initial GUID',$,$,$);
#165= IFCPROPERTYSINGLEVALUE('Preliminary mark',$,IFCLABEL('5-2-P14'),$);
#166= IFCPROPERTYSINGLEVALUE('Phase',$,IFCINTEGER(4),$);
#167= IFCPROPERTYSINGLEVALUE('Class',$,IFCLABEL('17'),$);
#168= IFCPROPERTYSET('05tdlzrxn0X8by2l_1mquc',#5,'Tekla Common','Common Properties to Shared building elements',(#162,#163,#164,#165,#166,#167));
#169= IFCPROPERTYSINGLEVALUE('Weight',$,IFCMASSMEASURE(0.59),$);
#170= IFCPROPERTYSINGLEVALUE('Volume',$,IFCVOLUMEMEASURE(0.),$);
#171= IFCPROPERTYSINGLEVALUE('Gross footprint area',$,IFCAREAMEASURE(0.025),$);
#172= IFCPROPERTYSINGLEVALUE('Area per tons',$,IFCAREAMEASURE(92.426),$);
#173= IFCPROPERTYSINGLEVALUE('Net surface area',$,IFCAREAMEASURE(0.054),$);
#174= IFCPROPERTYSINGLEVALUE('Height',$,IFCLENGTHMEASURE(80.),$);
#175= IFCPROPERTYSINGLEVALUE('Width',$,IFCLENGTHMEASURE(3.),$);
#176= IFCPROPERTYSINGLEVALUE('Length',$,IFCLENGTHMEASURE(400.),$);
#177= IFCPROPERTYSET('14zl9Zv1X8Vh91meiOjLWp',#5,'Tekla Quantity','Quantity Properties to Shared building elements',(#169,#170,#171,#172,#173,#174,#175,#176));
#178= IFCPROPERTYSINGLEVALUE('LoadBearing',$,IFCBOOLEAN(.F.),$);
#179= IFCPROPERTYSINGLEVALUE('Reference',$,IFCIDENTIFIER('5-2-P14'),$);
#180= IFCPROPERTYSET('0GptPc3Uv52RL4l8eTgabP',#5,'Pset_PlateCommon','Common Properties to plate elements',(#178,#179));
#181= IFCQUANTITYLENGTH('Width',$,$,80.0000011868355);
#182= IFCQUANTITYAREA('NetArea',$,$,0.0541192104552167);
#183= IFCQUANTITYAREA('GrossArea',$,$,0.0320004536318415);
#184= IFCQUANTITYAREA('CrossSectionArea',$,$,9.E-06);
#185= IFCQUANTITYVOLUME('NetVolume',$,$,7.45914000980841E-05);
#186= IFCQUANTITYVOLUME('GrossVolume',$,$,9.60007917487681E-05);
#187= IFCELEMENTQUANTITY('3$yLPelh5Apwq3Gzu2Km54',#5,'BaseQuantities',$,$,(#181,#182,#183,#184,#185,#186));
#188= IFCMATERIAL('STEEL/S275');
#189= IFCRELAGGREGATES('3ySU0IG5z54eGSGqqSmQLc',#5,$,$,#37,(#39));
#190= IFCRELAGGREGATES('1VrsGO$rLFfeDaunYq_hMo',#5,$,$,#39,(#41));
#191= IFCRELAGGREGATES('3PNfCals9Cev4wXFAzkLYw',#5,$,$,#41,(#43));
#192= IFCRELCONTAINEDINSPATIALSTRUCTURE('2GYr1NW$rCGBFbFF9FRVVa',#5,$,$,(#160),#43);
#193= IFCRELDEFINESBYPROPERTIES('23Ug2SeLHEDg$VYVYZ4Q$a',#5,$,$,(#160),#168);
#194= IFCRELDEFINESBYPROPERTIES('0X2Bjgsuj1t8yLNdfeYBoG',#5,$,$,(#160),#177);
#195= IFCRELDEFINESBYPROPERTIES('0jFGhYjK5DeQfSxfJM0Tjy',#5,$,$,(#160),#180);
#196= IFCRELDEFINESBYPROPERTIES('3oQ6fxic9B6Be_V_QyX8tv',#5,$,$,(#160),#187);
#197= IFCRELDEFINESBYTYPE('14AUjjFiH4OQ7Cy1WT1W3z',#5,$,$,(#160),#161);
#198= IFCRELASSOCIATESMATERIAL('34549fZRD3zPQpy9qMWMN7',#5,$,$,(#160),#188);
#199= IFCPRESENTATIONLAYERASSIGNMENT('PLATE-3',$,(#153),$);
ENDSEC;

END-ISO-10303-21;
