ISO-10303-21;
HEADER;
FILE_DESCRIPTION(('ViewDefinition[CoordinationView_V2.0, QuantityTakeOffAddOnView]', 'ExchangeRequirement[Structural, SurfaceGeometry]', 'Option [BaseQuantities:On]', 'Option [GridExport:On]', 'Option [Assemblies:Off]', 'Option [Bolts:On]', 'Option [Rebars:On]', 'Option [PourObjects:Off]', 'Option [Welds:Off]', 'Option [SurfaceTreatments:On]', 'Option [LocationBy:0]', 'Option [ViewColors:Off]', 'Option [SectionedSpine:Off]', 'Option [PropertySets:On]', 'Option [Export all:Off]'),'2;1');
FILE_NAME('5-2-A18_144.ifc','2026-03-10T08:04:11',('DESKTOP-NLV509P\\Ahmed'),('Structural Designer'),'IFC Parser version: 3.13.2','Tekla Structures 2023 Service Pack 8, IFC Export Version: 4.0.0.0 Jan 19 2024','');
FILE_SCHEMA(('IFC2X3'));
ENDSEC;

DATA;
#1= IFCPERSON('DESKTOP-NLV509P\\Ahmed','Undefined',$,$,$,$,$,$);
#2= IFCORGANIZATION($,'Trimble Solutions Corporation',$,$,$);
#3= IFCPERSONANDORGANIZATION(#1,#2,$);
#4= IFCAPPLICATION(#2,'2023 Service Pack 8','Tekla Structures','Multi material modeling');
#5= IFCOWNERHISTORY(#3,#4,$,.NOCHANGE.,$,$,$,1773119051);
#6= IFCCARTESIANPOINT((0.,0.,0.));
#7= IFCDIRECTION((1.,0.,0.));
#8= IFCDIRECTION((0.,1.,0.));
#9= IFCDIRECTION((0.,0.,1.));
#10= IFCAXIS2PLACEMENT3D(#6,#9,#7);
#11= IFCGEOMETRICREPRESENTATIONCONTEXT($,'Model',3,1.E-05,#10,$);
#12= IFCGEOMETRICREPRESENTATIONSUBCONTEXT('Body','Model',*,*,*,*,#11,$,.MODEL_VIEW.,$);
#13= IFCGEOMETRICREPRESENTATIONSUBCONTEXT('Axis','Model',*,*,*,*,#11,$,.GRAPH_VIEW.,$);
#14= IFCGEOMETRICREPRESENTATIONSUBCONTEXT('FootPrint','Model',*,*,*,*,#11,$,.MODEL_VIEW.,$);
#15= IFCSIUNIT(*,.LENGTHUNIT.,.MILLI.,.METRE.);
#16= IFCMEASUREWITHUNIT(IFCRATIOMEASURE(304.8),#15);
#17= IFCDIMENSIONALEXPONENTS(1,0,0,0,0,0,0);
#18= IFCCONVERSIONBASEDUNIT(#17,.LENGTHUNIT.,'FOOT',#16);
#19= IFCSIUNIT(*,.AREAUNIT.,$,.SQUARE_METRE.);
#20= IFCMEASUREWITHUNIT(IFCRATIOMEASURE(0.09290304),#19);
#21= IFCDIMENSIONALEXPONENTS(2,0,0,0,0,0,0);
#22= IFCCONVERSIONBASEDUNIT(#21,.AREAUNIT.,'SQUARE FOOT',#20);
#23= IFCSIUNIT(*,.VOLUMEUNIT.,$,.CUBIC_METRE.);
#24= IFCMEASUREWITHUNIT(IFCRATIOMEASURE(0.028316846592),#23);
#25= IFCDIMENSIONALEXPONENTS(3,0,0,0,0,0,0);
#26= IFCCONVERSIONBASEDUNIT(#25,.VOLUMEUNIT.,'CUBIC FOOT',#24);
#27= IFCSIUNIT(*,.MASSUNIT.,.KILO.,.GRAM.);
#28= IFCSIUNIT(*,.TIMEUNIT.,$,.SECOND.);
#29= IFCSIUNIT(*,.PLANEANGLEUNIT.,$,.RADIAN.);
#30= IFCMEASUREWITHUNIT(IFCRATIOMEASURE(0.0174532925199433),#29);
#31= IFCDIMENSIONALEXPONENTS(0,0,0,0,0,0,0);
#32= IFCCONVERSIONBASEDUNIT(#31,.PLANEANGLEUNIT.,'DEGREE',#30);
#33= IFCSIUNIT(*,.SOLIDANGLEUNIT.,$,.STERADIAN.);
#34= IFCSIUNIT(*,.THERMODYNAMICTEMPERATUREUNIT.,$,.DEGREE_CELSIUS.);
#35= IFCSIUNIT(*,.LUMINOUSINTENSITYUNIT.,$,.LUMEN.);
#36= IFCUNITASSIGNMENT((#15,#19,#23,#27,#28,#29,#33,#34,#35));
#37= IFCPROJECT('1JeRsrj0r0ieAl1ciW1qs4',#5,'Undefined',$,$,$,$,(#11),#36);
#38= IFCLOCALPLACEMENT($,#10);
#39= IFCSITE('2ZvHE8wjD7fBO$EAalfrUJ',#5,'Undefined',$,$,#38,$,$,.ELEMENT.,$,$,$,$,$);
#40= IFCLOCALPLACEMENT(#38,#10);
#41= IFCBUILDING('2gk7hmf21FXfhUiolpJO71',#5,'Undefined',$,$,#40,$,$,.ELEMENT.,$,$,$);
#42= IFCLOCALPLACEMENT(#40,#10);
#43= IFCBUILDINGSTOREY('3gJPpYF7LCbf7I109fNVl5',#5,'Undefined',$,$,#42,$,$,.ELEMENT.,0.);
#44= IFCOWNERHISTORY(#3,#4,$,.NOCHANGE.,$,$,$,1770796800);
#45= IFCCOLOURRGB($,0.698039215686274,0.4,0.);
#46= IFCSURFACESTYLERENDERING(#45,0.,$,$,$,$,IFCNORMALISEDRATIOMEASURE(0.00390625),IFCSPECULAREXPONENT(10.),.NOTDEFINED.);
#47= IFCSURFACESTYLE('TS10.9',.POSITIVE.,(#46));
#48= IFCPRESENTATIONSTYLEASSIGNMENT((#47));
#49= IFCCARTESIANPOINT((13.,-11.8959984420093,0.));
#50= IFCCARTESIANPOINT((11.2583302491975,-11.8959984420093,6.50000000000039));
#51= IFCCARTESIANPOINT((6.49999999999922,-11.8959984420093,11.2583302491982));
#52= IFCCARTESIANPOINT((-1.34723677608042E-12,-11.8959984420093,13.));
#53= IFCCARTESIANPOINT((-6.50000000000155,-11.8959984420093,11.2583302491968));
#54= IFCCARTESIANPOINT((-11.2583302491988,-11.8959984420093,6.49999999999806));
#55= IFCCARTESIANPOINT((-13.,-11.8959984420093,-2.69447355216084E-12));
#56= IFCCARTESIANPOINT((-11.2583302491961,-11.8959984420093,-6.50000000000272));
#57= IFCCARTESIANPOINT((-6.4999999999969,-11.8959984420093,-11.2583302491995));
#58= IFCCARTESIANPOINT((4.02727742892113E-12,-11.8959984420093,-13.));
#59= IFCCARTESIANPOINT((6.50000000000388,-11.8959984420093,-11.2583302491955));
#60= IFCCARTESIANPOINT((11.2583302492002,-11.8959984420093,-6.49999999999573));
#61= IFCCARTESIANPOINT((13.,0.104001557990705,0.));
#62= IFCCARTESIANPOINT((11.2583302491975,0.104001557990705,6.50000000000039));
#63= IFCCARTESIANPOINT((6.49999999999922,0.104001557990705,11.2583302491982));
#64= IFCCARTESIANPOINT((-1.34723677608042E-12,0.104001557990705,13.));
#65= IFCCARTESIANPOINT((-6.50000000000155,0.104001557990705,11.2583302491968));
#66= IFCCARTESIANPOINT((-11.2583302491988,0.104001557990705,6.49999999999806));
#67= IFCCARTESIANPOINT((-13.,0.104001557990705,-2.69447355216084E-12));
#68= IFCCARTESIANPOINT((-11.2583302491961,0.104001557990705,-6.50000000000272));
#69= IFCCARTESIANPOINT((-6.4999999999969,0.104001557990705,-11.2583302491995));
#70= IFCCARTESIANPOINT((4.02727742892113E-12,0.104001557990705,-13.));
#71= IFCCARTESIANPOINT((6.50000000000388,0.104001557990705,-11.2583302491955));
#72= IFCCARTESIANPOINT((11.2583302492002,0.104001557990705,-6.49999999999573));
#73= IFCPOLYLOOP((#49,#50,#51,#52,#53,#54,#55,#56,#57,#58,#59,#60));
#74= IFCFACEOUTERBOUND(#73,.T.);
#75= IFCFACE((#74));
#76= IFCPOLYLOOP((#72,#71,#70,#69,#68,#67,#66,#65,#64,#63,#62,#61));
#77= IFCFACEOUTERBOUND(#76,.T.);
#78= IFCFACE((#77));
#79= IFCPOLYLOOP((#49,#61,#62,#50));
#80= IFCFACEOUTERBOUND(#79,.T.);
#81= IFCFACE((#80));
#82= IFCPOLYLOOP((#50,#62,#63,#51));
#83= IFCFACEOUTERBOUND(#82,.T.);
#84= IFCFACE((#83));
#85= IFCPOLYLOOP((#51,#63,#64,#52));
#86= IFCFACEOUTERBOUND(#85,.T.);
#87= IFCFACE((#86));
#88= IFCPOLYLOOP((#52,#64,#65,#53));
#89= IFCFACEOUTERBOUND(#88,.T.);
#90= IFCFACE((#89));
#91= IFCPOLYLOOP((#53,#65,#66,#54));
#92= IFCFACEOUTERBOUND(#91,.T.);
#93= IFCFACE((#92));
#94= IFCPOLYLOOP((#54,#66,#67,#55));
#95= IFCFACEOUTERBOUND(#94,.T.);
#96= IFCFACE((#95));
#97= IFCPOLYLOOP((#55,#67,#68,#56));
#98= IFCFACEOUTERBOUND(#97,.T.);
#99= IFCFACE((#98));
#100= IFCPOLYLOOP((#56,#68,#69,#57));
#101= IFCFACEOUTERBOUND(#100,.T.);
#102= IFCFACE((#101));
#103= IFCPOLYLOOP((#57,#69,#70,#58));
#104= IFCFACEOUTERBOUND(#103,.T.);
#105= IFCFACE((#104));
#106= IFCPOLYLOOP((#58,#70,#71,#59));
#107= IFCFACEOUTERBOUND(#106,.T.);
#108= IFCFACE((#107));
#109= IFCPOLYLOOP((#59,#71,#72,#60));
#110= IFCFACEOUTERBOUND(#109,.T.);
#111= IFCFACE((#110));
#112= IFCPOLYLOOP((#60,#72,#61,#49));
#113= IFCFACEOUTERBOUND(#112,.T.);
#114= IFCFACE((#113));
#115= IFCCARTESIANPOINT((13.,0.00400160246135783,22.));
#116= IFCCARTESIANPOINT((12.0104339226466,0.00400160246135783,26.9748846207465));
#117= IFCCARTESIANPOINT((9.19238815542464,0.00400160246135783,31.1923881554256));
#118= IFCCARTESIANPOINT((4.97488462074523,0.00400160246135783,34.0104339226471));
#119= IFCCARTESIANPOINT((-1.34723677608042E-12,0.00400160246135783,35.));
#120= IFCCARTESIANPOINT((-6.50000000000155,0.00400160246135783,33.2583302491968));
#121= IFCCARTESIANPOINT((-11.2583302491988,0.00400160246135783,28.4999999999981));
#122= IFCCARTESIANPOINT((-13.,0.00400160246135783,21.9999999999973));
#123= IFCCARTESIANPOINT((-13.,0.00400160246135783,-22.0000000000027));
#124= IFCCARTESIANPOINT((-11.2583302491961,0.00400160246135783,-28.5000000000027));
#125= IFCCARTESIANPOINT((-6.4999999999969,0.00400160246135783,-33.2583302491995));
#126= IFCCARTESIANPOINT((4.02727742892113E-12,0.00400160246135783,-35.));
#127= IFCCARTESIANPOINT((6.50000000000388,0.00400160246135783,-33.2583302491955));
#128= IFCCARTESIANPOINT((11.2583302492002,0.00400160246135783,-28.4999999999957));
#129= IFCCARTESIANPOINT((13.,0.00400160246135783,-21.9999999999946));
#130= IFCCARTESIANPOINT((13.,18.0040016024614,22.));
#131= IFCCARTESIANPOINT((12.0104339226466,18.0040016024614,26.9748846207465));
#132= IFCCARTESIANPOINT((9.19238815542464,18.0040016024614,31.1923881554256));
#133= IFCCARTESIANPOINT((4.97488462074523,18.0040016024614,34.0104339226471));
#134= IFCCARTESIANPOINT((-1.34723677608042E-12,18.0040016024614,35.));
#135= IFCCARTESIANPOINT((-6.50000000000155,18.0040016024614,33.2583302491968));
#136= IFCCARTESIANPOINT((-11.2583302491988,18.0040016024614,28.4999999999981));
#137= IFCCARTESIANPOINT((-13.,18.0040016024614,21.9999999999973));
#138= IFCCARTESIANPOINT((-13.,18.0040016024614,-22.0000000000027));
#139= IFCCARTESIANPOINT((-11.2583302491961,18.0040016024614,-28.5000000000027));
#140= IFCCARTESIANPOINT((-6.4999999999969,18.0040016024614,-33.2583302491995));
#141= IFCCARTESIANPOINT((4.02727742892113E-12,18.0040016024614,-35.));
#142= IFCCARTESIANPOINT((6.50000000000388,18.0040016024614,-33.2583302491955));
#143= IFCCARTESIANPOINT((11.2583302492002,18.0040016024614,-28.4999999999957));
#144= IFCCARTESIANPOINT((13.,18.0040016024614,-21.9999999999946));
#145= IFCPOLYLOOP((#115,#116,#117,#119,#120,#121,#122,#123,#124,#125,#126,#127,#128,#129));
#146= IFCFACEOUTERBOUND(#145,.T.);
#147= IFCFACE((#146));
#148= IFCPOLYLOOP((#144,#143,#142,#141,#140,#139,#138,#137,#136,#135,#134,#133,#132,#131,#130));
#149= IFCFACEOUTERBOUND(#148,.T.);
#150= IFCFACE((#149));
#151= IFCPOLYLOOP((#115,#130,#131,#116));
#152= IFCFACEOUTERBOUND(#151,.T.);
#153= IFCFACE((#152));
#154= IFCPOLYLOOP((#116,#131,#132,#117));
#155= IFCFACEOUTERBOUND(#154,.T.);
#156= IFCFACE((#155));
#157= IFCPOLYLOOP((#117,#132,#133,#118));
#158= IFCFACEOUTERBOUND(#157,.T.);
#159= IFCFACE((#158));
#160= IFCPOLYLOOP((#118,#133,#134,#119));
#161= IFCFACEOUTERBOUND(#160,.T.);
#162= IFCFACE((#161));
#163= IFCPOLYLOOP((#119,#134,#135,#120));
#164= IFCFACEOUTERBOUND(#163,.T.);
#165= IFCFACE((#164));
#166= IFCPOLYLOOP((#120,#135,#136,#121));
#167= IFCFACEOUTERBOUND(#166,.T.);
#168= IFCFACE((#167));
#169= IFCPOLYLOOP((#121,#136,#137,#122));
#170= IFCFACEOUTERBOUND(#169,.T.);
#171= IFCFACE((#170));
#172= IFCPOLYLOOP((#122,#137,#138,#123));
#173= IFCFACEOUTERBOUND(#172,.T.);
#174= IFCFACE((#173));
#175= IFCPOLYLOOP((#123,#138,#139,#124));
#176= IFCFACEOUTERBOUND(#175,.T.);
#177= IFCFACE((#176));
#178= IFCPOLYLOOP((#124,#139,#140,#125));
#179= IFCFACEOUTERBOUND(#178,.T.);
#180= IFCFACE((#179));
#181= IFCPOLYLOOP((#125,#140,#141,#126));
#182= IFCFACEOUTERBOUND(#181,.T.);
#183= IFCFACE((#182));
#184= IFCPOLYLOOP((#126,#141,#142,#127));
#185= IFCFACEOUTERBOUND(#184,.T.);
#186= IFCFACE((#185));
#187= IFCPOLYLOOP((#127,#142,#143,#128));
#188= IFCFACEOUTERBOUND(#187,.T.);
#189= IFCFACE((#188));
#190= IFCPOLYLOOP((#128,#143,#144,#129));
#191= IFCFACEOUTERBOUND(#190,.T.);
#192= IFCFACE((#191));
#193= IFCPOLYLOOP((#129,#144,#130,#115));
#194= IFCFACEOUTERBOUND(#193,.T.);
#195= IFCFACE((#194));
#196= IFCCARTESIANPOINT((13.,274.004001603251,22.));
#197= IFCCARTESIANPOINT((12.0104339226466,274.004001603251,26.9748846207465));
#198= IFCCARTESIANPOINT((9.19238815542464,274.004001603251,31.1923881554256));
#199= IFCCARTESIANPOINT((4.97488462074523,274.004001603251,34.0104339226471));
#200= IFCCARTESIANPOINT((-1.34723677608042E-12,274.004001603251,35.));
#201= IFCCARTESIANPOINT((-6.50000000000155,274.004001603251,33.2583302491968));
#202= IFCCARTESIANPOINT((-11.2583302491988,274.004001603251,28.4999999999981));
#203= IFCCARTESIANPOINT((-13.,274.004001603251,21.9999999999973));
#204= IFCCARTESIANPOINT((-13.,274.004001603251,-22.0000000000027));
#205= IFCCARTESIANPOINT((-11.2583302491961,274.004001603251,-28.5000000000027));
#206= IFCCARTESIANPOINT((-6.4999999999969,274.004001603251,-33.2583302491995));
#207= IFCCARTESIANPOINT((4.02727742892113E-12,274.004001603251,-35.));
#208= IFCCARTESIANPOINT((6.50000000000388,274.004001603251,-33.2583302491955));
#209= IFCCARTESIANPOINT((11.2583302492002,274.004001603251,-28.4999999999957));
#210= IFCCARTESIANPOINT((13.,274.004001603251,-21.9999999999946));
#211= IFCCARTESIANPOINT((13.,292.004001603251,22.));
#212= IFCCARTESIANPOINT((12.0104339226466,292.004001603251,26.9748846207465));
#213= IFCCARTESIANPOINT((9.19238815542464,292.004001603251,31.1923881554256));
#214= IFCCARTESIANPOINT((4.97488462074523,292.004001603251,34.0104339226471));
#215= IFCCARTESIANPOINT((-1.34723677608042E-12,292.004001603251,35.));
#216= IFCCARTESIANPOINT((-6.50000000000155,292.004001603251,33.2583302491968));
#217= IFCCARTESIANPOINT((-11.2583302491988,292.004001603251,28.4999999999981));
#218= IFCCARTESIANPOINT((-13.,292.004001603251,21.9999999999973));
#219= IFCCARTESIANPOINT((-13.,292.004001603251,-22.0000000000027));
#220= IFCCARTESIANPOINT((-11.2583302491961,292.004001603251,-28.5000000000027));
#221= IFCCARTESIANPOINT((-6.4999999999969,292.004001603251,-33.2583302491995));
#222= IFCCARTESIANPOINT((4.02727742892113E-12,292.004001603251,-35.));
#223= IFCCARTESIANPOINT((6.50000000000388,292.004001603251,-33.2583302491955));
#224= IFCCARTESIANPOINT((11.2583302492002,292.004001603251,-28.4999999999957));
#225= IFCCARTESIANPOINT((13.,292.004001603251,-21.9999999999946));
#226= IFCPOLYLOOP((#196,#197,#198,#200,#201,#202,#203,#204,#205,#206,#207,#208,#209,#210));
#227= IFCFACEOUTERBOUND(#226,.T.);
#228= IFCFACE((#227));
#229= IFCPOLYLOOP((#225,#224,#223,#222,#221,#220,#219,#218,#217,#216,#215,#214,#213,#212,#211));
#230= IFCFACEOUTERBOUND(#229,.T.);
#231= IFCFACE((#230));
#232= IFCPOLYLOOP((#196,#211,#212,#197));
#233= IFCFACEOUTERBOUND(#232,.T.);
#234= IFCFACE((#233));
#235= IFCPOLYLOOP((#197,#212,#213,#198));
#236= IFCFACEOUTERBOUND(#235,.T.);
#237= IFCFACE((#236));
#238= IFCPOLYLOOP((#198,#213,#214,#199));
#239= IFCFACEOUTERBOUND(#238,.T.);
#240= IFCFACE((#239));
#241= IFCPOLYLOOP((#199,#214,#215,#200));
#242= IFCFACEOUTERBOUND(#241,.T.);
#243= IFCFACE((#242));
#244= IFCPOLYLOOP((#200,#215,#216,#201));
#245= IFCFACEOUTERBOUND(#244,.T.);
#246= IFCFACE((#245));
#247= IFCPOLYLOOP((#201,#216,#217,#202));
#248= IFCFACEOUTERBOUND(#247,.T.);
#249= IFCFACE((#248));
#250= IFCPOLYLOOP((#202,#217,#218,#203));
#251= IFCFACEOUTERBOUND(#250,.T.);
#252= IFCFACE((#251));
#253= IFCPOLYLOOP((#203,#218,#219,#204));
#254= IFCFACEOUTERBOUND(#253,.T.);
#255= IFCFACE((#254));
#256= IFCPOLYLOOP((#204,#219,#220,#205));
#257= IFCFACEOUTERBOUND(#256,.T.);
#258= IFCFACE((#257));
#259= IFCPOLYLOOP((#205,#220,#221,#206));
#260= IFCFACEOUTERBOUND(#259,.T.);
#261= IFCFACE((#260));
#262= IFCPOLYLOOP((#206,#221,#222,#207));
#263= IFCFACEOUTERBOUND(#262,.T.);
#264= IFCFACE((#263));
#265= IFCPOLYLOOP((#207,#222,#223,#208));
#266= IFCFACEOUTERBOUND(#265,.T.);
#267= IFCFACE((#266));
#268= IFCPOLYLOOP((#208,#223,#224,#209));
#269= IFCFACEOUTERBOUND(#268,.T.);
#270= IFCFACE((#269));
#271= IFCPOLYLOOP((#209,#224,#225,#210));
#272= IFCFACEOUTERBOUND(#271,.T.);
#273= IFCFACE((#272));
#274= IFCPOLYLOOP((#210,#225,#211,#196));
#275= IFCFACEOUTERBOUND(#274,.T.);
#276= IFCFACE((#275));
#277= IFCCARTESIANPOINT((13.,291.904001558427,0.));
#278= IFCCARTESIANPOINT((11.2583302491975,291.904001558427,6.50000000000039));
#279= IFCCARTESIANPOINT((6.49999999999922,291.904001558427,11.2583302491982));
#280= IFCCARTESIANPOINT((-1.34723677608042E-12,291.904001558427,13.));
#281= IFCCARTESIANPOINT((-6.50000000000155,291.904001558427,11.2583302491968));
#282= IFCCARTESIANPOINT((-11.2583302491988,291.904001558427,6.49999999999806));
#283= IFCCARTESIANPOINT((-13.,291.904001558427,-2.69447355216084E-12));
#284= IFCCARTESIANPOINT((-11.2583302491961,291.904001558427,-6.50000000000272));
#285= IFCCARTESIANPOINT((-6.4999999999969,291.904001558427,-11.2583302491995));
#286= IFCCARTESIANPOINT((4.02727742892113E-12,291.904001558427,-13.));
#287= IFCCARTESIANPOINT((6.50000000000388,291.904001558427,-11.2583302491955));
#288= IFCCARTESIANPOINT((11.2583302492002,291.904001558427,-6.49999999999573));
#289= IFCCARTESIANPOINT((13.,304.004001558427,0.));
#290= IFCCARTESIANPOINT((11.2583302491975,304.004001558427,6.50000000000039));
#291= IFCCARTESIANPOINT((6.49999999999922,304.004001558427,11.2583302491982));
#292= IFCCARTESIANPOINT((-1.34723677608042E-12,304.004001558427,13.));
#293= IFCCARTESIANPOINT((-6.50000000000155,304.004001558427,11.2583302491968));
#294= IFCCARTESIANPOINT((-11.2583302491988,304.004001558427,6.49999999999806));
#295= IFCCARTESIANPOINT((-13.,304.004001558427,-2.69447355216084E-12));
#296= IFCCARTESIANPOINT((-11.2583302491961,304.004001558427,-6.50000000000272));
#297= IFCCARTESIANPOINT((-6.4999999999969,304.004001558427,-11.2583302491995));
#298= IFCCARTESIANPOINT((4.02727742892113E-12,304.004001558427,-13.));
#299= IFCCARTESIANPOINT((6.50000000000388,304.004001558427,-11.2583302491955));
#300= IFCCARTESIANPOINT((11.2583302492002,304.004001558427,-6.49999999999573));
#301= IFCPOLYLOOP((#277,#278,#279,#280,#281,#282,#283,#284,#285,#286,#287,#288));
#302= IFCFACEOUTERBOUND(#301,.T.);
#303= IFCFACE((#302));
#304= IFCPOLYLOOP((#300,#299,#298,#297,#296,#295,#294,#293,#292,#291,#290,#289));
#305= IFCFACEOUTERBOUND(#304,.T.);
#306= IFCFACE((#305));
#307= IFCPOLYLOOP((#277,#289,#290,#278));
#308= IFCFACEOUTERBOUND(#307,.T.);
#309= IFCFACE((#308));
#310= IFCPOLYLOOP((#278,#290,#291,#279));
#311= IFCFACEOUTERBOUND(#310,.T.);
#312= IFCFACE((#311));
#313= IFCPOLYLOOP((#279,#291,#292,#280));
#314= IFCFACEOUTERBOUND(#313,.T.);
#315= IFCFACE((#314));
#316= IFCPOLYLOOP((#280,#292,#293,#281));
#317= IFCFACEOUTERBOUND(#316,.T.);
#318= IFCFACE((#317));
#319= IFCPOLYLOOP((#281,#293,#294,#282));
#320= IFCFACEOUTERBOUND(#319,.T.);
#321= IFCFACE((#320));
#322= IFCPOLYLOOP((#282,#294,#295,#283));
#323= IFCFACEOUTERBOUND(#322,.T.);
#324= IFCFACE((#323));
#325= IFCPOLYLOOP((#283,#295,#296,#284));
#326= IFCFACEOUTERBOUND(#325,.T.);
#327= IFCFACE((#326));
#328= IFCPOLYLOOP((#284,#296,#297,#285));
#329= IFCFACEOUTERBOUND(#328,.T.);
#330= IFCFACE((#329));
#331= IFCPOLYLOOP((#285,#297,#298,#286));
#332= IFCFACEOUTERBOUND(#331,.T.);
#333= IFCFACE((#332));
#334= IFCPOLYLOOP((#286,#298,#299,#287));
#335= IFCFACEOUTERBOUND(#334,.T.);
#336= IFCFACE((#335));
#337= IFCPOLYLOOP((#287,#299,#300,#288));
#338= IFCFACEOUTERBOUND(#337,.T.);
#339= IFCFACE((#338));
#340= IFCPOLYLOOP((#288,#300,#289,#277));
#341= IFCFACEOUTERBOUND(#340,.T.);
#342= IFCFACE((#341));
#343= IFCCLOSEDSHELL((#75,#78,#81,#84,#87,#90,#93,#96,#99,#102,#105,#108,#111,#114,#147,#150,#153,#156,#159,#162,#165,#168,#171,#174,#177,#180,#183,#186,#189,#192,#195,#228,#231,#234,#237,#240,#243,#246,#249,#252,#255,#258,#261,#264,#267,#270,#273,#276,#303,#306,#309,#312,#315,#318,#321,#324,#327,#330,#333,#336,#339,#342));
#344= IFCCOLOURRGB($,0.,0.,0.);
#345= IFCSURFACESTYLERENDERING(#344,0.,$,$,$,$,IFCNORMALISEDRATIOMEASURE(0.00390625),IFCSPECULAREXPONENT(10.),.NOTDEFINED.);
#346= IFCSURFACESTYLE($,.POSITIVE.,(#345));
#347= IFCPRESENTATIONSTYLEASSIGNMENT((#346));
#348= IFCFACETEDBREP(#343);
#349= IFCSTYLEDITEM(#348,(#347),$);
#350= IFCCARTESIANPOINT((0.,0.,-74.99999999992));
#351= IFCCARTESIANTRANSFORMATIONOPERATOR3D($,$,#350,$,$);
#352= IFCSHAPEREPRESENTATION(#12,'Body','Brep',(#348));
#353= IFCREPRESENTATIONMAP(#10,#352);
#354= IFCMAPPEDITEM(#353,#351);
#355= IFCCARTESIANPOINT((159.999999999978,0.,-75.));
#356= IFCCARTESIANTRANSFORMATIONOPERATOR3D($,$,#355,$,$);
#357= IFCMAPPEDITEM(#353,#356);
#358= IFCCARTESIANPOINT((319.999999999955,0.,-75.0000000000728));
#359= IFCCARTESIANTRANSFORMATIONOPERATOR3D($,$,#358,$,$);
#360= IFCMAPPEDITEM(#353,#359);
#361= IFCCARTESIANPOINT((-4.54747350886464E-13,0.,74.99999999992));
#362= IFCCARTESIANTRANSFORMATIONOPERATOR3D($,$,#361,$,$);
#363= IFCMAPPEDITEM(#353,#362);
#364= IFCCARTESIANPOINT((159.999999999978,0.,74.9999999998399));
#365= IFCCARTESIANTRANSFORMATIONOPERATOR3D($,$,#364,$,$);
#366= IFCMAPPEDITEM(#353,#365);
#367= IFCCARTESIANPOINT((319.999999999955,0.,74.9999999997672));
#368= IFCCARTESIANTRANSFORMATIONOPERATOR3D($,$,#367,$,$);
#369= IFCMAPPEDITEM(#353,#368);
#370= IFCSHAPEREPRESENTATION(#12,'Body','MappedRepresentation',(#354,#357,#360,#363,#366,#369));
#371= IFCPRODUCTDEFINITIONSHAPE($,$,(#370));
#372= IFCCARTESIANPOINT((57089.9786267126,-3146.99161630676,16904.0041160183));
#373= IFCDIRECTION((0.999999997446663,7.14610000395623E-05,0.));
#374= IFCDIRECTION((7.14610000396239E-05,-0.999999997446663,0.));
#375= IFCAXIS2PLACEMENT3D(#372,#373,#374);
#376= IFCLOCALPLACEMENT(#42,#375);
#377= IFCMECHANICALFASTENER('3vvJA3kC92sw3Ha$dQbSDj',#44,'Bolt assembly',$,$,#376,#371,'IDf9e53283-b8c2-42db-a0d1-93f9da95c36d',24.,100.);
#378= IFCMECHANICALFASTENERTYPE('0zkd7VSAPFcAvIppKbmY4a',#5,'Bolt assembly',$,$,$,$,$,$);
#379= IFCPROPERTYSINGLEVALUE('Washer count',$,IFCINTEGER(0),$);
#380= IFCPROPERTYSINGLEVALUE('Washer diameter',$,IFCLENGTHMEASURE(24.),$);
#381= IFCPROPERTYSINGLEVALUE('Washer type',$,IFCLABEL(''),$);
#382= IFCPROPERTYSINGLEVALUE('Washer name',$,IFCLABEL(''),$);
#383= IFCPROPERTYSINGLEVALUE('Nut count',$,IFCINTEGER(0),$);
#384= IFCPROPERTYSINGLEVALUE('Nut type',$,IFCLABEL(''),$);
#385= IFCPROPERTYSINGLEVALUE('Nut name',$,IFCLABEL(''),$);
#386= IFCPROPERTYSINGLEVALUE('Slotted hole y',$,IFCLENGTHMEASURE(44.),$);
#387= IFCPROPERTYSINGLEVALUE('Slotted hole x',$,IFCLENGTHMEASURE(0.),$);
#388= IFCPROPERTYSINGLEVALUE('Bolt hole diameter',$,IFCLENGTHMEASURE(26.),$);
#389= IFCPROPERTYSINGLEVALUE('Location',$,IFCLABEL('Site'),$);
#390= IFCPROPERTYSINGLEVALUE('Bolt count',$,IFCINTEGER(6),$);
#391= IFCPROPERTYSINGLEVALUE('Bolt size',$,IFCLENGTHMEASURE(26.),$);
#392= IFCPROPERTYSINGLEVALUE('Bolt length',$,IFCLENGTHMEASURE(100.),$);
#393= IFCPROPERTYSINGLEVALUE('Bolt standard',$,IFCLABEL('TS10.9'),$);
#394= IFCPROPERTYSINGLEVALUE('Bolt Name',$,IFCLABEL(''),$);
#395= IFCPROPERTYSET('3vgc$iJdL0E8rM4kZg2_vS',#5,'Tekla Bolt','Bolt Properties',(#379,#380,#381,#382,#383,#384,#385,#386,#387,#388,#389,#390,#391,#392,#393,#394));
#396= IFCMATERIAL('TS10.9');
#397= IFCCOLOURRGB('Light Red',0.905882352941176,0.325490196078431,0.36078431372549);
#398= IFCSURFACESTYLERENDERING(#397,0.,$,$,$,$,IFCNORMALISEDRATIOMEASURE(0.00390625),IFCSPECULAREXPONENT(10.),.NOTDEFINED.);
#399= IFCSURFACESTYLE('STEEL/S275',.POSITIVE.,(#398));
#400= IFCPRESENTATIONSTYLEASSIGNMENT((#399));
#401= IFCCARTESIANPOINT((0.,-6.,0.));
#402= IFCCARTESIANPOINT((-0.0013871997653041,-6.,80.0000000000105));
#403= IFCCARTESIANPOINT((-0.0013871997653041,6.,80.0000000000105));
#404= IFCCARTESIANPOINT((0.,6.,0.));
#405= IFCPOLYLOOP((#401,#402,#403,#404));
#406= IFCFACEOUTERBOUND(#405,.T.);
#407= IFCFACE((#406));
#408= IFCCARTESIANPOINT((80.0019073490766,-6.,80.0000000000177));
#409= IFCCARTESIANPOINT((80.0019073490766,6.,80.0000000000177));
#410= IFCPOLYLOOP((#402,#408,#409,#403));
#411= IFCFACEOUTERBOUND(#410,.T.);
#412= IFCFACE((#411));
#413= IFCCARTESIANPOINT((80.0019073488656,-6.,5.45696821063757E-12));
#414= IFCCARTESIANPOINT((80.0019073488656,6.,5.45696821063757E-12));
#415= IFCPOLYLOOP((#408,#413,#414,#409));
#416= IFCFACEOUTERBOUND(#415,.T.);
#417= IFCFACE((#416));
#418= IFCPOLYLOOP((#413,#401,#404,#414));
#419= IFCFACEOUTERBOUND(#418,.T.);
#420= IFCFACE((#419));
#421= IFCPOLYLOOP((#409,#414,#404,#403));
#422= IFCFACEOUTERBOUND(#421,.T.);
#423= IFCFACE((#422));
#424= IFCPOLYLOOP((#413,#408,#402,#401));
#425= IFCFACEOUTERBOUND(#424,.T.);
#426= IFCFACE((#425));
#427= IFCCLOSEDSHELL((#407,#412,#417,#420,#423,#426));
#428= IFCFACETEDBREP(#427);
#429= IFCSTYLEDITEM(#428,(#400),$);
#430= IFCSHAPEREPRESENTATION(#12,'Body','Brep',(#428));
#431= IFCPRODUCTDEFINITIONSHAPE($,$,(#430));
#432= IFCCARTESIANPOINT((56975.003874216,-3346.9835785253,16606.0001145308));
#433= IFCDIRECTION((-5.75240000180202E-05,0.999999998345495,0.));
#434= IFCDIRECTION((0.999999998345495,5.75240000175477E-05,0.));
#435= IFCAXIS2PLACEMENT3D(#432,#433,#434);
#436= IFCLOCALPLACEMENT(#42,#435);
#437= IFCPLATE('2nvs80Hyb6Z970eq8kjFRt',#44,'PLATE-12','PL12*80',$,#436,#431,'IDb1e76200-47c9-468c-91c0-a3422eb4f6f7');
#438= IFCPLATETYPE('19MGCRadT6qRTLUdz4gNuA',#5,'PL12*80',$,$,$,$,$,$,.NOTDEFINED.);
#439= IFCPROPERTYSINGLEVALUE('Bottom elevation',$,IFCLABEL(' +16.600'),$);
#440= IFCPROPERTYSINGLEVALUE('Top elevation',$,IFCLABEL(' +16.612'),$);
#441= IFCPROPERTYSINGLEVALUE('Initial GUID',$,$,$);
#442= IFCPROPERTYSINGLEVALUE('Preliminary mark',$,IFCLABEL('5-2-P22'),$);
#443= IFCPROPERTYSINGLEVALUE('Phase',$,IFCINTEGER(4),$);
#444= IFCPROPERTYSINGLEVALUE('Class',$,IFCLABEL('16'),$);
#445= IFCPROPERTYSET('1JokDyMPv0Nv4daK$2EETw',#5,'Tekla Common','Common Properties to Shared building elements',(#439,#440,#441,#442,#443,#444));
#446= IFCPROPERTYSINGLEVALUE('Weight',$,IFCMASSMEASURE(0.6),$);
#447= IFCPROPERTYSINGLEVALUE('Volume',$,IFCVOLUMEMEASURE(0.),$);
#448= IFCPROPERTYSINGLEVALUE('Gross footprint area',$,IFCAREAMEASURE(0.006),$);
#449= IFCPROPERTYSINGLEVALUE('Area per tons',$,IFCAREAMEASURE(27.601),$);
#450= IFCPROPERTYSINGLEVALUE('Net surface area',$,IFCAREAMEASURE(0.017),$);
#451= IFCPROPERTYSINGLEVALUE('Height',$,IFCLENGTHMEASURE(80.),$);
#452= IFCPROPERTYSINGLEVALUE('Width',$,IFCLENGTHMEASURE(12.),$);
#453= IFCPROPERTYSINGLEVALUE('Length',$,IFCLENGTHMEASURE(80.),$);
#454= IFCPROPERTYSET('2coQjtWM5DIeLP18pVzHCJ',#5,'Tekla Quantity','Quantity Properties to Shared building elements',(#446,#447,#448,#449,#450,#451,#452,#453));
#455= IFCPROPERTYSINGLEVALUE('LoadBearing',$,IFCBOOLEAN(.F.),$);
#456= IFCPROPERTYSINGLEVALUE('Reference',$,IFCIDENTIFIER('5-2-P22'),$);
#457= IFCPROPERTYSET('3IJzua8TXFGgW_IIT6_l6v',#5,'Pset_PlateCommon','Common Properties to plate elements',(#455,#456));
#458= IFCQUANTITYLENGTH('Width',$,$,80.0000000000018);
#459= IFCQUANTITYAREA('NetArea',$,$,0.0166404785746901);
#460= IFCQUANTITYAREA('GrossArea',$,$,0.00640026356388829);
#461= IFCQUANTITYAREA('CrossSectionArea',$,$,0.000144);
#462= IFCQUANTITYVOLUME('NetVolume',$,$,7.68024969106735E-05);
#463= IFCQUANTITYVOLUME('GrossVolume',$,$,7.68024969106735E-05);
#464= IFCELEMENTQUANTITY('0U94eu565BdxTkPPUL9Ciq',#5,'BaseQuantities',$,$,(#458,#459,#460,#461,#462,#463));
#465= IFCMATERIAL('STEEL/S275');
#466= IFCRELAGGREGATES('1f$LEqEPTASeCH9q175a5Q',#5,$,$,#37,(#39));
#467= IFCRELAGGREGATES('0LiofrY$19yuz4CJPCmR7$',#5,$,$,#39,(#41));
#468= IFCRELAGGREGATES('1AIFf_21H4qhaLf6e2hbxk',#5,$,$,#41,(#43));
#469= IFCRELCONTAINEDINSPATIALSTRUCTURE('2FUGIlNXTE9wbgCVzQhknC',#5,$,$,(#437,#377),#43);
#470= IFCRELDEFINESBYPROPERTIES('35r7buuh58ZBqaeY8h$rnE',#5,$,$,(#377),#395);
#471= IFCRELDEFINESBYPROPERTIES('0YtCQmBTj1TRdisVLm6lu_',#5,$,$,(#437),#445);
#472= IFCRELDEFINESBYPROPERTIES('0fzC_BQOP4Mx8lMwIi6c2Q',#5,$,$,(#437),#454);
#473= IFCRELDEFINESBYPROPERTIES('1hr_2Ub1n958anAe$ynhCo',#5,$,$,(#437),#457);
#474= IFCRELDEFINESBYPROPERTIES('0WLERMvSn4ohm$vxZLfg_e',#5,$,$,(#437),#464);
#475= IFCRELDEFINESBYTYPE('1uw931LNH5ahlEA3gST9eV',#5,$,$,(#377),#378);
#476= IFCRELDEFINESBYTYPE('1toM7Qm6bFPeaiKAkPRj12',#5,$,$,(#437),#438);
#477= IFCRELASSOCIATESMATERIAL('0v_EDtJSr7nuHVHOXsYIHO',#5,$,$,(#377),#396);
#478= IFCRELASSOCIATESMATERIAL('23ngHrlIb9QxGR62IvTRT8',#5,$,$,(#437),#465);
#479= IFCPRESENTATIONLAYERASSIGNMENT('BoltArray',$,(#370),$);
#480= IFCPRESENTATIONLAYERASSIGNMENT('PLATE-12',$,(#430),$);
ENDSEC;

END-ISO-10303-21;
