ISO-10303-21;
HEADER;
FILE_DESCRIPTION(('ViewDefinition[CoordinationView_V2.0, QuantityTakeOffAddOnView]', 'ExchangeRequirement[Structural, SurfaceGeometry]', 'Option [BaseQuantities:On]', 'Option [GridExport:On]', 'Option [Assemblies:Off]', 'Option [Bolts:On]', 'Option [Rebars:On]', 'Option [PourObjects:Off]', 'Option [Welds:Off]', 'Option [SurfaceTreatments:On]', 'Option [LocationBy:0]', 'Option [ViewColors:Off]', 'Option [SectionedSpine:Off]', 'Option [PropertySets:On]', 'Option [Export all:Off]'),'2;1');
FILE_NAME('5-2-A8.ifc','2026-03-10T09:14:56',('DESKTOP-NLV509P\\Ahmed'),('Structural Designer'),'IFC Parser version: 3.13.2','Tekla Structures 2023 Service Pack 8, IFC Export Version: 4.0.0.0 Jan 19 2024','');
FILE_SCHEMA(('IFC2X3'));
ENDSEC;

DATA;
#1= IFCPERSON('DESKTOP-NLV509P\\Ahmed','Undefined',$,$,$,$,$,$);
#2= IFCORGANIZATION($,'Trimble Solutions Corporation',$,$,$);
#3= IFCPERSONANDORGANIZATION(#1,#2,$);
#4= IFCAPPLICATION(#2,'2023 Service Pack 8','Tekla Structures','Multi material modeling');
#5= IFCOWNERHISTORY(#3,#4,$,.NOCHANGE.,$,$,$,1773123296);
#6= IFCCARTESIANPOINT((0.,0.,0.));
#7= IFCDIRECTION((1.,0.,0.));
#8= IFCDIRECTION((0.,1.,0.));
#9= IFCDIRECTION((0.,0.,1.));
#10= IFCAXIS2PLACEMENT3D(#6,#9,#7);
#11= IFCGEOMETRICREPRESENTATIONCONTEXT($,'Model',3,1.E-05,#10,$);
#12= IFCGEOMETRICREPRESENTATIONSUBCONTEXT('Body','Model',*,*,*,*,#11,$,.MODEL_VIEW.,$);
#13= IFCGEOMETRICREPRESENTATIONSUBCONTEXT('Axis','Model',*,*,*,*,#11,$,.GRAPH_VIEW.,$);
#14= IFCGEOMETRICREPRESENTATIONSUBCONTEXT('FootPrint','Model',*,*,*,*,#11,$,.MODEL_VIEW.,$);
#15= IFCSIUNIT(*,.LENGTHUNIT.,.MILLI.,.METRE.);
#16= IFCMEASUREWITHUNIT(IFCRATIOMEASURE(304.8),#15);
#17= IFCDIMENSIONALEXPONENTS(1,0,0,0,0,0,0);
#18= IFCCONVERSIONBASEDUNIT(#17,.LENGTHUNIT.,'FOOT',#16);
#19= IFCSIUNIT(*,.AREAUNIT.,$,.SQUARE_METRE.);
#20= IFCMEASUREWITHUNIT(IFCRATIOMEASURE(0.09290304),#19);
#21= IFCDIMENSIONALEXPONENTS(2,0,0,0,0,0,0);
#22= IFCCONVERSIONBASEDUNIT(#21,.AREAUNIT.,'SQUARE FOOT',#20);
#23= IFCSIUNIT(*,.VOLUMEUNIT.,$,.CUBIC_METRE.);
#24= IFCMEASUREWITHUNIT(IFCRATIOMEASURE(0.028316846592),#23);
#25= IFCDIMENSIONALEXPONENTS(3,0,0,0,0,0,0);
#26= IFCCONVERSIONBASEDUNIT(#25,.VOLUMEUNIT.,'CUBIC FOOT',#24);
#27= IFCSIUNIT(*,.MASSUNIT.,.KILO.,.GRAM.);
#28= IFCSIUNIT(*,.TIMEUNIT.,$,.SECOND.);
#29= IFCSIUNIT(*,.PLANEANGLEUNIT.,$,.RADIAN.);
#30= IFCMEASUREWITHUNIT(IFCRATIOMEASURE(0.0174532925199433),#29);
#31= IFCDIMENSIONALEXPONENTS(0,0,0,0,0,0,0);
#32= IFCCONVERSIONBASEDUNIT(#31,.PLANEANGLEUNIT.,'DEGREE',#30);
#33= IFCSIUNIT(*,.SOLIDANGLEUNIT.,$,.STERADIAN.);
#34= IFCSIUNIT(*,.THERMODYNAMICTEMPERATUREUNIT.,$,.DEGREE_CELSIUS.);
#35= IFCSIUNIT(*,.LUMINOUSINTENSITYUNIT.,$,.LUMEN.);
#36= IFCUNITASSIGNMENT((#15,#19,#23,#27,#28,#29,#33,#34,#35));
#37= IFCPROJECT('3G4Iuspov0txsQdQqOar6P',#5,'Undefined',$,$,$,$,(#11),#36);
#38= IFCLOCALPLACEMENT($,#10);
#39= IFCSITE('2BkVgvntf24R99Y5SRtR7S',#5,'Undefined',$,$,#38,$,$,.ELEMENT.,$,$,$,$,$);
#40= IFCLOCALPLACEMENT(#38,#10);
#41= IFCBUILDING('1eE4DFQgTBNgXK747O0Ajf',#5,'Undefined',$,$,#40,$,$,.ELEMENT.,$,$,$);
#42= IFCLOCALPLACEMENT(#40,#10);
#43= IFCBUILDINGSTOREY('3gJPpYF7LCbf7I109fNVl5',#5,'Undefined',$,$,#42,$,$,.ELEMENT.,0.);
#44= IFCOWNERHISTORY(#3,#4,$,.NOCHANGE.,$,$,$,1770796800);
#45= IFCCOLOURRGB('Light Green',0.356862745098039,0.592156862745098,0.137254901960784);
#46= IFCSURFACESTYLERENDERING(#45,0.,$,$,$,$,IFCNORMALISEDRATIOMEASURE(0.00390625),IFCSPECULAREXPONENT(10.),.NOTDEFINED.);
#47= IFCSURFACESTYLE('STEEL/S275',.POSITIVE.,(#46));
#48= IFCPRESENTATIONSTYLEASSIGNMENT((#47));
#49= IFCCARTESIANPOINT((27.9999999971697,-1.50000000021464,350.00329589847));
#50= IFCCARTESIANPOINT((27.9999999971697,-1.5000000001528,248.000008195591));
#51= IFCCARTESIANPOINT((27.9999999971697,1.49999999985084,247.99999998459));
#52= IFCCARTESIANPOINT((27.9999999971697,1.49999999978536,350.003295898474));
#53= IFCPOLYLOOP((#49,#50,#51,#52));
#54= IFCFACEOUTERBOUND(#53,.T.);
#55= IFCFACE((#54));
#56= IFCCARTESIANPOINT((28.4860842918206,-1.50000000014916,244.619217666343));
#57= IFCCARTESIANPOINT((28.4860842918206,1.49999999985084,244.619209455341));
#58= IFCPOLYLOOP((#56,#57,#51,#50));
#59= IFCFACEOUTERBOUND(#58,.T.);
#60= IFCFACE((#59));
#61= IFCCARTESIANPOINT((29.904957517072,-1.50000000014916,241.512318679444));
#62= IFCCARTESIANPOINT((29.904957517072,1.49999999985084,241.512310468446));
#63= IFCPOLYLOOP((#61,#62,#57,#56));
#64= IFCFACEOUTERBOUND(#63,.T.);
#65= IFCFACE((#64));
#66= IFCCARTESIANPOINT((32.1416710025733,-1.50000000014552,238.931013713369));
#67= IFCCARTESIANPOINT((32.1416710025733,1.49999999985448,238.931005502371));
#68= IFCPOLYLOOP((#66,#67,#62,#61));
#69= IFCFACEOUTERBOUND(#68,.T.);
#70= IFCFACE((#69));
#71= IFCCARTESIANPOINT((35.0150195239694,-1.50000000014552,237.084424744855));
#72= IFCCARTESIANPOINT((35.0150195239694,1.49999999985448,237.084416533857));
#73= IFCPOLYLOOP((#71,#72,#67,#66));
#74= IFCFACEOUTERBOUND(#73,.T.);
#75= IFCFACE((#74));
#76= IFCCARTESIANPOINT((38.2922214725331,-1.50000000014552,236.122151430045));
#77= IFCCARTESIANPOINT((38.2922214725331,1.49999999985448,236.122143219047));
#78= IFCPOLYLOOP((#76,#77,#72,#71));
#79= IFCFACEOUTERBOUND(#78,.T.);
#80= IFCFACE((#79));
#81= IFCCARTESIANPOINT((41.7077774366553,-1.50000000014552,236.122151430045));
#82= IFCCARTESIANPOINT((41.7077774366553,1.49999999985448,236.122143219047));
#83= IFCPOLYLOOP((#81,#82,#77,#76));
#84= IFCFACEOUTERBOUND(#83,.T.);
#85= IFCFACE((#84));
#86= IFCCARTESIANPOINT((44.984979385219,-1.50000000014552,237.084424744855));
#87= IFCCARTESIANPOINT((44.984979385219,1.49999999985448,237.084416533857));
#88= IFCPOLYLOOP((#86,#87,#82,#81));
#89= IFCFACEOUTERBOUND(#88,.T.);
#90= IFCFACE((#89));
#91= IFCCARTESIANPOINT((47.8583279066152,-1.50000000014552,238.931013713369));
#92= IFCCARTESIANPOINT((47.8583279066152,1.49999999985448,238.931005502371));
#93= IFCPOLYLOOP((#91,#92,#87,#86));
#94= IFCFACEOUTERBOUND(#93,.T.);
#95= IFCFACE((#94));
#96= IFCCARTESIANPOINT((50.0950413921164,-1.50000000014916,241.512318679444));
#97= IFCCARTESIANPOINT((50.0950413921164,1.49999999985084,241.512310468446));
#98= IFCPOLYLOOP((#96,#97,#92,#91));
#99= IFCFACEOUTERBOUND(#98,.T.);
#100= IFCFACE((#99));
#101= IFCCARTESIANPOINT((51.5139146173678,-1.50000000014916,244.619217666343));
#102= IFCCARTESIANPOINT((51.5139146173678,1.49999999985084,244.619209455341));
#103= IFCPOLYLOOP((#101,#102,#97,#96));
#104= IFCFACEOUTERBOUND(#103,.T.);
#105= IFCFACE((#104));
#106= IFCCARTESIANPOINT((51.9999989120188,-1.5000000001528,248.000008195591));
#107= IFCCARTESIANPOINT((51.9999989120188,1.49999999985084,247.99999998459));
#108= IFCPOLYLOOP((#106,#107,#102,#101));
#109= IFCFACEOUTERBOUND(#108,.T.);
#110= IFCFACE((#109));
#111= IFCCARTESIANPOINT((52.00000160942,-1.50000000019281,350.003303850932));
#112= IFCCARTESIANPOINT((52.00000160942,1.49999999978536,350.003295898474));
#113= IFCPOLYLOOP((#111,#112,#107,#106));
#114= IFCFACEOUTERBOUND(#113,.T.);
#115= IFCFACE((#114));
#116= IFCCARTESIANPOINT((0.,-1.5,-7.27595761418343E-12));
#117= IFCCARTESIANPOINT((-5.66797098144889E-09,-1.50000000021464,350.00329589847));
#118= IFCCARTESIANPOINT((-5.66797098144889E-09,1.49999999978536,350.003295898474));
#119= IFCCARTESIANPOINT((0.,1.5,0.));
#120= IFCPOLYLOOP((#116,#117,#118,#119));
#121= IFCFACEOUTERBOUND(#120,.T.);
#122= IFCFACE((#121));
#123= IFCCARTESIANPOINT((80.,-1.5,-1.81898940354586E-10));
#124= IFCCARTESIANPOINT((80.,1.50000000000364,-1.78260961547494E-10));
#125= IFCPOLYLOOP((#123,#116,#119,#124));
#126= IFCFACEOUTERBOUND(#125,.T.);
#127= IFCFACE((#126));
#128= IFCCARTESIANPOINT((80.,-1.50000000021464,350.00329589847));
#129= IFCCARTESIANPOINT((80.,1.49999999978536,350.003295898474));
#130= IFCPOLYLOOP((#128,#123,#124,#129));
#131= IFCFACEOUTERBOUND(#130,.T.);
#132= IFCFACE((#131));
#133= IFCPOLYLOOP((#101,#96,#91,#86,#81,#76,#71,#66,#61,#56,#50,#49,#117,#116,#123,#128,#111,#106));
#134= IFCFACEOUTERBOUND(#133,.T.);
#135= IFCFACE((#134));
#136= IFCPOLYLOOP((#118,#117,#49,#52));
#137= IFCFACEOUTERBOUND(#136,.T.);
#138= IFCFACE((#137));
#139= IFCPOLYLOOP((#129,#124,#119,#118,#52,#51,#57,#62,#67,#72,#77,#82,#87,#92,#97,#102,#107,#112));
#140= IFCFACEOUTERBOUND(#139,.T.);
#141= IFCFACE((#140));
#142= IFCPOLYLOOP((#128,#129,#112,#111));
#143= IFCFACEOUTERBOUND(#142,.T.);
#144= IFCFACE((#143));
#145= IFCCLOSEDSHELL((#55,#60,#65,#70,#75,#80,#85,#90,#95,#100,#105,#110,#115,#122,#127,#132,#135,#138,#141,#144));
#146= IFCFACETEDBREP(#145);
#147= IFCSTYLEDITEM(#146,(#48),$);
#148= IFCSHAPEREPRESENTATION(#12,'Body','Brep',(#146));
#149= IFCPRODUCTDEFINITIONSHAPE($,$,(#148));
#150= IFCCARTESIANPOINT((52919.9935661074,27738.0040170532,16881.48923281));
#151= IFCDIRECTION((0.,-0.999999999996254,2.73699999888777E-06));
#152= IFCDIRECTION((-1.,0.,0.));
#153= IFCAXIS2PLACEMENT3D(#150,#151,#152);
#154= IFCLOCALPLACEMENT(#42,#153);
#155= IFCPLATE('15xRzGiEb4iPxDksm$qnqn',#44,'PLATE-3','PL3*80',$,#154,#149,'ID45edbf50-b0e9-44b1-9ecd-bb6c3fd31d31');
#156= IFCPLATETYPE('3DQGYExAD3FeTorz1XUeHC',#5,'PL3*80',$,$,$,$,$,$,.NOTDEFINED.);
#157= IFCPROPERTYSINGLEVALUE('Bottom elevation',$,IFCLABEL(' +16.880'),$);
#158= IFCPROPERTYSINGLEVALUE('Top elevation',$,IFCLABEL(' +16.883'),$);
#159= IFCPROPERTYSINGLEVALUE('Initial GUID',$,$,$);
#160= IFCPROPERTYSINGLEVALUE('Preliminary mark',$,IFCLABEL('5-2-P12'),$);
#161= IFCPROPERTYSINGLEVALUE('Phase',$,IFCINTEGER(4),$);
#162= IFCPROPERTYSINGLEVALUE('Class',$,IFCLABEL('17'),$);
#163= IFCPROPERTYSET('3glzy19vz9Ruco_BtD0cCr',#5,'Tekla Common','Common Properties to Shared building elements',(#157,#158,#159,#160,#161,#162));
#164= IFCPROPERTYSINGLEVALUE('Weight',$,IFCMASSMEASURE(0.6),$);
#165= IFCPROPERTYSINGLEVALUE('Volume',$,IFCVOLUMEMEASURE(0.),$);
#166= IFCPROPERTYSINGLEVALUE('Gross footprint area',$,IFCAREAMEASURE(0.025),$);
#167= IFCPROPERTYSINGLEVALUE('Area per tons',$,IFCAREAMEASURE(90.345),$);
#168= IFCPROPERTYSINGLEVALUE('Net surface area',$,IFCAREAMEASURE(0.054),$);
#169= IFCPROPERTYSINGLEVALUE('Height',$,IFCLENGTHMEASURE(80.),$);
#170= IFCPROPERTYSINGLEVALUE('Width',$,IFCLENGTHMEASURE(3.),$);
#171= IFCPROPERTYSINGLEVALUE('Length',$,IFCLENGTHMEASURE(350.),$);
#172= IFCPROPERTYSET('0iCGUGgCnC4w9Guaiy5sow',#5,'Tekla Quantity','Quantity Properties to Shared building elements',(#164,#165,#166,#167,#168,#169,#170,#171));
#173= IFCPROPERTYSINGLEVALUE('LoadBearing',$,IFCBOOLEAN(.F.),$);
#174= IFCPROPERTYSINGLEVALUE('Reference',$,IFCIDENTIFIER('5-2-P12'),$);
#175= IFCPROPERTYSET('2LNbYS_594bwCPqg51Uwr0',#5,'Pset_PlateCommon','Common Properties to plate elements',(#173,#174));
#176= IFCQUANTITYLENGTH('Width',$,$,80.000000005668);
#177= IFCQUANTITYAREA('NetArea',$,$,0.0538908579469983);
#178= IFCQUANTITYAREA('GrossArea',$,$,0.0280002643101086);
#179= IFCQUANTITYAREA('CrossSectionArea',$,$,9.E-06);
#180= IFCQUANTITYVOLUME('NetVolume',$,$,7.59871575445715E-05);
#181= IFCQUANTITYVOLUME('GrossVolume',$,$,8.40007910186225E-05);
#182= IFCELEMENTQUANTITY('0Rm9prpnz2QxHEHZfeky7B',#5,'BaseQuantities',$,$,(#176,#177,#178,#179,#180,#181));
#183= IFCMATERIAL('STEEL/S275');
#184= IFCRELAGGREGATES('2P_csfax52yuW6kLjPQl_p',#5,$,$,#37,(#39));
#185= IFCRELAGGREGATES('280_M3M1j3NPsf_FDeP9Nq',#5,$,$,#39,(#41));
#186= IFCRELAGGREGATES('2hB0cRPgLCBAKrQCPV8ECI',#5,$,$,#41,(#43));
#187= IFCRELCONTAINEDINSPATIALSTRUCTURE('3dKcGZhJb9dh5E7ssYqyum',#5,$,$,(#155),#43);
#188= IFCRELDEFINESBYPROPERTIES('3soqCkyJ988BeN5Z9fF8rf',#5,$,$,(#155),#163);
#189= IFCRELDEFINESBYPROPERTIES('0S29yVxGvEMgD2hMtdXVeV',#5,$,$,(#155),#172);
#190= IFCRELDEFINESBYPROPERTIES('3NAjaL46L3W9zY7dxdFQTj',#5,$,$,(#155),#175);
#191= IFCRELDEFINESBYPROPERTIES('2hRI09senA8BBMAYVnbwF7',#5,$,$,(#155),#182);
#192= IFCRELDEFINESBYTYPE('3hcxRw2Cv3WP2$plSMxQoR',#5,$,$,(#155),#156);
#193= IFCRELASSOCIATESMATERIAL('28gQZnvA56tedU4gPp7E8e',#5,$,$,(#155),#183);
#194= IFCPRESENTATIONLAYERASSIGNMENT('PLATE-3',$,(#148),$);
ENDSEC;

END-ISO-10303-21;
