ISO-10303-21;
HEADER;
FILE_DESCRIPTION(('ViewDefinition[CoordinationView_V2.0, QuantityTakeOffAddOnView]', 'ExchangeRequirement[Structural, SurfaceGeometry]', 'Option [BaseQuantities:On]', 'Option [GridExport:On]', 'Option [Assemblies:Off]', 'Option [Bolts:On]', 'Option [Rebars:On]', 'Option [PourObjects:Off]', 'Option [Welds:Off]', 'Option [SurfaceTreatments:On]', 'Option [LocationBy:0]', 'Option [ViewColors:Off]', 'Option [SectionedSpine:Off]', 'Option [PropertySets:On]', 'Option [Export all:Off]'),'2;1');
FILE_NAME('5-2-A17.ifc','2026-03-10T09:14:51',('DESKTOP-NLV509P\\Ahmed'),('Structural Designer'),'IFC Parser version: 3.13.2','Tekla Structures 2023 Service Pack 8, IFC Export Version: 4.0.0.0 Jan 19 2024','');
FILE_SCHEMA(('IFC2X3'));
ENDSEC;

DATA;
#1= IFCPERSON('DESKTOP-NLV509P\\Ahmed','Undefined',$,$,$,$,$,$);
#2= IFCORGANIZATION($,'Trimble Solutions Corporation',$,$,$);
#3= IFCPERSONANDORGANIZATION(#1,#2,$);
#4= IFCAPPLICATION(#2,'2023 Service Pack 8','Tekla Structures','Multi material modeling');
#5= IFCOWNERHISTORY(#3,#4,$,.NOCHANGE.,$,$,$,1773123290);
#6= IFCCARTESIANPOINT((0.,0.,0.));
#7= IFCDIRECTION((1.,0.,0.));
#8= IFCDIRECTION((0.,1.,0.));
#9= IFCDIRECTION((0.,0.,1.));
#10= IFCAXIS2PLACEMENT3D(#6,#9,#7);
#11= IFCGEOMETRICREPRESENTATIONCONTEXT($,'Model',3,1.E-05,#10,$);
#12= IFCGEOMETRICREPRESENTATIONSUBCONTEXT('Body','Model',*,*,*,*,#11,$,.MODEL_VIEW.,$);
#13= IFCGEOMETRICREPRESENTATIONSUBCONTEXT('Axis','Model',*,*,*,*,#11,$,.GRAPH_VIEW.,$);
#14= IFCGEOMETRICREPRESENTATIONSUBCONTEXT('FootPrint','Model',*,*,*,*,#11,$,.MODEL_VIEW.,$);
#15= IFCSIUNIT(*,.LENGTHUNIT.,.MILLI.,.METRE.);
#16= IFCMEASUREWITHUNIT(IFCRATIOMEASURE(304.8),#15);
#17= IFCDIMENSIONALEXPONENTS(1,0,0,0,0,0,0);
#18= IFCCONVERSIONBASEDUNIT(#17,.LENGTHUNIT.,'FOOT',#16);
#19= IFCSIUNIT(*,.AREAUNIT.,$,.SQUARE_METRE.);
#20= IFCMEASUREWITHUNIT(IFCRATIOMEASURE(0.09290304),#19);
#21= IFCDIMENSIONALEXPONENTS(2,0,0,0,0,0,0);
#22= IFCCONVERSIONBASEDUNIT(#21,.AREAUNIT.,'SQUARE FOOT',#20);
#23= IFCSIUNIT(*,.VOLUMEUNIT.,$,.CUBIC_METRE.);
#24= IFCMEASUREWITHUNIT(IFCRATIOMEASURE(0.028316846592),#23);
#25= IFCDIMENSIONALEXPONENTS(3,0,0,0,0,0,0);
#26= IFCCONVERSIONBASEDUNIT(#25,.VOLUMEUNIT.,'CUBIC FOOT',#24);
#27= IFCSIUNIT(*,.MASSUNIT.,.KILO.,.GRAM.);
#28= IFCSIUNIT(*,.TIMEUNIT.,$,.SECOND.);
#29= IFCSIUNIT(*,.PLANEANGLEUNIT.,$,.RADIAN.);
#30= IFCMEASUREWITHUNIT(IFCRATIOMEASURE(0.0174532925199433),#29);
#31= IFCDIMENSIONALEXPONENTS(0,0,0,0,0,0,0);
#32= IFCCONVERSIONBASEDUNIT(#31,.PLANEANGLEUNIT.,'DEGREE',#30);
#33= IFCSIUNIT(*,.SOLIDANGLEUNIT.,$,.STERADIAN.);
#34= IFCSIUNIT(*,.THERMODYNAMICTEMPERATUREUNIT.,$,.DEGREE_CELSIUS.);
#35= IFCSIUNIT(*,.LUMINOUSINTENSITYUNIT.,$,.LUMEN.);
#36= IFCUNITASSIGNMENT((#15,#19,#23,#27,#28,#29,#33,#34,#35));
#37= IFCPROJECT('0juEcXMjnFmud8Fcx5Cl2J',#5,'Undefined',$,$,$,$,(#11),#36);
#38= IFCLOCALPLACEMENT($,#10);
#39= IFCSITE('3nkwH7GnbFiR8LWPKgpTtX',#5,'Undefined',$,$,#38,$,$,.ELEMENT.,$,$,$,$,$);
#40= IFCLOCALPLACEMENT(#38,#10);
#41= IFCBUILDING('0VqTXbvDfASx6Ez2yxvBJc',#5,'Undefined',$,$,#40,$,$,.ELEMENT.,$,$,$);
#42= IFCLOCALPLACEMENT(#40,#10);
#43= IFCBUILDINGSTOREY('3gJPpYF7LCbf7I109fNVl5',#5,'Undefined',$,$,#42,$,$,.ELEMENT.,0.);
#44= IFCOWNERHISTORY(#3,#4,$,.NOCHANGE.,$,$,$,1770796800);
#45= IFCCOLOURRGB($,0.698039215686274,0.4,0.);
#46= IFCSURFACESTYLERENDERING(#45,0.,$,$,$,$,IFCNORMALISEDRATIOMEASURE(0.00390625),IFCSPECULAREXPONENT(10.),.NOTDEFINED.);
#47= IFCSURFACESTYLE('Undefined',.POSITIVE.,(#46));
#48= IFCPRESENTATIONSTYLEASSIGNMENT((#47));
#49= IFCCARTESIANPOINT((9.,-19.279031589212,0.));
#50= IFCCARTESIANPOINT((7.79422863405979,-19.279031589212,4.50000000000027));
#51= IFCCARTESIANPOINT((4.49999999999946,-19.279031589212,7.79422863406026));
#52= IFCCARTESIANPOINT((-9.3270238344029E-13,-19.279031589212,9.));
#53= IFCCARTESIANPOINT((-4.50000000000107,-19.279031589212,7.79422863405933));
#54= IFCCARTESIANPOINT((-7.79422863406072,-19.279031589212,4.49999999999866));
#55= IFCCARTESIANPOINT((-9.,-19.279031589212,-1.86540476688058E-12));
#56= IFCCARTESIANPOINT((-7.79422863405886,-19.279031589212,-4.50000000000188));
#57= IFCCARTESIANPOINT((-4.49999999999785,-19.279031589212,-7.79422863406119));
#58= IFCCARTESIANPOINT((2.78811514309924E-12,-19.279031589212,-9.));
#59= IFCCARTESIANPOINT((4.50000000000269,-19.279031589212,-7.7942286340584));
#60= IFCCARTESIANPOINT((7.79422863406166,-19.279031589212,-4.49999999999704));
#61= IFCCARTESIANPOINT((9.,-7.17903158903243,0.));
#62= IFCCARTESIANPOINT((7.79422863405979,-7.17903158903243,4.50000000000027));
#63= IFCCARTESIANPOINT((4.49999999999946,-7.17903158903243,7.79422863406026));
#64= IFCCARTESIANPOINT((-9.3270238344029E-13,-7.17903158903243,9.));
#65= IFCCARTESIANPOINT((-4.50000000000107,-7.17903158903243,7.79422863405933));
#66= IFCCARTESIANPOINT((-7.79422863406072,-7.17903158903243,4.49999999999866));
#67= IFCCARTESIANPOINT((-9.,-7.17903158903243,-1.86540476688058E-12));
#68= IFCCARTESIANPOINT((-7.79422863405886,-7.17903158903243,-4.50000000000188));
#69= IFCCARTESIANPOINT((-4.49999999999785,-7.17903158903243,-7.79422863406119));
#70= IFCCARTESIANPOINT((2.78811514309924E-12,-7.17903158903243,-9.));
#71= IFCCARTESIANPOINT((4.50000000000269,-7.17903158903243,-7.7942286340584));
#72= IFCCARTESIANPOINT((7.79422863406166,-7.17903158903243,-4.49999999999704));
#73= IFCPOLYLOOP((#49,#50,#51,#52,#53,#54,#55,#56,#57,#58,#59,#60));
#74= IFCFACEOUTERBOUND(#73,.T.);
#75= IFCFACE((#74));
#76= IFCPOLYLOOP((#72,#71,#70,#69,#68,#67,#66,#65,#64,#63,#62,#61));
#77= IFCFACEOUTERBOUND(#76,.T.);
#78= IFCFACE((#77));
#79= IFCPOLYLOOP((#49,#61,#62,#50));
#80= IFCFACEOUTERBOUND(#79,.T.);
#81= IFCFACE((#80));
#82= IFCPOLYLOOP((#50,#62,#63,#51));
#83= IFCFACEOUTERBOUND(#82,.T.);
#84= IFCFACE((#83));
#85= IFCPOLYLOOP((#51,#63,#64,#52));
#86= IFCFACEOUTERBOUND(#85,.T.);
#87= IFCFACE((#86));
#88= IFCPOLYLOOP((#52,#64,#65,#53));
#89= IFCFACEOUTERBOUND(#88,.T.);
#90= IFCFACE((#89));
#91= IFCPOLYLOOP((#53,#65,#66,#54));
#92= IFCFACEOUTERBOUND(#91,.T.);
#93= IFCFACE((#92));
#94= IFCPOLYLOOP((#54,#66,#67,#55));
#95= IFCFACEOUTERBOUND(#94,.T.);
#96= IFCFACE((#95));
#97= IFCPOLYLOOP((#55,#67,#68,#56));
#98= IFCFACEOUTERBOUND(#97,.T.);
#99= IFCFACE((#98));
#100= IFCPOLYLOOP((#56,#68,#69,#57));
#101= IFCFACEOUTERBOUND(#100,.T.);
#102= IFCFACE((#101));
#103= IFCPOLYLOOP((#57,#69,#70,#58));
#104= IFCFACEOUTERBOUND(#103,.T.);
#105= IFCFACE((#104));
#106= IFCPOLYLOOP((#58,#70,#71,#59));
#107= IFCFACEOUTERBOUND(#106,.T.);
#108= IFCFACE((#107));
#109= IFCPOLYLOOP((#59,#71,#72,#60));
#110= IFCFACEOUTERBOUND(#109,.T.);
#111= IFCFACE((#110));
#112= IFCPOLYLOOP((#60,#72,#61,#49));
#113= IFCFACEOUTERBOUND(#112,.T.);
#114= IFCFACE((#113));
#115= IFCCLOSEDSHELL((#75,#78,#81,#84,#87,#90,#93,#96,#99,#102,#105,#108,#111,#114));
#116= IFCCOLOURRGB($,0.,0.,0.);
#117= IFCSURFACESTYLERENDERING(#116,0.,$,$,$,$,IFCNORMALISEDRATIOMEASURE(0.00390625),IFCSPECULAREXPONENT(10.),.NOTDEFINED.);
#118= IFCSURFACESTYLE($,.POSITIVE.,(#117));
#119= IFCPRESENTATIONSTYLEASSIGNMENT((#118));
#120= IFCFACETEDBREP(#115);
#121= IFCSTYLEDITEM(#120,(#119),$);
#122= IFCCARTESIANTRANSFORMATIONOPERATOR3D($,$,#6,$,$);
#123= IFCSHAPEREPRESENTATION(#12,'Body','Brep',(#120));
#124= IFCREPRESENTATIONMAP(#10,#123);
#125= IFCMAPPEDITEM(#124,#122);
#126= IFCSHAPEREPRESENTATION(#12,'Body','MappedRepresentation',(#125));
#127= IFCPRODUCTDEFINITIONSHAPE($,$,(#126));
#128= IFCCARTESIANPOINT((1445.57444333174,-3052.00484487541,17554.9961673666));
#129= IFCDIRECTION((0.000217578000056846,2.3463009133593E-06,-0.999999976327154));
#130= IFCDIRECTION((4.73439999950318E-05,-0.999999998876544,-2.33599995327436E-06));
#131= IFCAXIS2PLACEMENT3D(#128,#129,#130);
#132= IFCLOCALPLACEMENT(#42,#131);
#133= IFCMECHANICALFASTENER('3Fyhi_6912GPc3Rm1x9R7$',#44,'Bolt assembly',$,$,#132,#127,'IDcff2bb3e-1890-4241-9983-6f007b25b1ff',16.,12.);
#134= IFCMECHANICALFASTENERTYPE('1wT3XJQybAUQsUqLZ4ko3n',#5,'Bolt assembly',$,$,$,$,$,$);
#135= IFCPROPERTYSINGLEVALUE('Washer count',$,IFCINTEGER(0),$);
#136= IFCPROPERTYSINGLEVALUE('Washer diameter',$,IFCLENGTHMEASURE(16.),$);
#137= IFCPROPERTYSINGLEVALUE('Washer type',$,IFCLABEL('PLAIN'),$);
#138= IFCPROPERTYSINGLEVALUE('Washer name',$,IFCLABEL('WASHER 5/8" HARDENED PLAIN'),$);
#139= IFCPROPERTYSINGLEVALUE('Nut count',$,IFCINTEGER(0),$);
#140= IFCPROPERTYSINGLEVALUE('Nut type',$,IFCLABEL('HEAVY_HEX'),$);
#141= IFCPROPERTYSINGLEVALUE('Nut name',$,IFCLABEL('NUT 5/8" HEAVY HEX'),$);
#142= IFCPROPERTYSINGLEVALUE('Slotted hole y',$,IFCLENGTHMEASURE(0.),$);
#143= IFCPROPERTYSINGLEVALUE('Slotted hole x',$,IFCLENGTHMEASURE(0.),$);
#144= IFCPROPERTYSINGLEVALUE('Bolt hole diameter',$,IFCLENGTHMEASURE(18.),$);
#145= IFCPROPERTYSINGLEVALUE('Location',$,IFCLABEL('Site'),$);
#146= IFCPROPERTYSINGLEVALUE('Bolt count',$,IFCINTEGER(1),$);
#147= IFCPROPERTYSINGLEVALUE('Bolt size',$,IFCLENGTHMEASURE(18.),$);
#148= IFCPROPERTYSINGLEVALUE('Bolt length',$,IFCLENGTHMEASURE(12.),$);
#149= IFCPROPERTYSINGLEVALUE('Bolt standard',$,IFCLABEL(''),$);
#150= IFCPROPERTYSINGLEVALUE('Bolt Name',$,IFCLABEL(''),$);
#151= IFCPROPERTYSET('3gCoRfxCj9WQCvYqcumbKd',#5,'Tekla Bolt','Bolt Properties',(#135,#136,#137,#138,#139,#140,#141,#142,#143,#144,#145,#146,#147,#148,#149,#150));
#152= IFCMATERIAL('Undefined');
#153= IFCCOLOURRGB('Light Red',0.905882352941176,0.325490196078431,0.36078431372549);
#154= IFCSURFACESTYLERENDERING(#153,0.,$,$,$,$,IFCNORMALISEDRATIOMEASURE(0.00390625),IFCSPECULAREXPONENT(10.),.NOTDEFINED.);
#155= IFCSURFACESTYLE('STEEL/S275',.POSITIVE.,(#154));
#156= IFCPRESENTATIONSTYLEASSIGNMENT((#155));
#157= IFCCARTESIANPOINT((0.,-6.00000000000045,3.63797880709171E-12));
#158= IFCCARTESIANPOINT((4.54747350886464E-13,-6.00000000000296,60.0000000000364));
#159= IFCCARTESIANPOINT((0.,5.99999999999841,60.0000000000255));
#160= IFCCARTESIANPOINT((-4.54747350886464E-13,6.00000000000068,-7.27595761418343E-12));
#161= IFCPOLYLOOP((#157,#158,#159,#160));
#162= IFCFACEOUTERBOUND(#161,.T.);
#163= IFCFACE((#162));
#164= IFCCARTESIANPOINT((60.0006408691283,-6.00000000000068,60.0000000000473));
#165= IFCCARTESIANPOINT((60.0006408691283,6.00000000000045,60.0000000000364));
#166= IFCPOLYLOOP((#158,#164,#165,#159));
#167= IFCFACEOUTERBOUND(#166,.T.);
#168= IFCFACE((#167));
#169= IFCCARTESIANPOINT((60.0004043579002,-5.99999999999818,1.45519152283669E-11));
#170= IFCCARTESIANPOINT((60.0004043578997,6.00000000000296,3.63797880709171E-12));
#171= IFCPOLYLOOP((#164,#169,#170,#165));
#172= IFCFACEOUTERBOUND(#171,.T.);
#173= IFCFACE((#172));
#174= IFCPOLYLOOP((#169,#157,#160,#170));
#175= IFCFACEOUTERBOUND(#174,.T.);
#176= IFCFACE((#175));
#177= IFCPOLYLOOP((#165,#170,#160,#159));
#178= IFCFACEOUTERBOUND(#177,.T.);
#179= IFCFACE((#178));
#180= IFCPOLYLOOP((#169,#164,#158,#157));
#181= IFCFACEOUTERBOUND(#180,.T.);
#182= IFCFACE((#181));
#183= IFCCLOSEDSHELL((#163,#168,#173,#176,#179,#182));
#184= IFCFACETEDBREP(#183);
#185= IFCSTYLEDITEM(#184,(#156),$);
#186= IFCSHAPEREPRESENTATION(#12,'Body','Brep',(#184));
#187= IFCPRODUCTDEFINITIONSHAPE($,$,(#186));
#188= IFCCARTESIANPOINT((1458.84855649599,-3082.00273548722,17584.9996406233));
#189= IFCDIRECTION((-5.3648999975788E-05,0.999999998558169,2.33400002023231E-06));
#190= IFCAXIS2PLACEMENT3D(#188,#129,#189);
#191= IFCLOCALPLACEMENT(#42,#190);
#192= IFCPLATE('183VrbsE57Uw2XViYtmsD$',#44,'PLATE-12','PL12*60',$,#191,#187,'ID480dfd65-d8e1-477b-a0a1-7ec8b7c3637f');
#193= IFCPLATETYPE('3cez650Gb6OQgX_95XKioE',#5,'PL12*60',$,$,$,$,$,$,.NOTDEFINED.);
#194= IFCPROPERTYSINGLEVALUE('Bottom elevation',$,IFCLABEL(' +17.525'),$);
#195= IFCPROPERTYSINGLEVALUE('Top elevation',$,IFCLABEL(' +17.585'),$);
#196= IFCPROPERTYSINGLEVALUE('Initial GUID',$,$,$);
#197= IFCPROPERTYSINGLEVALUE('Preliminary mark',$,IFCLABEL('5-2-P21(?)'),$);
#198= IFCPROPERTYSINGLEVALUE('Phase',$,IFCINTEGER(2),$);
#199= IFCPROPERTYSINGLEVALUE('Class',$,IFCLABEL('16'),$);
#200= IFCPROPERTYSET('3tABHC8iLDFQv186qCMMCs',#5,'Tekla Common','Common Properties to Shared building elements',(#194,#195,#196,#197,#198,#199));
#201= IFCPROPERTYSINGLEVALUE('Weight',$,IFCMASSMEASURE(0.34),$);
#202= IFCPROPERTYSINGLEVALUE('Volume',$,IFCVOLUMEMEASURE(0.),$);
#203= IFCPROPERTYSINGLEVALUE('Gross footprint area',$,IFCAREAMEASURE(0.001),$);
#204= IFCPROPERTYSINGLEVALUE('Area per tons',$,IFCAREAMEASURE(29.724),$);
#205= IFCPROPERTYSINGLEVALUE('Net surface area',$,IFCAREAMEASURE(0.01),$);
#206= IFCPROPERTYSINGLEVALUE('Height',$,IFCLENGTHMEASURE(60.),$);
#207= IFCPROPERTYSINGLEVALUE('Width',$,IFCLENGTHMEASURE(12.),$);
#208= IFCPROPERTYSINGLEVALUE('Length',$,IFCLENGTHMEASURE(60.),$);
#209= IFCPROPERTYSET('3_Ey_BP251UQcTTKUnCsX2',#5,'Tekla Quantity','Quantity Properties to Shared building elements',(#201,#202,#203,#204,#205,#206,#207,#208));
#210= IFCPROPERTYSINGLEVALUE('LoadBearing',$,IFCBOOLEAN(.F.),$);
#211= IFCPROPERTYSINGLEVALUE('Reference',$,IFCIDENTIFIER('5-2-P21'),$);
#212= IFCPROPERTYSET('0V$gXd00D7DQ6wR4WdorHS',#5,'Pset_PlateCommon','Common Properties to plate elements',(#210,#211));
#213= IFCQUANTITYLENGTH('Width',$,$,60.);
#214= IFCQUANTITYAREA('NetArea',$,$,0.0100800752563531);
#215= IFCQUANTITYAREA('GrossArea',$,$,0.00360003845214844);
#216= IFCQUANTITYAREA('CrossSectionArea',$,$,0.000144);
#217= IFCQUANTITYVOLUME('NetVolume',$,$,4.32003762817376E-05);
#218= IFCQUANTITYVOLUME('GrossVolume',$,$,4.32003762817376E-05);
#219= IFCELEMENTQUANTITY('0n_BA3eXP6tgCSgQP0eowc',#5,'BaseQuantities',$,$,(#213,#214,#215,#216,#217,#218));
#220= IFCMATERIAL('STEEL/S275');
#221= IFCRELAGGREGATES('1H601vQarDghrUhv7Sc0Ny',#5,$,$,#37,(#39));
#222= IFCRELAGGREGATES('0pSWs_rAL6fea56j1$4vVm',#5,$,$,#39,(#41));
#223= IFCRELAGGREGATES('2s0Timdw1D0AJ_sJBDXhWs',#5,$,$,#41,(#43));
#224= IFCRELCONTAINEDINSPATIALSTRUCTURE('2fe2bjCF9B2vb7olAS6yXU',#5,$,$,(#192,#133),#43);
#225= IFCRELDEFINESBYPROPERTIES('3cZYgBi9TDO9Ol8lV7eEWF',#5,$,$,(#133),#151);
#226= IFCRELDEFINESBYPROPERTIES('2pEEE0BBT8HOqgGOaVsgZg',#5,$,$,(#192),#200);
#227= IFCRELDEFINESBYPROPERTIES('2qBSu_Wbj4u8l3b1lk3T5E',#5,$,$,(#192),#209);
#228= IFCRELDEFINESBYPROPERTIES('296KnHu$D3aft0$GNl2sEh',#5,$,$,(#192),#212);
#229= IFCRELDEFINESBYPROPERTIES('1F2pIl$X1CWf9l6p5x_oES',#5,$,$,(#192),#219);
#230= IFCRELDEFINESBYTYPE('3$mZYq0796Iwv7OBi33SZz',#5,$,$,(#133),#134);
#231= IFCRELDEFINESBYTYPE('2$qpjhm2P2DuyyFPxtiEpi',#5,$,$,(#192),#193);
#232= IFCRELASSOCIATESMATERIAL('3yIsJ98CL9SPThGbUmtuop',#5,$,$,(#133),#152);
#233= IFCRELASSOCIATESMATERIAL('3MP4VpSd179gPqPzAW0FhR',#5,$,$,(#192),#220);
#234= IFCPRESENTATIONLAYERASSIGNMENT('BoltArray',$,(#126),$);
#235= IFCPRESENTATIONLAYERASSIGNMENT('PLATE-12',$,(#186),$);
ENDSEC;

END-ISO-10303-21;
