ISO-10303-21;
HEADER;
FILE_DESCRIPTION(('ViewDefinition[CoordinationView_V2.0, QuantityTakeOffAddOnView]', 'ExchangeRequirement[Structural, SurfaceGeometry]', 'Option [BaseQuantities:On]', 'Option [GridExport:On]', 'Option [Assemblies:Off]', 'Option [Bolts:On]', 'Option [Rebars:On]', 'Option [PourObjects:Off]', 'Option [Welds:Off]', 'Option [SurfaceTreatments:On]', 'Option [LocationBy:0]', 'Option [ViewColors:Off]', 'Option [SectionedSpine:Off]', 'Option [PropertySets:On]', 'Option [Export all:Off]'),'2;1');
FILE_NAME('5-2-A2.ifc','2026-03-10T09:14:59',('DESKTOP-NLV509P\\Ahmed'),('Structural Designer'),'IFC Parser version: 3.13.2','Tekla Structures 2023 Service Pack 8, IFC Export Version: 4.0.0.0 Jan 19 2024','');
FILE_SCHEMA(('IFC2X3'));
ENDSEC;

DATA;
#1= IFCPERSON('DESKTOP-NLV509P\\Ahmed','Undefined',$,$,$,$,$,$);
#2= IFCORGANIZATION($,'Trimble Solutions Corporation',$,$,$);
#3= IFCPERSONANDORGANIZATION(#1,#2,$);
#4= IFCAPPLICATION(#2,'2023 Service Pack 8','Tekla Structures','Multi material modeling');
#5= IFCOWNERHISTORY(#3,#4,$,.NOCHANGE.,$,$,$,1773123299);
#6= IFCCARTESIANPOINT((0.,0.,0.));
#7= IFCDIRECTION((1.,0.,0.));
#8= IFCDIRECTION((0.,1.,0.));
#9= IFCDIRECTION((0.,0.,1.));
#10= IFCAXIS2PLACEMENT3D(#6,#9,#7);
#11= IFCGEOMETRICREPRESENTATIONCONTEXT($,'Model',3,1.E-05,#10,$);
#12= IFCGEOMETRICREPRESENTATIONSUBCONTEXT('Body','Model',*,*,*,*,#11,$,.MODEL_VIEW.,$);
#13= IFCGEOMETRICREPRESENTATIONSUBCONTEXT('Axis','Model',*,*,*,*,#11,$,.GRAPH_VIEW.,$);
#14= IFCGEOMETRICREPRESENTATIONSUBCONTEXT('FootPrint','Model',*,*,*,*,#11,$,.MODEL_VIEW.,$);
#15= IFCSIUNIT(*,.LENGTHUNIT.,.MILLI.,.METRE.);
#16= IFCMEASUREWITHUNIT(IFCRATIOMEASURE(304.8),#15);
#17= IFCDIMENSIONALEXPONENTS(1,0,0,0,0,0,0);
#18= IFCCONVERSIONBASEDUNIT(#17,.LENGTHUNIT.,'FOOT',#16);
#19= IFCSIUNIT(*,.AREAUNIT.,$,.SQUARE_METRE.);
#20= IFCMEASUREWITHUNIT(IFCRATIOMEASURE(0.09290304),#19);
#21= IFCDIMENSIONALEXPONENTS(2,0,0,0,0,0,0);
#22= IFCCONVERSIONBASEDUNIT(#21,.AREAUNIT.,'SQUARE FOOT',#20);
#23= IFCSIUNIT(*,.VOLUMEUNIT.,$,.CUBIC_METRE.);
#24= IFCMEASUREWITHUNIT(IFCRATIOMEASURE(0.028316846592),#23);
#25= IFCDIMENSIONALEXPONENTS(3,0,0,0,0,0,0);
#26= IFCCONVERSIONBASEDUNIT(#25,.VOLUMEUNIT.,'CUBIC FOOT',#24);
#27= IFCSIUNIT(*,.MASSUNIT.,.KILO.,.GRAM.);
#28= IFCSIUNIT(*,.TIMEUNIT.,$,.SECOND.);
#29= IFCSIUNIT(*,.PLANEANGLEUNIT.,$,.RADIAN.);
#30= IFCMEASUREWITHUNIT(IFCRATIOMEASURE(0.0174532925199433),#29);
#31= IFCDIMENSIONALEXPONENTS(0,0,0,0,0,0,0);
#32= IFCCONVERSIONBASEDUNIT(#31,.PLANEANGLEUNIT.,'DEGREE',#30);
#33= IFCSIUNIT(*,.SOLIDANGLEUNIT.,$,.STERADIAN.);
#34= IFCSIUNIT(*,.THERMODYNAMICTEMPERATUREUNIT.,$,.DEGREE_CELSIUS.);
#35= IFCSIUNIT(*,.LUMINOUSINTENSITYUNIT.,$,.LUMEN.);
#36= IFCUNITASSIGNMENT((#15,#19,#23,#27,#28,#29,#33,#34,#35));
#37= IFCPROJECT('1cry8PgXb0ZeQJwwjscsni',#5,'Undefined',$,$,$,$,(#11),#36);
#38= IFCLOCALPLACEMENT($,#10);
#39= IFCSITE('1Jr4Zo1pjEQ85cP8SXzPTB',#5,'Undefined',$,$,#38,$,$,.ELEMENT.,$,$,$,$,$);
#40= IFCLOCALPLACEMENT(#38,#10);
#41= IFCBUILDING('2ul$UQoob6TgX3L7wgj7LP',#5,'Undefined',$,$,#40,$,$,.ELEMENT.,$,$,$);
#42= IFCLOCALPLACEMENT(#40,#10);
#43= IFCBUILDINGSTOREY('3gJPpYF7LCbf7I109fNVl5',#5,'Undefined',$,$,#42,$,$,.ELEMENT.,0.);
#44= IFCOWNERHISTORY(#3,#4,$,.NOCHANGE.,$,$,$,1770876000);
#45= IFCCOLOURRGB($,0.698039215686274,0.4,0.);
#46= IFCSURFACESTYLERENDERING(#45,0.,$,$,$,$,IFCNORMALISEDRATIOMEASURE(0.00390625),IFCSPECULAREXPONENT(10.),.NOTDEFINED.);
#47= IFCSURFACESTYLE('TS10.9',.POSITIVE.,(#46));
#48= IFCPRESENTATIONSTYLEASSIGNMENT((#47));
#49= IFCCARTESIANPOINT((13.,0.0776579515136859,0.));
#50= IFCCARTESIANPOINT((11.2583302491975,0.0776579515136859,6.50000000000039));
#51= IFCCARTESIANPOINT((6.49999999999922,0.0776579515136859,11.2583302491982));
#52= IFCCARTESIANPOINT((-1.34723677608042E-12,0.0776579515136859,13.));
#53= IFCCARTESIANPOINT((-6.50000000000155,0.0776579515136859,11.2583302491968));
#54= IFCCARTESIANPOINT((-11.2583302491988,0.0776579515136859,6.49999999999806));
#55= IFCCARTESIANPOINT((-13.,0.0776579515136859,-2.69447355216084E-12));
#56= IFCCARTESIANPOINT((-11.2583302491961,0.0776579515136859,-6.50000000000272));
#57= IFCCARTESIANPOINT((-6.4999999999969,0.0776579515136859,-11.2583302491995));
#58= IFCCARTESIANPOINT((4.02727742892113E-12,0.0776579515136859,-13.));
#59= IFCCARTESIANPOINT((6.50000000000388,0.0776579515136859,-11.2583302491955));
#60= IFCCARTESIANPOINT((11.2583302492002,0.0776579515136859,-6.49999999999573));
#61= IFCCARTESIANPOINT((13.,250.177668957148,0.));
#62= IFCCARTESIANPOINT((11.2583302491975,250.177668957148,6.50000000000039));
#63= IFCCARTESIANPOINT((6.49999999999922,250.177668957148,11.2583302491982));
#64= IFCCARTESIANPOINT((-1.34723677608042E-12,250.177668957148,13.));
#65= IFCCARTESIANPOINT((-6.50000000000155,250.177668957148,11.2583302491968));
#66= IFCCARTESIANPOINT((-11.2583302491988,250.177668957148,6.49999999999806));
#67= IFCCARTESIANPOINT((-13.,250.177668957148,-2.69447355216084E-12));
#68= IFCCARTESIANPOINT((-11.2583302491961,250.177668957148,-6.50000000000272));
#69= IFCCARTESIANPOINT((-6.4999999999969,250.177668957148,-11.2583302491995));
#70= IFCCARTESIANPOINT((4.02727742892113E-12,250.177668957148,-13.));
#71= IFCCARTESIANPOINT((6.50000000000388,250.177668957148,-11.2583302491955));
#72= IFCCARTESIANPOINT((11.2583302492002,250.177668957148,-6.49999999999573));
#73= IFCPOLYLOOP((#49,#50,#51,#52,#53,#54,#55,#56,#57,#58,#59,#60));
#74= IFCFACEOUTERBOUND(#73,.T.);
#75= IFCFACE((#74));
#76= IFCPOLYLOOP((#72,#71,#70,#69,#68,#67,#66,#65,#64,#63,#62,#61));
#77= IFCFACEOUTERBOUND(#76,.T.);
#78= IFCFACE((#77));
#79= IFCPOLYLOOP((#49,#61,#62,#50));
#80= IFCFACEOUTERBOUND(#79,.T.);
#81= IFCFACE((#80));
#82= IFCPOLYLOOP((#50,#62,#63,#51));
#83= IFCFACEOUTERBOUND(#82,.T.);
#84= IFCFACE((#83));
#85= IFCPOLYLOOP((#51,#63,#64,#52));
#86= IFCFACEOUTERBOUND(#85,.T.);
#87= IFCFACE((#86));
#88= IFCPOLYLOOP((#52,#64,#65,#53));
#89= IFCFACEOUTERBOUND(#88,.T.);
#90= IFCFACE((#89));
#91= IFCPOLYLOOP((#53,#65,#66,#54));
#92= IFCFACEOUTERBOUND(#91,.T.);
#93= IFCFACE((#92));
#94= IFCPOLYLOOP((#54,#66,#67,#55));
#95= IFCFACEOUTERBOUND(#94,.T.);
#96= IFCFACE((#95));
#97= IFCPOLYLOOP((#55,#67,#68,#56));
#98= IFCFACEOUTERBOUND(#97,.T.);
#99= IFCFACE((#98));
#100= IFCPOLYLOOP((#56,#68,#69,#57));
#101= IFCFACEOUTERBOUND(#100,.T.);
#102= IFCFACE((#101));
#103= IFCPOLYLOOP((#57,#69,#70,#58));
#104= IFCFACEOUTERBOUND(#103,.T.);
#105= IFCFACE((#104));
#106= IFCPOLYLOOP((#58,#70,#71,#59));
#107= IFCFACEOUTERBOUND(#106,.T.);
#108= IFCFACE((#107));
#109= IFCPOLYLOOP((#59,#71,#72,#60));
#110= IFCFACEOUTERBOUND(#109,.T.);
#111= IFCFACE((#110));
#112= IFCPOLYLOOP((#60,#72,#61,#49));
#113= IFCFACEOUTERBOUND(#112,.T.);
#114= IFCFACE((#113));
#115= IFCCLOSEDSHELL((#75,#78,#81,#84,#87,#90,#93,#96,#99,#102,#105,#108,#111,#114));
#116= IFCCOLOURRGB($,0.,0.,0.);
#117= IFCSURFACESTYLERENDERING(#116,0.,$,$,$,$,IFCNORMALISEDRATIOMEASURE(0.00390625),IFCSPECULAREXPONENT(10.),.NOTDEFINED.);
#118= IFCSURFACESTYLE($,.POSITIVE.,(#117));
#119= IFCPRESENTATIONSTYLEASSIGNMENT((#118));
#120= IFCFACETEDBREP(#115);
#121= IFCSTYLEDITEM(#120,(#119),$);
#122= IFCCARTESIANTRANSFORMATIONOPERATOR3D($,$,#6,$,$);
#123= IFCSHAPEREPRESENTATION(#12,'Body','Brep',(#120));
#124= IFCREPRESENTATIONMAP(#10,#123);
#125= IFCMAPPEDITEM(#124,#122);
#126= IFCSHAPEREPRESENTATION(#12,'Body','MappedRepresentation',(#125));
#127= IFCPRODUCTDEFINITIONSHAPE($,$,(#126));
#128= IFCCARTESIANPOINT((1214.84369628373,-3391.96408883164,16880.0772001843));
#129= IFCDIRECTION((-0.999999815375236,-0.000607659026969031,-7.27595761418343E-15));
#130= IFCDIRECTION((-0.000607659000217359,0.999999771350897,0.000296730000207892));
#131= IFCAXIS2PLACEMENT3D(#128,#129,#130);
#132= IFCLOCALPLACEMENT(#42,#131);
#133= IFCMECHANICALFASTENER('1FdqIPR8L4lv0almznnM9G',#44,'Bolt assembly',$,$,#132,#127,'ID4f9f4499-6c85-44bf-9024-bf0f71c56250',24.,1250.);
#134= IFCMECHANICALFASTENERTYPE('2KDO3nrbj2RgZFoVw9hIry',#5,'Bolt assembly',$,$,$,$,$,$);
#135= IFCPROPERTYSINGLEVALUE('Washer count',$,IFCINTEGER(0),$);
#136= IFCPROPERTYSINGLEVALUE('Washer diameter',$,IFCLENGTHMEASURE(24.),$);
#137= IFCPROPERTYSINGLEVALUE('Washer type',$,IFCLABEL(''),$);
#138= IFCPROPERTYSINGLEVALUE('Washer name',$,IFCLABEL(''),$);
#139= IFCPROPERTYSINGLEVALUE('Nut count',$,IFCINTEGER(0),$);
#140= IFCPROPERTYSINGLEVALUE('Nut type',$,IFCLABEL(''),$);
#141= IFCPROPERTYSINGLEVALUE('Nut name',$,IFCLABEL(''),$);
#142= IFCPROPERTYSINGLEVALUE('Slotted hole y',$,IFCLENGTHMEASURE(44.),$);
#143= IFCPROPERTYSINGLEVALUE('Slotted hole x',$,IFCLENGTHMEASURE(0.),$);
#144= IFCPROPERTYSINGLEVALUE('Bolt hole diameter',$,IFCLENGTHMEASURE(26.),$);
#145= IFCPROPERTYSINGLEVALUE('Location',$,IFCLABEL('Site'),$);
#146= IFCPROPERTYSINGLEVALUE('Bolt count',$,IFCINTEGER(1),$);
#147= IFCPROPERTYSINGLEVALUE('Bolt size',$,IFCLENGTHMEASURE(26.),$);
#148= IFCPROPERTYSINGLEVALUE('Bolt length',$,IFCLENGTHMEASURE(1250.),$);
#149= IFCPROPERTYSINGLEVALUE('Bolt standard',$,IFCLABEL('TS10.9'),$);
#150= IFCPROPERTYSINGLEVALUE('Bolt Name',$,IFCLABEL(''),$);
#151= IFCPROPERTYSET('3MBpzOxD1CkBM4cyGgl6qB',#5,'Tekla Bolt','Bolt Properties',(#135,#136,#137,#138,#139,#140,#141,#142,#143,#144,#145,#146,#147,#148,#149,#150));
#152= IFCMATERIAL('TS10.9');
#153= IFCCARTESIANPOINT((13.,0.0272138499503285,0.));
#154= IFCCARTESIANPOINT((11.2583302491975,0.0272138499503285,6.50000000000039));
#155= IFCCARTESIANPOINT((6.49999999999922,0.0272138499503285,11.2583302491982));
#156= IFCCARTESIANPOINT((-1.34723677608042E-12,0.0272138499503285,13.));
#157= IFCCARTESIANPOINT((-6.50000000000155,0.0272138499503285,11.2583302491968));
#158= IFCCARTESIANPOINT((-11.2583302491988,0.0272138499503285,6.49999999999806));
#159= IFCCARTESIANPOINT((-13.,0.0272138499503285,-2.69447355216084E-12));
#160= IFCCARTESIANPOINT((-11.2583302491961,0.0272138499503285,-6.50000000000272));
#161= IFCCARTESIANPOINT((-6.4999999999969,0.0272138499503285,-11.2583302491995));
#162= IFCCARTESIANPOINT((4.02727742892113E-12,0.0272138499503285,-13.));
#163= IFCCARTESIANPOINT((6.50000000000388,0.0272138499503285,-11.2583302491955));
#164= IFCCARTESIANPOINT((11.2583302492002,0.0272138499503285,-6.49999999999573));
#165= IFCCARTESIANPOINT((13.,250.127224855585,0.));
#166= IFCCARTESIANPOINT((11.2583302491975,250.127224855585,6.50000000000039));
#167= IFCCARTESIANPOINT((6.49999999999922,250.127224855585,11.2583302491982));
#168= IFCCARTESIANPOINT((-1.34723677608042E-12,250.127224855585,13.));
#169= IFCCARTESIANPOINT((-6.50000000000155,250.127224855585,11.2583302491968));
#170= IFCCARTESIANPOINT((-11.2583302491988,250.127224855585,6.49999999999806));
#171= IFCCARTESIANPOINT((-13.,250.127224855585,-2.69447355216084E-12));
#172= IFCCARTESIANPOINT((-11.2583302491961,250.127224855585,-6.50000000000272));
#173= IFCCARTESIANPOINT((-6.4999999999969,250.127224855585,-11.2583302491995));
#174= IFCCARTESIANPOINT((4.02727742892113E-12,250.127224855585,-13.));
#175= IFCCARTESIANPOINT((6.50000000000388,250.127224855585,-11.2583302491955));
#176= IFCCARTESIANPOINT((11.2583302492002,250.127224855585,-6.49999999999573));
#177= IFCPOLYLOOP((#153,#154,#155,#156,#157,#158,#159,#160,#161,#162,#163,#164));
#178= IFCFACEOUTERBOUND(#177,.T.);
#179= IFCFACE((#178));
#180= IFCPOLYLOOP((#176,#175,#174,#173,#172,#171,#170,#169,#168,#167,#166,#165));
#181= IFCFACEOUTERBOUND(#180,.T.);
#182= IFCFACE((#181));
#183= IFCPOLYLOOP((#153,#165,#166,#154));
#184= IFCFACEOUTERBOUND(#183,.T.);
#185= IFCFACE((#184));
#186= IFCPOLYLOOP((#154,#166,#167,#155));
#187= IFCFACEOUTERBOUND(#186,.T.);
#188= IFCFACE((#187));
#189= IFCPOLYLOOP((#155,#167,#168,#156));
#190= IFCFACEOUTERBOUND(#189,.T.);
#191= IFCFACE((#190));
#192= IFCPOLYLOOP((#156,#168,#169,#157));
#193= IFCFACEOUTERBOUND(#192,.T.);
#194= IFCFACE((#193));
#195= IFCPOLYLOOP((#157,#169,#170,#158));
#196= IFCFACEOUTERBOUND(#195,.T.);
#197= IFCFACE((#196));
#198= IFCPOLYLOOP((#158,#170,#171,#159));
#199= IFCFACEOUTERBOUND(#198,.T.);
#200= IFCFACE((#199));
#201= IFCPOLYLOOP((#159,#171,#172,#160));
#202= IFCFACEOUTERBOUND(#201,.T.);
#203= IFCFACE((#202));
#204= IFCPOLYLOOP((#160,#172,#173,#161));
#205= IFCFACEOUTERBOUND(#204,.T.);
#206= IFCFACE((#205));
#207= IFCPOLYLOOP((#161,#173,#174,#162));
#208= IFCFACEOUTERBOUND(#207,.T.);
#209= IFCFACE((#208));
#210= IFCPOLYLOOP((#162,#174,#175,#163));
#211= IFCFACEOUTERBOUND(#210,.T.);
#212= IFCFACE((#211));
#213= IFCPOLYLOOP((#163,#175,#176,#164));
#214= IFCFACEOUTERBOUND(#213,.T.);
#215= IFCFACE((#214));
#216= IFCPOLYLOOP((#164,#176,#165,#153));
#217= IFCFACEOUTERBOUND(#216,.T.);
#218= IFCFACE((#217));
#219= IFCCLOSEDSHELL((#179,#182,#185,#188,#191,#194,#197,#200,#203,#206,#209,#212,#215,#218));
#220= IFCFACETEDBREP(#219);
#221= IFCSTYLEDITEM(#220,(#119),$);
#222= IFCSHAPEREPRESENTATION(#12,'Body','Brep',(#220));
#223= IFCREPRESENTATIONMAP(#10,#222);
#224= IFCMAPPEDITEM(#223,#122);
#225= IFCSHAPEREPRESENTATION(#12,'Body','MappedRepresentation',(#224));
#226= IFCPRODUCTDEFINITIONSHAPE($,$,(#225));
#227= IFCCARTESIANPOINT((1214.94699831341,-3561.9640499612,16880.0267560847));
#228= IFCAXIS2PLACEMENT3D(#227,#129,#130);
#229= IFCLOCALPLACEMENT(#42,#228);
#230= IFCMECHANICALFASTENER('10kBGGdL5DjuHZ$cbltHxA',#44,'Bolt assembly',$,$,#229,#226,'ID40b8b410-9d51-4db7-8463-fe696fdd1eca',24.,1250.);
#231= IFCMAPPEDITEM(#124,#122);
#232= IFCSHAPEREPRESENTATION(#12,'Body','MappedRepresentation',(#231));
#233= IFCPRODUCTDEFINITIONSHAPE($,$,(#232));
#234= IFCCARTESIANPOINT((1364.84366858975,-3391.87293997729,16880.0772001843));
#235= IFCAXIS2PLACEMENT3D(#234,#129,#130);
#236= IFCLOCALPLACEMENT(#42,#235);
#237= IFCMECHANICALFASTENER('1JouTlCW17dOqFyP9vQR9f',#44,'Bolt assembly',$,$,#236,#233,'ID53cb876f-3200-479d-8d0f-f1927969b269',24.,1250.);
#238= IFCMAPPEDITEM(#223,#122);
#239= IFCSHAPEREPRESENTATION(#12,'Body','MappedRepresentation',(#238));
#240= IFCPRODUCTDEFINITIONSHAPE($,$,(#239));
#241= IFCCARTESIANPOINT((1364.94697061944,-3561.87290110685,16880.0267560847));
#242= IFCAXIS2PLACEMENT3D(#241,#129,#130);
#243= IFCLOCALPLACEMENT(#42,#242);
#244= IFCMECHANICALFASTENER('1zxYDTHcr8HQQ4bTZfd4zk',#44,'Bolt assembly',$,$,#243,#240,'ID7dee235d-466d-4845-a684-95d8e99c4f6e',24.,1250.);
#245= IFCOWNERHISTORY(#3,#4,$,.NOCHANGE.,$,$,$,1770840000);
#246= IFCSURFACESTYLE('EVENT',.POSITIVE.,(#46));
#247= IFCPRESENTATIONSTYLEASSIGNMENT((#246));
#248= IFCCARTESIANPOINT((7.5,-4.00000000039176,0.));
#249= IFCCARTESIANPOINT((6.49519052838316,-4.00000000039176,3.75000000000022));
#250= IFCCARTESIANPOINT((3.74999999999955,-4.00000000039176,6.49519052838355));
#251= IFCCARTESIANPOINT((-7.77251986200242E-13,-4.00000000039176,7.5));
#252= IFCCARTESIANPOINT((-3.7500000000009,-4.00000000039176,6.49519052838277));
#253= IFCCARTESIANPOINT((-6.49519052838394,-4.00000000039176,3.74999999999888));
#254= IFCCARTESIANPOINT((-7.5,-4.00000000039176,-1.55450397240048E-12));
#255= IFCCARTESIANPOINT((-6.49519052838238,-4.00000000039176,-3.75000000000157));
#256= IFCCARTESIANPOINT((-3.74999999999821,-4.00000000039176,-6.49519052838432));
#257= IFCCARTESIANPOINT((2.32342928591604E-12,-4.00000000039176,-7.5));
#258= IFCCARTESIANPOINT((3.75000000000224,-4.00000000039176,-6.495190528382));
#259= IFCCARTESIANPOINT((6.49519052838471,-4.00000000039176,-3.74999999999753));
#260= IFCCARTESIANPOINT((7.5,4.09999999983859,0.));
#261= IFCCARTESIANPOINT((6.49519052838316,4.09999999983859,3.75000000000022));
#262= IFCCARTESIANPOINT((3.74999999999955,4.09999999983859,6.49519052838355));
#263= IFCCARTESIANPOINT((-7.77251986200242E-13,4.09999999983859,7.5));
#264= IFCCARTESIANPOINT((-3.7500000000009,4.09999999983859,6.49519052838277));
#265= IFCCARTESIANPOINT((-6.49519052838394,4.09999999983859,3.74999999999888));
#266= IFCCARTESIANPOINT((-7.5,4.09999999983859,-1.55450397240048E-12));
#267= IFCCARTESIANPOINT((-6.49519052838238,4.09999999983859,-3.75000000000157));
#268= IFCCARTESIANPOINT((-3.74999999999821,4.09999999983859,-6.49519052838432));
#269= IFCCARTESIANPOINT((2.32342928591604E-12,4.09999999983859,-7.5));
#270= IFCCARTESIANPOINT((3.75000000000224,4.09999999983859,-6.495190528382));
#271= IFCCARTESIANPOINT((6.49519052838471,4.09999999983859,-3.74999999999753));
#272= IFCPOLYLOOP((#248,#249,#250,#251,#252,#253,#254,#255,#256,#257,#258,#259));
#273= IFCFACEOUTERBOUND(#272,.T.);
#274= IFCFACE((#273));
#275= IFCPOLYLOOP((#271,#270,#269,#268,#267,#266,#265,#264,#263,#262,#261,#260));
#276= IFCFACEOUTERBOUND(#275,.T.);
#277= IFCFACE((#276));
#278= IFCPOLYLOOP((#248,#260,#261,#249));
#279= IFCFACEOUTERBOUND(#278,.T.);
#280= IFCFACE((#279));
#281= IFCPOLYLOOP((#249,#261,#262,#250));
#282= IFCFACEOUTERBOUND(#281,.T.);
#283= IFCFACE((#282));
#284= IFCPOLYLOOP((#250,#262,#263,#251));
#285= IFCFACEOUTERBOUND(#284,.T.);
#286= IFCFACE((#285));
#287= IFCPOLYLOOP((#251,#263,#264,#252));
#288= IFCFACEOUTERBOUND(#287,.T.);
#289= IFCFACE((#288));
#290= IFCPOLYLOOP((#252,#264,#265,#253));
#291= IFCFACEOUTERBOUND(#290,.T.);
#292= IFCFACE((#291));
#293= IFCPOLYLOOP((#253,#265,#266,#254));
#294= IFCFACEOUTERBOUND(#293,.T.);
#295= IFCFACE((#294));
#296= IFCPOLYLOOP((#254,#266,#267,#255));
#297= IFCFACEOUTERBOUND(#296,.T.);
#298= IFCFACE((#297));
#299= IFCPOLYLOOP((#255,#267,#268,#256));
#300= IFCFACEOUTERBOUND(#299,.T.);
#301= IFCFACE((#300));
#302= IFCPOLYLOOP((#256,#268,#269,#257));
#303= IFCFACEOUTERBOUND(#302,.T.);
#304= IFCFACE((#303));
#305= IFCPOLYLOOP((#257,#269,#270,#258));
#306= IFCFACEOUTERBOUND(#305,.T.);
#307= IFCFACE((#306));
#308= IFCPOLYLOOP((#258,#270,#271,#259));
#309= IFCFACEOUTERBOUND(#308,.T.);
#310= IFCFACE((#309));
#311= IFCPOLYLOOP((#259,#271,#260,#248));
#312= IFCFACEOUTERBOUND(#311,.T.);
#313= IFCFACE((#312));
#314= IFCCLOSEDSHELL((#274,#277,#280,#283,#286,#289,#292,#295,#298,#301,#304,#307,#310,#313));
#315= IFCFACETEDBREP(#314);
#316= IFCSTYLEDITEM(#315,(#119),$);
#317= IFCSHAPEREPRESENTATION(#12,'Body','Brep',(#315));
#318= IFCREPRESENTATIONMAP(#10,#317);
#319= IFCMAPPEDITEM(#318,#122);
#320= IFCSHAPEREPRESENTATION(#12,'Body','MappedRepresentation',(#319));
#321= IFCPRODUCTDEFINITIONSHAPE($,$,(#320));
#322= IFCCARTESIANPOINT((1414.50274658204,-3331.00318149989,16829.4995422363));
#323= IFCDIRECTION((0.513481812029184,-7.66000000112399E-07,-0.8581004770507));
#324= IFCDIRECTION((-0.858100477049745,1.27999999971996E-06,-0.513481812029755));
#325= IFCAXIS2PLACEMENT3D(#322,#323,#324);
#326= IFCLOCALPLACEMENT(#42,#325);
#327= IFCMECHANICALFASTENER('0AJKGXqjj5VxZRON0ACxjc',#245,'Bolt assembly',$,$,#326,#321,'ID0a4d4421-d2db-457f-b8db-61700a33bb66',15.,8.);
#328= IFCPROPERTYSINGLEVALUE('Washer diameter',$,IFCLENGTHMEASURE(15.),$);
#329= IFCPROPERTYSINGLEVALUE('Slotted hole y',$,IFCLENGTHMEASURE(0.),$);
#330= IFCPROPERTYSINGLEVALUE('Bolt hole diameter',$,IFCLENGTHMEASURE(15.),$);
#331= IFCPROPERTYSINGLEVALUE('Bolt size',$,IFCLENGTHMEASURE(15.),$);
#332= IFCPROPERTYSINGLEVALUE('Bolt length',$,IFCLENGTHMEASURE(8.),$);
#333= IFCPROPERTYSINGLEVALUE('Bolt standard',$,IFCLABEL('EVENT'),$);
#334= IFCPROPERTYSET('0hhD2JSIL7ERP2rrgnRahC',#5,'Tekla Bolt','Bolt Properties',(#135,#328,#137,#138,#139,#140,#141,#329,#143,#330,#145,#146,#331,#332,#333,#150));
#335= IFCMATERIAL('EVENT');
#336= IFCMAPPEDITEM(#318,#122);
#337= IFCSHAPEREPRESENTATION(#12,'Body','MappedRepresentation',(#336));
#338= IFCPRODUCTDEFINITIONSHAPE($,$,(#337));
#339= IFCCARTESIANPOINT((1414.50274658204,-3331.00318149989,16680.4995422363));
#340= IFCDIRECTION((0.513481812029184,-7.660000001124E-07,0.8581004770507));
#341= IFCDIRECTION((-0.858100477049745,1.27999999971996E-06,0.513481812029755));
#342= IFCAXIS2PLACEMENT3D(#339,#340,#341);
#343= IFCLOCALPLACEMENT(#42,#342);
#344= IFCMECHANICALFASTENER('1gZby$YVr9ewbdDqQim0ya',#245,'Bolt assembly',$,$,#343,#338,'ID6a8e5f3f-89fd-49a3-a967-3746acc00f24',15.,8.);
#345= IFCMAPPEDITEM(#318,#122);
#346= IFCSHAPEREPRESENTATION(#12,'Body','MappedRepresentation',(#345));
#347= IFCPRODUCTDEFINITIONSHAPE($,$,(#346));
#348= IFCCARTESIANPOINT((1165.50274658204,-3331.00280999202,16680.4995422363));
#349= IFCDIRECTION((0.858100477049739,-1.27999999972005E-06,0.513481812029766));
#350= IFCAXIS2PLACEMENT3D(#348,#323,#349);
#351= IFCLOCALPLACEMENT(#42,#350);
#352= IFCMECHANICALFASTENER('2sdL2dh$f0v9cBtbdqhChZ',#245,'Bolt assembly',$,$,#351,#347,'IDb69d50a7-affa-40e4-998b-de59f4accae3',15.,8.);
#353= IFCMAPPEDITEM(#318,#122);
#354= IFCSHAPEREPRESENTATION(#12,'Body','MappedRepresentation',(#353));
#355= IFCPRODUCTDEFINITIONSHAPE($,$,(#354));
#356= IFCCARTESIANPOINT((1165.50274658204,-3331.00280999202,16829.4995422363));
#357= IFCDIRECTION((-0.513481812029195,7.66000000112399E-07,-0.858100477050694));
#358= IFCDIRECTION((0.858100477049739,-1.27999999972005E-06,-0.513481812029766));
#359= IFCAXIS2PLACEMENT3D(#356,#357,#358);
#360= IFCLOCALPLACEMENT(#42,#359);
#361= IFCMECHANICALFASTENER('1eFhgWtC96ARAgVVdVPIt8',#245,'Bolt assembly',$,$,#360,#355,'ID683ebaa0-dcc2-4629-b2aa-7df9df652dc8',15.,8.);
#362= IFCMAPPEDITEM(#318,#122);
#363= IFCSHAPEREPRESENTATION(#12,'Body','MappedRepresentation',(#362));
#364= IFCPRODUCTDEFINITIONSHAPE($,$,(#363));
#365= IFCCARTESIANPOINT((1414.5027465822,-3693.00318132689,16829.4995422363));
#366= IFCAXIS2PLACEMENT3D(#365,#323,#324);
#367= IFCLOCALPLACEMENT(#42,#366);
#368= IFCMECHANICALFASTENER('1GFC4qidL9hO861wvm9_D1',#245,'Bolt assembly',$,$,#367,#364,'ID503cc134-b275-49ad-8206-07ae7027e341',15.,8.);
#369= IFCMAPPEDITEM(#318,#122);
#370= IFCSHAPEREPRESENTATION(#12,'Body','MappedRepresentation',(#369));
#371= IFCPRODUCTDEFINITIONSHAPE($,$,(#370));
#372= IFCCARTESIANPOINT((1414.5027465822,-3693.00318132689,16680.4995422363));
#373= IFCAXIS2PLACEMENT3D(#372,#340,#341);
#374= IFCLOCALPLACEMENT(#42,#373);
#375= IFCMECHANICALFASTENER('1m9YnxjHr1cft9ahXmKB56',#245,'Bolt assembly',$,$,#374,#371,'ID70262c7b-b51d-419a-9dc9-92b87050b146',15.,8.);
#376= IFCMAPPEDITEM(#318,#122);
#377= IFCSHAPEREPRESENTATION(#12,'Body','MappedRepresentation',(#376));
#378= IFCPRODUCTDEFINITIONSHAPE($,$,(#377));
#379= IFCCARTESIANPOINT((1165.5027465822,-3693.00280981903,16680.4995422363));
#380= IFCAXIS2PLACEMENT3D(#379,#323,#349);
#381= IFCLOCALPLACEMENT(#42,#380);
#382= IFCMECHANICALFASTENER('3vgRHgvsf9uBcQ4IDiVrLz',#245,'Bolt assembly',$,$,#381,#378,'IDf9a9b46a-e76a-49e0-b99a-11236c7f557d',15.,8.);
#383= IFCMAPPEDITEM(#318,#122);
#384= IFCSHAPEREPRESENTATION(#12,'Body','MappedRepresentation',(#383));
#385= IFCPRODUCTDEFINITIONSHAPE($,$,(#384));
#386= IFCCARTESIANPOINT((1165.5027465822,-3693.00280981903,16829.4995422363));
#387= IFCAXIS2PLACEMENT3D(#386,#357,#358);
#388= IFCLOCALPLACEMENT(#42,#387);
#389= IFCMECHANICALFASTENER('3nOWDPMxzDZwl6BD60DPYp',#245,'Bolt assembly',$,$,#388,#385,'IDf1620359-5bbf-4d8f-abc6-2cd1803598b3',15.,8.);
#390= IFCMAPPEDITEM(#318,#122);
#391= IFCSHAPEREPRESENTATION(#12,'Body','MappedRepresentation',(#390));
#392= IFCPRODUCTDEFINITIONSHAPE($,$,(#391));
#393= IFCCARTESIANPOINT((1424.50274658203,-6798.,16670.4995422363));
#394= IFCDIRECTION((0.531978132187873,0.,0.846758092299036));
#395= IFCDIRECTION((-0.846758092299036,0.,0.531978132187872));
#396= IFCAXIS2PLACEMENT3D(#393,#394,#395);
#397= IFCLOCALPLACEMENT(#42,#396);
#398= IFCMECHANICALFASTENER('21uhTcFD11Ae0W4ELeZTzg',#245,'Bolt assembly',$,$,#397,#392,'ID81e2b766-3cd0-412a-8020-10e5688ddf6a',15.,8.);
#399= IFCMAPPEDITEM(#318,#122);
#400= IFCSHAPEREPRESENTATION(#12,'Body','MappedRepresentation',(#399));
#401= IFCPRODUCTDEFINITIONSHAPE($,$,(#400));
#402= IFCCARTESIANPOINT((1424.50274658203,-6798.,16839.4995422363));
#403= IFCDIRECTION((0.531978132187872,0.,-0.846758092299036));
#404= IFCDIRECTION((-0.846758092299036,0.,-0.531978132187872));
#405= IFCAXIS2PLACEMENT3D(#402,#403,#404);
#406= IFCLOCALPLACEMENT(#42,#405);
#407= IFCMECHANICALFASTENER('2DciJeU7jCH8$Q2tQTzZTu',#245,'Bolt assembly',$,$,#406,#401,'ID8d9ac4e8-787b-4c44-8fda-0b769df63778',15.,8.);
#408= IFCMAPPEDITEM(#318,#122);
#409= IFCSHAPEREPRESENTATION(#12,'Body','MappedRepresentation',(#408));
#410= IFCPRODUCTDEFINITIONSHAPE($,$,(#409));
#411= IFCCARTESIANPOINT((1155.50274658203,-6798.,16839.4995422363));
#412= IFCDIRECTION((0.846758092299036,0.,-0.531978132187872));
#413= IFCAXIS2PLACEMENT3D(#411,#394,#412);
#414= IFCLOCALPLACEMENT(#42,#413);
#415= IFCMECHANICALFASTENER('1thcoaBz1CdRS8g9kCveBR',#245,'Bolt assembly',$,$,#414,#410,'ID77ae6ca4-2fd0-4c9d-b708-a89b8ce682db',15.,8.);
#416= IFCMAPPEDITEM(#318,#122);
#417= IFCSHAPEREPRESENTATION(#12,'Body','MappedRepresentation',(#416));
#418= IFCPRODUCTDEFINITIONSHAPE($,$,(#417));
#419= IFCCARTESIANPOINT((1155.50274658203,-6798.,16670.4995422363));
#420= IFCDIRECTION((-0.531978132187873,0.,0.846758092299036));
#421= IFCDIRECTION((0.846758092299036,0.,0.531978132187872));
#422= IFCAXIS2PLACEMENT3D(#419,#420,#421);
#423= IFCLOCALPLACEMENT(#42,#422);
#424= IFCMECHANICALFASTENER('3_N8nQHc14ZRv6kBnyFo3B',#245,'Bolt assembly',$,$,#423,#418,'IDfe5c8c5a-4660-448d-be46-b8bc7c3f20cb',15.,8.);
#425= IFCOWNERHISTORY(#3,#4,$,.NOCHANGE.,$,$,$,1770868800);
#426= IFCMAPPEDITEM(#318,#122);
#427= IFCSHAPEREPRESENTATION(#12,'Body','MappedRepresentation',(#426));
#428= IFCPRODUCTDEFINITIONSHAPE($,$,(#427));
#429= IFCCARTESIANPOINT((1801.00071994239,-6761.50072414253,16839.5007692249));
#430= IFCDIRECTION((0.,-0.531978132187874,-0.846758092299035));
#431= IFCDIRECTION((0.,0.846758092299035,-0.531978132187873));
#432= IFCAXIS2PLACEMENT3D(#429,#430,#431);
#433= IFCLOCALPLACEMENT(#42,#432);
#434= IFCMECHANICALFASTENER('383jmpSaX51uurHOp5WW1R',#425,'Bolt assembly',$,$,#433,#428,'IDc80edc33-7248-4507-8e35-458cc582005b',15.,8.);
#435= IFCMAPPEDITEM(#318,#122);
#436= IFCSHAPEREPRESENTATION(#12,'Body','MappedRepresentation',(#435));
#437= IFCPRODUCTDEFINITIONSHAPE($,$,(#436));
#438= IFCCARTESIANPOINT((1801.00071994239,-6761.50072414253,16670.5007692249));
#439= IFCDIRECTION((0.,-0.531978132187874,0.846758092299035));
#440= IFCDIRECTION((0.,0.846758092299035,0.531978132187873));
#441= IFCAXIS2PLACEMENT3D(#438,#439,#440);
#442= IFCLOCALPLACEMENT(#42,#441);
#443= IFCMECHANICALFASTENER('0tKMiVYpz2j94JHGmuGk93',#425,'Bolt assembly',$,$,#442,#437,'ID37516b1f-8b3f-42b4-9113-450c3842e243',15.,8.);
#444= IFCMAPPEDITEM(#318,#122);
#445= IFCSHAPEREPRESENTATION(#12,'Body','MappedRepresentation',(#444));
#446= IFCPRODUCTDEFINITIONSHAPE($,$,(#445));
#447= IFCCARTESIANPOINT((1801.00071994239,-6492.50072414253,16670.5007692249));
#448= IFCDIRECTION((0.,-0.846758092299035,0.531978132187873));
#449= IFCAXIS2PLACEMENT3D(#447,#430,#448);
#450= IFCLOCALPLACEMENT(#42,#449);
#451= IFCMECHANICALFASTENER('32ChfheOf3EuVe978BJepT',#425,'Bolt assembly',$,$,#450,#446,'IDc232ba6b-a18a-433b-87e8-24720b4e8cdd',15.,8.);
#452= IFCMAPPEDITEM(#318,#122);
#453= IFCSHAPEREPRESENTATION(#12,'Body','MappedRepresentation',(#452));
#454= IFCPRODUCTDEFINITIONSHAPE($,$,(#453));
#455= IFCCARTESIANPOINT((1801.00071994239,-6492.50072414253,16839.5007692249));
#456= IFCDIRECTION((0.,0.531978132187874,-0.846758092299035));
#457= IFCDIRECTION((0.,-0.846758092299035,-0.531978132187873));
#458= IFCAXIS2PLACEMENT3D(#455,#456,#457);
#459= IFCLOCALPLACEMENT(#42,#458);
#460= IFCMECHANICALFASTENER('0lkFefs992dBsoaPli7AGB',#425,'Bolt assembly',$,$,#459,#454,'ID2fb8fa29-d892-429c-bdb2-919bec1ca40b',15.,8.);
#461= IFCMAPPEDITEM(#318,#122);
#462= IFCSHAPEREPRESENTATION(#12,'Body','MappedRepresentation',(#461));
#463= IFCPRODUCTDEFINITIONSHAPE($,$,(#462));
#464= IFCCARTESIANPOINT((1609.00071994239,-6761.50072414253,16670.5007692249));
#465= IFCAXIS2PLACEMENT3D(#464,#439,#440);
#466= IFCLOCALPLACEMENT(#42,#465);
#467= IFCMECHANICALFASTENER('2KEghnGRL89uKiqKLphlv7',#245,'Bolt assembly',$,$,#466,#463,'ID943aaaf1-41b5-4827-852c-d14573aefe47',15.,8.);
#468= IFCMAPPEDITEM(#318,#122);
#469= IFCSHAPEREPRESENTATION(#12,'Body','MappedRepresentation',(#468));
#470= IFCPRODUCTDEFINITIONSHAPE($,$,(#469));
#471= IFCCARTESIANPOINT((1609.00071994239,-6761.50072414253,16839.5007692249));
#472= IFCAXIS2PLACEMENT3D(#471,#430,#431);
#473= IFCLOCALPLACEMENT(#42,#472);
#474= IFCMECHANICALFASTENER('1dnWxvfMz9ShqnCCvW8MhM',#245,'Bolt assembly',$,$,#473,#470,'ID67c60ef9-a56f-4972-bd31-30ce60216ad6',15.,8.);
#475= IFCMAPPEDITEM(#318,#122);
#476= IFCSHAPEREPRESENTATION(#12,'Body','MappedRepresentation',(#475));
#477= IFCPRODUCTDEFINITIONSHAPE($,$,(#476));
#478= IFCCARTESIANPOINT((1609.00071994239,-6492.50072414253,16839.5007692249));
#479= IFCAXIS2PLACEMENT3D(#478,#439,#457);
#480= IFCLOCALPLACEMENT(#42,#479);
#481= IFCMECHANICALFASTENER('0k0PclRH9AgQiJ0jA_Mk0F',#245,'Bolt assembly',$,$,#480,#477,'ID2e0199af-6d12-4aa9-ab13-02d2be5ae00f',15.,8.);
#482= IFCMAPPEDITEM(#318,#122);
#483= IFCSHAPEREPRESENTATION(#12,'Body','MappedRepresentation',(#482));
#484= IFCPRODUCTDEFINITIONSHAPE($,$,(#483));
#485= IFCCARTESIANPOINT((1609.00071994239,-6492.50072414253,16670.5007692249));
#486= IFCDIRECTION((0.,0.531978132187874,0.846758092299035));
#487= IFCAXIS2PLACEMENT3D(#485,#486,#448);
#488= IFCLOCALPLACEMENT(#42,#487);
#489= IFCMECHANICALFASTENER('1fQmri34D2owlwgKFJUlDK',#245,'Bolt assembly',$,$,#488,#484,'ID696b0d6c-0c43-42cb-abfa-a943d37af354',15.,8.);
#490= IFCCARTESIANPOINT((7.5,-8.00000000010286,0.));
#491= IFCCARTESIANPOINT((6.49519052838316,-8.00000000010286,3.75000000000022));
#492= IFCCARTESIANPOINT((3.74999999999955,-8.00000000010286,6.49519052838355));
#493= IFCCARTESIANPOINT((-7.77251986200242E-13,-8.00000000010286,7.5));
#494= IFCCARTESIANPOINT((-3.7500000000009,-8.00000000010286,6.49519052838277));
#495= IFCCARTESIANPOINT((-6.49519052838394,-8.00000000010286,3.74999999999888));
#496= IFCCARTESIANPOINT((-7.5,-8.00000000010286,-1.55450397240048E-12));
#497= IFCCARTESIANPOINT((-6.49519052838238,-8.00000000010286,-3.75000000000157));
#498= IFCCARTESIANPOINT((-3.74999999999821,-8.00000000010286,-6.49519052838432));
#499= IFCCARTESIANPOINT((2.32342928591604E-12,-8.00000000010286,-7.5));
#500= IFCCARTESIANPOINT((3.75000000000224,-8.00000000010286,-6.495190528382));
#501= IFCCARTESIANPOINT((6.49519052838471,-8.00000000010286,-3.74999999999753));
#502= IFCCARTESIANPOINT((7.5,8.09999999983612,0.));
#503= IFCCARTESIANPOINT((6.49519052838316,8.09999999983612,3.75000000000022));
#504= IFCCARTESIANPOINT((3.74999999999955,8.09999999983612,6.49519052838355));
#505= IFCCARTESIANPOINT((-7.77251986200242E-13,8.09999999983612,7.5));
#506= IFCCARTESIANPOINT((-3.7500000000009,8.09999999983612,6.49519052838277));
#507= IFCCARTESIANPOINT((-6.49519052838394,8.09999999983612,3.74999999999888));
#508= IFCCARTESIANPOINT((-7.5,8.09999999983612,-1.55450397240048E-12));
#509= IFCCARTESIANPOINT((-6.49519052838238,8.09999999983612,-3.75000000000157));
#510= IFCCARTESIANPOINT((-3.74999999999821,8.09999999983612,-6.49519052838432));
#511= IFCCARTESIANPOINT((2.32342928591604E-12,8.09999999983612,-7.5));
#512= IFCCARTESIANPOINT((3.75000000000224,8.09999999983612,-6.495190528382));
#513= IFCCARTESIANPOINT((6.49519052838471,8.09999999983612,-3.74999999999753));
#514= IFCPOLYLOOP((#490,#491,#492,#493,#494,#495,#496,#497,#498,#499,#500,#501));
#515= IFCFACEOUTERBOUND(#514,.T.);
#516= IFCFACE((#515));
#517= IFCPOLYLOOP((#513,#512,#511,#510,#509,#508,#507,#506,#505,#504,#503,#502));
#518= IFCFACEOUTERBOUND(#517,.T.);
#519= IFCFACE((#518));
#520= IFCPOLYLOOP((#490,#502,#503,#491));
#521= IFCFACEOUTERBOUND(#520,.T.);
#522= IFCFACE((#521));
#523= IFCPOLYLOOP((#491,#503,#504,#492));
#524= IFCFACEOUTERBOUND(#523,.T.);
#525= IFCFACE((#524));
#526= IFCPOLYLOOP((#492,#504,#505,#493));
#527= IFCFACEOUTERBOUND(#526,.T.);
#528= IFCFACE((#527));
#529= IFCPOLYLOOP((#493,#505,#506,#494));
#530= IFCFACEOUTERBOUND(#529,.T.);
#531= IFCFACE((#530));
#532= IFCPOLYLOOP((#494,#506,#507,#495));
#533= IFCFACEOUTERBOUND(#532,.T.);
#534= IFCFACE((#533));
#535= IFCPOLYLOOP((#495,#507,#508,#496));
#536= IFCFACEOUTERBOUND(#535,.T.);
#537= IFCFACE((#536));
#538= IFCPOLYLOOP((#496,#508,#509,#497));
#539= IFCFACEOUTERBOUND(#538,.T.);
#540= IFCFACE((#539));
#541= IFCPOLYLOOP((#497,#509,#510,#498));
#542= IFCFACEOUTERBOUND(#541,.T.);
#543= IFCFACE((#542));
#544= IFCPOLYLOOP((#498,#510,#511,#499));
#545= IFCFACEOUTERBOUND(#544,.T.);
#546= IFCFACE((#545));
#547= IFCPOLYLOOP((#499,#511,#512,#500));
#548= IFCFACEOUTERBOUND(#547,.T.);
#549= IFCFACE((#548));
#550= IFCPOLYLOOP((#500,#512,#513,#501));
#551= IFCFACEOUTERBOUND(#550,.T.);
#552= IFCFACE((#551));
#553= IFCPOLYLOOP((#501,#513,#502,#490));
#554= IFCFACEOUTERBOUND(#553,.T.);
#555= IFCFACE((#554));
#556= IFCCLOSEDSHELL((#516,#519,#522,#525,#528,#531,#534,#537,#540,#543,#546,#549,#552,#555));
#557= IFCFACETEDBREP(#556);
#558= IFCSTYLEDITEM(#557,(#119),$);
#559= IFCSHAPEREPRESENTATION(#12,'Body','Brep',(#557));
#560= IFCREPRESENTATIONMAP(#10,#559);
#561= IFCMAPPEDITEM(#560,#122);
#562= IFCSHAPEREPRESENTATION(#12,'Body','MappedRepresentation',(#561));
#563= IFCPRODUCTDEFINITIONSHAPE($,$,(#562));
#564= IFCCARTESIANPOINT((1776.50297061376,-6648.50143939827,19331.9996966411));
#565= IFCDIRECTION((0.287962210948373,0.957641772828298,0.));
#566= IFCDIRECTION((-0.957641772828297,0.287962210948374,-1.9999910200081E-09));
#567= IFCAXIS2PLACEMENT3D(#564,#565,#566);
#568= IFCLOCALPLACEMENT(#42,#567);
#569= IFCMECHANICALFASTENER('3JclGyt3nD8fZiBBUewoIS',#245,'Bolt assembly',$,$,#568,#563,'IDd39af43c-dc3c-4d22-98ec-2cb7a8eb249c',15.,16.);
#570= IFCPROPERTYSINGLEVALUE('Bolt length',$,IFCLENGTHMEASURE(16.),$);
#571= IFCPROPERTYSET('0Sl_RkxTb1HvlyfcrmOsSF',#5,'Tekla Bolt','Bolt Properties',(#135,#328,#137,#138,#139,#140,#141,#329,#143,#330,#145,#146,#331,#570,#333,#150));
#572= IFCMAPPEDITEM(#560,#122);
#573= IFCSHAPEREPRESENTATION(#12,'Body','MappedRepresentation',(#572));
#574= IFCPRODUCTDEFINITIONSHAPE($,$,(#573));
#575= IFCCARTESIANPOINT((1776.50297061376,-6605.50143939827,19331.9996966411));
#576= IFCDIRECTION((0.287962210948373,-0.957641772828298,0.));
#577= IFCDIRECTION((-0.957641772828297,-0.287962210948374,-1.9999910200081E-09));
#578= IFCAXIS2PLACEMENT3D(#575,#576,#577);
#579= IFCLOCALPLACEMENT(#42,#578);
#580= IFCMECHANICALFASTENER('1Xlt7piUz8oRiFqVXJFZ1E',#245,'Bolt assembly',$,$,#579,#574,'ID61bf71f3-b1ef-48c9-bb0f-d1f8533e304e',15.,16.);
#581= IFCMAPPEDITEM(#560,#122);
#582= IFCSHAPEREPRESENTATION(#12,'Body','MappedRepresentation',(#581));
#583= IFCPRODUCTDEFINITIONSHAPE($,$,(#582));
#584= IFCCARTESIANPOINT((1633.50297061376,-6605.50143939827,19331.9996963548));
#585= IFCDIRECTION((0.9576417728283,-0.287962210948365,1.99999102000736E-09));
#586= IFCAXIS2PLACEMENT3D(#584,#565,#585);
#587= IFCLOCALPLACEMENT(#42,#586);
#588= IFCMECHANICALFASTENER('2MSK$ZbV57hhR5nra9xj8f',#245,'Bolt assembly',$,$,#587,#583,'ID96714fe3-95f1-47ae-b6c5-c75909eed229',15.,16.);
#589= IFCMAPPEDITEM(#560,#122);
#590= IFCSHAPEREPRESENTATION(#12,'Body','MappedRepresentation',(#589));
#591= IFCPRODUCTDEFINITIONSHAPE($,$,(#590));
#592= IFCCARTESIANPOINT((1633.50297061376,-6648.50143939827,19331.9996963548));
#593= IFCDIRECTION((-0.287962210948365,0.9576417728283,0.));
#594= IFCDIRECTION((0.9576417728283,0.287962210948365,1.99999102000736E-09));
#595= IFCAXIS2PLACEMENT3D(#592,#593,#594);
#596= IFCLOCALPLACEMENT(#42,#595);
#597= IFCMECHANICALFASTENER('3CX9fpOxv1peDkTZJYEXE5',#245,'Bolt assembly',$,$,#596,#591,'IDcc849a73-63be-41ce-836e-7634e23a1385',15.,16.);
#598= IFCOWNERHISTORY(#3,#4,$,.NOCHANGE.,$,$,$,1770796800);
#599= IFCSURFACESTYLE('Undefined',.POSITIVE.,(#46));
#600= IFCPRESENTATIONSTYLEASSIGNMENT((#599));
#601= IFCCARTESIANPOINT((14.,38.4999999999991,0.));
#602= IFCCARTESIANPOINT((12.1243556529819,38.4999999999991,7.00000000000042));
#603= IFCCARTESIANPOINT((6.99999999999916,38.4999999999991,12.1243556529826));
#604= IFCCARTESIANPOINT((-1.45087037424045E-12,38.4999999999991,14.));
#605= IFCCARTESIANPOINT((-7.00000000000167,38.4999999999991,12.1243556529812));
#606= IFCCARTESIANPOINT((-12.1243556529833,38.4999999999991,6.99999999999791));
#607= IFCCARTESIANPOINT((-14.,38.4999999999991,-2.9017407484809E-12));
#608= IFCCARTESIANPOINT((-12.1243556529805,38.4999999999991,-7.00000000000293));
#609= IFCCARTESIANPOINT((-6.99999999999666,38.4999999999991,-12.1243556529841));
#610= IFCCARTESIANPOINT((4.3370680003766E-12,38.4999999999991,-14.));
#611= IFCCARTESIANPOINT((7.00000000000418,38.4999999999991,-12.1243556529797));
#612= IFCCARTESIANPOINT((12.1243556529848,38.4999999999991,-6.9999999999954));
#613= IFCCARTESIANPOINT((14.,60.5999999999991,0.));
#614= IFCCARTESIANPOINT((12.1243556529819,60.5999999999991,7.00000000000042));
#615= IFCCARTESIANPOINT((6.99999999999916,60.5999999999991,12.1243556529826));
#616= IFCCARTESIANPOINT((-1.45087037424045E-12,60.5999999999991,14.));
#617= IFCCARTESIANPOINT((-7.00000000000167,60.5999999999991,12.1243556529812));
#618= IFCCARTESIANPOINT((-12.1243556529833,60.5999999999991,6.99999999999791));
#619= IFCCARTESIANPOINT((-14.,60.5999999999991,-2.9017407484809E-12));
#620= IFCCARTESIANPOINT((-12.1243556529805,60.5999999999991,-7.00000000000293));
#621= IFCCARTESIANPOINT((-6.99999999999666,60.5999999999991,-12.1243556529841));
#622= IFCCARTESIANPOINT((4.3370680003766E-12,60.5999999999991,-14.));
#623= IFCCARTESIANPOINT((7.00000000000418,60.5999999999991,-12.1243556529797));
#624= IFCCARTESIANPOINT((12.1243556529848,60.5999999999991,-6.9999999999954));
#625= IFCPOLYLOOP((#601,#602,#603,#604,#605,#606,#607,#608,#609,#610,#611,#612));
#626= IFCFACEOUTERBOUND(#625,.T.);
#627= IFCFACE((#626));
#628= IFCPOLYLOOP((#624,#623,#622,#621,#620,#619,#618,#617,#616,#615,#614,#613));
#629= IFCFACEOUTERBOUND(#628,.T.);
#630= IFCFACE((#629));
#631= IFCPOLYLOOP((#601,#613,#614,#602));
#632= IFCFACEOUTERBOUND(#631,.T.);
#633= IFCFACE((#632));
#634= IFCPOLYLOOP((#602,#614,#615,#603));
#635= IFCFACEOUTERBOUND(#634,.T.);
#636= IFCFACE((#635));
#637= IFCPOLYLOOP((#603,#615,#616,#604));
#638= IFCFACEOUTERBOUND(#637,.T.);
#639= IFCFACE((#638));
#640= IFCPOLYLOOP((#604,#616,#617,#605));
#641= IFCFACEOUTERBOUND(#640,.T.);
#642= IFCFACE((#641));
#643= IFCPOLYLOOP((#605,#617,#618,#606));
#644= IFCFACEOUTERBOUND(#643,.T.);
#645= IFCFACE((#644));
#646= IFCPOLYLOOP((#606,#618,#619,#607));
#647= IFCFACEOUTERBOUND(#646,.T.);
#648= IFCFACE((#647));
#649= IFCPOLYLOOP((#607,#619,#620,#608));
#650= IFCFACEOUTERBOUND(#649,.T.);
#651= IFCFACE((#650));
#652= IFCPOLYLOOP((#608,#620,#621,#609));
#653= IFCFACEOUTERBOUND(#652,.T.);
#654= IFCFACE((#653));
#655= IFCPOLYLOOP((#609,#621,#622,#610));
#656= IFCFACEOUTERBOUND(#655,.T.);
#657= IFCFACE((#656));
#658= IFCPOLYLOOP((#610,#622,#623,#611));
#659= IFCFACEOUTERBOUND(#658,.T.);
#660= IFCFACE((#659));
#661= IFCPOLYLOOP((#611,#623,#624,#612));
#662= IFCFACEOUTERBOUND(#661,.T.);
#663= IFCFACE((#662));
#664= IFCPOLYLOOP((#612,#624,#613,#601));
#665= IFCFACEOUTERBOUND(#664,.T.);
#666= IFCFACE((#665));
#667= IFCCLOSEDSHELL((#627,#630,#633,#636,#639,#642,#645,#648,#651,#654,#657,#660,#663,#666));
#668= IFCFACETEDBREP(#667);
#669= IFCSTYLEDITEM(#668,(#119),$);
#670= IFCSHAPEREPRESENTATION(#12,'Body','Brep',(#668));
#671= IFCREPRESENTATIONMAP(#10,#670);
#672= IFCMAPPEDITEM(#671,#122);
#673= IFCSHAPEREPRESENTATION(#12,'Body','MappedRepresentation',(#672));
#674= IFCPRODUCTDEFINITIONSHAPE($,$,(#673));
#675= IFCCARTESIANPOINT((1705.00035949749,-6577.50379523416,19459.9997011096));
#676= IFCDIRECTION((0.,0.,-1.));
#677= IFCAXIS2PLACEMENT3D(#675,#676,#7);
#678= IFCLOCALPLACEMENT(#42,#677);
#679= IFCMECHANICALFASTENER('1JQ4GPLWzEJw6OAPZZfTxP',#598,'Bolt assembly',$,$,#678,#674,'ID53684419-560f-4e4f-a198-2998e3a5ded9',26.,22.);
#680= IFCPROPERTYSINGLEVALUE('Washer diameter',$,IFCLENGTHMEASURE(26.),$);
#681= IFCPROPERTYSINGLEVALUE('Washer type',$,IFCLABEL('PLAIN'),$);
#682= IFCPROPERTYSINGLEVALUE('Nut type',$,IFCLABEL('HEAVY_HEX'),$);
#683= IFCPROPERTYSINGLEVALUE('Bolt hole diameter',$,IFCLENGTHMEASURE(28.),$);
#684= IFCPROPERTYSINGLEVALUE('Bolt size',$,IFCLENGTHMEASURE(28.),$);
#685= IFCPROPERTYSINGLEVALUE('Bolt length',$,IFCLENGTHMEASURE(22.),$);
#686= IFCPROPERTYSINGLEVALUE('Bolt standard',$,IFCLABEL(''),$);
#687= IFCPROPERTYSET('2thNH3MWbBdP4VP7A_hWrv',#5,'Tekla Bolt','Bolt Properties',(#135,#680,#681,#138,#139,#682,#141,#329,#143,#683,#145,#146,#684,#685,#686,#150));
#688= IFCMATERIAL('Undefined');
#689= IFCCOLOURRGB('Dark Gray',0.709803921568627,0.403921568627451,0.2);
#690= IFCSURFACESTYLERENDERING(#689,0.,$,$,$,$,IFCNORMALISEDRATIOMEASURE(0.00390625),IFCSPECULAREXPONENT(10.),.NOTDEFINED.);
#691= IFCSURFACESTYLE('STEEL/S275',.POSITIVE.,(#690));
#692= IFCPRESENTATIONSTYLEASSIGNMENT((#691));
#693= IFCCARTESIANPOINT((-1.36424205265939E-12,-4.99999999999977,0.));
#694= IFCCARTESIANPOINT((-2.27373675443232E-12,-4.99999999999977,234.));
#695= IFCCARTESIANPOINT((-1.36424205265939E-12,5.00000000000045,234.));
#696= IFCCARTESIANPOINT((-4.54747350886464E-13,5.00000000000045,0.));
#697= IFCPOLYLOOP((#693,#694,#695,#696));
#698= IFCFACEOUTERBOUND(#697,.T.);
#699= IFCFACE((#698));
#700= IFCCARTESIANPOINT((353.999999999927,-5.00000000002751,234.));
#701= IFCCARTESIANPOINT((353.999999999928,4.99999999997249,234.));
#702= IFCPOLYLOOP((#694,#700,#701,#695));
#703= IFCFACEOUTERBOUND(#702,.T.);
#704= IFCFACE((#703));
#705= IFCCARTESIANPOINT((353.999999999927,-5.00000000002751,3.63797880709171E-12));
#706= IFCCARTESIANPOINT((353.999999999928,4.99999999997249,3.63797880709171E-12));
#707= IFCPOLYLOOP((#700,#705,#706,#701));
#708= IFCFACEOUTERBOUND(#707,.T.);
#709= IFCFACE((#708));
#710= IFCPOLYLOOP((#705,#693,#696,#706));
#711= IFCFACEOUTERBOUND(#710,.T.);
#712= IFCFACE((#711));
#713= IFCPOLYLOOP((#701,#706,#696,#695));
#714= IFCFACEOUTERBOUND(#713,.T.);
#715= IFCFACE((#714));
#716= IFCPOLYLOOP((#705,#700,#694,#693));
#717= IFCFACEOUTERBOUND(#716,.T.);
#718= IFCFACE((#717));
#719= IFCCLOSEDSHELL((#699,#704,#709,#712,#715,#718));
#720= IFCFACETEDBREP(#719);
#721= IFCSTYLEDITEM(#720,(#692),$);
#722= IFCSHAPEREPRESENTATION(#12,'Body','Brep',(#720));
#723= IFCPRODUCTDEFINITIONSHAPE($,$,(#722));
#724= IFCCARTESIANPOINT((1435.02389067221,-3689.00351843458,16871.9995422363));
#725= IFCDIRECTION((-5.9805000012843E-05,0.999999998211681,0.));
#726= IFCAXIS2PLACEMENT3D(#724,#676,#725);
#727= IFCLOCALPLACEMENT(#42,#726);
#728= IFCPLATE('0tEk4WpVr6RA2u4jkpkyYb',#598,'PLATE-10','PL10*234',$,#727,#723,'ID373ae120-cdfd-466c-a0b8-12dbb3bbc8a5');
#729= IFCPLATETYPE('2p5saB8n5AbBrdBuvD3cST',#5,'PL10*234',$,$,$,$,$,$,.NOTDEFINED.);
#730= IFCPROPERTYSINGLEVALUE('Bottom elevation',$,IFCLABEL(' +16.638'),$);
#731= IFCPROPERTYSINGLEVALUE('Top elevation',$,IFCLABEL(' +16.872'),$);
#732= IFCPROPERTYSINGLEVALUE('Initial GUID',$,$,$);
#733= IFCPROPERTYSINGLEVALUE('Preliminary mark',$,IFCLABEL('5-2-P96'),$);
#734= IFCPROPERTYSINGLEVALUE('Phase',$,IFCINTEGER(4),$);
#735= IFCPROPERTYSINGLEVALUE('Class',$,IFCLABEL('22'),$);
#736= IFCPROPERTYSET('3ZtG3FYqj4aPxZ7i$M81Ux',#5,'Tekla Common','Common Properties to Shared building elements',(#730,#731,#732,#733,#734,#735));
#737= IFCPROPERTYSINGLEVALUE('Weight',$,IFCMASSMEASURE(6.5),$);
#738= IFCPROPERTYSINGLEVALUE('Volume',$,IFCVOLUMEMEASURE(0.001),$);
#739= IFCPROPERTYSINGLEVALUE('Gross footprint area',$,IFCAREAMEASURE(0.004),$);
#740= IFCPROPERTYSINGLEVALUE('Area per tons',$,IFCAREAMEASURE(27.286),$);
#741= IFCPROPERTYSINGLEVALUE('Net surface area',$,IFCAREAMEASURE(0.177),$);
#742= IFCPROPERTYSINGLEVALUE('Height',$,IFCLENGTHMEASURE(234.),$);
#743= IFCPROPERTYSINGLEVALUE('Width',$,IFCLENGTHMEASURE(10.),$);
#744= IFCPROPERTYSINGLEVALUE('Length',$,IFCLENGTHMEASURE(354.),$);
#745= IFCPROPERTYSET('1_9Ioyw0X2ReXfMNaUeoZ$',#5,'Tekla Quantity','Quantity Properties to Shared building elements',(#737,#738,#739,#740,#741,#742,#743,#744));
#746= IFCPROPERTYSINGLEVALUE('LoadBearing',$,IFCBOOLEAN(.F.),$);
#747= IFCPROPERTYSINGLEVALUE('Reference',$,IFCIDENTIFIER('5-2-P96'),$);
#748= IFCPROPERTYSET('0stvVHmL5EWQm4u2yZ6K23',#5,'Pset_PlateCommon','Common Properties to plate elements',(#746,#747));
#749= IFCQUANTITYLENGTH('Width',$,$,234.);
#750= IFCQUANTITYAREA('NetArea',$,$,0.177431999999965);
#751= IFCQUANTITYAREA('GrossArea',$,$,0.0828359999999672);
#752= IFCQUANTITYAREA('CrossSectionArea',$,$,0.0001);
#753= IFCQUANTITYVOLUME('NetVolume',$,$,0.000828360000000306);
#754= IFCQUANTITYVOLUME('GrossVolume',$,$,0.000828360000000306);
#755= IFCELEMENTQUANTITY('2C9uxGYtn9qPSET$J3nrwW',#5,'BaseQuantities',$,$,(#749,#750,#751,#752,#753,#754));
#756= IFCMATERIAL('STEEL/S275');
#757= IFCCARTESIANPOINT((87.5230026244967,-4.99999999999906,234.));
#758= IFCCARTESIANPOINT((87.5230026244967,-4.99999999999906,0.));
#759= IFCCARTESIANPOINT((87.5230026244958,5.00000000000139,0.));
#760= IFCCARTESIANPOINT((87.5230026244958,5.00000000000139,234.));
#761= IFCPOLYLOOP((#757,#758,#759,#760));
#762= IFCFACEOUTERBOUND(#761,.T.);
#763= IFCFACE((#762));
#764= IFCCARTESIANPOINT((8.47053797991566,-5.0000000000002,234.));
#765= IFCCARTESIANPOINT((8.47053797991566,-5.0000000000002,0.));
#766= IFCPOLYLOOP((#758,#757,#764,#765));
#767= IFCFACEOUTERBOUND(#766,.T.);
#768= IFCFACE((#767));
#769= IFCCARTESIANPOINT((5.13948431869721,5.00000000000048,0.));
#770= IFCPOLYLOOP((#759,#758,#765,#769));
#771= IFCFACEOUTERBOUND(#770,.T.);
#772= IFCFACE((#771));
#773= IFCCARTESIANPOINT((5.13948431869721,5.00000000000048,234.));
#774= IFCPOLYLOOP((#760,#759,#769,#773));
#775= IFCFACEOUTERBOUND(#774,.T.);
#776= IFCFACE((#775));
#777= IFCPOLYLOOP((#757,#760,#773,#764));
#778= IFCFACEOUTERBOUND(#777,.T.);
#779= IFCFACE((#778));
#780= IFCPOLYLOOP((#769,#765,#764,#773));
#781= IFCFACEOUTERBOUND(#780,.T.);
#782= IFCFACE((#781));
#783= IFCCLOSEDSHELL((#763,#768,#772,#776,#779,#782));
#784= IFCFACETEDBREP(#783);
#785= IFCSTYLEDITEM(#784,(#692),$);
#786= IFCSHAPEREPRESENTATION(#12,'Body','Brep',(#784));
#787= IFCPRODUCTDEFINITIONSHAPE($,$,(#786));
#788= IFCCARTESIANPOINT((1432.59229301005,-3690.54671610453,16871.9995422363));
#789= IFCDIRECTION((0.316107840890319,-0.948723264670821,0.));
#790= IFCAXIS2PLACEMENT3D(#788,#676,#789);
#791= IFCLOCALPLACEMENT(#42,#790);
#792= IFCPLATE('2EUcffgl19C80dvWZZi2nc',#598,'PLATE-10','PL10*82.4',$,#791,#787,'ID8e7a6a69-aaf0-4930-8027-e608e3b02c66');
#793= IFCPLATETYPE('2fSq_5XDbCheM8kLiTOje5',#5,'PL10*82.4',$,$,$,$,$,$,.NOTDEFINED.);
#794= IFCPROPERTYSINGLEVALUE('Preliminary mark',$,IFCLABEL('5-2-P90'),$);
#795= IFCPROPERTYSET('29ZZzOmCj5JQbBDWL2_sDd',#5,'Tekla Common','Common Properties to Shared building elements',(#730,#731,#732,#794,#734,#735));
#796= IFCPROPERTYSINGLEVALUE('Weight',$,IFCMASSMEASURE(1.48),$);
#797= IFCPROPERTYSINGLEVALUE('Volume',$,IFCVOLUMEMEASURE(0.),$);
#798= IFCPROPERTYSINGLEVALUE('Gross footprint area',$,IFCAREAMEASURE(0.001),$);
#799= IFCPROPERTYSINGLEVALUE('Area per tons',$,IFCAREAMEASURE(29.808),$);
#800= IFCPROPERTYSINGLEVALUE('Net surface area',$,IFCAREAMEASURE(0.044),$);
#801= IFCPROPERTYSINGLEVALUE('Height',$,IFCLENGTHMEASURE(82.4),$);
#802= IFCPROPERTYSINGLEVALUE('Length',$,IFCLENGTHMEASURE(234.),$);
#803= IFCPROPERTYSET('2hRWXeq9X2lQusXxPnKBdz',#5,'Tekla Quantity','Quantity Properties to Shared building elements',(#796,#797,#798,#799,#800,#801,#743,#802));
#804= IFCPROPERTYSINGLEVALUE('Reference',$,IFCIDENTIFIER('5-2-P90'),$);
#805= IFCPROPERTYSET('0VvW1CLu5DbureYVwTkCXt',#5,'Pset_PlateCommon','Common Properties to plate elements',(#746,#804));
#806= IFCQUANTITYLENGTH('Width',$,$,82.3835183057854);
#807= IFCQUANTITYAREA('NetArea',$,$,0.0441967877771744);
#808= IFCQUANTITYAREA('GrossArea',$,$,0.0192777432835538);
#809= IFCQUANTITYVOLUME('NetVolume',$,$,0.000188880100051977);
#810= IFCQUANTITYVOLUME('GrossVolume',$,$,0.000204803826141357);
#811= IFCELEMENTQUANTITY('0Uz$cHMSH1FxLNwSID6ci3',#5,'BaseQuantities',$,$,(#806,#807,#808,#752,#809,#810));
#812= IFCCOLOURRGB('Light Green',0.356862745098039,0.592156862745098,0.137254901960784);
#813= IFCSURFACESTYLERENDERING(#812,0.,$,$,$,$,IFCNORMALISEDRATIOMEASURE(0.00390625),IFCSPECULAREXPONENT(10.),.NOTDEFINED.);
#814= IFCSURFACESTYLE('STEEL/S275',.POSITIVE.,(#813));
#815= IFCPRESENTATIONSTYLEASSIGNMENT((#814));
#816= IFCCARTESIANPOINT((-2.27373675443232E-13,-4.00000000000091,0.));
#817= IFCCARTESIANPOINT((-2.27373675443232E-13,-4.00000000000091,234.));
#818= IFCCARTESIANPOINT((4.54747350886464E-13,4.00000000000091,234.));
#819= IFCCARTESIANPOINT((4.54747350886464E-13,4.00000000000091,0.));
#820= IFCPOLYLOOP((#816,#817,#818,#819));
#821= IFCFACEOUTERBOUND(#820,.T.);
#822= IFCFACE((#821));
#823= IFCCARTESIANPOINT((316.999999999992,-3.99999999995725,234.));
#824= IFCCARTESIANPOINT((316.999999999993,4.00000000004457,234.));
#825= IFCPOLYLOOP((#817,#823,#824,#818));
#826= IFCFACEOUTERBOUND(#825,.T.);
#827= IFCFACE((#826));
#828= IFCCARTESIANPOINT((316.999999999992,-3.99999999995725,0.));
#829= IFCCARTESIANPOINT((316.999999999993,4.00000000004457,0.));
#830= IFCPOLYLOOP((#823,#828,#829,#824));
#831= IFCFACEOUTERBOUND(#830,.T.);
#832= IFCFACE((#831));
#833= IFCPOLYLOOP((#828,#816,#819,#829));
#834= IFCFACEOUTERBOUND(#833,.T.);
#835= IFCFACE((#834));
#836= IFCPOLYLOOP((#824,#829,#819,#818));
#837= IFCFACEOUTERBOUND(#836,.T.);
#838= IFCFACE((#837));
#839= IFCPOLYLOOP((#828,#823,#817,#816));
#840= IFCFACEOUTERBOUND(#839,.T.);
#841= IFCFACE((#840));
#842= IFCCLOSEDSHELL((#822,#827,#832,#835,#838,#841));
#843= IFCFACETEDBREP(#842);
#844= IFCSTYLEDITEM(#843,(#815),$);
#845= IFCSHAPEREPRESENTATION(#12,'Body','Brep',(#843));
#846= IFCPRODUCTDEFINITIONSHAPE($,$,(#845));
#847= IFCCARTESIANPOINT((1123.02388469557,-3693.00274644058,16871.9995422363));
#848= IFCDIRECTION((0.999999999998887,-1.49199999991186E-06,0.));
#849= IFCAXIS2PLACEMENT3D(#847,#676,#848);
#850= IFCLOCALPLACEMENT(#42,#849);
#851= IFCPLATE('3w9$1_tzn1_xkuvWvDeyPN',#245,'PLATE-8','PL8*234',$,#850,#846,'IDfa27f07e-dfdc-41fb-bbb8-e60e4da3c657');
#852= IFCPLATETYPE('1xdFBEL19EN80gxHy5u4Ua',#5,'PL8*234',$,$,$,$,$,$,.NOTDEFINED.);
#853= IFCPROPERTYSINGLEVALUE('Preliminary mark',$,IFCLABEL('5-2-P78'),$);
#854= IFCPROPERTYSINGLEVALUE('Class',$,IFCLABEL('17'),$);
#855= IFCPROPERTYSET('33tZANV_XCXRh6R19gNypT',#5,'Tekla Common','Common Properties to Shared building elements',(#730,#731,#732,#853,#734,#854));
#856= IFCPROPERTYSINGLEVALUE('Weight',$,IFCMASSMEASURE(4.66),$);
#857= IFCPROPERTYSINGLEVALUE('Gross footprint area',$,IFCAREAMEASURE(0.003),$);
#858= IFCPROPERTYSINGLEVALUE('Area per tons',$,IFCAREAMEASURE(33.74),$);
#859= IFCPROPERTYSINGLEVALUE('Net surface area',$,IFCAREAMEASURE(0.157),$);
#860= IFCPROPERTYSINGLEVALUE('Width',$,IFCLENGTHMEASURE(8.),$);
#861= IFCPROPERTYSINGLEVALUE('Length',$,IFCLENGTHMEASURE(317.),$);
#862= IFCPROPERTYSET('18hBHKzWXCoAJVEV756D$b',#5,'Tekla Quantity','Quantity Properties to Shared building elements',(#856,#738,#857,#858,#859,#742,#860,#861));
#863= IFCPROPERTYSINGLEVALUE('Reference',$,IFCIDENTIFIER('5-2-P78'),$);
#864= IFCPROPERTYSET('2$AaVqE9T5jwLRQs9bMEbB',#5,'Pset_PlateCommon','Common Properties to plate elements',(#746,#863));
#865= IFCQUANTITYAREA('NetArea',$,$,0.157172);
#866= IFCQUANTITYAREA('GrossArea',$,$,0.074178);
#867= IFCQUANTITYAREA('CrossSectionArea',$,$,6.4E-05);
#868= IFCQUANTITYVOLUME('NetVolume',$,$,0.000593424);
#869= IFCQUANTITYVOLUME('GrossVolume',$,$,0.000593424);
#870= IFCELEMENTQUANTITY('1RT41xpxP7zgeSPEzz$ygl',#5,'BaseQuantities',$,$,(#749,#865,#866,#867,#868,#869));
#871= IFCSHAPEREPRESENTATION(#12,'Body','Brep',(#843));
#872= IFCPRODUCTDEFINITIONSHAPE($,$,(#871));
#873= IFCCARTESIANPOINT((1123.00272569539,-3331.00274658201,16871.9995422363));
#874= IFCAXIS2PLACEMENT3D(#873,#676,#848);
#875= IFCLOCALPLACEMENT(#42,#874);
#876= IFCPLATE('0dMiMSThH5kfXJJ2AweOf2',#245,'PLATE-8','PL8*234',$,#875,#872,'ID275ac59c-76b4-45ba-9853-4c22baa18a42');
#877= IFCCARTESIANPOINT((334.,-4.,234.));
#878= IFCCARTESIANPOINT((334.,4.,234.));
#879= IFCPOLYLOOP((#817,#877,#878,#818));
#880= IFCFACEOUTERBOUND(#879,.T.);
#881= IFCFACE((#880));
#882= IFCCARTESIANPOINT((334.,-4.,0.));
#883= IFCCARTESIANPOINT((334.,4.,0.));
#884= IFCPOLYLOOP((#877,#882,#883,#878));
#885= IFCFACEOUTERBOUND(#884,.T.);
#886= IFCFACE((#885));
#887= IFCPOLYLOOP((#882,#816,#819,#883));
#888= IFCFACEOUTERBOUND(#887,.T.);
#889= IFCFACE((#888));
#890= IFCPOLYLOOP((#878,#883,#819,#818));
#891= IFCFACEOUTERBOUND(#890,.T.);
#892= IFCFACE((#891));
#893= IFCPOLYLOOP((#882,#877,#817,#816));
#894= IFCFACEOUTERBOUND(#893,.T.);
#895= IFCFACE((#894));
#896= IFCCLOSEDSHELL((#822,#881,#886,#889,#892,#895));
#897= IFCFACETEDBREP(#896);
#898= IFCSTYLEDITEM(#897,(#815),$);
#899= IFCSHAPEREPRESENTATION(#12,'Body','Brep',(#897));
#900= IFCPRODUCTDEFINITIONSHAPE($,$,(#899));
#901= IFCCARTESIANPOINT((1457.00274658203,-6798.,16871.9995422363));
#902= IFCDIRECTION((-1.,0.,0.));
#903= IFCAXIS2PLACEMENT3D(#901,#676,#902);
#904= IFCLOCALPLACEMENT(#42,#903);
#905= IFCPLATE('0GcXRlLAv5Wv_FQDGYRUv4',#245,'PLATE-8','PL8*234',$,#904,#900,'ID109a16ef-54ae-4583-9f8f-68d4226dee44');
#906= IFCPROPERTYSINGLEVALUE('Preliminary mark',$,IFCLABEL('5-2-P76'),$);
#907= IFCPROPERTYSET('2Y4vm4pOXAEfMOTNNVJvpc',#5,'Tekla Common','Common Properties to Shared building elements',(#730,#731,#732,#906,#734,#854));
#908= IFCPROPERTYSINGLEVALUE('Weight',$,IFCMASSMEASURE(4.91),$);
#909= IFCPROPERTYSINGLEVALUE('Area per tons',$,IFCAREAMEASURE(33.699),$);
#910= IFCPROPERTYSINGLEVALUE('Net surface area',$,IFCAREAMEASURE(0.165),$);
#911= IFCPROPERTYSINGLEVALUE('Length',$,IFCLENGTHMEASURE(334.),$);
#912= IFCPROPERTYSET('3CiM5Im_TBUhT4jDUznd$J',#5,'Tekla Quantity','Quantity Properties to Shared building elements',(#908,#738,#857,#909,#910,#742,#860,#911));
#913= IFCPROPERTYSINGLEVALUE('Reference',$,IFCIDENTIFIER('5-2-P76'),$);
#914= IFCPROPERTYSET('0CrK$SrsHB9g6fRxQRjZR7',#5,'Pset_PlateCommon','Common Properties to plate elements',(#746,#913));
#915= IFCQUANTITYAREA('NetArea',$,$,0.1654);
#916= IFCQUANTITYAREA('GrossArea',$,$,0.078156);
#917= IFCQUANTITYVOLUME('NetVolume',$,$,0.000625248);
#918= IFCQUANTITYVOLUME('GrossVolume',$,$,0.000625248);
#919= IFCELEMENTQUANTITY('35UQDWfqL5ZfHWYNgO910W',#5,'BaseQuantities',$,$,(#749,#915,#916,#867,#917,#918));
#920= IFCCARTESIANPOINT((3064.00028105808,117.,-167.));
#921= IFCCARTESIANPOINT((3037.33321451106,117.,-167.));
#922= IFCCARTESIANPOINT((3039.99832446748,117.,-175.));
#923= IFCPOLYLOOP((#920,#921,#922));
#924= IFCFACEOUTERBOUND(#923,.T.);
#925= IFCFACE((#924));
#926= IFCCARTESIANPOINT((3037.33321451106,-117.,-167.));
#927= IFCCARTESIANPOINT((3039.99832446748,-117.,-175.));
#928= IFCPOLYLOOP((#922,#921,#926,#927));
#929= IFCFACEOUTERBOUND(#928,.T.);
#930= IFCFACE((#929));
#931= IFCCARTESIANPOINT((3064.00028108515,-117.,-167.));
#932= IFCPOLYLOOP((#931,#927,#926));
#933= IFCFACEOUTERBOUND(#932,.T.);
#934= IFCFACE((#933));
#935= IFCCARTESIANPOINT((3494.99725341797,117.,-149.999308904087));
#936= IFCCARTESIANPOINT((3114.99762575745,117.,-149.99930865736));
#937= IFCCARTESIANPOINT((3114.99762575745,125.,-149.99930865736));
#938= IFCCARTESIANPOINT((3494.99725341797,125.,-149.999308904087));
#939= IFCPOLYLOOP((#935,#936,#937,#938));
#940= IFCFACEOUTERBOUND(#939,.T.);
#941= IFCFACE((#940));
#942= IFCCARTESIANPOINT((3039.99832446748,125.,-175.));
#943= IFCCARTESIANPOINT((0.,125.,-175.));
#944= IFCCARTESIANPOINT((0.,125.,175.));
#945= IFCCARTESIANPOINT((3494.99725341797,125.,175.));
#946= IFCPOLYLOOP((#942,#943,#944,#945,#938,#937));
#947= IFCFACEOUTERBOUND(#946,.T.);
#948= IFCFACE((#947));
#949= IFCCARTESIANPOINT((0.,-125.,175.));
#950= IFCCARTESIANPOINT((3494.99725341797,-125.,175.));
#951= IFCPOLYLOOP((#944,#949,#950,#945));
#952= IFCFACEOUTERBOUND(#951,.T.);
#953= IFCFACE((#952));
#954= IFCCARTESIANPOINT((3494.99725341797,-117.,167.));
#955= IFCCARTESIANPOINT((3494.99725341797,117.,167.));
#956= IFCCARTESIANPOINT((3494.99724509572,-125.,-149.999308904087));
#957= IFCCARTESIANPOINT((3494.99725341797,-117.,-149.999308904087));
#958= IFCPOLYLOOP((#954,#955,#935,#938,#945,#950,#956,#957));
#959= IFCFACEOUTERBOUND(#958,.T.);
#960= IFCFACE((#959));
#961= IFCCARTESIANPOINT((0.,-117.,167.));
#962= IFCCARTESIANPOINT((0.,117.,167.));
#963= IFCPOLYLOOP((#961,#962,#955,#954));
#964= IFCFACEOUTERBOUND(#963,.T.);
#965= IFCFACE((#964));
#966= IFCCARTESIANPOINT((0.,-125.,-175.));
#967= IFCPOLYLOOP((#966,#949,#944,#943));
#968= IFCFACEOUTERBOUND(#967,.T.);
#969= IFCCARTESIANPOINT((0.,-117.,-167.));
#970= IFCCARTESIANPOINT((0.,117.,-167.));
#971= IFCPOLYLOOP((#962,#961,#969,#970));
#972= IFCFACEBOUND(#971,.T.);
#973= IFCFACE((#968,#972));
#974= IFCCARTESIANPOINT((3039.99832446748,-125.,-175.));
#975= IFCCARTESIANPOINT((3114.99762575745,-125.,-149.99930865736));
#976= IFCPOLYLOOP((#950,#949,#966,#974,#975,#956));
#977= IFCFACEOUTERBOUND(#976,.T.);
#978= IFCFACE((#977));
#979= IFCCARTESIANPOINT((3114.99762575745,-117.,-149.99930865736));
#980= IFCPOLYLOOP((#956,#975,#979,#957));
#981= IFCFACEOUTERBOUND(#980,.T.);
#982= IFCFACE((#981));
#983= IFCPOLYLOOP((#969,#961,#954,#957,#979,#931,#926));
#984= IFCFACEOUTERBOUND(#983,.T.);
#985= IFCFACE((#984));
#986= IFCPOLYLOOP((#970,#969,#926,#921));
#987= IFCFACEOUTERBOUND(#986,.T.);
#988= IFCFACE((#987));
#989= IFCPOLYLOOP((#936,#935,#955,#962,#970,#921,#920));
#990= IFCFACEOUTERBOUND(#989,.T.);
#991= IFCFACE((#990));
#992= IFCPOLYLOOP((#942,#937,#936,#920,#922));
#993= IFCFACEOUTERBOUND(#992,.T.);
#994= IFCFACE((#993));
#995= IFCPOLYLOOP((#974,#966,#943,#942,#922,#927));
#996= IFCFACEOUTERBOUND(#995,.T.);
#997= IFCFACE((#996));
#998= IFCPOLYLOOP((#979,#975,#974,#927,#931));
#999= IFCFACEOUTERBOUND(#998,.T.);
#1000= IFCFACE((#999));
#1001= IFCCLOSEDSHELL((#925,#930,#934,#941,#948,#953,#960,#965,#973,#978,#982,#985,#988,#991,#994,#997,#1000));
#1002= IFCFACETEDBREP(#1001);
#1003= IFCSTYLEDITEM(#1002,(#815),$);
#1004= IFCSHAPEREPRESENTATION(#12,'Body','Brep',(#1002));
#1005= IFCPRODUCTDEFINITIONSHAPE($,$,(#1004));
#1006= IFCCARTESIANPOINT((1290.00274658203,-6812.,16754.9995422363));
#1007= IFCAXIS2PLACEMENT3D(#1006,#902,#8);
#1008= IFCLOCALPLACEMENT(#42,#1007);
#1009= IFCBEAM('1WAvYWahDB3xe2h11sEEfh',#44,'B1-\S\?\S\Z350x250x8','TUB350X250X8 ',$,#1008,#1005,'ID602b98a0-92b3-4b0f-ba02-ac107638ea6b');
#1010= IFCBEAMTYPE('0Yey6ju2H6zf3WXefMJKwq',#5,'TUB350X250X8 ',$,$,$,$,$,$,.NOTDEFINED.);
#1011= IFCPROPERTYSINGLEVALUE('Bottom elevation',$,IFCLABEL(' +16.630'),$);
#1012= IFCPROPERTYSINGLEVALUE('Top elevation',$,IFCLABEL(' +16.880'),$);
#1013= IFCPROPERTYSINGLEVALUE('Preliminary mark',$,IFCLABEL('5-2-P6'),$);
#1014= IFCPROPERTYSINGLEVALUE('Class',$,IFCLABEL('3'),$);
#1015= IFCPROPERTYSET('0gwAZJ2eL1Ifcx7TQ_os$F',#5,'Tekla Common','Common Properties to Shared building elements',(#1011,#1012,#732,#1013,#734,#1014));
#1016= IFCPROPERTYSINGLEVALUE('Weight',$,IFCMASSMEASURE(248.34),$);
#1017= IFCPROPERTYSINGLEVALUE('Volume',$,IFCVOLUMEMEASURE(0.032),$);
#1018= IFCPROPERTYSINGLEVALUE('Gross footprint area',$,IFCAREAMEASURE(1.213),$);
#1019= IFCPROPERTYSINGLEVALUE('Area per tons',$,IFCAREAMEASURE(16.349),$);
#1020= IFCPROPERTYSINGLEVALUE('Net surface area',$,IFCAREAMEASURE(4.06),$);
#1021= IFCPROPERTYSINGLEVALUE('Height',$,IFCLENGTHMEASURE(350.),$);
#1022= IFCPROPERTYSINGLEVALUE('Width',$,IFCLENGTHMEASURE(250.),$);
#1023= IFCPROPERTYSINGLEVALUE('Length',$,IFCLENGTHMEASURE(3495.),$);
#1024= IFCPROPERTYSET('0519KVGsvCePVaPix83RM_',#5,'Tekla Quantity','Quantity Properties to Shared building elements',(#1016,#1017,#1018,#1019,#1020,#1021,#1022,#1023));
#1025= IFCPROPERTYSINGLEVALUE('Reference',$,IFCIDENTIFIER('5-2-P6'),$);
#1026= IFCPROPERTYSET('2$QI2JgErEnvt6opDFpux4',#5,'Pset_BeamCommon','Common Properties to beam elements',(#746,#1025));
#1027= IFCQUANTITYLENGTH('Length',$,$,3494.99725341797);
#1028= IFCQUANTITYAREA('OuterSurfaceArea',$,$,4.0601815450799);
#1029= IFCQUANTITYVOLUME('NetVolume',$,$,0.0316359975569613);
#1030= IFCQUANTITYWEIGHT('NetWeight',$,$,248.342580822146);
#1031= IFCELEMENTQUANTITY('3CPE49WSj9JvqwpSJOW4U3',#5,'BaseQuantities',$,$,(#1027,#1028,#1029,#1030));
#1032= IFCCOLOURRGB('Light Magenta',0.686274509803922,0.505882352941176,0.752941176470588);
#1033= IFCSURFACESTYLERENDERING(#1032,0.,$,$,$,$,IFCNORMALISEDRATIOMEASURE(0.00390625),IFCSPECULAREXPONENT(10.),.NOTDEFINED.);
#1034= IFCSURFACESTYLE('STEEL/S275',.POSITIVE.,(#1033));
#1035= IFCPRESENTATIONSTYLEASSIGNMENT((#1034));
#1036= IFCCARTESIANPOINT((88.,5.99999999983265,188.));
#1037= IFCCARTESIANPOINT((74.,-8.00000000015643,174.));
#1038= IFCCARTESIANPOINT((74.,-8.00000000001455,14.0000000000002));
#1039= IFCCARTESIANPOINT((88.,6.,0.));
#1040= IFCPOLYLOOP((#1036,#1037,#1038,#1039));
#1041= IFCFACEOUTERBOUND(#1040,.T.);
#1042= IFCFACE((#1041));
#1043= IFCCARTESIANPOINT((14.,-8.00000000001455,14.0000000000002));
#1044= IFCCARTESIANPOINT((0.,6.,0.));
#1045= IFCPOLYLOOP((#1043,#1044,#1039,#1038));
#1046= IFCFACEOUTERBOUND(#1045,.T.);
#1047= IFCFACE((#1046));
#1048= IFCCARTESIANPOINT((14.,-8.00000000015643,174.));
#1049= IFCCARTESIANPOINT((0.,5.99999999983265,188.));
#1050= IFCPOLYLOOP((#1048,#1049,#1044,#1043));
#1051= IFCFACEOUTERBOUND(#1050,.T.);
#1052= IFCFACE((#1051));
#1053= IFCPOLYLOOP((#1049,#1048,#1037,#1036));
#1054= IFCFACEOUTERBOUND(#1053,.T.);
#1055= IFCFACE((#1054));
#1056= IFCCARTESIANPOINT((0.,7.99999999983265,188.));
#1057= IFCCARTESIANPOINT((0.,8.,-2.27373675443232E-13));
#1058= IFCPOLYLOOP((#1056,#1057,#1044,#1049));
#1059= IFCFACEOUTERBOUND(#1058,.T.);
#1060= IFCFACE((#1059));
#1061= IFCCARTESIANPOINT((88.,7.99999999983265,188.));
#1062= IFCPOLYLOOP((#1061,#1056,#1049,#1036));
#1063= IFCFACEOUTERBOUND(#1062,.T.);
#1064= IFCFACE((#1063));
#1065= IFCCARTESIANPOINT((88.,8.,-2.27373675443232E-13));
#1066= IFCPOLYLOOP((#1065,#1061,#1036,#1039));
#1067= IFCFACEOUTERBOUND(#1066,.T.);
#1068= IFCFACE((#1067));
#1069= IFCPOLYLOOP((#1057,#1065,#1039,#1044));
#1070= IFCFACEOUTERBOUND(#1069,.T.);
#1071= IFCFACE((#1070));
#1072= IFCPOLYLOOP((#1061,#1065,#1057,#1056));
#1073= IFCFACEOUTERBOUND(#1072,.T.);
#1074= IFCFACE((#1073));
#1075= IFCPOLYLOOP((#1048,#1043,#1038,#1037));
#1076= IFCFACEOUTERBOUND(#1075,.T.);
#1077= IFCFACE((#1076));
#1078= IFCCLOSEDSHELL((#1042,#1047,#1052,#1055,#1060,#1064,#1068,#1071,#1074,#1077));
#1079= IFCFACETEDBREP(#1078);
#1080= IFCSTYLEDITEM(#1079,(#1035),$);
#1081= IFCSHAPEREPRESENTATION(#12,'Body','Brep',(#1079));
#1082= IFCPRODUCTDEFINITIONSHAPE($,$,(#1081));
#1083= IFCCARTESIANPOINT((1611.00297062978,-6583.00143939828,19331.9996963098));
#1084= IFCDIRECTION((0.,-1.,0.));
#1085= IFCAXIS2PLACEMENT3D(#1083,#7,#1084);
#1086= IFCLOCALPLACEMENT(#42,#1085);
#1087= IFCPLATE('0HjHc$s21B0gSykP31asuI',#245,'PLATE-8','PL16*88',$,#1086,#1082,'ID11b519bf-d820-4b02-a73c-b990c1936e12');
#1088= IFCPLATETYPE('05fKQ5Jp14_Puocd1xJWvd',#5,'PL16*88',$,$,$,$,$,$,.NOTDEFINED.);
#1089= IFCPROPERTYSINGLEVALUE('Bottom elevation',$,IFCLABEL(' +19.324'),$);
#1090= IFCPROPERTYSINGLEVALUE('Top elevation',$,IFCLABEL(' +19.340'),$);
#1091= IFCPROPERTYSINGLEVALUE('Preliminary mark',$,IFCLABEL('5-2-P77(?)'),$);
#1092= IFCPROPERTYSINGLEVALUE('Class',$,IFCLABEL('12'),$);
#1093= IFCPROPERTYSET('3N9NobIGX2XO4EhfUvYlwS',#5,'Tekla Common','Common Properties to Shared building elements',(#1089,#1090,#732,#1091,#734,#1092));
#1094= IFCPROPERTYSINGLEVALUE('Weight',$,IFCMASSMEASURE(1.68),$);
#1095= IFCPROPERTYSINGLEVALUE('Gross footprint area',$,IFCAREAMEASURE(0.017),$);
#1096= IFCPROPERTYSINGLEVALUE('Area per tons',$,IFCAREAMEASURE(22.038),$);
#1097= IFCPROPERTYSINGLEVALUE('Net surface area',$,IFCAREAMEASURE(0.037),$);
#1098= IFCPROPERTYSINGLEVALUE('Height',$,IFCLENGTHMEASURE(88.),$);
#1099= IFCPROPERTYSINGLEVALUE('Width',$,IFCLENGTHMEASURE(16.),$);
#1100= IFCPROPERTYSINGLEVALUE('Length',$,IFCLENGTHMEASURE(188.),$);
#1101= IFCPROPERTYSET('3alh_bNg5C9h4xBNFAwrpf',#5,'Tekla Quantity','Quantity Properties to Shared building elements',(#1094,#797,#1095,#1096,#1097,#1098,#1099,#1100));
#1102= IFCPROPERTYSINGLEVALUE('Reference',$,IFCIDENTIFIER('5-2-P77'),$);
#1103= IFCPROPERTYSET('2wK$Thu2b2ofv6kkCdnKK6',#5,'Pset_PlateCommon','Common Properties to plate elements',(#746,#1102));
#1104= IFCQUANTITYLENGTH('Width',$,$,88.);
#1105= IFCQUANTITYAREA('NetArea',$,$,0.0370682989771188);
#1106= IFCQUANTITYAREA('GrossArea',$,$,0.0165440000000002);
#1107= IFCQUANTITYAREA('CrossSectionArea',$,$,0.000256);
#1108= IFCQUANTITYVOLUME('NetVolume',$,$,0.000214266666665837);
#1109= IFCQUANTITYVOLUME('GrossVolume',$,$,0.000264704);
#1110= IFCELEMENTQUANTITY('3q8XUEm3LByuyqd5l_RtLI',#5,'BaseQuantities',$,$,(#1104,#1105,#1106,#1107,#1108,#1109));
#1111= IFCCARTESIANPOINT((0.,-4.,20.));
#1112= IFCCARTESIANPOINT((0.,-4.,50.));
#1113= IFCCARTESIANPOINT((0.,4.,50.));
#1114= IFCCARTESIANPOINT((0.,4.,20.));
#1115= IFCPOLYLOOP((#1111,#1112,#1113,#1114));
#1116= IFCFACEOUTERBOUND(#1115,.T.);
#1117= IFCFACE((#1116));
#1118= IFCCARTESIANPOINT((25.,-4.,50.));
#1119= IFCCARTESIANPOINT((25.,4.,50.));
#1120= IFCPOLYLOOP((#1112,#1118,#1119,#1113));
#1121= IFCFACEOUTERBOUND(#1120,.T.);
#1122= IFCFACE((#1121));
#1123= IFCCARTESIANPOINT((39.,-4.,15.));
#1124= IFCCARTESIANPOINT((39.,4.,15.));
#1125= IFCPOLYLOOP((#1118,#1123,#1124,#1119));
#1126= IFCFACEOUTERBOUND(#1125,.T.);
#1127= IFCFACE((#1126));
#1128= IFCCARTESIANPOINT((39.,-4.,0.));
#1129= IFCCARTESIANPOINT((39.,4.,0.));
#1130= IFCPOLYLOOP((#1123,#1128,#1129,#1124));
#1131= IFCFACEOUTERBOUND(#1130,.T.);
#1132= IFCFACE((#1131));
#1133= IFCCARTESIANPOINT((20.,-4.,0.));
#1134= IFCCARTESIANPOINT((20.,4.,0.));
#1135= IFCPOLYLOOP((#1128,#1133,#1134,#1129));
#1136= IFCFACEOUTERBOUND(#1135,.T.);
#1137= IFCFACE((#1136));
#1138= IFCCARTESIANPOINT((19.6157056080647,-4.,3.9018064403208));
#1139= IFCCARTESIANPOINT((19.6157056080647,4.,3.9018064403208));
#1140= IFCPOLYLOOP((#1133,#1138,#1139,#1134));
#1141= IFCFACEOUTERBOUND(#1140,.T.);
#1142= IFCFACE((#1141));
#1143= IFCCARTESIANPOINT((18.4775906502255,-4.,7.65366864730095));
#1144= IFCCARTESIANPOINT((18.4775906502255,4.,7.65366864730095));
#1145= IFCPOLYLOOP((#1138,#1143,#1144,#1139));
#1146= IFCFACEOUTERBOUND(#1145,.T.);
#1147= IFCFACE((#1146));
#1148= IFCCARTESIANPOINT((16.6293922460509,-4.,11.1114046603907));
#1149= IFCCARTESIANPOINT((16.6293922460509,4.,11.1114046603907));
#1150= IFCPOLYLOOP((#1143,#1148,#1149,#1144));
#1151= IFCFACEOUTERBOUND(#1150,.T.);
#1152= IFCFACE((#1151));
#1153= IFCCARTESIANPOINT((14.1421356237306,-4.,14.1421356237297));
#1154= IFCCARTESIANPOINT((14.1421356237306,4.,14.1421356237297));
#1155= IFCPOLYLOOP((#1148,#1153,#1154,#1149));
#1156= IFCFACEOUTERBOUND(#1155,.T.);
#1157= IFCFACE((#1156));
#1158= IFCCARTESIANPOINT((11.1114046603916,-4.,16.62939224605));
#1159= IFCCARTESIANPOINT((11.1114046603916,4.,16.62939224605));
#1160= IFCPOLYLOOP((#1153,#1158,#1159,#1154));
#1161= IFCFACEOUTERBOUND(#1160,.T.);
#1162= IFCFACE((#1161));
#1163= IFCCARTESIANPOINT((7.65366864730186,-4.,18.4775906502255));
#1164= IFCCARTESIANPOINT((7.65366864730186,4.,18.4775906502255));
#1165= IFCPOLYLOOP((#1158,#1163,#1164,#1159));
#1166= IFCFACEOUTERBOUND(#1165,.T.);
#1167= IFCFACE((#1166));
#1168= IFCCARTESIANPOINT((3.90180644032262,-4.,19.6157056080629));
#1169= IFCCARTESIANPOINT((3.90180644032262,4.,19.6157056080629));
#1170= IFCPOLYLOOP((#1163,#1168,#1169,#1164));
#1171= IFCFACEOUTERBOUND(#1170,.T.);
#1172= IFCFACE((#1171));
#1173= IFCPOLYLOOP((#1168,#1111,#1114,#1169));
#1174= IFCFACEOUTERBOUND(#1173,.T.);
#1175= IFCFACE((#1174));
#1176= IFCPOLYLOOP((#1119,#1124,#1129,#1134,#1139,#1144,#1149,#1154,#1159,#1164,#1169,#1114,#1113));
#1177= IFCFACEOUTERBOUND(#1176,.T.);
#1178= IFCFACE((#1177));
#1179= IFCPOLYLOOP((#1168,#1163,#1158,#1153,#1148,#1143,#1138,#1133,#1128,#1123,#1118,#1112,#1111));
#1180= IFCFACEOUTERBOUND(#1179,.T.);
#1181= IFCFACE((#1180));
#1182= IFCCLOSEDSHELL((#1117,#1122,#1127,#1132,#1137,#1142,#1147,#1152,#1157,#1162,#1167,#1172,#1175,#1178,#1181));
#1183= IFCFACETEDBREP(#1182);
#1184= IFCSTYLEDITEM(#1183,(#1035),$);
#1185= IFCSHAPEREPRESENTATION(#12,'Body','Brep',(#1183));
#1186= IFCPRODUCTDEFINITIONSHAPE($,$,(#1185));
#1187= IFCCARTESIANPOINT((1790.99837029004,-6616.00031467168,19339.9353390093));
#1188= IFCAXIS2PLACEMENT3D(#1187,#9,#8);
#1189= IFCLOCALPLACEMENT(#42,#1188);
#1190= IFCPLATE('0V5EPulN1D7ArQmvIuoqWF',#598,'PLATE-8','PL8*39',$,#1189,#1186,'ID1f14e678-bd70-4d1c-ad5a-c394b8cb480f');
#1191= IFCPLATETYPE('3cTiMxMX5FAxv54qdOVp5h',#5,'PL8*39',$,$,$,$,$,$,.NOTDEFINED.);
#1192= IFCPROPERTYSINGLEVALUE('Bottom elevation',$,IFCLABEL(' +19.340'),$);
#1193= IFCPROPERTYSINGLEVALUE('Top elevation',$,IFCLABEL(' +19.390'),$);
#1194= IFCPROPERTYSINGLEVALUE('Preliminary mark',$,IFCLABEL('5-2-P64'),$);
#1195= IFCPROPERTYSET('3DitE0rn1Ctf4Wkg$AVOq_',#5,'Tekla Common','Common Properties to Shared building elements',(#1192,#1193,#732,#1194,#734,#1092));
#1196= IFCPROPERTYSINGLEVALUE('Weight',$,IFCMASSMEASURE(0.09),$);
#1197= IFCPROPERTYSINGLEVALUE('Gross footprint area',$,IFCAREAMEASURE(0.),$);
#1198= IFCPROPERTYSINGLEVALUE('Area per tons',$,IFCAREAMEASURE(46.303),$);
#1199= IFCPROPERTYSINGLEVALUE('Net surface area',$,IFCAREAMEASURE(0.004),$);
#1200= IFCPROPERTYSINGLEVALUE('Height',$,IFCLENGTHMEASURE(39.),$);
#1201= IFCPROPERTYSINGLEVALUE('Length',$,IFCLENGTHMEASURE(50.),$);
#1202= IFCPROPERTYSET('1h5KhMntr4FQnXDmjBiZlv',#5,'Tekla Quantity','Quantity Properties to Shared building elements',(#1196,#797,#1197,#1198,#1199,#1200,#860,#1201));
#1203= IFCPROPERTYSINGLEVALUE('Reference',$,IFCIDENTIFIER('5-2-P64'),$);
#1204= IFCPROPERTYSET('0HAk137abBUgsiD4dO7ty4',#5,'Pset_PlateCommon','Common Properties to plate elements',(#746,#1203));
#1205= IFCQUANTITYLENGTH('Width',$,$,39.);
#1206= IFCQUANTITYAREA('NetArea',$,$,0.00405020407799157);
#1207= IFCQUANTITYAREA('GrossArea',$,$,0.00195000000000043);
#1208= IFCQUANTITYVOLUME('NetVolume',$,$,1.11428438781501E-05);
#1209= IFCQUANTITYVOLUME('GrossVolume',$,$,1.11428438781501E-05);
#1210= IFCELEMENTQUANTITY('2fJ5IkpIbCbg$mdvz2YggJ',#5,'BaseQuantities',$,$,(#1205,#1206,#1207,#867,#1208,#1209));
#1211= IFCSHAPEREPRESENTATION(#12,'Body','Brep',(#1183));
#1212= IFCPRODUCTDEFINITIONSHAPE($,$,(#1211));
#1213= IFCCARTESIANPOINT((1619.00162970996,-6616.00031467168,19339.935339009));
#1214= IFCAXIS2PLACEMENT3D(#1213,#9,#8);
#1215= IFCLOCALPLACEMENT(#42,#1214);
#1216= IFCPLATE('1WSVUDv_f1m9n5W1mbdCit',#598,'PLATE-8','PL8*39',$,#1215,#1212,'ID6071f78d-e7ea-41c0-9c45-801c259ccb37');
#1217= IFCQUANTITYAREA('NetArea',$,$,0.0040502040779916);
#1218= IFCQUANTITYAREA('GrossArea',$,$,0.0019500000000005);
#1219= IFCQUANTITYVOLUME('NetVolume',$,$,1.11428438781936E-05);
#1220= IFCQUANTITYVOLUME('GrossVolume',$,$,1.11428438781936E-05);
#1221= IFCELEMENTQUANTITY('3ElbXZZzj5Z952NMORrm4P',#5,'BaseQuantities',$,$,(#1205,#1217,#1218,#867,#1219,#1220));
#1222= IFCCARTESIANPOINT((0.,-4.,15.));
#1223= IFCCARTESIANPOINT((0.,4.,15.));
#1224= IFCPOLYLOOP((#816,#1222,#1223,#819));
#1225= IFCFACEOUTERBOUND(#1224,.T.);
#1226= IFCFACE((#1225));
#1227= IFCCARTESIANPOINT((14.,-4.,50.));
#1228= IFCCARTESIANPOINT((14.,4.,50.));
#1229= IFCPOLYLOOP((#1222,#1227,#1228,#1223));
#1230= IFCFACEOUTERBOUND(#1229,.T.);
#1231= IFCFACE((#1230));
#1232= IFCCARTESIANPOINT((39.,-4.,50.));
#1233= IFCCARTESIANPOINT((39.,4.,50.));
#1234= IFCPOLYLOOP((#1227,#1232,#1233,#1228));
#1235= IFCFACEOUTERBOUND(#1234,.T.);
#1236= IFCFACE((#1235));
#1237= IFCCARTESIANPOINT((39.,-4.,20.));
#1238= IFCCARTESIANPOINT((39.,4.,20.));
#1239= IFCPOLYLOOP((#1232,#1237,#1238,#1233));
#1240= IFCFACEOUTERBOUND(#1239,.T.);
#1241= IFCFACE((#1240));
#1242= IFCCARTESIANPOINT((35.0981935596774,-4.,19.6157056080629));
#1243= IFCCARTESIANPOINT((35.0981935596774,4.,19.6157056080629));
#1244= IFCPOLYLOOP((#1237,#1242,#1243,#1238));
#1245= IFCFACEOUTERBOUND(#1244,.T.);
#1246= IFCFACE((#1245));
#1247= IFCCARTESIANPOINT((31.3463313526981,-4.,18.4775906502255));
#1248= IFCCARTESIANPOINT((31.3463313526981,4.,18.4775906502255));
#1249= IFCPOLYLOOP((#1242,#1247,#1248,#1243));
#1250= IFCFACEOUTERBOUND(#1249,.T.);
#1251= IFCFACE((#1250));
#1252= IFCCARTESIANPOINT((27.8885953396084,-4.,16.62939224605));
#1253= IFCCARTESIANPOINT((27.8885953396084,4.,16.62939224605));
#1254= IFCPOLYLOOP((#1247,#1252,#1253,#1248));
#1255= IFCFACEOUTERBOUND(#1254,.T.);
#1256= IFCFACE((#1255));
#1257= IFCCARTESIANPOINT((24.8578643762694,-4.,14.1421356237297));
#1258= IFCCARTESIANPOINT((24.8578643762694,4.,14.1421356237297));
#1259= IFCPOLYLOOP((#1252,#1257,#1258,#1253));
#1260= IFCFACEOUTERBOUND(#1259,.T.);
#1261= IFCFACE((#1260));
#1262= IFCCARTESIANPOINT((22.3706077539491,-4.,11.1114046603907));
#1263= IFCCARTESIANPOINT((22.3706077539491,4.,11.1114046603907));
#1264= IFCPOLYLOOP((#1257,#1262,#1263,#1258));
#1265= IFCFACEOUTERBOUND(#1264,.T.);
#1266= IFCFACE((#1265));
#1267= IFCCARTESIANPOINT((20.5224093497745,-4.,7.65366864730095));
#1268= IFCCARTESIANPOINT((20.5224093497745,4.,7.65366864730095));
#1269= IFCPOLYLOOP((#1262,#1267,#1268,#1263));
#1270= IFCFACEOUTERBOUND(#1269,.T.);
#1271= IFCFACE((#1270));
#1272= IFCCARTESIANPOINT((19.3842943919353,-4.,3.9018064403208));
#1273= IFCCARTESIANPOINT((19.3842943919353,4.,3.9018064403208));
#1274= IFCPOLYLOOP((#1267,#1272,#1273,#1268));
#1275= IFCFACEOUTERBOUND(#1274,.T.);
#1276= IFCFACE((#1275));
#1277= IFCCARTESIANPOINT((19.,-4.,0.));
#1278= IFCCARTESIANPOINT((19.,4.,0.));
#1279= IFCPOLYLOOP((#1272,#1277,#1278,#1273));
#1280= IFCFACEOUTERBOUND(#1279,.T.);
#1281= IFCFACE((#1280));
#1282= IFCPOLYLOOP((#1277,#816,#819,#1278));
#1283= IFCFACEOUTERBOUND(#1282,.T.);
#1284= IFCFACE((#1283));
#1285= IFCPOLYLOOP((#1228,#1233,#1238,#1243,#1248,#1253,#1258,#1263,#1268,#1273,#1278,#819,#1223));
#1286= IFCFACEOUTERBOUND(#1285,.T.);
#1287= IFCFACE((#1286));
#1288= IFCPOLYLOOP((#1277,#1272,#1267,#1262,#1257,#1252,#1247,#1242,#1237,#1232,#1227,#1222,#816));
#1289= IFCFACEOUTERBOUND(#1288,.T.);
#1290= IFCFACE((#1289));
#1291= IFCCLOSEDSHELL((#1226,#1231,#1236,#1241,#1246,#1251,#1256,#1261,#1266,#1271,#1276,#1281,#1284,#1287,#1290));
#1292= IFCFACETEDBREP(#1291);
#1293= IFCSTYLEDITEM(#1292,(#1035),$);
#1294= IFCSHAPEREPRESENTATION(#12,'Body','Brep',(#1292));
#1295= IFCPRODUCTDEFINITIONSHAPE($,$,(#1294));
#1296= IFCCARTESIANPOINT((1790.99837029004,-6677.00031467168,19339.9353390093));
#1297= IFCAXIS2PLACEMENT3D(#1296,#9,#8);
#1298= IFCLOCALPLACEMENT(#42,#1297);
#1299= IFCPLATE('0hp1p6DCv3EACOqUog9Gjm',#598,'PLATE-8','PL8*39',$,#1298,#1295,'ID2bcc1cc6-34ce-4338-a318-d1ecaa250b70');
#1300= IFCQUANTITYVOLUME('NetVolume',$,$,1.11428438781936E-05);
#1301= IFCQUANTITYVOLUME('GrossVolume',$,$,1.11428438781936E-05);
#1302= IFCELEMENTQUANTITY('2NBOEB10vA$fqybadsGrtC',#5,'BaseQuantities',$,$,(#1205,#1217,#1218,#867,#1300,#1301));
#1303= IFCCOLOURRGB('Dark Red',0.752941176470588,0.16078431372549,0.552941176470588);
#1304= IFCSURFACESTYLERENDERING(#1303,0.,$,$,$,$,IFCNORMALISEDRATIOMEASURE(0.00390625),IFCSPECULAREXPONENT(10.),.NOTDEFINED.);
#1305= IFCSURFACESTYLE('STEEL/S275',.POSITIVE.,(#1304));
#1306= IFCPRESENTATIONSTYLEASSIGNMENT((#1305));
#1307= IFCCARTESIANPOINT((111.705215453803,-1.,230.34315490713));
#1308= IFCCARTESIANPOINT((102.428718471303,-11.,226.608639713214));
#1309= IFCCARTESIANPOINT((177.119026215219,-11.,41.0786940255812));
#1310= IFCCARTESIANPOINT((186.395523071238,-1.,44.8132095336814));
#1311= IFCPOLYLOOP((#1307,#1308,#1309,#1310));
#1312= IFCFACEOUTERBOUND(#1311,.T.);
#1313= IFCFACE((#1312));
#1314= IFCCARTESIANPOINT((102.428718471303,11.,226.608639713214));
#1315= IFCCARTESIANPOINT((111.705215453803,1.,230.34315490713));
#1316= IFCCARTESIANPOINT((186.395523071238,1.,44.8132095336814));
#1317= IFCCARTESIANPOINT((177.119026215219,11.,41.0786940255812));
#1318= IFCPOLYLOOP((#1314,#1315,#1316,#1317));
#1319= IFCFACEOUTERBOUND(#1318,.T.);
#1320= IFCFACE((#1319));
#1321= IFCCARTESIANPOINT((-44.4441825981194,-11.,35.6607221718714));
#1322= IFCCARTESIANPOINT((-55.0315895081367,-11.,55.4164276122756));
#1323= IFCCARTESIANPOINT((-55.0315895081367,11.,55.4164276122756));
#1324= IFCCARTESIANPOINT((-44.4441825981194,11.,35.6607221718714));
#1325= IFCPOLYLOOP((#1321,#1322,#1323,#1324));
#1326= IFCFACEOUTERBOUND(#1325,.T.);
#1327= IFCFACE((#1326));
#1328= IFCCARTESIANPOINT((-61.0102329003566,-11.,76.9945401121395));
#1329= IFCCARTESIANPOINT((-61.0102329003566,11.,76.9945401121395));
#1330= IFCPOLYLOOP((#1322,#1328,#1329,#1323));
#1331= IFCFACEOUTERBOUND(#1330,.T.);
#1332= IFCFACE((#1331));
#1333= IFCCARTESIANPOINT((-62.0393646486555,-11.,99.3619271681273));
#1334= IFCCARTESIANPOINT((-62.0393646486555,11.,99.3619271681273));
#1335= IFCPOLYLOOP((#1328,#1333,#1334,#1329));
#1336= IFCFACEOUTERBOUND(#1335,.T.);
#1337= IFCFACE((#1336));
#1338= IFCCARTESIANPOINT((-58.0674200629946,-11.,121.397869899853));
#1339= IFCCARTESIANPOINT((-58.0674200629946,11.,121.397869899853));
#1340= IFCPOLYLOOP((#1333,#1338,#1339,#1334));
#1341= IFCFACEOUTERBOUND(#1340,.T.);
#1342= IFCFACE((#1341));
#1343= IFCCARTESIANPOINT((-49.2934135958785,-11.,141.998256458901));
#1344= IFCCARTESIANPOINT((-49.2934135958785,11.,141.998256458901));
#1345= IFCPOLYLOOP((#1338,#1343,#1344,#1339));
#1346= IFCFACEOUTERBOUND(#1345,.T.);
#1347= IFCFACE((#1346));
#1348= IFCCARTESIANPOINT((-36.1569672147562,-11.,160.130903599988));
#1349= IFCCARTESIANPOINT((-36.1569672147562,11.,160.130903599988));
#1350= IFCPOLYLOOP((#1343,#1348,#1349,#1344));
#1351= IFCFACEOUTERBOUND(#1350,.T.);
#1352= IFCFACE((#1351));
#1353= IFCCARTESIANPOINT((-19.3162831246409,-11.,174.887274266393));
#1354= IFCCARTESIANPOINT((-19.3162831246409,11.,174.887274266393));
#1355= IFCPOLYLOOP((#1348,#1353,#1354,#1349));
#1356= IFCFACEOUTERBOUND(#1355,.T.);
#1357= IFCFACE((#1356));
#1358= IFCCARTESIANPOINT((0.384835481396294,-11.,185.527999877846));
#1359= IFCCARTESIANPOINT((0.384835481396294,11.,185.527999877846));
#1360= IFCPOLYLOOP((#1353,#1358,#1359,#1354));
#1361= IFCFACEOUTERBOUND(#1360,.T.);
#1362= IFCFACE((#1361));
#1363= IFCPOLYLOOP((#1315,#1314,#1359,#1358,#1308,#1307));
#1364= IFCFACEOUTERBOUND(#1363,.T.);
#1365= IFCFACE((#1364));
#1366= IFCPOLYLOOP((#1316,#1315,#1307,#1310));
#1367= IFCFACEOUTERBOUND(#1366,.T.);
#1368= IFCFACE((#1367));
#1369= IFCCARTESIANPOINT((75.0799865722693,-11.,-7.45785655453801E-11));
#1370= IFCCARTESIANPOINT((75.0799865722693,11.,-7.45785655453801E-11));
#1371= IFCPOLYLOOP((#1369,#1370,#1317,#1316,#1310,#1309));
#1372= IFCFACEOUTERBOUND(#1371,.T.);
#1373= IFCFACE((#1372));
#1374= IFCCARTESIANPOINT((53.4994597872683,-11.,-6.05491091665135));
#1375= IFCCARTESIANPOINT((53.4994597872683,11.,-6.05491091665135));
#1376= IFCPOLYLOOP((#1369,#1374,#1375,#1370));
#1377= IFCFACEOUTERBOUND(#1376,.T.);
#1378= IFCFACE((#1377));
#1379= IFCCARTESIANPOINT((31.111572475158,-11.,-7.13360653010659));
#1380= IFCCARTESIANPOINT((31.111572475158,11.,-7.13360653010659));
#1381= IFCPOLYLOOP((#1374,#1379,#1380,#1375));
#1382= IFCFACEOUTERBOUND(#1381,.T.);
#1383= IFCFACE((#1382));
#1384= IFCCARTESIANPOINT((9.04888733781991,-11.,-3.18151758156273));
#1385= IFCCARTESIANPOINT((9.04888733781991,11.,-3.18151758156273));
#1386= IFCPOLYLOOP((#1379,#1384,#1385,#1380));
#1387= IFCFACEOUTERBOUND(#1386,.T.);
#1388= IFCFACE((#1387));
#1389= IFCCARTESIANPOINT((-11.5724843123389,-11.,5.60142690150406));
#1390= IFCCARTESIANPOINT((-11.5724843123389,11.,5.60142690150406));
#1391= IFCPOLYLOOP((#1384,#1389,#1390,#1385));
#1392= IFCFACEOUTERBOUND(#1391,.T.);
#1393= IFCFACE((#1392));
#1394= IFCCARTESIANPOINT((-29.7093446037652,-11.,18.7709136529247));
#1395= IFCCARTESIANPOINT((-29.7093446037652,11.,18.7709136529247));
#1396= IFCPOLYLOOP((#1389,#1394,#1395,#1390));
#1397= IFCFACEOUTERBOUND(#1396,.T.);
#1398= IFCFACE((#1397));
#1399= IFCPOLYLOOP((#1394,#1321,#1324,#1395));
#1400= IFCFACEOUTERBOUND(#1399,.T.);
#1401= IFCFACE((#1400));
#1402= IFCPOLYLOOP((#1370,#1375,#1380,#1385,#1390,#1395,#1324,#1323,#1329,#1334,#1339,#1344,#1349,#1354,#1359,#1314,#1317));
#1403= IFCFACEOUTERBOUND(#1402,.T.);
#1404= IFCFACE((#1403));
#1405= IFCPOLYLOOP((#1358,#1353,#1348,#1343,#1338,#1333,#1328,#1322,#1321,#1394,#1389,#1384,#1379,#1374,#1369,#1309,#1308));
#1406= IFCFACEOUTERBOUND(#1405,.T.);
#1407= IFCFACE((#1406));
#1408= IFCCLOSEDSHELL((#1313,#1320,#1327,#1332,#1337,#1342,#1347,#1352,#1357,#1362,#1365,#1368,#1373,#1378,#1383,#1388,#1393,#1398,#1401,#1404,#1407));
#1409= IFCFACETEDBREP(#1408);
#1410= IFCSTYLEDITEM(#1409,(#1306),$);
#1411= IFCSHAPEREPRESENTATION(#12,'Body','Brep',(#1409));
#1412= IFCPRODUCTDEFINITIONSHAPE($,$,(#1411));
#1413= IFCCARTESIANPOINT((1633.04169914736,-6627.00379523416,19529.6450036556));
#1414= IFCDIRECTION((0.927649704870339,0.,-0.373451502947802));
#1415= IFCDIRECTION((-0.373451502947801,0.,-0.92764970487034));
#1416= IFCAXIS2PLACEMENT3D(#1413,#1414,#1415);
#1417= IFCLOCALPLACEMENT(#42,#1416);
#1418= IFCPLATE('1itLGVq750DuWwiJt7qdER',#598,'PLATE-22','PL22*200',$,#1417,#1412,'ID6cdd541f-d071-4037-883a-b13dc7d2739b');
#1419= IFCPLATETYPE('3vkTVB6fb3kfVkD30wMIEl',#5,'PL22*200',$,$,$,$,$,$,.NOTDEFINED.);
#1420= IFCPROPERTYSINGLEVALUE('Top elevation',$,IFCLABEL(' +19.560'),$);
#1421= IFCPROPERTYSINGLEVALUE('Preliminary mark',$,IFCLABEL('5-2-P8(?)'),$);
#1422= IFCPROPERTYSINGLEVALUE('Class',$,IFCLABEL('79'),$);
#1423= IFCPROPERTYSET('3VcimT_$LB$AnV_r1eX6eB',#5,'Tekla Common','Common Properties to Shared building elements',(#1192,#1420,#732,#1421,#734,#1422));
#1424= IFCPROPERTYSINGLEVALUE('Weight',$,IFCMASSMEASURE(6.68),$);
#1425= IFCPROPERTYSINGLEVALUE('Area per tons',$,IFCAREAMEASURE(13.954),$);
#1426= IFCPROPERTYSINGLEVALUE('Net surface area',$,IFCAREAMEASURE(0.093),$);
#1427= IFCPROPERTYSINGLEVALUE('Height',$,IFCLENGTHMEASURE(200.),$);
#1428= IFCPROPERTYSINGLEVALUE('Width',$,IFCLENGTHMEASURE(22.),$);
#1429= IFCPROPERTYSINGLEVALUE('Length',$,IFCLENGTHMEASURE(220.),$);
#1430= IFCPROPERTYSET('0z$TmbqZf8Z96aR$LFe_ZT',#5,'Tekla Quantity','Quantity Properties to Shared building elements',(#1424,#738,#1197,#1425,#1426,#1427,#1428,#1429));
#1431= IFCPROPERTYSINGLEVALUE('Reference',$,IFCIDENTIFIER('5-2-P8'),$);
#1432= IFCPROPERTYSET('3mrE8bucL3AwIfIXfVcaDn',#5,'Pset_PlateCommon','Common Properties to plate elements',(#746,#1431));
#1433= IFCQUANTITYLENGTH('Width',$,$,200.000010769865);
#1434= IFCQUANTITYAREA('NetArea',$,$,0.0932162867524441);
#1435= IFCQUANTITYAREA('GrossArea',$,$,0.0440000022826546);
#1436= IFCQUANTITYAREA('CrossSectionArea',$,$,0.000484);
#1437= IFCQUANTITYVOLUME('NetVolume',$,$,0.000850974242621437);
#1438= IFCQUANTITYVOLUME('GrossVolume',$,$,0.000870974243300862);
#1439= IFCELEMENTQUANTITY('3eySK$r0DBN8MkKW4In5p8',#5,'BaseQuantities',$,$,(#1433,#1434,#1435,#1436,#1437,#1438));
#1440= IFCSHAPEREPRESENTATION(#12,'Body','Brep',(#1292));
#1441= IFCPRODUCTDEFINITIONSHAPE($,$,(#1440));
#1442= IFCCARTESIANPOINT((1619.00162970996,-6677.00031467168,19339.9353390093));
#1443= IFCAXIS2PLACEMENT3D(#1442,#9,#8);
#1444= IFCLOCALPLACEMENT(#42,#1443);
#1445= IFCPLATE('33oL83ZU9D$uwl0HaXx88t',#598,'PLATE-8','PL8*39',$,#1444,#1441,'IDc3c95203-8de2-4dff-8eaf-011921ec8237');
#1446= IFCCOLOURRGB('Light Cyan',0.125490196078431,0.792156862745098,0.615686274509804);
#1447= IFCSURFACESTYLERENDERING(#1446,0.,$,$,$,$,IFCNORMALISEDRATIOMEASURE(0.00390625),IFCSPECULAREXPONENT(10.),.NOTDEFINED.);
#1448= IFCSURFACESTYLE('STEEL/S275',.POSITIVE.,(#1447));
#1449= IFCPRESENTATIONSTYLEASSIGNMENT((#1448));
#1450= IFCCARTESIANPOINT((0.,-50.,-100.));
#1451= IFCCARTESIANPOINT((0.,50.,-100.));
#1452= IFCCARTESIANPOINT((2459.99893188477,50.,-100.));
#1453= IFCCARTESIANPOINT((2459.99893188477,-50.,-100.));
#1454= IFCPOLYLOOP((#1450,#1451,#1452,#1453));
#1455= IFCFACEOUTERBOUND(#1454,.T.);
#1456= IFCFACE((#1455));
#1457= IFCCARTESIANPOINT((0.,-50.,100.));
#1458= IFCCARTESIANPOINT((2459.99893188477,-50.,100.));
#1459= IFCPOLYLOOP((#1457,#1450,#1453,#1458));
#1460= IFCFACEOUTERBOUND(#1459,.T.);
#1461= IFCFACE((#1460));
#1462= IFCCARTESIANPOINT((0.,50.,100.));
#1463= IFCCARTESIANPOINT((2459.99893188477,50.,100.));
#1464= IFCPOLYLOOP((#1462,#1457,#1458,#1463));
#1465= IFCFACEOUTERBOUND(#1464,.T.);
#1466= IFCFACE((#1465));
#1467= IFCPOLYLOOP((#1451,#1462,#1463,#1452));
#1468= IFCFACEOUTERBOUND(#1467,.T.);
#1469= IFCFACE((#1468));
#1470= IFCCARTESIANPOINT((0.,-44.,-94.));
#1471= IFCCARTESIANPOINT((0.,-44.,94.));
#1472= IFCCARTESIANPOINT((2459.99893188477,-44.,94.));
#1473= IFCCARTESIANPOINT((2459.99893188477,-44.,-94.));
#1474= IFCPOLYLOOP((#1470,#1471,#1472,#1473));
#1475= IFCFACEOUTERBOUND(#1474,.T.);
#1476= IFCFACE((#1475));
#1477= IFCCARTESIANPOINT((0.,44.,94.));
#1478= IFCCARTESIANPOINT((2459.99893188477,44.,94.));
#1479= IFCPOLYLOOP((#1471,#1477,#1478,#1472));
#1480= IFCFACEOUTERBOUND(#1479,.T.);
#1481= IFCFACE((#1480));
#1482= IFCCARTESIANPOINT((0.,44.,-94.));
#1483= IFCCARTESIANPOINT((2459.99893188477,44.,-94.));
#1484= IFCPOLYLOOP((#1477,#1482,#1483,#1478));
#1485= IFCFACEOUTERBOUND(#1484,.T.);
#1486= IFCFACE((#1485));
#1487= IFCPOLYLOOP((#1458,#1453,#1452,#1463));
#1488= IFCFACEOUTERBOUND(#1487,.T.);
#1489= IFCPOLYLOOP((#1472,#1478,#1483,#1473));
#1490= IFCFACEBOUND(#1489,.T.);
#1491= IFCFACE((#1488,#1490));
#1492= IFCPOLYLOOP((#1482,#1470,#1473,#1483));
#1493= IFCFACEOUTERBOUND(#1492,.T.);
#1494= IFCFACE((#1493));
#1495= IFCPOLYLOOP((#1450,#1457,#1462,#1451));
#1496= IFCFACEOUTERBOUND(#1495,.T.);
#1497= IFCPOLYLOOP((#1477,#1471,#1470,#1482));
#1498= IFCFACEBOUND(#1497,.T.);
#1499= IFCFACE((#1496,#1498));
#1500= IFCCLOSEDSHELL((#1456,#1461,#1466,#1469,#1476,#1481,#1486,#1491,#1494,#1499));
#1501= IFCFACETEDBREP(#1500);
#1502= IFCSTYLEDITEM(#1501,(#1449),$);
#1503= IFCSHAPEREPRESENTATION(#12,'Body','Brep',(#1501));
#1504= IFCPRODUCTDEFINITIONSHAPE($,$,(#1503));
#1505= IFCCARTESIANPOINT((1705.00297061377,-6627.00143939827,16880.0007692249));
#1506= IFCAXIS2PLACEMENT3D(#1505,#902,#9);
#1507= IFCLOCALPLACEMENT(#42,#1506);
#1508= IFCBEAM('3HjYzoBInDLPOtrB03wruQ',#245,'B3-\S\?\S\Z200x100x6','TUB200X100X6',$,#1507,#1504,'IDd1b62f72-2d2c-4d55-9637-d4b003eb5e1a');
#1509= IFCBEAMTYPE('2Xfkz0HsrDguWwf2pJnMOl',#5,'TUB200X100X6',$,$,$,$,$,$,.NOTDEFINED.);
#1510= IFCPROPERTYSINGLEVALUE('Bottom elevation',$,IFCLABEL(' +16.880'),$);
#1511= IFCPROPERTYSINGLEVALUE('Preliminary mark',$,IFCLABEL('5-2-P16(?)'),$);
#1512= IFCPROPERTYSINGLEVALUE('Class',$,IFCLABEL('5'),$);
#1513= IFCPROPERTYSET('2qrS0zhNX3p9yhPsHkbmYH',#5,'Tekla Common','Common Properties to Shared building elements',(#1510,#1090,#732,#1511,#734,#1512));
#1514= IFCPROPERTYSINGLEVALUE('Weight',$,IFCMASSMEASURE(66.74),$);
#1515= IFCPROPERTYSINGLEVALUE('Volume',$,IFCVOLUMEMEASURE(0.009),$);
#1516= IFCPROPERTYSINGLEVALUE('Area per tons',$,IFCAREAMEASURE(21.941),$);
#1517= IFCPROPERTYSINGLEVALUE('Net surface area',$,IFCAREAMEASURE(1.464),$);
#1518= IFCPROPERTYSINGLEVALUE('Width',$,IFCLENGTHMEASURE(100.),$);
#1519= IFCPROPERTYSINGLEVALUE('Length',$,IFCLENGTHMEASURE(2460.),$);
#1520= IFCPROPERTYSET('2vldwMI5PAzf70$sEkXTiC',#5,'Tekla Quantity','Quantity Properties to Shared building elements',(#1514,#1515,#857,#1516,#1517,#1427,#1518,#1519));
#1521= IFCPROPERTYSINGLEVALUE('Reference',$,IFCIDENTIFIER('5-2-P16'),$);
#1522= IFCPROPERTYSET('3mH7lE_kv6tOMuw7j2OniD',#5,'Pset_BeamCommon','Common Properties to beam elements',(#746,#1521));
#1523= IFCQUANTITYLENGTH('Length',$,$,2459.99893188477);
#1524= IFCQUANTITYAREA('OuterSurfaceArea',$,$,1.46434575749034);
#1525= IFCQUANTITYVOLUME('NetVolume',$,$,0.00850175630859396);
#1526= IFCQUANTITYWEIGHT('NetWeight',$,$,66.7387870224626);
#1527= IFCELEMENTQUANTITY('2rAOInY0HEP9JKF5Kst6dH',#5,'BaseQuantities',$,$,(#1523,#1524,#1525,#1526));
#1528= IFCSHAPEREPRESENTATION(#12,'Body','Brep',(#897));
#1529= IFCPRODUCTDEFINITIONSHAPE($,$,(#1528));
#1530= IFCCARTESIANPOINT((1609.00071994239,-6460.00072414253,16872.0007692249));
#1531= IFCAXIS2PLACEMENT3D(#1530,#676,#1084);
#1532= IFCLOCALPLACEMENT(#42,#1531);
#1533= IFCPLATE('03QKqbZbnBggdqGoMwGLcs',#245,'PLATE-8','PL8*234',$,#1532,#1529,'ID03694d25-8e5c-4baa-a9f4-4325ba4159b6');
#1534= IFCSHAPEREPRESENTATION(#12,'Body','Brep',(#897));
#1535= IFCPRODUCTDEFINITIONSHAPE($,$,(#1534));
#1536= IFCCARTESIANPOINT((1801.00071994239,-6460.00072414253,16872.0007692249));
#1537= IFCAXIS2PLACEMENT3D(#1536,#676,#1084);
#1538= IFCLOCALPLACEMENT(#42,#1537);
#1539= IFCPLATE('0UFU9SSZP3tvuh1EIjOzqB',#245,'PLATE-8','PL8*234',$,#1538,#1535,'ID1e3de25c-7236-43df-9e2b-04e4ad63dd0b');
#1540= IFCCARTESIANPOINT((349.998474121091,-117.,-167.));
#1541= IFCCARTESIANPOINT((349.998474121091,117.,-167.));
#1542= IFCPOLYLOOP((#970,#969,#1540,#1541));
#1543= IFCFACEOUTERBOUND(#1542,.T.);
#1544= IFCFACE((#1543));
#1545= IFCCARTESIANPOINT((349.998474121091,-117.,167.));
#1546= IFCPOLYLOOP((#969,#961,#1545,#1540));
#1547= IFCFACEOUTERBOUND(#1546,.T.);
#1548= IFCFACE((#1547));
#1549= IFCCARTESIANPOINT((349.998474121091,117.,167.));
#1550= IFCPOLYLOOP((#961,#962,#1549,#1545));
#1551= IFCFACEOUTERBOUND(#1550,.T.);
#1552= IFCFACE((#1551));
#1553= IFCPOLYLOOP((#962,#970,#1541,#1549));
#1554= IFCFACEOUTERBOUND(#1553,.T.);
#1555= IFCFACE((#1554));
#1556= IFCCARTESIANPOINT((349.998474121091,125.,175.));
#1557= IFCCARTESIANPOINT((349.998474121091,125.,-175.));
#1558= IFCPOLYLOOP((#943,#944,#1556,#1557));
#1559= IFCFACEOUTERBOUND(#1558,.T.);
#1560= IFCFACE((#1559));
#1561= IFCCARTESIANPOINT((349.998474121091,-125.,175.));
#1562= IFCPOLYLOOP((#944,#949,#1561,#1556));
#1563= IFCFACEOUTERBOUND(#1562,.T.);
#1564= IFCFACE((#1563));
#1565= IFCCARTESIANPOINT((349.998474121091,-125.,-175.));
#1566= IFCPOLYLOOP((#949,#966,#1565,#1561));
#1567= IFCFACEOUTERBOUND(#1566,.T.);
#1568= IFCFACE((#1567));
#1569= IFCPOLYLOOP((#966,#943,#1557,#1565));
#1570= IFCFACEOUTERBOUND(#1569,.T.);
#1571= IFCFACE((#1570));
#1572= IFCPOLYLOOP((#1561,#1565,#1557,#1556));
#1573= IFCFACEOUTERBOUND(#1572,.T.);
#1574= IFCPOLYLOOP((#1545,#1549,#1541,#1540));
#1575= IFCFACEBOUND(#1574,.T.);
#1576= IFCFACE((#1573,#1575));
#1577= IFCCLOSEDSHELL((#1544,#1548,#1552,#1555,#1560,#1564,#1568,#1571,#1576,#973));
#1578= IFCFACETEDBREP(#1577);
#1579= IFCSTYLEDITEM(#1578,(#815),$);
#1580= IFCSHAPEREPRESENTATION(#12,'Body','Brep',(#1578));
#1581= IFCPRODUCTDEFINITIONSHAPE($,$,(#1580));
#1582= IFCCARTESIANPOINT((1465.0022458213,-6627.00072414253,16755.0007692249));
#1583= IFCAXIS2PLACEMENT3D(#1582,#8,#7);
#1584= IFCLOCALPLACEMENT(#42,#1583);
#1585= IFCBEAM('3mEx2oP$5A9wbGWSzwuuZG',#245,'B1-\S\?\S\Z350x250x8','TUB350X250X8 ',$,#1584,#1581,'IDf03bb0b2-67f1-4a27-a950-81cf7ae388d0');
#1586= IFCPROPERTYSINGLEVALUE('Preliminary mark',$,IFCLABEL('5-2-P1'),$);
#1587= IFCPROPERTYSET('2mdFb7DArDcwXcwZRgLnt$',#5,'Tekla Common','Common Properties to Shared building elements',(#1011,#1012,#732,#1586,#734,#1014));
#1588= IFCPROPERTYSINGLEVALUE('Weight',$,IFCMASSMEASURE(25.67),$);
#1589= IFCPROPERTYSINGLEVALUE('Volume',$,IFCVOLUMEMEASURE(0.003),$);
#1590= IFCPROPERTYSINGLEVALUE('Gross footprint area',$,IFCAREAMEASURE(0.122),$);
#1591= IFCPROPERTYSINGLEVALUE('Area per tons',$,IFCAREAMEASURE(16.669),$);
#1592= IFCPROPERTYSINGLEVALUE('Net surface area',$,IFCAREAMEASURE(0.428),$);
#1593= IFCPROPERTYSINGLEVALUE('Length',$,IFCLENGTHMEASURE(350.),$);
#1594= IFCPROPERTYSET('0WMENrgNT4DOz6gmvVJnvY',#5,'Tekla Quantity','Quantity Properties to Shared building elements',(#1588,#1589,#1590,#1591,#1592,#1021,#1022,#1593));
#1595= IFCPROPERTYSINGLEVALUE('Reference',$,IFCIDENTIFIER('5-2-P1'),$);
#1596= IFCPROPERTYSET('0AC9FU30r2ngkinCKHy3Zm',#5,'Pset_BeamCommon','Common Properties to beam elements',(#746,#1595));
#1597= IFCQUANTITYLENGTH('Length',$,$,349.998474121091);
#1598= IFCQUANTITYAREA('OuterSurfaceArea',$,$,0.427923322282754);
#1599= IFCQUANTITYVOLUME('NetVolume',$,$,0.00327038574218751);
#1600= IFCQUANTITYWEIGHT('NetWeight',$,$,25.6725280761719);
#1601= IFCELEMENTQUANTITY('1BVb_w3jf2CfiT_f$9vqEf',#5,'BaseQuantities',$,$,(#1597,#1598,#1599,#1600));
#1602= IFCRELAGGREGATES('2EC_5NyMb9LfEh2RC$XG6l',#5,$,$,#37,(#39));
#1603= IFCRELAGGREGATES('1wbrdhWLr5P9DH_GYzdMBp',#5,$,$,#39,(#41));
#1604= IFCRELAGGREGATES('0Dxw$zX816ZQWmDukoJYyX',#5,$,$,#41,(#43));
#1605= IFCRELCONTAINEDINSPATIALSTRUCTURE('1IzyXjqmzBQRUh5VyWXJuX',#5,$,$,(#1585,#1539,#1533,#1508,#1445,#1418,#1299,#1216,#1190,#1087,#1009,#905,#876,#851,#792,#728,#679,#597,#588,#580,#569,#489,#481,#474,#467,#460,#451,#443,#434,#424,#415,#407,#398,#389,#382,#375,#368,#361,#352,#344,#327,#244,#237,#230,#133),#43);
#1606= IFCRELDEFINESBYPROPERTIES('1V$4u$xNfA$RAoQwW$SplG',#5,$,$,(#244,#237,#230,#133),#151);
#1607= IFCRELDEFINESBYPROPERTIES('3N3wuiXD58FvPkrUab2g4F',#5,$,$,(#489,#481,#474,#467,#460,#451,#443,#434,#424,#415,#407,#398,#389,#382,#375,#368,#361,#352,#344,#327),#334);
#1608= IFCRELDEFINESBYPROPERTIES('3qrwhbjcbCAwEQmi7aw6FU',#5,$,$,(#597,#588,#580,#569),#571);
#1609= IFCRELDEFINESBYPROPERTIES('14Dw$hAx92W8ZjDrhTCaBY',#5,$,$,(#679),#687);
#1610= IFCRELDEFINESBYPROPERTIES('2s0XlbJInBlf0$BivgtZv_',#5,$,$,(#728),#736);
#1611= IFCRELDEFINESBYPROPERTIES('0VeHA3QvfAjuN3B6p91QfI',#5,$,$,(#728),#745);
#1612= IFCRELDEFINESBYPROPERTIES('22WDy5swDANR9NCVqi8km$',#5,$,$,(#728),#748);
#1613= IFCRELDEFINESBYPROPERTIES('04dMoO2PD2g8UZh3JY5xju',#5,$,$,(#728),#755);
#1614= IFCRELDEFINESBYPROPERTIES('3j2l6d5hX8JRNkXzUOGjLu',#5,$,$,(#792),#795);
#1615= IFCRELDEFINESBYPROPERTIES('1ObElk$_H7CPtX$2VtuQaq',#5,$,$,(#792),#803);
#1616= IFCRELDEFINESBYPROPERTIES('1C$C5MORT75fnUnxum9KP$',#5,$,$,(#792),#805);
#1617= IFCRELDEFINESBYPROPERTIES('1s6FJFwYDFx8Oai$lTy9nE',#5,$,$,(#792),#811);
#1618= IFCRELDEFINESBYPROPERTIES('20dVfqnx970xq1KaAli9pw',#5,$,$,(#876,#851),#855);
#1619= IFCRELDEFINESBYPROPERTIES('2x9sCH05PE5RcyJrAB41_c',#5,$,$,(#876,#851),#862);
#1620= IFCRELDEFINESBYPROPERTIES('0CPu8xhuz8mx4VuazsIyNB',#5,$,$,(#876,#851),#864);
#1621= IFCRELDEFINESBYPROPERTIES('2Y4xC3JafE0RMn$ETioShr',#5,$,$,(#876,#851),#870);
#1622= IFCRELDEFINESBYPROPERTIES('3wjjtj2IrAXfEtXzRGH8HW',#5,$,$,(#1539,#1533,#905),#907);
#1623= IFCRELDEFINESBYPROPERTIES('1ikPBo7Rb1TOcsLuuuVqNM',#5,$,$,(#1539,#1533,#905),#912);
#1624= IFCRELDEFINESBYPROPERTIES('0dCIHb24978xysl2NMUvT0',#5,$,$,(#1539,#1533,#905),#914);
#1625= IFCRELDEFINESBYPROPERTIES('2p2yuyJx9FPviRCK0WJBTn',#5,$,$,(#1539,#1533,#905),#919);
#1626= IFCRELDEFINESBYPROPERTIES('0pf_cwTgD6SxrRFni4xVV3',#5,$,$,(#1009),#1015);
#1627= IFCRELDEFINESBYPROPERTIES('0$4giMAI9FbxqcECwh0eYk',#5,$,$,(#1009),#1024);
#1628= IFCRELDEFINESBYPROPERTIES('190msTc4H3oAx1NWv7rZln',#5,$,$,(#1009),#1026);
#1629= IFCRELDEFINESBYPROPERTIES('3EVJQXMzb8rRDXjmJ8CSsz',#5,$,$,(#1009),#1031);
#1630= IFCRELDEFINESBYPROPERTIES('2X1vJdlJD6TA2XNnyvgPJV',#5,$,$,(#1087),#1093);
#1631= IFCRELDEFINESBYPROPERTIES('3MzSsrCrLFlhlwIvGIgZHH',#5,$,$,(#1087),#1101);
#1632= IFCRELDEFINESBYPROPERTIES('3CJOwANRr8wP7lJqeTMyqr',#5,$,$,(#1087),#1103);
#1633= IFCRELDEFINESBYPROPERTIES('0UlaCTDRz7XPOzCH_kSL$q',#5,$,$,(#1087),#1110);
#1634= IFCRELDEFINESBYPROPERTIES('0FNIIrpm1A59bJGVnINevE',#5,$,$,(#1445,#1299,#1216,#1190),#1195);
#1635= IFCRELDEFINESBYPROPERTIES('3jbZvQKH1Cx9CmQy8Rri2a',#5,$,$,(#1445,#1299,#1216,#1190),#1202);
#1636= IFCRELDEFINESBYPROPERTIES('2bAq9PFs17iQt0iBo00rm0',#5,$,$,(#1445,#1299,#1216,#1190),#1204);
#1637= IFCRELDEFINESBYPROPERTIES('3j5EEKvzr3egxtMADJvVMs',#5,$,$,(#1190),#1210);
#1638= IFCRELDEFINESBYPROPERTIES('2A11iDmBP2mxNrj$VchD$a',#5,$,$,(#1216),#1221);
#1639= IFCRELDEFINESBYPROPERTIES('3piF_Ec1jAWA_gcKmEbGKP',#5,$,$,(#1445,#1299),#1302);
#1640= IFCRELDEFINESBYPROPERTIES('05jalgfp95avwlwwFhViAl',#5,$,$,(#1418),#1423);
#1641= IFCRELDEFINESBYPROPERTIES('3Z5HLw1vvAJukpVtXnhxE7',#5,$,$,(#1418),#1430);
#1642= IFCRELDEFINESBYPROPERTIES('26oCOQfSrBbxLWhZwPATer',#5,$,$,(#1418),#1432);
#1643= IFCRELDEFINESBYPROPERTIES('3ZtQi_JBL2_ekCfClrICEp',#5,$,$,(#1418),#1439);
#1644= IFCRELDEFINESBYPROPERTIES('3iBHLsCa98vAGDcMoUIyJJ',#5,$,$,(#1508),#1513);
#1645= IFCRELDEFINESBYPROPERTIES('1PqsPGeDn8zf$Ns21IXkQD',#5,$,$,(#1508),#1520);
#1646= IFCRELDEFINESBYPROPERTIES('2pZAlXqDv6CBzdSkIOYbHR',#5,$,$,(#1508),#1522);
#1647= IFCRELDEFINESBYPROPERTIES('1WiN61OJv16vIMPmbt3kLQ',#5,$,$,(#1508),#1527);
#1648= IFCRELDEFINESBYPROPERTIES('2gTUxTmLf5lxU$GBJIAmpr',#5,$,$,(#1585),#1587);
#1649= IFCRELDEFINESBYPROPERTIES('0Yvy2oYzL3rAlKZex7mQW1',#5,$,$,(#1585),#1594);
#1650= IFCRELDEFINESBYPROPERTIES('2nV9L6R9H0jBbbk_4xPDL8',#5,$,$,(#1585),#1596);
#1651= IFCRELDEFINESBYPROPERTIES('3kEuobm9r02f4ed0DS5vpj',#5,$,$,(#1585),#1601);
#1652= IFCRELDEFINESBYTYPE('2NVB9jqJH7394w76s5SBUQ',#5,$,$,(#679,#597,#588,#580,#569,#489,#481,#474,#467,#460,#451,#443,#434,#424,#415,#407,#398,#389,#382,#375,#368,#361,#352,#344,#327,#244,#237,#230,#133),#134);
#1653= IFCRELDEFINESBYTYPE('2Xwiy5uazE$PRmi9VdiG1a',#5,$,$,(#728),#729);
#1654= IFCRELDEFINESBYTYPE('3G2_AucEDBYAYEW3L0v$aC',#5,$,$,(#792),#793);
#1655= IFCRELDEFINESBYTYPE('05S7EqxlX9DOWUrIdysxS2',#5,$,$,(#1539,#1533,#905,#876,#851),#852);
#1656= IFCRELDEFINESBYTYPE('1dDgDy85H2uhvFQ5qp6jHI',#5,$,$,(#1585,#1009),#1010);
#1657= IFCRELDEFINESBYTYPE('03vt_VWzbBc8K7L7XPoKxF',#5,$,$,(#1087),#1088);
#1658= IFCRELDEFINESBYTYPE('1drvM1yI12t8i01rU1WW4U',#5,$,$,(#1445,#1299,#1216,#1190),#1191);
#1659= IFCRELDEFINESBYTYPE('0HetzZwtn6IP22GYUkN6Vv',#5,$,$,(#1418),#1419);
#1660= IFCRELDEFINESBYTYPE('1ASOoFrL5Ep9b2qouEbMAT',#5,$,$,(#1508),#1509);
#1661= IFCRELASSOCIATESMATERIAL('1l8VqRZrj10vFZ3pfQT63w',#5,$,$,(#244,#237,#230,#133),#152);
#1662= IFCRELASSOCIATESMATERIAL('3UWi31t9n57fjUvnqXfa1z',#5,$,$,(#597,#588,#580,#569,#489,#481,#474,#467,#460,#451,#443,#434,#424,#415,#407,#398,#389,#382,#375,#368,#361,#352,#344,#327),#335);
#1663= IFCRELASSOCIATESMATERIAL('0y$KW0C2HCkBit1dHgji2C',#5,$,$,(#679),#688);
#1664= IFCRELASSOCIATESMATERIAL('2mKB4mvR98EgVSeM4YDlBD',#5,$,$,(#1585,#1539,#1533,#1508,#1445,#1418,#1299,#1216,#1190,#1087,#1009,#905,#876,#851,#792,#728),#756);
#1665= IFCPRESENTATIONLAYERASSIGNMENT('BoltArray',$,(#126,#225,#232,#239,#320,#337,#346,#354,#363,#370,#377,#384,#391,#400,#409,#417,#427,#436,#445,#453,#462,#469,#476,#483,#562,#573,#582,#590,#673),$);
#1666= IFCPRESENTATIONLAYERASSIGNMENT('PLATE-10',$,(#722,#786),$);
#1667= IFCPRESENTATIONLAYERASSIGNMENT('PLATE-8',$,(#845,#871,#899,#1081,#1185,#1211,#1294,#1440,#1528,#1534),$);
#1668= IFCPRESENTATIONLAYERASSIGNMENT('B1-\S\?\S\Z350x250x8',$,(#1004,#1580),$);
#1669= IFCPRESENTATIONLAYERASSIGNMENT('PLATE-22',$,(#1411),$);
#1670= IFCPRESENTATIONLAYERASSIGNMENT('B3-\S\?\S\Z200x100x6',$,(#1503),$);
ENDSEC;

END-ISO-10303-21;
