ISO-10303-21;
HEADER;
FILE_DESCRIPTION(('ViewDefinition[CoordinationView_V2.0, QuantityTakeOffAddOnView]', 'ExchangeRequirement[Structural, SurfaceGeometry]', 'Option [BaseQuantities:On]', 'Option [GridExport:On]', 'Option [Assemblies:Off]', 'Option [Bolts:On]', 'Option [Rebars:On]', 'Option [PourObjects:Off]', 'Option [Welds:Off]', 'Option [SurfaceTreatments:On]', 'Option [LocationBy:0]', 'Option [ViewColors:Off]', 'Option [SectionedSpine:Off]', 'Option [PropertySets:On]', 'Option [Export all:Off]'),'2;1');
FILE_NAME('5-2-A27.ifc','2026-03-10T09:14:55',('DESKTOP-NLV509P\\Ahmed'),('Structural Designer'),'IFC Parser version: 3.13.2','Tekla Structures 2023 Service Pack 8, IFC Export Version: 4.0.0.0 Jan 19 2024','');
FILE_SCHEMA(('IFC2X3'));
ENDSEC;

DATA;
#1= IFCPERSON('DESKTOP-NLV509P\\Ahmed','Undefined',$,$,$,$,$,$);
#2= IFCORGANIZATION($,'Trimble Solutions Corporation',$,$,$);
#3= IFCPERSONANDORGANIZATION(#1,#2,$);
#4= IFCAPPLICATION(#2,'2023 Service Pack 8','Tekla Structures','Multi material modeling');
#5= IFCOWNERHISTORY(#3,#4,$,.NOCHANGE.,$,$,$,1773123295);
#6= IFCCARTESIANPOINT((0.,0.,0.));
#7= IFCDIRECTION((1.,0.,0.));
#8= IFCDIRECTION((0.,1.,0.));
#9= IFCDIRECTION((0.,0.,1.));
#10= IFCAXIS2PLACEMENT3D(#6,#9,#7);
#11= IFCGEOMETRICREPRESENTATIONCONTEXT($,'Model',3,1.E-05,#10,$);
#12= IFCGEOMETRICREPRESENTATIONSUBCONTEXT('Body','Model',*,*,*,*,#11,$,.MODEL_VIEW.,$);
#13= IFCGEOMETRICREPRESENTATIONSUBCONTEXT('Axis','Model',*,*,*,*,#11,$,.GRAPH_VIEW.,$);
#14= IFCGEOMETRICREPRESENTATIONSUBCONTEXT('FootPrint','Model',*,*,*,*,#11,$,.MODEL_VIEW.,$);
#15= IFCSIUNIT(*,.LENGTHUNIT.,.MILLI.,.METRE.);
#16= IFCMEASUREWITHUNIT(IFCRATIOMEASURE(304.8),#15);
#17= IFCDIMENSIONALEXPONENTS(1,0,0,0,0,0,0);
#18= IFCCONVERSIONBASEDUNIT(#17,.LENGTHUNIT.,'FOOT',#16);
#19= IFCSIUNIT(*,.AREAUNIT.,$,.SQUARE_METRE.);
#20= IFCMEASUREWITHUNIT(IFCRATIOMEASURE(0.09290304),#19);
#21= IFCDIMENSIONALEXPONENTS(2,0,0,0,0,0,0);
#22= IFCCONVERSIONBASEDUNIT(#21,.AREAUNIT.,'SQUARE FOOT',#20);
#23= IFCSIUNIT(*,.VOLUMEUNIT.,$,.CUBIC_METRE.);
#24= IFCMEASUREWITHUNIT(IFCRATIOMEASURE(0.028316846592),#23);
#25= IFCDIMENSIONALEXPONENTS(3,0,0,0,0,0,0);
#26= IFCCONVERSIONBASEDUNIT(#25,.VOLUMEUNIT.,'CUBIC FOOT',#24);
#27= IFCSIUNIT(*,.MASSUNIT.,.KILO.,.GRAM.);
#28= IFCSIUNIT(*,.TIMEUNIT.,$,.SECOND.);
#29= IFCSIUNIT(*,.PLANEANGLEUNIT.,$,.RADIAN.);
#30= IFCMEASUREWITHUNIT(IFCRATIOMEASURE(0.0174532925199433),#29);
#31= IFCDIMENSIONALEXPONENTS(0,0,0,0,0,0,0);
#32= IFCCONVERSIONBASEDUNIT(#31,.PLANEANGLEUNIT.,'DEGREE',#30);
#33= IFCSIUNIT(*,.SOLIDANGLEUNIT.,$,.STERADIAN.);
#34= IFCSIUNIT(*,.THERMODYNAMICTEMPERATUREUNIT.,$,.DEGREE_CELSIUS.);
#35= IFCSIUNIT(*,.LUMINOUSINTENSITYUNIT.,$,.LUMEN.);
#36= IFCUNITASSIGNMENT((#15,#19,#23,#27,#28,#29,#33,#34,#35));
#37= IFCPROJECT('1YoUeqrvT3qf6rxAPmbs$h',#5,'Undefined',$,$,$,$,(#11),#36);
#38= IFCLOCALPLACEMENT($,#10);
#39= IFCSITE('2wNRBR7nHC8xLRYs8YZYBa',#5,'Undefined',$,$,#38,$,$,.ELEMENT.,$,$,$,$,$);
#40= IFCLOCALPLACEMENT(#38,#10);
#41= IFCBUILDING('17mZuq2yP9tB$TrK_28EPP',#5,'Undefined',$,$,#40,$,$,.ELEMENT.,$,$,$);
#42= IFCLOCALPLACEMENT(#40,#10);
#43= IFCBUILDINGSTOREY('3gJPpYF7LCbf7I109fNVl5',#5,'Undefined',$,$,#42,$,$,.ELEMENT.,0.);
#44= IFCOWNERHISTORY(#3,#4,$,.NOCHANGE.,$,$,$,1770796800);
#45= IFCCOLOURRGB('Light Gray',0.615686274509804,0.615686274509804,0.611764705882353);
#46= IFCSURFACESTYLERENDERING(#45,0.,$,$,$,$,IFCNORMALISEDRATIOMEASURE(0.00390625),IFCSPECULAREXPONENT(10.),.NOTDEFINED.);
#47= IFCSURFACESTYLE('STEEL/S275',.POSITIVE.,(#46));
#48= IFCPRESENTATIONSTYLEASSIGNMENT((#47));
#49= IFCCARTESIANPOINT((25.9999815626215,-0.499999999770807,220.00329589875));
#50= IFCCARTESIANPOINT((25.9999952488724,-0.499999999810825,180.999929649712));
#51= IFCCARTESIANPOINT((25.9999952494036,0.500000000189175,180.999929649959));
#52= IFCCARTESIANPOINT((25.9999815631527,0.500000000229193,220.00329589875));
#53= IFCPOLYLOOP((#49,#50,#51,#52));
#54= IFCFACEOUTERBOUND(#53,.T.);
#55= IFCFACE((#54));
#56= IFCCARTESIANPOINT((26.4770518310397,-0.499999999814463,177.376465692872));
#57= IFCCARTESIANPOINT((26.4770518315709,0.500000000185537,177.376465693123));
#58= IFCPOLYLOOP((#56,#57,#51,#50));
#59= IFCFACEOUTERBOUND(#58,.T.);
#60= IFCFACE((#59));
#61= IFCCARTESIANPOINT((27.8756745856372,-0.499999999818101,173.999939605401));
#62= IFCCARTESIANPOINT((27.875674586161,0.500000000181899,173.999939605648));
#63= IFCPOLYLOOP((#61,#62,#57,#56));
#64= IFCFACEOUTERBOUND(#63,.T.);
#65= IFCFACE((#64));
#66= IFCCARTESIANPOINT((30.100549683244,-0.499999999821739,171.100456060169));
#67= IFCCARTESIANPOINT((30.1005496837752,0.500000000178261,171.10045606042));
#68= IFCPOLYLOOP((#66,#67,#62,#61));
#69= IFCFACEOUTERBOUND(#68,.T.);
#70= IFCFACE((#69));
#71= IFCCARTESIANPOINT((33.0000555627703,-0.499999999825377,168.875610069172));
#72= IFCCARTESIANPOINT((33.0000555633014,0.500000000174623,168.875610069419));
#73= IFCPOLYLOOP((#71,#72,#67,#66));
#74= IFCFACEOUTERBOUND(#73,.T.);
#75= IFCFACE((#74));
#76= IFCCARTESIANPOINT((36.3765956901552,-0.499999999825377,167.477021209961));
#77= IFCCARTESIANPOINT((36.3765956906864,0.500000000174623,167.477021210208));
#78= IFCPOLYLOOP((#76,#77,#72,#71));
#79= IFCFACEOUTERBOUND(#78,.T.);
#80= IFCFACE((#79));
#81= IFCCARTESIANPOINT((40.0000644357424,-0.499999999825377,167.000001002012));
#82= IFCCARTESIANPOINT((40.0000644362735,0.500000000174623,167.000001002263));
#83= IFCPOLYLOOP((#81,#82,#77,#76));
#84= IFCFACEOUTERBOUND(#83,.T.);
#85= IFCFACE((#84));
#86= IFCCARTESIANPOINT((43.6235283925707,-0.499999999821739,167.477057584187));
#87= IFCCARTESIANPOINT((43.6235283930946,0.500000000178261,167.477057584438));
#88= IFCPOLYLOOP((#86,#87,#82,#81));
#89= IFCFACEOUTERBOUND(#88,.T.);
#90= IFCFACE((#89));
#91= IFCCARTESIANPOINT((47.0000544800278,-0.499999999821739,168.875680338784));
#92= IFCCARTESIANPOINT((47.0000544805589,0.500000000178261,168.875680339035));
#93= IFCPOLYLOOP((#91,#92,#87,#86));
#94= IFCFACEOUTERBOUND(#93,.T.);
#95= IFCFACE((#94));
#96= IFCCARTESIANPOINT((49.8995380252454,-0.499999999821739,171.100555436409));
#97= IFCCARTESIANPOINT((49.8995380257766,0.500000000178261,171.10055543666));
#98= IFCPOLYLOOP((#96,#97,#92,#91));
#99= IFCFACEOUTERBOUND(#98,.T.);
#100= IFCFACE((#99));
#101= IFCCARTESIANPOINT((52.1243840162351,-0.499999999818101,174.000061315939));
#102= IFCCARTESIANPOINT((52.124384016759,0.500000000181899,174.00006131619));
#103= IFCPOLYLOOP((#101,#102,#97,#96));
#104= IFCFACEOUTERBOUND(#103,.T.);
#105= IFCFACE((#104));
#106= IFCCARTESIANPOINT((53.5229728754348,-0.499999999814463,177.376601443342));
#107= IFCCARTESIANPOINT((53.5229728759659,0.500000000185537,177.37660144359));
#108= IFCPOLYLOOP((#106,#107,#102,#101));
#109= IFCFACEOUTERBOUND(#108,.T.);
#110= IFCFACE((#109));
#111= IFCCARTESIANPOINT((53.9999930833728,-0.499999999810825,181.000070188937));
#112= IFCCARTESIANPOINT((53.999993083904,0.500000000189175,181.000070189184));
#113= IFCPOLYLOOP((#111,#112,#107,#106));
#114= IFCFACEOUTERBOUND(#113,.T.);
#115= IFCFACE((#114));
#116= IFCCARTESIANPOINT((53.9999962488509,-0.499999999770807,220.003371390394));
#117= IFCCARTESIANPOINT((53.9999962493894,0.500000000229193,220.003295898769));
#118= IFCPOLYLOOP((#116,#117,#112,#111));
#119= IFCFACEOUTERBOUND(#118,.T.);
#120= IFCFACE((#119));
#121= IFCCARTESIANPOINT((0.,-0.5,0.));
#122= IFCCARTESIANPOINT((2.39917426370084E-07,-0.499999999770807,220.003295898729));
#123= IFCCARTESIANPOINT((2.39917426370084E-07,0.500000000229193,220.003295898729));
#124= IFCCARTESIANPOINT((0.,0.5,-3.63797880709171E-12));
#125= IFCPOLYLOOP((#121,#122,#123,#124));
#126= IFCFACEOUTERBOUND(#125,.T.);
#127= IFCFACE((#126));
#128= IFCCARTESIANPOINT((79.9999999998181,-0.5,1.34605215862393E-10));
#129= IFCCARTESIANPOINT((79.9999999998181,0.5,1.34605215862393E-10));
#130= IFCPOLYLOOP((#128,#121,#124,#129));
#131= IFCFACEOUTERBOUND(#130,.T.);
#132= IFCFACE((#131));
#133= IFCCARTESIANPOINT((79.999999999658,-0.499999999770807,220.00329589879));
#134= IFCCARTESIANPOINT((79.999999999658,0.500000000229193,220.00329589879));
#135= IFCPOLYLOOP((#133,#128,#129,#134));
#136= IFCFACEOUTERBOUND(#135,.T.);
#137= IFCFACE((#136));
#138= IFCPOLYLOOP((#106,#101,#96,#91,#86,#81,#76,#71,#66,#61,#56,#50,#49,#122,#121,#128,#133,#116,#111));
#139= IFCFACEOUTERBOUND(#138,.T.);
#140= IFCFACE((#139));
#141= IFCPOLYLOOP((#123,#122,#49,#52));
#142= IFCFACEOUTERBOUND(#141,.T.);
#143= IFCFACE((#142));
#144= IFCPOLYLOOP((#134,#129,#124,#123,#52,#51,#57,#62,#67,#72,#77,#82,#87,#92,#97,#102,#107,#112,#117));
#145= IFCFACEOUTERBOUND(#144,.T.);
#146= IFCFACE((#145));
#147= IFCPOLYLOOP((#133,#134,#117,#116));
#148= IFCFACEOUTERBOUND(#147,.T.);
#149= IFCFACE((#148));
#150= IFCCLOSEDSHELL((#55,#60,#65,#70,#75,#80,#85,#90,#95,#100,#105,#110,#115,#120,#127,#132,#137,#140,#143,#146,#149));
#151= IFCFACETEDBREP(#150);
#152= IFCSTYLEDITEM(#151,(#48),$);
#153= IFCSHAPEREPRESENTATION(#12,'Body','Brep',(#151));
#154= IFCPRODUCTDEFINITIONSHAPE($,$,(#153));
#155= IFCCARTESIANPOINT((56974.8726416988,16932.8973996684,16884.5001626666));
#156= IFCDIRECTION((0.000485407000087435,-0.999999882190008,1.16999999590917E-07));
#157= IFCDIRECTION((0.999999882190015,0.000485407000090327,0.));
#158= IFCAXIS2PLACEMENT3D(#155,#156,#157);
#159= IFCLOCALPLACEMENT(#42,#158);
#160= IFCPLATE('0xAWmCxSbF$vpMw__qHiin',#44,'PLATE-1','PL1*80',$,#159,#154,'ID3b2a0c0c-edc9-4fff-9cd6-ebefb446cb31');
#161= IFCPLATETYPE('3vKpvF14DBPQgU5MLz5ZTE',#5,'PL1*80',$,$,$,$,$,$,.NOTDEFINED.);
#162= IFCPROPERTYSINGLEVALUE('Bottom elevation',$,IFCLABEL(' +16.884'),$);
#163= IFCPROPERTYSINGLEVALUE('Top elevation',$,IFCLABEL(' +16.885'),$);
#164= IFCPROPERTYSINGLEVALUE('Initial GUID',$,$,$);
#165= IFCPROPERTYSINGLEVALUE('Preliminary mark',$,IFCLABEL('5-2-P43'),$);
#166= IFCPROPERTYSINGLEVALUE('Phase',$,IFCINTEGER(4),$);
#167= IFCPROPERTYSINGLEVALUE('Class',$,IFCLABEL('15'),$);
#168= IFCPROPERTYSET('3RamoMJ_v7xP4pIRqPjMMV',#5,'Tekla Common','Common Properties to Shared building elements',(#162,#163,#164,#165,#166,#167));
#169= IFCPROPERTYSINGLEVALUE('Weight',$,IFCMASSMEASURE(0.13),$);
#170= IFCPROPERTYSINGLEVALUE('Volume',$,IFCVOLUMEMEASURE(0.),$);
#171= IFCPROPERTYSINGLEVALUE('Gross footprint area',$,IFCAREAMEASURE(0.016),$);
#172= IFCPROPERTYSINGLEVALUE('Area per tons',$,IFCAREAMEASURE(260.232),$);
#173= IFCPROPERTYSINGLEVALUE('Net surface area',$,IFCAREAMEASURE(0.033),$);
#174= IFCPROPERTYSINGLEVALUE('Height',$,IFCLENGTHMEASURE(80.),$);
#175= IFCPROPERTYSINGLEVALUE('Width',$,IFCLENGTHMEASURE(1.),$);
#176= IFCPROPERTYSINGLEVALUE('Length',$,IFCLENGTHMEASURE(220.),$);
#177= IFCPROPERTYSET('2uddNUU4T61feChdX6SxMY',#5,'Tekla Quantity','Quantity Properties to Shared building elements',(#169,#170,#171,#172,#173,#174,#175,#176));
#178= IFCPROPERTYSINGLEVALUE('LoadBearing',$,IFCBOOLEAN(.F.),$);
#179= IFCPROPERTYSINGLEVALUE('Reference',$,IFCIDENTIFIER('5-2-P43'),$);
#180= IFCPROPERTYSET('3hqTZrCbPDE8D6V3o8dl_p',#5,'Pset_PlateCommon','Common Properties to plate elements',(#178,#179));
#181= IFCQUANTITYLENGTH('Width',$,$,79.9999999997091);
#182= IFCQUANTITYAREA('NetArea',$,$,0.0331014709129716);
#183= IFCQUANTITYAREA('GrossArea',$,$,0.0176002697158479);
#184= IFCQUANTITYAREA('CrossSectionArea',$,$,1.E-06);
#185= IFCQUANTITYVOLUME('NetVolume',$,$,1.62038002910266E-05);
#186= IFCQUANTITYVOLUME('GrossVolume',$,$,1.76002636454631E-05);
#187= IFCELEMENTQUANTITY('20TbvoFMX3_hv1r$uRMG_T',#5,'BaseQuantities',$,$,(#181,#182,#183,#184,#185,#186));
#188= IFCMATERIAL('STEEL/S275');
#189= IFCRELAGGREGATES('2hn6lCfQP5Se60Nm0aFMnj',#5,$,$,#37,(#39));
#190= IFCRELAGGREGATES('0CXytVr3X4$efW9$bNpbYB',#5,$,$,#39,(#41));
#191= IFCRELAGGREGATES('1hAf7a6Av85x63bPstdb8C',#5,$,$,#41,(#43));
#192= IFCRELCONTAINEDINSPATIALSTRUCTURE('0uMfgxvOr0rBOLMzIP7F0K',#5,$,$,(#160),#43);
#193= IFCRELDEFINESBYPROPERTIES('1CDGujdyn32fd59dDe5wkE',#5,$,$,(#160),#168);
#194= IFCRELDEFINESBYPROPERTIES('0dHoLYtXvEAuiaGDgf2eoi',#5,$,$,(#160),#177);
#195= IFCRELDEFINESBYPROPERTIES('1xlo16YZv8LOiCtJYS1tDQ',#5,$,$,(#160),#180);
#196= IFCRELDEFINESBYPROPERTIES('0m8zGZYgv6CA469_Tmni3O',#5,$,$,(#160),#187);
#197= IFCRELDEFINESBYTYPE('0HDRY2xd5FreuILNjeIZXw',#5,$,$,(#160),#161);
#198= IFCRELASSOCIATESMATERIAL('0NXIrt8snAT8DAV7uP3Ce5',#5,$,$,(#160),#188);
#199= IFCPRESENTATIONLAYERASSIGNMENT('PLATE-1',$,(#153),$);
ENDSEC;

END-ISO-10303-21;
