ISO-10303-21;
HEADER;
FILE_DESCRIPTION(('ViewDefinition[CoordinationView_V2.0, QuantityTakeOffAddOnView]', 'ExchangeRequirement[Structural, SurfaceGeometry]', 'Option [BaseQuantities:On]', 'Option [GridExport:On]', 'Option [Assemblies:Off]', 'Option [Bolts:On]', 'Option [Rebars:On]', 'Option [PourObjects:Off]', 'Option [Welds:Off]', 'Option [SurfaceTreatments:On]', 'Option [LocationBy:0]', 'Option [ViewColors:Off]', 'Option [SectionedSpine:Off]', 'Option [PropertySets:On]', 'Option [Export all:Off]'),'2;1');
FILE_NAME('5-2-A15_4.ifc','2026-03-10T08:04:17',('DESKTOP-NLV509P\\Ahmed'),('Structural Designer'),'IFC Parser version: 3.13.2','Tekla Structures 2023 Service Pack 8, IFC Export Version: 4.0.0.0 Jan 19 2024','');
FILE_SCHEMA(('IFC2X3'));
ENDSEC;

DATA;
#1= IFCPERSON('DESKTOP-NLV509P\\Ahmed','Undefined',$,$,$,$,$,$);
#2= IFCORGANIZATION($,'Trimble Solutions Corporation',$,$,$);
#3= IFCPERSONANDORGANIZATION(#1,#2,$);
#4= IFCAPPLICATION(#2,'2023 Service Pack 8','Tekla Structures','Multi material modeling');
#5= IFCOWNERHISTORY(#3,#4,$,.NOCHANGE.,$,$,$,1773119057);
#6= IFCCARTESIANPOINT((0.,0.,0.));
#7= IFCDIRECTION((1.,0.,0.));
#8= IFCDIRECTION((0.,1.,0.));
#9= IFCDIRECTION((0.,0.,1.));
#10= IFCAXIS2PLACEMENT3D(#6,#9,#7);
#11= IFCGEOMETRICREPRESENTATIONCONTEXT($,'Model',3,1.E-05,#10,$);
#12= IFCGEOMETRICREPRESENTATIONSUBCONTEXT('Body','Model',*,*,*,*,#11,$,.MODEL_VIEW.,$);
#13= IFCGEOMETRICREPRESENTATIONSUBCONTEXT('Axis','Model',*,*,*,*,#11,$,.GRAPH_VIEW.,$);
#14= IFCGEOMETRICREPRESENTATIONSUBCONTEXT('FootPrint','Model',*,*,*,*,#11,$,.MODEL_VIEW.,$);
#15= IFCSIUNIT(*,.LENGTHUNIT.,.MILLI.,.METRE.);
#16= IFCMEASUREWITHUNIT(IFCRATIOMEASURE(304.8),#15);
#17= IFCDIMENSIONALEXPONENTS(1,0,0,0,0,0,0);
#18= IFCCONVERSIONBASEDUNIT(#17,.LENGTHUNIT.,'FOOT',#16);
#19= IFCSIUNIT(*,.AREAUNIT.,$,.SQUARE_METRE.);
#20= IFCMEASUREWITHUNIT(IFCRATIOMEASURE(0.09290304),#19);
#21= IFCDIMENSIONALEXPONENTS(2,0,0,0,0,0,0);
#22= IFCCONVERSIONBASEDUNIT(#21,.AREAUNIT.,'SQUARE FOOT',#20);
#23= IFCSIUNIT(*,.VOLUMEUNIT.,$,.CUBIC_METRE.);
#24= IFCMEASUREWITHUNIT(IFCRATIOMEASURE(0.028316846592),#23);
#25= IFCDIMENSIONALEXPONENTS(3,0,0,0,0,0,0);
#26= IFCCONVERSIONBASEDUNIT(#25,.VOLUMEUNIT.,'CUBIC FOOT',#24);
#27= IFCSIUNIT(*,.MASSUNIT.,.KILO.,.GRAM.);
#28= IFCSIUNIT(*,.TIMEUNIT.,$,.SECOND.);
#29= IFCSIUNIT(*,.PLANEANGLEUNIT.,$,.RADIAN.);
#30= IFCMEASUREWITHUNIT(IFCRATIOMEASURE(0.0174532925199433),#29);
#31= IFCDIMENSIONALEXPONENTS(0,0,0,0,0,0,0);
#32= IFCCONVERSIONBASEDUNIT(#31,.PLANEANGLEUNIT.,'DEGREE',#30);
#33= IFCSIUNIT(*,.SOLIDANGLEUNIT.,$,.STERADIAN.);
#34= IFCSIUNIT(*,.THERMODYNAMICTEMPERATUREUNIT.,$,.DEGREE_CELSIUS.);
#35= IFCSIUNIT(*,.LUMINOUSINTENSITYUNIT.,$,.LUMEN.);
#36= IFCUNITASSIGNMENT((#15,#19,#23,#27,#28,#29,#33,#34,#35));
#37= IFCPROJECT('0Gl01JVLD0aRPYErJGrfFf',#5,'Undefined',$,$,$,$,(#11),#36);
#38= IFCLOCALPLACEMENT($,#10);
#39= IFCSITE('3KnBmLvE16Zey1Dl37$FGm',#5,'Undefined',$,$,#38,$,$,.ELEMENT.,$,$,$,$,$);
#40= IFCLOCALPLACEMENT(#38,#10);
#41= IFCBUILDING('3m1f$$glrAgPyUG2QSJ96W',#5,'Undefined',$,$,#40,$,$,.ELEMENT.,$,$,$);
#42= IFCLOCALPLACEMENT(#40,#10);
#43= IFCBUILDINGSTOREY('3gJPpYF7LCbf7I109fNVl5',#5,'Undefined',$,$,#42,$,$,.ELEMENT.,0.);
#44= IFCOWNERHISTORY(#3,#4,$,.NOCHANGE.,$,$,$,1773043200);
#45= IFCCOLOURRGB($,0.698039215686274,0.4,0.);
#46= IFCSURFACESTYLERENDERING(#45,0.,$,$,$,$,IFCNORMALISEDRATIOMEASURE(0.00390625),IFCSPECULAREXPONENT(10.),.NOTDEFINED.);
#47= IFCSURFACESTYLE('TS10.9',.POSITIVE.,(#46));
#48= IFCPRESENTATIONSTYLEASSIGNMENT((#47));
#49= IFCCARTESIANPOINT((9.,-11.9006400964272,0.));
#50= IFCCARTESIANPOINT((7.79422863405979,-11.9006400964272,4.50000000000027));
#51= IFCCARTESIANPOINT((4.49999999999946,-11.9006400964272,7.79422863406026));
#52= IFCCARTESIANPOINT((-9.3270238344029E-13,-11.9006400964272,9.));
#53= IFCCARTESIANPOINT((-4.50000000000107,-11.9006400964272,7.79422863405933));
#54= IFCCARTESIANPOINT((-7.79422863406072,-11.9006400964272,4.49999999999866));
#55= IFCCARTESIANPOINT((-9.,-11.9006400964272,-1.86540476688058E-12));
#56= IFCCARTESIANPOINT((-7.79422863405886,-11.9006400964272,-4.50000000000188));
#57= IFCCARTESIANPOINT((-4.49999999999785,-11.9006400964272,-7.79422863406119));
#58= IFCCARTESIANPOINT((2.78811514309924E-12,-11.9006400964272,-9.));
#59= IFCCARTESIANPOINT((4.50000000000269,-11.9006400964272,-7.7942286340584));
#60= IFCCARTESIANPOINT((7.79422863406166,-11.9006400964272,-4.49999999999704));
#61= IFCCARTESIANPOINT((9.,0.0993599061109531,0.));
#62= IFCCARTESIANPOINT((7.79422863405979,0.0993599061109531,4.50000000000027));
#63= IFCCARTESIANPOINT((4.49999999999946,0.0993599061109531,7.79422863406026));
#64= IFCCARTESIANPOINT((-9.3270238344029E-13,0.0993599061109531,9.));
#65= IFCCARTESIANPOINT((-4.50000000000107,0.0993599061109531,7.79422863405933));
#66= IFCCARTESIANPOINT((-7.79422863406072,0.0993599061109531,4.49999999999866));
#67= IFCCARTESIANPOINT((-9.,0.0993599061109531,-1.86540476688058E-12));
#68= IFCCARTESIANPOINT((-7.79422863405886,0.0993599061109531,-4.50000000000188));
#69= IFCCARTESIANPOINT((-4.49999999999785,0.0993599061109531,-7.79422863406119));
#70= IFCCARTESIANPOINT((2.78811514309924E-12,0.0993599061109531,-9.));
#71= IFCCARTESIANPOINT((4.50000000000269,0.0993599061109531,-7.7942286340584));
#72= IFCCARTESIANPOINT((7.79422863406166,0.0993599061109531,-4.49999999999704));
#73= IFCPOLYLOOP((#49,#50,#51,#52,#53,#54,#55,#56,#57,#58,#59,#60));
#74= IFCFACEOUTERBOUND(#73,.T.);
#75= IFCFACE((#74));
#76= IFCPOLYLOOP((#72,#71,#70,#69,#68,#67,#66,#65,#64,#63,#62,#61));
#77= IFCFACEOUTERBOUND(#76,.T.);
#78= IFCFACE((#77));
#79= IFCPOLYLOOP((#49,#61,#62,#50));
#80= IFCFACEOUTERBOUND(#79,.T.);
#81= IFCFACE((#80));
#82= IFCPOLYLOOP((#50,#62,#63,#51));
#83= IFCFACEOUTERBOUND(#82,.T.);
#84= IFCFACE((#83));
#85= IFCPOLYLOOP((#51,#63,#64,#52));
#86= IFCFACEOUTERBOUND(#85,.T.);
#87= IFCFACE((#86));
#88= IFCPOLYLOOP((#52,#64,#65,#53));
#89= IFCFACEOUTERBOUND(#88,.T.);
#90= IFCFACE((#89));
#91= IFCPOLYLOOP((#53,#65,#66,#54));
#92= IFCFACEOUTERBOUND(#91,.T.);
#93= IFCFACE((#92));
#94= IFCPOLYLOOP((#54,#66,#67,#55));
#95= IFCFACEOUTERBOUND(#94,.T.);
#96= IFCFACE((#95));
#97= IFCPOLYLOOP((#55,#67,#68,#56));
#98= IFCFACEOUTERBOUND(#97,.T.);
#99= IFCFACE((#98));
#100= IFCPOLYLOOP((#56,#68,#69,#57));
#101= IFCFACEOUTERBOUND(#100,.T.);
#102= IFCFACE((#101));
#103= IFCPOLYLOOP((#57,#69,#70,#58));
#104= IFCFACEOUTERBOUND(#103,.T.);
#105= IFCFACE((#104));
#106= IFCPOLYLOOP((#58,#70,#71,#59));
#107= IFCFACEOUTERBOUND(#106,.T.);
#108= IFCFACE((#107));
#109= IFCPOLYLOOP((#59,#71,#72,#60));
#110= IFCFACEOUTERBOUND(#109,.T.);
#111= IFCFACE((#110));
#112= IFCPOLYLOOP((#60,#72,#61,#49));
#113= IFCFACEOUTERBOUND(#112,.T.);
#114= IFCFACE((#113));
#115= IFCCARTESIANPOINT((9.,0.,6.));
#116= IFCCARTESIANPOINT((8.31491579260149,0.,9.44415089128602));
#117= IFCCARTESIANPOINT((6.3639610306786,0.,12.3639610306793));
#118= IFCCARTESIANPOINT((3.44415089128516,0.,14.3149157926018));
#119= IFCCARTESIANPOINT((-9.3270238344029E-13,0.,15.));
#120= IFCCARTESIANPOINT((-4.50000000000107,0.,13.7942286340593));
#121= IFCCARTESIANPOINT((-7.79422863406072,0.,10.4999999999987));
#122= IFCCARTESIANPOINT((-9.,0.,5.99999999999813));
#123= IFCCARTESIANPOINT((-9.,0.,-6.00000000000187));
#124= IFCCARTESIANPOINT((-7.79422863405886,0.,-10.5000000000019));
#125= IFCCARTESIANPOINT((-4.49999999999785,0.,-13.7942286340612));
#126= IFCCARTESIANPOINT((2.78811514309924E-12,0.,-15.));
#127= IFCCARTESIANPOINT((4.50000000000269,0.,-13.7942286340584));
#128= IFCCARTESIANPOINT((7.79422863406166,0.,-10.499999999997));
#129= IFCCARTESIANPOINT((9.,0.,-5.99999999999627));
#130= IFCCARTESIANPOINT((9.,18.,6.));
#131= IFCCARTESIANPOINT((8.31491579260149,18.,9.44415089128602));
#132= IFCCARTESIANPOINT((6.3639610306786,18.,12.3639610306793));
#133= IFCCARTESIANPOINT((3.44415089128516,18.,14.3149157926018));
#134= IFCCARTESIANPOINT((-9.3270238344029E-13,18.,15.));
#135= IFCCARTESIANPOINT((-4.50000000000107,18.,13.7942286340593));
#136= IFCCARTESIANPOINT((-7.79422863406072,18.,10.4999999999987));
#137= IFCCARTESIANPOINT((-9.,18.,5.99999999999813));
#138= IFCCARTESIANPOINT((-9.,18.,-6.00000000000187));
#139= IFCCARTESIANPOINT((-7.79422863405886,18.,-10.5000000000019));
#140= IFCCARTESIANPOINT((-4.49999999999785,18.,-13.7942286340612));
#141= IFCCARTESIANPOINT((2.78811514309924E-12,18.,-15.));
#142= IFCCARTESIANPOINT((4.50000000000269,18.,-13.7942286340584));
#143= IFCCARTESIANPOINT((7.79422863406166,18.,-10.499999999997));
#144= IFCCARTESIANPOINT((9.,18.,-5.99999999999627));
#145= IFCPOLYLOOP((#115,#116,#117,#119,#120,#121,#122,#123,#124,#125,#126,#127,#128,#129));
#146= IFCFACEOUTERBOUND(#145,.T.);
#147= IFCFACE((#146));
#148= IFCPOLYLOOP((#144,#143,#142,#141,#140,#139,#138,#137,#136,#135,#134,#133,#132,#131,#130));
#149= IFCFACEOUTERBOUND(#148,.T.);
#150= IFCFACE((#149));
#151= IFCPOLYLOOP((#115,#130,#131,#116));
#152= IFCFACEOUTERBOUND(#151,.T.);
#153= IFCFACE((#152));
#154= IFCPOLYLOOP((#116,#131,#132,#117));
#155= IFCFACEOUTERBOUND(#154,.T.);
#156= IFCFACE((#155));
#157= IFCPOLYLOOP((#117,#132,#133,#118));
#158= IFCFACEOUTERBOUND(#157,.T.);
#159= IFCFACE((#158));
#160= IFCPOLYLOOP((#118,#133,#134,#119));
#161= IFCFACEOUTERBOUND(#160,.T.);
#162= IFCFACE((#161));
#163= IFCPOLYLOOP((#119,#134,#135,#120));
#164= IFCFACEOUTERBOUND(#163,.T.);
#165= IFCFACE((#164));
#166= IFCPOLYLOOP((#120,#135,#136,#121));
#167= IFCFACEOUTERBOUND(#166,.T.);
#168= IFCFACE((#167));
#169= IFCPOLYLOOP((#121,#136,#137,#122));
#170= IFCFACEOUTERBOUND(#169,.T.);
#171= IFCFACE((#170));
#172= IFCPOLYLOOP((#122,#137,#138,#123));
#173= IFCFACEOUTERBOUND(#172,.T.);
#174= IFCFACE((#173));
#175= IFCPOLYLOOP((#123,#138,#139,#124));
#176= IFCFACEOUTERBOUND(#175,.T.);
#177= IFCFACE((#176));
#178= IFCPOLYLOOP((#124,#139,#140,#125));
#179= IFCFACEOUTERBOUND(#178,.T.);
#180= IFCFACE((#179));
#181= IFCPOLYLOOP((#125,#140,#141,#126));
#182= IFCFACEOUTERBOUND(#181,.T.);
#183= IFCFACE((#182));
#184= IFCPOLYLOOP((#126,#141,#142,#127));
#185= IFCFACEOUTERBOUND(#184,.T.);
#186= IFCFACE((#185));
#187= IFCPOLYLOOP((#127,#142,#143,#128));
#188= IFCFACEOUTERBOUND(#187,.T.);
#189= IFCFACE((#188));
#190= IFCPOLYLOOP((#128,#143,#144,#129));
#191= IFCFACEOUTERBOUND(#190,.T.);
#192= IFCFACE((#191));
#193= IFCPOLYLOOP((#129,#144,#130,#115));
#194= IFCFACEOUTERBOUND(#193,.T.);
#195= IFCFACE((#194));
#196= IFCCARTESIANPOINT((9.,105.,0.));
#197= IFCCARTESIANPOINT((7.79422863405979,105.,4.50000000000027));
#198= IFCCARTESIANPOINT((4.49999999999946,105.,7.79422863406026));
#199= IFCCARTESIANPOINT((-9.3270238344029E-13,105.,9.));
#200= IFCCARTESIANPOINT((-4.50000000000107,105.,7.79422863405933));
#201= IFCCARTESIANPOINT((-7.79422863406072,105.,4.49999999999866));
#202= IFCCARTESIANPOINT((-9.,105.,-1.86540476688058E-12));
#203= IFCCARTESIANPOINT((-7.79422863405886,105.,-4.50000000000188));
#204= IFCCARTESIANPOINT((-4.49999999999785,105.,-7.79422863406119));
#205= IFCCARTESIANPOINT((2.78811514309924E-12,105.,-9.));
#206= IFCCARTESIANPOINT((4.50000000000269,105.,-7.7942286340584));
#207= IFCCARTESIANPOINT((7.79422863406166,105.,-4.49999999999704));
#208= IFCCARTESIANPOINT((9.,205.,0.));
#209= IFCCARTESIANPOINT((7.79422863405979,205.,4.50000000000027));
#210= IFCCARTESIANPOINT((4.49999999999946,205.,7.79422863406026));
#211= IFCCARTESIANPOINT((-9.3270238344029E-13,205.,9.));
#212= IFCCARTESIANPOINT((-4.50000000000107,205.,7.79422863405933));
#213= IFCCARTESIANPOINT((-7.79422863406072,205.,4.49999999999866));
#214= IFCCARTESIANPOINT((-9.,205.,-1.86540476688058E-12));
#215= IFCCARTESIANPOINT((-7.79422863405886,205.,-4.50000000000188));
#216= IFCCARTESIANPOINT((-4.49999999999785,205.,-7.79422863406119));
#217= IFCCARTESIANPOINT((2.78811514309924E-12,205.,-9.));
#218= IFCCARTESIANPOINT((4.50000000000269,205.,-7.7942286340584));
#219= IFCCARTESIANPOINT((7.79422863406166,205.,-4.49999999999704));
#220= IFCPOLYLOOP((#196,#197,#198,#199,#200,#201,#202,#203,#204,#205,#206,#207));
#221= IFCFACEOUTERBOUND(#220,.T.);
#222= IFCFACE((#221));
#223= IFCPOLYLOOP((#219,#218,#217,#216,#215,#214,#213,#212,#211,#210,#209,#208));
#224= IFCFACEOUTERBOUND(#223,.T.);
#225= IFCFACE((#224));
#226= IFCPOLYLOOP((#196,#208,#209,#197));
#227= IFCFACEOUTERBOUND(#226,.T.);
#228= IFCFACE((#227));
#229= IFCPOLYLOOP((#197,#209,#210,#198));
#230= IFCFACEOUTERBOUND(#229,.T.);
#231= IFCFACE((#230));
#232= IFCPOLYLOOP((#198,#210,#211,#199));
#233= IFCFACEOUTERBOUND(#232,.T.);
#234= IFCFACE((#233));
#235= IFCPOLYLOOP((#199,#211,#212,#200));
#236= IFCFACEOUTERBOUND(#235,.T.);
#237= IFCFACE((#236));
#238= IFCPOLYLOOP((#200,#212,#213,#201));
#239= IFCFACEOUTERBOUND(#238,.T.);
#240= IFCFACE((#239));
#241= IFCPOLYLOOP((#201,#213,#214,#202));
#242= IFCFACEOUTERBOUND(#241,.T.);
#243= IFCFACE((#242));
#244= IFCPOLYLOOP((#202,#214,#215,#203));
#245= IFCFACEOUTERBOUND(#244,.T.);
#246= IFCFACE((#245));
#247= IFCPOLYLOOP((#203,#215,#216,#204));
#248= IFCFACEOUTERBOUND(#247,.T.);
#249= IFCFACE((#248));
#250= IFCPOLYLOOP((#204,#216,#217,#205));
#251= IFCFACEOUTERBOUND(#250,.T.);
#252= IFCFACE((#251));
#253= IFCPOLYLOOP((#205,#217,#218,#206));
#254= IFCFACEOUTERBOUND(#253,.T.);
#255= IFCFACE((#254));
#256= IFCPOLYLOOP((#206,#218,#219,#207));
#257= IFCFACEOUTERBOUND(#256,.T.);
#258= IFCFACE((#257));
#259= IFCPOLYLOOP((#207,#219,#208,#196));
#260= IFCFACEOUTERBOUND(#259,.T.);
#261= IFCFACE((#260));
#262= IFCCARTESIANPOINT((9.,122.,6.));
#263= IFCCARTESIANPOINT((8.31491579260149,122.,9.44415089128602));
#264= IFCCARTESIANPOINT((6.3639610306786,122.,12.3639610306793));
#265= IFCCARTESIANPOINT((3.44415089128516,122.,14.3149157926018));
#266= IFCCARTESIANPOINT((-9.3270238344029E-13,122.,15.));
#267= IFCCARTESIANPOINT((-4.50000000000107,122.,13.7942286340593));
#268= IFCCARTESIANPOINT((-7.79422863406072,122.,10.4999999999987));
#269= IFCCARTESIANPOINT((-9.,122.,5.99999999999813));
#270= IFCCARTESIANPOINT((-9.,122.,-6.00000000000187));
#271= IFCCARTESIANPOINT((-7.79422863405886,122.,-10.5000000000019));
#272= IFCCARTESIANPOINT((-4.49999999999785,122.,-13.7942286340612));
#273= IFCCARTESIANPOINT((2.78811514309924E-12,122.,-15.));
#274= IFCCARTESIANPOINT((4.50000000000269,122.,-13.7942286340584));
#275= IFCCARTESIANPOINT((7.79422863406166,122.,-10.499999999997));
#276= IFCCARTESIANPOINT((9.,122.,-5.99999999999627));
#277= IFCCARTESIANPOINT((9.,140.,6.));
#278= IFCCARTESIANPOINT((8.31491579260149,140.,9.44415089128602));
#279= IFCCARTESIANPOINT((6.3639610306786,140.,12.3639610306793));
#280= IFCCARTESIANPOINT((3.44415089128516,140.,14.3149157926018));
#281= IFCCARTESIANPOINT((-9.3270238344029E-13,140.,15.));
#282= IFCCARTESIANPOINT((-4.50000000000107,140.,13.7942286340593));
#283= IFCCARTESIANPOINT((-7.79422863406072,140.,10.4999999999987));
#284= IFCCARTESIANPOINT((-9.,140.,5.99999999999813));
#285= IFCCARTESIANPOINT((-9.,140.,-6.00000000000187));
#286= IFCCARTESIANPOINT((-7.79422863405886,140.,-10.5000000000019));
#287= IFCCARTESIANPOINT((-4.49999999999785,140.,-13.7942286340612));
#288= IFCCARTESIANPOINT((2.78811514309924E-12,140.,-15.));
#289= IFCCARTESIANPOINT((4.50000000000269,140.,-13.7942286340584));
#290= IFCCARTESIANPOINT((7.79422863406166,140.,-10.499999999997));
#291= IFCCARTESIANPOINT((9.,140.,-5.99999999999627));
#292= IFCPOLYLOOP((#262,#263,#264,#266,#267,#268,#269,#270,#271,#272,#273,#274,#275,#276));
#293= IFCFACEOUTERBOUND(#292,.T.);
#294= IFCFACE((#293));
#295= IFCPOLYLOOP((#291,#290,#289,#288,#287,#286,#285,#284,#283,#282,#281,#280,#279,#278,#277));
#296= IFCFACEOUTERBOUND(#295,.T.);
#297= IFCFACE((#296));
#298= IFCPOLYLOOP((#262,#277,#278,#263));
#299= IFCFACEOUTERBOUND(#298,.T.);
#300= IFCFACE((#299));
#301= IFCPOLYLOOP((#263,#278,#279,#264));
#302= IFCFACEOUTERBOUND(#301,.T.);
#303= IFCFACE((#302));
#304= IFCPOLYLOOP((#264,#279,#280,#265));
#305= IFCFACEOUTERBOUND(#304,.T.);
#306= IFCFACE((#305));
#307= IFCPOLYLOOP((#265,#280,#281,#266));
#308= IFCFACEOUTERBOUND(#307,.T.);
#309= IFCFACE((#308));
#310= IFCPOLYLOOP((#266,#281,#282,#267));
#311= IFCFACEOUTERBOUND(#310,.T.);
#312= IFCFACE((#311));
#313= IFCPOLYLOOP((#267,#282,#283,#268));
#314= IFCFACEOUTERBOUND(#313,.T.);
#315= IFCFACE((#314));
#316= IFCPOLYLOOP((#268,#283,#284,#269));
#317= IFCFACEOUTERBOUND(#316,.T.);
#318= IFCFACE((#317));
#319= IFCPOLYLOOP((#269,#284,#285,#270));
#320= IFCFACEOUTERBOUND(#319,.T.);
#321= IFCFACE((#320));
#322= IFCPOLYLOOP((#270,#285,#286,#271));
#323= IFCFACEOUTERBOUND(#322,.T.);
#324= IFCFACE((#323));
#325= IFCPOLYLOOP((#271,#286,#287,#272));
#326= IFCFACEOUTERBOUND(#325,.T.);
#327= IFCFACE((#326));
#328= IFCPOLYLOOP((#272,#287,#288,#273));
#329= IFCFACEOUTERBOUND(#328,.T.);
#330= IFCFACE((#329));
#331= IFCPOLYLOOP((#273,#288,#289,#274));
#332= IFCFACEOUTERBOUND(#331,.T.);
#333= IFCFACE((#332));
#334= IFCPOLYLOOP((#274,#289,#290,#275));
#335= IFCFACEOUTERBOUND(#334,.T.);
#336= IFCFACE((#335));
#337= IFCPOLYLOOP((#275,#290,#291,#276));
#338= IFCFACEOUTERBOUND(#337,.T.);
#339= IFCFACE((#338));
#340= IFCPOLYLOOP((#276,#291,#277,#262));
#341= IFCFACEOUTERBOUND(#340,.T.);
#342= IFCFACE((#341));
#343= IFCCARTESIANPOINT((9.,139.899359903573,0.));
#344= IFCCARTESIANPOINT((7.79422863405979,139.899359903573,4.50000000000027));
#345= IFCCARTESIANPOINT((4.49999999999946,139.899359903573,7.79422863406026));
#346= IFCCARTESIANPOINT((-9.3270238344029E-13,139.899359903573,9.));
#347= IFCCARTESIANPOINT((-4.50000000000107,139.899359903573,7.79422863405933));
#348= IFCCARTESIANPOINT((-7.79422863406072,139.899359903573,4.49999999999866));
#349= IFCCARTESIANPOINT((-9.,139.899359903573,-1.86540476688058E-12));
#350= IFCCARTESIANPOINT((-7.79422863405886,139.899359903573,-4.50000000000188));
#351= IFCCARTESIANPOINT((-4.49999999999785,139.899359903573,-7.79422863406119));
#352= IFCCARTESIANPOINT((2.78811514309924E-12,139.899359903573,-9.));
#353= IFCCARTESIANPOINT((4.50000000000269,139.899359903573,-7.7942286340584));
#354= IFCCARTESIANPOINT((7.79422863406166,139.899359903573,-4.49999999999704));
#355= IFCCARTESIANPOINT((9.,151.999359906111,0.));
#356= IFCCARTESIANPOINT((7.79422863405979,151.999359906111,4.50000000000027));
#357= IFCCARTESIANPOINT((4.49999999999946,151.999359906111,7.79422863406026));
#358= IFCCARTESIANPOINT((-9.3270238344029E-13,151.999359906111,9.));
#359= IFCCARTESIANPOINT((-4.50000000000107,151.999359906111,7.79422863405933));
#360= IFCCARTESIANPOINT((-7.79422863406072,151.999359906111,4.49999999999866));
#361= IFCCARTESIANPOINT((-9.,151.999359906111,-1.86540476688058E-12));
#362= IFCCARTESIANPOINT((-7.79422863405886,151.999359906111,-4.50000000000188));
#363= IFCCARTESIANPOINT((-4.49999999999785,151.999359906111,-7.79422863406119));
#364= IFCCARTESIANPOINT((2.78811514309924E-12,151.999359906111,-9.));
#365= IFCCARTESIANPOINT((4.50000000000269,151.999359906111,-7.7942286340584));
#366= IFCCARTESIANPOINT((7.79422863406166,151.999359906111,-4.49999999999704));
#367= IFCPOLYLOOP((#343,#344,#345,#346,#347,#348,#349,#350,#351,#352,#353,#354));
#368= IFCFACEOUTERBOUND(#367,.T.);
#369= IFCFACE((#368));
#370= IFCPOLYLOOP((#366,#365,#364,#363,#362,#361,#360,#359,#358,#357,#356,#355));
#371= IFCFACEOUTERBOUND(#370,.T.);
#372= IFCFACE((#371));
#373= IFCPOLYLOOP((#343,#355,#356,#344));
#374= IFCFACEOUTERBOUND(#373,.T.);
#375= IFCFACE((#374));
#376= IFCPOLYLOOP((#344,#356,#357,#345));
#377= IFCFACEOUTERBOUND(#376,.T.);
#378= IFCFACE((#377));
#379= IFCPOLYLOOP((#345,#357,#358,#346));
#380= IFCFACEOUTERBOUND(#379,.T.);
#381= IFCFACE((#380));
#382= IFCPOLYLOOP((#346,#358,#359,#347));
#383= IFCFACEOUTERBOUND(#382,.T.);
#384= IFCFACE((#383));
#385= IFCPOLYLOOP((#347,#359,#360,#348));
#386= IFCFACEOUTERBOUND(#385,.T.);
#387= IFCFACE((#386));
#388= IFCPOLYLOOP((#348,#360,#361,#349));
#389= IFCFACEOUTERBOUND(#388,.T.);
#390= IFCFACE((#389));
#391= IFCPOLYLOOP((#349,#361,#362,#350));
#392= IFCFACEOUTERBOUND(#391,.T.);
#393= IFCFACE((#392));
#394= IFCPOLYLOOP((#350,#362,#363,#351));
#395= IFCFACEOUTERBOUND(#394,.T.);
#396= IFCFACE((#395));
#397= IFCPOLYLOOP((#351,#363,#364,#352));
#398= IFCFACEOUTERBOUND(#397,.T.);
#399= IFCFACE((#398));
#400= IFCPOLYLOOP((#352,#364,#365,#353));
#401= IFCFACEOUTERBOUND(#400,.T.);
#402= IFCFACE((#401));
#403= IFCPOLYLOOP((#353,#365,#366,#354));
#404= IFCFACEOUTERBOUND(#403,.T.);
#405= IFCFACE((#404));
#406= IFCPOLYLOOP((#354,#366,#355,#343));
#407= IFCFACEOUTERBOUND(#406,.T.);
#408= IFCFACE((#407));
#409= IFCCARTESIANPOINT((13.856406460551,-22.5606400964272,0.));
#410= IFCCARTESIANPOINT((6.92820323027551,-22.5606400964272,12.));
#411= IFCCARTESIANPOINT((-6.92820323027551,-22.5606400964272,12.));
#412= IFCCARTESIANPOINT((-13.856406460551,-22.5606400964272,1.69692038195985E-15));
#413= IFCCARTESIANPOINT((-6.92820323027552,-22.5606400964272,-12.));
#414= IFCCARTESIANPOINT((6.9282032302755,-22.5606400964272,-12.));
#415= IFCCARTESIANPOINT((13.856406460551,-12.0006400964272,0.));
#416= IFCCARTESIANPOINT((6.92820323027551,-12.0006400964272,12.));
#417= IFCCARTESIANPOINT((-6.92820323027551,-12.0006400964272,12.));
#418= IFCCARTESIANPOINT((-13.856406460551,-12.0006400964272,1.69692038195985E-15));
#419= IFCCARTESIANPOINT((-6.92820323027552,-12.0006400964272,-12.));
#420= IFCCARTESIANPOINT((6.9282032302755,-12.0006400964272,-12.));
#421= IFCPOLYLOOP((#409,#410,#411,#412,#413,#414));
#422= IFCFACEOUTERBOUND(#421,.T.);
#423= IFCFACE((#422));
#424= IFCPOLYLOOP((#420,#419,#418,#417,#416,#415));
#425= IFCFACEOUTERBOUND(#424,.T.);
#426= IFCFACE((#425));
#427= IFCPOLYLOOP((#409,#415,#416,#410));
#428= IFCFACEOUTERBOUND(#427,.T.);
#429= IFCFACE((#428));
#430= IFCPOLYLOOP((#410,#416,#417,#411));
#431= IFCFACEOUTERBOUND(#430,.T.);
#432= IFCFACE((#431));
#433= IFCPOLYLOOP((#411,#417,#418,#412));
#434= IFCFACEOUTERBOUND(#433,.T.);
#435= IFCFACE((#434));
#436= IFCPOLYLOOP((#412,#418,#419,#413));
#437= IFCFACEOUTERBOUND(#436,.T.);
#438= IFCFACE((#437));
#439= IFCPOLYLOOP((#413,#419,#420,#414));
#440= IFCFACEOUTERBOUND(#439,.T.);
#441= IFCFACE((#440));
#442= IFCPOLYLOOP((#414,#420,#415,#409));
#443= IFCFACEOUTERBOUND(#442,.T.);
#444= IFCFACE((#443));
#445= IFCCARTESIANPOINT((8.,-12.0006400964272,0.));
#446= IFCCARTESIANPOINT((6.92820323027537,-12.0006400964272,4.00000000000024));
#447= IFCCARTESIANPOINT((3.99999999999952,-12.0006400964272,6.92820323027578));
#448= IFCCARTESIANPOINT((-8.29068785280258E-13,-12.0006400964272,8.));
#449= IFCCARTESIANPOINT((-4.00000000000096,-12.0006400964272,6.92820323027496));
#450= IFCCARTESIANPOINT((-6.9282032302762,-12.0006400964272,3.99999999999881));
#451= IFCCARTESIANPOINT((-8.,-12.0006400964272,-1.65813757056052E-12));
#452= IFCCARTESIANPOINT((-6.92820323027454,-12.0006400964272,-4.00000000000167));
#453= IFCCARTESIANPOINT((-3.99999999999809,-12.0006400964272,-6.92820323027661));
#454= IFCCARTESIANPOINT((2.47832457164377E-12,-12.0006400964272,-8.));
#455= IFCCARTESIANPOINT((4.00000000000239,-12.0006400964272,-6.92820323027413));
#456= IFCCARTESIANPOINT((6.92820323027703,-12.0006400964272,-3.99999999999737));
#457= IFCCARTESIANPOINT((8.,237.000000772713,0.));
#458= IFCCARTESIANPOINT((6.92820323027537,237.000000772713,4.00000000000024));
#459= IFCCARTESIANPOINT((3.99999999999952,237.000000772713,6.92820323027578));
#460= IFCCARTESIANPOINT((-8.29068785280258E-13,237.000000772713,8.));
#461= IFCCARTESIANPOINT((-4.00000000000096,237.000000772713,6.92820323027496));
#462= IFCCARTESIANPOINT((-6.9282032302762,237.000000772713,3.99999999999881));
#463= IFCCARTESIANPOINT((-8.,237.000000772713,-1.65813757056052E-12));
#464= IFCCARTESIANPOINT((-6.92820323027454,237.000000772713,-4.00000000000167));
#465= IFCCARTESIANPOINT((-3.99999999999809,237.000000772713,-6.92820323027661));
#466= IFCCARTESIANPOINT((2.47832457164377E-12,237.000000772713,-8.));
#467= IFCCARTESIANPOINT((4.00000000000239,237.000000772713,-6.92820323027413));
#468= IFCCARTESIANPOINT((6.92820323027703,237.000000772713,-3.99999999999737));
#469= IFCPOLYLOOP((#445,#446,#447,#448,#449,#450,#451,#452,#453,#454,#455,#456));
#470= IFCFACEOUTERBOUND(#469,.T.);
#471= IFCFACE((#470));
#472= IFCPOLYLOOP((#468,#467,#466,#465,#464,#463,#462,#461,#460,#459,#458,#457));
#473= IFCFACEOUTERBOUND(#472,.T.);
#474= IFCFACE((#473));
#475= IFCPOLYLOOP((#445,#457,#458,#446));
#476= IFCFACEOUTERBOUND(#475,.T.);
#477= IFCFACE((#476));
#478= IFCPOLYLOOP((#446,#458,#459,#447));
#479= IFCFACEOUTERBOUND(#478,.T.);
#480= IFCFACE((#479));
#481= IFCPOLYLOOP((#447,#459,#460,#448));
#482= IFCFACEOUTERBOUND(#481,.T.);
#483= IFCFACE((#482));
#484= IFCPOLYLOOP((#448,#460,#461,#449));
#485= IFCFACEOUTERBOUND(#484,.T.);
#486= IFCFACE((#485));
#487= IFCPOLYLOOP((#449,#461,#462,#450));
#488= IFCFACEOUTERBOUND(#487,.T.);
#489= IFCFACE((#488));
#490= IFCPOLYLOOP((#450,#462,#463,#451));
#491= IFCFACEOUTERBOUND(#490,.T.);
#492= IFCFACE((#491));
#493= IFCPOLYLOOP((#451,#463,#464,#452));
#494= IFCFACEOUTERBOUND(#493,.T.);
#495= IFCFACE((#494));
#496= IFCPOLYLOOP((#452,#464,#465,#453));
#497= IFCFACEOUTERBOUND(#496,.T.);
#498= IFCFACE((#497));
#499= IFCPOLYLOOP((#453,#465,#466,#454));
#500= IFCFACEOUTERBOUND(#499,.T.);
#501= IFCFACE((#500));
#502= IFCPOLYLOOP((#454,#466,#467,#455));
#503= IFCFACEOUTERBOUND(#502,.T.);
#504= IFCFACE((#503));
#505= IFCPOLYLOOP((#455,#467,#468,#456));
#506= IFCFACEOUTERBOUND(#505,.T.);
#507= IFCFACE((#506));
#508= IFCPOLYLOOP((#456,#468,#457,#445));
#509= IFCFACEOUTERBOUND(#508,.T.);
#510= IFCFACE((#509));
#511= IFCCARTESIANPOINT((14.4,205.,0.));
#512= IFCCARTESIANPOINT((12.4707658144957,205.,7.20000000000043));
#513= IFCCARTESIANPOINT((7.19999999999914,205.,12.4707658144964));
#514= IFCCARTESIANPOINT((-1.49232381350446E-12,205.,14.4));
#515= IFCCARTESIANPOINT((-7.20000000000172,205.,12.4707658144949));
#516= IFCCARTESIANPOINT((-12.4707658144972,205.,7.19999999999785));
#517= IFCCARTESIANPOINT((-14.4,205.,-2.98464762700893E-12));
#518= IFCCARTESIANPOINT((-12.4707658144942,205.,-7.20000000000301));
#519= IFCCARTESIANPOINT((-7.19999999999656,205.,-12.4707658144979));
#520= IFCCARTESIANPOINT((4.46098422895879E-12,205.,-14.4));
#521= IFCCARTESIANPOINT((7.2000000000043,205.,-12.4707658144934));
#522= IFCCARTESIANPOINT((12.4707658144986,205.,-7.19999999999527));
#523= IFCCARTESIANPOINT((14.4,210.28,0.));
#524= IFCCARTESIANPOINT((12.4707658144957,210.28,7.20000000000043));
#525= IFCCARTESIANPOINT((7.19999999999914,210.28,12.4707658144964));
#526= IFCCARTESIANPOINT((-1.49232381350446E-12,210.28,14.4));
#527= IFCCARTESIANPOINT((-7.20000000000172,210.28,12.4707658144949));
#528= IFCCARTESIANPOINT((-12.4707658144972,210.28,7.19999999999785));
#529= IFCCARTESIANPOINT((-14.4,210.28,-2.98464762700893E-12));
#530= IFCCARTESIANPOINT((-12.4707658144942,210.28,-7.20000000000301));
#531= IFCCARTESIANPOINT((-7.19999999999656,210.28,-12.4707658144979));
#532= IFCCARTESIANPOINT((4.46098422895879E-12,210.28,-14.4));
#533= IFCCARTESIANPOINT((7.2000000000043,210.28,-12.4707658144934));
#534= IFCCARTESIANPOINT((12.4707658144986,210.28,-7.19999999999527));
#535= IFCPOLYLOOP((#511,#512,#513,#514,#515,#516,#517,#518,#519,#520,#521,#522));
#536= IFCFACEOUTERBOUND(#535,.T.);
#537= IFCFACE((#536));
#538= IFCPOLYLOOP((#534,#533,#532,#531,#530,#529,#528,#527,#526,#525,#524,#523));
#539= IFCFACEOUTERBOUND(#538,.T.);
#540= IFCFACE((#539));
#541= IFCPOLYLOOP((#511,#523,#524,#512));
#542= IFCFACEOUTERBOUND(#541,.T.);
#543= IFCFACE((#542));
#544= IFCPOLYLOOP((#512,#524,#525,#513));
#545= IFCFACEOUTERBOUND(#544,.T.);
#546= IFCFACE((#545));
#547= IFCPOLYLOOP((#513,#525,#526,#514));
#548= IFCFACEOUTERBOUND(#547,.T.);
#549= IFCFACE((#548));
#550= IFCPOLYLOOP((#514,#526,#527,#515));
#551= IFCFACEOUTERBOUND(#550,.T.);
#552= IFCFACE((#551));
#553= IFCPOLYLOOP((#515,#527,#528,#516));
#554= IFCFACEOUTERBOUND(#553,.T.);
#555= IFCFACE((#554));
#556= IFCPOLYLOOP((#516,#528,#529,#517));
#557= IFCFACEOUTERBOUND(#556,.T.);
#558= IFCFACE((#557));
#559= IFCPOLYLOOP((#517,#529,#530,#518));
#560= IFCFACEOUTERBOUND(#559,.T.);
#561= IFCFACE((#560));
#562= IFCPOLYLOOP((#518,#530,#531,#519));
#563= IFCFACEOUTERBOUND(#562,.T.);
#564= IFCFACE((#563));
#565= IFCPOLYLOOP((#519,#531,#532,#520));
#566= IFCFACEOUTERBOUND(#565,.T.);
#567= IFCFACE((#566));
#568= IFCPOLYLOOP((#520,#532,#533,#521));
#569= IFCFACEOUTERBOUND(#568,.T.);
#570= IFCFACE((#569));
#571= IFCPOLYLOOP((#521,#533,#534,#522));
#572= IFCFACEOUTERBOUND(#571,.T.);
#573= IFCFACE((#572));
#574= IFCPOLYLOOP((#522,#534,#523,#511));
#575= IFCFACEOUTERBOUND(#574,.T.);
#576= IFCFACE((#575));
#577= IFCCLOSEDSHELL((#423,#426,#429,#432,#435,#438,#441,#444,#471,#474,#477,#480,#483,#486,#489,#492,#495,#498,#501,#504,#507,#510,#537,#540,#543,#546,#549,#552,#555,#558,#561,#564,#567,#570,#573,#576));
#578= IFCFACETEDBREP(#577);
#579= IFCSTYLEDITEM(#578,(#48),$);
#580= IFCCLOSEDSHELL((#75,#78,#81,#84,#87,#90,#93,#96,#99,#102,#105,#108,#111,#114,#147,#150,#153,#156,#159,#162,#165,#168,#171,#174,#177,#180,#183,#186,#189,#192,#195,#222,#225,#228,#231,#234,#237,#240,#243,#246,#249,#252,#255,#258,#261,#294,#297,#300,#303,#306,#309,#312,#315,#318,#321,#324,#327,#330,#333,#336,#339,#342,#369,#372,#375,#378,#381,#384,#387,#390,#393,#396,#399,#402,#405,#408));
#581= IFCCOLOURRGB($,0.,0.,0.);
#582= IFCSURFACESTYLERENDERING(#581,0.,$,$,$,$,IFCNORMALISEDRATIOMEASURE(0.00390625),IFCSPECULAREXPONENT(10.),.NOTDEFINED.);
#583= IFCSURFACESTYLE($,.POSITIVE.,(#582));
#584= IFCPRESENTATIONSTYLEASSIGNMENT((#583));
#585= IFCFACETEDBREP(#580);
#586= IFCSTYLEDITEM(#585,(#584),$);
#587= IFCCARTESIANTRANSFORMATIONOPERATOR3D($,$,#6,$,$);
#588= IFCSHAPEREPRESENTATION(#12,'Body','Brep',(#578,#585));
#589= IFCREPRESENTATIONMAP(#10,#588);
#590= IFCMAPPEDITEM(#589,#587);
#591= IFCSHAPEREPRESENTATION(#12,'Body','MappedRepresentation',(#590));
#592= IFCPRODUCTDEFINITIONSHAPE($,$,(#591));
#593= IFCCARTESIANPOINT((52784.998911352,29592.9982118658,16950.0007692249));
#594= IFCDIRECTION((0.,-1.,0.));
#595= IFCAXIS2PLACEMENT3D(#593,#9,#594);
#596= IFCLOCALPLACEMENT(#42,#595);
#597= IFCMECHANICALFASTENER('1_OX0FqyzE1O0wHQ$9rK9r',#44,'Bolt assembly',$,$,#596,#592,'ID7e62100f-d3cf-4e05-803a-45afc9d54275',16.,249.000640869141);
#598= IFCMECHANICALFASTENERTYPE('2qly7d4WL2RuP0taj_CQiQ',#5,'Bolt assembly',$,$,$,$,$,$);
#599= IFCPROPERTYSINGLEVALUE('Washer count',$,IFCINTEGER(1),$);
#600= IFCPROPERTYSINGLEVALUE('Washer diameter',$,IFCLENGTHMEASURE(16.),$);
#601= IFCPROPERTYSINGLEVALUE('Washer type',$,IFCLABEL(''),$);
#602= IFCPROPERTYSINGLEVALUE('Washer name',$,IFCLABEL(''),$);
#603= IFCPROPERTYSINGLEVALUE('Nut count',$,IFCINTEGER(0),$);
#604= IFCPROPERTYSINGLEVALUE('Nut type',$,IFCLABEL(''),$);
#605= IFCPROPERTYSINGLEVALUE('Nut name',$,IFCLABEL(''),$);
#606= IFCPROPERTYSINGLEVALUE('Slotted hole y',$,IFCLENGTHMEASURE(12.),$);
#607= IFCPROPERTYSINGLEVALUE('Slotted hole x',$,IFCLENGTHMEASURE(0.),$);
#608= IFCPROPERTYSINGLEVALUE('Bolt hole diameter',$,IFCLENGTHMEASURE(18.),$);
#609= IFCPROPERTYSINGLEVALUE('Location',$,IFCLABEL('Site'),$);
#610= IFCPROPERTYSINGLEVALUE('Bolt count',$,IFCINTEGER(1),$);
#611= IFCPROPERTYSINGLEVALUE('Bolt size',$,IFCLENGTHMEASURE(16.),$);
#612= IFCPROPERTYSINGLEVALUE('Bolt length',$,IFCLENGTHMEASURE(249.),$);
#613= IFCPROPERTYSINGLEVALUE('Bolt standard',$,IFCLABEL('TS10.9'),$);
#614= IFCPROPERTYSINGLEVALUE('Bolt Name',$,IFCLABEL(''),$);
#615= IFCPROPERTYSET('0PVUpX$gz3jguv$p69aX3M',#5,'Tekla Bolt','Bolt Properties',(#599,#600,#601,#602,#603,#604,#605,#606,#607,#608,#609,#610,#611,#612,#613,#614));
#616= IFCMATERIAL('TS10.9');
#617= IFCCOLOURRGB('Light Red',0.905882352941176,0.325490196078431,0.36078431372549);
#618= IFCSURFACESTYLERENDERING(#617,0.,$,$,$,$,IFCNORMALISEDRATIOMEASURE(0.00390625),IFCSPECULAREXPONENT(10.),.NOTDEFINED.);
#619= IFCSURFACESTYLE('STEEL/S275',.POSITIVE.,(#618));
#620= IFCPRESENTATIONSTYLEASSIGNMENT((#619));
#621= IFCCARTESIANPOINT((3.63797880709171E-12,-6.00000000001455,3.63797880709171E-12));
#622= IFCCARTESIANPOINT((7.27595761418343E-12,-6.00000000020373,60.0000000000036));
#623= IFCCARTESIANPOINT((3.63797880709171E-12,5.9999999998181,60.));
#624= IFCCARTESIANPOINT((-3.63797880709171E-12,6.00000000000728,0.));
#625= IFCPOLYLOOP((#621,#622,#623,#624));
#626= IFCFACEOUTERBOUND(#625,.T.);
#627= IFCFACE((#626));
#628= IFCCARTESIANPOINT((60.0006408690497,-6.0000000001819,60.0000000000036));
#629= IFCCARTESIANPOINT((60.0006408690424,5.99999999983993,60.));
#630= IFCPOLYLOOP((#622,#628,#629,#623));
#631= IFCFACEOUTERBOUND(#630,.T.);
#632= IFCFACE((#631));
#633= IFCCARTESIANPOINT((60.0004043578156,-5.99999999998545,3.63797880709171E-12));
#634= IFCCARTESIANPOINT((60.0004043578119,6.00000000003638,0.));
#635= IFCPOLYLOOP((#628,#633,#634,#629));
#636= IFCFACEOUTERBOUND(#635,.T.);
#637= IFCFACE((#636));
#638= IFCPOLYLOOP((#633,#621,#624,#634));
#639= IFCFACEOUTERBOUND(#638,.T.);
#640= IFCFACE((#639));
#641= IFCPOLYLOOP((#629,#634,#624,#623));
#642= IFCFACEOUTERBOUND(#641,.T.);
#643= IFCFACE((#642));
#644= IFCPOLYLOOP((#633,#628,#622,#621));
#645= IFCFACEOUTERBOUND(#644,.T.);
#646= IFCFACE((#645));
#647= IFCCLOSEDSHELL((#627,#632,#637,#640,#643,#646));
#648= IFCFACETEDBREP(#647);
#649= IFCSTYLEDITEM(#648,(#620),$);
#650= IFCSHAPEREPRESENTATION(#12,'Body','Brep',(#648));
#651= IFCPRODUCTDEFINITIONSHAPE($,$,(#650));
#652= IFCCARTESIANPOINT((52930.997631111,29562.9979355439,16980.000769219));
#653= IFCDIRECTION((1.00000033853576E-09,-2.18278728425503E-14,-1.));
#654= IFCDIRECTION((2.13369999369319E-05,0.999999999772366,0.));
#655= IFCAXIS2PLACEMENT3D(#652,#653,#654);
#656= IFCLOCALPLACEMENT(#42,#655);
#657= IFCPLATE('37KJ$IZgf6qu4UK0h7ENhS',#44,'PLATE-12','PL12*60',$,#656,#651,'IDc7513fd2-8eaa-46d3-811e-500ac7397adc');
#658= IFCPLATETYPE('3DtiqhzkfCvOzap5yuWQck',#5,'PL12*60',$,$,$,$,$,$,.NOTDEFINED.);
#659= IFCPROPERTYSINGLEVALUE('Bottom elevation',$,IFCLABEL(' +16.920'),$);
#660= IFCPROPERTYSINGLEVALUE('Top elevation',$,IFCLABEL(' +16.980'),$);
#661= IFCPROPERTYSINGLEVALUE('Initial GUID',$,$,$);
#662= IFCPROPERTYSINGLEVALUE('Preliminary mark',$,IFCLABEL('5-2-P19'),$);
#663= IFCPROPERTYSINGLEVALUE('Phase',$,IFCINTEGER(4),$);
#664= IFCPROPERTYSINGLEVALUE('Class',$,IFCLABEL('16'),$);
#665= IFCPROPERTYSET('2Ni$RfACHDQ8Dd5M0bdVHa',#5,'Tekla Common','Common Properties to Shared building elements',(#659,#660,#661,#662,#663,#664));
#666= IFCPROPERTYSINGLEVALUE('Weight',$,IFCMASSMEASURE(0.34),$);
#667= IFCPROPERTYSINGLEVALUE('Volume',$,IFCVOLUMEMEASURE(0.),$);
#668= IFCPROPERTYSINGLEVALUE('Gross footprint area',$,IFCAREAMEASURE(0.001),$);
#669= IFCPROPERTYSINGLEVALUE('Area per tons',$,IFCAREAMEASURE(29.724),$);
#670= IFCPROPERTYSINGLEVALUE('Net surface area',$,IFCAREAMEASURE(0.01),$);
#671= IFCPROPERTYSINGLEVALUE('Height',$,IFCLENGTHMEASURE(60.),$);
#672= IFCPROPERTYSINGLEVALUE('Width',$,IFCLENGTHMEASURE(12.),$);
#673= IFCPROPERTYSINGLEVALUE('Length',$,IFCLENGTHMEASURE(60.),$);
#674= IFCPROPERTYSET('3i0U0EvYv9Wxd2DSe4vQzo',#5,'Tekla Quantity','Quantity Properties to Shared building elements',(#666,#667,#668,#669,#670,#671,#672,#673));
#675= IFCPROPERTYSINGLEVALUE('LoadBearing',$,IFCBOOLEAN(.F.),$);
#676= IFCPROPERTYSINGLEVALUE('Reference',$,IFCIDENTIFIER('5-2-P19'),$);
#677= IFCPROPERTYSET('1yRD7Prt9D_gCbgwUVG9ul',#5,'Pset_PlateCommon','Common Properties to plate elements',(#675,#676));
#678= IFCQUANTITYLENGTH('Width',$,$,60.);
#679= IFCQUANTITYAREA('NetArea',$,$,0.0100800752563531);
#680= IFCQUANTITYAREA('GrossArea',$,$,0.00360003845214844);
#681= IFCQUANTITYAREA('CrossSectionArea',$,$,0.000144);
#682= IFCQUANTITYVOLUME('NetVolume',$,$,4.32003762817376E-05);
#683= IFCQUANTITYVOLUME('GrossVolume',$,$,4.32003762817376E-05);
#684= IFCELEMENTQUANTITY('3Htw5jkrT7Y943KquwsiHi',#5,'BaseQuantities',$,$,(#678,#679,#680,#681,#682,#683));
#685= IFCMATERIAL('STEEL/S275');
#686= IFCRELAGGREGATES('2Wmc5E5wLD9Rg29O0oTXum',#5,$,$,#37,(#39));
#687= IFCRELAGGREGATES('2nLOjjbYL0Ah77m19fsb2M',#5,$,$,#39,(#41));
#688= IFCRELAGGREGATES('1YzXtjx7j9BuwtMNbmvuez',#5,$,$,#41,(#43));
#689= IFCRELCONTAINEDINSPATIALSTRUCTURE('37rb2Usr143AWi$fHdnEMT',#5,$,$,(#657,#597),#43);
#690= IFCRELDEFINESBYPROPERTIES('0jt6mCSoXBwxgJ3DiDtez0',#5,$,$,(#597),#615);
#691= IFCRELDEFINESBYPROPERTIES('17tRoVs1T5bvg8WjFFUS7Y',#5,$,$,(#657),#665);
#692= IFCRELDEFINESBYPROPERTIES('32Wb91sRvFEuz_mBjdqFmP',#5,$,$,(#657),#674);
#693= IFCRELDEFINESBYPROPERTIES('17b7VfOA1Eee5QerO9S80n',#5,$,$,(#657),#677);
#694= IFCRELDEFINESBYPROPERTIES('1hn5Bzw9rD0RpHZgWCYo1C',#5,$,$,(#657),#684);
#695= IFCRELDEFINESBYTYPE('08JtwXnlb5Iw2cO02vbSAL',#5,$,$,(#597),#598);
#696= IFCRELDEFINESBYTYPE('3a8xkdWz1FthIx4xcK$Bju',#5,$,$,(#657),#658);
#697= IFCRELASSOCIATESMATERIAL('3Xyw975aL53hbbIiBI1B0t',#5,$,$,(#597),#616);
#698= IFCRELASSOCIATESMATERIAL('1yywS7Pwj9fv5QozmsH349',#5,$,$,(#657),#685);
#699= IFCPRESENTATIONLAYERASSIGNMENT('BoltArray',$,(#591),$);
#700= IFCPRESENTATIONLAYERASSIGNMENT('PLATE-12',$,(#650),$);
ENDSEC;

END-ISO-10303-21;
