ISO-10303-21;
HEADER;
FILE_DESCRIPTION(('ViewDefinition[CoordinationView_V2.0, QuantityTakeOffAddOnView]', 'ExchangeRequirement[Structural, SurfaceGeometry]', 'Option [BaseQuantities:On]', 'Option [GridExport:On]', 'Option [Assemblies:Off]', 'Option [Bolts:On]', 'Option [Rebars:On]', 'Option [PourObjects:Off]', 'Option [Welds:Off]', 'Option [SurfaceTreatments:On]', 'Option [LocationBy:0]', 'Option [ViewColors:Off]', 'Option [SectionedSpine:Off]', 'Option [PropertySets:On]', 'Option [Export all:Off]'),'2;1');
FILE_NAME('5-2-A14_3.ifc','2026-03-10T08:04:19',('DESKTOP-NLV509P\\Ahmed'),('Structural Designer'),'IFC Parser version: 3.13.2','Tekla Structures 2023 Service Pack 8, IFC Export Version: 4.0.0.0 Jan 19 2024','');
FILE_SCHEMA(('IFC2X3'));
ENDSEC;

DATA;
#1= IFCPERSON('DESKTOP-NLV509P\\Ahmed','Undefined',$,$,$,$,$,$);
#2= IFCORGANIZATION($,'Trimble Solutions Corporation',$,$,$);
#3= IFCPERSONANDORGANIZATION(#1,#2,$);
#4= IFCAPPLICATION(#2,'2023 Service Pack 8','Tekla Structures','Multi material modeling');
#5= IFCOWNERHISTORY(#3,#4,$,.NOCHANGE.,$,$,$,1773119059);
#6= IFCCARTESIANPOINT((0.,0.,0.));
#7= IFCDIRECTION((1.,0.,0.));
#8= IFCDIRECTION((0.,1.,0.));
#9= IFCDIRECTION((0.,0.,1.));
#10= IFCAXIS2PLACEMENT3D(#6,#9,#7);
#11= IFCGEOMETRICREPRESENTATIONCONTEXT($,'Model',3,1.E-05,#10,$);
#12= IFCGEOMETRICREPRESENTATIONSUBCONTEXT('Body','Model',*,*,*,*,#11,$,.MODEL_VIEW.,$);
#13= IFCGEOMETRICREPRESENTATIONSUBCONTEXT('Axis','Model',*,*,*,*,#11,$,.GRAPH_VIEW.,$);
#14= IFCGEOMETRICREPRESENTATIONSUBCONTEXT('FootPrint','Model',*,*,*,*,#11,$,.MODEL_VIEW.,$);
#15= IFCSIUNIT(*,.LENGTHUNIT.,.MILLI.,.METRE.);
#16= IFCMEASUREWITHUNIT(IFCRATIOMEASURE(304.8),#15);
#17= IFCDIMENSIONALEXPONENTS(1,0,0,0,0,0,0);
#18= IFCCONVERSIONBASEDUNIT(#17,.LENGTHUNIT.,'FOOT',#16);
#19= IFCSIUNIT(*,.AREAUNIT.,$,.SQUARE_METRE.);
#20= IFCMEASUREWITHUNIT(IFCRATIOMEASURE(0.09290304),#19);
#21= IFCDIMENSIONALEXPONENTS(2,0,0,0,0,0,0);
#22= IFCCONVERSIONBASEDUNIT(#21,.AREAUNIT.,'SQUARE FOOT',#20);
#23= IFCSIUNIT(*,.VOLUMEUNIT.,$,.CUBIC_METRE.);
#24= IFCMEASUREWITHUNIT(IFCRATIOMEASURE(0.028316846592),#23);
#25= IFCDIMENSIONALEXPONENTS(3,0,0,0,0,0,0);
#26= IFCCONVERSIONBASEDUNIT(#25,.VOLUMEUNIT.,'CUBIC FOOT',#24);
#27= IFCSIUNIT(*,.MASSUNIT.,.KILO.,.GRAM.);
#28= IFCSIUNIT(*,.TIMEUNIT.,$,.SECOND.);
#29= IFCSIUNIT(*,.PLANEANGLEUNIT.,$,.RADIAN.);
#30= IFCMEASUREWITHUNIT(IFCRATIOMEASURE(0.0174532925199433),#29);
#31= IFCDIMENSIONALEXPONENTS(0,0,0,0,0,0,0);
#32= IFCCONVERSIONBASEDUNIT(#31,.PLANEANGLEUNIT.,'DEGREE',#30);
#33= IFCSIUNIT(*,.SOLIDANGLEUNIT.,$,.STERADIAN.);
#34= IFCSIUNIT(*,.THERMODYNAMICTEMPERATUREUNIT.,$,.DEGREE_CELSIUS.);
#35= IFCSIUNIT(*,.LUMINOUSINTENSITYUNIT.,$,.LUMEN.);
#36= IFCUNITASSIGNMENT((#15,#19,#23,#27,#28,#29,#33,#34,#35));
#37= IFCPROJECT('0V3yiBnRPF9eudezNCRUy9',#5,'Undefined',$,$,$,$,(#11),#36);
#38= IFCLOCALPLACEMENT($,#10);
#39= IFCSITE('3OS2$6rxbBXv4JMrhtJ1ee',#5,'Undefined',$,$,#38,$,$,.ELEMENT.,$,$,$,$,$);
#40= IFCLOCALPLACEMENT(#38,#10);
#41= IFCBUILDING('1y5fwP4KHCtv_sIK99uJxC',#5,'Undefined',$,$,#40,$,$,.ELEMENT.,$,$,$);
#42= IFCLOCALPLACEMENT(#40,#10);
#43= IFCBUILDINGSTOREY('3gJPpYF7LCbf7I109fNVl5',#5,'Undefined',$,$,#42,$,$,.ELEMENT.,0.);
#44= IFCOWNERHISTORY(#3,#4,$,.NOCHANGE.,$,$,$,1770796800);
#45= IFCCOLOURRGB($,0.698039215686274,0.4,0.);
#46= IFCSURFACESTYLERENDERING(#45,0.,$,$,$,$,IFCNORMALISEDRATIOMEASURE(0.00390625),IFCSPECULAREXPONENT(10.),.NOTDEFINED.);
#47= IFCSURFACESTYLE('Undefined',.POSITIVE.,(#46));
#48= IFCPRESENTATIONSTYLEASSIGNMENT((#47));
#49= IFCCARTESIANPOINT((14.,52.5000000000437,0.));
#50= IFCCARTESIANPOINT((12.1243556529819,52.5000000000437,7.00000000000042));
#51= IFCCARTESIANPOINT((6.99999999999916,52.5000000000437,12.1243556529826));
#52= IFCCARTESIANPOINT((-1.45087037424045E-12,52.5000000000437,14.));
#53= IFCCARTESIANPOINT((-7.00000000000167,52.5000000000437,12.1243556529812));
#54= IFCCARTESIANPOINT((-12.1243556529833,52.5000000000437,6.99999999999791));
#55= IFCCARTESIANPOINT((-14.,52.5000000000437,-2.9017407484809E-12));
#56= IFCCARTESIANPOINT((-12.1243556529805,52.5000000000437,-7.00000000000293));
#57= IFCCARTESIANPOINT((-6.99999999999666,52.5000000000437,-12.1243556529841));
#58= IFCCARTESIANPOINT((4.3370680003766E-12,52.5000000000437,-14.));
#59= IFCCARTESIANPOINT((7.00000000000418,52.5000000000437,-12.1243556529797));
#60= IFCCARTESIANPOINT((12.1243556529848,52.5000000000437,-6.9999999999954));
#61= IFCCARTESIANPOINT((14.,64.6000000000437,0.));
#62= IFCCARTESIANPOINT((12.1243556529819,64.6000000000437,7.00000000000042));
#63= IFCCARTESIANPOINT((6.99999999999916,64.6000000000437,12.1243556529826));
#64= IFCCARTESIANPOINT((-1.45087037424045E-12,64.6000000000437,14.));
#65= IFCCARTESIANPOINT((-7.00000000000167,64.6000000000437,12.1243556529812));
#66= IFCCARTESIANPOINT((-12.1243556529833,64.6000000000437,6.99999999999791));
#67= IFCCARTESIANPOINT((-14.,64.6000000000437,-2.9017407484809E-12));
#68= IFCCARTESIANPOINT((-12.1243556529805,64.6000000000437,-7.00000000000293));
#69= IFCCARTESIANPOINT((-6.99999999999666,64.6000000000437,-12.1243556529841));
#70= IFCCARTESIANPOINT((4.3370680003766E-12,64.6000000000437,-14.));
#71= IFCCARTESIANPOINT((7.00000000000418,64.6000000000437,-12.1243556529797));
#72= IFCCARTESIANPOINT((12.1243556529848,64.6000000000437,-6.9999999999954));
#73= IFCPOLYLOOP((#49,#50,#51,#52,#53,#54,#55,#56,#57,#58,#59,#60));
#74= IFCFACEOUTERBOUND(#73,.T.);
#75= IFCFACE((#74));
#76= IFCPOLYLOOP((#72,#71,#70,#69,#68,#67,#66,#65,#64,#63,#62,#61));
#77= IFCFACEOUTERBOUND(#76,.T.);
#78= IFCFACE((#77));
#79= IFCPOLYLOOP((#49,#61,#62,#50));
#80= IFCFACEOUTERBOUND(#79,.T.);
#81= IFCFACE((#80));
#82= IFCPOLYLOOP((#50,#62,#63,#51));
#83= IFCFACEOUTERBOUND(#82,.T.);
#84= IFCFACE((#83));
#85= IFCPOLYLOOP((#51,#63,#64,#52));
#86= IFCFACEOUTERBOUND(#85,.T.);
#87= IFCFACE((#86));
#88= IFCPOLYLOOP((#52,#64,#65,#53));
#89= IFCFACEOUTERBOUND(#88,.T.);
#90= IFCFACE((#89));
#91= IFCPOLYLOOP((#53,#65,#66,#54));
#92= IFCFACEOUTERBOUND(#91,.T.);
#93= IFCFACE((#92));
#94= IFCPOLYLOOP((#54,#66,#67,#55));
#95= IFCFACEOUTERBOUND(#94,.T.);
#96= IFCFACE((#95));
#97= IFCPOLYLOOP((#55,#67,#68,#56));
#98= IFCFACEOUTERBOUND(#97,.T.);
#99= IFCFACE((#98));
#100= IFCPOLYLOOP((#56,#68,#69,#57));
#101= IFCFACEOUTERBOUND(#100,.T.);
#102= IFCFACE((#101));
#103= IFCPOLYLOOP((#57,#69,#70,#58));
#104= IFCFACEOUTERBOUND(#103,.T.);
#105= IFCFACE((#104));
#106= IFCPOLYLOOP((#58,#70,#71,#59));
#107= IFCFACEOUTERBOUND(#106,.T.);
#108= IFCFACE((#107));
#109= IFCPOLYLOOP((#59,#71,#72,#60));
#110= IFCFACEOUTERBOUND(#109,.T.);
#111= IFCFACE((#110));
#112= IFCPOLYLOOP((#60,#72,#61,#49));
#113= IFCFACEOUTERBOUND(#112,.T.);
#114= IFCFACE((#113));
#115= IFCCLOSEDSHELL((#75,#78,#81,#84,#87,#90,#93,#96,#99,#102,#105,#108,#111,#114));
#116= IFCCOLOURRGB($,0.,0.,0.);
#117= IFCSURFACESTYLERENDERING(#116,0.,$,$,$,$,IFCNORMALISEDRATIOMEASURE(0.00390625),IFCSPECULAREXPONENT(10.),.NOTDEFINED.);
#118= IFCSURFACESTYLE($,.POSITIVE.,(#117));
#119= IFCPRESENTATIONSTYLEASSIGNMENT((#118));
#120= IFCFACETEDBREP(#115);
#121= IFCSTYLEDITEM(#120,(#119),$);
#122= IFCCARTESIANTRANSFORMATIONOPERATOR3D($,$,#6,$,$);
#123= IFCSHAPEREPRESENTATION(#12,'Body','Brep',(#120));
#124= IFCREPRESENTATIONMAP(#10,#123);
#125= IFCMAPPEDITEM(#124,#122);
#126= IFCSHAPEREPRESENTATION(#12,'Body','MappedRepresentation',(#125));
#127= IFCPRODUCTDEFINITIONSHAPE($,$,(#126));
#128= IFCCARTESIANPOINT((52979.4965555161,29643.0008229821,19479.9997011098));
#129= IFCDIRECTION((0.,0.,-1.));
#130= IFCDIRECTION((0.,-1.,0.));
#131= IFCAXIS2PLACEMENT3D(#128,#129,#130);
#132= IFCLOCALPLACEMENT(#42,#131);
#133= IFCMECHANICALFASTENER('2R4q1qI9X6BeQ6qvfBK_yu',#44,'Bolt assembly',$,$,#132,#127,'ID9b134074-4898-462e-8686-d39a4b53ef38',26.,12.);
#134= IFCMECHANICALFASTENERTYPE('1nciSn$_fDiRt59_6uDi76',#5,'Bolt assembly',$,$,$,$,$,$);
#135= IFCPROPERTYSINGLEVALUE('Washer count',$,IFCINTEGER(0),$);
#136= IFCPROPERTYSINGLEVALUE('Washer diameter',$,IFCLENGTHMEASURE(26.),$);
#137= IFCPROPERTYSINGLEVALUE('Washer type',$,IFCLABEL('PLAIN'),$);
#138= IFCPROPERTYSINGLEVALUE('Washer name',$,IFCLABEL(''),$);
#139= IFCPROPERTYSINGLEVALUE('Nut count',$,IFCINTEGER(0),$);
#140= IFCPROPERTYSINGLEVALUE('Nut type',$,IFCLABEL('HEAVY_HEX'),$);
#141= IFCPROPERTYSINGLEVALUE('Nut name',$,IFCLABEL(''),$);
#142= IFCPROPERTYSINGLEVALUE('Slotted hole y',$,IFCLENGTHMEASURE(0.),$);
#143= IFCPROPERTYSINGLEVALUE('Slotted hole x',$,IFCLENGTHMEASURE(0.),$);
#144= IFCPROPERTYSINGLEVALUE('Bolt hole diameter',$,IFCLENGTHMEASURE(28.),$);
#145= IFCPROPERTYSINGLEVALUE('Location',$,IFCLABEL('Site'),$);
#146= IFCPROPERTYSINGLEVALUE('Bolt count',$,IFCINTEGER(1),$);
#147= IFCPROPERTYSINGLEVALUE('Bolt size',$,IFCLENGTHMEASURE(28.),$);
#148= IFCPROPERTYSINGLEVALUE('Bolt length',$,IFCLENGTHMEASURE(12.),$);
#149= IFCPROPERTYSINGLEVALUE('Bolt standard',$,IFCLABEL(''),$);
#150= IFCPROPERTYSINGLEVALUE('Bolt Name',$,IFCLABEL(''),$);
#151= IFCPROPERTYSET('1CRbkz8qT1DAwuboshmMN_',#5,'Tekla Bolt','Bolt Properties',(#135,#136,#137,#138,#139,#140,#141,#142,#143,#144,#145,#146,#147,#148,#149,#150));
#152= IFCMATERIAL('Undefined');
#153= IFCCARTESIANPOINT((14.,14.5000000000437,0.));
#154= IFCCARTESIANPOINT((12.1243556529819,14.5000000000437,7.00000000000042));
#155= IFCCARTESIANPOINT((6.99999999999916,14.5000000000437,12.1243556529826));
#156= IFCCARTESIANPOINT((-1.45087037424045E-12,14.5000000000437,14.));
#157= IFCCARTESIANPOINT((-7.00000000000167,14.5000000000437,12.1243556529812));
#158= IFCCARTESIANPOINT((-12.1243556529833,14.5000000000437,6.99999999999791));
#159= IFCCARTESIANPOINT((-14.,14.5000000000437,-2.9017407484809E-12));
#160= IFCCARTESIANPOINT((-12.1243556529805,14.5000000000437,-7.00000000000293));
#161= IFCCARTESIANPOINT((-6.99999999999666,14.5000000000437,-12.1243556529841));
#162= IFCCARTESIANPOINT((4.3370680003766E-12,14.5000000000437,-14.));
#163= IFCCARTESIANPOINT((7.00000000000418,14.5000000000437,-12.1243556529797));
#164= IFCCARTESIANPOINT((12.1243556529848,14.5000000000437,-6.9999999999954));
#165= IFCCARTESIANPOINT((14.,26.6000000000437,0.));
#166= IFCCARTESIANPOINT((12.1243556529819,26.6000000000437,7.00000000000042));
#167= IFCCARTESIANPOINT((6.99999999999916,26.6000000000437,12.1243556529826));
#168= IFCCARTESIANPOINT((-1.45087037424045E-12,26.6000000000437,14.));
#169= IFCCARTESIANPOINT((-7.00000000000167,26.6000000000437,12.1243556529812));
#170= IFCCARTESIANPOINT((-12.1243556529833,26.6000000000437,6.99999999999791));
#171= IFCCARTESIANPOINT((-14.,26.6000000000437,-2.9017407484809E-12));
#172= IFCCARTESIANPOINT((-12.1243556529805,26.6000000000437,-7.00000000000293));
#173= IFCCARTESIANPOINT((-6.99999999999666,26.6000000000437,-12.1243556529841));
#174= IFCCARTESIANPOINT((4.3370680003766E-12,26.6000000000437,-14.));
#175= IFCCARTESIANPOINT((7.00000000000418,26.6000000000437,-12.1243556529797));
#176= IFCCARTESIANPOINT((12.1243556529848,26.6000000000437,-6.9999999999954));
#177= IFCPOLYLOOP((#153,#154,#155,#156,#157,#158,#159,#160,#161,#162,#163,#164));
#178= IFCFACEOUTERBOUND(#177,.T.);
#179= IFCFACE((#178));
#180= IFCPOLYLOOP((#176,#175,#174,#173,#172,#171,#170,#169,#168,#167,#166,#165));
#181= IFCFACEOUTERBOUND(#180,.T.);
#182= IFCFACE((#181));
#183= IFCPOLYLOOP((#153,#165,#166,#154));
#184= IFCFACEOUTERBOUND(#183,.T.);
#185= IFCFACE((#184));
#186= IFCPOLYLOOP((#154,#166,#167,#155));
#187= IFCFACEOUTERBOUND(#186,.T.);
#188= IFCFACE((#187));
#189= IFCPOLYLOOP((#155,#167,#168,#156));
#190= IFCFACEOUTERBOUND(#189,.T.);
#191= IFCFACE((#190));
#192= IFCPOLYLOOP((#156,#168,#169,#157));
#193= IFCFACEOUTERBOUND(#192,.T.);
#194= IFCFACE((#193));
#195= IFCPOLYLOOP((#157,#169,#170,#158));
#196= IFCFACEOUTERBOUND(#195,.T.);
#197= IFCFACE((#196));
#198= IFCPOLYLOOP((#158,#170,#171,#159));
#199= IFCFACEOUTERBOUND(#198,.T.);
#200= IFCFACE((#199));
#201= IFCPOLYLOOP((#159,#171,#172,#160));
#202= IFCFACEOUTERBOUND(#201,.T.);
#203= IFCFACE((#202));
#204= IFCPOLYLOOP((#160,#172,#173,#161));
#205= IFCFACEOUTERBOUND(#204,.T.);
#206= IFCFACE((#205));
#207= IFCPOLYLOOP((#161,#173,#174,#162));
#208= IFCFACEOUTERBOUND(#207,.T.);
#209= IFCFACE((#208));
#210= IFCPOLYLOOP((#162,#174,#175,#163));
#211= IFCFACEOUTERBOUND(#210,.T.);
#212= IFCFACE((#211));
#213= IFCPOLYLOOP((#163,#175,#176,#164));
#214= IFCFACEOUTERBOUND(#213,.T.);
#215= IFCFACE((#214));
#216= IFCPOLYLOOP((#164,#176,#165,#153));
#217= IFCFACEOUTERBOUND(#216,.T.);
#218= IFCFACE((#217));
#219= IFCCLOSEDSHELL((#179,#182,#185,#188,#191,#194,#197,#200,#203,#206,#209,#212,#215,#218));
#220= IFCFACETEDBREP(#219);
#221= IFCSTYLEDITEM(#220,(#119),$);
#222= IFCSHAPEREPRESENTATION(#12,'Body','Brep',(#220));
#223= IFCREPRESENTATIONMAP(#10,#222);
#224= IFCMAPPEDITEM(#223,#122);
#225= IFCSHAPEREPRESENTATION(#12,'Body','MappedRepresentation',(#224));
#226= IFCPRODUCTDEFINITIONSHAPE($,$,(#225));
#227= IFCLOCALPLACEMENT(#42,#131);
#228= IFCMECHANICALFASTENER('2MwLFzTmj8HxoxC2AlZlHs',#44,'Bolt assembly',$,$,#227,#226,'ID96e953fd-770b-4847-bcbb-3022af8ef476',26.,12.);
#229= IFCCARTESIANPOINT((15.,15.0000000000109,0.));
#230= IFCCARTESIANPOINT((12.9903810567663,15.0000000000109,7.50000000000045));
#231= IFCCARTESIANPOINT((7.4999999999991,15.0000000000109,12.9903810567671));
#232= IFCCARTESIANPOINT((-1.55450397240048E-12,15.0000000000109,15.));
#233= IFCCARTESIANPOINT((-7.50000000000179,15.0000000000109,12.9903810567655));
#234= IFCCARTESIANPOINT((-12.9903810567679,15.0000000000109,7.49999999999776));
#235= IFCCARTESIANPOINT((-15.,15.0000000000109,-3.10900794480097E-12));
#236= IFCCARTESIANPOINT((-12.9903810567648,15.0000000000109,-7.50000000000313));
#237= IFCCARTESIANPOINT((-7.49999999999642,15.0000000000109,-12.9903810567686));
#238= IFCCARTESIANPOINT((4.64685857183207E-12,15.0000000000109,-15.));
#239= IFCCARTESIANPOINT((7.50000000000448,15.0000000000109,-12.990381056764));
#240= IFCCARTESIANPOINT((12.9903810567694,15.0000000000109,-7.49999999999507));
#241= IFCCARTESIANPOINT((15.,35.1000000000109,0.));
#242= IFCCARTESIANPOINT((12.9903810567663,35.1000000000109,7.50000000000045));
#243= IFCCARTESIANPOINT((7.4999999999991,35.1000000000109,12.9903810567671));
#244= IFCCARTESIANPOINT((-1.55450397240048E-12,35.1000000000109,15.));
#245= IFCCARTESIANPOINT((-7.50000000000179,35.1000000000109,12.9903810567655));
#246= IFCCARTESIANPOINT((-12.9903810567679,35.1000000000109,7.49999999999776));
#247= IFCCARTESIANPOINT((-15.,35.1000000000109,-3.10900794480097E-12));
#248= IFCCARTESIANPOINT((-12.9903810567648,35.1000000000109,-7.50000000000313));
#249= IFCCARTESIANPOINT((-7.49999999999642,35.1000000000109,-12.9903810567686));
#250= IFCCARTESIANPOINT((4.64685857183207E-12,35.1000000000109,-15.));
#251= IFCCARTESIANPOINT((7.50000000000448,35.1000000000109,-12.990381056764));
#252= IFCCARTESIANPOINT((12.9903810567694,35.1000000000109,-7.49999999999507));
#253= IFCPOLYLOOP((#229,#230,#231,#232,#233,#234,#235,#236,#237,#238,#239,#240));
#254= IFCFACEOUTERBOUND(#253,.T.);
#255= IFCFACE((#254));
#256= IFCPOLYLOOP((#252,#251,#250,#249,#248,#247,#246,#245,#244,#243,#242,#241));
#257= IFCFACEOUTERBOUND(#256,.T.);
#258= IFCFACE((#257));
#259= IFCPOLYLOOP((#229,#241,#242,#230));
#260= IFCFACEOUTERBOUND(#259,.T.);
#261= IFCFACE((#260));
#262= IFCPOLYLOOP((#230,#242,#243,#231));
#263= IFCFACEOUTERBOUND(#262,.T.);
#264= IFCFACE((#263));
#265= IFCPOLYLOOP((#231,#243,#244,#232));
#266= IFCFACEOUTERBOUND(#265,.T.);
#267= IFCFACE((#266));
#268= IFCPOLYLOOP((#232,#244,#245,#233));
#269= IFCFACEOUTERBOUND(#268,.T.);
#270= IFCFACE((#269));
#271= IFCPOLYLOOP((#233,#245,#246,#234));
#272= IFCFACEOUTERBOUND(#271,.T.);
#273= IFCFACE((#272));
#274= IFCPOLYLOOP((#234,#246,#247,#235));
#275= IFCFACEOUTERBOUND(#274,.T.);
#276= IFCFACE((#275));
#277= IFCPOLYLOOP((#235,#247,#248,#236));
#278= IFCFACEOUTERBOUND(#277,.T.);
#279= IFCFACE((#278));
#280= IFCPOLYLOOP((#236,#248,#249,#237));
#281= IFCFACEOUTERBOUND(#280,.T.);
#282= IFCFACE((#281));
#283= IFCPOLYLOOP((#237,#249,#250,#238));
#284= IFCFACEOUTERBOUND(#283,.T.);
#285= IFCFACE((#284));
#286= IFCPOLYLOOP((#238,#250,#251,#239));
#287= IFCFACEOUTERBOUND(#286,.T.);
#288= IFCFACE((#287));
#289= IFCPOLYLOOP((#239,#251,#252,#240));
#290= IFCFACEOUTERBOUND(#289,.T.);
#291= IFCFACE((#290));
#292= IFCPOLYLOOP((#240,#252,#241,#229));
#293= IFCFACEOUTERBOUND(#292,.T.);
#294= IFCFACE((#293));
#295= IFCCLOSEDSHELL((#255,#258,#261,#264,#267,#270,#273,#276,#279,#282,#285,#288,#291,#294));
#296= IFCFACETEDBREP(#295);
#297= IFCSTYLEDITEM(#296,(#119),$);
#298= IFCSHAPEREPRESENTATION(#12,'Body','Brep',(#296));
#299= IFCREPRESENTATIONMAP(#10,#298);
#300= IFCMAPPEDITEM(#299,#122);
#301= IFCSHAPEREPRESENTATION(#12,'Body','MappedRepresentation',(#300));
#302= IFCPRODUCTDEFINITIONSHAPE($,$,(#301));
#303= IFCCARTESIANPOINT((53014.9998616355,29442.9991652312,19634.9997011097));
#304= IFCDIRECTION((-1.,0.,0.));
#305= IFCAXIS2PLACEMENT3D(#303,#130,#304);
#306= IFCLOCALPLACEMENT(#42,#305);
#307= IFCMECHANICALFASTENER('2dyZANzDvD6wswDcbUAM$$',#44,'Bolt assembly',$,$,#306,#302,'IDa7f23297-f4de-4d1b-adba-36695e296fff',28.,20.);
#308= IFCPROPERTYSINGLEVALUE('Washer diameter',$,IFCLENGTHMEASURE(28.),$);
#309= IFCPROPERTYSINGLEVALUE('Bolt hole diameter',$,IFCLENGTHMEASURE(30.),$);
#310= IFCPROPERTYSINGLEVALUE('Bolt size',$,IFCLENGTHMEASURE(30.),$);
#311= IFCPROPERTYSINGLEVALUE('Bolt length',$,IFCLENGTHMEASURE(20.),$);
#312= IFCPROPERTYSET('0ilZvjpX18ogrIFQLxGAOT',#5,'Tekla Bolt','Bolt Properties',(#135,#308,#137,#138,#139,#140,#141,#142,#143,#309,#145,#146,#310,#311,#149,#150));
#313= IFCMAPPEDITEM(#299,#122);
#314= IFCSHAPEREPRESENTATION(#12,'Body','MappedRepresentation',(#313));
#315= IFCPRODUCTDEFINITIONSHAPE($,$,(#314));
#316= IFCCARTESIANPOINT((52864.9998616355,29442.9991652312,19634.9997011097));
#317= IFCAXIS2PLACEMENT3D(#316,#130,#304);
#318= IFCLOCALPLACEMENT(#42,#317);
#319= IFCMECHANICALFASTENER('10Ldb5lTXFjw1GiCzqEsSC',#44,'Bolt assembly',$,$,#318,#315,'ID40567945-bdd8-4fb7-a050-b0cf743b670c',28.,20.);
#320= IFCMAPPEDITEM(#299,#122);
#321= IFCSHAPEREPRESENTATION(#12,'Body','MappedRepresentation',(#320));
#322= IFCPRODUCTDEFINITIONSHAPE($,$,(#321));
#323= IFCCARTESIANPOINT((53014.9998616355,29642.9991652312,19634.9997011097));
#324= IFCAXIS2PLACEMENT3D(#323,#130,#304);
#325= IFCLOCALPLACEMENT(#42,#324);
#326= IFCMECHANICALFASTENER('2Zesk8i$z95hyD5$8ewNO0',#44,'Bolt assembly',$,$,#325,#322,'IDa3a36b88-b3ff-4916-bf0d-17f228e97600',28.,20.);
#327= IFCMAPPEDITEM(#299,#122);
#328= IFCSHAPEREPRESENTATION(#12,'Body','MappedRepresentation',(#327));
#329= IFCPRODUCTDEFINITIONSHAPE($,$,(#328));
#330= IFCCARTESIANPOINT((52864.9998616355,29642.9991652312,19634.9997011097));
#331= IFCAXIS2PLACEMENT3D(#330,#130,#304);
#332= IFCLOCALPLACEMENT(#42,#331);
#333= IFCMECHANICALFASTENER('0dj_jpa3jAvg2qa5whYayR',#44,'Bolt assembly',$,$,#332,#329,'ID27b7eb73-903b-4ae6-a0b4-905eab8a4f1b',28.,20.);
#334= IFCMAPPEDITEM(#299,#122);
#335= IFCSHAPEREPRESENTATION(#12,'Body','MappedRepresentation',(#334));
#336= IFCPRODUCTDEFINITIONSHAPE($,$,(#335));
#337= IFCCARTESIANPOINT((53014.9998616355,29842.9991652312,19634.9997011097));
#338= IFCAXIS2PLACEMENT3D(#337,#130,#304);
#339= IFCLOCALPLACEMENT(#42,#338);
#340= IFCMECHANICALFASTENER('3hsegR4_D8dfgrrtCKQJwj',#44,'Bolt assembly',$,$,#339,#336,'IDebda8a9b-13e3-489e-9ab5-d77314693ead',28.,20.);
#341= IFCMAPPEDITEM(#299,#122);
#342= IFCSHAPEREPRESENTATION(#12,'Body','MappedRepresentation',(#341));
#343= IFCPRODUCTDEFINITIONSHAPE($,$,(#342));
#344= IFCCARTESIANPOINT((52864.9998616355,29842.9991652312,19634.9997011097));
#345= IFCAXIS2PLACEMENT3D(#344,#130,#304);
#346= IFCLOCALPLACEMENT(#42,#345);
#347= IFCMECHANICALFASTENER('0NPgMS0AL3sQE$NThaDtLU',#44,'Bolt assembly',$,$,#346,#343,'ID1766a59c-00a5-43d9-a3bf-5ddae437755e',28.,20.);
#348= IFCCOLOURRGB('Light Magenta',0.686274509803922,0.505882352941176,0.752941176470588);
#349= IFCSURFACESTYLERENDERING(#348,0.,$,$,$,$,IFCNORMALISEDRATIOMEASURE(0.00390625),IFCSPECULAREXPONENT(10.),.NOTDEFINED.);
#350= IFCSURFACESTYLE('STEEL/S275',.POSITIVE.,(#349));
#351= IFCPRESENTATIONSTYLEASSIGNMENT((#350));
#352= IFCCARTESIANPOINT((7.27595761418343E-12,-4.,7.27595761418343E-12));
#353= IFCCARTESIANPOINT((-17.8885438201032,-4.,35.7770876396316));
#354= IFCCARTESIANPOINT((-17.8885438201032,4.,35.7770876396316));
#355= IFCCARTESIANPOINT((7.27595761418343E-12,4.,7.27595761418343E-12));
#356= IFCPOLYLOOP((#352,#353,#354,#355));
#357= IFCFACEOUTERBOUND(#356,.T.);
#358= IFCFACE((#357));
#359= IFCCARTESIANPOINT((71.5541752807694,-4.,80.4984471892894));
#360= IFCCARTESIANPOINT((71.5541752807694,4.,80.4984471892894));
#361= IFCPOLYLOOP((#353,#359,#360,#354));
#362= IFCFACEOUTERBOUND(#361,.T.);
#363= IFCFACE((#362));
#364= IFCCARTESIANPOINT((73.6428395213807,-4.,77.180427091771));
#365= IFCCARTESIANPOINT((73.6428395213807,4.,77.180427091771));
#366= IFCPOLYLOOP((#359,#364,#365,#360));
#367= IFCFACEOUTERBOUND(#366,.T.);
#368= IFCFACE((#367));
#369= IFCCARTESIANPOINT((76.3386842735708,-4.,74.3336399993277));
#370= IFCCARTESIANPOINT((76.3386842735708,4.,74.3336399993277));
#371= IFCPOLYLOOP((#364,#369,#370,#365));
#372= IFCFACEOUTERBOUND(#371,.T.);
#373= IFCFACE((#372));
#374= IFCCARTESIANPOINT((79.5381097353529,-4.,72.0674863434324));
#375= IFCCARTESIANPOINT((79.5381097353529,4.,72.0674863434324));
#376= IFCPOLYLOOP((#369,#374,#375,#370));
#377= IFCFACEOUTERBOUND(#376,.T.);
#378= IFCFACE((#377));
#379= IFCCARTESIANPOINT((83.1181637804912,-4.,70.4690531382075));
#380= IFCCARTESIANPOINT((83.1181637804912,4.,70.4690531382075));
#381= IFCPOLYLOOP((#374,#379,#380,#375));
#382= IFCFACEOUTERBOUND(#381,.T.);
#383= IFCFACE((#382));
#384= IFCCARTESIANPOINT((86.9412669397352,-4.,69.5997672753219));
#385= IFCCARTESIANPOINT((86.9412669397352,4.,69.5997672753219));
#386= IFCPOLYLOOP((#379,#384,#385,#380));
#387= IFCFACEOUTERBOUND(#386,.T.);
#388= IFCFACE((#387));
#389= IFCCARTESIANPOINT((90.8604995027054,-4.,69.4930349229762));
#390= IFCCARTESIANPOINT((90.8604995027054,4.,69.4930349229762));
#391= IFCPOLYLOOP((#384,#389,#390,#385));
#392= IFCFACEOUTERBOUND(#391,.T.);
#393= IFCFACE((#392));
#394= IFCCARTESIANPOINT((94.7252475599307,-4.,70.1529577456313));
#395= IFCCARTESIANPOINT((94.7252475599307,4.,70.1529577456313));
#396= IFCPOLYLOOP((#389,#394,#395,#390));
#397= IFCFACEOUTERBOUND(#396,.T.);
#398= IFCFACE((#397));
#399= IFCCARTESIANPOINT((98.3869910109424,-4.,71.5541752792851));
#400= IFCCARTESIANPOINT((98.3869910109424,4.,71.5541752792851));
#401= IFCPOLYLOOP((#394,#399,#400,#395));
#402= IFCFACEOUTERBOUND(#401,.T.);
#403= IFCFACE((#402));
#404= IFCCARTESIANPOINT((125.219806741159,-4.,17.8885438198267));
#405= IFCCARTESIANPOINT((125.219806741159,4.,17.8885438198267));
#406= IFCPOLYLOOP((#399,#404,#405,#400));
#407= IFCFACEOUTERBOUND(#406,.T.);
#408= IFCFACE((#407));
#409= IFCCARTESIANPOINT((89.4427191008072,-4.,2.18278728425503E-11));
#410= IFCCARTESIANPOINT((89.4427191008072,4.,2.18278728425503E-11));
#411= IFCPOLYLOOP((#404,#409,#410,#405));
#412= IFCFACEOUTERBOUND(#411,.T.);
#413= IFCFACE((#412));
#414= IFCPOLYLOOP((#409,#352,#355,#410));
#415= IFCFACEOUTERBOUND(#414,.T.);
#416= IFCFACE((#415));
#417= IFCPOLYLOOP((#360,#365,#370,#375,#380,#385,#390,#395,#400,#405,#410,#355,#354));
#418= IFCFACEOUTERBOUND(#417,.T.);
#419= IFCFACE((#418));
#420= IFCPOLYLOOP((#409,#404,#399,#394,#389,#384,#379,#374,#369,#364,#359,#353,#352));
#421= IFCFACEOUTERBOUND(#420,.T.);
#422= IFCFACE((#421));
#423= IFCCLOSEDSHELL((#358,#363,#368,#373,#378,#383,#388,#393,#398,#403,#408,#413,#416,#419,#422));
#424= IFCFACETEDBREP(#423);
#425= IFCSTYLEDITEM(#424,(#351),$);
#426= IFCSHAPEREPRESENTATION(#12,'Body','Brep',(#424));
#427= IFCPRODUCTDEFINITIONSHAPE($,$,(#426));
#428= IFCCARTESIANPOINT((53004.9995755357,29582.999165232,19479.9997011096));
#429= IFCDIRECTION((-0.894427191199917,0.,0.447213595099955));
#430= IFCDIRECTION((0.447213595099955,0.,0.894427191199917));
#431= IFCAXIS2PLACEMENT3D(#428,#429,#430);
#432= IFCLOCALPLACEMENT(#42,#431);
#433= IFCPLATE('1b$GMLEjD3TfxwiYZcgGFU',#44,'PLATE-8','PL8*80',$,#432,#427,'ID65fd0595-3ad3-4376-9efa-b228e6a903de');
#434= IFCPLATETYPE('3spuMpaADAUeRiR3J9931o',#5,'PL8*80',$,$,$,$,$,$,.NOTDEFINED.);
#435= IFCPROPERTYSINGLEVALUE('Bottom elevation',$,IFCLABEL(' +19.480'),$);
#436= IFCPROPERTYSINGLEVALUE('Top elevation',$,IFCLABEL(' +19.600'),$);
#437= IFCPROPERTYSINGLEVALUE('Initial GUID',$,$,$);
#438= IFCPROPERTYSINGLEVALUE('Preliminary mark',$,IFCLABEL('5-2-P65(?)'),$);
#439= IFCPROPERTYSINGLEVALUE('Phase',$,IFCINTEGER(2),$);
#440= IFCPROPERTYSINGLEVALUE('Class',$,IFCLABEL('12'),$);
#441= IFCPROPERTYSET('2S7xUoOPLExO_Q_z_nFCeD',#5,'Tekla Common','Common Properties to Shared building elements',(#435,#436,#437,#438,#439,#440));
#442= IFCPROPERTYSINGLEVALUE('Weight',$,IFCMASSMEASURE(0.48),$);
#443= IFCPROPERTYSINGLEVALUE('Volume',$,IFCVOLUMEMEASURE(0.),$);
#444= IFCPROPERTYSINGLEVALUE('Gross footprint area',$,IFCAREAMEASURE(0.),$);
#445= IFCPROPERTYSINGLEVALUE('Area per tons',$,IFCAREAMEASURE(37.826),$);
#446= IFCPROPERTYSINGLEVALUE('Net surface area',$,IFCAREAMEASURE(0.018),$);
#447= IFCPROPERTYSINGLEVALUE('Height',$,IFCLENGTHMEASURE(80.),$);
#448= IFCPROPERTYSINGLEVALUE('Width',$,IFCLENGTHMEASURE(8.),$);
#449= IFCPROPERTYSINGLEVALUE('Length',$,IFCLENGTHMEASURE(120.),$);
#450= IFCPROPERTYSET('2zgg2YGVvDD8LezKe62nW8',#5,'Tekla Quantity','Quantity Properties to Shared building elements',(#442,#443,#444,#445,#446,#447,#448,#449));
#451= IFCPROPERTYSINGLEVALUE('LoadBearing',$,IFCBOOLEAN(.F.),$);
#452= IFCPROPERTYSINGLEVALUE('Reference',$,IFCIDENTIFIER('5-2-P65'),$);
#453= IFCPROPERTYSET('2wwZvukZbB9gW5Mm5_qMYF',#5,'Pset_PlateCommon','Common Properties to plate elements',(#451,#452));
#454= IFCQUANTITYLENGTH('Width',$,$,79.9999999995672);
#455= IFCQUANTITYAREA('NetArea',$,$,0.0182621766016217);
#456= IFCQUANTITYAREA('GrossArea',$,$,0.00960000000011478);
#457= IFCQUANTITYAREA('CrossSectionArea',$,$,6.4E-05);
#458= IFCQUANTITYVOLUME('NetVolume',$,$,6.15028438782676E-05);
#459= IFCQUANTITYVOLUME('GrossVolume',$,$,6.15028438782676E-05);
#460= IFCELEMENTQUANTITY('1ZWc1NtufFZx7Qecs2nt6l',#5,'BaseQuantities',$,$,(#454,#455,#456,#457,#458,#459));
#461= IFCMATERIAL('STEEL/S275');
#462= IFCSHAPEREPRESENTATION(#12,'Body','Brep',(#424));
#463= IFCPRODUCTDEFINITIONSHAPE($,$,(#462));
#464= IFCCARTESIANPOINT((53004.9995755357,29702.999165232,19479.9997011096));
#465= IFCAXIS2PLACEMENT3D(#464,#429,#430);
#466= IFCLOCALPLACEMENT(#42,#465);
#467= IFCPLATE('1H6kubmhnALfjkeJwKSMW_',#44,'PLATE-8','PL8*80',$,#466,#463,'ID511aee25-c2bc-4a56-9b6e-a13e9471683e');
#468= IFCSHAPEREPRESENTATION(#12,'Body','Brep',(#424));
#469= IFCPRODUCTDEFINITIONSHAPE($,$,(#468));
#470= IFCCARTESIANPOINT((52874.9996615298,29582.999165232,19479.9997011096));
#471= IFCDIRECTION((0.894427191199933,0.,0.447213595099923));
#472= IFCDIRECTION((-0.447213595099923,0.,0.894427191199934));
#473= IFCAXIS2PLACEMENT3D(#470,#471,#472);
#474= IFCLOCALPLACEMENT(#42,#473);
#475= IFCPLATE('0obJ_OQHb2CRYhpzALM63i',#44,'PLATE-8','PL8*80',$,#474,#469,'ID32953f98-6919-4231-b8ab-cfd2955860ec');
#476= IFCSHAPEREPRESENTATION(#12,'Body','Brep',(#424));
#477= IFCPRODUCTDEFINITIONSHAPE($,$,(#476));
#478= IFCCARTESIANPOINT((52874.9996615298,29702.999165232,19479.9997011096));
#479= IFCAXIS2PLACEMENT3D(#478,#471,#472);
#480= IFCLOCALPLACEMENT(#42,#479);
#481= IFCPLATE('23R9cla_D3MuyuozSBMjiy',#44,'PLATE-8','PL8*80',$,#480,#477,'ID836c99af-93e3-435b-8f38-cbd70b5adb3c');
#482= IFCCOLOURRGB('Light Red',0.905882352941176,0.325490196078431,0.36078431372549);
#483= IFCSURFACESTYLERENDERING(#482,0.,$,$,$,$,IFCNORMALISEDRATIOMEASURE(0.00390625),IFCSPECULAREXPONENT(10.),.NOTDEFINED.);
#484= IFCSURFACESTYLE('STEEL/S275',.POSITIVE.,(#483));
#485= IFCPRESENTATIONSTYLEASSIGNMENT((#484));
#486= IFCCARTESIANPOINT((12.0126568639235,6.,2.18278728425503E-11));
#487= IFCCARTESIANPOINT((221.636871337913,-4.,332.982116699975));
#488= IFCCARTESIANPOINT((226.272843460366,6.,321.899555912081));
#489= IFCPOLYLOOP((#486,#352,#487,#488));
#490= IFCFACEOUTERBOUND(#489,.T.);
#491= IFCFACE((#490));
#492= IFCCARTESIANPOINT((-2.63478128204042E-12,-6.,0.));
#493= IFCCARTESIANPOINT((221.636871337913,-6.,332.982116699975));
#494= IFCPOLYLOOP((#492,#493,#487,#352));
#495= IFCFACEOUTERBOUND(#494,.T.);
#496= IFCFACE((#495));
#497= IFCCARTESIANPOINT((302.955169678081,-6.,138.58599853568));
#498= IFCCARTESIANPOINT((302.955169678081,6.,138.58599853568));
#499= IFCPOLYLOOP((#493,#497,#498,#488,#487));
#500= IFCFACEOUTERBOUND(#499,.T.);
#501= IFCFACE((#500));
#502= IFCCARTESIANPOINT((308.724031402492,-6.,119.815303790594));
#503= IFCCARTESIANPOINT((308.724031402492,6.,119.815303790594));
#504= IFCPOLYLOOP((#497,#502,#503,#498));
#505= IFCFACEOUTERBOUND(#504,.T.);
#506= IFCFACE((#505));
#507= IFCCARTESIANPOINT((310.71133114683,-6.,100.278943163939));
#508= IFCCARTESIANPOINT((310.71133114683,6.,100.278943163939));
#509= IFCPOLYLOOP((#502,#507,#508,#503));
#510= IFCFACEOUTERBOUND(#509,.T.);
#511= IFCFACE((#510));
#512= IFCCARTESIANPOINT((308.840351041547,-6.,80.7310997981258));
#513= IFCCARTESIANPOINT((308.840351041547,6.,80.7310997981258));
#514= IFCPOLYLOOP((#507,#512,#513,#508));
#515= IFCFACEOUTERBOUND(#514,.T.);
#516= IFCFACE((#515));
#517= IFCCARTESIANPOINT((303.183318544044,-6.,61.9264001161137));
#518= IFCCARTESIANPOINT((303.183318544044,6.,61.9264001161137));
#519= IFCPOLYLOOP((#512,#517,#518,#513));
#520= IFCFACEOUTERBOUND(#519,.T.);
#521= IFCFACE((#520));
#522= IFCCARTESIANPOINT((293.958618164486,-6.,44.5907821658911));
#523= IFCCARTESIANPOINT((293.958618164486,6.,44.5907821658911));
#524= IFCPOLYLOOP((#517,#522,#523,#518));
#525= IFCFACEOUTERBOUND(#524,.T.);
#526= IFCFACE((#525));
#527= IFCCARTESIANPOINT((281.51906475391,-6.,29.3961310005616));
#528= IFCCARTESIANPOINT((281.51906475391,6.,29.3961310005616));
#529= IFCPOLYLOOP((#522,#527,#528,#523));
#530= IFCFACEOUTERBOUND(#529,.T.);
#531= IFCFACE((#530));
#532= IFCCARTESIANPOINT((266.352286813656,-6.,16.9226086431227));
#533= IFCCARTESIANPOINT((266.352286813656,6.,16.9226086431227));
#534= IFCPOLYLOOP((#527,#532,#533,#528));
#535= IFCFACEOUTERBOUND(#534,.T.);
#536= IFCFACE((#535));
#537= IFCCARTESIANPOINT((249.042045177174,-6.,7.65031402005116));
#538= IFCCARTESIANPOINT((249.042045177174,6.,7.65031402005116));
#539= IFCPOLYLOOP((#532,#537,#538,#533));
#540= IFCFACEOUTERBOUND(#539,.T.);
#541= IFCFACE((#540));
#542= IFCCARTESIANPOINT((230.254601401431,-6.,1.93613258576079));
#543= IFCCARTESIANPOINT((230.254601401431,6.,1.93613258576079));
#544= IFCPOLYLOOP((#537,#542,#543,#538));
#545= IFCFACEOUTERBOUND(#544,.T.);
#546= IFCFACE((#545));
#547= IFCCARTESIANPOINT((210.713073730803,-6.,2.5465851649642E-10));
#548= IFCCARTESIANPOINT((210.713073730803,6.,2.5465851649642E-10));
#549= IFCPOLYLOOP((#542,#547,#548,#543));
#550= IFCFACEOUTERBOUND(#549,.T.);
#551= IFCFACE((#550));
#552= IFCPOLYLOOP((#548,#547,#492,#352,#486));
#553= IFCFACEOUTERBOUND(#552,.T.);
#554= IFCFACE((#553));
#555= IFCPOLYLOOP((#498,#503,#508,#513,#518,#523,#528,#533,#538,#543,#548,#486,#488));
#556= IFCFACEOUTERBOUND(#555,.T.);
#557= IFCFACE((#556));
#558= IFCPOLYLOOP((#547,#542,#537,#532,#527,#522,#517,#512,#507,#502,#497,#493,#492));
#559= IFCFACEOUTERBOUND(#558,.T.);
#560= IFCFACE((#559));
#561= IFCCLOSEDSHELL((#491,#496,#501,#506,#511,#516,#521,#526,#531,#536,#541,#546,#551,#554,#557,#560));
#562= IFCFACETEDBREP(#561);
#563= IFCSTYLEDITEM(#562,(#485),$);
#564= IFCSHAPEREPRESENTATION(#12,'Body','Brep',(#562));
#565= IFCPRODUCTDEFINITIONSHAPE($,$,(#564));
#566= IFCCARTESIANPOINT((52920.9965555161,29443.0008227159,19599.9997011097));
#567= IFCDIRECTION((0.,0.83245531260685,0.554092187738315));
#568= IFCDIRECTION((0.,0.554092187738315,-0.83245531260685));
#569= IFCAXIS2PLACEMENT3D(#566,#567,#568);
#570= IFCLOCALPLACEMENT(#42,#569);
#571= IFCPLATE('2LdbNW2ovF8ugxQqA4NrW8',#44,'PLATE-12','PL12*220',$,#570,#565,'ID959e55e0-0b2e-4f23-8abb-6b42845f5808');
#572= IFCPLATETYPE('1DbdIDj9HB0f7ty7tP$GiW',#5,'PL12*220',$,$,$,$,$,$,.NOTDEFINED.);
#573= IFCPROPERTYSINGLEVALUE('Bottom elevation',$,IFCLABEL(' +19.380'),$);
#574= IFCPROPERTYSINGLEVALUE('Preliminary mark',$,IFCLABEL('5-2-P18(?)'),$);
#575= IFCPROPERTYSINGLEVALUE('Class',$,IFCLABEL('16'),$);
#576= IFCPROPERTYSET('2iqSjMopX9zw73tzNCbOBI',#5,'Tekla Common','Common Properties to Shared building elements',(#573,#436,#437,#574,#439,#575));
#577= IFCPROPERTYSINGLEVALUE('Weight',$,IFCMASSMEASURE(5.01),$);
#578= IFCPROPERTYSINGLEVALUE('Volume',$,IFCVOLUMEMEASURE(0.001),$);
#579= IFCPROPERTYSINGLEVALUE('Gross footprint area',$,IFCAREAMEASURE(0.005),$);
#580= IFCPROPERTYSINGLEVALUE('Area per tons',$,IFCAREAMEASURE(23.83),$);
#581= IFCPROPERTYSINGLEVALUE('Net surface area',$,IFCAREAMEASURE(0.119),$);
#582= IFCPROPERTYSINGLEVALUE('Height',$,IFCLENGTHMEASURE(220.),$);
#583= IFCPROPERTYSINGLEVALUE('Width',$,IFCLENGTHMEASURE(12.),$);
#584= IFCPROPERTYSINGLEVALUE('Length',$,IFCLENGTHMEASURE(400.),$);
#585= IFCPROPERTYSET('2S_OUejfj3m9t2KIIJ7eE7',#5,'Tekla Quantity','Quantity Properties to Shared building elements',(#577,#578,#579,#580,#581,#582,#583,#584));
#586= IFCPROPERTYSINGLEVALUE('Reference',$,IFCIDENTIFIER('5-2-P18'),$);
#587= IFCPROPERTYSET('2PvTQxZmrAFeDseaPeSix2',#5,'Pset_PlateCommon','Common Properties to plate elements',(#451,#586));
#588= IFCQUANTITYLENGTH('Width',$,$,220.000008587096);
#589= IFCQUANTITYAREA('NetArea',$,$,0.119404660673909);
#590= IFCQUANTITYAREA('GrossArea',$,$,0.0880000014489131);
#591= IFCQUANTITYAREA('CrossSectionArea',$,$,0.000144);
#592= IFCQUANTITYVOLUME('NetVolume',$,$,0.000638313040814654);
#593= IFCQUANTITYVOLUME('GrossVolume',$,$,0.000658091155363411);
#594= IFCELEMENTQUANTITY('3BOy6afUP1wuvdEYA2ZOoH',#5,'BaseQuantities',$,$,(#588,#589,#590,#591,#592,#593));
#595= IFCCARTESIANPOINT((12.0126568639278,-6.,1.45519152283669E-11));
#596= IFCCARTESIANPOINT((226.272843460368,-6.,321.899555912081));
#597= IFCCARTESIANPOINT((221.63687133792,4.,332.982116699968));
#598= IFCPOLYLOOP((#355,#595,#596,#597));
#599= IFCFACEOUTERBOUND(#598,.T.);
#600= IFCFACE((#599));
#601= IFCCARTESIANPOINT((221.63687133792,6.,332.982116699968));
#602= IFCCARTESIANPOINT((1.6127099655705E-12,6.,0.));
#603= IFCPOLYLOOP((#601,#602,#355,#597));
#604= IFCFACEOUTERBOUND(#603,.T.);
#605= IFCFACE((#604));
#606= IFCPOLYLOOP((#497,#498,#601,#597,#596));
#607= IFCFACEOUTERBOUND(#606,.T.);
#608= IFCFACE((#607));
#609= IFCPOLYLOOP((#602,#548,#547,#595,#355));
#610= IFCFACEOUTERBOUND(#609,.T.);
#611= IFCFACE((#610));
#612= IFCPOLYLOOP((#498,#503,#508,#513,#518,#523,#528,#533,#538,#543,#548,#602,#601));
#613= IFCFACEOUTERBOUND(#612,.T.);
#614= IFCFACE((#613));
#615= IFCPOLYLOOP((#547,#542,#537,#532,#527,#522,#517,#512,#507,#502,#497,#596,#595));
#616= IFCFACEOUTERBOUND(#615,.T.);
#617= IFCFACE((#616));
#618= IFCCLOSEDSHELL((#600,#605,#608,#506,#511,#516,#521,#526,#531,#536,#541,#546,#551,#611,#614,#617));
#619= IFCFACETEDBREP(#618);
#620= IFCSTYLEDITEM(#619,(#485),$);
#621= IFCSHAPEREPRESENTATION(#12,'Body','Brep',(#619));
#622= IFCPRODUCTDEFINITIONSHAPE($,$,(#621));
#623= IFCCARTESIANPOINT((52958.9965555161,29443.0008227159,19599.9997011097));
#624= IFCAXIS2PLACEMENT3D(#623,#567,#568);
#625= IFCLOCALPLACEMENT(#42,#624);
#626= IFCPLATE('3is5dVjj10XvnFxT2n$iwJ',#44,'PLATE-12','PL12*220',$,#625,#622,'IDecd859df-b6d0-4087-9c4f-edd0b1fece93');
#627= IFCQUANTITYVOLUME('NetVolume',$,$,0.000638313040814654);
#628= IFCELEMENTQUANTITY('05fB0CmEv3WO3l8xUTa9eZ',#5,'BaseQuantities',$,$,(#588,#589,#590,#591,#627,#593));
#629= IFCCOLOURRGB('Light Blue',0.23921568627451,0.,0.63921568627451);
#630= IFCSURFACESTYLERENDERING(#629,0.,$,$,$,$,IFCNORMALISEDRATIOMEASURE(0.00390625),IFCSPECULAREXPONENT(10.),.NOTDEFINED.);
#631= IFCSURFACESTYLE('STEEL/S275',.POSITIVE.,(#630));
#632= IFCPRESENTATIONSTYLEASSIGNMENT((#631));
#633= IFCCARTESIANPOINT((0.,-10.,0.));
#634= IFCCARTESIANPOINT((0.,-10.,500.));
#635= IFCCARTESIANPOINT((0.,10.,500.));
#636= IFCCARTESIANPOINT((0.,10.,0.));
#637= IFCPOLYLOOP((#633,#634,#635,#636));
#638= IFCFACEOUTERBOUND(#637,.T.);
#639= IFCFACE((#638));
#640= IFCCARTESIANPOINT((250.,-10.,500.));
#641= IFCCARTESIANPOINT((250.,10.,500.));
#642= IFCPOLYLOOP((#634,#640,#641,#635));
#643= IFCFACEOUTERBOUND(#642,.T.);
#644= IFCFACE((#643));
#645= IFCCARTESIANPOINT((250.,-10.,7.27595761418343E-12));
#646= IFCCARTESIANPOINT((250.,10.,7.27595761418343E-12));
#647= IFCPOLYLOOP((#640,#645,#646,#641));
#648= IFCFACEOUTERBOUND(#647,.T.);
#649= IFCFACE((#648));
#650= IFCPOLYLOOP((#645,#633,#636,#646));
#651= IFCFACEOUTERBOUND(#650,.T.);
#652= IFCFACE((#651));
#653= IFCPOLYLOOP((#641,#646,#636,#635));
#654= IFCFACEOUTERBOUND(#653,.T.);
#655= IFCFACE((#654));
#656= IFCPOLYLOOP((#645,#640,#634,#633));
#657= IFCFACEOUTERBOUND(#656,.T.);
#658= IFCFACE((#657));
#659= IFCCLOSEDSHELL((#639,#644,#649,#652,#655,#658));
#660= IFCFACETEDBREP(#659);
#661= IFCSTYLEDITEM(#660,(#632),$);
#662= IFCSHAPEREPRESENTATION(#12,'Body','Brep',(#660));
#663= IFCPRODUCTDEFINITIONSHAPE($,$,(#662));
#664= IFCCARTESIANPOINT((52814.9995755332,29392.9999281707,19609.9997011097));
#665= IFCAXIS2PLACEMENT3D(#664,#8,#7);
#666= IFCLOCALPLACEMENT(#42,#665);
#667= IFCPLATE('2K7PdBHIH4pAFu16bEsDea',#44,'PLATE-20','PL20*250',$,#666,#663,'ID941d99cb-4524-44cc-a3f8-04694ed8da24');
#668= IFCPLATETYPE('3VEgkrqVr6COMwQI6CJs4O',#5,'PL20*250',$,$,$,$,$,$,.NOTDEFINED.);
#669= IFCPROPERTYSINGLEVALUE('Bottom elevation',$,IFCLABEL(' +19.600'),$);
#670= IFCPROPERTYSINGLEVALUE('Top elevation',$,IFCLABEL(' +19.620'),$);
#671= IFCPROPERTYSINGLEVALUE('Preliminary mark',$,IFCLABEL('5-2-P86(?)'),$);
#672= IFCPROPERTYSINGLEVALUE('Class',$,IFCLABEL('14'),$);
#673= IFCPROPERTYSET('3enm9bPIjBqf0iSdSgV_1b',#5,'Tekla Common','Common Properties to Shared building elements',(#669,#670,#437,#671,#439,#672));
#674= IFCPROPERTYSINGLEVALUE('Weight',$,IFCMASSMEASURE(19.63),$);
#675= IFCPROPERTYSINGLEVALUE('Volume',$,IFCVOLUMEMEASURE(0.003),$);
#676= IFCPROPERTYSINGLEVALUE('Gross footprint area',$,IFCAREAMEASURE(0.125),$);
#677= IFCPROPERTYSINGLEVALUE('Area per tons',$,IFCAREAMEASURE(14.268),$);
#678= IFCPROPERTYSINGLEVALUE('Net surface area',$,IFCAREAMEASURE(0.28),$);
#679= IFCPROPERTYSINGLEVALUE('Height',$,IFCLENGTHMEASURE(250.),$);
#680= IFCPROPERTYSINGLEVALUE('Width',$,IFCLENGTHMEASURE(20.),$);
#681= IFCPROPERTYSINGLEVALUE('Length',$,IFCLENGTHMEASURE(500.),$);
#682= IFCPROPERTYSET('2TtscuBDjA7AC8yJdO2g4Y',#5,'Tekla Quantity','Quantity Properties to Shared building elements',(#674,#675,#676,#677,#678,#679,#680,#681));
#683= IFCPROPERTYSINGLEVALUE('Reference',$,IFCIDENTIFIER('5-2-P86'),$);
#684= IFCPROPERTYSET('02WzbBtqvD1h$05bOvST7w',#5,'Pset_PlateCommon','Common Properties to plate elements',(#451,#683));
#685= IFCQUANTITYLENGTH('Width',$,$,250.);
#686= IFCQUANTITYAREA('NetArea',$,$,0.279999999999997);
#687= IFCQUANTITYAREA('GrossArea',$,$,0.125);
#688= IFCQUANTITYAREA('CrossSectionArea',$,$,0.0004);
#689= IFCQUANTITYVOLUME('NetVolume',$,$,0.00249999999999997);
#690= IFCQUANTITYVOLUME('GrossVolume',$,$,0.00249999999999997);
#691= IFCELEMENTQUANTITY('07TQ9y0_LFZAPx5P2a5iTi',#5,'BaseQuantities',$,$,(#685,#686,#687,#688,#689,#690));
#692= IFCRELAGGREGATES('0a8F4Fc3L8lRtT1lHtqzDp',#5,$,$,#37,(#39));
#693= IFCRELAGGREGATES('3cQUlfwCb9SxndWhYqFWCc',#5,$,$,#39,(#41));
#694= IFCRELAGGREGATES('0zIIGt8$50yuL1lDAS5bRh',#5,$,$,#41,(#43));
#695= IFCRELCONTAINEDINSPATIALSTRUCTURE('1RvvdPl2PFWhiq4Qk9h8aV',#5,$,$,(#667,#626,#571,#481,#475,#467,#433,#347,#340,#333,#326,#319,#307,#228,#133),#43);
#696= IFCRELDEFINESBYPROPERTIES('09NrSOlrD3xwjbIHUqo0$u',#5,$,$,(#228,#133),#151);
#697= IFCRELDEFINESBYPROPERTIES('1jIkPVXZ58fOXEasa64HBR',#5,$,$,(#347,#340,#333,#326,#319,#307),#312);
#698= IFCRELDEFINESBYPROPERTIES('3mrptdWi5899wnTZMfOVu2',#5,$,$,(#481,#475,#467,#433),#441);
#699= IFCRELDEFINESBYPROPERTIES('0onMOARlb3Xhen7lad1TVn',#5,$,$,(#481,#475,#467,#433),#450);
#700= IFCRELDEFINESBYPROPERTIES('2U7sVowVjANgfBO4qzEOMt',#5,$,$,(#481,#475,#467,#433),#453);
#701= IFCRELDEFINESBYPROPERTIES('2hpBEgoT92Jv40Q_GdJbAC',#5,$,$,(#481,#475,#467,#433),#460);
#702= IFCRELDEFINESBYPROPERTIES('3pndEkPKn5fuz43UnBGivw',#5,$,$,(#626,#571),#576);
#703= IFCRELDEFINESBYPROPERTIES('0bAS4qqIv5ofjKGoRQOgpl',#5,$,$,(#626,#571),#585);
#704= IFCRELDEFINESBYPROPERTIES('3bIk7$BoHEiRDu3rjnC9zk',#5,$,$,(#626,#571),#587);
#705= IFCRELDEFINESBYPROPERTIES('1tXnVvFon2YAVVxw4$BGwR',#5,$,$,(#571),#594);
#706= IFCRELDEFINESBYPROPERTIES('0E2tXxInr9SfNqtG5Sr1oJ',#5,$,$,(#626),#628);
#707= IFCRELDEFINESBYPROPERTIES('0wEeXCwej3mudTnUClp13j',#5,$,$,(#667),#673);
#708= IFCRELDEFINESBYPROPERTIES('2VOJ7A4T5CJ91meJYf4kND',#5,$,$,(#667),#682);
#709= IFCRELDEFINESBYPROPERTIES('3mkEtHIkj2JevOkKkzMNeA',#5,$,$,(#667),#684);
#710= IFCRELDEFINESBYPROPERTIES('0mEsl53h90oAN_SLBnYipy',#5,$,$,(#667),#691);
#711= IFCRELDEFINESBYTYPE('3NtbGS2s9CuOpfewRhUfx0',#5,$,$,(#347,#340,#333,#326,#319,#307,#228,#133),#134);
#712= IFCRELDEFINESBYTYPE('3hbWnfkmT9SOepA9S54dGZ',#5,$,$,(#481,#475,#467,#433),#434);
#713= IFCRELDEFINESBYTYPE('2MfyaJqwP9SgNxcv06KuNP',#5,$,$,(#626,#571),#572);
#714= IFCRELDEFINESBYTYPE('1c9upqUiz5o9mX5aW2cC4L',#5,$,$,(#667),#668);
#715= IFCRELASSOCIATESMATERIAL('1IRSb1xWn6Eu0bucUGcBK1',#5,$,$,(#347,#340,#333,#326,#319,#307,#228,#133),#152);
#716= IFCRELASSOCIATESMATERIAL('1$xuSzEdf45ODjDEAxANrU',#5,$,$,(#667,#626,#571,#481,#475,#467,#433),#461);
#717= IFCPRESENTATIONLAYERASSIGNMENT('BoltArray',$,(#126,#225,#301,#314,#321,#328,#335,#342),$);
#718= IFCPRESENTATIONLAYERASSIGNMENT('PLATE-8',$,(#426,#462,#468,#476),$);
#719= IFCPRESENTATIONLAYERASSIGNMENT('PLATE-12',$,(#564,#621),$);
#720= IFCPRESENTATIONLAYERASSIGNMENT('PLATE-20',$,(#662),$);
ENDSEC;

END-ISO-10303-21;
