ISO-10303-21;
HEADER;
FILE_DESCRIPTION(('ViewDefinition[CoordinationView_V2.0, QuantityTakeOffAddOnView]', 'ExchangeRequirement[Structural, SurfaceGeometry]', 'Option [BaseQuantities:On]', 'Option [GridExport:On]', 'Option [Assemblies:Off]', 'Option [Bolts:On]', 'Option [Rebars:On]', 'Option [PourObjects:Off]', 'Option [Welds:Off]', 'Option [SurfaceTreatments:On]', 'Option [LocationBy:0]', 'Option [ViewColors:Off]', 'Option [SectionedSpine:Off]', 'Option [PropertySets:On]', 'Option [Export all:Off]'),'2;1');
FILE_NAME('5-2-A13_1.ifc','2026-03-10T08:04:17',('DESKTOP-NLV509P\\Ahmed'),('Structural Designer'),'IFC Parser version: 3.13.2','Tekla Structures 2023 Service Pack 8, IFC Export Version: 4.0.0.0 Jan 19 2024','');
FILE_SCHEMA(('IFC2X3'));
ENDSEC;

DATA;
#1= IFCPERSON('DESKTOP-NLV509P\\Ahmed','Undefined',$,$,$,$,$,$);
#2= IFCORGANIZATION($,'Trimble Solutions Corporation',$,$,$);
#3= IFCPERSONANDORGANIZATION(#1,#2,$);
#4= IFCAPPLICATION(#2,'2023 Service Pack 8','Tekla Structures','Multi material modeling');
#5= IFCOWNERHISTORY(#3,#4,$,.NOCHANGE.,$,$,$,1773119057);
#6= IFCCARTESIANPOINT((0.,0.,0.));
#7= IFCDIRECTION((1.,0.,0.));
#8= IFCDIRECTION((0.,1.,0.));
#9= IFCDIRECTION((0.,0.,1.));
#10= IFCAXIS2PLACEMENT3D(#6,#9,#7);
#11= IFCGEOMETRICREPRESENTATIONCONTEXT($,'Model',3,1.E-05,#10,$);
#12= IFCGEOMETRICREPRESENTATIONSUBCONTEXT('Body','Model',*,*,*,*,#11,$,.MODEL_VIEW.,$);
#13= IFCGEOMETRICREPRESENTATIONSUBCONTEXT('Axis','Model',*,*,*,*,#11,$,.GRAPH_VIEW.,$);
#14= IFCGEOMETRICREPRESENTATIONSUBCONTEXT('FootPrint','Model',*,*,*,*,#11,$,.MODEL_VIEW.,$);
#15= IFCSIUNIT(*,.LENGTHUNIT.,.MILLI.,.METRE.);
#16= IFCMEASUREWITHUNIT(IFCRATIOMEASURE(304.8),#15);
#17= IFCDIMENSIONALEXPONENTS(1,0,0,0,0,0,0);
#18= IFCCONVERSIONBASEDUNIT(#17,.LENGTHUNIT.,'FOOT',#16);
#19= IFCSIUNIT(*,.AREAUNIT.,$,.SQUARE_METRE.);
#20= IFCMEASUREWITHUNIT(IFCRATIOMEASURE(0.09290304),#19);
#21= IFCDIMENSIONALEXPONENTS(2,0,0,0,0,0,0);
#22= IFCCONVERSIONBASEDUNIT(#21,.AREAUNIT.,'SQUARE FOOT',#20);
#23= IFCSIUNIT(*,.VOLUMEUNIT.,$,.CUBIC_METRE.);
#24= IFCMEASUREWITHUNIT(IFCRATIOMEASURE(0.028316846592),#23);
#25= IFCDIMENSIONALEXPONENTS(3,0,0,0,0,0,0);
#26= IFCCONVERSIONBASEDUNIT(#25,.VOLUMEUNIT.,'CUBIC FOOT',#24);
#27= IFCSIUNIT(*,.MASSUNIT.,.KILO.,.GRAM.);
#28= IFCSIUNIT(*,.TIMEUNIT.,$,.SECOND.);
#29= IFCSIUNIT(*,.PLANEANGLEUNIT.,$,.RADIAN.);
#30= IFCMEASUREWITHUNIT(IFCRATIOMEASURE(0.0174532925199433),#29);
#31= IFCDIMENSIONALEXPONENTS(0,0,0,0,0,0,0);
#32= IFCCONVERSIONBASEDUNIT(#31,.PLANEANGLEUNIT.,'DEGREE',#30);
#33= IFCSIUNIT(*,.SOLIDANGLEUNIT.,$,.STERADIAN.);
#34= IFCSIUNIT(*,.THERMODYNAMICTEMPERATUREUNIT.,$,.DEGREE_CELSIUS.);
#35= IFCSIUNIT(*,.LUMINOUSINTENSITYUNIT.,$,.LUMEN.);
#36= IFCUNITASSIGNMENT((#15,#19,#23,#27,#28,#29,#33,#34,#35));
#37= IFCPROJECT('2GxNy$FQ5DFeoOn7wfZzD6',#5,'Undefined',$,$,$,$,(#11),#36);
#38= IFCLOCALPLACEMENT($,#10);
#39= IFCSITE('3clFTSpILF5xUX4jSerZgM',#5,'Undefined',$,$,#38,$,$,.ELEMENT.,$,$,$,$,$);
#40= IFCLOCALPLACEMENT(#38,#10);
#41= IFCBUILDING('3mvULR1En2yQbWEQibSRkF',#5,'Undefined',$,$,#40,$,$,.ELEMENT.,$,$,$);
#42= IFCLOCALPLACEMENT(#40,#10);
#43= IFCBUILDINGSTOREY('3gJPpYF7LCbf7I109fNVl5',#5,'Undefined',$,$,#42,$,$,.ELEMENT.,0.);
#44= IFCOWNERHISTORY(#3,#4,$,.NOCHANGE.,$,$,$,1770840000);
#45= IFCCOLOURRGB($,0.698039215686274,0.4,0.);
#46= IFCSURFACESTYLERENDERING(#45,0.,$,$,$,$,IFCNORMALISEDRATIOMEASURE(0.00390625),IFCSPECULAREXPONENT(10.),.NOTDEFINED.);
#47= IFCSURFACESTYLE('EVENT',.POSITIVE.,(#46));
#48= IFCPRESENTATIONSTYLEASSIGNMENT((#47));
#49= IFCCARTESIANPOINT((7.5,-7.99999999991141,0.));
#50= IFCCARTESIANPOINT((6.49519052838316,-7.99999999991141,3.75000000000022));
#51= IFCCARTESIANPOINT((3.74999999999955,-7.99999999991141,6.49519052838355));
#52= IFCCARTESIANPOINT((-7.77251986200242E-13,-7.99999999991141,7.5));
#53= IFCCARTESIANPOINT((-3.7500000000009,-7.99999999991141,6.49519052838277));
#54= IFCCARTESIANPOINT((-6.49519052838394,-7.99999999991141,3.74999999999888));
#55= IFCCARTESIANPOINT((-7.5,-7.99999999991141,-1.55450397240048E-12));
#56= IFCCARTESIANPOINT((-6.49519052838238,-7.99999999991141,-3.75000000000157));
#57= IFCCARTESIANPOINT((-3.74999999999821,-7.99999999991141,-6.49519052838432));
#58= IFCCARTESIANPOINT((2.32342928591604E-12,-7.99999999991141,-7.5));
#59= IFCCARTESIANPOINT((3.75000000000224,-7.99999999991141,-6.495190528382));
#60= IFCCARTESIANPOINT((6.49519052838471,-7.99999999991141,-3.74999999999753));
#61= IFCCARTESIANPOINT((7.5,8.0999999995415,0.));
#62= IFCCARTESIANPOINT((6.49519052838316,8.0999999995415,3.75000000000022));
#63= IFCCARTESIANPOINT((3.74999999999955,8.0999999995415,6.49519052838355));
#64= IFCCARTESIANPOINT((-7.77251986200242E-13,8.0999999995415,7.5));
#65= IFCCARTESIANPOINT((-3.7500000000009,8.0999999995415,6.49519052838277));
#66= IFCCARTESIANPOINT((-6.49519052838394,8.0999999995415,3.74999999999888));
#67= IFCCARTESIANPOINT((-7.5,8.0999999995415,-1.55450397240048E-12));
#68= IFCCARTESIANPOINT((-6.49519052838238,8.0999999995415,-3.75000000000157));
#69= IFCCARTESIANPOINT((-3.74999999999821,8.0999999995415,-6.49519052838432));
#70= IFCCARTESIANPOINT((2.32342928591604E-12,8.0999999995415,-7.5));
#71= IFCCARTESIANPOINT((3.75000000000224,8.0999999995415,-6.495190528382));
#72= IFCCARTESIANPOINT((6.49519052838471,8.0999999995415,-3.74999999999753));
#73= IFCPOLYLOOP((#49,#50,#51,#52,#53,#54,#55,#56,#57,#58,#59,#60));
#74= IFCFACEOUTERBOUND(#73,.T.);
#75= IFCFACE((#74));
#76= IFCPOLYLOOP((#72,#71,#70,#69,#68,#67,#66,#65,#64,#63,#62,#61));
#77= IFCFACEOUTERBOUND(#76,.T.);
#78= IFCFACE((#77));
#79= IFCPOLYLOOP((#49,#61,#62,#50));
#80= IFCFACEOUTERBOUND(#79,.T.);
#81= IFCFACE((#80));
#82= IFCPOLYLOOP((#50,#62,#63,#51));
#83= IFCFACEOUTERBOUND(#82,.T.);
#84= IFCFACE((#83));
#85= IFCPOLYLOOP((#51,#63,#64,#52));
#86= IFCFACEOUTERBOUND(#85,.T.);
#87= IFCFACE((#86));
#88= IFCPOLYLOOP((#52,#64,#65,#53));
#89= IFCFACEOUTERBOUND(#88,.T.);
#90= IFCFACE((#89));
#91= IFCPOLYLOOP((#53,#65,#66,#54));
#92= IFCFACEOUTERBOUND(#91,.T.);
#93= IFCFACE((#92));
#94= IFCPOLYLOOP((#54,#66,#67,#55));
#95= IFCFACEOUTERBOUND(#94,.T.);
#96= IFCFACE((#95));
#97= IFCPOLYLOOP((#55,#67,#68,#56));
#98= IFCFACEOUTERBOUND(#97,.T.);
#99= IFCFACE((#98));
#100= IFCPOLYLOOP((#56,#68,#69,#57));
#101= IFCFACEOUTERBOUND(#100,.T.);
#102= IFCFACE((#101));
#103= IFCPOLYLOOP((#57,#69,#70,#58));
#104= IFCFACEOUTERBOUND(#103,.T.);
#105= IFCFACE((#104));
#106= IFCPOLYLOOP((#58,#70,#71,#59));
#107= IFCFACEOUTERBOUND(#106,.T.);
#108= IFCFACE((#107));
#109= IFCPOLYLOOP((#59,#71,#72,#60));
#110= IFCFACEOUTERBOUND(#109,.T.);
#111= IFCFACE((#110));
#112= IFCPOLYLOOP((#60,#72,#61,#49));
#113= IFCFACEOUTERBOUND(#112,.T.);
#114= IFCFACE((#113));
#115= IFCCLOSEDSHELL((#75,#78,#81,#84,#87,#90,#93,#96,#99,#102,#105,#108,#111,#114));
#116= IFCCOLOURRGB($,0.,0.,0.);
#117= IFCSURFACESTYLERENDERING(#116,0.,$,$,$,$,IFCNORMALISEDRATIOMEASURE(0.00390625),IFCSPECULAREXPONENT(10.),.NOTDEFINED.);
#118= IFCSURFACESTYLE($,.POSITIVE.,(#117));
#119= IFCPRESENTATIONSTYLEASSIGNMENT((#118));
#120= IFCFACETEDBREP(#115);
#121= IFCSTYLEDITEM(#120,(#119),$);
#122= IFCCARTESIANTRANSFORMATIONOPERATOR3D($,$,#6,$,$);
#123= IFCSHAPEREPRESENTATION(#12,'Body','Brep',(#120));
#124= IFCREPRESENTATIONMAP(#10,#123);
#125= IFCMAPPEDITEM(#124,#122);
#126= IFCSHAPEREPRESENTATION(#12,'Body','MappedRepresentation',(#125));
#127= IFCPRODUCTDEFINITIONSHAPE($,$,(#126));
#128= IFCCARTESIANPOINT((52918.498911352,29571.4982118658,19351.9996966789));
#129= IFCDIRECTION((0.957641772828288,-0.287962210948404,0.));
#130= IFCDIRECTION((0.287962210948404,0.957641772828288,-1.99999102000772E-09));
#131= IFCAXIS2PLACEMENT3D(#128,#129,#130);
#132= IFCLOCALPLACEMENT(#42,#131);
#133= IFCMECHANICALFASTENER('2314RpCKL7UuHgQQMVJDmm',#44,'Bolt assembly',$,$,#132,#127,'ID830446f3-3145-477b-846a-69a59f4cdc30',15.,16.);
#134= IFCMECHANICALFASTENERTYPE('3pIJJibQ16ifikjog5fH0v',#5,'Bolt assembly',$,$,$,$,$,$);
#135= IFCPROPERTYSINGLEVALUE('Washer count',$,IFCINTEGER(0),$);
#136= IFCPROPERTYSINGLEVALUE('Washer diameter',$,IFCLENGTHMEASURE(15.),$);
#137= IFCPROPERTYSINGLEVALUE('Washer type',$,IFCLABEL(''),$);
#138= IFCPROPERTYSINGLEVALUE('Washer name',$,IFCLABEL(''),$);
#139= IFCPROPERTYSINGLEVALUE('Nut count',$,IFCINTEGER(0),$);
#140= IFCPROPERTYSINGLEVALUE('Nut type',$,IFCLABEL(''),$);
#141= IFCPROPERTYSINGLEVALUE('Nut name',$,IFCLABEL(''),$);
#142= IFCPROPERTYSINGLEVALUE('Slotted hole y',$,IFCLENGTHMEASURE(0.),$);
#143= IFCPROPERTYSINGLEVALUE('Slotted hole x',$,IFCLENGTHMEASURE(0.),$);
#144= IFCPROPERTYSINGLEVALUE('Bolt hole diameter',$,IFCLENGTHMEASURE(15.),$);
#145= IFCPROPERTYSINGLEVALUE('Location',$,IFCLABEL('Site'),$);
#146= IFCPROPERTYSINGLEVALUE('Bolt count',$,IFCINTEGER(1),$);
#147= IFCPROPERTYSINGLEVALUE('Bolt size',$,IFCLENGTHMEASURE(15.),$);
#148= IFCPROPERTYSINGLEVALUE('Bolt length',$,IFCLENGTHMEASURE(16.),$);
#149= IFCPROPERTYSINGLEVALUE('Bolt standard',$,IFCLABEL('EVENT'),$);
#150= IFCPROPERTYSINGLEVALUE('Bolt Name',$,IFCLABEL(''),$);
#151= IFCPROPERTYSET('2BZb$2pZbFCv5L$IQkWUNg',#5,'Tekla Bolt','Bolt Properties',(#135,#136,#137,#138,#139,#140,#141,#142,#143,#144,#145,#146,#147,#148,#149,#150));
#152= IFCMATERIAL('EVENT');
#153= IFCMAPPEDITEM(#124,#122);
#154= IFCSHAPEREPRESENTATION(#12,'Body','MappedRepresentation',(#153));
#155= IFCPRODUCTDEFINITIONSHAPE($,$,(#154));
#156= IFCCARTESIANPOINT((52961.498911352,29571.4982118658,19351.9996966789));
#157= IFCDIRECTION((-0.957641772828288,-0.287962210948404,0.));
#158= IFCDIRECTION((-0.287962210948404,0.957641772828288,-1.99999102000772E-09));
#159= IFCAXIS2PLACEMENT3D(#156,#157,#158);
#160= IFCLOCALPLACEMENT(#42,#159);
#161= IFCMECHANICALFASTENER('0MnfkbtMf5FfJVcWdblsAb',#44,'Bolt assembly',$,$,#160,#155,'ID16c69ba5-dd6a-453e-94df-9a09e5bf62a5',15.,16.);
#162= IFCMAPPEDITEM(#124,#122);
#163= IFCSHAPEREPRESENTATION(#12,'Body','MappedRepresentation',(#162));
#164= IFCPRODUCTDEFINITIONSHAPE($,$,(#163));
#165= IFCCARTESIANPOINT((52961.498911352,29714.4982118658,19351.9996963927));
#166= IFCDIRECTION((-0.287962210948404,-0.957641772828288,1.99999102000772E-09));
#167= IFCAXIS2PLACEMENT3D(#165,#129,#166);
#168= IFCLOCALPLACEMENT(#42,#167);
#169= IFCMECHANICALFASTENER('2pxuC4JK50gAbWLs2j2uK7',#44,'Bolt assembly',$,$,#168,#164,'IDb3ef8304-4d41-40a8-a960-5760ad0b8507',15.,16.);
#170= IFCMAPPEDITEM(#124,#122);
#171= IFCSHAPEREPRESENTATION(#12,'Body','MappedRepresentation',(#170));
#172= IFCPRODUCTDEFINITIONSHAPE($,$,(#171));
#173= IFCCARTESIANPOINT((52918.498911352,29714.4982118658,19351.9996963927));
#174= IFCDIRECTION((0.957641772828288,0.287962210948404,0.));
#175= IFCDIRECTION((0.287962210948404,-0.957641772828288,1.99999102000772E-09));
#176= IFCAXIS2PLACEMENT3D(#173,#174,#175);
#177= IFCLOCALPLACEMENT(#42,#176);
#178= IFCMECHANICALFASTENER('1ivzKW4$z0kPWI0gObRC53',#44,'Bolt assembly',$,$,#177,#172,'ID6ce7d520-13ff-40b9-9812-02a6256cc143',15.,16.);
#179= IFCOWNERHISTORY(#3,#4,$,.NOCHANGE.,$,$,$,1770796800);
#180= IFCSURFACESTYLE('Undefined',.POSITIVE.,(#46));
#181= IFCPRESENTATIONSTYLEASSIGNMENT((#180));
#182= IFCCARTESIANPOINT((14.,28.5000000000364,0.));
#183= IFCCARTESIANPOINT((12.1243556529819,28.5000000000364,7.00000000000042));
#184= IFCCARTESIANPOINT((6.99999999999916,28.5000000000364,12.1243556529826));
#185= IFCCARTESIANPOINT((-1.45087037424045E-12,28.5000000000364,14.));
#186= IFCCARTESIANPOINT((-7.00000000000167,28.5000000000364,12.1243556529812));
#187= IFCCARTESIANPOINT((-12.1243556529833,28.5000000000364,6.99999999999791));
#188= IFCCARTESIANPOINT((-14.,28.5000000000364,-2.9017407484809E-12));
#189= IFCCARTESIANPOINT((-12.1243556529805,28.5000000000364,-7.00000000000293));
#190= IFCCARTESIANPOINT((-6.99999999999666,28.5000000000364,-12.1243556529841));
#191= IFCCARTESIANPOINT((4.3370680003766E-12,28.5000000000364,-14.));
#192= IFCCARTESIANPOINT((7.00000000000418,28.5000000000364,-12.1243556529797));
#193= IFCCARTESIANPOINT((12.1243556529848,28.5000000000364,-6.9999999999954));
#194= IFCCARTESIANPOINT((14.,50.6000000000364,0.));
#195= IFCCARTESIANPOINT((12.1243556529819,50.6000000000364,7.00000000000042));
#196= IFCCARTESIANPOINT((6.99999999999916,50.6000000000364,12.1243556529826));
#197= IFCCARTESIANPOINT((-1.45087037424045E-12,50.6000000000364,14.));
#198= IFCCARTESIANPOINT((-7.00000000000167,50.6000000000364,12.1243556529812));
#199= IFCCARTESIANPOINT((-12.1243556529833,50.6000000000364,6.99999999999791));
#200= IFCCARTESIANPOINT((-14.,50.6000000000364,-2.9017407484809E-12));
#201= IFCCARTESIANPOINT((-12.1243556529805,50.6000000000364,-7.00000000000293));
#202= IFCCARTESIANPOINT((-6.99999999999666,50.6000000000364,-12.1243556529841));
#203= IFCCARTESIANPOINT((4.3370680003766E-12,50.6000000000364,-14.));
#204= IFCCARTESIANPOINT((7.00000000000418,50.6000000000364,-12.1243556529797));
#205= IFCCARTESIANPOINT((12.1243556529848,50.6000000000364,-6.9999999999954));
#206= IFCPOLYLOOP((#182,#183,#184,#185,#186,#187,#188,#189,#190,#191,#192,#193));
#207= IFCFACEOUTERBOUND(#206,.T.);
#208= IFCFACE((#207));
#209= IFCPOLYLOOP((#205,#204,#203,#202,#201,#200,#199,#198,#197,#196,#195,#194));
#210= IFCFACEOUTERBOUND(#209,.T.);
#211= IFCFACE((#210));
#212= IFCPOLYLOOP((#182,#194,#195,#183));
#213= IFCFACEOUTERBOUND(#212,.T.);
#214= IFCFACE((#213));
#215= IFCPOLYLOOP((#183,#195,#196,#184));
#216= IFCFACEOUTERBOUND(#215,.T.);
#217= IFCFACE((#216));
#218= IFCPOLYLOOP((#184,#196,#197,#185));
#219= IFCFACEOUTERBOUND(#218,.T.);
#220= IFCFACE((#219));
#221= IFCPOLYLOOP((#185,#197,#198,#186));
#222= IFCFACEOUTERBOUND(#221,.T.);
#223= IFCFACE((#222));
#224= IFCPOLYLOOP((#186,#198,#199,#187));
#225= IFCFACEOUTERBOUND(#224,.T.);
#226= IFCFACE((#225));
#227= IFCPOLYLOOP((#187,#199,#200,#188));
#228= IFCFACEOUTERBOUND(#227,.T.);
#229= IFCFACE((#228));
#230= IFCPOLYLOOP((#188,#200,#201,#189));
#231= IFCFACEOUTERBOUND(#230,.T.);
#232= IFCFACE((#231));
#233= IFCPOLYLOOP((#189,#201,#202,#190));
#234= IFCFACEOUTERBOUND(#233,.T.);
#235= IFCFACE((#234));
#236= IFCPOLYLOOP((#190,#202,#203,#191));
#237= IFCFACEOUTERBOUND(#236,.T.);
#238= IFCFACE((#237));
#239= IFCPOLYLOOP((#191,#203,#204,#192));
#240= IFCFACEOUTERBOUND(#239,.T.);
#241= IFCFACE((#240));
#242= IFCPOLYLOOP((#192,#204,#205,#193));
#243= IFCFACEOUTERBOUND(#242,.T.);
#244= IFCFACE((#243));
#245= IFCPOLYLOOP((#193,#205,#194,#182));
#246= IFCFACEOUTERBOUND(#245,.T.);
#247= IFCFACE((#246));
#248= IFCCLOSEDSHELL((#208,#211,#214,#217,#220,#223,#226,#229,#232,#235,#238,#241,#244,#247));
#249= IFCFACETEDBREP(#248);
#250= IFCSTYLEDITEM(#249,(#119),$);
#251= IFCSHAPEREPRESENTATION(#12,'Body','Brep',(#249));
#252= IFCREPRESENTATIONMAP(#10,#251);
#253= IFCMAPPEDITEM(#252,#122);
#254= IFCSHAPEREPRESENTATION(#12,'Body','MappedRepresentation',(#253));
#255= IFCPRODUCTDEFINITIONSHAPE($,$,(#254));
#256= IFCCARTESIANPOINT((52979.4965555161,29643.0008229821,19479.9997011098));
#257= IFCDIRECTION((0.,0.,-1.));
#258= IFCDIRECTION((0.,-1.,0.));
#259= IFCAXIS2PLACEMENT3D(#256,#257,#258);
#260= IFCLOCALPLACEMENT(#42,#259);
#261= IFCMECHANICALFASTENER('2Jhad0UnX0M8$NOKSSlBEo',#179,'Bolt assembly',$,$,#260,#255,'ID93ae49c0-7b18-4058-8fd7-61471cbcb3b2',26.,22.);
#262= IFCPROPERTYSINGLEVALUE('Washer diameter',$,IFCLENGTHMEASURE(26.),$);
#263= IFCPROPERTYSINGLEVALUE('Washer type',$,IFCLABEL('PLAIN'),$);
#264= IFCPROPERTYSINGLEVALUE('Nut type',$,IFCLABEL('HEAVY_HEX'),$);
#265= IFCPROPERTYSINGLEVALUE('Bolt hole diameter',$,IFCLENGTHMEASURE(28.),$);
#266= IFCPROPERTYSINGLEVALUE('Bolt size',$,IFCLENGTHMEASURE(28.),$);
#267= IFCPROPERTYSINGLEVALUE('Bolt length',$,IFCLENGTHMEASURE(22.),$);
#268= IFCPROPERTYSINGLEVALUE('Bolt standard',$,IFCLABEL(''),$);
#269= IFCPROPERTYSET('3dQWf3hdf3VfFAuYomOti_',#5,'Tekla Bolt','Bolt Properties',(#135,#262,#263,#138,#139,#264,#141,#142,#143,#265,#145,#146,#266,#267,#268,#150));
#270= IFCMATERIAL('Undefined');
#271= IFCCOLOURRGB('Light Magenta',0.686274509803922,0.505882352941176,0.752941176470588);
#272= IFCSURFACESTYLERENDERING(#271,0.,$,$,$,$,IFCNORMALISEDRATIOMEASURE(0.00390625),IFCSPECULAREXPONENT(10.),.NOTDEFINED.);
#273= IFCSURFACESTYLE('STEEL/S275',.POSITIVE.,(#272));
#274= IFCPRESENTATIONSTYLEASSIGNMENT((#273));
#275= IFCCARTESIANPOINT((0.,-6.,-3.63797880709171E-12));
#276= IFCCARTESIANPOINT((14.,7.99999999998909,14.0000000000073));
#277= IFCCARTESIANPOINT((74.,7.99999999998909,14.0000000000073));
#278= IFCCARTESIANPOINT((88.,-6.,-3.63797880709171E-12));
#279= IFCPOLYLOOP((#275,#276,#277,#278));
#280= IFCFACEOUTERBOUND(#279,.T.);
#281= IFCFACE((#280));
#282= IFCCARTESIANPOINT((74.,7.9999999998472,174.000000000007));
#283= IFCCARTESIANPOINT((88.,-6.00000000016735,187.999999999996));
#284= IFCPOLYLOOP((#282,#283,#278,#277));
#285= IFCFACEOUTERBOUND(#284,.T.);
#286= IFCFACE((#285));
#287= IFCCARTESIANPOINT((14.,7.9999999998472,174.000000000007));
#288= IFCCARTESIANPOINT((0.,-6.00000000016735,187.999999999996));
#289= IFCPOLYLOOP((#287,#288,#283,#282));
#290= IFCFACEOUTERBOUND(#289,.T.);
#291= IFCFACE((#290));
#292= IFCPOLYLOOP((#288,#287,#276,#275));
#293= IFCFACEOUTERBOUND(#292,.T.);
#294= IFCFACE((#293));
#295= IFCCARTESIANPOINT((0.,-8.,-7.27595761418343E-12));
#296= IFCCARTESIANPOINT((0.,-8.00000000016735,187.999999999993));
#297= IFCPOLYLOOP((#295,#296,#288,#275));
#298= IFCFACEOUTERBOUND(#297,.T.);
#299= IFCFACE((#298));
#300= IFCCARTESIANPOINT((88.,-8.00000000016735,187.999999999993));
#301= IFCPOLYLOOP((#296,#300,#283,#288));
#302= IFCFACEOUTERBOUND(#301,.T.);
#303= IFCFACE((#302));
#304= IFCCARTESIANPOINT((88.,-8.,-7.27595761418343E-12));
#305= IFCPOLYLOOP((#300,#304,#278,#283));
#306= IFCFACEOUTERBOUND(#305,.T.);
#307= IFCFACE((#306));
#308= IFCPOLYLOOP((#304,#295,#275,#278));
#309= IFCFACEOUTERBOUND(#308,.T.);
#310= IFCFACE((#309));
#311= IFCPOLYLOOP((#287,#282,#277,#276));
#312= IFCFACEOUTERBOUND(#311,.T.);
#313= IFCFACE((#312));
#314= IFCPOLYLOOP((#304,#300,#296,#295));
#315= IFCFACEOUTERBOUND(#314,.T.);
#316= IFCFACE((#315));
#317= IFCCLOSEDSHELL((#281,#286,#291,#294,#299,#303,#307,#310,#313,#316));
#318= IFCFACETEDBREP(#317);
#319= IFCSTYLEDITEM(#318,(#274),$);
#320= IFCSHAPEREPRESENTATION(#12,'Body','Brep',(#318));
#321= IFCPRODUCTDEFINITIONSHAPE($,$,(#320));
#322= IFCCARTESIANPOINT((52983.998911352,29548.9982118498,19351.9996967239));
#323= IFCDIRECTION((-1.,0.,0.));
#324= IFCAXIS2PLACEMENT3D(#322,#8,#323);
#325= IFCLOCALPLACEMENT(#42,#324);
#326= IFCPLATE('3ELEZ0KKX9sBp$Vb4$II9f',#44,'PLATE-8','PL16*88',$,#325,#321,'IDce54e8c0-5148-49d8-bcff-7e513f492269');
#327= IFCPLATETYPE('1jj5hryRzCd9kSCzYJviF_',#5,'PL16*88',$,$,$,$,$,$,.NOTDEFINED.);
#328= IFCPROPERTYSINGLEVALUE('Bottom elevation',$,IFCLABEL(' +19.344'),$);
#329= IFCPROPERTYSINGLEVALUE('Top elevation',$,IFCLABEL(' +19.360'),$);
#330= IFCPROPERTYSINGLEVALUE('Initial GUID',$,$,$);
#331= IFCPROPERTYSINGLEVALUE('Preliminary mark',$,IFCLABEL('5-2-P77(?)'),$);
#332= IFCPROPERTYSINGLEVALUE('Phase',$,IFCINTEGER(4),$);
#333= IFCPROPERTYSINGLEVALUE('Class',$,IFCLABEL('12'),$);
#334= IFCPROPERTYSET('1yg2tPWVH88PvpdcifvxhA',#5,'Tekla Common','Common Properties to Shared building elements',(#328,#329,#330,#331,#332,#333));
#335= IFCPROPERTYSINGLEVALUE('Weight',$,IFCMASSMEASURE(1.68),$);
#336= IFCPROPERTYSINGLEVALUE('Volume',$,IFCVOLUMEMEASURE(0.),$);
#337= IFCPROPERTYSINGLEVALUE('Gross footprint area',$,IFCAREAMEASURE(0.017),$);
#338= IFCPROPERTYSINGLEVALUE('Area per tons',$,IFCAREAMEASURE(22.038),$);
#339= IFCPROPERTYSINGLEVALUE('Net surface area',$,IFCAREAMEASURE(0.037),$);
#340= IFCPROPERTYSINGLEVALUE('Height',$,IFCLENGTHMEASURE(88.),$);
#341= IFCPROPERTYSINGLEVALUE('Width',$,IFCLENGTHMEASURE(16.),$);
#342= IFCPROPERTYSINGLEVALUE('Length',$,IFCLENGTHMEASURE(188.),$);
#343= IFCPROPERTYSET('1Cp$yJ2Vn1qQgHNxA2DzLf',#5,'Tekla Quantity','Quantity Properties to Shared building elements',(#335,#336,#337,#338,#339,#340,#341,#342));
#344= IFCPROPERTYSINGLEVALUE('LoadBearing',$,IFCBOOLEAN(.F.),$);
#345= IFCPROPERTYSINGLEVALUE('Reference',$,IFCIDENTIFIER('5-2-P77'),$);
#346= IFCPROPERTYSET('2W9jT0wYHEDxGFxe9t3Ktj',#5,'Pset_PlateCommon','Common Properties to plate elements',(#344,#345));
#347= IFCQUANTITYLENGTH('Width',$,$,88.);
#348= IFCQUANTITYAREA('NetArea',$,$,0.0370682989771188);
#349= IFCQUANTITYAREA('GrossArea',$,$,0.016544);
#350= IFCQUANTITYAREA('CrossSectionArea',$,$,0.000256);
#351= IFCQUANTITYVOLUME('NetVolume',$,$,0.000214266666666667);
#352= IFCQUANTITYVOLUME('GrossVolume',$,$,0.000264704);
#353= IFCELEMENTQUANTITY('1VjMltMKLDgB9NZtCLn7E5',#5,'BaseQuantities',$,$,(#347,#348,#349,#350,#351,#352));
#354= IFCMATERIAL('STEEL/S275');
#355= IFCOWNERHISTORY(#3,#4,$,.NOCHANGE.,$,$,$,1773043200);
#356= IFCSURFACESTYLE('TS10.9',.POSITIVE.,(#46));
#357= IFCPRESENTATIONSTYLEASSIGNMENT((#356));
#358= IFCCARTESIANPOINT((9.,-11.9006400964272,0.));
#359= IFCCARTESIANPOINT((7.79422863405979,-11.9006400964272,4.50000000000027));
#360= IFCCARTESIANPOINT((4.49999999999946,-11.9006400964272,7.79422863406026));
#361= IFCCARTESIANPOINT((-9.3270238344029E-13,-11.9006400964272,9.));
#362= IFCCARTESIANPOINT((-4.50000000000107,-11.9006400964272,7.79422863405933));
#363= IFCCARTESIANPOINT((-7.79422863406072,-11.9006400964272,4.49999999999866));
#364= IFCCARTESIANPOINT((-9.,-11.9006400964272,-1.86540476688058E-12));
#365= IFCCARTESIANPOINT((-7.79422863405886,-11.9006400964272,-4.50000000000188));
#366= IFCCARTESIANPOINT((-4.49999999999785,-11.9006400964272,-7.79422863406119));
#367= IFCCARTESIANPOINT((2.78811514309924E-12,-11.9006400964272,-9.));
#368= IFCCARTESIANPOINT((4.50000000000269,-11.9006400964272,-7.7942286340584));
#369= IFCCARTESIANPOINT((7.79422863406166,-11.9006400964272,-4.49999999999704));
#370= IFCCARTESIANPOINT((9.,0.0993599061109531,0.));
#371= IFCCARTESIANPOINT((7.79422863405979,0.0993599061109531,4.50000000000027));
#372= IFCCARTESIANPOINT((4.49999999999946,0.0993599061109531,7.79422863406026));
#373= IFCCARTESIANPOINT((-9.3270238344029E-13,0.0993599061109531,9.));
#374= IFCCARTESIANPOINT((-4.50000000000107,0.0993599061109531,7.79422863405933));
#375= IFCCARTESIANPOINT((-7.79422863406072,0.0993599061109531,4.49999999999866));
#376= IFCCARTESIANPOINT((-9.,0.0993599061109531,-1.86540476688058E-12));
#377= IFCCARTESIANPOINT((-7.79422863405886,0.0993599061109531,-4.50000000000188));
#378= IFCCARTESIANPOINT((-4.49999999999785,0.0993599061109531,-7.79422863406119));
#379= IFCCARTESIANPOINT((2.78811514309924E-12,0.0993599061109531,-9.));
#380= IFCCARTESIANPOINT((4.50000000000269,0.0993599061109531,-7.7942286340584));
#381= IFCCARTESIANPOINT((7.79422863406166,0.0993599061109531,-4.49999999999704));
#382= IFCPOLYLOOP((#358,#359,#360,#361,#362,#363,#364,#365,#366,#367,#368,#369));
#383= IFCFACEOUTERBOUND(#382,.T.);
#384= IFCFACE((#383));
#385= IFCPOLYLOOP((#381,#380,#379,#378,#377,#376,#375,#374,#373,#372,#371,#370));
#386= IFCFACEOUTERBOUND(#385,.T.);
#387= IFCFACE((#386));
#388= IFCPOLYLOOP((#358,#370,#371,#359));
#389= IFCFACEOUTERBOUND(#388,.T.);
#390= IFCFACE((#389));
#391= IFCPOLYLOOP((#359,#371,#372,#360));
#392= IFCFACEOUTERBOUND(#391,.T.);
#393= IFCFACE((#392));
#394= IFCPOLYLOOP((#360,#372,#373,#361));
#395= IFCFACEOUTERBOUND(#394,.T.);
#396= IFCFACE((#395));
#397= IFCPOLYLOOP((#361,#373,#374,#362));
#398= IFCFACEOUTERBOUND(#397,.T.);
#399= IFCFACE((#398));
#400= IFCPOLYLOOP((#362,#374,#375,#363));
#401= IFCFACEOUTERBOUND(#400,.T.);
#402= IFCFACE((#401));
#403= IFCPOLYLOOP((#363,#375,#376,#364));
#404= IFCFACEOUTERBOUND(#403,.T.);
#405= IFCFACE((#404));
#406= IFCPOLYLOOP((#364,#376,#377,#365));
#407= IFCFACEOUTERBOUND(#406,.T.);
#408= IFCFACE((#407));
#409= IFCPOLYLOOP((#365,#377,#378,#366));
#410= IFCFACEOUTERBOUND(#409,.T.);
#411= IFCFACE((#410));
#412= IFCPOLYLOOP((#366,#378,#379,#367));
#413= IFCFACEOUTERBOUND(#412,.T.);
#414= IFCFACE((#413));
#415= IFCPOLYLOOP((#367,#379,#380,#368));
#416= IFCFACEOUTERBOUND(#415,.T.);
#417= IFCFACE((#416));
#418= IFCPOLYLOOP((#368,#380,#381,#369));
#419= IFCFACEOUTERBOUND(#418,.T.);
#420= IFCFACE((#419));
#421= IFCPOLYLOOP((#369,#381,#370,#358));
#422= IFCFACEOUTERBOUND(#421,.T.);
#423= IFCFACE((#422));
#424= IFCCARTESIANPOINT((9.,0.,6.));
#425= IFCCARTESIANPOINT((8.31491579260149,0.,9.44415089128602));
#426= IFCCARTESIANPOINT((6.3639610306786,0.,12.3639610306793));
#427= IFCCARTESIANPOINT((3.44415089128516,0.,14.3149157926018));
#428= IFCCARTESIANPOINT((-9.3270238344029E-13,0.,15.));
#429= IFCCARTESIANPOINT((-4.50000000000107,0.,13.7942286340593));
#430= IFCCARTESIANPOINT((-7.79422863406072,0.,10.4999999999987));
#431= IFCCARTESIANPOINT((-9.,0.,5.99999999999813));
#432= IFCCARTESIANPOINT((-9.,0.,-6.00000000000187));
#433= IFCCARTESIANPOINT((-7.79422863405886,0.,-10.5000000000019));
#434= IFCCARTESIANPOINT((-4.49999999999785,0.,-13.7942286340612));
#435= IFCCARTESIANPOINT((2.78811514309924E-12,0.,-15.));
#436= IFCCARTESIANPOINT((4.50000000000269,0.,-13.7942286340584));
#437= IFCCARTESIANPOINT((7.79422863406166,0.,-10.499999999997));
#438= IFCCARTESIANPOINT((9.,0.,-5.99999999999627));
#439= IFCCARTESIANPOINT((9.,18.,6.));
#440= IFCCARTESIANPOINT((8.31491579260149,18.,9.44415089128602));
#441= IFCCARTESIANPOINT((6.3639610306786,18.,12.3639610306793));
#442= IFCCARTESIANPOINT((3.44415089128516,18.,14.3149157926018));
#443= IFCCARTESIANPOINT((-9.3270238344029E-13,18.,15.));
#444= IFCCARTESIANPOINT((-4.50000000000107,18.,13.7942286340593));
#445= IFCCARTESIANPOINT((-7.79422863406072,18.,10.4999999999987));
#446= IFCCARTESIANPOINT((-9.,18.,5.99999999999813));
#447= IFCCARTESIANPOINT((-9.,18.,-6.00000000000187));
#448= IFCCARTESIANPOINT((-7.79422863405886,18.,-10.5000000000019));
#449= IFCCARTESIANPOINT((-4.49999999999785,18.,-13.7942286340612));
#450= IFCCARTESIANPOINT((2.78811514309924E-12,18.,-15.));
#451= IFCCARTESIANPOINT((4.50000000000269,18.,-13.7942286340584));
#452= IFCCARTESIANPOINT((7.79422863406166,18.,-10.499999999997));
#453= IFCCARTESIANPOINT((9.,18.,-5.99999999999627));
#454= IFCPOLYLOOP((#424,#425,#426,#428,#429,#430,#431,#432,#433,#434,#435,#436,#437,#438));
#455= IFCFACEOUTERBOUND(#454,.T.);
#456= IFCFACE((#455));
#457= IFCPOLYLOOP((#453,#452,#451,#450,#449,#448,#447,#446,#445,#444,#443,#442,#441,#440,#439));
#458= IFCFACEOUTERBOUND(#457,.T.);
#459= IFCFACE((#458));
#460= IFCPOLYLOOP((#424,#439,#440,#425));
#461= IFCFACEOUTERBOUND(#460,.T.);
#462= IFCFACE((#461));
#463= IFCPOLYLOOP((#425,#440,#441,#426));
#464= IFCFACEOUTERBOUND(#463,.T.);
#465= IFCFACE((#464));
#466= IFCPOLYLOOP((#426,#441,#442,#427));
#467= IFCFACEOUTERBOUND(#466,.T.);
#468= IFCFACE((#467));
#469= IFCPOLYLOOP((#427,#442,#443,#428));
#470= IFCFACEOUTERBOUND(#469,.T.);
#471= IFCFACE((#470));
#472= IFCPOLYLOOP((#428,#443,#444,#429));
#473= IFCFACEOUTERBOUND(#472,.T.);
#474= IFCFACE((#473));
#475= IFCPOLYLOOP((#429,#444,#445,#430));
#476= IFCFACEOUTERBOUND(#475,.T.);
#477= IFCFACE((#476));
#478= IFCPOLYLOOP((#430,#445,#446,#431));
#479= IFCFACEOUTERBOUND(#478,.T.);
#480= IFCFACE((#479));
#481= IFCPOLYLOOP((#431,#446,#447,#432));
#482= IFCFACEOUTERBOUND(#481,.T.);
#483= IFCFACE((#482));
#484= IFCPOLYLOOP((#432,#447,#448,#433));
#485= IFCFACEOUTERBOUND(#484,.T.);
#486= IFCFACE((#485));
#487= IFCPOLYLOOP((#433,#448,#449,#434));
#488= IFCFACEOUTERBOUND(#487,.T.);
#489= IFCFACE((#488));
#490= IFCPOLYLOOP((#434,#449,#450,#435));
#491= IFCFACEOUTERBOUND(#490,.T.);
#492= IFCFACE((#491));
#493= IFCPOLYLOOP((#435,#450,#451,#436));
#494= IFCFACEOUTERBOUND(#493,.T.);
#495= IFCFACE((#494));
#496= IFCPOLYLOOP((#436,#451,#452,#437));
#497= IFCFACEOUTERBOUND(#496,.T.);
#498= IFCFACE((#497));
#499= IFCPOLYLOOP((#437,#452,#453,#438));
#500= IFCFACEOUTERBOUND(#499,.T.);
#501= IFCFACE((#500));
#502= IFCPOLYLOOP((#438,#453,#439,#424));
#503= IFCFACEOUTERBOUND(#502,.T.);
#504= IFCFACE((#503));
#505= IFCCARTESIANPOINT((9.,105.,0.));
#506= IFCCARTESIANPOINT((7.79422863405979,105.,4.50000000000027));
#507= IFCCARTESIANPOINT((4.49999999999946,105.,7.79422863406026));
#508= IFCCARTESIANPOINT((-9.3270238344029E-13,105.,9.));
#509= IFCCARTESIANPOINT((-4.50000000000107,105.,7.79422863405933));
#510= IFCCARTESIANPOINT((-7.79422863406072,105.,4.49999999999866));
#511= IFCCARTESIANPOINT((-9.,105.,-1.86540476688058E-12));
#512= IFCCARTESIANPOINT((-7.79422863405886,105.,-4.50000000000188));
#513= IFCCARTESIANPOINT((-4.49999999999785,105.,-7.79422863406119));
#514= IFCCARTESIANPOINT((2.78811514309924E-12,105.,-9.));
#515= IFCCARTESIANPOINT((4.50000000000269,105.,-7.7942286340584));
#516= IFCCARTESIANPOINT((7.79422863406166,105.,-4.49999999999704));
#517= IFCCARTESIANPOINT((9.,205.,0.));
#518= IFCCARTESIANPOINT((7.79422863405979,205.,4.50000000000027));
#519= IFCCARTESIANPOINT((4.49999999999946,205.,7.79422863406026));
#520= IFCCARTESIANPOINT((-9.3270238344029E-13,205.,9.));
#521= IFCCARTESIANPOINT((-4.50000000000107,205.,7.79422863405933));
#522= IFCCARTESIANPOINT((-7.79422863406072,205.,4.49999999999866));
#523= IFCCARTESIANPOINT((-9.,205.,-1.86540476688058E-12));
#524= IFCCARTESIANPOINT((-7.79422863405886,205.,-4.50000000000188));
#525= IFCCARTESIANPOINT((-4.49999999999785,205.,-7.79422863406119));
#526= IFCCARTESIANPOINT((2.78811514309924E-12,205.,-9.));
#527= IFCCARTESIANPOINT((4.50000000000269,205.,-7.7942286340584));
#528= IFCCARTESIANPOINT((7.79422863406166,205.,-4.49999999999704));
#529= IFCPOLYLOOP((#505,#506,#507,#508,#509,#510,#511,#512,#513,#514,#515,#516));
#530= IFCFACEOUTERBOUND(#529,.T.);
#531= IFCFACE((#530));
#532= IFCPOLYLOOP((#528,#527,#526,#525,#524,#523,#522,#521,#520,#519,#518,#517));
#533= IFCFACEOUTERBOUND(#532,.T.);
#534= IFCFACE((#533));
#535= IFCPOLYLOOP((#505,#517,#518,#506));
#536= IFCFACEOUTERBOUND(#535,.T.);
#537= IFCFACE((#536));
#538= IFCPOLYLOOP((#506,#518,#519,#507));
#539= IFCFACEOUTERBOUND(#538,.T.);
#540= IFCFACE((#539));
#541= IFCPOLYLOOP((#507,#519,#520,#508));
#542= IFCFACEOUTERBOUND(#541,.T.);
#543= IFCFACE((#542));
#544= IFCPOLYLOOP((#508,#520,#521,#509));
#545= IFCFACEOUTERBOUND(#544,.T.);
#546= IFCFACE((#545));
#547= IFCPOLYLOOP((#509,#521,#522,#510));
#548= IFCFACEOUTERBOUND(#547,.T.);
#549= IFCFACE((#548));
#550= IFCPOLYLOOP((#510,#522,#523,#511));
#551= IFCFACEOUTERBOUND(#550,.T.);
#552= IFCFACE((#551));
#553= IFCPOLYLOOP((#511,#523,#524,#512));
#554= IFCFACEOUTERBOUND(#553,.T.);
#555= IFCFACE((#554));
#556= IFCPOLYLOOP((#512,#524,#525,#513));
#557= IFCFACEOUTERBOUND(#556,.T.);
#558= IFCFACE((#557));
#559= IFCPOLYLOOP((#513,#525,#526,#514));
#560= IFCFACEOUTERBOUND(#559,.T.);
#561= IFCFACE((#560));
#562= IFCPOLYLOOP((#514,#526,#527,#515));
#563= IFCFACEOUTERBOUND(#562,.T.);
#564= IFCFACE((#563));
#565= IFCPOLYLOOP((#515,#527,#528,#516));
#566= IFCFACEOUTERBOUND(#565,.T.);
#567= IFCFACE((#566));
#568= IFCPOLYLOOP((#516,#528,#517,#505));
#569= IFCFACEOUTERBOUND(#568,.T.);
#570= IFCFACE((#569));
#571= IFCCARTESIANPOINT((9.,122.,6.));
#572= IFCCARTESIANPOINT((8.31491579260149,122.,9.44415089128602));
#573= IFCCARTESIANPOINT((6.3639610306786,122.,12.3639610306793));
#574= IFCCARTESIANPOINT((3.44415089128516,122.,14.3149157926018));
#575= IFCCARTESIANPOINT((-9.3270238344029E-13,122.,15.));
#576= IFCCARTESIANPOINT((-4.50000000000107,122.,13.7942286340593));
#577= IFCCARTESIANPOINT((-7.79422863406072,122.,10.4999999999987));
#578= IFCCARTESIANPOINT((-9.,122.,5.99999999999813));
#579= IFCCARTESIANPOINT((-9.,122.,-6.00000000000187));
#580= IFCCARTESIANPOINT((-7.79422863405886,122.,-10.5000000000019));
#581= IFCCARTESIANPOINT((-4.49999999999785,122.,-13.7942286340612));
#582= IFCCARTESIANPOINT((2.78811514309924E-12,122.,-15.));
#583= IFCCARTESIANPOINT((4.50000000000269,122.,-13.7942286340584));
#584= IFCCARTESIANPOINT((7.79422863406166,122.,-10.499999999997));
#585= IFCCARTESIANPOINT((9.,122.,-5.99999999999627));
#586= IFCCARTESIANPOINT((9.,140.,6.));
#587= IFCCARTESIANPOINT((8.31491579260149,140.,9.44415089128602));
#588= IFCCARTESIANPOINT((6.3639610306786,140.,12.3639610306793));
#589= IFCCARTESIANPOINT((3.44415089128516,140.,14.3149157926018));
#590= IFCCARTESIANPOINT((-9.3270238344029E-13,140.,15.));
#591= IFCCARTESIANPOINT((-4.50000000000107,140.,13.7942286340593));
#592= IFCCARTESIANPOINT((-7.79422863406072,140.,10.4999999999987));
#593= IFCCARTESIANPOINT((-9.,140.,5.99999999999813));
#594= IFCCARTESIANPOINT((-9.,140.,-6.00000000000187));
#595= IFCCARTESIANPOINT((-7.79422863405886,140.,-10.5000000000019));
#596= IFCCARTESIANPOINT((-4.49999999999785,140.,-13.7942286340612));
#597= IFCCARTESIANPOINT((2.78811514309924E-12,140.,-15.));
#598= IFCCARTESIANPOINT((4.50000000000269,140.,-13.7942286340584));
#599= IFCCARTESIANPOINT((7.79422863406166,140.,-10.499999999997));
#600= IFCCARTESIANPOINT((9.,140.,-5.99999999999627));
#601= IFCPOLYLOOP((#571,#572,#573,#575,#576,#577,#578,#579,#580,#581,#582,#583,#584,#585));
#602= IFCFACEOUTERBOUND(#601,.T.);
#603= IFCFACE((#602));
#604= IFCPOLYLOOP((#600,#599,#598,#597,#596,#595,#594,#593,#592,#591,#590,#589,#588,#587,#586));
#605= IFCFACEOUTERBOUND(#604,.T.);
#606= IFCFACE((#605));
#607= IFCPOLYLOOP((#571,#586,#587,#572));
#608= IFCFACEOUTERBOUND(#607,.T.);
#609= IFCFACE((#608));
#610= IFCPOLYLOOP((#572,#587,#588,#573));
#611= IFCFACEOUTERBOUND(#610,.T.);
#612= IFCFACE((#611));
#613= IFCPOLYLOOP((#573,#588,#589,#574));
#614= IFCFACEOUTERBOUND(#613,.T.);
#615= IFCFACE((#614));
#616= IFCPOLYLOOP((#574,#589,#590,#575));
#617= IFCFACEOUTERBOUND(#616,.T.);
#618= IFCFACE((#617));
#619= IFCPOLYLOOP((#575,#590,#591,#576));
#620= IFCFACEOUTERBOUND(#619,.T.);
#621= IFCFACE((#620));
#622= IFCPOLYLOOP((#576,#591,#592,#577));
#623= IFCFACEOUTERBOUND(#622,.T.);
#624= IFCFACE((#623));
#625= IFCPOLYLOOP((#577,#592,#593,#578));
#626= IFCFACEOUTERBOUND(#625,.T.);
#627= IFCFACE((#626));
#628= IFCPOLYLOOP((#578,#593,#594,#579));
#629= IFCFACEOUTERBOUND(#628,.T.);
#630= IFCFACE((#629));
#631= IFCPOLYLOOP((#579,#594,#595,#580));
#632= IFCFACEOUTERBOUND(#631,.T.);
#633= IFCFACE((#632));
#634= IFCPOLYLOOP((#580,#595,#596,#581));
#635= IFCFACEOUTERBOUND(#634,.T.);
#636= IFCFACE((#635));
#637= IFCPOLYLOOP((#581,#596,#597,#582));
#638= IFCFACEOUTERBOUND(#637,.T.);
#639= IFCFACE((#638));
#640= IFCPOLYLOOP((#582,#597,#598,#583));
#641= IFCFACEOUTERBOUND(#640,.T.);
#642= IFCFACE((#641));
#643= IFCPOLYLOOP((#583,#598,#599,#584));
#644= IFCFACEOUTERBOUND(#643,.T.);
#645= IFCFACE((#644));
#646= IFCPOLYLOOP((#584,#599,#600,#585));
#647= IFCFACEOUTERBOUND(#646,.T.);
#648= IFCFACE((#647));
#649= IFCPOLYLOOP((#585,#600,#586,#571));
#650= IFCFACEOUTERBOUND(#649,.T.);
#651= IFCFACE((#650));
#652= IFCCARTESIANPOINT((9.,139.899359903573,0.));
#653= IFCCARTESIANPOINT((7.79422863405979,139.899359903573,4.50000000000027));
#654= IFCCARTESIANPOINT((4.49999999999946,139.899359903573,7.79422863406026));
#655= IFCCARTESIANPOINT((-9.3270238344029E-13,139.899359903573,9.));
#656= IFCCARTESIANPOINT((-4.50000000000107,139.899359903573,7.79422863405933));
#657= IFCCARTESIANPOINT((-7.79422863406072,139.899359903573,4.49999999999866));
#658= IFCCARTESIANPOINT((-9.,139.899359903573,-1.86540476688058E-12));
#659= IFCCARTESIANPOINT((-7.79422863405886,139.899359903573,-4.50000000000188));
#660= IFCCARTESIANPOINT((-4.49999999999785,139.899359903573,-7.79422863406119));
#661= IFCCARTESIANPOINT((2.78811514309924E-12,139.899359903573,-9.));
#662= IFCCARTESIANPOINT((4.50000000000269,139.899359903573,-7.7942286340584));
#663= IFCCARTESIANPOINT((7.79422863406166,139.899359903573,-4.49999999999704));
#664= IFCCARTESIANPOINT((9.,151.999359906111,0.));
#665= IFCCARTESIANPOINT((7.79422863405979,151.999359906111,4.50000000000027));
#666= IFCCARTESIANPOINT((4.49999999999946,151.999359906111,7.79422863406026));
#667= IFCCARTESIANPOINT((-9.3270238344029E-13,151.999359906111,9.));
#668= IFCCARTESIANPOINT((-4.50000000000107,151.999359906111,7.79422863405933));
#669= IFCCARTESIANPOINT((-7.79422863406072,151.999359906111,4.49999999999866));
#670= IFCCARTESIANPOINT((-9.,151.999359906111,-1.86540476688058E-12));
#671= IFCCARTESIANPOINT((-7.79422863405886,151.999359906111,-4.50000000000188));
#672= IFCCARTESIANPOINT((-4.49999999999785,151.999359906111,-7.79422863406119));
#673= IFCCARTESIANPOINT((2.78811514309924E-12,151.999359906111,-9.));
#674= IFCCARTESIANPOINT((4.50000000000269,151.999359906111,-7.7942286340584));
#675= IFCCARTESIANPOINT((7.79422863406166,151.999359906111,-4.49999999999704));
#676= IFCPOLYLOOP((#652,#653,#654,#655,#656,#657,#658,#659,#660,#661,#662,#663));
#677= IFCFACEOUTERBOUND(#676,.T.);
#678= IFCFACE((#677));
#679= IFCPOLYLOOP((#675,#674,#673,#672,#671,#670,#669,#668,#667,#666,#665,#664));
#680= IFCFACEOUTERBOUND(#679,.T.);
#681= IFCFACE((#680));
#682= IFCPOLYLOOP((#652,#664,#665,#653));
#683= IFCFACEOUTERBOUND(#682,.T.);
#684= IFCFACE((#683));
#685= IFCPOLYLOOP((#653,#665,#666,#654));
#686= IFCFACEOUTERBOUND(#685,.T.);
#687= IFCFACE((#686));
#688= IFCPOLYLOOP((#654,#666,#667,#655));
#689= IFCFACEOUTERBOUND(#688,.T.);
#690= IFCFACE((#689));
#691= IFCPOLYLOOP((#655,#667,#668,#656));
#692= IFCFACEOUTERBOUND(#691,.T.);
#693= IFCFACE((#692));
#694= IFCPOLYLOOP((#656,#668,#669,#657));
#695= IFCFACEOUTERBOUND(#694,.T.);
#696= IFCFACE((#695));
#697= IFCPOLYLOOP((#657,#669,#670,#658));
#698= IFCFACEOUTERBOUND(#697,.T.);
#699= IFCFACE((#698));
#700= IFCPOLYLOOP((#658,#670,#671,#659));
#701= IFCFACEOUTERBOUND(#700,.T.);
#702= IFCFACE((#701));
#703= IFCPOLYLOOP((#659,#671,#672,#660));
#704= IFCFACEOUTERBOUND(#703,.T.);
#705= IFCFACE((#704));
#706= IFCPOLYLOOP((#660,#672,#673,#661));
#707= IFCFACEOUTERBOUND(#706,.T.);
#708= IFCFACE((#707));
#709= IFCPOLYLOOP((#661,#673,#674,#662));
#710= IFCFACEOUTERBOUND(#709,.T.);
#711= IFCFACE((#710));
#712= IFCPOLYLOOP((#662,#674,#675,#663));
#713= IFCFACEOUTERBOUND(#712,.T.);
#714= IFCFACE((#713));
#715= IFCPOLYLOOP((#663,#675,#664,#652));
#716= IFCFACEOUTERBOUND(#715,.T.);
#717= IFCFACE((#716));
#718= IFCCARTESIANPOINT((13.856406460551,-22.5606400964272,0.));
#719= IFCCARTESIANPOINT((6.92820323027551,-22.5606400964272,12.));
#720= IFCCARTESIANPOINT((-6.92820323027551,-22.5606400964272,12.));
#721= IFCCARTESIANPOINT((-13.856406460551,-22.5606400964272,1.69692038195985E-15));
#722= IFCCARTESIANPOINT((-6.92820323027552,-22.5606400964272,-12.));
#723= IFCCARTESIANPOINT((6.9282032302755,-22.5606400964272,-12.));
#724= IFCCARTESIANPOINT((13.856406460551,-12.0006400964272,0.));
#725= IFCCARTESIANPOINT((6.92820323027551,-12.0006400964272,12.));
#726= IFCCARTESIANPOINT((-6.92820323027551,-12.0006400964272,12.));
#727= IFCCARTESIANPOINT((-13.856406460551,-12.0006400964272,1.69692038195985E-15));
#728= IFCCARTESIANPOINT((-6.92820323027552,-12.0006400964272,-12.));
#729= IFCCARTESIANPOINT((6.9282032302755,-12.0006400964272,-12.));
#730= IFCPOLYLOOP((#718,#719,#720,#721,#722,#723));
#731= IFCFACEOUTERBOUND(#730,.T.);
#732= IFCFACE((#731));
#733= IFCPOLYLOOP((#729,#728,#727,#726,#725,#724));
#734= IFCFACEOUTERBOUND(#733,.T.);
#735= IFCFACE((#734));
#736= IFCPOLYLOOP((#718,#724,#725,#719));
#737= IFCFACEOUTERBOUND(#736,.T.);
#738= IFCFACE((#737));
#739= IFCPOLYLOOP((#719,#725,#726,#720));
#740= IFCFACEOUTERBOUND(#739,.T.);
#741= IFCFACE((#740));
#742= IFCPOLYLOOP((#720,#726,#727,#721));
#743= IFCFACEOUTERBOUND(#742,.T.);
#744= IFCFACE((#743));
#745= IFCPOLYLOOP((#721,#727,#728,#722));
#746= IFCFACEOUTERBOUND(#745,.T.);
#747= IFCFACE((#746));
#748= IFCPOLYLOOP((#722,#728,#729,#723));
#749= IFCFACEOUTERBOUND(#748,.T.);
#750= IFCFACE((#749));
#751= IFCPOLYLOOP((#723,#729,#724,#718));
#752= IFCFACEOUTERBOUND(#751,.T.);
#753= IFCFACE((#752));
#754= IFCCARTESIANPOINT((8.,-12.0006400964272,0.));
#755= IFCCARTESIANPOINT((6.92820323027537,-12.0006400964272,4.00000000000024));
#756= IFCCARTESIANPOINT((3.99999999999952,-12.0006400964272,6.92820323027578));
#757= IFCCARTESIANPOINT((-8.29068785280258E-13,-12.0006400964272,8.));
#758= IFCCARTESIANPOINT((-4.00000000000096,-12.0006400964272,6.92820323027496));
#759= IFCCARTESIANPOINT((-6.9282032302762,-12.0006400964272,3.99999999999881));
#760= IFCCARTESIANPOINT((-8.,-12.0006400964272,-1.65813757056052E-12));
#761= IFCCARTESIANPOINT((-6.92820323027454,-12.0006400964272,-4.00000000000167));
#762= IFCCARTESIANPOINT((-3.99999999999809,-12.0006400964272,-6.92820323027661));
#763= IFCCARTESIANPOINT((2.47832457164377E-12,-12.0006400964272,-8.));
#764= IFCCARTESIANPOINT((4.00000000000239,-12.0006400964272,-6.92820323027413));
#765= IFCCARTESIANPOINT((6.92820323027703,-12.0006400964272,-3.99999999999737));
#766= IFCCARTESIANPOINT((8.,237.000000772713,0.));
#767= IFCCARTESIANPOINT((6.92820323027537,237.000000772713,4.00000000000024));
#768= IFCCARTESIANPOINT((3.99999999999952,237.000000772713,6.92820323027578));
#769= IFCCARTESIANPOINT((-8.29068785280258E-13,237.000000772713,8.));
#770= IFCCARTESIANPOINT((-4.00000000000096,237.000000772713,6.92820323027496));
#771= IFCCARTESIANPOINT((-6.9282032302762,237.000000772713,3.99999999999881));
#772= IFCCARTESIANPOINT((-8.,237.000000772713,-1.65813757056052E-12));
#773= IFCCARTESIANPOINT((-6.92820323027454,237.000000772713,-4.00000000000167));
#774= IFCCARTESIANPOINT((-3.99999999999809,237.000000772713,-6.92820323027661));
#775= IFCCARTESIANPOINT((2.47832457164377E-12,237.000000772713,-8.));
#776= IFCCARTESIANPOINT((4.00000000000239,237.000000772713,-6.92820323027413));
#777= IFCCARTESIANPOINT((6.92820323027703,237.000000772713,-3.99999999999737));
#778= IFCPOLYLOOP((#754,#755,#756,#757,#758,#759,#760,#761,#762,#763,#764,#765));
#779= IFCFACEOUTERBOUND(#778,.T.);
#780= IFCFACE((#779));
#781= IFCPOLYLOOP((#777,#776,#775,#774,#773,#772,#771,#770,#769,#768,#767,#766));
#782= IFCFACEOUTERBOUND(#781,.T.);
#783= IFCFACE((#782));
#784= IFCPOLYLOOP((#754,#766,#767,#755));
#785= IFCFACEOUTERBOUND(#784,.T.);
#786= IFCFACE((#785));
#787= IFCPOLYLOOP((#755,#767,#768,#756));
#788= IFCFACEOUTERBOUND(#787,.T.);
#789= IFCFACE((#788));
#790= IFCPOLYLOOP((#756,#768,#769,#757));
#791= IFCFACEOUTERBOUND(#790,.T.);
#792= IFCFACE((#791));
#793= IFCPOLYLOOP((#757,#769,#770,#758));
#794= IFCFACEOUTERBOUND(#793,.T.);
#795= IFCFACE((#794));
#796= IFCPOLYLOOP((#758,#770,#771,#759));
#797= IFCFACEOUTERBOUND(#796,.T.);
#798= IFCFACE((#797));
#799= IFCPOLYLOOP((#759,#771,#772,#760));
#800= IFCFACEOUTERBOUND(#799,.T.);
#801= IFCFACE((#800));
#802= IFCPOLYLOOP((#760,#772,#773,#761));
#803= IFCFACEOUTERBOUND(#802,.T.);
#804= IFCFACE((#803));
#805= IFCPOLYLOOP((#761,#773,#774,#762));
#806= IFCFACEOUTERBOUND(#805,.T.);
#807= IFCFACE((#806));
#808= IFCPOLYLOOP((#762,#774,#775,#763));
#809= IFCFACEOUTERBOUND(#808,.T.);
#810= IFCFACE((#809));
#811= IFCPOLYLOOP((#763,#775,#776,#764));
#812= IFCFACEOUTERBOUND(#811,.T.);
#813= IFCFACE((#812));
#814= IFCPOLYLOOP((#764,#776,#777,#765));
#815= IFCFACEOUTERBOUND(#814,.T.);
#816= IFCFACE((#815));
#817= IFCPOLYLOOP((#765,#777,#766,#754));
#818= IFCFACEOUTERBOUND(#817,.T.);
#819= IFCFACE((#818));
#820= IFCCARTESIANPOINT((14.4,205.,0.));
#821= IFCCARTESIANPOINT((12.4707658144957,205.,7.20000000000043));
#822= IFCCARTESIANPOINT((7.19999999999914,205.,12.4707658144964));
#823= IFCCARTESIANPOINT((-1.49232381350446E-12,205.,14.4));
#824= IFCCARTESIANPOINT((-7.20000000000172,205.,12.4707658144949));
#825= IFCCARTESIANPOINT((-12.4707658144972,205.,7.19999999999785));
#826= IFCCARTESIANPOINT((-14.4,205.,-2.98464762700893E-12));
#827= IFCCARTESIANPOINT((-12.4707658144942,205.,-7.20000000000301));
#828= IFCCARTESIANPOINT((-7.19999999999656,205.,-12.4707658144979));
#829= IFCCARTESIANPOINT((4.46098422895879E-12,205.,-14.4));
#830= IFCCARTESIANPOINT((7.2000000000043,205.,-12.4707658144934));
#831= IFCCARTESIANPOINT((12.4707658144986,205.,-7.19999999999527));
#832= IFCCARTESIANPOINT((14.4,210.28,0.));
#833= IFCCARTESIANPOINT((12.4707658144957,210.28,7.20000000000043));
#834= IFCCARTESIANPOINT((7.19999999999914,210.28,12.4707658144964));
#835= IFCCARTESIANPOINT((-1.49232381350446E-12,210.28,14.4));
#836= IFCCARTESIANPOINT((-7.20000000000172,210.28,12.4707658144949));
#837= IFCCARTESIANPOINT((-12.4707658144972,210.28,7.19999999999785));
#838= IFCCARTESIANPOINT((-14.4,210.28,-2.98464762700893E-12));
#839= IFCCARTESIANPOINT((-12.4707658144942,210.28,-7.20000000000301));
#840= IFCCARTESIANPOINT((-7.19999999999656,210.28,-12.4707658144979));
#841= IFCCARTESIANPOINT((4.46098422895879E-12,210.28,-14.4));
#842= IFCCARTESIANPOINT((7.2000000000043,210.28,-12.4707658144934));
#843= IFCCARTESIANPOINT((12.4707658144986,210.28,-7.19999999999527));
#844= IFCPOLYLOOP((#820,#821,#822,#823,#824,#825,#826,#827,#828,#829,#830,#831));
#845= IFCFACEOUTERBOUND(#844,.T.);
#846= IFCFACE((#845));
#847= IFCPOLYLOOP((#843,#842,#841,#840,#839,#838,#837,#836,#835,#834,#833,#832));
#848= IFCFACEOUTERBOUND(#847,.T.);
#849= IFCFACE((#848));
#850= IFCPOLYLOOP((#820,#832,#833,#821));
#851= IFCFACEOUTERBOUND(#850,.T.);
#852= IFCFACE((#851));
#853= IFCPOLYLOOP((#821,#833,#834,#822));
#854= IFCFACEOUTERBOUND(#853,.T.);
#855= IFCFACE((#854));
#856= IFCPOLYLOOP((#822,#834,#835,#823));
#857= IFCFACEOUTERBOUND(#856,.T.);
#858= IFCFACE((#857));
#859= IFCPOLYLOOP((#823,#835,#836,#824));
#860= IFCFACEOUTERBOUND(#859,.T.);
#861= IFCFACE((#860));
#862= IFCPOLYLOOP((#824,#836,#837,#825));
#863= IFCFACEOUTERBOUND(#862,.T.);
#864= IFCFACE((#863));
#865= IFCPOLYLOOP((#825,#837,#838,#826));
#866= IFCFACEOUTERBOUND(#865,.T.);
#867= IFCFACE((#866));
#868= IFCPOLYLOOP((#826,#838,#839,#827));
#869= IFCFACEOUTERBOUND(#868,.T.);
#870= IFCFACE((#869));
#871= IFCPOLYLOOP((#827,#839,#840,#828));
#872= IFCFACEOUTERBOUND(#871,.T.);
#873= IFCFACE((#872));
#874= IFCPOLYLOOP((#828,#840,#841,#829));
#875= IFCFACEOUTERBOUND(#874,.T.);
#876= IFCFACE((#875));
#877= IFCPOLYLOOP((#829,#841,#842,#830));
#878= IFCFACEOUTERBOUND(#877,.T.);
#879= IFCFACE((#878));
#880= IFCPOLYLOOP((#830,#842,#843,#831));
#881= IFCFACEOUTERBOUND(#880,.T.);
#882= IFCFACE((#881));
#883= IFCPOLYLOOP((#831,#843,#832,#820));
#884= IFCFACEOUTERBOUND(#883,.T.);
#885= IFCFACE((#884));
#886= IFCCLOSEDSHELL((#732,#735,#738,#741,#744,#747,#750,#753,#780,#783,#786,#789,#792,#795,#798,#801,#804,#807,#810,#813,#816,#819,#846,#849,#852,#855,#858,#861,#864,#867,#870,#873,#876,#879,#882,#885));
#887= IFCFACETEDBREP(#886);
#888= IFCSTYLEDITEM(#887,(#357),$);
#889= IFCCLOSEDSHELL((#384,#387,#390,#393,#396,#399,#402,#405,#408,#411,#414,#417,#420,#423,#456,#459,#462,#465,#468,#471,#474,#477,#480,#483,#486,#489,#492,#495,#498,#501,#504,#531,#534,#537,#540,#543,#546,#549,#552,#555,#558,#561,#564,#567,#570,#603,#606,#609,#612,#615,#618,#621,#624,#627,#630,#633,#636,#639,#642,#645,#648,#651,#678,#681,#684,#687,#690,#693,#696,#699,#702,#705,#708,#711,#714,#717));
#890= IFCFACETEDBREP(#889);
#891= IFCSTYLEDITEM(#890,(#119),$);
#892= IFCSHAPEREPRESENTATION(#12,'Body','Brep',(#887,#890));
#893= IFCREPRESENTATIONMAP(#10,#892);
#894= IFCMAPPEDITEM(#893,#122);
#895= IFCSHAPEREPRESENTATION(#12,'Body','MappedRepresentation',(#894));
#896= IFCPRODUCTDEFINITIONSHAPE($,$,(#895));
#897= IFCCARTESIANPOINT((52784.998911352,29692.9982118658,16950.0007692249));
#898= IFCAXIS2PLACEMENT3D(#897,#9,#258);
#899= IFCLOCALPLACEMENT(#42,#898);
#900= IFCMECHANICALFASTENER('1v$CHkiEL2DBHzHO3iHAwf',#355,'Bolt assembly',$,$,#899,#896,'ID79fcc46e-b0e5-4234-b47d-4580ec44aea9',16.,249.000640869141);
#901= IFCPROPERTYSINGLEVALUE('Washer count',$,IFCINTEGER(1),$);
#902= IFCPROPERTYSINGLEVALUE('Washer diameter',$,IFCLENGTHMEASURE(16.),$);
#903= IFCPROPERTYSINGLEVALUE('Slotted hole y',$,IFCLENGTHMEASURE(12.),$);
#904= IFCPROPERTYSINGLEVALUE('Bolt hole diameter',$,IFCLENGTHMEASURE(18.),$);
#905= IFCPROPERTYSINGLEVALUE('Bolt size',$,IFCLENGTHMEASURE(16.),$);
#906= IFCPROPERTYSINGLEVALUE('Bolt length',$,IFCLENGTHMEASURE(249.),$);
#907= IFCPROPERTYSINGLEVALUE('Bolt standard',$,IFCLABEL('TS10.9'),$);
#908= IFCPROPERTYSET('0sOWJCnn1AtwKt6O6qff7o',#5,'Tekla Bolt','Bolt Properties',(#901,#902,#137,#138,#139,#140,#141,#903,#143,#904,#145,#146,#905,#906,#907,#150));
#909= IFCMATERIAL('TS10.9');
#910= IFCMAPPEDITEM(#893,#122);
#911= IFCSHAPEREPRESENTATION(#12,'Body','MappedRepresentation',(#910));
#912= IFCPRODUCTDEFINITIONSHAPE($,$,(#911));
#913= IFCCARTESIANPOINT((52784.998911352,29592.9982118658,16950.0007692249));
#914= IFCAXIS2PLACEMENT3D(#913,#9,#258);
#915= IFCLOCALPLACEMENT(#42,#914);
#916= IFCMECHANICALFASTENER('1_OX0FqyzE1O0wHQ$9rK9r',#355,'Bolt assembly',$,$,#915,#912,'ID7e62100f-d3cf-4e05-803a-45afc9d54275',16.,249.000640869141);
#917= IFCCARTESIANPOINT((0.,-4.,20.));
#918= IFCCARTESIANPOINT((0.,-4.,50.));
#919= IFCCARTESIANPOINT((0.,4.,50.));
#920= IFCCARTESIANPOINT((0.,4.,20.));
#921= IFCPOLYLOOP((#917,#918,#919,#920));
#922= IFCFACEOUTERBOUND(#921,.T.);
#923= IFCFACE((#922));
#924= IFCCARTESIANPOINT((25.,-4.,50.));
#925= IFCCARTESIANPOINT((25.,4.,50.));
#926= IFCPOLYLOOP((#918,#924,#925,#919));
#927= IFCFACEOUTERBOUND(#926,.T.);
#928= IFCFACE((#927));
#929= IFCCARTESIANPOINT((39.,-4.,15.));
#930= IFCCARTESIANPOINT((39.,4.,15.));
#931= IFCPOLYLOOP((#924,#929,#930,#925));
#932= IFCFACEOUTERBOUND(#931,.T.);
#933= IFCFACE((#932));
#934= IFCCARTESIANPOINT((39.,-4.,0.));
#935= IFCCARTESIANPOINT((39.,4.,0.));
#936= IFCPOLYLOOP((#929,#934,#935,#930));
#937= IFCFACEOUTERBOUND(#936,.T.);
#938= IFCFACE((#937));
#939= IFCCARTESIANPOINT((20.,-4.,0.));
#940= IFCCARTESIANPOINT((20.,4.,0.));
#941= IFCPOLYLOOP((#934,#939,#940,#935));
#942= IFCFACEOUTERBOUND(#941,.T.);
#943= IFCFACE((#942));
#944= IFCCARTESIANPOINT((19.6157056080629,-4.,3.9018064403208));
#945= IFCCARTESIANPOINT((19.6157056080629,4.,3.9018064403208));
#946= IFCPOLYLOOP((#939,#944,#945,#940));
#947= IFCFACEOUTERBOUND(#946,.T.);
#948= IFCFACE((#947));
#949= IFCCARTESIANPOINT((18.4775906502255,-4.,7.65366864730095));
#950= IFCCARTESIANPOINT((18.4775906502255,4.,7.65366864730095));
#951= IFCPOLYLOOP((#944,#949,#950,#945));
#952= IFCFACEOUTERBOUND(#951,.T.);
#953= IFCFACE((#952));
#954= IFCCARTESIANPOINT((16.6293922460536,-4.,11.1114046603907));
#955= IFCCARTESIANPOINT((16.6293922460536,4.,11.1114046603907));
#956= IFCPOLYLOOP((#949,#954,#955,#950));
#957= IFCFACEOUTERBOUND(#956,.T.);
#958= IFCFACE((#957));
#959= IFCCARTESIANPOINT((14.1421356237333,-4.,14.1421356237297));
#960= IFCCARTESIANPOINT((14.1421356237333,4.,14.1421356237297));
#961= IFCPOLYLOOP((#954,#959,#960,#955));
#962= IFCFACEOUTERBOUND(#961,.T.);
#963= IFCFACE((#962));
#964= IFCCARTESIANPOINT((11.1114046603907,-4.,16.62939224605));
#965= IFCCARTESIANPOINT((11.1114046603907,4.,16.62939224605));
#966= IFCPOLYLOOP((#959,#964,#965,#960));
#967= IFCFACEOUTERBOUND(#966,.T.);
#968= IFCFACE((#967));
#969= IFCCARTESIANPOINT((7.65366864730458,-4.,18.4775906502255));
#970= IFCCARTESIANPOINT((7.65366864730458,4.,18.4775906502255));
#971= IFCPOLYLOOP((#964,#969,#970,#965));
#972= IFCFACEOUTERBOUND(#971,.T.);
#973= IFCFACE((#972));
#974= IFCCARTESIANPOINT((3.9018064403208,-4.,19.6157056080629));
#975= IFCCARTESIANPOINT((3.9018064403208,4.,19.6157056080629));
#976= IFCPOLYLOOP((#969,#974,#975,#970));
#977= IFCFACEOUTERBOUND(#976,.T.);
#978= IFCFACE((#977));
#979= IFCPOLYLOOP((#974,#917,#920,#975));
#980= IFCFACEOUTERBOUND(#979,.T.);
#981= IFCFACE((#980));
#982= IFCPOLYLOOP((#925,#930,#935,#940,#945,#950,#955,#960,#965,#970,#975,#920,#919));
#983= IFCFACEOUTERBOUND(#982,.T.);
#984= IFCFACE((#983));
#985= IFCPOLYLOOP((#974,#969,#964,#959,#954,#949,#944,#939,#934,#929,#924,#918,#917));
#986= IFCFACEOUTERBOUND(#985,.T.);
#987= IFCFACE((#986));
#988= IFCCLOSEDSHELL((#923,#928,#933,#938,#943,#948,#953,#958,#963,#968,#973,#978,#981,#984,#987));
#989= IFCFACETEDBREP(#988);
#990= IFCSTYLEDITEM(#989,(#274),$);
#991= IFCSHAPEREPRESENTATION(#12,'Body','Brep',(#989));
#992= IFCPRODUCTDEFINITIONSHAPE($,$,(#991));
#993= IFCCARTESIANPOINT((52951.0000360786,29557.0028121895,19359.9353390093));
#994= IFCAXIS2PLACEMENT3D(#993,#9,#7);
#995= IFCLOCALPLACEMENT(#42,#994);
#996= IFCPLATE('3fy_maGrr0svbyU8VG5Cxs',#179,'PLATE-8','PL8*39',$,#995,#992,'IDe9f3ec24-435d-40db-997c-7887d014cef6');
#997= IFCPLATETYPE('3Nv9NkAtj0oRHi2L8Ky8Hf',#5,'PL8*39',$,$,$,$,$,$,.NOTDEFINED.);
#998= IFCPROPERTYSINGLEVALUE('Bottom elevation',$,IFCLABEL(' +19.360'),$);
#999= IFCPROPERTYSINGLEVALUE('Top elevation',$,IFCLABEL(' +19.410'),$);
#1000= IFCPROPERTYSINGLEVALUE('Preliminary mark',$,IFCLABEL('5-2-P64'),$);
#1001= IFCPROPERTYSET('3Oyz2dkxj4nQ$Mb$i8Mc7M',#5,'Tekla Common','Common Properties to Shared building elements',(#998,#999,#330,#1000,#332,#333));
#1002= IFCPROPERTYSINGLEVALUE('Weight',$,IFCMASSMEASURE(0.09),$);
#1003= IFCPROPERTYSINGLEVALUE('Gross footprint area',$,IFCAREAMEASURE(0.),$);
#1004= IFCPROPERTYSINGLEVALUE('Area per tons',$,IFCAREAMEASURE(46.303),$);
#1005= IFCPROPERTYSINGLEVALUE('Net surface area',$,IFCAREAMEASURE(0.004),$);
#1006= IFCPROPERTYSINGLEVALUE('Height',$,IFCLENGTHMEASURE(39.),$);
#1007= IFCPROPERTYSINGLEVALUE('Width',$,IFCLENGTHMEASURE(8.),$);
#1008= IFCPROPERTYSINGLEVALUE('Length',$,IFCLENGTHMEASURE(50.),$);
#1009= IFCPROPERTYSET('0zJTX_bt91bxpjx3PtN8Gd',#5,'Tekla Quantity','Quantity Properties to Shared building elements',(#1002,#336,#1003,#1004,#1005,#1006,#1007,#1008));
#1010= IFCPROPERTYSINGLEVALUE('Reference',$,IFCIDENTIFIER('5-2-P64'),$);
#1011= IFCPROPERTYSET('2hrnOK1MTA6uklZGVTztlV',#5,'Pset_PlateCommon','Common Properties to plate elements',(#344,#1010));
#1012= IFCQUANTITYLENGTH('Width',$,$,39.);
#1013= IFCQUANTITYAREA('NetArea',$,$,0.0040502040779916);
#1014= IFCQUANTITYAREA('GrossArea',$,$,0.00195);
#1015= IFCQUANTITYAREA('CrossSectionArea',$,$,6.4E-05);
#1016= IFCQUANTITYVOLUME('NetVolume',$,$,1.11428438781936E-05);
#1017= IFCQUANTITYVOLUME('GrossVolume',$,$,1.11428438781936E-05);
#1018= IFCELEMENTQUANTITY('3q2LgwypHDOPgMYiFy_K6H',#5,'BaseQuantities',$,$,(#1012,#1013,#1014,#1015,#1016,#1017));
#1019= IFCSHAPEREPRESENTATION(#12,'Body','Brep',(#989));
#1020= IFCPRODUCTDEFINITIONSHAPE($,$,(#1019));
#1021= IFCCARTESIANPOINT((52951.0000360786,29728.9995527696,19359.935339009));
#1022= IFCAXIS2PLACEMENT3D(#1021,#9,#7);
#1023= IFCLOCALPLACEMENT(#42,#1022);
#1024= IFCPLATE('0ntGS3hbjCc8W3Ve5GDbiR',#179,'PLATE-8','PL8*39',$,#1023,#1020,'ID31dd0703-ae5b-4c98-8803-7e8150365b1b');
#1025= IFCCARTESIANPOINT((0.,-4.,0.));
#1026= IFCCARTESIANPOINT((0.,-4.,15.));
#1027= IFCCARTESIANPOINT((0.,4.,15.));
#1028= IFCCARTESIANPOINT((0.,4.,0.));
#1029= IFCPOLYLOOP((#1025,#1026,#1027,#1028));
#1030= IFCFACEOUTERBOUND(#1029,.T.);
#1031= IFCFACE((#1030));
#1032= IFCCARTESIANPOINT((14.,-4.,50.));
#1033= IFCCARTESIANPOINT((14.,4.,50.));
#1034= IFCPOLYLOOP((#1026,#1032,#1033,#1027));
#1035= IFCFACEOUTERBOUND(#1034,.T.);
#1036= IFCFACE((#1035));
#1037= IFCCARTESIANPOINT((39.,-4.,50.));
#1038= IFCCARTESIANPOINT((39.,4.,50.));
#1039= IFCPOLYLOOP((#1032,#1037,#1038,#1033));
#1040= IFCFACEOUTERBOUND(#1039,.T.);
#1041= IFCFACE((#1040));
#1042= IFCCARTESIANPOINT((39.,-4.,20.));
#1043= IFCCARTESIANPOINT((39.,4.,20.));
#1044= IFCPOLYLOOP((#1037,#1042,#1043,#1038));
#1045= IFCFACEOUTERBOUND(#1044,.T.);
#1046= IFCFACE((#1045));
#1047= IFCCARTESIANPOINT((35.0981935596792,-4.,19.6157056080629));
#1048= IFCCARTESIANPOINT((35.0981935596792,4.,19.6157056080629));
#1049= IFCPOLYLOOP((#1042,#1047,#1048,#1043));
#1050= IFCFACEOUTERBOUND(#1049,.T.);
#1051= IFCFACE((#1050));
#1052= IFCCARTESIANPOINT((31.3463313526954,-4.,18.4775906502255));
#1053= IFCCARTESIANPOINT((31.3463313526954,4.,18.4775906502255));
#1054= IFCPOLYLOOP((#1047,#1052,#1053,#1048));
#1055= IFCFACEOUTERBOUND(#1054,.T.);
#1056= IFCFACE((#1055));
#1057= IFCCARTESIANPOINT((27.8885953396093,-4.,16.62939224605));
#1058= IFCCARTESIANPOINT((27.8885953396093,4.,16.62939224605));
#1059= IFCPOLYLOOP((#1052,#1057,#1058,#1053));
#1060= IFCFACEOUTERBOUND(#1059,.T.);
#1061= IFCFACE((#1060));
#1062= IFCCARTESIANPOINT((24.8578643762667,-4.,14.1421356237297));
#1063= IFCCARTESIANPOINT((24.8578643762667,4.,14.1421356237297));
#1064= IFCPOLYLOOP((#1057,#1062,#1063,#1058));
#1065= IFCFACEOUTERBOUND(#1064,.T.);
#1066= IFCFACE((#1065));
#1067= IFCCARTESIANPOINT((22.3706077539464,-4.,11.1114046603907));
#1068= IFCCARTESIANPOINT((22.3706077539464,4.,11.1114046603907));
#1069= IFCPOLYLOOP((#1062,#1067,#1068,#1063));
#1070= IFCFACEOUTERBOUND(#1069,.T.);
#1071= IFCFACE((#1070));
#1072= IFCCARTESIANPOINT((20.5224093497745,-4.,7.65366864730095));
#1073= IFCCARTESIANPOINT((20.5224093497745,4.,7.65366864730095));
#1074= IFCPOLYLOOP((#1067,#1072,#1073,#1068));
#1075= IFCFACEOUTERBOUND(#1074,.T.);
#1076= IFCFACE((#1075));
#1077= IFCCARTESIANPOINT((19.3842943919371,-4.,3.9018064403208));
#1078= IFCCARTESIANPOINT((19.3842943919371,4.,3.9018064403208));
#1079= IFCPOLYLOOP((#1072,#1077,#1078,#1073));
#1080= IFCFACEOUTERBOUND(#1079,.T.);
#1081= IFCFACE((#1080));
#1082= IFCCARTESIANPOINT((19.,-4.,0.));
#1083= IFCCARTESIANPOINT((19.,4.,0.));
#1084= IFCPOLYLOOP((#1077,#1082,#1083,#1078));
#1085= IFCFACEOUTERBOUND(#1084,.T.);
#1086= IFCFACE((#1085));
#1087= IFCPOLYLOOP((#1082,#1025,#1028,#1083));
#1088= IFCFACEOUTERBOUND(#1087,.T.);
#1089= IFCFACE((#1088));
#1090= IFCPOLYLOOP((#1033,#1038,#1043,#1048,#1053,#1058,#1063,#1068,#1073,#1078,#1083,#1028,#1027));
#1091= IFCFACEOUTERBOUND(#1090,.T.);
#1092= IFCFACE((#1091));
#1093= IFCPOLYLOOP((#1082,#1077,#1072,#1067,#1062,#1057,#1052,#1047,#1042,#1037,#1032,#1026,#1025));
#1094= IFCFACEOUTERBOUND(#1093,.T.);
#1095= IFCFACE((#1094));
#1096= IFCCLOSEDSHELL((#1031,#1036,#1041,#1046,#1051,#1056,#1061,#1066,#1071,#1076,#1081,#1086,#1089,#1092,#1095));
#1097= IFCFACETEDBREP(#1096);
#1098= IFCSTYLEDITEM(#1097,(#274),$);
#1099= IFCSHAPEREPRESENTATION(#12,'Body','Brep',(#1097));
#1100= IFCPRODUCTDEFINITIONSHAPE($,$,(#1099));
#1101= IFCCARTESIANPOINT((52890.0000360786,29557.0028121895,19359.9353390094));
#1102= IFCAXIS2PLACEMENT3D(#1101,#9,#7);
#1103= IFCLOCALPLACEMENT(#42,#1102);
#1104= IFCPLATE('3C7gY8X2P8x8cImf9_1tOg',#179,'PLATE-8','PL8*39',$,#1103,#1100,'IDcc1ea888-8426-48ec-8992-c2927e07762a');
#1105= IFCQUANTITYVOLUME('NetVolume',$,$,1.11428438781936E-05);
#1106= IFCQUANTITYVOLUME('GrossVolume',$,$,1.11428438781936E-05);
#1107= IFCELEMENTQUANTITY('0i6vXyWGDFnQ0B8CIn2lwX',#5,'BaseQuantities',$,$,(#1012,#1013,#1014,#1015,#1105,#1106));
#1108= IFCCOLOURRGB('Dark Red',0.752941176470588,0.16078431372549,0.552941176470588);
#1109= IFCSURFACESTYLERENDERING(#1108,0.,$,$,$,$,IFCNORMALISEDRATIOMEASURE(0.00390625),IFCSPECULAREXPONENT(10.),.NOTDEFINED.);
#1110= IFCSURFACESTYLE('STEEL/S275',.POSITIVE.,(#1109));
#1111= IFCPRESENTATIONSTYLEASSIGNMENT((#1110));
#1112= IFCCARTESIANPOINT((111.70521545374,-1.,230.34315490727));
#1113= IFCCARTESIANPOINT((102.428718471247,-11.,226.60863971334));
#1114= IFCCARTESIANPOINT((177.11902621513,-11.,41.078694025804));
#1115= IFCCARTESIANPOINT((186.395523071144,-1.,44.813209533917));
#1116= IFCPOLYLOOP((#1112,#1113,#1114,#1115));
#1117= IFCFACEOUTERBOUND(#1116,.T.);
#1118= IFCFACE((#1117));
#1119= IFCCARTESIANPOINT((102.428718471247,11.,226.60863971334));
#1120= IFCCARTESIANPOINT((111.70521545374,1.,230.34315490727));
#1121= IFCCARTESIANPOINT((186.395523071144,1.,44.813209533917));
#1122= IFCCARTESIANPOINT((177.11902621513,11.,41.078694025804));
#1123= IFCPOLYLOOP((#1119,#1120,#1121,#1122));
#1124= IFCFACEOUTERBOUND(#1123,.T.);
#1125= IFCFACE((#1124));
#1126= IFCCARTESIANPOINT((-44.4441825980975,-11.,35.6607221718077));
#1127= IFCCARTESIANPOINT((-55.0315895081094,-11.,55.4164276121955));
#1128= IFCCARTESIANPOINT((-55.0315895081094,11.,55.4164276121955));
#1129= IFCCARTESIANPOINT((-44.4441825980975,11.,35.6607221718077));
#1130= IFCPOLYLOOP((#1126,#1127,#1128,#1129));
#1131= IFCFACEOUTERBOUND(#1130,.T.);
#1132= IFCFACE((#1131));
#1133= IFCCARTESIANPOINT((-61.0102329003257,-11.,76.9945401120567));
#1134= IFCCARTESIANPOINT((-61.0102329003257,11.,76.9945401120567));
#1135= IFCPOLYLOOP((#1127,#1133,#1134,#1128));
#1136= IFCFACEOUTERBOUND(#1135,.T.);
#1137= IFCFACE((#1136));
#1138= IFCCARTESIANPOINT((-62.0393646486264,-11.,99.3619271680436));
#1139= IFCCARTESIANPOINT((-62.0393646486264,11.,99.3619271680436));
#1140= IFCPOLYLOOP((#1133,#1138,#1139,#1134));
#1141= IFCFACEOUTERBOUND(#1140,.T.);
#1142= IFCFACE((#1141));
#1143= IFCCARTESIANPOINT((-58.0674200629674,-11.,121.397869899774));
#1144= IFCCARTESIANPOINT((-58.0674200629674,11.,121.397869899774));
#1145= IFCPOLYLOOP((#1138,#1143,#1144,#1139));
#1146= IFCFACEOUTERBOUND(#1145,.T.);
#1147= IFCFACE((#1146));
#1148= IFCCARTESIANPOINT((-49.2934135958531,-11.,141.998256458828));
#1149= IFCCARTESIANPOINT((-49.2934135958531,11.,141.998256458828));
#1150= IFCPOLYLOOP((#1143,#1148,#1149,#1144));
#1151= IFCFACEOUTERBOUND(#1150,.T.);
#1152= IFCFACE((#1151));
#1153= IFCCARTESIANPOINT((-36.1569672147416,-11.,160.130903599937));
#1154= IFCCARTESIANPOINT((-36.1569672147416,11.,160.130903599937));
#1155= IFCPOLYLOOP((#1148,#1153,#1154,#1149));
#1156= IFCFACEOUTERBOUND(#1155,.T.);
#1157= IFCFACE((#1156));
#1158= IFCCARTESIANPOINT((-19.3162831246373,-11.,174.887274266359));
#1159= IFCCARTESIANPOINT((-19.3162831246373,11.,174.887274266359));
#1160= IFCPOLYLOOP((#1153,#1158,#1159,#1154));
#1161= IFCFACEOUTERBOUND(#1160,.T.);
#1162= IFCFACE((#1161));
#1163= IFCCARTESIANPOINT((0.384835481389018,-11.,185.527999877842));
#1164= IFCCARTESIANPOINT((0.384835481389018,11.,185.527999877842));
#1165= IFCPOLYLOOP((#1158,#1163,#1164,#1159));
#1166= IFCFACEOUTERBOUND(#1165,.T.);
#1167= IFCFACE((#1166));
#1168= IFCPOLYLOOP((#1120,#1119,#1164,#1163,#1113,#1112));
#1169= IFCFACEOUTERBOUND(#1168,.T.);
#1170= IFCFACE((#1169));
#1171= IFCPOLYLOOP((#1121,#1120,#1112,#1115));
#1172= IFCFACEOUTERBOUND(#1171,.T.);
#1173= IFCFACE((#1172));
#1174= IFCCARTESIANPOINT((75.0799865722311,-11.,1.45519152283669E-11));
#1175= IFCCARTESIANPOINT((75.0799865722311,11.,1.45519152283669E-11));
#1176= IFCPOLYLOOP((#1174,#1175,#1122,#1121,#1115,#1114));
#1177= IFCFACEOUTERBOUND(#1176,.T.);
#1178= IFCFACE((#1177));
#1179= IFCCARTESIANPOINT((53.499459787241,-11.,-6.05491091658769));
#1180= IFCCARTESIANPOINT((53.499459787241,11.,-6.05491091658769));
#1181= IFCPOLYLOOP((#1174,#1179,#1180,#1175));
#1182= IFCFACEOUTERBOUND(#1181,.T.);
#1183= IFCFACE((#1182));
#1184= IFCCARTESIANPOINT((31.1115724751435,-11.,-7.13360653007112));
#1185= IFCCARTESIANPOINT((31.1115724751435,11.,-7.13360653007112));
#1186= IFCPOLYLOOP((#1179,#1184,#1185,#1180));
#1187= IFCFACEOUTERBOUND(#1186,.T.);
#1188= IFCFACE((#1187));
#1189= IFCCARTESIANPOINT((9.04888733781809,-11.,-3.18151758155727));
#1190= IFCCARTESIANPOINT((9.04888733781809,11.,-3.18151758155727));
#1191= IFCPOLYLOOP((#1184,#1189,#1190,#1185));
#1192= IFCFACEOUTERBOUND(#1191,.T.);
#1193= IFCFACE((#1192));
#1194= IFCCARTESIANPOINT((-11.5724843123298,-11.,5.60142690148496));
#1195= IFCCARTESIANPOINT((-11.5724843123298,11.,5.60142690148496));
#1196= IFCPOLYLOOP((#1189,#1194,#1195,#1190));
#1197= IFCFACEOUTERBOUND(#1196,.T.);
#1198= IFCFACE((#1197));
#1199= IFCCARTESIANPOINT((-29.7093446037507,-11.,18.7709136528865));
#1200= IFCCARTESIANPOINT((-29.7093446037507,11.,18.7709136528865));
#1201= IFCPOLYLOOP((#1194,#1199,#1200,#1195));
#1202= IFCFACEOUTERBOUND(#1201,.T.);
#1203= IFCFACE((#1202));
#1204= IFCPOLYLOOP((#1199,#1126,#1129,#1200));
#1205= IFCFACEOUTERBOUND(#1204,.T.);
#1206= IFCFACE((#1205));
#1207= IFCPOLYLOOP((#1175,#1180,#1185,#1190,#1195,#1200,#1129,#1128,#1134,#1139,#1144,#1149,#1154,#1159,#1164,#1119,#1122));
#1208= IFCFACEOUTERBOUND(#1207,.T.);
#1209= IFCFACE((#1208));
#1210= IFCPOLYLOOP((#1163,#1158,#1153,#1148,#1143,#1138,#1133,#1127,#1126,#1199,#1194,#1189,#1184,#1179,#1174,#1114,#1113));
#1211= IFCFACEOUTERBOUND(#1210,.T.);
#1212= IFCFACE((#1211));
#1213= IFCCLOSEDSHELL((#1118,#1125,#1132,#1137,#1142,#1147,#1152,#1157,#1162,#1167,#1170,#1173,#1178,#1183,#1188,#1193,#1198,#1203,#1206,#1209,#1212));
#1214= IFCFACETEDBREP(#1213);
#1215= IFCSTYLEDITEM(#1214,(#1111),$);
#1216= IFCSHAPEREPRESENTATION(#12,'Body','Brep',(#1214));
#1217= IFCPRODUCTDEFINITIONSHAPE($,$,(#1216));
#1218= IFCCARTESIANPOINT((52939.9965555161,29714.9594833322,19549.6450036556));
#1219= IFCDIRECTION((0.,-0.927649704870331,-0.373451502947824));
#1220= IFCDIRECTION((0.,0.373451502947825,-0.92764970487033));
#1221= IFCAXIS2PLACEMENT3D(#1218,#1219,#1220);
#1222= IFCLOCALPLACEMENT(#42,#1221);
#1223= IFCPLATE('3yb8YWixrDYxCLIslPfnmc',#179,'PLATE-22','PL22*200',$,#1222,#1217,'IDfc9488a0-b3bd-4d8b-b315-4b6bd9a71c26');
#1224= IFCPLATETYPE('0HpKahI4P4gvkNjNIhRKaX',#5,'PL22*200',$,$,$,$,$,$,.NOTDEFINED.);
#1225= IFCPROPERTYSINGLEVALUE('Top elevation',$,IFCLABEL(' +19.580'),$);
#1226= IFCPROPERTYSINGLEVALUE('Preliminary mark',$,IFCLABEL('5-2-P8(?)'),$);
#1227= IFCPROPERTYSINGLEVALUE('Class',$,IFCLABEL('79'),$);
#1228= IFCPROPERTYSET('1vZvSA88X9svzIFaegq50e',#5,'Tekla Common','Common Properties to Shared building elements',(#998,#1225,#330,#1226,#332,#1227));
#1229= IFCPROPERTYSINGLEVALUE('Weight',$,IFCMASSMEASURE(6.68),$);
#1230= IFCPROPERTYSINGLEVALUE('Volume',$,IFCVOLUMEMEASURE(0.001),$);
#1231= IFCPROPERTYSINGLEVALUE('Area per tons',$,IFCAREAMEASURE(13.954),$);
#1232= IFCPROPERTYSINGLEVALUE('Net surface area',$,IFCAREAMEASURE(0.093),$);
#1233= IFCPROPERTYSINGLEVALUE('Height',$,IFCLENGTHMEASURE(200.),$);
#1234= IFCPROPERTYSINGLEVALUE('Width',$,IFCLENGTHMEASURE(22.),$);
#1235= IFCPROPERTYSINGLEVALUE('Length',$,IFCLENGTHMEASURE(220.),$);
#1236= IFCPROPERTYSET('1WNay8CUXDRwmEo6iQqb0j',#5,'Tekla Quantity','Quantity Properties to Shared building elements',(#1229,#1230,#1003,#1231,#1232,#1233,#1234,#1235));
#1237= IFCPROPERTYSINGLEVALUE('Reference',$,IFCIDENTIFIER('5-2-P8'),$);
#1238= IFCPROPERTYSET('1aMUZZ6QPAvPusH6CgjrYV',#5,'Pset_PlateCommon','Common Properties to plate elements',(#344,#1237));
#1239= IFCQUANTITYLENGTH('Width',$,$,200.000010769762);
#1240= IFCQUANTITYAREA('NetArea',$,$,0.0932162867524771);
#1241= IFCQUANTITYAREA('GrossArea',$,$,0.0440000022826099);
#1242= IFCQUANTITYAREA('CrossSectionArea',$,$,0.000484);
#1243= IFCQUANTITYVOLUME('NetVolume',$,$,0.000850974242619008);
#1244= IFCQUANTITYVOLUME('GrossVolume',$,$,0.000870974243300862);
#1245= IFCELEMENTQUANTITY('0nKwYKrdf8kh_SB2lbXdpr',#5,'BaseQuantities',$,$,(#1239,#1240,#1241,#1242,#1243,#1244));
#1246= IFCSHAPEREPRESENTATION(#12,'Body','Brep',(#1097));
#1247= IFCPRODUCTDEFINITIONSHAPE($,$,(#1246));
#1248= IFCCARTESIANPOINT((52890.0000360786,29728.9995527696,19359.9353390094));
#1249= IFCAXIS2PLACEMENT3D(#1248,#9,#7);
#1250= IFCLOCALPLACEMENT(#42,#1249);
#1251= IFCPLATE('3GwKtRWTzBpQhkT282qMbd',#179,'PLATE-8','PL8*39',$,#1250,#1247,'IDd0e94ddb-81df-4bcd-aaee-742202d16967');
#1252= IFCCOLOURRGB('Light Cyan',0.125490196078431,0.792156862745098,0.615686274509804);
#1253= IFCSURFACESTYLERENDERING(#1252,0.,$,$,$,$,IFCNORMALISEDRATIOMEASURE(0.00390625),IFCSPECULAREXPONENT(10.),.NOTDEFINED.);
#1254= IFCSURFACESTYLE('STEEL/S275',.POSITIVE.,(#1253));
#1255= IFCPRESENTATIONSTYLEASSIGNMENT((#1254));
#1256= IFCCARTESIANPOINT((0.,-50.,-100.));
#1257= IFCCARTESIANPOINT((0.,50.,-100.));
#1258= IFCCARTESIANPOINT((2459.99893188477,50.,-100.));
#1259= IFCCARTESIANPOINT((2459.99893188477,-50.,-100.));
#1260= IFCPOLYLOOP((#1256,#1257,#1258,#1259));
#1261= IFCFACEOUTERBOUND(#1260,.T.);
#1262= IFCFACE((#1261));
#1263= IFCCARTESIANPOINT((0.,-50.,100.));
#1264= IFCCARTESIANPOINT((2459.99893188477,-50.,100.));
#1265= IFCPOLYLOOP((#1263,#1256,#1259,#1264));
#1266= IFCFACEOUTERBOUND(#1265,.T.);
#1267= IFCFACE((#1266));
#1268= IFCCARTESIANPOINT((0.,50.,100.));
#1269= IFCCARTESIANPOINT((2459.99893188477,50.,100.));
#1270= IFCPOLYLOOP((#1268,#1263,#1264,#1269));
#1271= IFCFACEOUTERBOUND(#1270,.T.);
#1272= IFCFACE((#1271));
#1273= IFCPOLYLOOP((#1257,#1268,#1269,#1258));
#1274= IFCFACEOUTERBOUND(#1273,.T.);
#1275= IFCFACE((#1274));
#1276= IFCCARTESIANPOINT((0.,-44.,-94.));
#1277= IFCCARTESIANPOINT((0.,-44.,94.));
#1278= IFCCARTESIANPOINT((2459.99893188477,-44.,94.));
#1279= IFCCARTESIANPOINT((2459.99893188477,-44.,-94.));
#1280= IFCPOLYLOOP((#1276,#1277,#1278,#1279));
#1281= IFCFACEOUTERBOUND(#1280,.T.);
#1282= IFCFACE((#1281));
#1283= IFCCARTESIANPOINT((0.,44.,94.));
#1284= IFCCARTESIANPOINT((2459.99893188477,44.,94.));
#1285= IFCPOLYLOOP((#1277,#1283,#1284,#1278));
#1286= IFCFACEOUTERBOUND(#1285,.T.);
#1287= IFCFACE((#1286));
#1288= IFCCARTESIANPOINT((0.,44.,-94.));
#1289= IFCCARTESIANPOINT((2459.99893188477,44.,-94.));
#1290= IFCPOLYLOOP((#1283,#1288,#1289,#1284));
#1291= IFCFACEOUTERBOUND(#1290,.T.);
#1292= IFCFACE((#1291));
#1293= IFCPOLYLOOP((#1264,#1259,#1258,#1269));
#1294= IFCFACEOUTERBOUND(#1293,.T.);
#1295= IFCPOLYLOOP((#1278,#1284,#1289,#1279));
#1296= IFCFACEBOUND(#1295,.T.);
#1297= IFCFACE((#1294,#1296));
#1298= IFCPOLYLOOP((#1288,#1276,#1279,#1289));
#1299= IFCFACEOUTERBOUND(#1298,.T.);
#1300= IFCFACE((#1299));
#1301= IFCPOLYLOOP((#1256,#1263,#1268,#1257));
#1302= IFCFACEOUTERBOUND(#1301,.T.);
#1303= IFCPOLYLOOP((#1283,#1277,#1276,#1288));
#1304= IFCFACEBOUND(#1303,.T.);
#1305= IFCFACE((#1302,#1304));
#1306= IFCCLOSEDSHELL((#1262,#1267,#1272,#1275,#1282,#1287,#1292,#1297,#1300,#1305));
#1307= IFCFACETEDBREP(#1306);
#1308= IFCSTYLEDITEM(#1307,(#1255),$);
#1309= IFCSHAPEREPRESENTATION(#12,'Body','Brep',(#1307));
#1310= IFCPRODUCTDEFINITIONSHAPE($,$,(#1309));
#1311= IFCCARTESIANPOINT((52939.998911352,29642.9982118658,16900.0007692249));
#1312= IFCAXIS2PLACEMENT3D(#1311,#8,#9);
#1313= IFCLOCALPLACEMENT(#42,#1312);
#1314= IFCBEAM('15kmGC8xzBw9ukGC_NdTmS',#355,'B3-\S\?\S\Z200x100x6','TUB200X100X6',$,#1313,#1310,'ID45bb040c-23bf-4be8-9e2e-40cf979ddc1c');
#1315= IFCBEAMTYPE('1OTWU$hmXD9upCW6ssOHfv',#5,'TUB200X100X6',$,$,$,$,$,$,.NOTDEFINED.);
#1316= IFCPROPERTYSINGLEVALUE('Bottom elevation',$,IFCLABEL(' +16.900'),$);
#1317= IFCPROPERTYSINGLEVALUE('Preliminary mark',$,IFCLABEL('5-2-P17(?)'),$);
#1318= IFCPROPERTYSINGLEVALUE('Class',$,IFCLABEL('5'),$);
#1319= IFCPROPERTYSET('377qhUBabD0PtujH9ubtdj',#5,'Tekla Common','Common Properties to Shared building elements',(#1316,#329,#330,#1317,#332,#1318));
#1320= IFCPROPERTYSINGLEVALUE('Weight',$,IFCMASSMEASURE(66.74),$);
#1321= IFCPROPERTYSINGLEVALUE('Volume',$,IFCVOLUMEMEASURE(0.009),$);
#1322= IFCPROPERTYSINGLEVALUE('Gross footprint area',$,IFCAREAMEASURE(0.003),$);
#1323= IFCPROPERTYSINGLEVALUE('Area per tons',$,IFCAREAMEASURE(21.941),$);
#1324= IFCPROPERTYSINGLEVALUE('Net surface area',$,IFCAREAMEASURE(1.464),$);
#1325= IFCPROPERTYSINGLEVALUE('Width',$,IFCLENGTHMEASURE(100.),$);
#1326= IFCPROPERTYSINGLEVALUE('Length',$,IFCLENGTHMEASURE(2460.),$);
#1327= IFCPROPERTYSET('28_E1Sbdv9bRDmx4BSrPHm',#5,'Tekla Quantity','Quantity Properties to Shared building elements',(#1320,#1321,#1322,#1323,#1324,#1233,#1325,#1326));
#1328= IFCPROPERTYSINGLEVALUE('Reference',$,IFCIDENTIFIER('5-2-P17'),$);
#1329= IFCPROPERTYSET('0nPy4pRen2QfMkpIYjYNkB',#5,'Pset_BeamCommon','Common Properties to beam elements',(#344,#1328));
#1330= IFCQUANTITYLENGTH('Length',$,$,2459.99893188477);
#1331= IFCQUANTITYAREA('OuterSurfaceArea',$,$,1.46434575749034);
#1332= IFCQUANTITYVOLUME('NetVolume',$,$,0.00850175630859378);
#1333= IFCQUANTITYWEIGHT('NetWeight',$,$,66.7387870224612);
#1334= IFCELEMENTQUANTITY('0TctfK$NjE0OGByrwAitRo',#5,'BaseQuantities',$,$,(#1330,#1331,#1332,#1333));
#1335= IFCRELAGGREGATES('2PDeAzFBDDyODeQ6XLsvjY',#5,$,$,#37,(#39));
#1336= IFCRELAGGREGATES('0sUhW$MVz4MA6Dy7PhOye9',#5,$,$,#39,(#41));
#1337= IFCRELAGGREGATES('26iadYb31BpucH7z1Yqjcx',#5,$,$,#41,(#43));
#1338= IFCRELCONTAINEDINSPATIALSTRUCTURE('3ouBYnx2D1aPWl0TQiOfQz',#5,$,$,(#1314,#1251,#1223,#1104,#1024,#996,#916,#900,#326,#261,#178,#169,#161,#133),#43);
#1339= IFCRELDEFINESBYPROPERTIES('2Tk$LQowT8vfCWj3u5unOG',#5,$,$,(#178,#169,#161,#133),#151);
#1340= IFCRELDEFINESBYPROPERTIES('1wYWsArKnEmgSxrWL2Otff',#5,$,$,(#261),#269);
#1341= IFCRELDEFINESBYPROPERTIES('0yEO6EN9bE8OBfgUe0NrT$',#5,$,$,(#326),#334);
#1342= IFCRELDEFINESBYPROPERTIES('1FI7KCsfX3a8vnFo7cosb8',#5,$,$,(#326),#343);
#1343= IFCRELDEFINESBYPROPERTIES('3JTxrGa8j0BQ2F9lKSRK78',#5,$,$,(#326),#346);
#1344= IFCRELDEFINESBYPROPERTIES('16$aiNSUb8O8P7WbSVnu5R',#5,$,$,(#326),#353);
#1345= IFCRELDEFINESBYPROPERTIES('35R4w3WefBHe$n$X2IK4tx',#5,$,$,(#916,#900),#908);
#1346= IFCRELDEFINESBYPROPERTIES('3P$4MBqaj7VBmw80BNuFIQ',#5,$,$,(#1251,#1104,#1024,#996),#1001);
#1347= IFCRELDEFINESBYPROPERTIES('2wl846WfT7YREbmlO09xNz',#5,$,$,(#1251,#1104,#1024,#996),#1009);
#1348= IFCRELDEFINESBYPROPERTIES('32u$MsETX6pxqyMmH_7qa5',#5,$,$,(#1251,#1104,#1024,#996),#1011);
#1349= IFCRELDEFINESBYPROPERTIES('0DAoPWe59A3uHgmPlQlbho',#5,$,$,(#1024,#996),#1018);
#1350= IFCRELDEFINESBYPROPERTIES('1axq2q4GnAPOKAzDzDjW9D',#5,$,$,(#1251,#1104),#1107);
#1351= IFCRELDEFINESBYPROPERTIES('0MqVgOc9L7JPMleJ$1_Yvc',#5,$,$,(#1223),#1228);
#1352= IFCRELDEFINESBYPROPERTIES('0aXgLQbLj4TuE1voDlKD2j',#5,$,$,(#1223),#1236);
#1353= IFCRELDEFINESBYPROPERTIES('1woqXQ4sn6yRYyZbpPllMU',#5,$,$,(#1223),#1238);
#1354= IFCRELDEFINESBYPROPERTIES('0uuCk0v3b1KRMkFs7l8rZn',#5,$,$,(#1223),#1245);
#1355= IFCRELDEFINESBYPROPERTIES('30KtP7nubCSQY76TCmbc5F',#5,$,$,(#1314),#1319);
#1356= IFCRELDEFINESBYPROPERTIES('08ZQ46fBXDPOLTtEExyhC0',#5,$,$,(#1314),#1327);
#1357= IFCRELDEFINESBYPROPERTIES('1nuzX$BaLBUhCSn94Qbn9E',#5,$,$,(#1314),#1329);
#1358= IFCRELDEFINESBYPROPERTIES('25LXCo0d52keGD2gjLl7Yv',#5,$,$,(#1314),#1334);
#1359= IFCRELDEFINESBYTYPE('3oF66ceK51yhqzmFKe_hV2',#5,$,$,(#916,#900,#261,#178,#169,#161,#133),#134);
#1360= IFCRELDEFINESBYTYPE('2fu3RLr090uQzmw5NiIo6R',#5,$,$,(#326),#327);
#1361= IFCRELDEFINESBYTYPE('2Wd1DCWI555g_wkWbc7b9h',#5,$,$,(#1251,#1104,#1024,#996),#997);
#1362= IFCRELDEFINESBYTYPE('2KFbhEnpjDThmrCXmCogWw',#5,$,$,(#1223),#1224);
#1363= IFCRELDEFINESBYTYPE('1DE1MEJDn4RuTQSB_XeNDQ',#5,$,$,(#1314),#1315);
#1364= IFCRELASSOCIATESMATERIAL('1n6sqMmdL8ixf$tvNyxn$2',#5,$,$,(#178,#169,#161,#133),#152);
#1365= IFCRELASSOCIATESMATERIAL('3f73Uvnh56oQeYkYjAml0I',#5,$,$,(#261),#270);
#1366= IFCRELASSOCIATESMATERIAL('2jrcmMtDXEgPmZjx1zLs0V',#5,$,$,(#1314,#1251,#1223,#1104,#1024,#996,#326),#354);
#1367= IFCRELASSOCIATESMATERIAL('3Bkqrqza51sxlCjjeGsV9f',#5,$,$,(#916,#900),#909);
#1368= IFCPRESENTATIONLAYERASSIGNMENT('BoltArray',$,(#126,#154,#163,#171,#254,#895,#911),$);
#1369= IFCPRESENTATIONLAYERASSIGNMENT('PLATE-8',$,(#320,#991,#1019,#1099,#1246),$);
#1370= IFCPRESENTATIONLAYERASSIGNMENT('PLATE-22',$,(#1216),$);
#1371= IFCPRESENTATIONLAYERASSIGNMENT('B3-\S\?\S\Z200x100x6',$,(#1309),$);
ENDSEC;

END-ISO-10303-21;
