ISO-10303-21;
HEADER;
FILE_DESCRIPTION(('ViewDefinition[CoordinationView_V2.0, QuantityTakeOffAddOnView]', 'ExchangeRequirement[Structural, SurfaceGeometry]', 'Option [BaseQuantities:On]', 'Option [GridExport:On]', 'Option [Assemblies:Off]', 'Option [Bolts:On]', 'Option [Rebars:On]', 'Option [PourObjects:Off]', 'Option [Welds:Off]', 'Option [SurfaceTreatments:On]', 'Option [LocationBy:0]', 'Option [ViewColors:Off]', 'Option [SectionedSpine:Off]', 'Option [PropertySets:On]', 'Option [Export all:Off]'),'2;1');
FILE_NAME('5-2-A25_24.ifc','2026-03-10T08:04:14',('DESKTOP-NLV509P\\Ahmed'),('Structural Designer'),'IFC Parser version: 3.13.2','Tekla Structures 2023 Service Pack 8, IFC Export Version: 4.0.0.0 Jan 19 2024','');
FILE_SCHEMA(('IFC2X3'));
ENDSEC;

DATA;
#1= IFCPERSON('DESKTOP-NLV509P\\Ahmed','Undefined',$,$,$,$,$,$);
#2= IFCORGANIZATION($,'Trimble Solutions Corporation',$,$,$);
#3= IFCPERSONANDORGANIZATION(#1,#2,$);
#4= IFCAPPLICATION(#2,'2023 Service Pack 8','Tekla Structures','Multi material modeling');
#5= IFCOWNERHISTORY(#3,#4,$,.NOCHANGE.,$,$,$,1773119054);
#6= IFCCARTESIANPOINT((0.,0.,0.));
#7= IFCDIRECTION((1.,0.,0.));
#8= IFCDIRECTION((0.,1.,0.));
#9= IFCDIRECTION((0.,0.,1.));
#10= IFCAXIS2PLACEMENT3D(#6,#9,#7);
#11= IFCGEOMETRICREPRESENTATIONCONTEXT($,'Model',3,1.E-05,#10,$);
#12= IFCGEOMETRICREPRESENTATIONSUBCONTEXT('Body','Model',*,*,*,*,#11,$,.MODEL_VIEW.,$);
#13= IFCGEOMETRICREPRESENTATIONSUBCONTEXT('Axis','Model',*,*,*,*,#11,$,.GRAPH_VIEW.,$);
#14= IFCGEOMETRICREPRESENTATIONSUBCONTEXT('FootPrint','Model',*,*,*,*,#11,$,.MODEL_VIEW.,$);
#15= IFCSIUNIT(*,.LENGTHUNIT.,.MILLI.,.METRE.);
#16= IFCMEASUREWITHUNIT(IFCRATIOMEASURE(304.8),#15);
#17= IFCDIMENSIONALEXPONENTS(1,0,0,0,0,0,0);
#18= IFCCONVERSIONBASEDUNIT(#17,.LENGTHUNIT.,'FOOT',#16);
#19= IFCSIUNIT(*,.AREAUNIT.,$,.SQUARE_METRE.);
#20= IFCMEASUREWITHUNIT(IFCRATIOMEASURE(0.09290304),#19);
#21= IFCDIMENSIONALEXPONENTS(2,0,0,0,0,0,0);
#22= IFCCONVERSIONBASEDUNIT(#21,.AREAUNIT.,'SQUARE FOOT',#20);
#23= IFCSIUNIT(*,.VOLUMEUNIT.,$,.CUBIC_METRE.);
#24= IFCMEASUREWITHUNIT(IFCRATIOMEASURE(0.028316846592),#23);
#25= IFCDIMENSIONALEXPONENTS(3,0,0,0,0,0,0);
#26= IFCCONVERSIONBASEDUNIT(#25,.VOLUMEUNIT.,'CUBIC FOOT',#24);
#27= IFCSIUNIT(*,.MASSUNIT.,.KILO.,.GRAM.);
#28= IFCSIUNIT(*,.TIMEUNIT.,$,.SECOND.);
#29= IFCSIUNIT(*,.PLANEANGLEUNIT.,$,.RADIAN.);
#30= IFCMEASUREWITHUNIT(IFCRATIOMEASURE(0.0174532925199433),#29);
#31= IFCDIMENSIONALEXPONENTS(0,0,0,0,0,0,0);
#32= IFCCONVERSIONBASEDUNIT(#31,.PLANEANGLEUNIT.,'DEGREE',#30);
#33= IFCSIUNIT(*,.SOLIDANGLEUNIT.,$,.STERADIAN.);
#34= IFCSIUNIT(*,.THERMODYNAMICTEMPERATUREUNIT.,$,.DEGREE_CELSIUS.);
#35= IFCSIUNIT(*,.LUMINOUSINTENSITYUNIT.,$,.LUMEN.);
#36= IFCUNITASSIGNMENT((#15,#19,#23,#27,#28,#29,#33,#34,#35));
#37= IFCPROJECT('0bt6koVoz6GBVXGemD8iqN',#5,'Undefined',$,$,$,$,(#11),#36);
#38= IFCLOCALPLACEMENT($,#10);
#39= IFCSITE('1txt1n63nBq8tOUzlHtE0c',#5,'Undefined',$,$,#38,$,$,.ELEMENT.,$,$,$,$,$);
#40= IFCLOCALPLACEMENT(#38,#10);
#41= IFCBUILDING('0yL1WCssL2PuSqX03Ka6cy',#5,'Undefined',$,$,#40,$,$,.ELEMENT.,$,$,$);
#42= IFCLOCALPLACEMENT(#40,#10);
#43= IFCBUILDINGSTOREY('3gJPpYF7LCbf7I109fNVl5',#5,'Undefined',$,$,#42,$,$,.ELEMENT.,0.);
#44= IFCOWNERHISTORY(#3,#4,$,.NOCHANGE.,$,$,$,1770796800);
#45= IFCCOLOURRGB('Light Gray',0.615686274509804,0.615686274509804,0.611764705882353);
#46= IFCSURFACESTYLERENDERING(#45,0.,$,$,$,$,IFCNORMALISEDRATIOMEASURE(0.00390625),IFCSPECULAREXPONENT(10.),.NOTDEFINED.);
#47= IFCSURFACESTYLE('STEEL/S275',.POSITIVE.,(#46));
#48= IFCPRESENTATIONSTYLEASSIGNMENT((#47));
#49= IFCCARTESIANPOINT((25.9999843423248,-0.499999999872671,225.003295898279));
#50= IFCCARTESIANPOINT((26.0000000003711,-0.49999999992724,79.9999296520164));
#51= IFCCARTESIANPOINT((26.0000000003674,0.50000000007276,79.9999296520182));
#52= IFCCARTESIANPOINT((25.9999843423248,0.500000000130967,225.003295898279));
#53= IFCPOLYLOOP((#49,#50,#51,#52));
#54= IFCFACEOUTERBOUND(#53,.T.);
#55= IFCFACE((#54));
#56= IFCCARTESIANPOINT((26.4770565817744,-0.499999999930878,76.3764656950898));
#57= IFCCARTESIANPOINT((26.4770565817744,0.50000000007276,76.3764656950898));
#58= IFCPOLYLOOP((#56,#57,#51,#50));
#59= IFCFACEOUTERBOUND(#58,.T.);
#60= IFCFACE((#59));
#61= IFCCARTESIANPOINT((27.8756793356551,-0.49999999992724,72.9999396073254));
#62= IFCCARTESIANPOINT((27.8756793356551,0.50000000007276,72.9999396073254));
#63= IFCPOLYLOOP((#61,#62,#57,#56));
#64= IFCFACEOUTERBOUND(#63,.T.);
#65= IFCFACE((#64));
#66= IFCCARTESIANPOINT((30.1005544326617,-0.499999999923602,70.1004560616329));
#67= IFCCARTESIANPOINT((30.1005544326617,0.500000000076398,70.1004560616329));
#68= IFCPOLYLOOP((#66,#67,#62,#61));
#69= IFCFACEOUTERBOUND(#68,.T.);
#70= IFCFACE((#69));
#71= IFCCARTESIANPOINT((33.0000603117151,-0.499999999919964,67.8756100700266));
#72= IFCCARTESIANPOINT((33.0000603117114,0.500000000080036,67.8756100700266));
#73= IFCPOLYLOOP((#71,#72,#67,#66));
#74= IFCFACEOUTERBOUND(#73,.T.);
#75= IFCFACE((#74));
#76= IFCCARTESIANPOINT((36.3766004388199,-0.499999999912689,66.4770212101012));
#77= IFCCARTESIANPOINT((36.3766004388162,0.500000000087311,66.4770212101012));
#78= IFCPOLYLOOP((#76,#77,#72,#71));
#79= IFCFACEOUTERBOUND(#78,.T.);
#80= IFCFACE((#79));
#81= IFCCARTESIANPOINT((40.0000691843125,-0.499999999909051,66.0000010013864));
#82= IFCCARTESIANPOINT((40.0000691843088,0.500000000090949,66.0000010013864));
#83= IFCPOLYLOOP((#81,#82,#77,#76));
#84= IFCFACEOUTERBOUND(#83,.T.);
#85= IFCFACE((#84));
#86= IFCCARTESIANPOINT((43.6235331412463,-0.499999999901775,66.4770575827897));
#87= IFCCARTESIANPOINT((43.6235331412463,0.500000000098225,66.4770575827879));
#88= IFCPOLYLOOP((#86,#87,#82,#81));
#89= IFCFACEOUTERBOUND(#88,.T.);
#90= IFCFACE((#89));
#91= IFCCARTESIANPOINT((47.0000592290198,-0.499999999898137,67.875680336665));
#92= IFCCARTESIANPOINT((47.0000592290198,0.500000000101863,67.8756803366632));
#93= IFCPOLYLOOP((#91,#92,#87,#86));
#94= IFCFACEOUTERBOUND(#93,.T.);
#95= IFCFACE((#94));
#96= IFCCARTESIANPOINT((49.8995427747213,-0.499999999890861,70.1005554336662));
#97= IFCCARTESIANPOINT((49.8995427747213,0.500000000109139,70.1005554336662));
#98= IFCPOLYLOOP((#96,#97,#92,#91));
#99= IFCFACEOUTERBOUND(#98,.T.);
#100= IFCFACE((#99));
#101= IFCCARTESIANPOINT((52.1243887663331,-0.499999999887223,73.000061312714));
#102= IFCCARTESIANPOINT((52.1243887663331,0.500000000112777,73.000061312714));
#103= IFCPOLYLOOP((#101,#102,#97,#96));
#104= IFCFACEOUTERBOUND(#103,.T.);
#105= IFCFACE((#104));
#106= IFCCARTESIANPOINT((53.522977626264,-0.499999999887223,76.3766014398116));
#107= IFCCARTESIANPOINT((53.5229776262677,0.500000000116415,76.3766014398116));
#108= IFCPOLYLOOP((#106,#107,#102,#101));
#109= IFCFACEOUTERBOUND(#108,.T.);
#110= IFCFACE((#109));
#111= IFCCARTESIANPOINT((53.9999978349806,-0.499999999879947,80.0000701852932));
#112= IFCCARTESIANPOINT((53.9999978349806,0.500000000120053,80.0000701852932));
#113= IFCPOLYLOOP((#111,#112,#107,#106));
#114= IFCFACEOUTERBOUND(#113,.T.);
#115= IFCFACE((#114));
#116= IFCCARTESIANPOINT((53.9999983543166,-0.499999999825377,225.003371765471));
#117= IFCCARTESIANPOINT((53.9999983543203,0.500000000174623,225.003295898292));
#118= IFCPOLYLOOP((#116,#117,#112,#111));
#119= IFCFACEOUTERBOUND(#118,.T.);
#120= IFCFACE((#119));
#121= IFCCARTESIANPOINT((0.,-0.5,1.81898940354586E-12));
#122= IFCCARTESIANPOINT((-6.54836185276508E-11,-0.499999999916326,225.00329589827));
#123= IFCCARTESIANPOINT((-6.54836185276508E-11,0.500000000087311,225.00329589827));
#124= IFCCARTESIANPOINT((3.63797880709171E-12,0.5,1.81898940354586E-12));
#125= IFCPOLYLOOP((#121,#122,#123,#124));
#126= IFCFACEOUTERBOUND(#125,.T.);
#127= IFCFACE((#126));
#128= IFCCARTESIANPOINT((80.0000000001237,-0.499999999869033,3.63797880709171E-11));
#129= IFCCARTESIANPOINT((80.0000000001273,0.500000000130967,3.45607986673713E-11));
#130= IFCPOLYLOOP((#128,#121,#124,#129));
#131= IFCFACEOUTERBOUND(#130,.T.);
#132= IFCFACE((#131));
#133= IFCCARTESIANPOINT((80.0000000000691,-0.499999999785359,225.003295898305));
#134= IFCCARTESIANPOINT((80.0000000000691,0.500000000214641,225.003295898305));
#135= IFCPOLYLOOP((#133,#128,#129,#134));
#136= IFCFACEOUTERBOUND(#135,.T.);
#137= IFCFACE((#136));
#138= IFCPOLYLOOP((#106,#101,#96,#91,#86,#81,#76,#71,#66,#61,#56,#50,#49,#122,#121,#128,#133,#116,#111));
#139= IFCFACEOUTERBOUND(#138,.T.);
#140= IFCFACE((#139));
#141= IFCPOLYLOOP((#123,#122,#49,#52));
#142= IFCFACEOUTERBOUND(#141,.T.);
#143= IFCFACE((#142));
#144= IFCPOLYLOOP((#134,#129,#124,#123,#52,#51,#57,#62,#67,#72,#77,#82,#87,#92,#97,#102,#107,#112,#117));
#145= IFCFACEOUTERBOUND(#144,.T.);
#146= IFCFACE((#145));
#147= IFCPOLYLOOP((#133,#134,#117,#116));
#148= IFCFACEOUTERBOUND(#147,.T.);
#149= IFCFACE((#148));
#150= IFCCLOSEDSHELL((#55,#60,#65,#70,#75,#80,#85,#90,#95,#100,#105,#110,#115,#120,#127,#132,#137,#140,#143,#146,#149));
#151= IFCFACETEDBREP(#150);
#152= IFCSTYLEDITEM(#151,(#48),$);
#153= IFCSHAPEREPRESENTATION(#12,'Body','Brep',(#151));
#154= IFCPRODUCTDEFINITIONSHAPE($,$,(#153));
#155= IFCCARTESIANPOINT((12299.995817481,30008.0147290297,16884.4949459885));
#156= IFCDIRECTION((0.99999999719769,-7.48640016099672E-05,-4.99999987368938E-08));
#157= IFCDIRECTION((-7.48639999753398E-05,-0.999999996687896,3.1931000012151E-05));
#158= IFCAXIS2PLACEMENT3D(#155,#156,#157);
#159= IFCLOCALPLACEMENT(#42,#158);
#160= IFCPLATE('30uM$NE$X0UQUuu6lLOrLN',#44,'PLATE-1','PL1*80',$,#159,#154,'IDc0e16fd7-3bf8-4079-a7b8-e06bd5635557');
#161= IFCPLATETYPE('3iPzVwbjHEp89b4nJD5WFY',#5,'PL1*80',$,$,$,$,$,$,.NOTDEFINED.);
#162= IFCPROPERTYSINGLEVALUE('Bottom elevation',$,IFCLABEL(' +16.884'),$);
#163= IFCPROPERTYSINGLEVALUE('Top elevation',$,IFCLABEL(' +16.885'),$);
#164= IFCPROPERTYSINGLEVALUE('Initial GUID',$,$,$);
#165= IFCPROPERTYSINGLEVALUE('Preliminary mark',$,IFCLABEL('5-2-P41'),$);
#166= IFCPROPERTYSINGLEVALUE('Phase',$,IFCINTEGER(4),$);
#167= IFCPROPERTYSINGLEVALUE('Class',$,IFCLABEL('15'),$);
#168= IFCPROPERTYSET('1$AZUdtS13IBZFVXghJjw1',#5,'Tekla Common','Common Properties to Shared building elements',(#162,#163,#164,#165,#166,#167));
#169= IFCPROPERTYSINGLEVALUE('Weight',$,IFCMASSMEASURE(0.11),$);
#170= IFCPROPERTYSINGLEVALUE('Volume',$,IFCVOLUMEMEASURE(0.),$);
#171= IFCPROPERTYSINGLEVALUE('Gross footprint area',$,IFCAREAMEASURE(0.014),$);
#172= IFCPROPERTYSINGLEVALUE('Area per tons',$,IFCAREAMEASURE(263.333),$);
#173= IFCPROPERTYSINGLEVALUE('Net surface area',$,IFCAREAMEASURE(0.028),$);
#174= IFCPROPERTYSINGLEVALUE('Height',$,IFCLENGTHMEASURE(80.),$);
#175= IFCPROPERTYSINGLEVALUE('Width',$,IFCLENGTHMEASURE(1.),$);
#176= IFCPROPERTYSINGLEVALUE('Length',$,IFCLENGTHMEASURE(225.),$);
#177= IFCPROPERTYSET('0A5iDTLQT2RPW82BxUDhlN',#5,'Tekla Quantity','Quantity Properties to Shared building elements',(#169,#170,#171,#172,#173,#174,#175,#176));
#178= IFCPROPERTYSINGLEVALUE('LoadBearing',$,IFCBOOLEAN(.F.),$);
#179= IFCPROPERTYSINGLEVALUE('Reference',$,IFCIDENTIFIER('5-2-P41'),$);
#180= IFCPROPERTYSET('3g2GkunDv6_uKCIVwkgxBp',#5,'Pset_PlateCommon','Common Properties to plate elements',(#178,#179));
#181= IFCQUANTITYLENGTH('Width',$,$,80.0000000002886);
#182= IFCQUANTITYAREA('NetArea',$,$,0.0281874697423258);
#183= IFCQUANTITYAREA('GrossArea',$,$,0.018000269741288);
#184= IFCQUANTITYAREA('CrossSectionArea',$,$,1.E-06);
#185= IFCQUANTITYVOLUME('NetVolume',$,$,1.36357997043383E-05);
#186= IFCQUANTITYVOLUME('GrossVolume',$,$,1.80002636718758E-05);
#187= IFCELEMENTQUANTITY('1oAH9co1vDygnYRMjo69Yi',#5,'BaseQuantities',$,$,(#181,#182,#183,#184,#185,#186));
#188= IFCMATERIAL('STEEL/S275');
#189= IFCRELAGGREGATES('3F1IYEKyn4GgMpuiEpFGXO',#5,$,$,#37,(#39));
#190= IFCRELAGGREGATES('1M1cbNIFL4sv6FDO1QcHN2',#5,$,$,#39,(#41));
#191= IFCRELAGGREGATES('294V5P0DT408MOfUME6sC_',#5,$,$,#41,(#43));
#192= IFCRELCONTAINEDINSPATIALSTRUCTURE('3gl7t5rif6MxksB7F3afFk',#5,$,$,(#160),#43);
#193= IFCRELDEFINESBYPROPERTIES('1tRX7ZIA5Crf3OiQBhEjZG',#5,$,$,(#160),#168);
#194= IFCRELDEFINESBYPROPERTIES('0IEkkvXa99SReu2PpUF8rH',#5,$,$,(#160),#177);
#195= IFCRELDEFINESBYPROPERTIES('2j7dvv_Pb2ueXEV_wJn1ZR',#5,$,$,(#160),#180);
#196= IFCRELDEFINESBYPROPERTIES('0S$tn7_Uf2IwbRO8RmZfwq',#5,$,$,(#160),#187);
#197= IFCRELDEFINESBYTYPE('2J_BxpeNH9QBqlyGcCVO6L',#5,$,$,(#160),#161);
#198= IFCRELASSOCIATESMATERIAL('3bcsmnJ492_h7vZuydNiXO',#5,$,$,(#160),#188);
#199= IFCPRESENTATIONLAYERASSIGNMENT('PLATE-1',$,(#153),$);
ENDSEC;

END-ISO-10303-21;
