ISO-10303-21;
HEADER;
FILE_DESCRIPTION(('ViewDefinition[CoordinationView_V2.0, QuantityTakeOffAddOnView]', 'ExchangeRequirement[Structural, SurfaceGeometry]', 'Option [BaseQuantities:On]', 'Option [GridExport:On]', 'Option [Assemblies:Off]', 'Option [Bolts:On]', 'Option [Rebars:On]', 'Option [PourObjects:Off]', 'Option [Welds:Off]', 'Option [SurfaceTreatments:On]', 'Option [LocationBy:0]', 'Option [ViewColors:Off]', 'Option [SectionedSpine:Off]', 'Option [PropertySets:On]', 'Option [Export all:Off]'),'2;1');
FILE_NAME('5-2-A9.ifc','2026-03-10T09:14:57',('DESKTOP-NLV509P\\Ahmed'),('Structural Designer'),'IFC Parser version: 3.13.2','Tekla Structures 2023 Service Pack 8, IFC Export Version: 4.0.0.0 Jan 19 2024','');
FILE_SCHEMA(('IFC2X3'));
ENDSEC;

DATA;
#1= IFCPERSON('DESKTOP-NLV509P\\Ahmed','Undefined',$,$,$,$,$,$);
#2= IFCORGANIZATION($,'Trimble Solutions Corporation',$,$,$);
#3= IFCPERSONANDORGANIZATION(#1,#2,$);
#4= IFCAPPLICATION(#2,'2023 Service Pack 8','Tekla Structures','Multi material modeling');
#5= IFCOWNERHISTORY(#3,#4,$,.NOCHANGE.,$,$,$,1773123297);
#6= IFCCARTESIANPOINT((0.,0.,0.));
#7= IFCDIRECTION((1.,0.,0.));
#8= IFCDIRECTION((0.,1.,0.));
#9= IFCDIRECTION((0.,0.,1.));
#10= IFCAXIS2PLACEMENT3D(#6,#9,#7);
#11= IFCGEOMETRICREPRESENTATIONCONTEXT($,'Model',3,1.E-05,#10,$);
#12= IFCGEOMETRICREPRESENTATIONSUBCONTEXT('Body','Model',*,*,*,*,#11,$,.MODEL_VIEW.,$);
#13= IFCGEOMETRICREPRESENTATIONSUBCONTEXT('Axis','Model',*,*,*,*,#11,$,.GRAPH_VIEW.,$);
#14= IFCGEOMETRICREPRESENTATIONSUBCONTEXT('FootPrint','Model',*,*,*,*,#11,$,.MODEL_VIEW.,$);
#15= IFCSIUNIT(*,.LENGTHUNIT.,.MILLI.,.METRE.);
#16= IFCMEASUREWITHUNIT(IFCRATIOMEASURE(304.8),#15);
#17= IFCDIMENSIONALEXPONENTS(1,0,0,0,0,0,0);
#18= IFCCONVERSIONBASEDUNIT(#17,.LENGTHUNIT.,'FOOT',#16);
#19= IFCSIUNIT(*,.AREAUNIT.,$,.SQUARE_METRE.);
#20= IFCMEASUREWITHUNIT(IFCRATIOMEASURE(0.09290304),#19);
#21= IFCDIMENSIONALEXPONENTS(2,0,0,0,0,0,0);
#22= IFCCONVERSIONBASEDUNIT(#21,.AREAUNIT.,'SQUARE FOOT',#20);
#23= IFCSIUNIT(*,.VOLUMEUNIT.,$,.CUBIC_METRE.);
#24= IFCMEASUREWITHUNIT(IFCRATIOMEASURE(0.028316846592),#23);
#25= IFCDIMENSIONALEXPONENTS(3,0,0,0,0,0,0);
#26= IFCCONVERSIONBASEDUNIT(#25,.VOLUMEUNIT.,'CUBIC FOOT',#24);
#27= IFCSIUNIT(*,.MASSUNIT.,.KILO.,.GRAM.);
#28= IFCSIUNIT(*,.TIMEUNIT.,$,.SECOND.);
#29= IFCSIUNIT(*,.PLANEANGLEUNIT.,$,.RADIAN.);
#30= IFCMEASUREWITHUNIT(IFCRATIOMEASURE(0.0174532925199433),#29);
#31= IFCDIMENSIONALEXPONENTS(0,0,0,0,0,0,0);
#32= IFCCONVERSIONBASEDUNIT(#31,.PLANEANGLEUNIT.,'DEGREE',#30);
#33= IFCSIUNIT(*,.SOLIDANGLEUNIT.,$,.STERADIAN.);
#34= IFCSIUNIT(*,.THERMODYNAMICTEMPERATUREUNIT.,$,.DEGREE_CELSIUS.);
#35= IFCSIUNIT(*,.LUMINOUSINTENSITYUNIT.,$,.LUMEN.);
#36= IFCUNITASSIGNMENT((#15,#19,#23,#27,#28,#29,#33,#34,#35));
#37= IFCPROJECT('2ER7m6pOzBFgi1EyfVPnyv',#5,'Undefined',$,$,$,$,(#11),#36);
#38= IFCLOCALPLACEMENT($,#10);
#39= IFCSITE('2eNklKT2X9Xv$UoR6qf3Ea',#5,'Undefined',$,$,#38,$,$,.ELEMENT.,$,$,$,$,$);
#40= IFCLOCALPLACEMENT(#38,#10);
#41= IFCBUILDING('2Lm3_eaab29BjFDHqIwiQf',#5,'Undefined',$,$,#40,$,$,.ELEMENT.,$,$,$);
#42= IFCLOCALPLACEMENT(#40,#10);
#43= IFCBUILDINGSTOREY('3gJPpYF7LCbf7I109fNVl5',#5,'Undefined',$,$,#42,$,$,.ELEMENT.,0.);
#44= IFCOWNERHISTORY(#3,#4,$,.NOCHANGE.,$,$,$,1770796800);
#45= IFCCOLOURRGB('Light Green',0.356862745098039,0.592156862745098,0.137254901960784);
#46= IFCSURFACESTYLERENDERING(#45,0.,$,$,$,$,IFCNORMALISEDRATIOMEASURE(0.00390625),IFCSPECULAREXPONENT(10.),.NOTDEFINED.);
#47= IFCSURFACESTYLE('STEEL/S275',.POSITIVE.,(#46));
#48= IFCPRESENTATIONSTYLEASSIGNMENT((#47));
#49= IFCCARTESIANPOINT((25.9999843423248,-1.49999999986903,225.003295898283));
#50= IFCCARTESIANPOINT((26.0000000003711,-1.49999999992724,79.99992965202));
#51= IFCCARTESIANPOINT((26.0000000003674,1.50000000007276,79.9999296520182));
#52= IFCCARTESIANPOINT((25.9999843423248,1.50000000013097,225.003295898281));
#53= IFCPOLYLOOP((#49,#50,#51,#52));
#54= IFCFACEOUTERBOUND(#53,.T.);
#55= IFCFACE((#54));
#56= IFCCARTESIANPOINT((26.4770565817744,-1.49999999992724,76.3764656950916));
#57= IFCCARTESIANPOINT((26.4770565817744,1.50000000007276,76.3764656950916));
#58= IFCPOLYLOOP((#56,#57,#51,#50));
#59= IFCFACEOUTERBOUND(#58,.T.);
#60= IFCFACE((#59));
#61= IFCCARTESIANPOINT((27.8756793356588,-1.49999999992724,72.9999396073272));
#62= IFCCARTESIANPOINT((27.8756793356515,1.50000000007276,72.9999396073254));
#63= IFCPOLYLOOP((#61,#62,#57,#56));
#64= IFCFACEOUTERBOUND(#63,.T.);
#65= IFCFACE((#64));
#66= IFCCARTESIANPOINT((30.1005544326617,-1.49999999991996,70.1004560616366));
#67= IFCCARTESIANPOINT((30.1005544326581,1.5000000000764,70.1004560616348));
#68= IFCPOLYLOOP((#66,#67,#62,#61));
#69= IFCFACEOUTERBOUND(#68,.T.);
#70= IFCFACE((#69));
#71= IFCCARTESIANPOINT((33.0000603117151,-1.49999999991996,67.8756100700266));
#72= IFCCARTESIANPOINT((33.0000603117151,1.50000000008004,67.8756100700266));
#73= IFCPOLYLOOP((#71,#72,#67,#66));
#74= IFCFACEOUTERBOUND(#73,.T.);
#75= IFCFACE((#74));
#76= IFCCARTESIANPOINT((36.3766004388235,-1.49999999991269,66.477021210103));
#77= IFCCARTESIANPOINT((36.3766004388199,1.50000000008731,66.477021210103));
#78= IFCPOLYLOOP((#76,#77,#72,#71));
#79= IFCFACEOUTERBOUND(#78,.T.);
#80= IFCFACE((#79));
#81= IFCCARTESIANPOINT((40.0000691843125,-1.49999999990541,66.0000010013864));
#82= IFCCARTESIANPOINT((40.0000691843052,1.50000000009095,66.0000010013882));
#83= IFCPOLYLOOP((#81,#82,#77,#76));
#84= IFCFACEOUTERBOUND(#83,.T.);
#85= IFCFACE((#84));
#86= IFCCARTESIANPOINT((43.6235331412499,-1.49999999990177,66.4770575827897));
#87= IFCCARTESIANPOINT((43.6235331412463,1.50000000009823,66.4770575827915));
#88= IFCPOLYLOOP((#86,#87,#82,#81));
#89= IFCFACEOUTERBOUND(#88,.T.);
#90= IFCFACE((#89));
#91= IFCCARTESIANPOINT((47.0000592290235,-1.49999999989814,67.8756803366668));
#92= IFCCARTESIANPOINT((47.0000592290162,1.50000000010186,67.8756803366668));
#93= IFCPOLYLOOP((#91,#92,#87,#86));
#94= IFCFACEOUTERBOUND(#93,.T.);
#95= IFCFACE((#94));
#96= IFCCARTESIANPOINT((49.8995427747213,-1.49999999989086,70.100555433668));
#97= IFCCARTESIANPOINT((49.8995427747213,1.50000000010914,70.100555433668));
#98= IFCPOLYLOOP((#96,#97,#92,#91));
#99= IFCFACEOUTERBOUND(#98,.T.);
#100= IFCFACE((#99));
#101= IFCCARTESIANPOINT((52.1243887663331,-1.49999999988722,73.0000613127158));
#102= IFCCARTESIANPOINT((52.1243887663295,1.50000000011278,73.0000613127158));
#103= IFCPOLYLOOP((#101,#102,#97,#96));
#104= IFCFACEOUTERBOUND(#103,.T.);
#105= IFCFACE((#104));
#106= IFCCARTESIANPOINT((53.5229776262677,-1.49999999988358,76.3766014398116));
#107= IFCCARTESIANPOINT((53.522977626264,1.50000000011642,76.3766014398134));
#108= IFCPOLYLOOP((#106,#107,#102,#101));
#109= IFCFACEOUTERBOUND(#108,.T.);
#110= IFCFACE((#109));
#111= IFCCARTESIANPOINT((53.9999978349806,-1.49999999987995,80.000070185295));
#112= IFCCARTESIANPOINT((53.9999978349806,1.50000000012005,80.000070185295));
#113= IFCPOLYLOOP((#111,#112,#107,#106));
#114= IFCFACEOUTERBOUND(#113,.T.);
#115= IFCFACE((#114));
#116= IFCCARTESIANPOINT((53.9999983543239,-1.49999999982538,225.003371765473));
#117= IFCCARTESIANPOINT((53.999998354313,1.50000000017462,225.003295898296));
#118= IFCPOLYLOOP((#116,#117,#112,#111));
#119= IFCFACEOUTERBOUND(#118,.T.);
#120= IFCFACE((#119));
#121= IFCCARTESIANPOINT((0.,-1.5,1.81898940354586E-12));
#122= IFCCARTESIANPOINT((-6.54836185276508E-11,-1.49999999991633,225.003295898272));
#123= IFCCARTESIANPOINT((-6.54836185276508E-11,1.50000000008731,225.003295898272));
#124= IFCCARTESIANPOINT((0.,1.5,3.63797880709171E-12));
#125= IFCPOLYLOOP((#121,#122,#123,#124));
#126= IFCFACEOUTERBOUND(#125,.T.);
#127= IFCFACE((#126));
#128= IFCCARTESIANPOINT((80.0000000001237,-1.49999999986903,3.63797880709171E-11));
#129= IFCCARTESIANPOINT((80.0000000001237,1.50000000013097,3.8198777474463E-11));
#130= IFCPOLYLOOP((#128,#121,#124,#129));
#131= IFCFACEOUTERBOUND(#130,.T.);
#132= IFCFACE((#131));
#133= IFCCARTESIANPOINT((80.0000000000655,-1.49999999978172,225.003295898305));
#134= IFCCARTESIANPOINT((80.0000000000618,1.50000000021464,225.003295898307));
#135= IFCPOLYLOOP((#133,#128,#129,#134));
#136= IFCFACEOUTERBOUND(#135,.T.);
#137= IFCFACE((#136));
#138= IFCPOLYLOOP((#106,#101,#96,#91,#86,#81,#76,#71,#66,#61,#56,#50,#49,#122,#121,#128,#133,#116,#111));
#139= IFCFACEOUTERBOUND(#138,.T.);
#140= IFCFACE((#139));
#141= IFCPOLYLOOP((#123,#122,#49,#52));
#142= IFCFACEOUTERBOUND(#141,.T.);
#143= IFCFACE((#142));
#144= IFCPOLYLOOP((#134,#129,#124,#123,#52,#51,#57,#62,#67,#72,#77,#82,#87,#92,#97,#102,#107,#112,#117));
#145= IFCFACEOUTERBOUND(#144,.T.);
#146= IFCFACE((#145));
#147= IFCPOLYLOOP((#133,#134,#117,#116));
#148= IFCFACEOUTERBOUND(#147,.T.);
#149= IFCFACE((#148));
#150= IFCCLOSEDSHELL((#55,#60,#65,#70,#75,#80,#85,#90,#95,#100,#105,#110,#115,#120,#127,#132,#137,#140,#143,#146,#149));
#151= IFCFACETEDBREP(#150);
#152= IFCSTYLEDITEM(#151,(#48),$);
#153= IFCSHAPEREPRESENTATION(#12,'Body','Brep',(#151));
#154= IFCPRODUCTDEFINITIONSHAPE($,$,(#153));
#155= IFCCARTESIANPOINT((12299.9958173231,30008.0146332367,16881.49494599));
#156= IFCDIRECTION((0.99999999719769,-7.48640016099672E-05,-4.99999987368938E-08));
#157= IFCDIRECTION((-7.48639999753398E-05,-0.999999996687896,3.1931000012151E-05));
#158= IFCAXIS2PLACEMENT3D(#155,#156,#157);
#159= IFCLOCALPLACEMENT(#42,#158);
#160= IFCPLATE('3v8VUS0r5648QDpeaeE7aY',#44,'PLATE-3','PL3*80',$,#159,#154,'IDf921f79c-0351-4610-868d-ce8928387922');
#161= IFCPLATETYPE('2OD2a7qE52lB_VKE2FF2Q2',#5,'PL3*80',$,$,$,$,$,$,.NOTDEFINED.);
#162= IFCPROPERTYSINGLEVALUE('Bottom elevation',$,IFCLABEL(' +16.880'),$);
#163= IFCPROPERTYSINGLEVALUE('Top elevation',$,IFCLABEL(' +16.883'),$);
#164= IFCPROPERTYSINGLEVALUE('Initial GUID',$,$,$);
#165= IFCPROPERTYSINGLEVALUE('Preliminary mark',$,IFCLABEL('5-2-P13'),$);
#166= IFCPROPERTYSINGLEVALUE('Phase',$,IFCINTEGER(4),$);
#167= IFCPROPERTYSINGLEVALUE('Class',$,IFCLABEL('17'),$);
#168= IFCPROPERTYSET('1GqpWUP1v1Yg7V1lcI7ZhT',#5,'Tekla Common','Common Properties to Shared building elements',(#162,#163,#164,#165,#166,#167));
#169= IFCPROPERTYSINGLEVALUE('Weight',$,IFCMASSMEASURE(0.32),$);
#170= IFCPROPERTYSINGLEVALUE('Volume',$,IFCVOLUMEMEASURE(0.),$);
#171= IFCPROPERTYSINGLEVALUE('Gross footprint area',$,IFCAREAMEASURE(0.014),$);
#172= IFCPROPERTYSINGLEVALUE('Area per tons',$,IFCAREAMEASURE(93.482),$);
#173= IFCPROPERTYSINGLEVALUE('Net surface area',$,IFCAREAMEASURE(0.03),$);
#174= IFCPROPERTYSINGLEVALUE('Height',$,IFCLENGTHMEASURE(80.),$);
#175= IFCPROPERTYSINGLEVALUE('Width',$,IFCLENGTHMEASURE(3.),$);
#176= IFCPROPERTYSINGLEVALUE('Length',$,IFCLENGTHMEASURE(225.),$);
#177= IFCPROPERTYSET('2bKh5rCGD3sQAXbyzzYpHZ',#5,'Tekla Quantity','Quantity Properties to Shared building elements',(#169,#170,#171,#172,#173,#174,#175,#176));
#178= IFCPROPERTYSINGLEVALUE('LoadBearing',$,IFCBOOLEAN(.F.),$);
#179= IFCPROPERTYSINGLEVALUE('Reference',$,IFCIDENTIFIER('5-2-P13'),$);
#180= IFCPROPERTYSET('1EauvAVbb8dOm_QUDrbEDe',#5,'Pset_PlateCommon','Common Properties to plate elements',(#178,#179));
#181= IFCQUANTITYLENGTH('Width',$,$,80.0000000002889);
#182= IFCQUANTITYAREA('NetArea',$,$,0.0300192097520589);
#183= IFCQUANTITYAREA('GrossArea',$,$,0.0180002697412881);
#184= IFCQUANTITYAREA('CrossSectionArea',$,$,9.E-06);
#185= IFCQUANTITYVOLUME('NetVolume',$,$,4.09073991130148E-05);
#186= IFCQUANTITYVOLUME('GrossVolume',$,$,5.40007910156274E-05);
#187= IFCELEMENTQUANTITY('37MRFIDC5FQOQVWHGczw$f',#5,'BaseQuantities',$,$,(#181,#182,#183,#184,#185,#186));
#188= IFCMATERIAL('STEEL/S275');
#189= IFCRELAGGREGATES('3uga3ILt10DgKuKrMlDNOs',#5,$,$,#37,(#39));
#190= IFCRELAGGREGATES('08aEPO5Zr3GBCex7dXpedy',#5,$,$,#39,(#41));
#191= IFCRELAGGREGATES('1ygilVSyXBp9sCP$lfcTe9',#5,$,$,#41,(#43));
#192= IFCRELCONTAINEDINSPATIALSTRUCTURE('3utP3uAzH1nxQZtbcLOV0r',#5,$,$,(#160),#43);
#193= IFCRELDEFINESBYPROPERTIES('0T0$Ll9Qf6GB_L2r7ZH$ZF',#5,$,$,(#160),#168);
#194= IFCRELDEFINESBYPROPERTIES('0Os$BYOPT0Ch5ZKBOYlvQP',#5,$,$,(#160),#177);
#195= IFCRELDEFINESBYPROPERTIES('1Yk713lrjBKRxKQbPANddK',#5,$,$,(#160),#180);
#196= IFCRELDEFINESBYPROPERTIES('1bRQfBviT9C8M5oxTvoi_I',#5,$,$,(#160),#187);
#197= IFCRELDEFINESBYTYPE('1hepuYUNz2qQRNR_3C8AbC',#5,$,$,(#160),#161);
#198= IFCRELASSOCIATESMATERIAL('0iWe8w$ZjC3A3hSaJlcHPH',#5,$,$,(#160),#188);
#199= IFCPRESENTATIONLAYERASSIGNMENT('PLATE-3',$,(#153),$);
ENDSEC;

END-ISO-10303-21;
