ISO-10303-21;
HEADER;
FILE_DESCRIPTION(('ViewDefinition[CoordinationView_V2.0, QuantityTakeOffAddOnView]', 'ExchangeRequirement[Structural, SurfaceGeometry]', 'Option [BaseQuantities:On]', 'Option [GridExport:On]', 'Option [Assemblies:Off]', 'Option [Bolts:On]', 'Option [Rebars:On]', 'Option [PourObjects:Off]', 'Option [Welds:Off]', 'Option [SurfaceTreatments:On]', 'Option [LocationBy:0]', 'Option [ViewColors:Off]', 'Option [SectionedSpine:Off]', 'Option [PropertySets:On]', 'Option [Export all:Off]'),'2;1');
FILE_NAME('5-2-A20.ifc','2026-03-10T09:14:59',('DESKTOP-NLV509P\\Ahmed'),('Structural Designer'),'IFC Parser version: 3.13.2','Tekla Structures 2023 Service Pack 8, IFC Export Version: 4.0.0.0 Jan 19 2024','');
FILE_SCHEMA(('IFC2X3'));
ENDSEC;

DATA;
#1= IFCPERSON('DESKTOP-NLV509P\\Ahmed','Undefined',$,$,$,$,$,$);
#2= IFCORGANIZATION($,'Trimble Solutions Corporation',$,$,$);
#3= IFCPERSONANDORGANIZATION(#1,#2,$);
#4= IFCAPPLICATION(#2,'2023 Service Pack 8','Tekla Structures','Multi material modeling');
#5= IFCOWNERHISTORY(#3,#4,$,.NOCHANGE.,$,$,$,1773123299);
#6= IFCCARTESIANPOINT((0.,0.,0.));
#7= IFCDIRECTION((1.,0.,0.));
#8= IFCDIRECTION((0.,1.,0.));
#9= IFCDIRECTION((0.,0.,1.));
#10= IFCAXIS2PLACEMENT3D(#6,#9,#7);
#11= IFCGEOMETRICREPRESENTATIONCONTEXT($,'Model',3,1.E-05,#10,$);
#12= IFCGEOMETRICREPRESENTATIONSUBCONTEXT('Body','Model',*,*,*,*,#11,$,.MODEL_VIEW.,$);
#13= IFCGEOMETRICREPRESENTATIONSUBCONTEXT('Axis','Model',*,*,*,*,#11,$,.GRAPH_VIEW.,$);
#14= IFCGEOMETRICREPRESENTATIONSUBCONTEXT('FootPrint','Model',*,*,*,*,#11,$,.MODEL_VIEW.,$);
#15= IFCSIUNIT(*,.LENGTHUNIT.,.MILLI.,.METRE.);
#16= IFCMEASUREWITHUNIT(IFCRATIOMEASURE(304.8),#15);
#17= IFCDIMENSIONALEXPONENTS(1,0,0,0,0,0,0);
#18= IFCCONVERSIONBASEDUNIT(#17,.LENGTHUNIT.,'FOOT',#16);
#19= IFCSIUNIT(*,.AREAUNIT.,$,.SQUARE_METRE.);
#20= IFCMEASUREWITHUNIT(IFCRATIOMEASURE(0.09290304),#19);
#21= IFCDIMENSIONALEXPONENTS(2,0,0,0,0,0,0);
#22= IFCCONVERSIONBASEDUNIT(#21,.AREAUNIT.,'SQUARE FOOT',#20);
#23= IFCSIUNIT(*,.VOLUMEUNIT.,$,.CUBIC_METRE.);
#24= IFCMEASUREWITHUNIT(IFCRATIOMEASURE(0.028316846592),#23);
#25= IFCDIMENSIONALEXPONENTS(3,0,0,0,0,0,0);
#26= IFCCONVERSIONBASEDUNIT(#25,.VOLUMEUNIT.,'CUBIC FOOT',#24);
#27= IFCSIUNIT(*,.MASSUNIT.,.KILO.,.GRAM.);
#28= IFCSIUNIT(*,.TIMEUNIT.,$,.SECOND.);
#29= IFCSIUNIT(*,.PLANEANGLEUNIT.,$,.RADIAN.);
#30= IFCMEASUREWITHUNIT(IFCRATIOMEASURE(0.0174532925199433),#29);
#31= IFCDIMENSIONALEXPONENTS(0,0,0,0,0,0,0);
#32= IFCCONVERSIONBASEDUNIT(#31,.PLANEANGLEUNIT.,'DEGREE',#30);
#33= IFCSIUNIT(*,.SOLIDANGLEUNIT.,$,.STERADIAN.);
#34= IFCSIUNIT(*,.THERMODYNAMICTEMPERATUREUNIT.,$,.DEGREE_CELSIUS.);
#35= IFCSIUNIT(*,.LUMINOUSINTENSITYUNIT.,$,.LUMEN.);
#36= IFCUNITASSIGNMENT((#15,#19,#23,#27,#28,#29,#33,#34,#35));
#37= IFCPROJECT('1ebd8hp3PFCw3gGCn8gYNR',#5,'Undefined',$,$,$,$,(#11),#36);
#38= IFCLOCALPLACEMENT($,#10);
#39= IFCSITE('00AfdNBuL7ggYDHNQxeyWG',#5,'Undefined',$,$,#38,$,$,.ELEMENT.,$,$,$,$,$);
#40= IFCLOCALPLACEMENT(#38,#10);
#41= IFCBUILDING('2B6Fzhmz13YOdpNvbXJ2qj',#5,'Undefined',$,$,#40,$,$,.ELEMENT.,$,$,$);
#42= IFCLOCALPLACEMENT(#40,#10);
#43= IFCBUILDINGSTOREY('3gJPpYF7LCbf7I109fNVl5',#5,'Undefined',$,$,#42,$,$,.ELEMENT.,0.);
#44= IFCOWNERHISTORY(#3,#4,$,.NOCHANGE.,$,$,$,1770876000);
#45= IFCCOLOURRGB($,0.698039215686274,0.4,0.);
#46= IFCSURFACESTYLERENDERING(#45,0.,$,$,$,$,IFCNORMALISEDRATIOMEASURE(0.00390625),IFCSPECULAREXPONENT(10.),.NOTDEFINED.);
#47= IFCSURFACESTYLE('TS10.9',.POSITIVE.,(#46));
#48= IFCPRESENTATIONSTYLEASSIGNMENT((#47));
#49= IFCCARTESIANPOINT((13.,0.178546170417803,0.));
#50= IFCCARTESIANPOINT((11.2583302491975,0.178546170417803,6.50000000000039));
#51= IFCCARTESIANPOINT((6.49999999999922,0.178546170417803,11.2583302491982));
#52= IFCCARTESIANPOINT((-1.34723677608042E-12,0.178546170417803,13.));
#53= IFCCARTESIANPOINT((-6.50000000000155,0.178546170417803,11.2583302491968));
#54= IFCCARTESIANPOINT((-11.2583302491988,0.178546170417803,6.49999999999806));
#55= IFCCARTESIANPOINT((-13.,0.178546170417803,-2.69447355216084E-12));
#56= IFCCARTESIANPOINT((-11.2583302491961,0.178546170417803,-6.50000000000272));
#57= IFCCARTESIANPOINT((-6.4999999999969,0.178546170417803,-11.2583302491995));
#58= IFCCARTESIANPOINT((4.02727742892113E-12,0.178546170417803,-13.));
#59= IFCCARTESIANPOINT((6.50000000000388,0.178546170417803,-11.2583302491955));
#60= IFCCARTESIANPOINT((11.2583302492002,0.178546170417803,-6.49999999999573));
#61= IFCCARTESIANPOINT((13.,250.269590650645,0.));
#62= IFCCARTESIANPOINT((11.2583302491975,250.269590650645,6.50000000000039));
#63= IFCCARTESIANPOINT((6.49999999999922,250.269590650645,11.2583302491982));
#64= IFCCARTESIANPOINT((-1.34723677608042E-12,250.269590650645,13.));
#65= IFCCARTESIANPOINT((-6.50000000000155,250.269590650645,11.2583302491968));
#66= IFCCARTESIANPOINT((-11.2583302491988,250.269590650645,6.49999999999806));
#67= IFCCARTESIANPOINT((-13.,250.269590650645,-2.69447355216084E-12));
#68= IFCCARTESIANPOINT((-11.2583302491961,250.269590650645,-6.50000000000272));
#69= IFCCARTESIANPOINT((-6.4999999999969,250.269590650645,-11.2583302491995));
#70= IFCCARTESIANPOINT((4.02727742892113E-12,250.269590650645,-13.));
#71= IFCCARTESIANPOINT((6.50000000000388,250.269590650645,-11.2583302491955));
#72= IFCCARTESIANPOINT((11.2583302492002,250.269590650645,-6.49999999999573));
#73= IFCPOLYLOOP((#49,#50,#51,#52,#53,#54,#55,#56,#57,#58,#59,#60));
#74= IFCFACEOUTERBOUND(#73,.T.);
#75= IFCFACE((#74));
#76= IFCPOLYLOOP((#72,#71,#70,#69,#68,#67,#66,#65,#64,#63,#62,#61));
#77= IFCFACEOUTERBOUND(#76,.T.);
#78= IFCFACE((#77));
#79= IFCPOLYLOOP((#49,#61,#62,#50));
#80= IFCFACEOUTERBOUND(#79,.T.);
#81= IFCFACE((#80));
#82= IFCPOLYLOOP((#50,#62,#63,#51));
#83= IFCFACEOUTERBOUND(#82,.T.);
#84= IFCFACE((#83));
#85= IFCPOLYLOOP((#51,#63,#64,#52));
#86= IFCFACEOUTERBOUND(#85,.T.);
#87= IFCFACE((#86));
#88= IFCPOLYLOOP((#52,#64,#65,#53));
#89= IFCFACEOUTERBOUND(#88,.T.);
#90= IFCFACE((#89));
#91= IFCPOLYLOOP((#53,#65,#66,#54));
#92= IFCFACEOUTERBOUND(#91,.T.);
#93= IFCFACE((#92));
#94= IFCPOLYLOOP((#54,#66,#67,#55));
#95= IFCFACEOUTERBOUND(#94,.T.);
#96= IFCFACE((#95));
#97= IFCPOLYLOOP((#55,#67,#68,#56));
#98= IFCFACEOUTERBOUND(#97,.T.);
#99= IFCFACE((#98));
#100= IFCPOLYLOOP((#56,#68,#69,#57));
#101= IFCFACEOUTERBOUND(#100,.T.);
#102= IFCFACE((#101));
#103= IFCPOLYLOOP((#57,#69,#70,#58));
#104= IFCFACEOUTERBOUND(#103,.T.);
#105= IFCFACE((#104));
#106= IFCPOLYLOOP((#58,#70,#71,#59));
#107= IFCFACEOUTERBOUND(#106,.T.);
#108= IFCFACE((#107));
#109= IFCPOLYLOOP((#59,#71,#72,#60));
#110= IFCFACEOUTERBOUND(#109,.T.);
#111= IFCFACE((#110));
#112= IFCPOLYLOOP((#60,#72,#61,#49));
#113= IFCFACEOUTERBOUND(#112,.T.);
#114= IFCFACE((#113));
#115= IFCCLOSEDSHELL((#75,#78,#81,#84,#87,#90,#93,#96,#99,#102,#105,#108,#111,#114));
#116= IFCCOLOURRGB($,0.,0.,0.);
#117= IFCSURFACESTYLERENDERING(#116,0.,$,$,$,$,IFCNORMALISEDRATIOMEASURE(0.00390625),IFCSPECULAREXPONENT(10.),.NOTDEFINED.);
#118= IFCSURFACESTYLE($,.POSITIVE.,(#117));
#119= IFCPRESENTATIONSTYLEASSIGNMENT((#118));
#120= IFCFACETEDBREP(#115);
#121= IFCSTYLEDITEM(#120,(#119),$);
#122= IFCCARTESIANTRANSFORMATIONOPERATOR3D($,$,#6,$,$);
#123= IFCSHAPEREPRESENTATION(#12,'Body','Brep',(#120));
#124= IFCREPRESENTATIONMAP(#10,#123);
#125= IFCMAPPEDITEM(#124,#122);
#126= IFCSHAPEREPRESENTATION(#12,'Body','MappedRepresentation',(#125));
#127= IFCPRODUCTDEFINITIONSHAPE($,$,(#126));
#128= IFCCARTESIANPOINT((1214.63709222437,-3051.96416657252,16880.1780883835));
#129= IFCDIRECTION((-0.999999815375236,-0.000607659026969031,-7.27595761418343E-15));
#130= IFCDIRECTION((-0.000607659000217359,0.999999771350897,0.000296730000207892));
#131= IFCAXIS2PLACEMENT3D(#128,#129,#130);
#132= IFCLOCALPLACEMENT(#42,#131);
#133= IFCMECHANICALFASTENER('3WeKOGELj1KAWWNA2nXoAL',#44,'Bolt assembly',$,$,#132,#127,'IDe0a14610-395b-4150-a820-5ca0b1872295',24.,1249.99108886719);
#134= IFCMECHANICALFASTENERTYPE('0CDb3H6eL2wBGqgn5q1deG',#5,'Bolt assembly',$,$,$,$,$,$);
#135= IFCPROPERTYSINGLEVALUE('Washer count',$,IFCINTEGER(0),$);
#136= IFCPROPERTYSINGLEVALUE('Washer diameter',$,IFCLENGTHMEASURE(24.),$);
#137= IFCPROPERTYSINGLEVALUE('Washer type',$,IFCLABEL(''),$);
#138= IFCPROPERTYSINGLEVALUE('Washer name',$,IFCLABEL(''),$);
#139= IFCPROPERTYSINGLEVALUE('Nut count',$,IFCINTEGER(0),$);
#140= IFCPROPERTYSINGLEVALUE('Nut type',$,IFCLABEL(''),$);
#141= IFCPROPERTYSINGLEVALUE('Nut name',$,IFCLABEL(''),$);
#142= IFCPROPERTYSINGLEVALUE('Slotted hole y',$,IFCLENGTHMEASURE(44.),$);
#143= IFCPROPERTYSINGLEVALUE('Slotted hole x',$,IFCLENGTHMEASURE(0.),$);
#144= IFCPROPERTYSINGLEVALUE('Bolt hole diameter',$,IFCLENGTHMEASURE(26.),$);
#145= IFCPROPERTYSINGLEVALUE('Location',$,IFCLABEL('Site'),$);
#146= IFCPROPERTYSINGLEVALUE('Bolt count',$,IFCINTEGER(1),$);
#147= IFCPROPERTYSINGLEVALUE('Bolt size',$,IFCLENGTHMEASURE(26.),$);
#148= IFCPROPERTYSINGLEVALUE('Bolt length',$,IFCLENGTHMEASURE(1250.),$);
#149= IFCPROPERTYSINGLEVALUE('Bolt standard',$,IFCLABEL('TS10.9'),$);
#150= IFCPROPERTYSINGLEVALUE('Bolt Name',$,IFCLABEL(''),$);
#151= IFCPROPERTYSET('0ox3s1am99Q9$pc1lEQ8Ti',#5,'Tekla Bolt','Bolt Properties',(#135,#136,#137,#138,#139,#140,#141,#142,#143,#144,#145,#146,#147,#148,#149,#150));
#152= IFCMATERIAL('TS10.9');
#153= IFCCARTESIANPOINT((13.,0.128102068858027,0.));
#154= IFCCARTESIANPOINT((11.2583302491975,0.128102068858027,6.50000000000039));
#155= IFCCARTESIANPOINT((6.49999999999922,0.128102068858027,11.2583302491982));
#156= IFCCARTESIANPOINT((-1.34723677608042E-12,0.128102068858027,13.));
#157= IFCCARTESIANPOINT((-6.50000000000155,0.128102068858027,11.2583302491968));
#158= IFCCARTESIANPOINT((-11.2583302491988,0.128102068858027,6.49999999999806));
#159= IFCCARTESIANPOINT((-13.,0.128102068858027,-2.69447355216084E-12));
#160= IFCCARTESIANPOINT((-11.2583302491961,0.128102068858027,-6.50000000000272));
#161= IFCCARTESIANPOINT((-6.4999999999969,0.128102068858027,-11.2583302491995));
#162= IFCCARTESIANPOINT((4.02727742892113E-12,0.128102068858027,-13.));
#163= IFCCARTESIANPOINT((6.50000000000388,0.128102068858027,-11.2583302491955));
#164= IFCCARTESIANPOINT((11.2583302492002,0.128102068858027,-6.49999999999573));
#165= IFCCARTESIANPOINT((13.,250.219037600885,0.));
#166= IFCCARTESIANPOINT((11.2583302491975,250.219037600885,6.50000000000039));
#167= IFCCARTESIANPOINT((6.49999999999922,250.219037600885,11.2583302491982));
#168= IFCCARTESIANPOINT((-1.34723677608042E-12,250.219037600885,13.));
#169= IFCCARTESIANPOINT((-6.50000000000155,250.219037600885,11.2583302491968));
#170= IFCCARTESIANPOINT((-11.2583302491988,250.219037600885,6.49999999999806));
#171= IFCCARTESIANPOINT((-13.,250.219037600885,-2.69447355216084E-12));
#172= IFCCARTESIANPOINT((-11.2583302491961,250.219037600885,-6.50000000000272));
#173= IFCCARTESIANPOINT((-6.4999999999969,250.219037600885,-11.2583302491995));
#174= IFCCARTESIANPOINT((4.02727742892113E-12,250.219037600885,-13.));
#175= IFCCARTESIANPOINT((6.50000000000388,250.219037600885,-11.2583302491955));
#176= IFCCARTESIANPOINT((11.2583302492002,250.219037600885,-6.49999999999573));
#177= IFCPOLYLOOP((#153,#154,#155,#156,#157,#158,#159,#160,#161,#162,#163,#164));
#178= IFCFACEOUTERBOUND(#177,.T.);
#179= IFCFACE((#178));
#180= IFCPOLYLOOP((#176,#175,#174,#173,#172,#171,#170,#169,#168,#167,#166,#165));
#181= IFCFACEOUTERBOUND(#180,.T.);
#182= IFCFACE((#181));
#183= IFCPOLYLOOP((#153,#165,#166,#154));
#184= IFCFACEOUTERBOUND(#183,.T.);
#185= IFCFACE((#184));
#186= IFCPOLYLOOP((#154,#166,#167,#155));
#187= IFCFACEOUTERBOUND(#186,.T.);
#188= IFCFACE((#187));
#189= IFCPOLYLOOP((#155,#167,#168,#156));
#190= IFCFACEOUTERBOUND(#189,.T.);
#191= IFCFACE((#190));
#192= IFCPOLYLOOP((#156,#168,#169,#157));
#193= IFCFACEOUTERBOUND(#192,.T.);
#194= IFCFACE((#193));
#195= IFCPOLYLOOP((#157,#169,#170,#158));
#196= IFCFACEOUTERBOUND(#195,.T.);
#197= IFCFACE((#196));
#198= IFCPOLYLOOP((#158,#170,#171,#159));
#199= IFCFACEOUTERBOUND(#198,.T.);
#200= IFCFACE((#199));
#201= IFCPOLYLOOP((#159,#171,#172,#160));
#202= IFCFACEOUTERBOUND(#201,.T.);
#203= IFCFACE((#202));
#204= IFCPOLYLOOP((#160,#172,#173,#161));
#205= IFCFACEOUTERBOUND(#204,.T.);
#206= IFCFACE((#205));
#207= IFCPOLYLOOP((#161,#173,#174,#162));
#208= IFCFACEOUTERBOUND(#207,.T.);
#209= IFCFACE((#208));
#210= IFCPOLYLOOP((#162,#174,#175,#163));
#211= IFCFACEOUTERBOUND(#210,.T.);
#212= IFCFACE((#211));
#213= IFCPOLYLOOP((#163,#175,#176,#164));
#214= IFCFACEOUTERBOUND(#213,.T.);
#215= IFCFACE((#214));
#216= IFCPOLYLOOP((#164,#176,#165,#153));
#217= IFCFACEOUTERBOUND(#216,.T.);
#218= IFCFACE((#217));
#219= IFCCLOSEDSHELL((#179,#182,#185,#188,#191,#194,#197,#200,#203,#206,#209,#212,#215,#218));
#220= IFCFACETEDBREP(#219);
#221= IFCSTYLEDITEM(#220,(#119),$);
#222= IFCSHAPEREPRESENTATION(#12,'Body','Brep',(#220));
#223= IFCREPRESENTATIONMAP(#10,#222);
#224= IFCMAPPEDITEM(#223,#122);
#225= IFCSHAPEREPRESENTATION(#12,'Body','MappedRepresentation',(#224));
#226= IFCPRODUCTDEFINITIONSHAPE($,$,(#225));
#227= IFCCARTESIANPOINT((1214.74039425405,-3221.96412770208,16880.1276442839));
#228= IFCAXIS2PLACEMENT3D(#227,#129,#130);
#229= IFCLOCALPLACEMENT(#42,#228);
#230= IFCMECHANICALFASTENER('0mIqdq3TXDngM$_zp4qdFx',#44,'Bolt assembly',$,$,#229,#226,'ID304b49f4-0dd8-4dc6-a5bf-fbdcc4d273fb',24.,1249.99096679688);
#231= IFCCARTESIANPOINT((13.,250.271359801598,0.));
#232= IFCCARTESIANPOINT((11.2583302491975,250.271359801598,6.50000000000039));
#233= IFCCARTESIANPOINT((6.49999999999922,250.271359801598,11.2583302491982));
#234= IFCCARTESIANPOINT((-1.34723677608042E-12,250.271359801598,13.));
#235= IFCCARTESIANPOINT((-6.50000000000155,250.271359801598,11.2583302491968));
#236= IFCCARTESIANPOINT((-11.2583302491988,250.271359801598,6.49999999999806));
#237= IFCCARTESIANPOINT((-13.,250.271359801598,-2.69447355216084E-12));
#238= IFCCARTESIANPOINT((-11.2583302491961,250.271359801598,-6.50000000000272));
#239= IFCCARTESIANPOINT((-6.4999999999969,250.271359801598,-11.2583302491995));
#240= IFCCARTESIANPOINT((4.02727742892113E-12,250.271359801598,-13.));
#241= IFCCARTESIANPOINT((6.50000000000388,250.271359801598,-11.2583302491955));
#242= IFCCARTESIANPOINT((11.2583302492002,250.271359801598,-6.49999999999573));
#243= IFCPOLYLOOP((#242,#241,#240,#239,#238,#237,#236,#235,#234,#233,#232,#231));
#244= IFCFACEOUTERBOUND(#243,.T.);
#245= IFCFACE((#244));
#246= IFCPOLYLOOP((#49,#231,#232,#50));
#247= IFCFACEOUTERBOUND(#246,.T.);
#248= IFCFACE((#247));
#249= IFCPOLYLOOP((#50,#232,#233,#51));
#250= IFCFACEOUTERBOUND(#249,.T.);
#251= IFCFACE((#250));
#252= IFCPOLYLOOP((#51,#233,#234,#52));
#253= IFCFACEOUTERBOUND(#252,.T.);
#254= IFCFACE((#253));
#255= IFCPOLYLOOP((#52,#234,#235,#53));
#256= IFCFACEOUTERBOUND(#255,.T.);
#257= IFCFACE((#256));
#258= IFCPOLYLOOP((#53,#235,#236,#54));
#259= IFCFACEOUTERBOUND(#258,.T.);
#260= IFCFACE((#259));
#261= IFCPOLYLOOP((#54,#236,#237,#55));
#262= IFCFACEOUTERBOUND(#261,.T.);
#263= IFCFACE((#262));
#264= IFCPOLYLOOP((#55,#237,#238,#56));
#265= IFCFACEOUTERBOUND(#264,.T.);
#266= IFCFACE((#265));
#267= IFCPOLYLOOP((#56,#238,#239,#57));
#268= IFCFACEOUTERBOUND(#267,.T.);
#269= IFCFACE((#268));
#270= IFCPOLYLOOP((#57,#239,#240,#58));
#271= IFCFACEOUTERBOUND(#270,.T.);
#272= IFCFACE((#271));
#273= IFCPOLYLOOP((#58,#240,#241,#59));
#274= IFCFACEOUTERBOUND(#273,.T.);
#275= IFCFACE((#274));
#276= IFCPOLYLOOP((#59,#241,#242,#60));
#277= IFCFACEOUTERBOUND(#276,.T.);
#278= IFCFACE((#277));
#279= IFCPOLYLOOP((#60,#242,#231,#49));
#280= IFCFACEOUTERBOUND(#279,.T.);
#281= IFCFACE((#280));
#282= IFCCLOSEDSHELL((#75,#245,#248,#251,#254,#257,#260,#263,#266,#269,#272,#275,#278,#281));
#283= IFCFACETEDBREP(#282);
#284= IFCSTYLEDITEM(#283,(#119),$);
#285= IFCSHAPEREPRESENTATION(#12,'Body','Brep',(#283));
#286= IFCREPRESENTATIONMAP(#10,#285);
#287= IFCMAPPEDITEM(#286,#122);
#288= IFCSHAPEREPRESENTATION(#12,'Body','MappedRepresentation',(#287));
#289= IFCPRODUCTDEFINITIONSHAPE($,$,(#288));
#290= IFCCARTESIANPOINT((1364.63706453038,-3051.87301771817,16880.1780883836));
#291= IFCAXIS2PLACEMENT3D(#290,#129,#130);
#292= IFCLOCALPLACEMENT(#42,#291);
#293= IFCMECHANICALFASTENER('24vRq1Ge9BcBlzcAhcnazA',#44,'Bolt assembly',$,$,#292,#289,'ID84e5bd01-4282-4b98-bbfd-98aae6c64f4a',24.,1249.99279785156);
#294= IFCCARTESIANPOINT((13.,250.220806751842,0.));
#295= IFCCARTESIANPOINT((11.2583302491975,250.220806751842,6.50000000000039));
#296= IFCCARTESIANPOINT((6.49999999999922,250.220806751842,11.2583302491982));
#297= IFCCARTESIANPOINT((-1.34723677608042E-12,250.220806751842,13.));
#298= IFCCARTESIANPOINT((-6.50000000000155,250.220806751842,11.2583302491968));
#299= IFCCARTESIANPOINT((-11.2583302491988,250.220806751842,6.49999999999806));
#300= IFCCARTESIANPOINT((-13.,250.220806751842,-2.69447355216084E-12));
#301= IFCCARTESIANPOINT((-11.2583302491961,250.220806751842,-6.50000000000272));
#302= IFCCARTESIANPOINT((-6.4999999999969,250.220806751842,-11.2583302491995));
#303= IFCCARTESIANPOINT((4.02727742892113E-12,250.220806751842,-13.));
#304= IFCCARTESIANPOINT((6.50000000000388,250.220806751842,-11.2583302491955));
#305= IFCCARTESIANPOINT((11.2583302492002,250.220806751842,-6.49999999999573));
#306= IFCPOLYLOOP((#305,#304,#303,#302,#301,#300,#299,#298,#297,#296,#295,#294));
#307= IFCFACEOUTERBOUND(#306,.T.);
#308= IFCFACE((#307));
#309= IFCPOLYLOOP((#153,#294,#295,#154));
#310= IFCFACEOUTERBOUND(#309,.T.);
#311= IFCFACE((#310));
#312= IFCPOLYLOOP((#154,#295,#296,#155));
#313= IFCFACEOUTERBOUND(#312,.T.);
#314= IFCFACE((#313));
#315= IFCPOLYLOOP((#155,#296,#297,#156));
#316= IFCFACEOUTERBOUND(#315,.T.);
#317= IFCFACE((#316));
#318= IFCPOLYLOOP((#156,#297,#298,#157));
#319= IFCFACEOUTERBOUND(#318,.T.);
#320= IFCFACE((#319));
#321= IFCPOLYLOOP((#157,#298,#299,#158));
#322= IFCFACEOUTERBOUND(#321,.T.);
#323= IFCFACE((#322));
#324= IFCPOLYLOOP((#158,#299,#300,#159));
#325= IFCFACEOUTERBOUND(#324,.T.);
#326= IFCFACE((#325));
#327= IFCPOLYLOOP((#159,#300,#301,#160));
#328= IFCFACEOUTERBOUND(#327,.T.);
#329= IFCFACE((#328));
#330= IFCPOLYLOOP((#160,#301,#302,#161));
#331= IFCFACEOUTERBOUND(#330,.T.);
#332= IFCFACE((#331));
#333= IFCPOLYLOOP((#161,#302,#303,#162));
#334= IFCFACEOUTERBOUND(#333,.T.);
#335= IFCFACE((#334));
#336= IFCPOLYLOOP((#162,#303,#304,#163));
#337= IFCFACEOUTERBOUND(#336,.T.);
#338= IFCFACE((#337));
#339= IFCPOLYLOOP((#163,#304,#305,#164));
#340= IFCFACEOUTERBOUND(#339,.T.);
#341= IFCFACE((#340));
#342= IFCPOLYLOOP((#164,#305,#294,#153));
#343= IFCFACEOUTERBOUND(#342,.T.);
#344= IFCFACE((#343));
#345= IFCCLOSEDSHELL((#179,#308,#311,#314,#317,#320,#323,#326,#329,#332,#335,#338,#341,#344));
#346= IFCFACETEDBREP(#345);
#347= IFCSTYLEDITEM(#346,(#119),$);
#348= IFCSHAPEREPRESENTATION(#12,'Body','Brep',(#346));
#349= IFCREPRESENTATIONMAP(#10,#348);
#350= IFCMAPPEDITEM(#349,#122);
#351= IFCSHAPEREPRESENTATION(#12,'Body','MappedRepresentation',(#350));
#352= IFCPRODUCTDEFINITIONSHAPE($,$,(#351));
#353= IFCCARTESIANPOINT((1364.74036656007,-3221.87297884773,16880.1276442839));
#354= IFCAXIS2PLACEMENT3D(#353,#129,#130);
#355= IFCLOCALPLACEMENT(#42,#354);
#356= IFCMECHANICALFASTENER('0eZ23wE1z5TASaQP$xh73T',#44,'Bolt assembly',$,$,#355,#352,'ID288c20fa-381f-4574-a724-699ffbac70dd',24.,1249.99267578125);
#357= IFCCARTESIANPOINT((13.,0.0776579514834452,0.));
#358= IFCCARTESIANPOINT((11.2583302491975,0.0776579514834452,6.50000000000039));
#359= IFCCARTESIANPOINT((6.49999999999922,0.0776579514834452,11.2583302491982));
#360= IFCCARTESIANPOINT((-1.34723677608042E-12,0.0776579514834452,13.));
#361= IFCCARTESIANPOINT((-6.50000000000155,0.0776579514834452,11.2583302491968));
#362= IFCCARTESIANPOINT((-11.2583302491988,0.0776579514834452,6.49999999999806));
#363= IFCCARTESIANPOINT((-13.,0.0776579514834452,-2.69447355216084E-12));
#364= IFCCARTESIANPOINT((-11.2583302491961,0.0776579514834452,-6.50000000000272));
#365= IFCCARTESIANPOINT((-6.4999999999969,0.0776579514834452,-11.2583302491995));
#366= IFCCARTESIANPOINT((4.02727742892113E-12,0.0776579514834452,-13.));
#367= IFCCARTESIANPOINT((6.50000000000388,0.0776579514834452,-11.2583302491955));
#368= IFCCARTESIANPOINT((11.2583302492002,0.0776579514834452,-6.49999999999573));
#369= IFCCARTESIANPOINT((13.,250.17496492108,0.));
#370= IFCCARTESIANPOINT((11.2583302491975,250.17496492108,6.50000000000039));
#371= IFCCARTESIANPOINT((6.49999999999922,250.17496492108,11.2583302491982));
#372= IFCCARTESIANPOINT((-1.34723677608042E-12,250.17496492108,13.));
#373= IFCCARTESIANPOINT((-6.50000000000155,250.17496492108,11.2583302491968));
#374= IFCCARTESIANPOINT((-11.2583302491988,250.17496492108,6.49999999999806));
#375= IFCCARTESIANPOINT((-13.,250.17496492108,-2.69447355216084E-12));
#376= IFCCARTESIANPOINT((-11.2583302491961,250.17496492108,-6.50000000000272));
#377= IFCCARTESIANPOINT((-6.4999999999969,250.17496492108,-11.2583302491995));
#378= IFCCARTESIANPOINT((4.02727742892113E-12,250.17496492108,-13.));
#379= IFCCARTESIANPOINT((6.50000000000388,250.17496492108,-11.2583302491955));
#380= IFCCARTESIANPOINT((11.2583302492002,250.17496492108,-6.49999999999573));
#381= IFCPOLYLOOP((#357,#358,#359,#360,#361,#362,#363,#364,#365,#366,#367,#368));
#382= IFCFACEOUTERBOUND(#381,.T.);
#383= IFCFACE((#382));
#384= IFCPOLYLOOP((#380,#379,#378,#377,#376,#375,#374,#373,#372,#371,#370,#369));
#385= IFCFACEOUTERBOUND(#384,.T.);
#386= IFCFACE((#385));
#387= IFCPOLYLOOP((#357,#369,#370,#358));
#388= IFCFACEOUTERBOUND(#387,.T.);
#389= IFCFACE((#388));
#390= IFCPOLYLOOP((#358,#370,#371,#359));
#391= IFCFACEOUTERBOUND(#390,.T.);
#392= IFCFACE((#391));
#393= IFCPOLYLOOP((#359,#371,#372,#360));
#394= IFCFACEOUTERBOUND(#393,.T.);
#395= IFCFACE((#394));
#396= IFCPOLYLOOP((#360,#372,#373,#361));
#397= IFCFACEOUTERBOUND(#396,.T.);
#398= IFCFACE((#397));
#399= IFCPOLYLOOP((#361,#373,#374,#362));
#400= IFCFACEOUTERBOUND(#399,.T.);
#401= IFCFACE((#400));
#402= IFCPOLYLOOP((#362,#374,#375,#363));
#403= IFCFACEOUTERBOUND(#402,.T.);
#404= IFCFACE((#403));
#405= IFCPOLYLOOP((#363,#375,#376,#364));
#406= IFCFACEOUTERBOUND(#405,.T.);
#407= IFCFACE((#406));
#408= IFCPOLYLOOP((#364,#376,#377,#365));
#409= IFCFACEOUTERBOUND(#408,.T.);
#410= IFCFACE((#409));
#411= IFCPOLYLOOP((#365,#377,#378,#366));
#412= IFCFACEOUTERBOUND(#411,.T.);
#413= IFCFACE((#412));
#414= IFCPOLYLOOP((#366,#378,#379,#367));
#415= IFCFACEOUTERBOUND(#414,.T.);
#416= IFCFACE((#415));
#417= IFCPOLYLOOP((#367,#379,#380,#368));
#418= IFCFACEOUTERBOUND(#417,.T.);
#419= IFCFACE((#418));
#420= IFCPOLYLOOP((#368,#380,#369,#357));
#421= IFCFACEOUTERBOUND(#420,.T.);
#422= IFCFACE((#421));
#423= IFCCLOSEDSHELL((#383,#386,#389,#392,#395,#398,#401,#404,#407,#410,#413,#416,#419,#422));
#424= IFCFACETEDBREP(#423);
#425= IFCSTYLEDITEM(#424,(#119),$);
#426= IFCSHAPEREPRESENTATION(#12,'Body','Brep',(#424));
#427= IFCREPRESENTATIONMAP(#10,#426);
#428= IFCMAPPEDITEM(#427,#122);
#429= IFCSHAPEREPRESENTATION(#12,'Body','MappedRepresentation',(#428));
#430= IFCPRODUCTDEFINITIONSHAPE($,$,(#429));
#431= IFCCARTESIANPOINT((1214.84369630184,6608.03591116736,16880.0772001843));
#432= IFCAXIS2PLACEMENT3D(#431,#129,#130);
#433= IFCLOCALPLACEMENT(#42,#432);
#434= IFCMECHANICALFASTENER('1Xgb_Z57HAlOeOHzff_ffE',#44,'Bolt assembly',$,$,#433,#430,'ID61aa5fa3-1474-4abd-8a18-47da69fa9a4e',24.,1249.99731445312);
#435= IFCCARTESIANPOINT((13.,0.0272138498435766,0.));
#436= IFCCARTESIANPOINT((11.2583302491975,0.0272138498435766,6.50000000000039));
#437= IFCCARTESIANPOINT((6.49999999999922,0.0272138498435766,11.2583302491982));
#438= IFCCARTESIANPOINT((-1.34723677608042E-12,0.0272138498435766,13.));
#439= IFCCARTESIANPOINT((-6.50000000000155,0.0272138498435766,11.2583302491968));
#440= IFCCARTESIANPOINT((-11.2583302491988,0.0272138498435766,6.49999999999806));
#441= IFCCARTESIANPOINT((-13.,0.0272138498435766,-2.69447355216084E-12));
#442= IFCCARTESIANPOINT((-11.2583302491961,0.0272138498435766,-6.50000000000272));
#443= IFCCARTESIANPOINT((-6.4999999999969,0.0272138498435766,-11.2583302491995));
#444= IFCCARTESIANPOINT((4.02727742892113E-12,0.0272138498435766,-13.));
#445= IFCCARTESIANPOINT((6.50000000000388,0.0272138498435766,-11.2583302491955));
#446= IFCCARTESIANPOINT((11.2583302492002,0.0272138498435766,-6.49999999999573));
#447= IFCCARTESIANPOINT((13.,250.12441187124,0.));
#448= IFCCARTESIANPOINT((11.2583302491975,250.12441187124,6.50000000000039));
#449= IFCCARTESIANPOINT((6.49999999999922,250.12441187124,11.2583302491982));
#450= IFCCARTESIANPOINT((-1.34723677608042E-12,250.12441187124,13.));
#451= IFCCARTESIANPOINT((-6.50000000000155,250.12441187124,11.2583302491968));
#452= IFCCARTESIANPOINT((-11.2583302491988,250.12441187124,6.49999999999806));
#453= IFCCARTESIANPOINT((-13.,250.12441187124,-2.69447355216084E-12));
#454= IFCCARTESIANPOINT((-11.2583302491961,250.12441187124,-6.50000000000272));
#455= IFCCARTESIANPOINT((-6.4999999999969,250.12441187124,-11.2583302491995));
#456= IFCCARTESIANPOINT((4.02727742892113E-12,250.12441187124,-13.));
#457= IFCCARTESIANPOINT((6.50000000000388,250.12441187124,-11.2583302491955));
#458= IFCCARTESIANPOINT((11.2583302492002,250.12441187124,-6.49999999999573));
#459= IFCPOLYLOOP((#435,#436,#437,#438,#439,#440,#441,#442,#443,#444,#445,#446));
#460= IFCFACEOUTERBOUND(#459,.T.);
#461= IFCFACE((#460));
#462= IFCPOLYLOOP((#458,#457,#456,#455,#454,#453,#452,#451,#450,#449,#448,#447));
#463= IFCFACEOUTERBOUND(#462,.T.);
#464= IFCFACE((#463));
#465= IFCPOLYLOOP((#435,#447,#448,#436));
#466= IFCFACEOUTERBOUND(#465,.T.);
#467= IFCFACE((#466));
#468= IFCPOLYLOOP((#436,#448,#449,#437));
#469= IFCFACEOUTERBOUND(#468,.T.);
#470= IFCFACE((#469));
#471= IFCPOLYLOOP((#437,#449,#450,#438));
#472= IFCFACEOUTERBOUND(#471,.T.);
#473= IFCFACE((#472));
#474= IFCPOLYLOOP((#438,#450,#451,#439));
#475= IFCFACEOUTERBOUND(#474,.T.);
#476= IFCFACE((#475));
#477= IFCPOLYLOOP((#439,#451,#452,#440));
#478= IFCFACEOUTERBOUND(#477,.T.);
#479= IFCFACE((#478));
#480= IFCPOLYLOOP((#440,#452,#453,#441));
#481= IFCFACEOUTERBOUND(#480,.T.);
#482= IFCFACE((#481));
#483= IFCPOLYLOOP((#441,#453,#454,#442));
#484= IFCFACEOUTERBOUND(#483,.T.);
#485= IFCFACE((#484));
#486= IFCPOLYLOOP((#442,#454,#455,#443));
#487= IFCFACEOUTERBOUND(#486,.T.);
#488= IFCFACE((#487));
#489= IFCPOLYLOOP((#443,#455,#456,#444));
#490= IFCFACEOUTERBOUND(#489,.T.);
#491= IFCFACE((#490));
#492= IFCPOLYLOOP((#444,#456,#457,#445));
#493= IFCFACEOUTERBOUND(#492,.T.);
#494= IFCFACE((#493));
#495= IFCPOLYLOOP((#445,#457,#458,#446));
#496= IFCFACEOUTERBOUND(#495,.T.);
#497= IFCFACE((#496));
#498= IFCPOLYLOOP((#446,#458,#447,#435));
#499= IFCFACEOUTERBOUND(#498,.T.);
#500= IFCFACE((#499));
#501= IFCCLOSEDSHELL((#461,#464,#467,#470,#473,#476,#479,#482,#485,#488,#491,#494,#497,#500));
#502= IFCFACETEDBREP(#501);
#503= IFCSTYLEDITEM(#502,(#119),$);
#504= IFCSHAPEREPRESENTATION(#12,'Body','Brep',(#502));
#505= IFCREPRESENTATIONMAP(#10,#504);
#506= IFCMAPPEDITEM(#505,#122);
#507= IFCSHAPEREPRESENTATION(#12,'Body','MappedRepresentation',(#506));
#508= IFCPRODUCTDEFINITIONSHAPE($,$,(#507));
#509= IFCCARTESIANPOINT((1214.9469983316,6438.03595003757,16880.0267560847));
#510= IFCAXIS2PLACEMENT3D(#509,#129,#130);
#511= IFCLOCALPLACEMENT(#42,#510);
#512= IFCMECHANICALFASTENER('1M9ZQlXuD82eRkuOSHefyr',#44,'Bolt assembly',$,$,#511,#508,'ID562636af-8783-480a-86ee-e18711a29f35',24.,1249.99719238281);
#513= IFCCARTESIANPOINT((13.,250.176734072033,0.));
#514= IFCCARTESIANPOINT((11.2583302491975,250.176734072033,6.50000000000039));
#515= IFCCARTESIANPOINT((6.49999999999922,250.176734072033,11.2583302491982));
#516= IFCCARTESIANPOINT((-1.34723677608042E-12,250.176734072033,13.));
#517= IFCCARTESIANPOINT((-6.50000000000155,250.176734072033,11.2583302491968));
#518= IFCCARTESIANPOINT((-11.2583302491988,250.176734072033,6.49999999999806));
#519= IFCCARTESIANPOINT((-13.,250.176734072033,-2.69447355216084E-12));
#520= IFCCARTESIANPOINT((-11.2583302491961,250.176734072033,-6.50000000000272));
#521= IFCCARTESIANPOINT((-6.4999999999969,250.176734072033,-11.2583302491995));
#522= IFCCARTESIANPOINT((4.02727742892113E-12,250.176734072033,-13.));
#523= IFCCARTESIANPOINT((6.50000000000388,250.176734072033,-11.2583302491955));
#524= IFCCARTESIANPOINT((11.2583302492002,250.176734072033,-6.49999999999573));
#525= IFCPOLYLOOP((#524,#523,#522,#521,#520,#519,#518,#517,#516,#515,#514,#513));
#526= IFCFACEOUTERBOUND(#525,.T.);
#527= IFCFACE((#526));
#528= IFCPOLYLOOP((#357,#513,#514,#358));
#529= IFCFACEOUTERBOUND(#528,.T.);
#530= IFCFACE((#529));
#531= IFCPOLYLOOP((#358,#514,#515,#359));
#532= IFCFACEOUTERBOUND(#531,.T.);
#533= IFCFACE((#532));
#534= IFCPOLYLOOP((#359,#515,#516,#360));
#535= IFCFACEOUTERBOUND(#534,.T.);
#536= IFCFACE((#535));
#537= IFCPOLYLOOP((#360,#516,#517,#361));
#538= IFCFACEOUTERBOUND(#537,.T.);
#539= IFCFACE((#538));
#540= IFCPOLYLOOP((#361,#517,#518,#362));
#541= IFCFACEOUTERBOUND(#540,.T.);
#542= IFCFACE((#541));
#543= IFCPOLYLOOP((#362,#518,#519,#363));
#544= IFCFACEOUTERBOUND(#543,.T.);
#545= IFCFACE((#544));
#546= IFCPOLYLOOP((#363,#519,#520,#364));
#547= IFCFACEOUTERBOUND(#546,.T.);
#548= IFCFACE((#547));
#549= IFCPOLYLOOP((#364,#520,#521,#365));
#550= IFCFACEOUTERBOUND(#549,.T.);
#551= IFCFACE((#550));
#552= IFCPOLYLOOP((#365,#521,#522,#366));
#553= IFCFACEOUTERBOUND(#552,.T.);
#554= IFCFACE((#553));
#555= IFCPOLYLOOP((#366,#522,#523,#367));
#556= IFCFACEOUTERBOUND(#555,.T.);
#557= IFCFACE((#556));
#558= IFCPOLYLOOP((#367,#523,#524,#368));
#559= IFCFACEOUTERBOUND(#558,.T.);
#560= IFCFACE((#559));
#561= IFCPOLYLOOP((#368,#524,#513,#357));
#562= IFCFACEOUTERBOUND(#561,.T.);
#563= IFCFACE((#562));
#564= IFCCLOSEDSHELL((#383,#527,#530,#533,#536,#539,#542,#545,#548,#551,#554,#557,#560,#563));
#565= IFCFACETEDBREP(#564);
#566= IFCSTYLEDITEM(#565,(#119),$);
#567= IFCSHAPEREPRESENTATION(#12,'Body','Brep',(#565));
#568= IFCREPRESENTATIONMAP(#10,#567);
#569= IFCMAPPEDITEM(#568,#122);
#570= IFCSHAPEREPRESENTATION(#12,'Body','MappedRepresentation',(#569));
#571= IFCPRODUCTDEFINITIONSHAPE($,$,(#570));
#572= IFCCARTESIANPOINT((1364.84366860786,6608.12706002167,16880.0772001843));
#573= IFCAXIS2PLACEMENT3D(#572,#129,#130);
#574= IFCLOCALPLACEMENT(#42,#573);
#575= IFCMECHANICALFASTENER('08Lml24hf40hqk7mU5OxHE',#44,'Bolt assembly',$,$,#574,#571,'ID08570bc2-12ba-4402-bd2e-1f078563b44e',24.,1249.9990234375);
#576= IFCCARTESIANPOINT((13.,250.126181022193,0.));
#577= IFCCARTESIANPOINT((11.2583302491975,250.126181022193,6.50000000000039));
#578= IFCCARTESIANPOINT((6.49999999999922,250.126181022193,11.2583302491982));
#579= IFCCARTESIANPOINT((-1.34723677608042E-12,250.126181022193,13.));
#580= IFCCARTESIANPOINT((-6.50000000000155,250.126181022193,11.2583302491968));
#581= IFCCARTESIANPOINT((-11.2583302491988,250.126181022193,6.49999999999806));
#582= IFCCARTESIANPOINT((-13.,250.126181022193,-2.69447355216084E-12));
#583= IFCCARTESIANPOINT((-11.2583302491961,250.126181022193,-6.50000000000272));
#584= IFCCARTESIANPOINT((-6.4999999999969,250.126181022193,-11.2583302491995));
#585= IFCCARTESIANPOINT((4.02727742892113E-12,250.126181022193,-13.));
#586= IFCCARTESIANPOINT((6.50000000000388,250.126181022193,-11.2583302491955));
#587= IFCCARTESIANPOINT((11.2583302492002,250.126181022193,-6.49999999999573));
#588= IFCPOLYLOOP((#587,#586,#585,#584,#583,#582,#581,#580,#579,#578,#577,#576));
#589= IFCFACEOUTERBOUND(#588,.T.);
#590= IFCFACE((#589));
#591= IFCPOLYLOOP((#435,#576,#577,#436));
#592= IFCFACEOUTERBOUND(#591,.T.);
#593= IFCFACE((#592));
#594= IFCPOLYLOOP((#436,#577,#578,#437));
#595= IFCFACEOUTERBOUND(#594,.T.);
#596= IFCFACE((#595));
#597= IFCPOLYLOOP((#437,#578,#579,#438));
#598= IFCFACEOUTERBOUND(#597,.T.);
#599= IFCFACE((#598));
#600= IFCPOLYLOOP((#438,#579,#580,#439));
#601= IFCFACEOUTERBOUND(#600,.T.);
#602= IFCFACE((#601));
#603= IFCPOLYLOOP((#439,#580,#581,#440));
#604= IFCFACEOUTERBOUND(#603,.T.);
#605= IFCFACE((#604));
#606= IFCPOLYLOOP((#440,#581,#582,#441));
#607= IFCFACEOUTERBOUND(#606,.T.);
#608= IFCFACE((#607));
#609= IFCPOLYLOOP((#441,#582,#583,#442));
#610= IFCFACEOUTERBOUND(#609,.T.);
#611= IFCFACE((#610));
#612= IFCPOLYLOOP((#442,#583,#584,#443));
#613= IFCFACEOUTERBOUND(#612,.T.);
#614= IFCFACE((#613));
#615= IFCPOLYLOOP((#443,#584,#585,#444));
#616= IFCFACEOUTERBOUND(#615,.T.);
#617= IFCFACE((#616));
#618= IFCPOLYLOOP((#444,#585,#586,#445));
#619= IFCFACEOUTERBOUND(#618,.T.);
#620= IFCFACE((#619));
#621= IFCPOLYLOOP((#445,#586,#587,#446));
#622= IFCFACEOUTERBOUND(#621,.T.);
#623= IFCFACE((#622));
#624= IFCPOLYLOOP((#446,#587,#576,#435));
#625= IFCFACEOUTERBOUND(#624,.T.);
#626= IFCFACE((#625));
#627= IFCCLOSEDSHELL((#461,#590,#593,#596,#599,#602,#605,#608,#611,#614,#617,#620,#623,#626));
#628= IFCFACETEDBREP(#627);
#629= IFCSTYLEDITEM(#628,(#119),$);
#630= IFCSHAPEREPRESENTATION(#12,'Body','Brep',(#628));
#631= IFCREPRESENTATIONMAP(#10,#630);
#632= IFCMAPPEDITEM(#631,#122);
#633= IFCSHAPEREPRESENTATION(#12,'Body','MappedRepresentation',(#632));
#634= IFCPRODUCTDEFINITIONSHAPE($,$,(#633));
#635= IFCCARTESIANPOINT((1364.94697063762,6438.12709889188,16880.0267560847));
#636= IFCAXIS2PLACEMENT3D(#635,#129,#130);
#637= IFCLOCALPLACEMENT(#42,#636);
#638= IFCMECHANICALFASTENER('1iU5ba2HX70PEB_kCpT_Pg',#44,'Bolt assembly',$,$,#637,#634,'ID6c785964-0918-4701-938b-fae33377e66a',24.,1249.9990234375);
#639= IFCOWNERHISTORY(#3,#4,$,.NOCHANGE.,$,$,$,1770840000);
#640= IFCSURFACESTYLE('EVENT',.POSITIVE.,(#46));
#641= IFCPRESENTATIONSTYLEASSIGNMENT((#640));
#642= IFCCARTESIANPOINT((7.5,-4.00000020236848,0.));
#643= IFCCARTESIANPOINT((6.49519052838316,-4.00000020236848,3.75000000000022));
#644= IFCCARTESIANPOINT((3.74999999999955,-4.00000020236848,6.49519052838355));
#645= IFCCARTESIANPOINT((-7.77251986200242E-13,-4.00000020236848,7.5));
#646= IFCCARTESIANPOINT((-3.7500000000009,-4.00000020236848,6.49519052838277));
#647= IFCCARTESIANPOINT((-6.49519052838394,-4.00000020236848,3.74999999999888));
#648= IFCCARTESIANPOINT((-7.5,-4.00000020236848,-1.55450397240048E-12));
#649= IFCCARTESIANPOINT((-6.49519052838238,-4.00000020236848,-3.75000000000157));
#650= IFCCARTESIANPOINT((-3.74999999999821,-4.00000020236848,-6.49519052838432));
#651= IFCCARTESIANPOINT((2.32342928591604E-12,-4.00000020236848,-7.5));
#652= IFCCARTESIANPOINT((3.75000000000224,-4.00000020236848,-6.495190528382));
#653= IFCCARTESIANPOINT((6.49519052838471,-4.00000020236848,-3.74999999999753));
#654= IFCCARTESIANPOINT((7.5,4.0999997975535,0.));
#655= IFCCARTESIANPOINT((6.49519052838316,4.0999997975535,3.75000000000022));
#656= IFCCARTESIANPOINT((3.74999999999955,4.0999997975535,6.49519052838355));
#657= IFCCARTESIANPOINT((-7.77251986200242E-13,4.0999997975535,7.5));
#658= IFCCARTESIANPOINT((-3.7500000000009,4.0999997975535,6.49519052838277));
#659= IFCCARTESIANPOINT((-6.49519052838394,4.0999997975535,3.74999999999888));
#660= IFCCARTESIANPOINT((-7.5,4.0999997975535,-1.55450397240048E-12));
#661= IFCCARTESIANPOINT((-6.49519052838238,4.0999997975535,-3.75000000000157));
#662= IFCCARTESIANPOINT((-3.74999999999821,4.0999997975535,-6.49519052838432));
#663= IFCCARTESIANPOINT((2.32342928591604E-12,4.0999997975535,-7.5));
#664= IFCCARTESIANPOINT((3.75000000000224,4.0999997975535,-6.495190528382));
#665= IFCCARTESIANPOINT((6.49519052838471,4.0999997975535,-3.74999999999753));
#666= IFCPOLYLOOP((#642,#643,#644,#645,#646,#647,#648,#649,#650,#651,#652,#653));
#667= IFCFACEOUTERBOUND(#666,.T.);
#668= IFCFACE((#667));
#669= IFCPOLYLOOP((#665,#664,#663,#662,#661,#660,#659,#658,#657,#656,#655,#654));
#670= IFCFACEOUTERBOUND(#669,.T.);
#671= IFCFACE((#670));
#672= IFCPOLYLOOP((#642,#654,#655,#643));
#673= IFCFACEOUTERBOUND(#672,.T.);
#674= IFCFACE((#673));
#675= IFCPOLYLOOP((#643,#655,#656,#644));
#676= IFCFACEOUTERBOUND(#675,.T.);
#677= IFCFACE((#676));
#678= IFCPOLYLOOP((#644,#656,#657,#645));
#679= IFCFACEOUTERBOUND(#678,.T.);
#680= IFCFACE((#679));
#681= IFCPOLYLOOP((#645,#657,#658,#646));
#682= IFCFACEOUTERBOUND(#681,.T.);
#683= IFCFACE((#682));
#684= IFCPOLYLOOP((#646,#658,#659,#647));
#685= IFCFACEOUTERBOUND(#684,.T.);
#686= IFCFACE((#685));
#687= IFCPOLYLOOP((#647,#659,#660,#648));
#688= IFCFACEOUTERBOUND(#687,.T.);
#689= IFCFACE((#688));
#690= IFCPOLYLOOP((#648,#660,#661,#649));
#691= IFCFACEOUTERBOUND(#690,.T.);
#692= IFCFACE((#691));
#693= IFCPOLYLOOP((#649,#661,#662,#650));
#694= IFCFACEOUTERBOUND(#693,.T.);
#695= IFCFACE((#694));
#696= IFCPOLYLOOP((#650,#662,#663,#651));
#697= IFCFACEOUTERBOUND(#696,.T.);
#698= IFCFACE((#697));
#699= IFCPOLYLOOP((#651,#663,#664,#652));
#700= IFCFACEOUTERBOUND(#699,.T.);
#701= IFCFACE((#700));
#702= IFCPOLYLOOP((#652,#664,#665,#653));
#703= IFCFACEOUTERBOUND(#702,.T.);
#704= IFCFACE((#703));
#705= IFCPOLYLOOP((#653,#665,#654,#642));
#706= IFCFACEOUTERBOUND(#705,.T.);
#707= IFCFACE((#706));
#708= IFCCLOSEDSHELL((#668,#671,#674,#677,#680,#683,#686,#689,#692,#695,#698,#701,#704,#707));
#709= IFCFACETEDBREP(#708);
#710= IFCSTYLEDITEM(#709,(#119),$);
#711= IFCSHAPEREPRESENTATION(#12,'Body','Brep',(#709));
#712= IFCREPRESENTATIONMAP(#10,#711);
#713= IFCMAPPEDITEM(#712,#122);
#714= IFCSHAPEREPRESENTATION(#12,'Body','MappedRepresentation',(#713));
#715= IFCPRODUCTDEFINITIONSHAPE($,$,(#714));
#716= IFCCARTESIANPOINT((1397.85182932651,-3283.0027562719,16682.4995422362));
#717= IFCDIRECTION((0.509320893901127,-1.8000000181928E-08,0.860576682832946));
#718= IFCDIRECTION((-0.860576682832945,3.00000003941487E-08,0.509320893901128));
#719= IFCAXIS2PLACEMENT3D(#716,#717,#718);
#720= IFCLOCALPLACEMENT(#42,#719);
#721= IFCMECHANICALFASTENER('2x2QSQRZvDpQ5$Cxoek0Ti',#639,'Bolt assembly',$,$,#720,#715,'IDbb09a71a-6e3e-4dcd-a17f-33bca8b8076c',15.,8.);
#722= IFCPROPERTYSINGLEVALUE('Washer diameter',$,IFCLENGTHMEASURE(15.),$);
#723= IFCPROPERTYSINGLEVALUE('Slotted hole y',$,IFCLENGTHMEASURE(0.),$);
#724= IFCPROPERTYSINGLEVALUE('Bolt hole diameter',$,IFCLENGTHMEASURE(15.),$);
#725= IFCPROPERTYSINGLEVALUE('Bolt size',$,IFCLENGTHMEASURE(15.),$);
#726= IFCPROPERTYSINGLEVALUE('Bolt length',$,IFCLENGTHMEASURE(8.),$);
#727= IFCPROPERTYSINGLEVALUE('Bolt standard',$,IFCLABEL('EVENT'),$);
#728= IFCPROPERTYSET('39d1JM5Er7NPmBVohG2hkz',#5,'Tekla Bolt','Bolt Properties',(#135,#722,#137,#138,#139,#140,#141,#723,#143,#724,#145,#146,#725,#726,#727,#150));
#729= IFCMATERIAL('EVENT');
#730= IFCMAPPEDITEM(#712,#122);
#731= IFCSHAPEREPRESENTATION(#12,'Body','MappedRepresentation',(#730));
#732= IFCPRODUCTDEFINITIONSHAPE($,$,(#731));
#733= IFCCARTESIANPOINT((1397.85182932651,-3283.00275627203,16827.4995422362));
#734= IFCDIRECTION((-0.509320893901127,1.8000000181928E-08,0.860576682832946));
#735= IFCDIRECTION((-0.860576682832945,3.00000003941487E-08,-0.509320893901128));
#736= IFCAXIS2PLACEMENT3D(#733,#734,#735);
#737= IFCLOCALPLACEMENT(#42,#736);
#738= IFCMECHANICALFASTENER('1zWhCv70LCHQ0OX2RSVDAn',#639,'Bolt assembly',$,$,#737,#732,'ID7d82b339-1c05-4c45-a018-8426dc7cd2b1',15.,8.);
#739= IFCMAPPEDITEM(#712,#122);
#740= IFCSHAPEREPRESENTATION(#12,'Body','MappedRepresentation',(#739));
#741= IFCPRODUCTDEFINITIONSHAPE($,$,(#740));
#742= IFCCARTESIANPOINT((1167.47195299383,-3283.00274820897,16682.4995422362));
#743= IFCDIRECTION((0.50932089390113,-1.80000001819281E-08,-0.860576682832944));
#744= IFCDIRECTION((0.860576682832943,-3.00000003940631E-08,0.509320893901131));
#745= IFCAXIS2PLACEMENT3D(#742,#743,#744);
#746= IFCLOCALPLACEMENT(#42,#745);
#747= IFCMECHANICALFASTENER('1cF84emwfAbOhJ5azKKlVX',#639,'Bolt assembly',$,$,#746,#741,'ID663c8128-c3aa-4a95-8ad3-164f5452f7e1',15.,8.);
#748= IFCMAPPEDITEM(#712,#122);
#749= IFCSHAPEREPRESENTATION(#12,'Body','MappedRepresentation',(#748));
#750= IFCPRODUCTDEFINITIONSHAPE($,$,(#749));
#751= IFCCARTESIANPOINT((1167.47195299383,-3283.0027482091,16827.4995422362));
#752= IFCDIRECTION((-0.50932089390113,1.80000001819281E-08,-0.860576682832944));
#753= IFCDIRECTION((0.860576682832943,-3.00000003940631E-08,-0.509320893901131));
#754= IFCAXIS2PLACEMENT3D(#751,#752,#753);
#755= IFCLOCALPLACEMENT(#42,#754);
#756= IFCMECHANICALFASTENER('2SjFMfX2zFHuQxTUfYuEEe',#639,'Bolt assembly',$,$,#755,#750,'ID9cb4f5a9-842f-4f47-86bb-75ea62e0e3a8',15.,8.);
#757= IFCMAPPEDITEM(#712,#122);
#758= IFCSHAPEREPRESENTATION(#12,'Body','MappedRepresentation',(#757));
#759= IFCPRODUCTDEFINITIONSHAPE($,$,(#758));
#760= IFCCARTESIANPOINT((1397.85184219877,-2921.00315659572,16682.4995422362));
#761= IFCDIRECTION((-0.860576682832223,1.29200000057511E-06,0.50932089390071));
#762= IFCAXIS2PLACEMENT3D(#760,#717,#761);
#763= IFCLOCALPLACEMENT(#42,#762);
#764= IFCMECHANICALFASTENER('0izQD$KJz6ZfWJumhNaGE6',#639,'Bolt assembly',$,$,#763,#759,'ID2cf5a37f-513f-468e-9813-e30ad7910386',15.,8.);
#765= IFCMAPPEDITEM(#712,#122);
#766= IFCSHAPEREPRESENTATION(#12,'Body','MappedRepresentation',(#765));
#767= IFCPRODUCTDEFINITIONSHAPE($,$,(#766));
#768= IFCCARTESIANPOINT((1397.85184219877,-2921.00315659585,16827.4995422362));
#769= IFCDIRECTION((-0.860576682832223,1.29200000057511E-06,-0.50932089390071));
#770= IFCAXIS2PLACEMENT3D(#768,#734,#769);
#771= IFCLOCALPLACEMENT(#42,#770);
#772= IFCMECHANICALFASTENER('3xqnt1VUj9xuJ5BXOoQ2lN',#639,'Bolt assembly',$,$,#771,#767,'IDfbd31dc1-7deb-49ef-84c5-2e1632682bd7',15.,8.);
#773= IFCMAPPEDITEM(#712,#122);
#774= IFCSHAPEREPRESENTATION(#12,'Body','MappedRepresentation',(#773));
#775= IFCPRODUCTDEFINITIONSHAPE($,$,(#774));
#776= IFCCARTESIANPOINT((1167.47196586627,-2921.00281056551,16682.4995422362));
#777= IFCDIRECTION((0.860576682832222,-1.29200000057142E-06,0.509320893900712));
#778= IFCAXIS2PLACEMENT3D(#776,#743,#777);
#779= IFCLOCALPLACEMENT(#42,#778);
#780= IFCMECHANICALFASTENER('1tQTo7$cv15ftgxaCnQ6DF',#639,'Bolt assembly',$,$,#779,#775,'ID7769dc87-fe6e-4116-9dea-ee433168634f',15.,8.);
#781= IFCMAPPEDITEM(#712,#122);
#782= IFCSHAPEREPRESENTATION(#12,'Body','MappedRepresentation',(#781));
#783= IFCPRODUCTDEFINITIONSHAPE($,$,(#782));
#784= IFCCARTESIANPOINT((1167.47196586627,-2921.00281056564,16827.4995422362));
#785= IFCDIRECTION((0.860576682832222,-1.29200000057142E-06,-0.509320893900712));
#786= IFCAXIS2PLACEMENT3D(#784,#752,#785);
#787= IFCLOCALPLACEMENT(#42,#786);
#788= IFCMECHANICALFASTENER('0IBv6sxpn6G8HsS$LfmbSW',#639,'Bolt assembly',$,$,#787,#783,'ID122f91b6-ef3c-4640-8476-73f569c25720',15.,8.);
#789= IFCMAPPEDITEM(#712,#122);
#790= IFCSHAPEREPRESENTATION(#12,'Body','MappedRepresentation',(#789));
#791= IFCPRODUCTDEFINITIONSHAPE($,$,(#790));
#792= IFCCARTESIANPOINT((1397.93199377836,6306.99725331539,16682.4995422362));
#793= IFCAXIS2PLACEMENT3D(#792,#717,#718);
#794= IFCLOCALPLACEMENT(#42,#793);
#795= IFCMECHANICALFASTENER('2EA6qwaAfD0gob$d10D_w$',#639,'Bolt assembly',$,$,#794,#791,'ID8e286d3a-90aa-4d02-aca5-fe704037eebf',15.,8.);
#796= IFCMAPPEDITEM(#712,#122);
#797= IFCSHAPEREPRESENTATION(#12,'Body','MappedRepresentation',(#796));
#798= IFCPRODUCTDEFINITIONSHAPE($,$,(#797));
#799= IFCCARTESIANPOINT((1397.93199377836,6306.99725331526,16827.4995422362));
#800= IFCAXIS2PLACEMENT3D(#799,#734,#735);
#801= IFCLOCALPLACEMENT(#42,#800);
#802= IFCMECHANICALFASTENER('1IrxPPSD98OwxmFUjb4Dtd',#639,'Bolt assembly',$,$,#801,#798,'ID52d7b659-70d2-4863-aef0-3deb6510dde7',15.,8.);
#803= IFCMAPPEDITEM(#712,#122);
#804= IFCSHAPEREPRESENTATION(#12,'Body','MappedRepresentation',(#803));
#805= IFCPRODUCTDEFINITIONSHAPE($,$,(#804));
#806= IFCCARTESIANPOINT((1167.55211744636,6306.99725331502,16682.4995422362));
#807= IFCAXIS2PLACEMENT3D(#806,#743,#744);
#808= IFCLOCALPLACEMENT(#42,#807);
#809= IFCMECHANICALFASTENER('2VLNzw8un3g9vx9ECzgfkj',#639,'Bolt assembly',$,$,#808,#805,'ID9f557f7a-238c-43a8-9e7b-24e33daa9bad',15.,8.);
#810= IFCMAPPEDITEM(#712,#122);
#811= IFCSHAPEREPRESENTATION(#12,'Body','MappedRepresentation',(#810));
#812= IFCPRODUCTDEFINITIONSHAPE($,$,(#811));
#813= IFCCARTESIANPOINT((1167.55211744636,6306.99725331489,16827.4995422362));
#814= IFCAXIS2PLACEMENT3D(#813,#752,#753);
#815= IFCLOCALPLACEMENT(#42,#814);
#816= IFCMECHANICALFASTENER('0ouJtZFhvAtOo7wm7N4pLt',#639,'Bolt assembly',$,$,#815,#812,'ID32e13de3-3ebe-4add-8c87-eb01d7133577',15.,8.);
#817= IFCMAPPEDITEM(#712,#122);
#818= IFCSHAPEREPRESENTATION(#12,'Body','MappedRepresentation',(#817));
#819= IFCPRODUCTDEFINITIONSHAPE($,$,(#818));
#820= IFCCARTESIANPOINT((1397.88199377902,6668.99725331535,16682.4995422362));
#821= IFCAXIS2PLACEMENT3D(#820,#717,#718);
#822= IFCLOCALPLACEMENT(#42,#821);
#823= IFCMECHANICALFASTENER('38OhqfxKn1kuaeoicuZ$Ii',#639,'Bolt assembly',$,$,#822,#819,'IDc862bd29-ed4c-41bb-8928-cac9b88ff4ac',15.,8.);
#824= IFCMAPPEDITEM(#712,#122);
#825= IFCSHAPEREPRESENTATION(#12,'Body','MappedRepresentation',(#824));
#826= IFCPRODUCTDEFINITIONSHAPE($,$,(#825));
#827= IFCCARTESIANPOINT((1397.88199377902,6668.99725331522,16827.4995422362));
#828= IFCAXIS2PLACEMENT3D(#827,#734,#735);
#829= IFCLOCALPLACEMENT(#42,#828);
#830= IFCMECHANICALFASTENER('1iWdDlG_T0JOesBKrZ2$Lu',#639,'Bolt assembly',$,$,#829,#826,'ID6c82736f-43e7-404d-8a36-2d4d630bf578',15.,8.);
#831= IFCMAPPEDITEM(#712,#122);
#832= IFCSHAPEREPRESENTATION(#12,'Body','MappedRepresentation',(#831));
#833= IFCPRODUCTDEFINITIONSHAPE($,$,(#832));
#834= IFCCARTESIANPOINT((1167.50211744702,6668.99725331498,16682.4995422362));
#835= IFCAXIS2PLACEMENT3D(#834,#743,#744);
#836= IFCLOCALPLACEMENT(#42,#835);
#837= IFCMECHANICALFASTENER('3b1aC1b3P8MODMHwljD9VH',#639,'Bolt assembly',$,$,#836,#833,'IDe5064301-9436-4859-8356-47abed3497d1',15.,8.);
#838= IFCMAPPEDITEM(#712,#122);
#839= IFCSHAPEREPRESENTATION(#12,'Body','MappedRepresentation',(#838));
#840= IFCPRODUCTDEFINITIONSHAPE($,$,(#839));
#841= IFCCARTESIANPOINT((1167.50211744702,6668.99725331485,16827.4995422362));
#842= IFCAXIS2PLACEMENT3D(#841,#752,#753);
#843= IFCLOCALPLACEMENT(#42,#842);
#844= IFCMECHANICALFASTENER('2ES5r$f$jDCwyW$xCrvxwa',#639,'Bolt assembly',$,$,#843,#840,'ID8e705d7f-a7fb-4d33-af20-ffb335e7bea4',15.,8.);
#845= IFCOWNERHISTORY(#3,#4,$,.NOCHANGE.,$,$,$,1770843600);
#846= IFCCOLOURRGB('Light Green',0.356862745098039,0.592156862745098,0.137254901960784);
#847= IFCSURFACESTYLERENDERING(#846,0.,$,$,$,$,IFCNORMALISEDRATIOMEASURE(0.00390625),IFCSPECULAREXPONENT(10.),.NOTDEFINED.);
#848= IFCSURFACESTYLE('STEEL/S275',.POSITIVE.,(#847));
#849= IFCPRESENTATIONSTYLEASSIGNMENT((#848));
#850= IFCCARTESIANPOINT((0.,-4.,0.));
#851= IFCCARTESIANPOINT((0.,-4.,230.));
#852= IFCCARTESIANPOINT((0.,4.,230.));
#853= IFCCARTESIANPOINT((0.,4.,0.));
#854= IFCPOLYLOOP((#850,#851,#852,#853));
#855= IFCFACEOUTERBOUND(#854,.T.);
#856= IFCFACE((#855));
#857= IFCCARTESIANPOINT((314.999298095703,-4.,230.));
#858= IFCCARTESIANPOINT((314.999298095703,4.,230.));
#859= IFCPOLYLOOP((#851,#857,#858,#852));
#860= IFCFACEOUTERBOUND(#859,.T.);
#861= IFCFACE((#860));
#862= IFCCARTESIANPOINT((314.999298095703,-4.,-3.63797880709171E-12));
#863= IFCCARTESIANPOINT((314.999298095703,4.,-3.63797880709171E-12));
#864= IFCPOLYLOOP((#857,#862,#863,#858));
#865= IFCFACEOUTERBOUND(#864,.T.);
#866= IFCFACE((#865));
#867= IFCPOLYLOOP((#862,#850,#853,#863));
#868= IFCFACEOUTERBOUND(#867,.T.);
#869= IFCFACE((#868));
#870= IFCPOLYLOOP((#858,#863,#853,#852));
#871= IFCFACEOUTERBOUND(#870,.T.);
#872= IFCFACE((#871));
#873= IFCPOLYLOOP((#862,#857,#851,#850));
#874= IFCFACEOUTERBOUND(#873,.T.);
#875= IFCFACE((#874));
#876= IFCCLOSEDSHELL((#856,#861,#866,#869,#872,#875));
#877= IFCFACETEDBREP(#876);
#878= IFCSTYLEDITEM(#877,(#849),$);
#879= IFCSHAPEREPRESENTATION(#12,'Body','Brep',(#877));
#880= IFCPRODUCTDEFINITIONSHAPE($,$,(#879));
#881= IFCCARTESIANPOINT((1440.05205548616,6306.99725341797,16869.9995422363));
#882= IFCDIRECTION((0.,0.,-1.));
#883= IFCDIRECTION((-1.,0.,0.));
#884= IFCAXIS2PLACEMENT3D(#881,#882,#883);
#885= IFCLOCALPLACEMENT(#42,#884);
#886= IFCPLATE('0IUjzIn3D2qfG6$bsrw8OT',#845,'PLATE-8','PL8*230',$,#885,#880,'ID127adf52-c433-42d2-9406-fe5db5e8861d');
#887= IFCPLATETYPE('32MzvB1i5DsRFJFdUK5X3h',#5,'PL8*230',$,$,$,$,$,$,.NOTDEFINED.);
#888= IFCPROPERTYSINGLEVALUE('Bottom elevation',$,IFCLABEL(' +16.640'),$);
#889= IFCPROPERTYSINGLEVALUE('Top elevation',$,IFCLABEL(' +16.870'),$);
#890= IFCPROPERTYSINGLEVALUE('Initial GUID',$,$,$);
#891= IFCPROPERTYSINGLEVALUE('Preliminary mark',$,IFCLABEL('5-2-P75(?)'),$);
#892= IFCPROPERTYSINGLEVALUE('Phase',$,IFCINTEGER(4),$);
#893= IFCPROPERTYSINGLEVALUE('Class',$,IFCLABEL('17'),$);
#894= IFCPROPERTYSET('0Yb_PG4cX2deYgHSthzbBO',#5,'Tekla Common','Common Properties to Shared building elements',(#888,#889,#890,#891,#892,#893));
#895= IFCPROPERTYSINGLEVALUE('Weight',$,IFCMASSMEASURE(4.55),$);
#896= IFCPROPERTYSINGLEVALUE('Volume',$,IFCVOLUMEMEASURE(0.001),$);
#897= IFCPROPERTYSINGLEVALUE('Gross footprint area',$,IFCAREAMEASURE(0.003),$);
#898= IFCPROPERTYSINGLEVALUE('Area per tons',$,IFCAREAMEASURE(33.764),$);
#899= IFCPROPERTYSINGLEVALUE('Net surface area',$,IFCAREAMEASURE(0.154),$);
#900= IFCPROPERTYSINGLEVALUE('Height',$,IFCLENGTHMEASURE(230.),$);
#901= IFCPROPERTYSINGLEVALUE('Width',$,IFCLENGTHMEASURE(8.),$);
#902= IFCPROPERTYSINGLEVALUE('Length',$,IFCLENGTHMEASURE(315.),$);
#903= IFCPROPERTYSET('3KGp3w9IX4OhW4AqvEfEM$',#5,'Tekla Quantity','Quantity Properties to Shared building elements',(#895,#896,#897,#898,#899,#900,#901,#902));
#904= IFCPROPERTYSINGLEVALUE('LoadBearing',$,IFCBOOLEAN(.F.),$);
#905= IFCPROPERTYSINGLEVALUE('Reference',$,IFCIDENTIFIER('5-2-P75'),$);
#906= IFCPROPERTYSET('08CoLEtFX0Lg1fKm3vm0Yz',#5,'Pset_PlateCommon','Common Properties to plate elements',(#904,#905));
#907= IFCQUANTITYLENGTH('Width',$,$,230.000000000004);
#908= IFCQUANTITYAREA('NetArea',$,$,0.153619665893556);
#909= IFCQUANTITYAREA('GrossArea',$,$,0.0724498385620129);
#910= IFCQUANTITYAREA('CrossSectionArea',$,$,6.4E-05);
#911= IFCQUANTITYVOLUME('NetVolume',$,$,0.000579598708496098);
#912= IFCQUANTITYVOLUME('GrossVolume',$,$,0.000579598708496098);
#913= IFCELEMENTQUANTITY('0cT2WXPCXEM8osSRTbWcjc',#5,'BaseQuantities',$,$,(#907,#908,#909,#910,#911,#912));
#914= IFCMATERIAL('STEEL/S275');
#915= IFCOWNERHISTORY(#3,#4,$,.NOCHANGE.,$,$,$,1770796800);
#916= IFCCOLOURRGB('Dark Gray',0.709803921568627,0.403921568627451,0.2);
#917= IFCSURFACESTYLERENDERING(#916,0.,$,$,$,$,IFCNORMALISEDRATIOMEASURE(0.00390625),IFCSPECULAREXPONENT(10.),.NOTDEFINED.);
#918= IFCSURFACESTYLE('STEEL/S275',.POSITIVE.,(#917));
#919= IFCPRESENTATIONSTYLEASSIGNMENT((#918));
#920= IFCCARTESIANPOINT((-9.09494701772928E-13,-5.,0.));
#921= IFCCARTESIANPOINT((-9.09494701772928E-13,-5.,230.));
#922= IFCCARTESIANPOINT((1.81898940354586E-12,5.00000000000045,230.));
#923= IFCCARTESIANPOINT((1.81898940354586E-12,5.00000000000045,0.));
#924= IFCPOLYLOOP((#920,#921,#922,#923));
#925= IFCFACEOUTERBOUND(#924,.T.);
#926= IFCFACE((#925));
#927= IFCCARTESIANPOINT((353.999542236189,-5.00000000001023,230.));
#928= IFCCARTESIANPOINT((353.999542236192,4.99999999999068,230.));
#929= IFCPOLYLOOP((#921,#927,#928,#922));
#930= IFCFACEOUTERBOUND(#929,.T.);
#931= IFCFACE((#930));
#932= IFCCARTESIANPOINT((353.999542236189,-5.00000000001023,0.));
#933= IFCCARTESIANPOINT((353.999542236192,4.99999999999068,0.));
#934= IFCPOLYLOOP((#927,#932,#933,#928));
#935= IFCFACEOUTERBOUND(#934,.T.);
#936= IFCFACE((#935));
#937= IFCPOLYLOOP((#932,#920,#923,#933));
#938= IFCFACEOUTERBOUND(#937,.T.);
#939= IFCFACE((#938));
#940= IFCPOLYLOOP((#928,#933,#923,#922));
#941= IFCFACEOUTERBOUND(#940,.T.);
#942= IFCFACE((#941));
#943= IFCPOLYLOOP((#932,#927,#921,#920));
#944= IFCFACEOUTERBOUND(#943,.T.);
#945= IFCFACE((#944));
#946= IFCCLOSEDSHELL((#926,#931,#936,#939,#942,#945));
#947= IFCFACETEDBREP(#946);
#948= IFCSTYLEDITEM(#947,(#919),$);
#949= IFCSHAPEREPRESENTATION(#12,'Body','Brep',(#947));
#950= IFCPRODUCTDEFINITIONSHAPE($,$,(#949));
#951= IFCCARTESIANPOINT((1435.02389067278,6310.99694501204,16869.9995422364));
#952= IFCDIRECTION((-6.16810000057976E-05,0.999999998097727,0.));
#953= IFCAXIS2PLACEMENT3D(#951,#882,#952);
#954= IFCLOCALPLACEMENT(#42,#953);
#955= IFCPLATE('3bRVHpOC17fhWHypSpG6kk',#915,'PLATE-10','PL10*230',$,#954,#950,'IDe56df473-60c0-47a6-b811-f33733406bae');
#956= IFCPLATETYPE('03HMIJZOT1tw4Fi9k2o$CY',#5,'PL10*230',$,$,$,$,$,$,.NOTDEFINED.);
#957= IFCPROPERTYSINGLEVALUE('Preliminary mark',$,IFCLABEL('5-2-P95(?)'),$);
#958= IFCPROPERTYSINGLEVALUE('Class',$,IFCLABEL('22'),$);
#959= IFCPROPERTYSET('0kKYD4vCH54fVeZqeIAmDP',#5,'Tekla Common','Common Properties to Shared building elements',(#888,#889,#890,#957,#892,#958));
#960= IFCPROPERTYSINGLEVALUE('Weight',$,IFCMASSMEASURE(6.39),$);
#961= IFCPROPERTYSINGLEVALUE('Gross footprint area',$,IFCAREAMEASURE(0.004),$);
#962= IFCPROPERTYSINGLEVALUE('Area per tons',$,IFCAREAMEASURE(27.305),$);
#963= IFCPROPERTYSINGLEVALUE('Net surface area',$,IFCAREAMEASURE(0.175),$);
#964= IFCPROPERTYSINGLEVALUE('Width',$,IFCLENGTHMEASURE(10.),$);
#965= IFCPROPERTYSINGLEVALUE('Length',$,IFCLENGTHMEASURE(354.),$);
#966= IFCPROPERTYSET('3nnnPq2Db9beuz70BF$TSj',#5,'Tekla Quantity','Quantity Properties to Shared building elements',(#960,#896,#961,#962,#963,#900,#964,#965));
#967= IFCPROPERTYSINGLEVALUE('Reference',$,IFCIDENTIFIER('5-2-P95'),$);
#968= IFCPROPERTYSET('3esBhy0AjEE97U1UXk2aYQ',#5,'Pset_PlateCommon','Common Properties to plate elements',(#904,#967));
#969= IFCQUANTITYLENGTH('Width',$,$,230.);
#970= IFCQUANTITYAREA('NetArea',$,$,0.174519780273438);
#971= IFCQUANTITYAREA('GrossArea',$,$,0.0814198947143556);
#972= IFCQUANTITYAREA('CrossSectionArea',$,$,0.0001);
#973= IFCQUANTITYVOLUME('NetVolume',$,$,0.000814198947143555);
#974= IFCQUANTITYVOLUME('GrossVolume',$,$,0.000814198947143555);
#975= IFCELEMENTQUANTITY('20RW9d6Iv29PbUVx5jo4qg',#5,'BaseQuantities',$,$,(#969,#970,#971,#972,#973,#974));
#976= IFCCARTESIANPOINT((85.8973922729101,-5.00000000000682,230.));
#977= IFCCARTESIANPOINT((85.8973922729101,-5.00000000000682,0.));
#978= IFCCARTESIANPOINT((85.8973922729092,4.99999999999272,0.));
#979= IFCCARTESIANPOINT((85.8973922729092,4.99999999999272,230.));
#980= IFCPOLYLOOP((#976,#977,#978,#979));
#981= IFCFACEOUTERBOUND(#980,.T.);
#982= IFCFACE((#981));
#983= IFCCARTESIANPOINT((8.4707317411885,-5.00000000000091,230.));
#984= IFCCARTESIANPOINT((8.4707317411885,-5.00000000000091,0.));
#985= IFCPOLYLOOP((#977,#976,#983,#984));
#986= IFCFACEOUTERBOUND(#985,.T.);
#987= IFCFACE((#986));
#988= IFCCARTESIANPOINT((5.1395101921662,4.99999999999909,0.));
#989= IFCPOLYLOOP((#978,#977,#984,#988));
#990= IFCFACEOUTERBOUND(#989,.T.);
#991= IFCFACE((#990));
#992= IFCCARTESIANPOINT((5.1395101921662,4.99999999999909,230.));
#993= IFCPOLYLOOP((#979,#978,#988,#992));
#994= IFCFACEOUTERBOUND(#993,.T.);
#995= IFCFACE((#994));
#996= IFCPOLYLOOP((#976,#979,#992,#983));
#997= IFCFACEOUTERBOUND(#996,.T.);
#998= IFCFACE((#997));
#999= IFCPOLYLOOP((#988,#984,#983,#992));
#1000= IFCFACEOUTERBOUND(#999,.T.);
#1001= IFCFACE((#1000));
#1002= IFCCLOSEDSHELL((#982,#987,#991,#995,#998,#1001));
#1003= IFCFACETEDBREP(#1002);
#1004= IFCSTYLEDITEM(#1003,(#919),$);
#1005= IFCSHAPEREPRESENTATION(#12,'Body','Brep',(#1003));
#1006= IFCPRODUCTDEFINITIONSHAPE($,$,(#1005));
#1007= IFCCARTESIANPOINT((1432.59226912414,6309.45335558159,16869.9995422363));
#1008= IFCDIRECTION((0.316122177858305,-0.948718487574751,0.));
#1009= IFCAXIS2PLACEMENT3D(#1007,#882,#1008);
#1010= IFCLOCALPLACEMENT(#42,#1009);
#1011= IFCPLATE('13Fm9FXJH3Gg0gfszHjLdd',#915,'PLATE-10','PL10*80.8',$,#1010,#1006,'ID433f024f-8534-4342-a02a-a76f51b559e7');
#1012= IFCPLATETYPE('3gAWxvMGP5yvQsiBoaWBP3',#5,'PL10*80.8',$,$,$,$,$,$,.NOTDEFINED.);
#1013= IFCPROPERTYSINGLEVALUE('Preliminary mark',$,IFCLABEL('5-2-P111(?)'),$);
#1014= IFCPROPERTYSET('3$Nq26o6z82e48GFx_moI9',#5,'Tekla Common','Common Properties to Shared building elements',(#888,#889,#890,#1013,#892,#958));
#1015= IFCPROPERTYSINGLEVALUE('Weight',$,IFCMASSMEASURE(1.43),$);
#1016= IFCPROPERTYSINGLEVALUE('Volume',$,IFCVOLUMEMEASURE(0.),$);
#1017= IFCPROPERTYSINGLEVALUE('Gross footprint area',$,IFCAREAMEASURE(0.001),$);
#1018= IFCPROPERTYSINGLEVALUE('Area per tons',$,IFCAREAMEASURE(29.894),$);
#1019= IFCPROPERTYSINGLEVALUE('Net surface area',$,IFCAREAMEASURE(0.043),$);
#1020= IFCPROPERTYSINGLEVALUE('Height',$,IFCLENGTHMEASURE(80.8),$);
#1021= IFCPROPERTYSINGLEVALUE('Length',$,IFCLENGTHMEASURE(230.),$);
#1022= IFCPROPERTYSET('3IkXmhYnbA_hyuDYqL7ELC',#5,'Tekla Quantity','Quantity Properties to Shared building elements',(#1015,#1016,#1017,#1018,#1019,#1020,#964,#1021));
#1023= IFCPROPERTYSINGLEVALUE('Reference',$,IFCIDENTIFIER('5-2-P111'),$);
#1024= IFCPROPERTYSET('0zQgB_5nf42gGOo5kNHxk2',#5,'Pset_PlateCommon','Common Properties to plate elements',(#904,#1023));
#1025= IFCQUANTITYLENGTH('Width',$,$,80.7578820807156);
#1026= IFCQUANTITYAREA('NetArea',$,$,0.0426885495484838);
#1027= IFCQUANTITYAREA('GrossArea',$,$,0.0185743128785646);
#1028= IFCQUANTITYVOLUME('NetVolume',$,$,0.000181912224004417);
#1029= IFCQUANTITYVOLUME('GrossVolume',$,$,0.000197564002227783);
#1030= IFCELEMENTQUANTITY('1e393UCGz2q8WwrFpc_RWc',#5,'BaseQuantities',$,$,(#1025,#1026,#1027,#972,#1028,#1029));
#1031= IFCSHAPEREPRESENTATION(#12,'Body','Brep',(#947));
#1032= IFCPRODUCTDEFINITIONSHAPE($,$,(#1031));
#1033= IFCCARTESIANPOINT((1434.9718911983,-3279.00275754925,16869.9995422363));
#1034= IFCAXIS2PLACEMENT3D(#1033,#882,#8);
#1035= IFCLOCALPLACEMENT(#42,#1034);
#1036= IFCPLATE('2HZK$5iUj9_8DFW7ABUz4v',#915,'PLATE-10','PL10*230',$,#1035,#1032,'ID918d4fc5-b1eb-49f8-834f-80728b7bd139');
#1037= IFCCARTESIANPOINT((85.8787002563363,-4.99999999999955,230.));
#1038= IFCCARTESIANPOINT((85.8787002563363,-4.99999999999955,3.63797880709171E-12));
#1039= IFCCARTESIANPOINT((85.8787002563367,5.00000000000136,3.63797880709171E-12));
#1040= IFCCARTESIANPOINT((85.8787002563367,5.00000000000136,230.));
#1041= IFCPOLYLOOP((#1037,#1038,#1039,#1040));
#1042= IFCFACEOUTERBOUND(#1041,.T.);
#1043= IFCFACE((#1042));
#1044= IFCCARTESIANPOINT((8.43362286988167,5.00000000000045,230.));
#1045= IFCCARTESIANPOINT((5.09680304432095,-5.00000000000045,230.));
#1046= IFCPOLYLOOP((#1037,#1040,#1044,#1045));
#1047= IFCFACEOUTERBOUND(#1046,.T.);
#1048= IFCFACE((#1047));
#1049= IFCCARTESIANPOINT((5.09680304432095,-5.00000000000045,0.));
#1050= IFCPOLYLOOP((#1038,#1037,#1045,#1049));
#1051= IFCFACEOUTERBOUND(#1050,.T.);
#1052= IFCFACE((#1051));
#1053= IFCCARTESIANPOINT((8.43362286988167,5.00000000000045,0.));
#1054= IFCPOLYLOOP((#1039,#1038,#1049,#1053));
#1055= IFCFACEOUTERBOUND(#1054,.T.);
#1056= IFCFACE((#1055));
#1057= IFCPOLYLOOP((#1040,#1039,#1053,#1044));
#1058= IFCFACEOUTERBOUND(#1057,.T.);
#1059= IFCFACE((#1058));
#1060= IFCPOLYLOOP((#1049,#1045,#1044,#1053));
#1061= IFCFACEOUTERBOUND(#1060,.T.);
#1062= IFCFACE((#1061));
#1063= IFCCLOSEDSHELL((#1043,#1048,#1052,#1056,#1059,#1062));
#1064= IFCFACETEDBREP(#1063);
#1065= IFCSTYLEDITEM(#1064,(#919),$);
#1066= IFCSHAPEREPRESENTATION(#12,'Body','Brep',(#1064));
#1067= IFCPRODUCTDEFINITIONSHAPE($,$,(#1066));
#1068= IFCCARTESIANPOINT((1432.56275159975,-2923.42058163752,16869.9995422363));
#1069= IFCDIRECTION((0.316526826002732,0.948583559008186,0.));
#1070= IFCAXIS2PLACEMENT3D(#1068,#882,#1069);
#1071= IFCLOCALPLACEMENT(#42,#1070);
#1072= IFCPLATE('2xMdYj8x9Bgv8Jl$kGJt5O',#915,'PLATE-10','PL10*80.8',$,#1071,#1067,'IDbb5a78ad-23b2-4bab-9213-bffb904f7158');
#1073= IFCPROPERTYSINGLEVALUE('Area per tons',$,IFCAREAMEASURE(29.893),$);
#1074= IFCPROPERTYSET('2J_Eu_vLH7SBHeV4vk$2Ad',#5,'Tekla Quantity','Quantity Properties to Shared building elements',(#1015,#1016,#1017,#1073,#1019,#1020,#964,#1021));
#1075= IFCQUANTITYLENGTH('Width',$,$,80.7818972120054);
#1076= IFCQUANTITYAREA('NetArea',$,$,0.0426991404766745);
#1077= IFCQUANTITYAREA('GrossArea',$,$,0.0185798363587612);
#1078= IFCQUANTITYVOLUME('NetVolume',$,$,0.000181961020788263);
#1079= IFCQUANTITYVOLUME('GrossVolume',$,$,0.000197521010589602);
#1080= IFCELEMENTQUANTITY('3DDjnl2y13mwUjlEqokm2k',#5,'BaseQuantities',$,$,(#1075,#1076,#1077,#972,#1078,#1079));
#1081= IFCCARTESIANPOINT((314.979492187497,-3.99999999999091,230.));
#1082= IFCCARTESIANPOINT((314.979492187497,4.00000000001091,230.));
#1083= IFCPOLYLOOP((#851,#1081,#1082,#852));
#1084= IFCFACEOUTERBOUND(#1083,.T.);
#1085= IFCFACE((#1084));
#1086= IFCCARTESIANPOINT((314.979492187497,-3.99999999999091,0.));
#1087= IFCCARTESIANPOINT((314.979492187497,4.00000000001091,0.));
#1088= IFCPOLYLOOP((#1081,#1086,#1087,#1082));
#1089= IFCFACEOUTERBOUND(#1088,.T.);
#1090= IFCFACE((#1089));
#1091= IFCPOLYLOOP((#1086,#850,#853,#1087));
#1092= IFCFACEOUTERBOUND(#1091,.T.);
#1093= IFCFACE((#1092));
#1094= IFCPOLYLOOP((#1082,#1087,#853,#852));
#1095= IFCFACEOUTERBOUND(#1094,.T.);
#1096= IFCFACE((#1095));
#1097= IFCPOLYLOOP((#1086,#1081,#851,#850));
#1098= IFCFACEOUTERBOUND(#1097,.T.);
#1099= IFCFACE((#1098));
#1100= IFCCLOSEDSHELL((#856,#1085,#1090,#1093,#1096,#1099));
#1101= IFCFACETEDBREP(#1100);
#1102= IFCSTYLEDITEM(#1101,(#849),$);
#1103= IFCSHAPEREPRESENTATION(#12,'Body','Brep',(#1101));
#1104= IFCPRODUCTDEFINITIONSHAPE($,$,(#1103));
#1105= IFCCARTESIANPOINT((1439.97190392345,-2921.00321975864,16869.9995422363));
#1106= IFCDIRECTION((-0.999999999998872,1.50199999936891E-06,0.));
#1107= IFCAXIS2PLACEMENT3D(#1105,#882,#1106);
#1108= IFCLOCALPLACEMENT(#42,#1107);
#1109= IFCPLATE('2TkPp_fxHFNwkc9FxBp2d0',#845,'PLATE-8','PL8*230',$,#1108,#1104,'ID9db99cfe-a7b4-4f5f-aba6-24fecbcc29c0');
#1110= IFCQUANTITYAREA('NetArea',$,$,0.15361023828125);
#1111= IFCQUANTITYAREA('GrossArea',$,$,0.072445283203125);
#1112= IFCQUANTITYVOLUME('NetVolume',$,$,0.000579562265624999);
#1113= IFCQUANTITYVOLUME('GrossVolume',$,$,0.000579562265624999);
#1114= IFCELEMENTQUANTITY('1Gq$qvYIvDcBzQnAurBgfR',#5,'BaseQuantities',$,$,(#969,#1110,#1111,#910,#1112,#1113));
#1115= IFCSHAPEREPRESENTATION(#12,'Body','Brep',(#877));
#1116= IFCPRODUCTDEFINITIONSHAPE($,$,(#1115));
#1117= IFCCARTESIANPOINT((1440.00205548616,6668.99725341797,16869.9995422363));
#1118= IFCAXIS2PLACEMENT3D(#1117,#882,#883);
#1119= IFCLOCALPLACEMENT(#42,#1118);
#1120= IFCPLATE('1gewLrVZX3vvkFvluuZr4e',#845,'PLATE-8','PL8*230',$,#1119,#1116,'ID6aa3a575-7e38-43e7-9b8f-e6fe388f5128');
#1121= IFCCARTESIANPOINT((314.966918945313,-3.99999999997408,230.));
#1122= IFCCARTESIANPOINT((314.966918945312,4.00000000002592,230.));
#1123= IFCPOLYLOOP((#851,#1121,#1122,#852));
#1124= IFCFACEOUTERBOUND(#1123,.T.);
#1125= IFCFACE((#1124));
#1126= IFCCARTESIANPOINT((314.966918945313,-3.99999999997408,-3.63797880709171E-12));
#1127= IFCCARTESIANPOINT((314.966918945312,4.00000000002592,-3.63797880709171E-12));
#1128= IFCPOLYLOOP((#1121,#1126,#1127,#1122));
#1129= IFCFACEOUTERBOUND(#1128,.T.);
#1130= IFCFACE((#1129));
#1131= IFCPOLYLOOP((#1126,#850,#853,#1127));
#1132= IFCFACEOUTERBOUND(#1131,.T.);
#1133= IFCFACE((#1132));
#1134= IFCPOLYLOOP((#1122,#1127,#853,#852));
#1135= IFCFACEOUTERBOUND(#1134,.T.);
#1136= IFCFACE((#1135));
#1137= IFCPOLYLOOP((#1126,#1121,#851,#850));
#1138= IFCFACEOUTERBOUND(#1137,.T.);
#1139= IFCFACE((#1138));
#1140= IFCCLOSEDSHELL((#856,#1125,#1130,#1133,#1136,#1139));
#1141= IFCFACETEDBREP(#1140);
#1142= IFCSTYLEDITEM(#1141,(#849),$);
#1143= IFCSHAPEREPRESENTATION(#12,'Body','Brep',(#1141));
#1144= IFCPRODUCTDEFINITIONSHAPE($,$,(#1143));
#1145= IFCCARTESIANPOINT((1439.97189105188,-3283.00275764473,16869.9995422363));
#1146= IFCAXIS2PLACEMENT3D(#1145,#882,#883);
#1147= IFCLOCALPLACEMENT(#42,#1146);
#1148= IFCPLATE('2RyZPfVPvE6gtuzIDeyTpZ',#845,'PLATE-8','PL8*230',$,#1147,#1144,'ID9bf23669-7d9e-4e1a-adf8-f52368f1dce3');
#1149= IFCQUANTITYAREA('NetArea',$,$,0.15360425341797);
#1150= IFCQUANTITYAREA('GrossArea',$,$,0.072442391357423);
#1151= IFCQUANTITYVOLUME('NetVolume',$,$,0.00057953913085938);
#1152= IFCQUANTITYVOLUME('GrossVolume',$,$,0.00057953913085938);
#1153= IFCELEMENTQUANTITY('3IOd5othzCDOEp$gXJW8VV',#5,'BaseQuantities',$,$,(#907,#1149,#1150,#910,#1151,#1152));
#1154= IFCCOLOURRGB('Dark Blue',0.117647058823529,0.262745098039216,0.513725490196078);
#1155= IFCSURFACESTYLERENDERING(#1154,0.,$,$,$,$,IFCNORMALISEDRATIOMEASURE(0.00390625),IFCSPECULAREXPONENT(10.),.NOTDEFINED.);
#1156= IFCSURFACESTYLE('STEEL/S275',.POSITIVE.,(#1155));
#1157= IFCPRESENTATIONSTYLEASSIGNMENT((#1156));
#1158= IFCCARTESIANPOINT((9555.0024712711,115.,-165.));
#1159= IFCCARTESIANPOINT((9523.38304719065,115.,-165.));
#1160= IFCCARTESIANPOINT((9526.54426894153,115.,-174.487185264274));
#1161= IFCPOLYLOOP((#1158,#1159,#1160));
#1162= IFCFACEOUTERBOUND(#1161,.T.);
#1163= IFCFACE((#1162));
#1164= IFCCARTESIANPOINT((9523.38304719065,-115.,-164.999999998685));
#1165= IFCCARTESIANPOINT((9526.54426894153,-115.,-174.487185264274));
#1166= IFCPOLYLOOP((#1160,#1159,#1164,#1165));
#1167= IFCFACEOUTERBOUND(#1166,.T.);
#1168= IFCFACE((#1167));
#1169= IFCCARTESIANPOINT((9555.0024720106,-115.,-164.999999999821));
#1170= IFCPOLYLOOP((#1169,#1165,#1164));
#1171= IFCFACEOUTERBOUND(#1170,.T.);
#1172= IFCFACE((#1171));
#1173= IFCCARTESIANPOINT((0.,-115.,165.));
#1174= IFCCARTESIANPOINT((0.,115.,165.));
#1175= IFCCARTESIANPOINT((9980.,115.,165.));
#1176= IFCCARTESIANPOINT((9980.,-115.,165.));
#1177= IFCPOLYLOOP((#1173,#1174,#1175,#1176));
#1178= IFCFACEOUTERBOUND(#1177,.T.);
#1179= IFCFACE((#1178));
#1180= IFCCARTESIANPOINT((0.,115.,-149.969143977151));
#1181= IFCCARTESIANPOINT((0.,125.,-149.969143977151));
#1182= IFCCARTESIANPOINT((380.002819493792,125.,-149.969151492589));
#1183= IFCCARTESIANPOINT((380.002819493792,115.,-149.969151492589));
#1184= IFCPOLYLOOP((#1180,#1181,#1182,#1183));
#1185= IFCFACEOUTERBOUND(#1184,.T.);
#1186= IFCFACE((#1185));
#1187= IFCCARTESIANPOINT((425.099547015361,115.,-165.));
#1188= IFCCARTESIANPOINT((453.46265481049,115.,-174.485835688693));
#1189= IFCCARTESIANPOINT((456.627922640997,115.,-165.));
#1190= IFCPOLYLOOP((#1187,#1188,#1189));
#1191= IFCFACEOUTERBOUND(#1190,.T.);
#1192= IFCFACE((#1191));
#1193= IFCCARTESIANPOINT((456.627922640997,-115.,-164.999999621662));
#1194= IFCCARTESIANPOINT((453.46265481049,-115.,-174.485835688693));
#1195= IFCCARTESIANPOINT((425.099547015361,-115.,-165.));
#1196= IFCPOLYLOOP((#1193,#1194,#1195));
#1197= IFCFACEOUTERBOUND(#1196,.T.);
#1198= IFCFACE((#1197));
#1199= IFCPOLYLOOP((#1189,#1188,#1194,#1193));
#1200= IFCFACEOUTERBOUND(#1199,.T.);
#1201= IFCFACE((#1200));
#1202= IFCCARTESIANPOINT((455.00351181431,125.,-175.));
#1203= IFCCARTESIANPOINT((455.003511814311,-125.,-174.967063895018));
#1204= IFCCARTESIANPOINT((380.002819493792,-125.,-149.969151492589));
#1205= IFCCARTESIANPOINT((380.002819493792,-115.,-149.969151492589));
#1206= IFCPOLYLOOP((#1187,#1183,#1182,#1202,#1203,#1204,#1205,#1195,#1194,#1188));
#1207= IFCFACEOUTERBOUND(#1206,.T.);
#1208= IFCFACE((#1207));
#1209= IFCCARTESIANPOINT((0.,-125.,-149.969143977151));
#1210= IFCCARTESIANPOINT((0.,-115.,-149.969143977151));
#1211= IFCPOLYLOOP((#1209,#1210,#1205,#1204));
#1212= IFCFACEOUTERBOUND(#1211,.T.);
#1213= IFCFACE((#1212));
#1214= IFCCARTESIANPOINT((0.,-125.,175.));
#1215= IFCCARTESIANPOINT((0.,125.,175.));
#1216= IFCPOLYLOOP((#1214,#1215,#1181,#1180,#1174,#1173,#1210,#1209));
#1217= IFCFACEOUTERBOUND(#1216,.T.);
#1218= IFCFACE((#1217));
#1219= IFCCARTESIANPOINT((9980.,-125.,175.));
#1220= IFCCARTESIANPOINT((9980.,125.,175.));
#1221= IFCPOLYLOOP((#1215,#1214,#1219,#1220));
#1222= IFCFACEOUTERBOUND(#1221,.T.);
#1223= IFCFACE((#1222));
#1224= IFCCARTESIANPOINT((9980.,115.,-149.999308904085));
#1225= IFCCARTESIANPOINT((9980.,125.,-149.999308904085));
#1226= IFCCARTESIANPOINT((9979.99999167756,-125.,-149.999308904085));
#1227= IFCCARTESIANPOINT((9980.,-115.,-149.999308904085));
#1228= IFCPOLYLOOP((#1176,#1175,#1224,#1225,#1220,#1219,#1226,#1227));
#1229= IFCFACEOUTERBOUND(#1228,.T.);
#1230= IFCFACE((#1229));
#1231= IFCCARTESIANPOINT((9600.00037233945,115.,-149.999308657357));
#1232= IFCCARTESIANPOINT((9600.00037233945,125.180000000008,-149.999308657357));
#1233= IFCPOLYLOOP((#1224,#1231,#1232,#1225));
#1234= IFCFACEOUTERBOUND(#1233,.T.);
#1235= IFCFACE((#1234));
#1236= IFCCARTESIANPOINT((9525.00107104951,125.,-175.));
#1237= IFCPOLYLOOP((#1236,#1202,#1182,#1181,#1215,#1220,#1225,#1232));
#1238= IFCFACEOUTERBOUND(#1237,.T.);
#1239= IFCFACE((#1238));
#1240= IFCCARTESIANPOINT((9525.00107105977,-125.,-174.998426677374));
#1241= IFCPOLYLOOP((#1203,#1202,#1236,#1240));
#1242= IFCFACEOUTERBOUND(#1241,.T.);
#1243= IFCFACE((#1242));
#1244= IFCCARTESIANPOINT((9600.00037233945,-125.,-149.999308657357));
#1245= IFCPOLYLOOP((#1219,#1214,#1209,#1204,#1203,#1240,#1244,#1226));
#1246= IFCFACEOUTERBOUND(#1245,.T.);
#1247= IFCFACE((#1246));
#1248= IFCCARTESIANPOINT((9600.00037233945,-115.,-149.999308657357));
#1249= IFCPOLYLOOP((#1226,#1244,#1248,#1227));
#1250= IFCFACEOUTERBOUND(#1249,.T.);
#1251= IFCFACE((#1250));
#1252= IFCPOLYLOOP((#1193,#1195,#1205,#1210,#1173,#1176,#1227,#1248,#1169,#1164));
#1253= IFCFACEOUTERBOUND(#1252,.T.);
#1254= IFCFACE((#1253));
#1255= IFCPOLYLOOP((#1189,#1193,#1164,#1159));
#1256= IFCFACEOUTERBOUND(#1255,.T.);
#1257= IFCFACE((#1256));
#1258= IFCPOLYLOOP((#1231,#1224,#1175,#1174,#1180,#1183,#1187,#1189,#1159,#1158));
#1259= IFCFACEOUTERBOUND(#1258,.T.);
#1260= IFCFACE((#1259));
#1261= IFCPOLYLOOP((#1248,#1244,#1240,#1236,#1232,#1231,#1158,#1160,#1165,#1169));
#1262= IFCFACEOUTERBOUND(#1261,.T.);
#1263= IFCFACE((#1262));
#1264= IFCCLOSEDSHELL((#1163,#1168,#1172,#1179,#1186,#1192,#1198,#1201,#1208,#1213,#1218,#1223,#1230,#1235,#1239,#1243,#1247,#1251,#1254,#1257,#1260,#1263));
#1265= IFCFACETEDBREP(#1264);
#1266= IFCSTYLEDITEM(#1265,(#1157),$);
#1267= IFCSHAPEREPRESENTATION(#12,'Body','Brep',(#1265));
#1268= IFCPRODUCTDEFINITIONSHAPE($,$,(#1267));
#1269= IFCCARTESIANPOINT((1290.00274658204,-3297.00274658203,16754.9995422363));
#1270= IFCAXIS2PLACEMENT3D(#1269,#883,#8);
#1271= IFCLOCALPLACEMENT(#42,#1270);
#1272= IFCBEAM('043KHUti1Al9OiR$PU9mwt',#44,'B2-\S\?\S\Z350x250x10','TUB350X250X10 ',$,#1271,#1268,'ID040d445e-dec0-4abc-962c-6ff65e270eb7');
#1273= IFCBEAMTYPE('1kHemAqS1429kFYo_yfL8i',#5,'TUB350X250X10 ',$,$,$,$,$,$,.NOTDEFINED.);
#1274= IFCPROPERTYSINGLEVALUE('Bottom elevation',$,IFCLABEL(' +16.630'),$);
#1275= IFCPROPERTYSINGLEVALUE('Top elevation',$,IFCLABEL(' +16.880'),$);
#1276= IFCPROPERTYSINGLEVALUE('Preliminary mark',$,IFCLABEL('5-2-P30(?)'),$);
#1277= IFCPROPERTYSINGLEVALUE('Class',$,IFCLABEL('4'),$);
#1278= IFCPROPERTYSET('1te_4KpOP3sRAWj3956zJA',#5,'Tekla Common','Common Properties to Shared building elements',(#1274,#1275,#890,#1276,#892,#1277));
#1279= IFCPROPERTYSINGLEVALUE('Weight',$,IFCMASSMEASURE(888.87),$);
#1280= IFCPROPERTYSINGLEVALUE('Volume',$,IFCVOLUMEMEASURE(0.113),$);
#1281= IFCPROPERTYSINGLEVALUE('Gross footprint area',$,IFCAREAMEASURE(3.472),$);
#1282= IFCPROPERTYSINGLEVALUE('Area per tons',$,IFCAREAMEASURE(13.14),$);
#1283= IFCPROPERTYSINGLEVALUE('Net surface area',$,IFCAREAMEASURE(11.68),$);
#1284= IFCPROPERTYSINGLEVALUE('Height',$,IFCLENGTHMEASURE(350.),$);
#1285= IFCPROPERTYSINGLEVALUE('Width',$,IFCLENGTHMEASURE(250.2),$);
#1286= IFCPROPERTYSINGLEVALUE('Length',$,IFCLENGTHMEASURE(9980.),$);
#1287= IFCPROPERTYSET('1gi$7AMxr78AogfWPL2yiz',#5,'Tekla Quantity','Quantity Properties to Shared building elements',(#1279,#1280,#1281,#1282,#1283,#1284,#1285,#1286));
#1288= IFCPROPERTYSINGLEVALUE('Reference',$,IFCIDENTIFIER('5-2-P30'),$);
#1289= IFCPROPERTYSET('2gbk7SUSrF9R8iWeLeezux',#5,'Pset_BeamCommon','Common Properties to beam elements',(#904,#1288));
#1290= IFCQUANTITYLENGTH('Length',$,$,9980.);
#1291= IFCQUANTITYAREA('OuterSurfaceArea',$,$,11.6796494991752);
#1292= IFCQUANTITYVOLUME('NetVolume',$,$,0.11323135029951);
#1293= IFCQUANTITYWEIGHT('NetWeight',$,$,888.866099851155);
#1294= IFCELEMENTQUANTITY('0fDcMdzOH9mwTZqGVW06VL',#5,'BaseQuantities',$,$,(#1290,#1291,#1292,#1293));
#1295= IFCRELAGGREGATES('1wD96eE35Bpu0Y2lGFe045',#5,$,$,#37,(#39));
#1296= IFCRELAGGREGATES('149BZJ5cnCyQkcbiM5C4zr',#5,$,$,#39,(#41));
#1297= IFCRELAGGREGATES('1sCzC$FPjF1AmluTACjRHk',#5,$,$,#41,(#43));
#1298= IFCRELCONTAINEDINSPATIALSTRUCTURE('2_RpbLtTr9dByVN9RyW7R$',#5,$,$,(#1272,#1148,#1120,#1109,#1072,#1036,#1011,#955,#886,#844,#837,#830,#823,#816,#809,#802,#795,#788,#780,#772,#764,#756,#747,#738,#721,#638,#575,#512,#434,#356,#293,#230,#133),#43);
#1299= IFCRELDEFINESBYPROPERTIES('3GlsZCsxX6X8MghF2XCTTA',#5,$,$,(#638,#575,#512,#434,#356,#293,#230,#133),#151);
#1300= IFCRELDEFINESBYPROPERTIES('0eKaq1vYnDKA_YSItHgODc',#5,$,$,(#844,#837,#830,#823,#816,#809,#802,#795,#788,#780,#772,#764,#756,#747,#738,#721),#728);
#1301= IFCRELDEFINESBYPROPERTIES('3i4Sra5TDA6OUEKQH2sJZl',#5,$,$,(#1148,#1120,#1109,#886),#894);
#1302= IFCRELDEFINESBYPROPERTIES('2MS6xaXVD2vhW6eLrIlvn0',#5,$,$,(#1148,#1120,#1109,#886),#903);
#1303= IFCRELDEFINESBYPROPERTIES('1nUkRsuR56nQDd6QzQPtNa',#5,$,$,(#1148,#1120,#1109,#886),#906);
#1304= IFCRELDEFINESBYPROPERTIES('19bfuPA158wv_SVuUqYwmU',#5,$,$,(#1120,#886),#913);
#1305= IFCRELDEFINESBYPROPERTIES('3voclCqxL1k9QDF5QWtPb0',#5,$,$,(#1036,#955),#959);
#1306= IFCRELDEFINESBYPROPERTIES('2fK3L3h8z249cbihiMPClB',#5,$,$,(#1036,#955),#966);
#1307= IFCRELDEFINESBYPROPERTIES('0kD7p3T351uhFXR1$k6kRN',#5,$,$,(#1036,#955),#968);
#1308= IFCRELDEFINESBYPROPERTIES('2P_Mt4pnjFVg3ErmEZHLZj',#5,$,$,(#1036,#955),#975);
#1309= IFCRELDEFINESBYPROPERTIES('2gKEaG1Fr0l9Z0sKlzxo6W',#5,$,$,(#1072,#1011),#1014);
#1310= IFCRELDEFINESBYPROPERTIES('0wQhjWIsXBGB$Dzj7uRwLo',#5,$,$,(#1011),#1022);
#1311= IFCRELDEFINESBYPROPERTIES('2FDTuM_EXEbwRR1B9Eavz$',#5,$,$,(#1072,#1011),#1024);
#1312= IFCRELDEFINESBYPROPERTIES('27FDYRskz15fQI12xZJ2MN',#5,$,$,(#1011),#1030);
#1313= IFCRELDEFINESBYPROPERTIES('1_j2ymErvFoeOJWBIWDdPx',#5,$,$,(#1072),#1074);
#1314= IFCRELDEFINESBYPROPERTIES('1KUYya2pnB3OwE2wgcY$lz',#5,$,$,(#1072),#1080);
#1315= IFCRELDEFINESBYPROPERTIES('0BDriemk10I8xXZpAE3Nu$',#5,$,$,(#1109),#1114);
#1316= IFCRELDEFINESBYPROPERTIES('2cbkdaTTvAShcdRbAEqjuV',#5,$,$,(#1148),#1153);
#1317= IFCRELDEFINESBYPROPERTIES('0xvZSbjqn5LgL0NFuZikhb',#5,$,$,(#1272),#1278);
#1318= IFCRELDEFINESBYPROPERTIES('1XKexhz3P6E8lcKA72n6si',#5,$,$,(#1272),#1287);
#1319= IFCRELDEFINESBYPROPERTIES('3S17DHl_55RR8hNlhfDgCC',#5,$,$,(#1272),#1289);
#1320= IFCRELDEFINESBYPROPERTIES('33WOx74b94sgmwixyyl56e',#5,$,$,(#1272),#1294);
#1321= IFCRELDEFINESBYTYPE('0tyoPAPXzDOuxx0BZwhojq',#5,$,$,(#844,#837,#830,#823,#816,#809,#802,#795,#788,#780,#772,#764,#756,#747,#738,#721,#638,#575,#512,#434,#356,#293,#230,#133),#134);
#1322= IFCRELDEFINESBYTYPE('2Z0CA808z4PvPoXlJEH5jQ',#5,$,$,(#1148,#1120,#1109,#886),#887);
#1323= IFCRELDEFINESBYTYPE('03NgvgS$199uz4_C8GWsYm',#5,$,$,(#1036,#955),#956);
#1324= IFCRELDEFINESBYTYPE('0pmhIBhZT0uvaqKQgfcw_$',#5,$,$,(#1072,#1011),#1012);
#1325= IFCRELDEFINESBYTYPE('0xhx_WQ41DEvQNe814PweR',#5,$,$,(#1272),#1273);
#1326= IFCRELASSOCIATESMATERIAL('3PybCJew53NRh1Y00eCCdK',#5,$,$,(#638,#575,#512,#434,#356,#293,#230,#133),#152);
#1327= IFCRELASSOCIATESMATERIAL('3dThEkcL99jA2SdRiV4poD',#5,$,$,(#844,#837,#830,#823,#816,#809,#802,#795,#788,#780,#772,#764,#756,#747,#738,#721),#729);
#1328= IFCRELASSOCIATESMATERIAL('1LK_nH9XTA4AYOH9HoXqnu',#5,$,$,(#1272,#1148,#1120,#1109,#1072,#1036,#1011,#955,#886),#914);
#1329= IFCPRESENTATIONLAYERASSIGNMENT('BoltArray',$,(#126,#225,#288,#351,#429,#507,#570,#633,#714,#731,#740,#749,#758,#766,#774,#782,#790,#797,#804,#811,#818,#825,#832,#839),$);
#1330= IFCPRESENTATIONLAYERASSIGNMENT('PLATE-8',$,(#879,#1103,#1115,#1143),$);
#1331= IFCPRESENTATIONLAYERASSIGNMENT('PLATE-10',$,(#949,#1005,#1031,#1066),$);
#1332= IFCPRESENTATIONLAYERASSIGNMENT('B2-\S\?\S\Z350x250x10',$,(#1267),$);
ENDSEC;

END-ISO-10303-21;
