ISO-10303-21;
HEADER;
FILE_DESCRIPTION(('ViewDefinition[CoordinationView_V2.0, QuantityTakeOffAddOnView]', 'ExchangeRequirement[Structural, SurfaceGeometry]', 'Option [BaseQuantities:On]', 'Option [GridExport:On]', 'Option [Assemblies:Off]', 'Option [Bolts:On]', 'Option [Rebars:On]', 'Option [PourObjects:Off]', 'Option [Welds:Off]', 'Option [SurfaceTreatments:On]', 'Option [LocationBy:0]', 'Option [ViewColors:Off]', 'Option [SectionedSpine:Off]', 'Option [PropertySets:On]', 'Option [Export all:Off]'),'2;1');
FILE_NAME('5-2-A24_4.ifc','2026-03-10T08:04:13',('DESKTOP-NLV509P\\Ahmed'),('Structural Designer'),'IFC Parser version: 3.13.2','Tekla Structures 2023 Service Pack 8, IFC Export Version: 4.0.0.0 Jan 19 2024','');
FILE_SCHEMA(('IFC2X3'));
ENDSEC;

DATA;
#1= IFCPERSON('DESKTOP-NLV509P\\Ahmed','Undefined',$,$,$,$,$,$);
#2= IFCORGANIZATION($,'Trimble Solutions Corporation',$,$,$);
#3= IFCPERSONANDORGANIZATION(#1,#2,$);
#4= IFCAPPLICATION(#2,'2023 Service Pack 8','Tekla Structures','Multi material modeling');
#5= IFCOWNERHISTORY(#3,#4,$,.NOCHANGE.,$,$,$,1773119053);
#6= IFCCARTESIANPOINT((0.,0.,0.));
#7= IFCDIRECTION((1.,0.,0.));
#8= IFCDIRECTION((0.,1.,0.));
#9= IFCDIRECTION((0.,0.,1.));
#10= IFCAXIS2PLACEMENT3D(#6,#9,#7);
#11= IFCGEOMETRICREPRESENTATIONCONTEXT($,'Model',3,1.E-05,#10,$);
#12= IFCGEOMETRICREPRESENTATIONSUBCONTEXT('Body','Model',*,*,*,*,#11,$,.MODEL_VIEW.,$);
#13= IFCGEOMETRICREPRESENTATIONSUBCONTEXT('Axis','Model',*,*,*,*,#11,$,.GRAPH_VIEW.,$);
#14= IFCGEOMETRICREPRESENTATIONSUBCONTEXT('FootPrint','Model',*,*,*,*,#11,$,.MODEL_VIEW.,$);
#15= IFCSIUNIT(*,.LENGTHUNIT.,.MILLI.,.METRE.);
#16= IFCMEASUREWITHUNIT(IFCRATIOMEASURE(304.8),#15);
#17= IFCDIMENSIONALEXPONENTS(1,0,0,0,0,0,0);
#18= IFCCONVERSIONBASEDUNIT(#17,.LENGTHUNIT.,'FOOT',#16);
#19= IFCSIUNIT(*,.AREAUNIT.,$,.SQUARE_METRE.);
#20= IFCMEASUREWITHUNIT(IFCRATIOMEASURE(0.09290304),#19);
#21= IFCDIMENSIONALEXPONENTS(2,0,0,0,0,0,0);
#22= IFCCONVERSIONBASEDUNIT(#21,.AREAUNIT.,'SQUARE FOOT',#20);
#23= IFCSIUNIT(*,.VOLUMEUNIT.,$,.CUBIC_METRE.);
#24= IFCMEASUREWITHUNIT(IFCRATIOMEASURE(0.028316846592),#23);
#25= IFCDIMENSIONALEXPONENTS(3,0,0,0,0,0,0);
#26= IFCCONVERSIONBASEDUNIT(#25,.VOLUMEUNIT.,'CUBIC FOOT',#24);
#27= IFCSIUNIT(*,.MASSUNIT.,.KILO.,.GRAM.);
#28= IFCSIUNIT(*,.TIMEUNIT.,$,.SECOND.);
#29= IFCSIUNIT(*,.PLANEANGLEUNIT.,$,.RADIAN.);
#30= IFCMEASUREWITHUNIT(IFCRATIOMEASURE(0.0174532925199433),#29);
#31= IFCDIMENSIONALEXPONENTS(0,0,0,0,0,0,0);
#32= IFCCONVERSIONBASEDUNIT(#31,.PLANEANGLEUNIT.,'DEGREE',#30);
#33= IFCSIUNIT(*,.SOLIDANGLEUNIT.,$,.STERADIAN.);
#34= IFCSIUNIT(*,.THERMODYNAMICTEMPERATUREUNIT.,$,.DEGREE_CELSIUS.);
#35= IFCSIUNIT(*,.LUMINOUSINTENSITYUNIT.,$,.LUMEN.);
#36= IFCUNITASSIGNMENT((#15,#19,#23,#27,#28,#29,#33,#34,#35));
#37= IFCPROJECT('3qWMloSpP6jfJD42SQxe9X',#5,'Undefined',$,$,$,$,(#11),#36);
#38= IFCLOCALPLACEMENT($,#10);
#39= IFCSITE('05_4VIwnH05wtdS7iiaqvL',#5,'Undefined',$,$,#38,$,$,.ELEMENT.,$,$,$,$,$);
#40= IFCLOCALPLACEMENT(#38,#10);
#41= IFCBUILDING('0XDECehHv4zAyXhOxVfaFf',#5,'Undefined',$,$,#40,$,$,.ELEMENT.,$,$,$);
#42= IFCLOCALPLACEMENT(#40,#10);
#43= IFCBUILDINGSTOREY('3gJPpYF7LCbf7I109fNVl5',#5,'Undefined',$,$,#42,$,$,.ELEMENT.,0.);
#44= IFCOWNERHISTORY(#3,#4,$,.NOCHANGE.,$,$,$,1770796800);
#45= IFCCOLOURRGB('Light Gray',0.615686274509804,0.615686274509804,0.611764705882353);
#46= IFCSURFACESTYLERENDERING(#45,0.,$,$,$,$,IFCNORMALISEDRATIOMEASURE(0.00390625),IFCSPECULAREXPONENT(10.),.NOTDEFINED.);
#47= IFCSURFACESTYLE('STEEL/S275',.POSITIVE.,(#46));
#48= IFCPRESENTATIONSTYLEASSIGNMENT((#47));
#49= IFCCARTESIANPOINT((27.9999999970969,-0.500000000214641,350.003295898474));
#50= IFCCARTESIANPOINT((27.9999999970969,-0.500000000152795,248.000002721594));
#51= IFCCARTESIANPOINT((27.9999999970969,0.499999999850843,247.999999984593));
#52= IFCCARTESIANPOINT((27.9999999970969,0.499999999785359,350.003295898478));
#53= IFCPOLYLOOP((#49,#50,#51,#52));
#54= IFCFACEOUTERBOUND(#53,.T.);
#55= IFCFACE((#54));
#56= IFCCARTESIANPOINT((28.4860842917478,-0.500000000149157,244.619212192345));
#57= IFCCARTESIANPOINT((28.4860842917478,0.499999999850843,244.619209455344));
#58= IFCPOLYLOOP((#56,#57,#51,#50));
#59= IFCFACEOUTERBOUND(#58,.T.);
#60= IFCFACE((#59));
#61= IFCCARTESIANPOINT((29.9049575169993,-0.500000000149157,241.512313205447));
#62= IFCCARTESIANPOINT((29.9049575169993,0.499999999850843,241.512310468446));
#63= IFCPOLYLOOP((#61,#62,#57,#56));
#64= IFCFACEOUTERBOUND(#63,.T.);
#65= IFCFACE((#64));
#66= IFCCARTESIANPOINT((32.1416710025005,-0.500000000145519,238.931008239371));
#67= IFCCARTESIANPOINT((32.1416710025005,0.499999999854481,238.931005502371));
#68= IFCPOLYLOOP((#66,#67,#62,#61));
#69= IFCFACEOUTERBOUND(#68,.T.);
#70= IFCFACE((#69));
#71= IFCCARTESIANPOINT((35.0150195238966,-0.500000000145519,237.084419270857));
#72= IFCCARTESIANPOINT((35.0150195238966,0.499999999854481,237.084416533857));
#73= IFCPOLYLOOP((#71,#72,#67,#66));
#74= IFCFACEOUTERBOUND(#73,.T.);
#75= IFCFACE((#74));
#76= IFCCARTESIANPOINT((38.2922214724604,-0.500000000145519,236.122145956047));
#77= IFCCARTESIANPOINT((38.2922214724604,0.499999999854481,236.122143219047));
#78= IFCPOLYLOOP((#76,#77,#72,#71));
#79= IFCFACEOUTERBOUND(#78,.T.);
#80= IFCFACE((#79));
#81= IFCCARTESIANPOINT((41.7077774365825,-0.500000000145519,236.122145956047));
#82= IFCCARTESIANPOINT((41.7077774365825,0.499999999854481,236.122143219047));
#83= IFCPOLYLOOP((#81,#82,#77,#76));
#84= IFCFACEOUTERBOUND(#83,.T.);
#85= IFCFACE((#84));
#86= IFCCARTESIANPOINT((44.9849793851463,-0.500000000145519,237.084419270857));
#87= IFCCARTESIANPOINT((44.9849793851463,0.499999999854481,237.084416533857));
#88= IFCPOLYLOOP((#86,#87,#82,#81));
#89= IFCFACEOUTERBOUND(#88,.T.);
#90= IFCFACE((#89));
#91= IFCCARTESIANPOINT((47.8583279065424,-0.500000000145519,238.931008239371));
#92= IFCCARTESIANPOINT((47.8583279065424,0.499999999854481,238.931005502371));
#93= IFCPOLYLOOP((#91,#92,#87,#86));
#94= IFCFACEOUTERBOUND(#93,.T.);
#95= IFCFACE((#94));
#96= IFCCARTESIANPOINT((50.0950413920436,-0.500000000149157,241.512313205447));
#97= IFCCARTESIANPOINT((50.0950413920436,0.499999999850843,241.512310468446));
#98= IFCPOLYLOOP((#96,#97,#92,#91));
#99= IFCFACEOUTERBOUND(#98,.T.);
#100= IFCFACE((#99));
#101= IFCCARTESIANPOINT((51.5139146172951,-0.500000000149157,244.619212192345));
#102= IFCCARTESIANPOINT((51.5139146172951,0.499999999850843,244.619209455344));
#103= IFCPOLYLOOP((#101,#102,#97,#96));
#104= IFCFACEOUTERBOUND(#103,.T.);
#105= IFCFACE((#104));
#106= IFCCARTESIANPOINT((51.999998911946,-0.500000000152795,248.000002721594));
#107= IFCCARTESIANPOINT((51.999998911946,0.499999999850843,247.999999984593));
#108= IFCPOLYLOOP((#106,#107,#102,#101));
#109= IFCFACEOUTERBOUND(#108,.T.);
#110= IFCFACE((#109));
#111= IFCCARTESIANPOINT((52.0000016093472,-0.500000000207365,350.003298376934));
#112= IFCCARTESIANPOINT((52.0000016093472,0.499999999785359,350.003295898478));
#113= IFCPOLYLOOP((#111,#112,#107,#106));
#114= IFCFACEOUTERBOUND(#113,.T.);
#115= IFCFACE((#114));
#116= IFCCARTESIANPOINT((0.,-0.5,-3.63797880709171E-12));
#117= IFCCARTESIANPOINT((-5.66797098144889E-09,-0.500000000214641,350.003295898474));
#118= IFCCARTESIANPOINT((-5.66797098144889E-09,0.499999999785359,350.003295898478));
#119= IFCCARTESIANPOINT((0.,0.500000000003638,0.));
#120= IFCPOLYLOOP((#116,#117,#118,#119));
#121= IFCFACEOUTERBOUND(#120,.T.);
#122= IFCFACE((#121));
#123= IFCCARTESIANPOINT((80.,-0.499999999996362,-1.78260961547494E-10));
#124= IFCCARTESIANPOINT((80.,0.500000000003638,-1.78260961547494E-10));
#125= IFCPOLYLOOP((#123,#116,#119,#124));
#126= IFCFACEOUTERBOUND(#125,.T.);
#127= IFCFACE((#126));
#128= IFCCARTESIANPOINT((80.,-0.500000000214641,350.003295898474));
#129= IFCCARTESIANPOINT((80.,0.499999999785359,350.003295898478));
#130= IFCPOLYLOOP((#128,#123,#124,#129));
#131= IFCFACEOUTERBOUND(#130,.T.);
#132= IFCFACE((#131));
#133= IFCPOLYLOOP((#101,#96,#91,#86,#81,#76,#71,#66,#61,#56,#50,#49,#117,#116,#123,#128,#111,#106));
#134= IFCFACEOUTERBOUND(#133,.T.);
#135= IFCFACE((#134));
#136= IFCPOLYLOOP((#118,#117,#49,#52));
#137= IFCFACEOUTERBOUND(#136,.T.);
#138= IFCFACE((#137));
#139= IFCPOLYLOOP((#129,#124,#119,#118,#52,#51,#57,#62,#67,#72,#77,#82,#87,#92,#97,#102,#107,#112));
#140= IFCFACEOUTERBOUND(#139,.T.);
#141= IFCFACE((#140));
#142= IFCPOLYLOOP((#128,#129,#112,#111));
#143= IFCFACEOUTERBOUND(#142,.T.);
#144= IFCFACE((#143));
#145= IFCCLOSEDSHELL((#55,#60,#65,#70,#75,#80,#85,#90,#95,#100,#105,#110,#115,#122,#127,#132,#135,#138,#141,#144));
#146= IFCFACETEDBREP(#145);
#147= IFCSTYLEDITEM(#146,(#48),$);
#148= IFCSHAPEREPRESENTATION(#12,'Body','Brep',(#146));
#149= IFCPRODUCTDEFINITIONSHAPE($,$,(#148));
#150= IFCCARTESIANPOINT((52919.9935661073,27738.0040143162,16884.48923281));
#151= IFCDIRECTION((0.,-0.999999999996254,2.73699999888777E-06));
#152= IFCDIRECTION((-1.,0.,0.));
#153= IFCAXIS2PLACEMENT3D(#150,#151,#152);
#154= IFCLOCALPLACEMENT(#42,#153);
#155= IFCPLATE('1n7g6mq_f4zApxG2bbtizI',#44,'PLATE-1','PL1*80',$,#154,#149,'ID711ea1b0-d3ea-44f4-acfb-402965decf52');
#156= IFCPLATETYPE('1PPXhVCErCrfU4gWlvoNwn',#5,'PL1*80',$,$,$,$,$,$,.NOTDEFINED.);
#157= IFCPROPERTYSINGLEVALUE('Bottom elevation',$,IFCLABEL(' +16.884'),$);
#158= IFCPROPERTYSINGLEVALUE('Top elevation',$,IFCLABEL(' +16.885'),$);
#159= IFCPROPERTYSINGLEVALUE('Initial GUID',$,$,$);
#160= IFCPROPERTYSINGLEVALUE('Preliminary mark',$,IFCLABEL('5-2-P40'),$);
#161= IFCPROPERTYSINGLEVALUE('Phase',$,IFCINTEGER(4),$);
#162= IFCPROPERTYSINGLEVALUE('Class',$,IFCLABEL('15'),$);
#163= IFCPROPERTYSET('3zpiG0LlX3Qx1k1_Q1qvtj',#5,'Tekla Common','Common Properties to Shared building elements',(#157,#158,#159,#160,#161,#162));
#164= IFCPROPERTYSINGLEVALUE('Weight',$,IFCMASSMEASURE(0.2),$);
#165= IFCPROPERTYSINGLEVALUE('Volume',$,IFCVOLUMEMEASURE(0.),$);
#166= IFCPROPERTYSINGLEVALUE('Gross footprint area',$,IFCAREAMEASURE(0.025),$);
#167= IFCPROPERTYSINGLEVALUE('Area per tons',$,IFCAREAMEASURE(260.197),$);
#168= IFCPROPERTYSINGLEVALUE('Net surface area',$,IFCAREAMEASURE(0.052),$);
#169= IFCPROPERTYSINGLEVALUE('Height',$,IFCLENGTHMEASURE(80.),$);
#170= IFCPROPERTYSINGLEVALUE('Width',$,IFCLENGTHMEASURE(1.),$);
#171= IFCPROPERTYSINGLEVALUE('Length',$,IFCLENGTHMEASURE(350.),$);
#172= IFCPROPERTYSET('246ehR1b1Df9gJNUtRh1kU',#5,'Tekla Quantity','Quantity Properties to Shared building elements',(#164,#165,#166,#167,#168,#169,#170,#171));
#173= IFCPROPERTYSINGLEVALUE('LoadBearing',$,IFCBOOLEAN(.F.),$);
#174= IFCPROPERTYSINGLEVALUE('Reference',$,IFCIDENTIFIER('5-2-P40'),$);
#175= IFCPROPERTYSET('0_y14DaUz5EBURw3km7BxU',#5,'Pset_PlateCommon','Common Properties to plate elements',(#173,#174));
#176= IFCQUANTITYLENGTH('Width',$,$,80.000000005668);
#177= IFCQUANTITYAREA('NetArea',$,$,0.0517356891549463);
#178= IFCQUANTITYAREA('GrossArea',$,$,0.0280002638721885);
#179= IFCQUANTITYAREA('CrossSectionArea',$,$,1.E-06);
#180= IFCQUANTITYVOLUME('NetVolume',$,$,2.5329052423624E-05);
#181= IFCQUANTITYVOLUME('GrossVolume',$,$,2.80002636728742E-05);
#182= IFCELEMENTQUANTITY('3xILttG4rCaQxTMogBEbDQ',#5,'BaseQuantities',$,$,(#176,#177,#178,#179,#180,#181));
#183= IFCMATERIAL('STEEL/S275');
#184= IFCRELAGGREGATES('05zC4AH1X4MfcjUEGtGsPw',#5,$,$,#37,(#39));
#185= IFCRELAGGREGATES('0qTz_6IkvCMA$m2E9nuCFJ',#5,$,$,#39,(#41));
#186= IFCRELAGGREGATES('3QMZAOjaX0YhQjzSL6akcs',#5,$,$,#41,(#43));
#187= IFCRELCONTAINEDINSPATIALSTRUCTURE('0Fqd9AYzbFfBXO9esPAU0f',#5,$,$,(#155),#43);
#188= IFCRELDEFINESBYPROPERTIES('0kQf9mKKr3luCnfdd$aQuJ',#5,$,$,(#155),#163);
#189= IFCRELDEFINESBYPROPERTIES('19KSXB2Iv9JxsAcBnS87EY',#5,$,$,(#155),#172);
#190= IFCRELDEFINESBYPROPERTIES('1MjEVUL6L20842WIaA05vz',#5,$,$,(#155),#175);
#191= IFCRELDEFINESBYPROPERTIES('1StLJ3gYD9GvZ9Xv3KoT18',#5,$,$,(#155),#182);
#192= IFCRELDEFINESBYTYPE('2edcj8oWj3FhOnv7_svHx0',#5,$,$,(#155),#156);
#193= IFCRELASSOCIATESMATERIAL('3MCOvlhuTEuf0Rsuv9JUnA',#5,$,$,(#155),#183);
#194= IFCPRESENTATIONLAYERASSIGNMENT('PLATE-1',$,(#148),$);
ENDSEC;

END-ISO-10303-21;
