ISO-10303-21;
HEADER;
FILE_DESCRIPTION(('ViewDefinition[CoordinationView_V2.0, QuantityTakeOffAddOnView]', 'ExchangeRequirement[Structural, SurfaceGeometry]', 'Option [BaseQuantities:On]', 'Option [GridExport:On]', 'Option [Assemblies:Off]', 'Option [Bolts:On]', 'Option [Rebars:On]', 'Option [PourObjects:Off]', 'Option [Welds:Off]', 'Option [SurfaceTreatments:On]', 'Option [LocationBy:0]', 'Option [ViewColors:Off]', 'Option [SectionedSpine:Off]', 'Option [PropertySets:On]', 'Option [Export all:Off]'),'2;1');
FILE_NAME('5-2-A11_20.ifc','2026-03-10T08:04:13',('DESKTOP-NLV509P\\Ahmed'),('Structural Designer'),'IFC Parser version: 3.13.2','Tekla Structures 2023 Service Pack 8, IFC Export Version: 4.0.0.0 Jan 19 2024','');
FILE_SCHEMA(('IFC2X3'));
ENDSEC;

DATA;
#1= IFCPERSON('DESKTOP-NLV509P\\Ahmed','Undefined',$,$,$,$,$,$);
#2= IFCORGANIZATION($,'Trimble Solutions Corporation',$,$,$);
#3= IFCPERSONANDORGANIZATION(#1,#2,$);
#4= IFCAPPLICATION(#2,'2023 Service Pack 8','Tekla Structures','Multi material modeling');
#5= IFCOWNERHISTORY(#3,#4,$,.NOCHANGE.,$,$,$,1773119053);
#6= IFCCARTESIANPOINT((0.,0.,0.));
#7= IFCDIRECTION((1.,0.,0.));
#8= IFCDIRECTION((0.,1.,0.));
#9= IFCDIRECTION((0.,0.,1.));
#10= IFCAXIS2PLACEMENT3D(#6,#9,#7);
#11= IFCGEOMETRICREPRESENTATIONCONTEXT($,'Model',3,1.E-05,#10,$);
#12= IFCGEOMETRICREPRESENTATIONSUBCONTEXT('Body','Model',*,*,*,*,#11,$,.MODEL_VIEW.,$);
#13= IFCGEOMETRICREPRESENTATIONSUBCONTEXT('Axis','Model',*,*,*,*,#11,$,.GRAPH_VIEW.,$);
#14= IFCGEOMETRICREPRESENTATIONSUBCONTEXT('FootPrint','Model',*,*,*,*,#11,$,.MODEL_VIEW.,$);
#15= IFCSIUNIT(*,.LENGTHUNIT.,.MILLI.,.METRE.);
#16= IFCMEASUREWITHUNIT(IFCRATIOMEASURE(304.8),#15);
#17= IFCDIMENSIONALEXPONENTS(1,0,0,0,0,0,0);
#18= IFCCONVERSIONBASEDUNIT(#17,.LENGTHUNIT.,'FOOT',#16);
#19= IFCSIUNIT(*,.AREAUNIT.,$,.SQUARE_METRE.);
#20= IFCMEASUREWITHUNIT(IFCRATIOMEASURE(0.09290304),#19);
#21= IFCDIMENSIONALEXPONENTS(2,0,0,0,0,0,0);
#22= IFCCONVERSIONBASEDUNIT(#21,.AREAUNIT.,'SQUARE FOOT',#20);
#23= IFCSIUNIT(*,.VOLUMEUNIT.,$,.CUBIC_METRE.);
#24= IFCMEASUREWITHUNIT(IFCRATIOMEASURE(0.028316846592),#23);
#25= IFCDIMENSIONALEXPONENTS(3,0,0,0,0,0,0);
#26= IFCCONVERSIONBASEDUNIT(#25,.VOLUMEUNIT.,'CUBIC FOOT',#24);
#27= IFCSIUNIT(*,.MASSUNIT.,.KILO.,.GRAM.);
#28= IFCSIUNIT(*,.TIMEUNIT.,$,.SECOND.);
#29= IFCSIUNIT(*,.PLANEANGLEUNIT.,$,.RADIAN.);
#30= IFCMEASUREWITHUNIT(IFCRATIOMEASURE(0.0174532925199433),#29);
#31= IFCDIMENSIONALEXPONENTS(0,0,0,0,0,0,0);
#32= IFCCONVERSIONBASEDUNIT(#31,.PLANEANGLEUNIT.,'DEGREE',#30);
#33= IFCSIUNIT(*,.SOLIDANGLEUNIT.,$,.STERADIAN.);
#34= IFCSIUNIT(*,.THERMODYNAMICTEMPERATUREUNIT.,$,.DEGREE_CELSIUS.);
#35= IFCSIUNIT(*,.LUMINOUSINTENSITYUNIT.,$,.LUMEN.);
#36= IFCUNITASSIGNMENT((#15,#19,#23,#27,#28,#29,#33,#34,#35));
#37= IFCPROJECT('2FzaxEJOf4OBWdtXUdKWnb',#5,'Undefined',$,$,$,$,(#11),#36);
#38= IFCLOCALPLACEMENT($,#10);
#39= IFCSITE('0do0khsyX9lgCN4GloeRM9',#5,'Undefined',$,$,#38,$,$,.ELEMENT.,$,$,$,$,$);
#40= IFCLOCALPLACEMENT(#38,#10);
#41= IFCBUILDING('1NYJP4DgLCA9_r2Pmumfn3',#5,'Undefined',$,$,#40,$,$,.ELEMENT.,$,$,$);
#42= IFCLOCALPLACEMENT(#40,#10);
#43= IFCBUILDINGSTOREY('3gJPpYF7LCbf7I109fNVl5',#5,'Undefined',$,$,#42,$,$,.ELEMENT.,0.);
#44= IFCOWNERHISTORY(#3,#4,$,.NOCHANGE.,$,$,$,1770796800);
#45= IFCCOLOURRGB('Light Green',0.356862745098039,0.592156862745098,0.137254901960784);
#46= IFCSURFACESTYLERENDERING(#45,0.,$,$,$,$,IFCNORMALISEDRATIOMEASURE(0.00390625),IFCSPECULAREXPONENT(10.),.NOTDEFINED.);
#47= IFCSURFACESTYLE('STEEL/S275',.POSITIVE.,(#46));
#48= IFCPRESENTATIONSTYLEASSIGNMENT((#47));
#49= IFCCARTESIANPOINT((25.9999815638657,-1.49999999977081,220.003295898747));
#50= IFCCARTESIANPOINT((25.9999952501166,-1.49999999981083,180.999929648708));
#51= IFCCARTESIANPOINT((25.9999952517101,1.50000000018917,180.999929649457));
#52= IFCCARTESIANPOINT((25.9999815654519,1.50000000022919,220.003295898743));
#53= IFCPOLYLOOP((#49,#50,#51,#52));
#54= IFCFACEOUTERBOUND(#53,.T.);
#55= IFCFACE((#54));
#56= IFCCARTESIANPOINT((26.4770518322912,-1.49999999981446,177.376465691879));
#57= IFCCARTESIANPOINT((26.4770518338846,1.50000000018554,177.376465692625));
#58= IFCPOLYLOOP((#56,#57,#51,#50));
#59= IFCFACEOUTERBOUND(#58,.T.);
#60= IFCFACE((#59));
#61= IFCCARTESIANPOINT((27.8756745868814,-1.4999999998181,173.999939604411));
#62= IFCCARTESIANPOINT((27.8756745884748,1.5000000001819,173.999939605153));
#63= IFCPOLYLOOP((#61,#62,#57,#56));
#64= IFCFACEOUTERBOUND(#63,.T.);
#65= IFCFACE((#64));
#66= IFCCARTESIANPOINT((30.1005496844955,-1.49999999982174,171.100456059183));
#67= IFCCARTESIANPOINT((30.1005496860889,1.50000000017826,171.100456059929));
#68= IFCPOLYLOOP((#66,#67,#62,#61));
#69= IFCFACEOUTERBOUND(#68,.T.);
#70= IFCFACE((#69));
#71= IFCCARTESIANPOINT((33.0000555640217,-1.49999999982538,168.875610068189));
#72= IFCCARTESIANPOINT((33.0000555656006,1.50000000017462,168.875610068935));
#73= IFCPOLYLOOP((#71,#72,#67,#66));
#74= IFCFACEOUTERBOUND(#73,.T.);
#75= IFCFACE((#74));
#76= IFCCARTESIANPOINT((36.3765956914067,-1.49999999982538,167.477021208982));
#77= IFCCARTESIANPOINT((36.3765956930001,1.50000000017462,167.477021209725));
#78= IFCPOLYLOOP((#76,#77,#72,#71));
#79= IFCFACEOUTERBOUND(#78,.T.);
#80= IFCFACE((#79));
#81= IFCCARTESIANPOINT((40.0000644369939,-1.49999999982538,167.000001001034));
#82= IFCCARTESIANPOINT((40.0000644385727,1.50000000017462,167.000001001779));
#83= IFCPOLYLOOP((#81,#82,#77,#76));
#84= IFCFACEOUTERBOUND(#83,.T.);
#85= IFCFACE((#84));
#86= IFCCARTESIANPOINT((43.6235283938076,-1.49999999982174,167.477057583208));
#87= IFCCARTESIANPOINT((43.6235283953938,1.50000000017826,167.477057583954));
#88= IFCPOLYLOOP((#86,#87,#82,#81));
#89= IFCFACEOUTERBOUND(#88,.T.);
#90= IFCFACE((#89));
#91= IFCCARTESIANPOINT((47.0000544812647,-1.49999999982174,168.875680337806));
#92= IFCCARTESIANPOINT((47.0000544828508,1.50000000017826,168.875680338548));
#93= IFCPOLYLOOP((#91,#92,#87,#86));
#94= IFCFACEOUTERBOUND(#93,.T.);
#95= IFCFACE((#94));
#96= IFCCARTESIANPOINT((49.8995380264823,-1.49999999982174,171.100555435423));
#97= IFCCARTESIANPOINT((49.8995380280685,1.50000000017826,171.100555436169));
#98= IFCPOLYLOOP((#96,#97,#92,#91));
#99= IFCFACEOUTERBOUND(#98,.T.);
#100= IFCFACE((#99));
#101= IFCCARTESIANPOINT((52.1243840174648,-1.4999999998181,174.00006131495));
#102= IFCCARTESIANPOINT((52.1243840190582,1.5000000001819,174.000061315695));
#103= IFCPOLYLOOP((#101,#102,#97,#96));
#104= IFCFACEOUTERBOUND(#103,.T.);
#105= IFCFACE((#104));
#106= IFCCARTESIANPOINT((53.522972876679,-1.49999999981446,177.376601442345));
#107= IFCCARTESIANPOINT((53.5229728782579,1.50000000018554,177.376601443091));
#108= IFCPOLYLOOP((#106,#107,#102,#101));
#109= IFCFACEOUTERBOUND(#108,.T.);
#110= IFCFACE((#109));
#111= IFCCARTESIANPOINT((53.999993084617,-1.49999999981083,181.000070187936));
#112= IFCCARTESIANPOINT((53.9999930862105,1.50000000018917,181.000070188682));
#113= IFCPOLYLOOP((#111,#112,#107,#106));
#114= IFCFACEOUTERBOUND(#113,.T.);
#115= IFCFACE((#114));
#116= IFCCARTESIANPOINT((53.9999962500951,-1.49999999977081,220.003371389397));
#117= IFCCARTESIANPOINT((53.9999962516886,1.50000000022919,220.003295898765));
#118= IFCPOLYLOOP((#116,#117,#112,#111));
#119= IFCFACEOUTERBOUND(#118,.T.);
#120= IFCFACE((#119));
#121= IFCCARTESIANPOINT((0.,-1.5,0.));
#122= IFCCARTESIANPOINT((2.3991015041247E-07,-1.49999999977081,220.003295898729));
#123= IFCCARTESIANPOINT((2.3991015041247E-07,1.50000000022919,220.003295898725));
#124= IFCCARTESIANPOINT((0.,1.5,-3.63797880709171E-12));
#125= IFCPOLYLOOP((#121,#122,#123,#124));
#126= IFCFACEOUTERBOUND(#125,.T.);
#127= IFCFACE((#126));
#128= IFCCARTESIANPOINT((79.9999999998181,-1.5,1.41881173476577E-10));
#129= IFCCARTESIANPOINT((79.9999999998108,1.5,1.41881173476577E-10));
#130= IFCPOLYLOOP((#128,#121,#124,#129));
#131= IFCFACEOUTERBOUND(#130,.T.);
#132= IFCFACE((#131));
#133= IFCCARTESIANPOINT((79.999999999658,-1.49999999977081,220.003295898787));
#134= IFCCARTESIANPOINT((79.9999999996508,1.50000000022919,220.003295898783));
#135= IFCPOLYLOOP((#133,#128,#129,#134));
#136= IFCFACEOUTERBOUND(#135,.T.);
#137= IFCFACE((#136));
#138= IFCPOLYLOOP((#106,#101,#96,#91,#86,#81,#76,#71,#66,#61,#56,#50,#49,#122,#121,#128,#133,#116,#111));
#139= IFCFACEOUTERBOUND(#138,.T.);
#140= IFCFACE((#139));
#141= IFCPOLYLOOP((#123,#122,#49,#52));
#142= IFCFACEOUTERBOUND(#141,.T.);
#143= IFCFACE((#142));
#144= IFCPOLYLOOP((#134,#129,#124,#123,#52,#51,#57,#62,#67,#72,#77,#82,#87,#92,#97,#102,#107,#112,#117));
#145= IFCFACEOUTERBOUND(#144,.T.);
#146= IFCFACE((#145));
#147= IFCPOLYLOOP((#133,#134,#117,#116));
#148= IFCFACEOUTERBOUND(#147,.T.);
#149= IFCFACE((#148));
#150= IFCCLOSEDSHELL((#55,#60,#65,#70,#75,#80,#85,#90,#95,#100,#105,#110,#115,#120,#127,#132,#137,#140,#143,#146,#149));
#151= IFCFACETEDBREP(#150);
#152= IFCSTYLEDITEM(#151,(#48),$);
#153= IFCSHAPEREPRESENTATION(#12,'Body','Brep',(#151));
#154= IFCPRODUCTDEFINITIONSHAPE($,$,(#153));
#155= IFCCARTESIANPOINT((56974.8726416989,16932.8973993175,16881.5001626666));
#156= IFCDIRECTION((0.000485407000087435,-0.999999882190008,1.16999999590917E-07));
#157= IFCDIRECTION((0.999999882190015,0.000485407000090371,0.));
#158= IFCAXIS2PLACEMENT3D(#155,#156,#157);
#159= IFCLOCALPLACEMENT(#42,#158);
#160= IFCPLATE('1qAW6f5QPA_xJzsvH4HTEg',#44,'PLATE-3','PL3*80',$,#159,#154,'ID742a01a9-15a6-4afb-b4fd-db944445d3aa');
#161= IFCPLATETYPE('0ek8hBNaf2pQy6y6ajcPZ2',#5,'PL3*80',$,$,$,$,$,$,.NOTDEFINED.);
#162= IFCPROPERTYSINGLEVALUE('Bottom elevation',$,IFCLABEL(' +16.880'),$);
#163= IFCPROPERTYSINGLEVALUE('Top elevation',$,IFCLABEL(' +16.883'),$);
#164= IFCPROPERTYSINGLEVALUE('Initial GUID',$,$,$);
#165= IFCPROPERTYSINGLEVALUE('Preliminary mark',$,IFCLABEL('5-2-P15'),$);
#166= IFCPROPERTYSINGLEVALUE('Phase',$,IFCINTEGER(4),$);
#167= IFCPROPERTYSINGLEVALUE('Class',$,IFCLABEL('17'),$);
#168= IFCPROPERTYSET('0FUHTvr7X0ufSPg4R7wbOW',#5,'Tekla Common','Common Properties to Shared building elements',(#162,#163,#164,#165,#166,#167));
#169= IFCPROPERTYSINGLEVALUE('Weight',$,IFCMASSMEASURE(0.38),$);
#170= IFCPROPERTYSINGLEVALUE('Volume',$,IFCVOLUMEMEASURE(0.),$);
#171= IFCPROPERTYSINGLEVALUE('Gross footprint area',$,IFCAREAMEASURE(0.016),$);
#172= IFCPROPERTYSINGLEVALUE('Area per tons',$,IFCAREAMEASURE(90.381),$);
#173= IFCPROPERTYSINGLEVALUE('Net surface area',$,IFCAREAMEASURE(0.034),$);
#174= IFCPROPERTYSINGLEVALUE('Height',$,IFCLENGTHMEASURE(80.),$);
#175= IFCPROPERTYSINGLEVALUE('Width',$,IFCLENGTHMEASURE(3.),$);
#176= IFCPROPERTYSINGLEVALUE('Length',$,IFCLENGTHMEASURE(220.),$);
#177= IFCPROPERTYSET('354BRx375B5QrFGGLakzfy',#5,'Tekla Quantity','Quantity Properties to Shared building elements',(#169,#170,#171,#172,#173,#174,#175,#176));
#178= IFCPROPERTYSINGLEVALUE('LoadBearing',$,IFCBOOLEAN(.F.),$);
#179= IFCPROPERTYSINGLEVALUE('Reference',$,IFCIDENTIFIER('5-2-P15'),$);
#180= IFCPROPERTYSET('14e7FJdarC0ufGjUAyTRn2',#5,'Pset_PlateCommon','Common Properties to plate elements',(#178,#179));
#181= IFCQUANTITYLENGTH('Width',$,$,79.9999999997192);
#182= IFCQUANTITYAREA('NetArea',$,$,0.0344892109204482);
#183= IFCQUANTITYAREA('GrossArea',$,$,0.0176002697157703);
#184= IFCQUANTITYAREA('CrossSectionArea',$,$,9.E-06);
#185= IFCQUANTITYVOLUME('NetVolume',$,$,4.86114008730066E-05);
#186= IFCQUANTITYVOLUME('GrossVolume',$,$,5.28007909363914E-05);
#187= IFCELEMENTQUANTITY('3mYWD$5815Uf1J_5vXIV0q',#5,'BaseQuantities',$,$,(#181,#182,#183,#184,#185,#186));
#188= IFCMATERIAL('STEEL/S275');
#189= IFCRELAGGREGATES('1FRcmR3CHEuhNQevBMvpKi',#5,$,$,#37,(#39));
#190= IFCRELAGGREGATES('3$l$kfQ0PEBORZb_MiBtpH',#5,$,$,#39,(#41));
#191= IFCRELAGGREGATES('1DSGSgIRbDIAaGQZRTkc_Q',#5,$,$,#41,(#43));
#192= IFCRELCONTAINEDINSPATIALSTRUCTURE('3oMGhOcrX8u82uPnTFXcEh',#5,$,$,(#160),#43);
#193= IFCRELDEFINESBYPROPERTIES('3oS1yLLCH8iPdHJl$_XoGh',#5,$,$,(#160),#168);
#194= IFCRELDEFINESBYPROPERTIES('1f44DzKsP8k82V8GjNxc0l',#5,$,$,(#160),#177);
#195= IFCRELDEFINESBYPROPERTIES('30l9cZ5G5Ap8ZtiLnyTMup',#5,$,$,(#160),#180);
#196= IFCRELDEFINESBYPROPERTIES('2rBPSfE4rCUx8YEFQfDY5d',#5,$,$,(#160),#187);
#197= IFCRELDEFINESBYTYPE('0Xe$pv_HDCxPMxpPrmi1YC',#5,$,$,(#160),#161);
#198= IFCRELASSOCIATESMATERIAL('3OF8a3MmX2GQAagVrsz8Kn',#5,$,$,(#160),#188);
#199= IFCPRESENTATIONLAYERASSIGNMENT('PLATE-3',$,(#153),$);
ENDSEC;

END-ISO-10303-21;
