ISO-10303-21;
HEADER;
FILE_DESCRIPTION(('ViewDefinition[CoordinationView_V2.0, QuantityTakeOffAddOnView]', 'ExchangeRequirement[Structural, SurfaceGeometry]', 'Option [BaseQuantities:On]', 'Option [GridExport:On]', 'Option [Assemblies:Off]', 'Option [Bolts:On]', 'Option [Rebars:On]', 'Option [PourObjects:Off]', 'Option [Welds:Off]', 'Option [SurfaceTreatments:On]', 'Option [LocationBy:0]', 'Option [ViewColors:Off]', 'Option [SectionedSpine:Off]', 'Option [PropertySets:On]', 'Option [Export all:Off]'),'2;1');
FILE_NAME('5-2-A37_1.ifc','2026-03-10T08:04:09',('DESKTOP-NLV509P\\Ahmed'),('Structural Designer'),'IFC Parser version: 3.13.2','Tekla Structures 2023 Service Pack 8, IFC Export Version: 4.0.0.0 Jan 19 2024','');
FILE_SCHEMA(('IFC2X3'));
ENDSEC;

DATA;
#1= IFCPERSON('DESKTOP-NLV509P\\Ahmed','Undefined',$,$,$,$,$,$);
#2= IFCORGANIZATION($,'Trimble Solutions Corporation',$,$,$);
#3= IFCPERSONANDORGANIZATION(#1,#2,$);
#4= IFCAPPLICATION(#2,'2023 Service Pack 8','Tekla Structures','Multi material modeling');
#5= IFCOWNERHISTORY(#3,#4,$,.NOCHANGE.,$,$,$,1773119049);
#6= IFCCARTESIANPOINT((0.,0.,0.));
#7= IFCDIRECTION((1.,0.,0.));
#8= IFCDIRECTION((0.,1.,0.));
#9= IFCDIRECTION((0.,0.,1.));
#10= IFCAXIS2PLACEMENT3D(#6,#9,#7);
#11= IFCGEOMETRICREPRESENTATIONCONTEXT($,'Model',3,1.E-05,#10,$);
#12= IFCGEOMETRICREPRESENTATIONSUBCONTEXT('Body','Model',*,*,*,*,#11,$,.MODEL_VIEW.,$);
#13= IFCGEOMETRICREPRESENTATIONSUBCONTEXT('Axis','Model',*,*,*,*,#11,$,.GRAPH_VIEW.,$);
#14= IFCGEOMETRICREPRESENTATIONSUBCONTEXT('FootPrint','Model',*,*,*,*,#11,$,.MODEL_VIEW.,$);
#15= IFCSIUNIT(*,.LENGTHUNIT.,.MILLI.,.METRE.);
#16= IFCMEASUREWITHUNIT(IFCRATIOMEASURE(304.8),#15);
#17= IFCDIMENSIONALEXPONENTS(1,0,0,0,0,0,0);
#18= IFCCONVERSIONBASEDUNIT(#17,.LENGTHUNIT.,'FOOT',#16);
#19= IFCSIUNIT(*,.AREAUNIT.,$,.SQUARE_METRE.);
#20= IFCMEASUREWITHUNIT(IFCRATIOMEASURE(0.09290304),#19);
#21= IFCDIMENSIONALEXPONENTS(2,0,0,0,0,0,0);
#22= IFCCONVERSIONBASEDUNIT(#21,.AREAUNIT.,'SQUARE FOOT',#20);
#23= IFCSIUNIT(*,.VOLUMEUNIT.,$,.CUBIC_METRE.);
#24= IFCMEASUREWITHUNIT(IFCRATIOMEASURE(0.028316846592),#23);
#25= IFCDIMENSIONALEXPONENTS(3,0,0,0,0,0,0);
#26= IFCCONVERSIONBASEDUNIT(#25,.VOLUMEUNIT.,'CUBIC FOOT',#24);
#27= IFCSIUNIT(*,.MASSUNIT.,.KILO.,.GRAM.);
#28= IFCSIUNIT(*,.TIMEUNIT.,$,.SECOND.);
#29= IFCSIUNIT(*,.PLANEANGLEUNIT.,$,.RADIAN.);
#30= IFCMEASUREWITHUNIT(IFCRATIOMEASURE(0.0174532925199433),#29);
#31= IFCDIMENSIONALEXPONENTS(0,0,0,0,0,0,0);
#32= IFCCONVERSIONBASEDUNIT(#31,.PLANEANGLEUNIT.,'DEGREE',#30);
#33= IFCSIUNIT(*,.SOLIDANGLEUNIT.,$,.STERADIAN.);
#34= IFCSIUNIT(*,.THERMODYNAMICTEMPERATUREUNIT.,$,.DEGREE_CELSIUS.);
#35= IFCSIUNIT(*,.LUMINOUSINTENSITYUNIT.,$,.LUMEN.);
#36= IFCUNITASSIGNMENT((#15,#19,#23,#27,#28,#29,#33,#34,#35));
#37= IFCPROJECT('2kvOlwDKT55vItlRBMJ_YR',#5,'Undefined',$,$,$,$,(#11),#36);
#38= IFCLOCALPLACEMENT($,#10);
#39= IFCSITE('2X$yK4ZuL0dP6HK$ytDhJN',#5,'Undefined',$,$,#38,$,$,.ELEMENT.,$,$,$,$,$);
#40= IFCLOCALPLACEMENT(#38,#10);
#41= IFCBUILDING('0LQoD4Of59PxhDIHVsRp7m',#5,'Undefined',$,$,#40,$,$,.ELEMENT.,$,$,$);
#42= IFCLOCALPLACEMENT(#40,#10);
#43= IFCBUILDINGSTOREY('3gJPpYF7LCbf7I109fNVl5',#5,'Undefined',$,$,#42,$,$,.ELEMENT.,0.);
#44= IFCOWNERHISTORY(#3,#4,$,.NOCHANGE.,$,$,$,1770876000);
#45= IFCCOLOURRGB($,0.698039215686274,0.4,0.);
#46= IFCSURFACESTYLERENDERING(#45,0.,$,$,$,$,IFCNORMALISEDRATIOMEASURE(0.00390625),IFCSPECULAREXPONENT(10.),.NOTDEFINED.);
#47= IFCSURFACESTYLE('TS10.9',.POSITIVE.,(#46));
#48= IFCPRESENTATIONSTYLEASSIGNMENT((#47));
#49= IFCCARTESIANPOINT((13.,23.9873902603038,0.));
#50= IFCCARTESIANPOINT((11.2583302491975,23.9873902603038,6.50000000000039));
#51= IFCCARTESIANPOINT((6.49999999999922,23.9873902603038,11.2583302491982));
#52= IFCCARTESIANPOINT((-1.34723677608042E-12,23.9873902603038,13.));
#53= IFCCARTESIANPOINT((-6.50000000000155,23.9873902603038,11.2583302491968));
#54= IFCCARTESIANPOINT((-11.2583302491988,23.9873902603038,6.49999999999806));
#55= IFCCARTESIANPOINT((-13.,23.9873902603038,-2.69447355216084E-12));
#56= IFCCARTESIANPOINT((-11.2583302491961,23.9873902603038,-6.50000000000272));
#57= IFCCARTESIANPOINT((-6.4999999999969,23.9873902603038,-11.2583302491995));
#58= IFCCARTESIANPOINT((4.02727742892113E-12,23.9873902603038,-13.));
#59= IFCCARTESIANPOINT((6.50000000000388,23.9873902603038,-11.2583302491955));
#60= IFCCARTESIANPOINT((11.2583302492002,23.9873902603038,-6.49999999999573));
#61= IFCCARTESIANPOINT((13.,274.087390264399,0.));
#62= IFCCARTESIANPOINT((11.2583302491975,274.087390264399,6.50000000000039));
#63= IFCCARTESIANPOINT((6.49999999999922,274.087390264399,11.2583302491982));
#64= IFCCARTESIANPOINT((-1.34723677608042E-12,274.087390264399,13.));
#65= IFCCARTESIANPOINT((-6.50000000000155,274.087390264399,11.2583302491968));
#66= IFCCARTESIANPOINT((-11.2583302491988,274.087390264399,6.49999999999806));
#67= IFCCARTESIANPOINT((-13.,274.087390264399,-2.69447355216084E-12));
#68= IFCCARTESIANPOINT((-11.2583302491961,274.087390264399,-6.50000000000272));
#69= IFCCARTESIANPOINT((-6.4999999999969,274.087390264399,-11.2583302491995));
#70= IFCCARTESIANPOINT((4.02727742892113E-12,274.087390264399,-13.));
#71= IFCCARTESIANPOINT((6.50000000000388,274.087390264399,-11.2583302491955));
#72= IFCCARTESIANPOINT((11.2583302492002,274.087390264399,-6.49999999999573));
#73= IFCPOLYLOOP((#49,#50,#51,#52,#53,#54,#55,#56,#57,#58,#59,#60));
#74= IFCFACEOUTERBOUND(#73,.T.);
#75= IFCFACE((#74));
#76= IFCPOLYLOOP((#72,#71,#70,#69,#68,#67,#66,#65,#64,#63,#62,#61));
#77= IFCFACEOUTERBOUND(#76,.T.);
#78= IFCFACE((#77));
#79= IFCPOLYLOOP((#49,#61,#62,#50));
#80= IFCFACEOUTERBOUND(#79,.T.);
#81= IFCFACE((#80));
#82= IFCPOLYLOOP((#50,#62,#63,#51));
#83= IFCFACEOUTERBOUND(#82,.T.);
#84= IFCFACE((#83));
#85= IFCPOLYLOOP((#51,#63,#64,#52));
#86= IFCFACEOUTERBOUND(#85,.T.);
#87= IFCFACE((#86));
#88= IFCPOLYLOOP((#52,#64,#65,#53));
#89= IFCFACEOUTERBOUND(#88,.T.);
#90= IFCFACE((#89));
#91= IFCPOLYLOOP((#53,#65,#66,#54));
#92= IFCFACEOUTERBOUND(#91,.T.);
#93= IFCFACE((#92));
#94= IFCPOLYLOOP((#54,#66,#67,#55));
#95= IFCFACEOUTERBOUND(#94,.T.);
#96= IFCFACE((#95));
#97= IFCPOLYLOOP((#55,#67,#68,#56));
#98= IFCFACEOUTERBOUND(#97,.T.);
#99= IFCFACE((#98));
#100= IFCPOLYLOOP((#56,#68,#69,#57));
#101= IFCFACEOUTERBOUND(#100,.T.);
#102= IFCFACE((#101));
#103= IFCPOLYLOOP((#57,#69,#70,#58));
#104= IFCFACEOUTERBOUND(#103,.T.);
#105= IFCFACE((#104));
#106= IFCPOLYLOOP((#58,#70,#71,#59));
#107= IFCFACEOUTERBOUND(#106,.T.);
#108= IFCFACE((#107));
#109= IFCPOLYLOOP((#59,#71,#72,#60));
#110= IFCFACEOUTERBOUND(#109,.T.);
#111= IFCFACE((#110));
#112= IFCPOLYLOOP((#60,#72,#61,#49));
#113= IFCFACEOUTERBOUND(#112,.T.);
#114= IFCFACE((#113));
#115= IFCCLOSEDSHELL((#75,#78,#81,#84,#87,#90,#93,#96,#99,#102,#105,#108,#111,#114));
#116= IFCCOLOURRGB($,0.,0.,0.);
#117= IFCSURFACESTYLERENDERING(#116,0.,$,$,$,$,IFCNORMALISEDRATIOMEASURE(0.00390625),IFCSPECULAREXPONENT(10.),.NOTDEFINED.);
#118= IFCSURFACESTYLE($,.POSITIVE.,(#117));
#119= IFCPRESENTATIONSTYLEASSIGNMENT((#118));
#120= IFCFACETEDBREP(#115);
#121= IFCSTYLEDITEM(#120,(#119),$);
#122= IFCCARTESIANTRANSFORMATIONOPERATOR3D($,$,#6,$,$);
#123= IFCSHAPEREPRESENTATION(#12,'Body','Brep',(#120));
#124= IFCREPRESENTATIONMAP(#10,#123);
#125= IFCMAPPEDITEM(#124,#122);
#126= IFCSHAPEREPRESENTATION(#12,'Body','MappedRepresentation',(#125));
#127= IFCPRODUCTDEFINITIONSHAPE($,$,(#126));
#128= IFCCARTESIANPOINT((42479.998889119,30118.0009613193,16903.9881551613));
#129= IFCDIRECTION((-1.39369999815244E-05,0.99999999990288,0.));
#130= IFCDIRECTION((0.999999999902879,1.39369999837591E-05,-5.30000341733618E-08));
#131= IFCAXIS2PLACEMENT3D(#128,#129,#130);
#132= IFCLOCALPLACEMENT(#42,#131);
#133= IFCMECHANICALFASTENER('15HmBRXhfAye6s0irv5n2R',#44,'Bolt assembly',$,$,#132,#127,'ID454702db-86ba-4af2-81b6-02cd7917109b',24.,1250.);
#134= IFCMECHANICALFASTENERTYPE('2P3o8$Z8zAMfq27LcbvgIs',#5,'Bolt assembly',$,$,$,$,$,$);
#135= IFCPROPERTYSINGLEVALUE('Washer count',$,IFCINTEGER(0),$);
#136= IFCPROPERTYSINGLEVALUE('Washer diameter',$,IFCLENGTHMEASURE(24.),$);
#137= IFCPROPERTYSINGLEVALUE('Washer type',$,IFCLABEL(''),$);
#138= IFCPROPERTYSINGLEVALUE('Washer name',$,IFCLABEL(''),$);
#139= IFCPROPERTYSINGLEVALUE('Nut count',$,IFCINTEGER(0),$);
#140= IFCPROPERTYSINGLEVALUE('Nut type',$,IFCLABEL(''),$);
#141= IFCPROPERTYSINGLEVALUE('Nut name',$,IFCLABEL(''),$);
#142= IFCPROPERTYSINGLEVALUE('Slotted hole y',$,IFCLENGTHMEASURE(0.),$);
#143= IFCPROPERTYSINGLEVALUE('Slotted hole x',$,IFCLENGTHMEASURE(0.),$);
#144= IFCPROPERTYSINGLEVALUE('Bolt hole diameter',$,IFCLENGTHMEASURE(26.),$);
#145= IFCPROPERTYSINGLEVALUE('Location',$,IFCLABEL('Site'),$);
#146= IFCPROPERTYSINGLEVALUE('Bolt count',$,IFCINTEGER(1),$);
#147= IFCPROPERTYSINGLEVALUE('Bolt size',$,IFCLENGTHMEASURE(26.),$);
#148= IFCPROPERTYSINGLEVALUE('Bolt length',$,IFCLENGTHMEASURE(1250.),$);
#149= IFCPROPERTYSINGLEVALUE('Bolt standard',$,IFCLABEL('TS10.9'),$);
#150= IFCPROPERTYSINGLEVALUE('Bolt Name',$,IFCLABEL(''),$);
#151= IFCPROPERTYSET('00L24MGqH40g4cxJAqsV3O',#5,'Tekla Bolt','Bolt Properties',(#135,#136,#137,#138,#139,#140,#141,#142,#143,#144,#145,#146,#147,#148,#149,#150));
#152= IFCMATERIAL('TS10.9');
#153= IFCMAPPEDITEM(#124,#122);
#154= IFCSHAPEREPRESENTATION(#12,'Body','MappedRepresentation',(#153));
#155= IFCPRODUCTDEFINITIONSHAPE($,$,(#154));
#156= IFCCARTESIANPOINT((42480.0009796691,29968.0009613344,16903.9881551615));
#157= IFCAXIS2PLACEMENT3D(#156,#129,#130);
#158= IFCLOCALPLACEMENT(#42,#157);
#159= IFCMECHANICALFASTENER('0KT67V_$H21xmmzovPqp1e',#44,'Bolt assembly',$,$,#158,#155,'ID147461df-fbf4-4207-bc30-f72e59d33068',24.,1250.);
#160= IFCOWNERHISTORY(#3,#4,$,.NOCHANGE.,$,$,$,1770879600);
#161= IFCCARTESIANPOINT((13.,23.988253143594,0.));
#162= IFCCARTESIANPOINT((11.2583302491975,23.988253143594,6.50000000000039));
#163= IFCCARTESIANPOINT((6.49999999999922,23.988253143594,11.2583302491982));
#164= IFCCARTESIANPOINT((-1.34723677608042E-12,23.988253143594,13.));
#165= IFCCARTESIANPOINT((-6.50000000000155,23.988253143594,11.2583302491968));
#166= IFCCARTESIANPOINT((-11.2583302491988,23.988253143594,6.49999999999806));
#167= IFCCARTESIANPOINT((-13.,23.988253143594,-2.69447355216084E-12));
#168= IFCCARTESIANPOINT((-11.2583302491961,23.988253143594,-6.50000000000272));
#169= IFCCARTESIANPOINT((-6.4999999999969,23.988253143594,-11.2583302491995));
#170= IFCCARTESIANPOINT((4.02727742892113E-12,23.988253143594,-13.));
#171= IFCCARTESIANPOINT((6.50000000000388,23.988253143594,-11.2583302491955));
#172= IFCCARTESIANPOINT((11.2583302492002,23.988253143594,-6.49999999999573));
#173= IFCCARTESIANPOINT((13.,274.088253142772,0.));
#174= IFCCARTESIANPOINT((11.2583302491975,274.088253142772,6.50000000000039));
#175= IFCCARTESIANPOINT((6.49999999999922,274.088253142772,11.2583302491982));
#176= IFCCARTESIANPOINT((-1.34723677608042E-12,274.088253142772,13.));
#177= IFCCARTESIANPOINT((-6.50000000000155,274.088253142772,11.2583302491968));
#178= IFCCARTESIANPOINT((-11.2583302491988,274.088253142772,6.49999999999806));
#179= IFCCARTESIANPOINT((-13.,274.088253142772,-2.69447355216084E-12));
#180= IFCCARTESIANPOINT((-11.2583302491961,274.088253142772,-6.50000000000272));
#181= IFCCARTESIANPOINT((-6.4999999999969,274.088253142772,-11.2583302491995));
#182= IFCCARTESIANPOINT((4.02727742892113E-12,274.088253142772,-13.));
#183= IFCCARTESIANPOINT((6.50000000000388,274.088253142772,-11.2583302491955));
#184= IFCCARTESIANPOINT((11.2583302492002,274.088253142772,-6.49999999999573));
#185= IFCPOLYLOOP((#161,#162,#163,#164,#165,#166,#167,#168,#169,#170,#171,#172));
#186= IFCFACEOUTERBOUND(#185,.T.);
#187= IFCFACE((#186));
#188= IFCPOLYLOOP((#184,#183,#182,#181,#180,#179,#178,#177,#176,#175,#174,#173));
#189= IFCFACEOUTERBOUND(#188,.T.);
#190= IFCFACE((#189));
#191= IFCPOLYLOOP((#161,#173,#174,#162));
#192= IFCFACEOUTERBOUND(#191,.T.);
#193= IFCFACE((#192));
#194= IFCPOLYLOOP((#162,#174,#175,#163));
#195= IFCFACEOUTERBOUND(#194,.T.);
#196= IFCFACE((#195));
#197= IFCPOLYLOOP((#163,#175,#176,#164));
#198= IFCFACEOUTERBOUND(#197,.T.);
#199= IFCFACE((#198));
#200= IFCPOLYLOOP((#164,#176,#177,#165));
#201= IFCFACEOUTERBOUND(#200,.T.);
#202= IFCFACE((#201));
#203= IFCPOLYLOOP((#165,#177,#178,#166));
#204= IFCFACEOUTERBOUND(#203,.T.);
#205= IFCFACE((#204));
#206= IFCPOLYLOOP((#166,#178,#179,#167));
#207= IFCFACEOUTERBOUND(#206,.T.);
#208= IFCFACE((#207));
#209= IFCPOLYLOOP((#167,#179,#180,#168));
#210= IFCFACEOUTERBOUND(#209,.T.);
#211= IFCFACE((#210));
#212= IFCPOLYLOOP((#168,#180,#181,#169));
#213= IFCFACEOUTERBOUND(#212,.T.);
#214= IFCFACE((#213));
#215= IFCPOLYLOOP((#169,#181,#182,#170));
#216= IFCFACEOUTERBOUND(#215,.T.);
#217= IFCFACE((#216));
#218= IFCPOLYLOOP((#170,#182,#183,#171));
#219= IFCFACEOUTERBOUND(#218,.T.);
#220= IFCFACE((#219));
#221= IFCPOLYLOOP((#171,#183,#184,#172));
#222= IFCFACEOUTERBOUND(#221,.T.);
#223= IFCFACE((#222));
#224= IFCPOLYLOOP((#172,#184,#173,#161));
#225= IFCFACEOUTERBOUND(#224,.T.);
#226= IFCFACE((#225));
#227= IFCCLOSEDSHELL((#187,#190,#193,#196,#199,#202,#205,#208,#211,#214,#217,#220,#223,#226));
#228= IFCFACETEDBREP(#227);
#229= IFCSTYLEDITEM(#228,(#119),$);
#230= IFCSHAPEREPRESENTATION(#12,'Body','Brep',(#228));
#231= IFCREPRESENTATIONMAP(#10,#230);
#232= IFCMAPPEDITEM(#231,#122);
#233= IFCSHAPEREPRESENTATION(#12,'Body','MappedRepresentation',(#232));
#234= IFCPRODUCTDEFINITIONSHAPE($,$,(#233));
#235= IFCCARTESIANPOINT((32599.9988892356,30118.0027033784,16903.9881485368));
#236= IFCAXIS2PLACEMENT3D(#235,#129,#130);
#237= IFCLOCALPLACEMENT(#42,#236);
#238= IFCMECHANICALFASTENER('36lQGcHtrAmgtRiKL9SBLt',#160,'Bolt assembly',$,$,#237,#234,'IDc6bda426-477d-4ac2-addb-b1454970b577',24.,1250.);
#239= IFCMAPPEDITEM(#231,#122);
#240= IFCSHAPEREPRESENTATION(#12,'Body','MappedRepresentation',(#239));
#241= IFCPRODUCTDEFINITIONSHAPE($,$,(#240));
#242= IFCCARTESIANPOINT((32600.0009796766,29968.002703442,16903.988148537));
#243= IFCAXIS2PLACEMENT3D(#242,#129,#130);
#244= IFCLOCALPLACEMENT(#42,#243);
#245= IFCMECHANICALFASTENER('1pYIv5Fij46h$qRRA87SlC',#160,'Bolt assembly',$,$,#244,#241,'ID73892e45-3ecb-441a-bff4-6db2881dcbcc',24.,1250.);
#246= IFCOWNERHISTORY(#3,#4,$,.NOCHANGE.,$,$,$,1770840000);
#247= IFCSURFACESTYLE('EVENT',.POSITIVE.,(#46));
#248= IFCPRESENTATIONSTYLEASSIGNMENT((#247));
#249= IFCCARTESIANPOINT((7.5,-4.00000000071987,0.));
#250= IFCCARTESIANPOINT((6.49519052838316,-4.00000000071987,3.75000000000022));
#251= IFCCARTESIANPOINT((3.74999999999955,-4.00000000071987,6.49519052838355));
#252= IFCCARTESIANPOINT((-7.77251986200242E-13,-4.00000000071987,7.5));
#253= IFCCARTESIANPOINT((-3.7500000000009,-4.00000000071987,6.49519052838277));
#254= IFCCARTESIANPOINT((-6.49519052838394,-4.00000000071987,3.74999999999888));
#255= IFCCARTESIANPOINT((-7.5,-4.00000000071987,-1.55450397240048E-12));
#256= IFCCARTESIANPOINT((-6.49519052838238,-4.00000000071987,-3.75000000000157));
#257= IFCCARTESIANPOINT((-3.74999999999821,-4.00000000071987,-6.49519052838432));
#258= IFCCARTESIANPOINT((2.32342928591604E-12,-4.00000000071987,-7.5));
#259= IFCCARTESIANPOINT((3.75000000000224,-4.00000000071987,-6.495190528382));
#260= IFCCARTESIANPOINT((6.49519052838471,-4.00000000071987,-3.74999999999753));
#261= IFCCARTESIANPOINT((7.5,4.09999999801827,0.));
#262= IFCCARTESIANPOINT((6.49519052838316,4.09999999801827,3.75000000000022));
#263= IFCCARTESIANPOINT((3.74999999999955,4.09999999801827,6.49519052838355));
#264= IFCCARTESIANPOINT((-7.77251986200242E-13,4.09999999801827,7.5));
#265= IFCCARTESIANPOINT((-3.7500000000009,4.09999999801827,6.49519052838277));
#266= IFCCARTESIANPOINT((-6.49519052838394,4.09999999801827,3.74999999999888));
#267= IFCCARTESIANPOINT((-7.5,4.09999999801827,-1.55450397240048E-12));
#268= IFCCARTESIANPOINT((-6.49519052838238,4.09999999801827,-3.75000000000157));
#269= IFCCARTESIANPOINT((-3.74999999999821,4.09999999801827,-6.49519052838432));
#270= IFCCARTESIANPOINT((2.32342928591604E-12,4.09999999801827,-7.5));
#271= IFCCARTESIANPOINT((3.75000000000224,4.09999999801827,-6.495190528382));
#272= IFCCARTESIANPOINT((6.49519052838471,4.09999999801827,-3.74999999999753));
#273= IFCPOLYLOOP((#249,#250,#251,#252,#253,#254,#255,#256,#257,#258,#259,#260));
#274= IFCFACEOUTERBOUND(#273,.T.);
#275= IFCFACE((#274));
#276= IFCPOLYLOOP((#272,#271,#270,#269,#268,#267,#266,#265,#264,#263,#262,#261));
#277= IFCFACEOUTERBOUND(#276,.T.);
#278= IFCFACE((#277));
#279= IFCPOLYLOOP((#249,#261,#262,#250));
#280= IFCFACEOUTERBOUND(#279,.T.);
#281= IFCFACE((#280));
#282= IFCPOLYLOOP((#250,#262,#263,#251));
#283= IFCFACEOUTERBOUND(#282,.T.);
#284= IFCFACE((#283));
#285= IFCPOLYLOOP((#251,#263,#264,#252));
#286= IFCFACEOUTERBOUND(#285,.T.);
#287= IFCFACE((#286));
#288= IFCPOLYLOOP((#252,#264,#265,#253));
#289= IFCFACEOUTERBOUND(#288,.T.);
#290= IFCFACE((#289));
#291= IFCPOLYLOOP((#253,#265,#266,#254));
#292= IFCFACEOUTERBOUND(#291,.T.);
#293= IFCFACE((#292));
#294= IFCPOLYLOOP((#254,#266,#267,#255));
#295= IFCFACEOUTERBOUND(#294,.T.);
#296= IFCFACE((#295));
#297= IFCPOLYLOOP((#255,#267,#268,#256));
#298= IFCFACEOUTERBOUND(#297,.T.);
#299= IFCFACE((#298));
#300= IFCPOLYLOOP((#256,#268,#269,#257));
#301= IFCFACEOUTERBOUND(#300,.T.);
#302= IFCFACE((#301));
#303= IFCPOLYLOOP((#257,#269,#270,#258));
#304= IFCFACEOUTERBOUND(#303,.T.);
#305= IFCFACE((#304));
#306= IFCPOLYLOOP((#258,#270,#271,#259));
#307= IFCFACEOUTERBOUND(#306,.T.);
#308= IFCFACE((#307));
#309= IFCPOLYLOOP((#259,#271,#272,#260));
#310= IFCFACEOUTERBOUND(#309,.T.);
#311= IFCFACE((#310));
#312= IFCPOLYLOOP((#260,#272,#261,#249));
#313= IFCFACEOUTERBOUND(#312,.T.);
#314= IFCFACE((#313));
#315= IFCCLOSEDSHELL((#275,#278,#281,#284,#287,#290,#293,#296,#299,#302,#305,#308,#311,#314));
#316= IFCFACETEDBREP(#315);
#317= IFCSTYLEDITEM(#316,(#119),$);
#318= IFCSHAPEREPRESENTATION(#12,'Body','Brep',(#316));
#319= IFCREPRESENTATIONMAP(#10,#318);
#320= IFCMAPPEDITEM(#319,#122);
#321= IFCSHAPEREPRESENTATION(#12,'Body','MappedRepresentation',(#320));
#322= IFCPRODUCTDEFINITIONSHAPE($,$,(#321));
#323= IFCCARTESIANPOINT((42516.0229780675,30167.4836575142,16680.5007679949));
#324= IFCDIRECTION((3.01449999969918E-05,0.513521469963009,0.858076744224145));
#325= IFCDIRECTION((-5.03709999719021E-05,-0.858076742745701,0.513521470847802));
#326= IFCAXIS2PLACEMENT3D(#323,#324,#325);
#327= IFCLOCALPLACEMENT(#42,#326);
#328= IFCMECHANICALFASTENER('2pMHOmC21EHwEt973DitB1',#246,'Bolt assembly',$,$,#327,#322,'IDb3591630-3020-4e47-a3b7-2470cdb372c1',15.,8.);
#329= IFCPROPERTYSINGLEVALUE('Washer diameter',$,IFCLENGTHMEASURE(15.),$);
#330= IFCPROPERTYSINGLEVALUE('Bolt hole diameter',$,IFCLENGTHMEASURE(15.),$);
#331= IFCPROPERTYSINGLEVALUE('Bolt size',$,IFCLENGTHMEASURE(15.),$);
#332= IFCPROPERTYSINGLEVALUE('Bolt length',$,IFCLENGTHMEASURE(8.),$);
#333= IFCPROPERTYSINGLEVALUE('Bolt standard',$,IFCLABEL('EVENT'),$);
#334= IFCPROPERTYSET('3sOCIiQGf24gzG7$JisInH',#5,'Tekla Bolt','Bolt Properties',(#135,#329,#137,#138,#139,#140,#141,#142,#143,#330,#145,#146,#331,#332,#333,#150));
#335= IFCMATERIAL('EVENT');
#336= IFCMAPPEDITEM(#319,#122);
#337= IFCSHAPEREPRESENTATION(#12,'Body','MappedRepresentation',(#336));
#338= IFCPRODUCTDEFINITIONSHAPE($,$,(#337));
#339= IFCCARTESIANPOINT((42516.0229856929,30167.4836575142,16829.5007679949));
#340= IFCDIRECTION((3.01760000002105E-05,0.513521469959822,-0.858076744224963));
#341= IFCDIRECTION((-5.04239999687558E-05,-0.858076742743406,-0.513521470846435));
#342= IFCAXIS2PLACEMENT3D(#339,#340,#341);
#343= IFCLOCALPLACEMENT(#42,#342);
#344= IFCMECHANICALFASTENER('2xaPETL85Fb8_xSNAnWZnT',#246,'Bolt assembly',$,$,#343,#338,'IDbb91939d-5481-4f94-8fbb-7172b1823c5d',15.,8.);
#345= IFCMAPPEDITEM(#319,#122);
#346= IFCSHAPEREPRESENTATION(#12,'Body','MappedRepresentation',(#345));
#347= IFCPRODUCTDEFINITIONSHAPE($,$,(#346));
#348= IFCCARTESIANPOINT((42516.0083611752,29918.4836575128,16829.5007679936));
#349= IFCDIRECTION((3.0140000017127E-05,0.51344215522163,0.858124205656121));
#350= IFCDIRECTION((5.03740000259708E-05,0.858124204177583,-0.513442156106265));
#351= IFCAXIS2PLACEMENT3D(#348,#349,#350);
#352= IFCLOCALPLACEMENT(#42,#351);
#353= IFCMECHANICALFASTENER('0T67tTlgT93Qd6r$pPlcDF',#246,'Bolt assembly',$,$,#352,#347,'ID1d187ddd-bea7-490d-a9c6-d7fcd9be634f',15.,8.);
#354= IFCMAPPEDITEM(#319,#122);
#355= IFCSHAPEREPRESENTATION(#12,'Body','MappedRepresentation',(#354));
#356= IFCPRODUCTDEFINITIONSHAPE($,$,(#355));
#357= IFCCARTESIANPOINT((42516.0083535497,29918.4836575128,16680.5007679936));
#358= IFCDIRECTION((-3.01720000134083E-05,-0.513442155218389,0.858124205656936));
#359= IFCDIRECTION((5.04260000239931E-05,0.858124204175342,0.513442156104906));
#360= IFCAXIS2PLACEMENT3D(#357,#358,#359);
#361= IFCLOCALPLACEMENT(#42,#360);
#362= IFCMECHANICALFASTENER('3MrycQAQvBMAalN_VgHQXc',#246,'Bolt assembly',$,$,#361,#356,'IDd6d7c99a-29ae-4b58-a92f-5fe7ea45a866',15.,8.);
#363= IFCMAPPEDITEM(#319,#122);
#364= IFCSHAPEREPRESENTATION(#12,'Body','MappedRepresentation',(#363));
#365= IFCPRODUCTDEFINITIONSHAPE($,$,(#364));
#366= IFCCARTESIANPOINT((42324.0179707634,30167.4836386993,16680.5007510986));
#367= IFCDIRECTION((-4.9293000000312E-05,-0.858076742791798,0.513521470875385));
#368= IFCAXIS2PLACEMENT3D(#366,#324,#367);
#369= IFCLOCALPLACEMENT(#42,#368);
#370= IFCMECHANICALFASTENER('13xQ8K7hb83AEYqmg6WKKX',#246,'Bolt assembly',$,$,#369,#365,'ID43eda214-1eb9-480c-a3a2-d30a86814521',15.,8.);
#371= IFCMAPPEDITEM(#319,#122);
#372= IFCSHAPEREPRESENTATION(#12,'Body','MappedRepresentation',(#371));
#373= IFCPRODUCTDEFINITIONSHAPE($,$,(#372));
#374= IFCCARTESIANPOINT((42324.0179783955,30167.4836386993,16829.5007510986));
#375= IFCDIRECTION((-4.93459999971229E-05,-0.858076742789556,-0.513521470874041));
#376= IFCAXIS2PLACEMENT3D(#374,#340,#375);
#377= IFCLOCALPLACEMENT(#42,#376);
#378= IFCMECHANICALFASTENER('0CPrM2sQfBkfjt$9y3j_8U',#246,'Bolt assembly',$,$,#377,#373,'ID0c675582-d9aa-4bba-9b77-fc9f03b7e21e',15.,8.);
#379= IFCMAPPEDITEM(#319,#122);
#380= IFCSHAPEREPRESENTATION(#12,'Body','MappedRepresentation',(#379));
#381= IFCPRODUCTDEFINITIONSHAPE($,$,(#380));
#382= IFCCARTESIANPOINT((42324.0036666239,29918.4836386979,16829.5007510973));
#383= IFCDIRECTION((4.92960000239943E-05,0.858124204223693,-0.513442156133832));
#384= IFCAXIS2PLACEMENT3D(#382,#349,#383);
#385= IFCLOCALPLACEMENT(#42,#384);
#386= IFCMECHANICALFASTENER('0XY6BNEwr33fW1eqNJ4aR6',#246,'Bolt assembly',$,$,#385,#381,'ID218862d7-3bad-430e-9801-a345d31246c6',15.,8.);
#387= IFCMAPPEDITEM(#319,#122);
#388= IFCSHAPEREPRESENTATION(#12,'Body','MappedRepresentation',(#387));
#389= IFCPRODUCTDEFINITIONSHAPE($,$,(#388));
#390= IFCCARTESIANPOINT((42324.0036589918,29918.4836386979,16680.5007510973));
#391= IFCDIRECTION((4.93490000085661E-05,0.858124204221443,0.513442156132501));
#392= IFCAXIS2PLACEMENT3D(#390,#358,#391);
#393= IFCLOCALPLACEMENT(#42,#392);
#394= IFCMECHANICALFASTENER('3Irvmh4256fPstyu5sd$8C',#246,'Bolt assembly',$,$,#393,#389,'IDd2d79c2b-1021-46a5-9db7-f381769ff20c',15.,8.);
#395= IFCMAPPEDITEM(#319,#122);
#396= IFCSHAPEREPRESENTATION(#12,'Body','MappedRepresentation',(#395));
#397= IFCPRODUCTDEFINITIONSHAPE($,$,(#396));
#398= IFCCARTESIANPOINT((32756.0303141013,30167.4827010362,16829.4999091246));
#399= IFCDIRECTION((0.,0.513521471794924,-0.858076743657335));
#400= IFCDIRECTION((0.,-0.858076743657335,-0.513521471794924));
#401= IFCAXIS2PLACEMENT3D(#398,#399,#400);
#402= IFCLOCALPLACEMENT(#42,#401);
#403= IFCMECHANICALFASTENER('14GtlUGs9EZfuLiapLQBip',#246,'Bolt assembly',$,$,#402,#397,'ID44437bde-4362-4e8e-9e15-b24cd568bb33',15.,8.);
#404= IFCMAPPEDITEM(#319,#122);
#405= IFCSHAPEREPRESENTATION(#12,'Body','MappedRepresentation',(#404));
#406= IFCPRODUCTDEFINITIONSHAPE($,$,(#405));
#407= IFCCARTESIANPOINT((32756.0303141013,30167.4827010362,16680.4999091246));
#408= IFCDIRECTION((0.,0.513521471058619,0.858076744097981));
#409= IFCDIRECTION((0.,-0.858076744097981,0.513521471058619));
#410= IFCAXIS2PLACEMENT3D(#407,#408,#409);
#411= IFCLOCALPLACEMENT(#42,#410);
#412= IFCMECHANICALFASTENER('0AMgnfNqL2ahB4A7SNu7QM',#246,'Bolt assembly',$,$,#411,#406,'ID0a5aac69-5f45-4292-b2c4-287717e07696',15.,8.);
#413= IFCMAPPEDITEM(#319,#122);
#414= IFCSHAPEREPRESENTATION(#12,'Body','MappedRepresentation',(#413));
#415= IFCPRODUCTDEFINITIONSHAPE($,$,(#414));
#416= IFCCARTESIANPOINT((32756.0303141012,29918.4827010362,16680.4999091246));
#417= IFCDIRECTION((0.,0.513442157053483,-0.858124205089372));
#418= IFCDIRECTION((0.,0.858124205089372,0.513442157053483));
#419= IFCAXIS2PLACEMENT3D(#416,#417,#418);
#420= IFCLOCALPLACEMENT(#42,#419);
#421= IFCMECHANICALFASTENER('2944u7aLb7VuhpZya6cYnG',#246,'Bolt assembly',$,$,#420,#415,'ID89104e07-9159-477f-8af3-8fc9069a2c50',15.,8.);
#422= IFCMAPPEDITEM(#319,#122);
#423= IFCSHAPEREPRESENTATION(#12,'Body','MappedRepresentation',(#422));
#424= IFCPRODUCTDEFINITIONSHAPE($,$,(#423));
#425= IFCCARTESIANPOINT((32756.0303141012,29918.4827010362,16829.4999091246));
#426= IFCDIRECTION((0.,-0.513442157053473,-0.858124205089378));
#427= IFCDIRECTION((0.,0.858124205089378,-0.513442157053473));
#428= IFCAXIS2PLACEMENT3D(#425,#426,#427);
#429= IFCLOCALPLACEMENT(#42,#428);
#430= IFCMECHANICALFASTENER('0CccvfZCjFkwsjO2NLKdrD',#246,'Bolt assembly',$,$,#429,#424,'ID0c9a6e69-8ccb-4fbb-adad-6025d5527d4d',15.,8.);
#431= IFCMAPPEDITEM(#319,#122);
#432= IFCSHAPEREPRESENTATION(#12,'Body','MappedRepresentation',(#431));
#433= IFCPRODUCTDEFINITIONSHAPE($,$,(#432));
#434= IFCCARTESIANPOINT((32563.8403142153,30167.4826822016,16829.499892212));
#435= IFCAXIS2PLACEMENT3D(#434,#399,#400);
#436= IFCLOCALPLACEMENT(#42,#435);
#437= IFCMECHANICALFASTENER('2sYCISOZv8vgtqwMX9vxnp',#246,'Bolt assembly',$,$,#436,#433,'IDb688c49c-623e-48e6-adf4-e96849e7bc73',15.,8.);
#438= IFCMAPPEDITEM(#319,#122);
#439= IFCSHAPEREPRESENTATION(#12,'Body','MappedRepresentation',(#438));
#440= IFCPRODUCTDEFINITIONSHAPE($,$,(#439));
#441= IFCCARTESIANPOINT((32563.8403142153,30167.4826822016,16680.4998922121));
#442= IFCAXIS2PLACEMENT3D(#441,#408,#409);
#443= IFCLOCALPLACEMENT(#42,#442);
#444= IFCMECHANICALFASTENER('0XTM7vP9DCvhlx0TZxak84',#246,'Bolt assembly',$,$,#443,#440,'ID217561f9-6493-4ce6-bbfb-01d8fb92e204',15.,8.);
#445= IFCMAPPEDITEM(#319,#122);
#446= IFCSHAPEREPRESENTATION(#12,'Body','MappedRepresentation',(#445));
#447= IFCPRODUCTDEFINITIONSHAPE($,$,(#446));
#448= IFCCARTESIANPOINT((32563.8403142153,29918.4826822016,16680.499892212));
#449= IFCAXIS2PLACEMENT3D(#448,#417,#418);
#450= IFCLOCALPLACEMENT(#42,#449);
#451= IFCMECHANICALFASTENER('2oCXFF6MD1WADhEQil4ipo',#246,'Bolt assembly',$,$,#450,#447,'IDb23213cf-1963-4180-a36b-39ab2f12ccf2',15.,8.);
#452= IFCMAPPEDITEM(#319,#122);
#453= IFCSHAPEREPRESENTATION(#12,'Body','MappedRepresentation',(#452));
#454= IFCPRODUCTDEFINITIONSHAPE($,$,(#453));
#455= IFCCARTESIANPOINT((32563.8403142153,29918.4826822016,16829.499892212));
#456= IFCAXIS2PLACEMENT3D(#455,#426,#427);
#457= IFCLOCALPLACEMENT(#42,#456);
#458= IFCMECHANICALFASTENER('2Kt8j6TeX7yv76daU_j1W9',#246,'Bolt assembly',$,$,#457,#454,'ID94dc8b46-7688-47f3-91c6-9e47beb41809',15.,8.);
#459= IFCCOLOURRGB('Light Green',0.356862745098039,0.592156862745098,0.137254901960784);
#460= IFCSURFACESTYLERENDERING(#459,0.,$,$,$,$,IFCNORMALISEDRATIOMEASURE(0.00390625),IFCSPECULAREXPONENT(10.),.NOTDEFINED.);
#461= IFCSURFACESTYLE('STEEL/S275',.POSITIVE.,(#460));
#462= IFCPRESENTATIONSTYLEASSIGNMENT((#461));
#463= IFCCARTESIANPOINT((9719.16191933001,116.999999990956,166.999999998767));
#464= IFCCARTESIANPOINT((9695.01024352857,117.171146781617,175.000024053283));
#465= IFCCARTESIANPOINT((9692.35738864364,116.999999990978,166.999999998767));
#466= IFCPOLYLOOP((#463,#464,#465));
#467= IFCFACEOUTERBOUND(#466,.T.);
#468= IFCFACE((#467));
#469= IFCCARTESIANPOINT((9695.01022291627,-116.828853216175,175.000743029032));
#470= IFCCARTESIANPOINT((9692.3573680525,-117.000000009026,166.999999998767));
#471= IFCPOLYLOOP((#469,#470,#465,#464));
#472= IFCFACEOUTERBOUND(#471,.T.);
#473= IFCFACE((#472));
#474= IFCCARTESIANPOINT((9719.11089649617,-116.828855311283,167.009445579595));
#475= IFCPOLYLOOP((#474,#470,#469));
#476= IFCFACEOUTERBOUND(#475,.T.);
#477= IFCFACE((#476));
#478= IFCCARTESIANPOINT((9695.01022219651,-125.000000009026,175.000768135254));
#479= IFCCARTESIANPOINT((285.000997738796,-125.000000000269,175.026116819794));
#480= IFCCARTESIANPOINT((209.99918619587,-125.0000000002,150.114167075713));
#481= IFCCARTESIANPOINT((3.56521923094988E-10,-125.000000000004,150.114190837143));
#482= IFCCARTESIANPOINT((3.20142135024071E-10,-125.000000000004,-175.000000000004));
#483= IFCCARTESIANPOINT((9980.16000002351,-125.000000009291,-175.00000000127));
#484= IFCCARTESIANPOINT((9980.01335673857,-124.999999996387,150.13742835927));
#485= IFCCARTESIANPOINT((9770.01106557721,-125.000000009095,150.137449624141));
#486= IFCPOLYLOOP((#478,#479,#480,#481,#482,#483,#484,#485));
#487= IFCFACEOUTERBOUND(#486,.T.);
#488= IFCFACE((#487));
#489= IFCCARTESIANPOINT((-3.56521923094988E-10,124.999999999996,-175.));
#490= IFCCARTESIANPOINT((9980.16000002283,124.999999990709,-175.000000001266));
#491= IFCPOLYLOOP((#482,#489,#490,#483));
#492= IFCFACEOUTERBOUND(#491,.T.);
#493= IFCFACE((#492));
#494= IFCCARTESIANPOINT((9980.16000002289,116.999999990709,150.13742835927));
#495= IFCCARTESIANPOINT((9980.16000002287,124.999999990709,150.13742835927));
#496= IFCCARTESIANPOINT((9770.0110875763,124.999999990905,150.137449624144));
#497= IFCCARTESIANPOINT((9770.01108687233,116.999999990905,150.137449624144));
#498= IFCPOLYLOOP((#494,#495,#496,#497));
#499= IFCFACEOUTERBOUND(#498,.T.);
#500= IFCFACE((#499));
#501= IFCCARTESIANPOINT((-3.20142135024071E-10,124.999999999996,150.114190837143));
#502= IFCCARTESIANPOINT((209.99920819496,124.999999999804,150.114167075717));
#503= IFCCARTESIANPOINT((285.001019737887,124.999999999734,174.99999999996));
#504= IFCCARTESIANPOINT((9695.01024421818,124.999999990978,174.99999999877));
#505= IFCPOLYLOOP((#490,#489,#501,#502,#503,#504,#496,#495));
#506= IFCFACEOUTERBOUND(#505,.T.);
#507= IFCFACE((#506));
#508= IFCCARTESIANPOINT((209.99920749099,116.999999999804,150.114167075717));
#509= IFCCARTESIANPOINT((-2.9831426218152E-10,116.999999999996,150.114190837143));
#510= IFCPOLYLOOP((#508,#502,#501,#509));
#511= IFCFACEOUTERBOUND(#510,.T.);
#512= IFCFACE((#511));
#513= IFCCARTESIANPOINT((260.836981000182,116.999999999756,166.999999999967));
#514= IFCCARTESIANPOINT((285.001019033916,116.999972277823,175.000835741092));
#515= IFCPOLYLOOP((#503,#502,#508,#513,#514));
#516= IFCFACEOUTERBOUND(#515,.T.);
#517= IFCFACE((#516));
#518= IFCCARTESIANPOINT((285.001017620911,116.999999999734,166.99999999996));
#519= IFCPOLYLOOP((#513,#518,#514));
#520= IFCFACEOUTERBOUND(#519,.T.);
#521= IFCFACE((#520));
#522= IFCCARTESIANPOINT((285.000997029761,-117.000000000269,166.99999999996));
#523= IFCCARTESIANPOINT((285.000998523406,-117.000025081132,175.026116846569));
#524= IFCPOLYLOOP((#514,#518,#522,#523));
#525= IFCFACEOUTERBOUND(#524,.T.);
#526= IFCFACE((#525));
#527= IFCCARTESIANPOINT((260.836960408174,-117.000000000247,166.999999999964));
#528= IFCPOLYLOOP((#523,#522,#527));
#529= IFCFACEOUTERBOUND(#528,.T.);
#530= IFCFACE((#529));
#531= IFCCARTESIANPOINT((209.99918689984,-117.0000000002,150.114167075713));
#532= IFCPOLYLOOP((#531,#480,#479,#523,#527));
#533= IFCFACEOUTERBOUND(#532,.T.);
#534= IFCFACE((#533));
#535= IFCCARTESIANPOINT((3.34694050252438E-10,-117.000000000004,150.114190837143));
#536= IFCPOLYLOOP((#480,#531,#535,#481));
#537= IFCFACEOUTERBOUND(#536,.T.);
#538= IFCFACE((#537));
#539= IFCCARTESIANPOINT((2.9831426218152E-10,-117.000000000004,-167.000000000004));
#540= IFCCARTESIANPOINT((-3.34694050252438E-10,116.999999999996,-167.));
#541= IFCPOLYLOOP((#539,#540,#509,#501,#489,#482,#481,#535));
#542= IFCFACEOUTERBOUND(#541,.T.);
#543= IFCFACE((#542));
#544= IFCCARTESIANPOINT((9980.16000002349,-117.000000009291,-167.00000000127));
#545= IFCCARTESIANPOINT((9980.16000002286,116.999999990709,-167.000000001266));
#546= IFCPOLYLOOP((#540,#539,#544,#545));
#547= IFCFACEOUTERBOUND(#546,.T.);
#548= IFCFACE((#547));
#549= IFCCARTESIANPOINT((9980.16000002353,-117.000000009291,150.13742835927));
#550= IFCPOLYLOOP((#483,#490,#495,#494,#545,#544,#549,#484));
#551= IFCFACEOUTERBOUND(#550,.T.);
#552= IFCFACE((#551));
#553= IFCCARTESIANPOINT((9770.01106628118,-117.000000009095,150.137449624141));
#554= IFCPOLYLOOP((#484,#549,#553,#485));
#555= IFCFACEOUTERBOUND(#554,.T.);
#556= IFCFACE((#555));
#557= IFCPOLYLOOP((#478,#485,#553,#474,#469));
#558= IFCFACEOUTERBOUND(#557,.T.);
#559= IFCFACE((#558));
#560= IFCPOLYLOOP((#504,#503,#514,#523,#479,#478,#469,#464));
#561= IFCFACEOUTERBOUND(#560,.T.);
#562= IFCFACE((#561));
#563= IFCPOLYLOOP((#497,#496,#504,#464,#463));
#564= IFCFACEOUTERBOUND(#563,.T.);
#565= IFCFACE((#564));
#566= IFCPOLYLOOP((#518,#513,#508,#509,#540,#545,#494,#497,#463,#465));
#567= IFCFACEOUTERBOUND(#566,.T.);
#568= IFCFACE((#567));
#569= IFCPOLYLOOP((#522,#518,#465,#470));
#570= IFCFACEOUTERBOUND(#569,.T.);
#571= IFCFACE((#570));
#572= IFCPOLYLOOP((#553,#549,#544,#539,#535,#531,#527,#522,#470,#474));
#573= IFCFACEOUTERBOUND(#572,.T.);
#574= IFCFACE((#573));
#575= IFCCLOSEDSHELL((#468,#473,#477,#488,#493,#500,#507,#512,#517,#521,#526,#530,#534,#538,#543,#548,#552,#556,#559,#562,#565,#568,#571,#574));
#576= IFCFACETEDBREP(#575);
#577= IFCSTYLEDITEM(#576,(#462),$);
#578= IFCSHAPEREPRESENTATION(#12,'Body','Brep',(#576));
#579= IFCPRODUCTDEFINITIONSHAPE($,$,(#578));
#580= IFCCARTESIANPOINT((42530.0013759512,30042.9967173074,16755.0007692249));
#581= IFCDIRECTION((9.79999967967159E-08,-0.999999999999995,0.));
#582= IFCDIRECTION((-0.999999999999991,-9.79999999293875E-08,-8.79999998993968E-08));
#583= IFCAXIS2PLACEMENT3D(#580,#581,#582);
#584= IFCLOCALPLACEMENT(#42,#583);
#585= IFCBEAM('0IRWplUaf3LvE$fRnfmsPb',#160,'B1-\S\?\S\Z350x250x8','TUB350X250X8 ',$,#584,#579,'ID126e0cef-7a4a-4357-93bf-a5bc69c36665');
#586= IFCBEAMTYPE('0p_Bs1j2vCMRbwsJAwAwDa',#5,'TUB350X250X8 ',$,$,$,$,$,$,.NOTDEFINED.);
#587= IFCPROPERTYSINGLEVALUE('Bottom elevation',$,IFCLABEL(' +16.630'),$);
#588= IFCPROPERTYSINGLEVALUE('Top elevation',$,IFCLABEL(' +16.880'),$);
#589= IFCPROPERTYSINGLEVALUE('Initial GUID',$,$,$);
#590= IFCPROPERTYSINGLEVALUE('Preliminary mark',$,IFCLABEL('5-2-P4'),$);
#591= IFCPROPERTYSINGLEVALUE('Phase',$,IFCINTEGER(4),$);
#592= IFCPROPERTYSINGLEVALUE('Class',$,IFCLABEL('3'),$);
#593= IFCPROPERTYSET('3Vq4JhpD9F3RXo_fHTIjCn',#5,'Tekla Common','Common Properties to Shared building elements',(#587,#588,#589,#590,#591,#592));
#594= IFCPROPERTYSINGLEVALUE('Weight',$,IFCMASSMEASURE(722.27),$);
#595= IFCPROPERTYSINGLEVALUE('Volume',$,IFCVOLUMEMEASURE(0.092),$);
#596= IFCPROPERTYSINGLEVALUE('Gross footprint area',$,IFCAREAMEASURE(3.481),$);
#597= IFCPROPERTYSINGLEVALUE('Area per tons',$,IFCAREAMEASURE(16.312),$);
#598= IFCPROPERTYSINGLEVALUE('Net surface area',$,IFCAREAMEASURE(11.781),$);
#599= IFCPROPERTYSINGLEVALUE('Height',$,IFCLENGTHMEASURE(350.),$);
#600= IFCPROPERTYSINGLEVALUE('Width',$,IFCLENGTHMEASURE(250.),$);
#601= IFCPROPERTYSINGLEVALUE('Length',$,IFCLENGTHMEASURE(9980.2),$);
#602= IFCPROPERTYSET('0GiLOLqvv7o9b$q2dyGn1b',#5,'Tekla Quantity','Quantity Properties to Shared building elements',(#594,#595,#596,#597,#598,#599,#600,#601));
#603= IFCPROPERTYSINGLEVALUE('LoadBearing',$,IFCBOOLEAN(.F.),$);
#604= IFCPROPERTYSINGLEVALUE('Reference',$,IFCIDENTIFIER('5-2-P4'),$);
#605= IFCPROPERTYSET('27A96OK6zABgx2qx8ymOpi',#5,'Pset_BeamCommon','Common Properties to beam elements',(#603,#604));
#606= IFCQUANTITYLENGTH('Length',$,$,9980.16000002311);
#607= IFCQUANTITYAREA('OuterSurfaceArea',$,$,11.7814483485935);
#608= IFCQUANTITYVOLUME('NetVolume',$,$,0.0920088099667634);
#609= IFCQUANTITYWEIGHT('NetWeight',$,$,722.269158239093);
#610= IFCELEMENTQUANTITY('1Xm6D605X99ff4ZhbHmS5J',#5,'BaseQuantities',$,$,(#606,#607,#608,#609));
#611= IFCMATERIAL('STEEL/S275');
#612= IFCOWNERHISTORY(#3,#4,$,.NOCHANGE.,$,$,$,1770796800);
#613= IFCCOLOURRGB('Dark Gray',0.709803921568627,0.403921568627451,0.2);
#614= IFCSURFACESTYLERENDERING(#613,0.,$,$,$,$,IFCNORMALISEDRATIOMEASURE(0.00390625),IFCSPECULAREXPONENT(10.),.NOTDEFINED.);
#615= IFCSURFACESTYLE('STEEL/S275',.POSITIVE.,(#614));
#616= IFCPRESENTATIONSTYLEASSIGNMENT((#615));
#617= IFCCARTESIANPOINT((-7.27595761418343E-12,-4.99999999999454,0.));
#618= IFCCARTESIANPOINT((0.00139549272716977,-5.000000000402,233.955612182519));
#619= IFCCARTESIANPOINT((0.0013954927562736,4.99999999959437,233.955612182526));
#620= IFCCARTESIANPOINT((2.91038304567337E-11,5.,7.27595761418343E-12));
#621= IFCPOLYLOOP((#617,#618,#619,#620));
#622= IFCFACEOUTERBOUND(#621,.T.);
#623= IFCFACE((#622));
#624= IFCCARTESIANPOINT((82.353012396874,-5.00000000058935,233.956705360317));
#625= IFCCARTESIANPOINT((79.0312862517094,4.99999999941429,233.95666126602));
#626= IFCPOLYLOOP((#619,#618,#624,#625));
#627= IFCFACEOUTERBOUND(#626,.T.);
#628= IFCFACE((#627));
#629= IFCCARTESIANPOINT((79.0298690570198,4.99999999981628,1.41881173476577E-10));
#630= IFCPOLYLOOP((#620,#619,#625,#629));
#631= IFCFACEOUTERBOUND(#630,.T.);
#632= IFCFACE((#631));
#633= IFCCARTESIANPOINT((82.3515952019006,-5.00000000018736,1.38243194669485E-10));
#634= IFCPOLYLOOP((#617,#620,#629,#633));
#635= IFCFACEOUTERBOUND(#634,.T.);
#636= IFCFACE((#635));
#637= IFCPOLYLOOP((#618,#617,#633,#624));
#638= IFCFACEOUTERBOUND(#637,.T.);
#639= IFCFACE((#638));
#640= IFCPOLYLOOP((#629,#625,#624,#633));
#641= IFCFACEOUTERBOUND(#640,.T.);
#642= IFCFACE((#641));
#643= IFCCLOSEDSHELL((#623,#628,#632,#636,#639,#642));
#644= IFCFACETEDBREP(#643);
#645= IFCSTYLEDITEM(#644,(#616),$);
#646= IFCSHAPEREPRESENTATION(#12,'Body','Brep',(#644));
#647= IFCPRODUCTDEFINITIONSHAPE($,$,(#646));
#648= IFCCARTESIANPOINT((42243.4242940499,29872.7156689896,16871.6218605548));
#649= IFCDIRECTION((-5.66069321212126E-06,-1.88089810035308E-06,-0.999999999982209));
#650= IFCDIRECTION((0.949019259928927,0.315218089976401,-5.96499998725731E-06));
#651= IFCAXIS2PLACEMENT3D(#648,#649,#650);
#652= IFCLOCALPLACEMENT(#42,#651);
#653= IFCPLATE('1nW7GSVBv6wBo6hWBMdiVG',#612,'PLATE-10','PL10*82.4',$,#652,#647,'ID7180741c-7cbe-46e8-bc86-ae02d69ec7d0');
#654= IFCPLATETYPE('2rfXoB$7f8X8QC59YZGvip',#5,'PL10*82.4',$,$,$,$,$,$,.NOTDEFINED.);
#655= IFCPROPERTYSINGLEVALUE('Bottom elevation',$,IFCLABEL(' +16.638'),$);
#656= IFCPROPERTYSINGLEVALUE('Top elevation',$,IFCLABEL(' +16.872'),$);
#657= IFCPROPERTYSINGLEVALUE('Preliminary mark',$,IFCLABEL('5-2-P90'),$);
#658= IFCPROPERTYSINGLEVALUE('Class',$,IFCLABEL('22'),$);
#659= IFCPROPERTYSET('07e$bVb$51WuF$Uajp94Vs',#5,'Tekla Common','Common Properties to Shared building elements',(#655,#656,#589,#657,#591,#658));
#660= IFCPROPERTYSINGLEVALUE('Weight',$,IFCMASSMEASURE(1.48),$);
#661= IFCPROPERTYSINGLEVALUE('Volume',$,IFCVOLUMEMEASURE(0.),$);
#662= IFCPROPERTYSINGLEVALUE('Gross footprint area',$,IFCAREAMEASURE(0.001),$);
#663= IFCPROPERTYSINGLEVALUE('Area per tons',$,IFCAREAMEASURE(29.809),$);
#664= IFCPROPERTYSINGLEVALUE('Net surface area',$,IFCAREAMEASURE(0.044),$);
#665= IFCPROPERTYSINGLEVALUE('Height',$,IFCLENGTHMEASURE(82.4),$);
#666= IFCPROPERTYSINGLEVALUE('Width',$,IFCLENGTHMEASURE(10.),$);
#667= IFCPROPERTYSINGLEVALUE('Length',$,IFCLENGTHMEASURE(234.),$);
#668= IFCPROPERTYSET('3G6eWR0r1DRhDbI$OI_dEm',#5,'Tekla Quantity','Quantity Properties to Shared building elements',(#660,#661,#662,#663,#664,#665,#666,#667));
#669= IFCPROPERTYSINGLEVALUE('Reference',$,IFCIDENTIFIER('5-2-P90'),$);
#670= IFCPROPERTYSET('0xDfckv3P7ZxhCU$4_pF4x',#5,'Pset_PlateCommon','Common Properties to plate elements',(#603,#669));
#671= IFCQUANTITYLENGTH('Width',$,$,82.3516168966835);
#672= IFCQUANTITYAREA('NetArea',$,$,0.0441748243715335);
#673= IFCQUANTITYAREA('GrossArea',$,$,0.0192667534224329);
#674= IFCQUANTITYAREA('CrossSectionArea',$,$,0.0001);
#675= IFCQUANTITYVOLUME('NetVolume',$,$,0.000188780953920261);
#676= IFCQUANTITYVOLUME('GrossVolume',$,$,0.000212422719386836);
#677= IFCELEMENTQUANTITY('1ugXB42GrEZRMCu11gudX4',#5,'BaseQuantities',$,$,(#671,#672,#673,#674,#675,#676));
#678= IFCCARTESIANPOINT((-0.00879493141474086,-4.99999999971988,234.000000000247));
#679= IFCCARTESIANPOINT((-0.0087949314074649,5.00000000027285,234.000000000255));
#680= IFCPOLYLOOP((#617,#678,#679,#620));
#681= IFCFACEOUTERBOUND(#680,.T.);
#682= IFCFACE((#681));
#683= IFCCARTESIANPOINT((184.181198120354,-4.99999999978536,234.000000000338));
#684= IFCCARTESIANPOINT((184.181198120361,5.000000000211,234.000000000342));
#685= IFCPOLYLOOP((#678,#683,#684,#679));
#686= IFCFACEOUTERBOUND(#685,.T.);
#687= IFCFACE((#686));
#688= IFCCARTESIANPOINT((184.190002441363,-5.00000000005821,4.11091605201364E-10));
#689= IFCCARTESIANPOINT((184.19000244137,4.99999999994179,4.14729584008455E-10));
#690= IFCPOLYLOOP((#683,#688,#689,#684));
#691= IFCFACEOUTERBOUND(#690,.T.);
#692= IFCFACE((#691));
#693= IFCPOLYLOOP((#688,#617,#620,#689));
#694= IFCFACEOUTERBOUND(#693,.T.);
#695= IFCFACE((#694));
#696= IFCPOLYLOOP((#684,#689,#620,#679));
#697= IFCFACEOUTERBOUND(#696,.T.);
#698= IFCFACE((#697));
#699= IFCPOLYLOOP((#688,#683,#678,#617));
#700= IFCFACEOUTERBOUND(#699,.T.);
#701= IFCFACE((#700));
#702= IFCCLOSEDSHELL((#682,#687,#692,#695,#698,#701));
#703= IFCFACETEDBREP(#702);
#704= IFCSTYLEDITEM(#703,(#616),$);
#705= IFCSHAPEREPRESENTATION(#12,'Body','Brep',(#703));
#706= IFCPRODUCTDEFINITIONSHAPE($,$,(#705));
#707= IFCCARTESIANPOINT((32752.0303366248,29897.8749532914,16871.9936867826));
#708= IFCDIRECTION((-3.75851438220707E-05,-3.19319999980507E-05,-0.999999998783852));
#709= IFCDIRECTION((-0.999999999283541,4.50400000628189E-06,3.75850000178828E-05));
#710= IFCAXIS2PLACEMENT3D(#707,#708,#709);
#711= IFCLOCALPLACEMENT(#42,#710);
#712= IFCPLATE('2qrOMYzyP5chsfMIMKUuoW',#612,'PLATE-10','PL10*184.2',$,#711,#706,'IDb4d585a2-f7c6-459a-bda9-5925947b8ca0');
#713= IFCPLATETYPE('1e4QoTMvDFcekDHbjRDjIU',#5,'PL10*184.2',$,$,$,$,$,$,.NOTDEFINED.);
#714= IFCPROPERTYSINGLEVALUE('Preliminary mark',$,IFCLABEL('5-2-P102'),$);
#715= IFCPROPERTYSET('0w$I8JvD198eoMJWhT5rhi',#5,'Tekla Common','Common Properties to Shared building elements',(#655,#656,#589,#714,#591,#658));
#716= IFCPROPERTYSINGLEVALUE('Weight',$,IFCMASSMEASURE(3.38),$);
#717= IFCPROPERTYSINGLEVALUE('Gross footprint area',$,IFCAREAMEASURE(0.002),$);
#718= IFCPROPERTYSINGLEVALUE('Area per tons',$,IFCAREAMEASURE(27.95),$);
#719= IFCPROPERTYSINGLEVALUE('Net surface area',$,IFCAREAMEASURE(0.095),$);
#720= IFCPROPERTYSINGLEVALUE('Height',$,IFCLENGTHMEASURE(184.2),$);
#721= IFCPROPERTYSET('02U3fW9tL3U8trnJQpz81a',#5,'Tekla Quantity','Quantity Properties to Shared building elements',(#716,#661,#717,#718,#719,#720,#666,#667));
#722= IFCPROPERTYSINGLEVALUE('Reference',$,IFCIDENTIFIER('5-2-P102'),$);
#723= IFCPROPERTYSET('0qBZZzwBj43v7NnIIrRSwh',#5,'Pset_PlateCommon','Common Properties to plate elements',(#603,#722));
#724= IFCQUANTITYLENGTH('Width',$,$,184.190002311658);
#725= IFCQUANTITYAREA('NetArea',$,$,0.0945647189035922);
#726= IFCQUANTITYAREA('GrossArea',$,$,0.0431017356844526);
#727= IFCQUANTITYVOLUME('NetVolume',$,$,0.000431004594726771);
#728= IFCQUANTITYVOLUME('GrossVolume',$,$,0.000431004594726771);
#729= IFCELEMENTQUANTITY('0kADr6gpn5duHqADf6BMi7',#5,'BaseQuantities',$,$,(#724,#725,#726,#674,#727,#728));
#730= IFCCARTESIANPOINT((3.63797880709171E-12,-4.,0.));
#731= IFCCARTESIANPOINT((-0.0149439046253974,-4.,234.000000000113));
#732= IFCCARTESIANPOINT((-0.0149439046253974,4.,234.000000000113));
#733= IFCCARTESIANPOINT((3.63797880709171E-12,4.,0.));
#734= IFCPOLYLOOP((#730,#731,#732,#733));
#735= IFCFACEOUTERBOUND(#734,.T.);
#736= IFCFACE((#735));
#737= IFCCARTESIANPOINT((317.104187011486,-4.,234.010131836567));
#738= IFCCARTESIANPOINT((317.104187011486,4.,234.010131836567));
#739= IFCPOLYLOOP((#731,#737,#738,#732));
#740= IFCFACEOUTERBOUND(#739,.T.);
#741= IFCFACE((#740));
#742= IFCCARTESIANPOINT((317.111663818509,-4.,1.04773789644241E-09));
#743= IFCCARTESIANPOINT((317.111663818509,4.,1.04773789644241E-09));
#744= IFCPOLYLOOP((#737,#742,#743,#738));
#745= IFCFACEOUTERBOUND(#744,.T.);
#746= IFCFACE((#745));
#747= IFCPOLYLOOP((#742,#730,#733,#743));
#748= IFCFACEOUTERBOUND(#747,.T.);
#749= IFCFACE((#748));
#750= IFCPOLYLOOP((#738,#743,#733,#732));
#751= IFCFACEOUTERBOUND(#750,.T.);
#752= IFCFACE((#751));
#753= IFCPOLYLOOP((#742,#737,#731,#730));
#754= IFCFACEOUTERBOUND(#753,.T.);
#755= IFCFACE((#754));
#756= IFCCLOSEDSHELL((#736,#741,#746,#749,#752,#755));
#757= IFCFACETEDBREP(#756);
#758= IFCSTYLEDITEM(#757,(#462),$);
#759= IFCSHAPEREPRESENTATION(#12,'Body','Brep',(#757));
#760= IFCPRODUCTDEFINITIONSHAPE($,$,(#759));
#761= IFCCARTESIANPOINT((32756.0303141012,29892.874953294,16871.9938464416));
#762= IFCDIRECTION((0.,3.19310000159021E-05,-0.999999999490206));
#763= IFCDIRECTION((0.,0.999999999490206,3.19310000177136E-05));
#764= IFCAXIS2PLACEMENT3D(#761,#762,#763);
#765= IFCLOCALPLACEMENT(#42,#764);
#766= IFCPLATE('0YDO3MORb6LB3jr2pSkRLs',#246,'PLATE-8','PL8*234',$,#765,#760,'ID223580d6-61b9-4654-b0ed-d42cdcb9b576');
#767= IFCPLATETYPE('0nCwUh5KbCYhoXZq4mGYIP',#5,'PL8*234',$,$,$,$,$,$,.NOTDEFINED.);
#768= IFCPROPERTYSINGLEVALUE('Preliminary mark',$,IFCLABEL('5-2-P78'),$);
#769= IFCPROPERTYSINGLEVALUE('Class',$,IFCLABEL('17'),$);
#770= IFCPROPERTYSET('2pOA635WP0MgdUucX3RFC1',#5,'Tekla Common','Common Properties to Shared building elements',(#655,#656,#589,#768,#591,#769));
#771= IFCPROPERTYSINGLEVALUE('Weight',$,IFCMASSMEASURE(4.66),$);
#772= IFCPROPERTYSINGLEVALUE('Volume',$,IFCVOLUMEMEASURE(0.001),$);
#773= IFCPROPERTYSINGLEVALUE('Gross footprint area',$,IFCAREAMEASURE(0.003),$);
#774= IFCPROPERTYSINGLEVALUE('Area per tons',$,IFCAREAMEASURE(33.739),$);
#775= IFCPROPERTYSINGLEVALUE('Net surface area',$,IFCAREAMEASURE(0.157),$);
#776= IFCPROPERTYSINGLEVALUE('Height',$,IFCLENGTHMEASURE(234.),$);
#777= IFCPROPERTYSINGLEVALUE('Width',$,IFCLENGTHMEASURE(8.),$);
#778= IFCPROPERTYSINGLEVALUE('Length',$,IFCLENGTHMEASURE(317.1),$);
#779= IFCPROPERTYSET('3CELPVe6X0Ufsz$d2$tQLD',#5,'Tekla Quantity','Quantity Properties to Shared building elements',(#771,#772,#773,#774,#775,#776,#777,#778));
#780= IFCPROPERTYSINGLEVALUE('Reference',$,IFCIDENTIFIER('5-2-P78'),$);
#781= IFCPROPERTYSET('3XiFwOKMT70fP9MCJPsz4U',#5,'Pset_PlateCommon','Common Properties to plate elements',(#603,#780));
#782= IFCQUANTITYLENGTH('Width',$,$,234.010131835938);
#783= IFCQUANTITYAREA('NetArea',$,$,0.15723114646105);
#784= IFCQUANTITYAREA('GrossArea',$,$,0.0742108392818499);
#785= IFCQUANTITYAREA('CrossSectionArea',$,$,6.4E-05);
#786= IFCQUANTITYVOLUME('NetVolume',$,$,0.000593652876169699);
#787= IFCQUANTITYVOLUME('GrossVolume',$,$,0.000593652876169699);
#788= IFCELEMENTQUANTITY('1Vf6v4jcP98hL8NIWRw5sB',#5,'BaseQuantities',$,$,(#782,#783,#784,#785,#786,#787));
#789= IFCSHAPEREPRESENTATION(#12,'Body','Brep',(#757));
#790= IFCPRODUCTDEFINITIONSHAPE($,$,(#789));
#791= IFCCARTESIANPOINT((32563.8403142153,29892.884953294,16872.0007692252));
#792= IFCAXIS2PLACEMENT3D(#791,#762,#763);
#793= IFCLOCALPLACEMENT(#42,#792);
#794= IFCPLATE('11WW1LRIz3WwDEC6fgzVKh',#246,'PLATE-8','PL8*234',$,#793,#790,'ID41820055-6d2f-4383-a34e-306a6af5f52b');
#795= IFCCARTESIANPOINT((87.4188766479128,-5.00000000040745,234.00000000024));
#796= IFCCARTESIANPOINT((87.4172439574322,-5.00000000009459,-1.01863406598568E-10));
#797= IFCCARTESIANPOINT((87.4172439574322,4.99999999991996,-8.73114913702011E-11));
#798= IFCCARTESIANPOINT((87.4188766479128,4.9999999996071,234.000000000258));
#799= IFCPOLYLOOP((#795,#796,#797,#798));
#800= IFCFACEOUTERBOUND(#799,.T.);
#801= IFCFACE((#800));
#802= IFCCARTESIANPOINT((8.40161306097434,4.99999999968713,234.000000000375));
#803= IFCCARTESIANPOINT((5.10859074406835,-5.00000000032742,234.000000000364));
#804= IFCPOLYLOOP((#795,#798,#802,#803));
#805= IFCFACEOUTERBOUND(#804,.T.);
#806= IFCFACE((#805));
#807= IFCCARTESIANPOINT((5.11542279489004,-5.00000000001455,-1.45519152283669E-11));
#808= IFCPOLYLOOP((#796,#795,#803,#807));
#809= IFCFACEOUTERBOUND(#808,.T.);
#810= IFCFACE((#809));
#811= IFCCARTESIANPOINT((8.40844511178875,5.,-3.63797880709171E-12));
#812= IFCPOLYLOOP((#797,#796,#807,#811));
#813= IFCFACEOUTERBOUND(#812,.T.);
#814= IFCFACE((#813));
#815= IFCPOLYLOOP((#798,#797,#811,#802));
#816= IFCFACEOUTERBOUND(#815,.T.);
#817= IFCFACE((#816));
#818= IFCPOLYLOOP((#807,#803,#802,#811));
#819= IFCFACEOUTERBOUND(#818,.T.);
#820= IFCFACE((#819));
#821= IFCCLOSEDSHELL((#801,#806,#810,#814,#817,#820));
#822= IFCFACETEDBREP(#821);
#823= IFCSTYLEDITEM(#822,(#616),$);
#824= IFCSHAPEREPRESENTATION(#12,'Body','Brep',(#822));
#825= IFCPRODUCTDEFINITIONSHAPE($,$,(#824));
#826= IFCCARTESIANPOINT((32753.6011050377,29900.2656348839,16871.9993211434));
#827= IFCDIRECTION((-6.56935363076628E-06,-2.97348827152746E-05,-0.99999999953634));
#828= IFCDIRECTION((0.949170355260033,-0.31476282608622,3.12400000016959E-06));
#829= IFCAXIS2PLACEMENT3D(#826,#827,#828);
#830= IFCLOCALPLACEMENT(#42,#829);
#831= IFCPLATE('06tWJHsATDtRiu_InMyp9U',#612,'PLATE-10','PL10*82.3',$,#830,#825,'ID06de04d1-d8a7-4ddd-bb38-f92c56f3325e');
#832= IFCPLATETYPE('2DYPE7bm91Cx1Z0S9vsuwT',#5,'PL10*82.3',$,$,$,$,$,$,.NOTDEFINED.);
#833= IFCQUANTITYLENGTH('Width',$,$,82.3102859019844);
#834= IFCQUANTITYAREA('NetArea',$,$,0.0441654666011192);
#835= IFCQUANTITYAREA('GrossArea',$,$,0.0192606541646234);
#836= IFCQUANTITYVOLUME('NetVolume',$,$,0.000188743329157068);
#837= IFCQUANTITYVOLUME('GrossVolume',$,$,0.000204556350991472);
#838= IFCELEMENTQUANTITY('0YUiqoRFT7bhOpDMupRi4S',#5,'BaseQuantities',$,$,(#833,#834,#835,#674,#836,#837));
#839= IFCCARTESIANPOINT((3.63797880709171E-10,-4.00000000045839,234.000000000367));
#840= IFCCARTESIANPOINT((3.6015990190208E-10,3.99999999954161,234.000000000367));
#841= IFCPOLYLOOP((#730,#839,#840,#733));
#842= IFCFACEOUTERBOUND(#841,.T.);
#843= IFCFACE((#842));
#844= IFCCARTESIANPOINT((316.981750489198,-3.99999999982538,234.000000000826));
#845= IFCCARTESIANPOINT((316.981750489191,4.00000000017462,234.000000000822));
#846= IFCPOLYLOOP((#839,#844,#845,#840));
#847= IFCFACEOUTERBOUND(#846,.T.);
#848= IFCFACE((#847));
#849= IFCCARTESIANPOINT((316.981750488831,-3.99999999937427,4.47471393272281E-10));
#850= IFCCARTESIANPOINT((316.981750488823,4.00000000062573,4.47471393272281E-10));
#851= IFCPOLYLOOP((#844,#849,#850,#845));
#852= IFCFACEOUTERBOUND(#851,.T.);
#853= IFCFACE((#852));
#854= IFCPOLYLOOP((#849,#730,#733,#850));
#855= IFCFACEOUTERBOUND(#854,.T.);
#856= IFCFACE((#855));
#857= IFCPOLYLOOP((#845,#850,#733,#840));
#858= IFCFACEOUTERBOUND(#857,.T.);
#859= IFCFACE((#858));
#860= IFCPOLYLOOP((#849,#844,#839,#730));
#861= IFCFACEOUTERBOUND(#860,.T.);
#862= IFCFACE((#861));
#863= IFCCLOSEDSHELL((#843,#848,#853,#856,#859,#862));
#864= IFCFACETEDBREP(#863);
#865= IFCSTYLEDITEM(#864,(#462),$);
#866= IFCSHAPEREPRESENTATION(#12,'Body','Brep',(#864));
#867= IFCPRODUCTDEFINITIONSHAPE($,$,(#866));
#868= IFCCARTESIANPOINT((42324.0204164712,30209.864062869,16871.9890779665));
#869= IFCDIRECTION((-5.30000033904799E-08,-3.09239969974442E-05,-0.999999999521852));
#870= IFCDIRECTION((-5.74769999927648E-05,-0.99999999787005,3.09239999924358E-05));
#871= IFCAXIS2PLACEMENT3D(#868,#869,#870);
#872= IFCLOCALPLACEMENT(#42,#871);
#873= IFCPLATE('0C7poSein0HhkaxTYz_f4K',#246,'PLATE-8','PL8*234',$,#872,#867,'ID0c1f3c9c-a2cc-4046-bba4-edd8bdfa9114');
#874= IFCPROPERTYSINGLEVALUE('Area per tons',$,IFCAREAMEASURE(33.74),$);
#875= IFCPROPERTYSINGLEVALUE('Length',$,IFCLENGTHMEASURE(317.),$);
#876= IFCPROPERTYSET('3Gs5560T54ieUROc_mKHq1',#5,'Tekla Quantity','Quantity Properties to Shared building elements',(#771,#772,#773,#874,#775,#776,#777,#875));
#877= IFCQUANTITYLENGTH('Width',$,$,234.000000000007);
#878= IFCQUANTITYAREA('NetArea',$,$,0.15716316723633);
#879= IFCQUANTITYAREA('GrossArea',$,$,0.0741737296142601);
#880= IFCQUANTITYVOLUME('NetVolume',$,$,0.000593389836914072);
#881= IFCQUANTITYVOLUME('GrossVolume',$,$,0.000593389836914072);
#882= IFCELEMENTQUANTITY('2qtWDvVSTFWPBqgjLO5OkK',#5,'BaseQuantities',$,$,(#877,#878,#879,#785,#880,#881));
#883= IFCCARTESIANPOINT((0.000235891515330877,-4.00000000045839,234.000000000357));
#884= IFCCARTESIANPOINT((0.000235891504416941,3.99999999954161,234.000000000364));
#885= IFCPOLYLOOP((#730,#883,#884,#733));
#886= IFCFACEOUTERBOUND(#885,.T.);
#887= IFCFACE((#886));
#888= IFCCARTESIANPOINT((316.989471435281,-4.00000000058208,233.999999999793));
#889= IFCCARTESIANPOINT((316.989471435274,3.99999999941792,233.999999999804));
#890= IFCPOLYLOOP((#883,#888,#889,#884));
#891= IFCFACEOUTERBOUND(#890,.T.);
#892= IFCFACE((#891));
#893= IFCCARTESIANPOINT((316.989227294383,-4.00000000013097,-7.82165443524718E-10));
#894= IFCCARTESIANPOINT((316.989227294369,3.99999999987631,-7.74889485910535E-10));
#895= IFCPOLYLOOP((#888,#893,#894,#889));
#896= IFCFACEOUTERBOUND(#895,.T.);
#897= IFCFACE((#896));
#898= IFCPOLYLOOP((#893,#730,#733,#894));
#899= IFCFACEOUTERBOUND(#898,.T.);
#900= IFCFACE((#899));
#901= IFCPOLYLOOP((#889,#894,#733,#884));
#902= IFCFACEOUTERBOUND(#901,.T.);
#903= IFCFACE((#902));
#904= IFCPOLYLOOP((#893,#888,#883,#730));
#905= IFCFACEOUTERBOUND(#904,.T.);
#906= IFCFACE((#905));
#907= IFCCLOSEDSHELL((#887,#892,#897,#900,#903,#906));
#908= IFCFACETEDBREP(#907);
#909= IFCSTYLEDITEM(#908,(#462),$);
#910= IFCSHAPEREPRESENTATION(#12,'Body','Brep',(#908));
#911= IFCPRODUCTDEFINITIONSHAPE($,$,(#910));
#912= IFCCARTESIANPOINT((42516.0254763487,30209.8530445738,16871.9890682355));
#913= IFCDIRECTION((-5.8732999993325E-05,-0.999999997797101,3.09229999927819E-05));
#914= IFCAXIS2PLACEMENT3D(#912,#869,#913);
#915= IFCLOCALPLACEMENT(#42,#914);
#916= IFCPLATE('3SoDC6V8zAhwdu3Z8Ke63d',#246,'PLATE-8','PL8*234',$,#915,#911,'IDdcc8d306-7c8f-4aaf-a9f8-0e3214a060e7');
#917= IFCQUANTITYLENGTH('Width',$,$,234.000000000218);
#918= IFCQUANTITYAREA('NetArea',$,$,0.157166788007168);
#919= IFCQUANTITYAREA('GrossArea',$,$,0.0741755363159872);
#920= IFCQUANTITYVOLUME('NetVolume',$,$,0.000593403841217803);
#921= IFCQUANTITYVOLUME('GrossVolume',$,$,0.000593403841217803);
#922= IFCELEMENTQUANTITY('3Zdg90mZbF6etPSCsM9Epe',#5,'BaseQuantities',$,$,(#917,#918,#919,#785,#920,#921));
#923= IFCCARTESIANPOINT((4.00447606807575E-06,-5.00000000037107,234.000000000102));
#924= IFCCARTESIANPOINT((4.00448334403336E-06,4.99999999961074,234.000000000113));
#925= IFCPOLYLOOP((#617,#923,#924,#620));
#926= IFCFACEOUTERBOUND(#925,.T.);
#927= IFCFACE((#926));
#928= IFCCARTESIANPOINT((183.982284545978,-5.00000000022555,234.000000000226));
#929= IFCCARTESIANPOINT((183.982284545993,4.99999999975989,234.000000000233));
#930= IFCPOLYLOOP((#923,#928,#929,#924));
#931= IFCFACEOUTERBOUND(#930,.T.);
#932= IFCFACE((#931));
#933= IFCCARTESIANPOINT((183.982284546168,-4.99999999983993,2.07364792004228E-10));
#934= IFCCARTESIANPOINT((183.982284546175,5.00000000013824,2.18278728425503E-10));
#935= IFCPOLYLOOP((#928,#933,#934,#929));
#936= IFCFACEOUTERBOUND(#935,.T.);
#937= IFCFACE((#936));
#938= IFCPOLYLOOP((#933,#617,#620,#934));
#939= IFCFACEOUTERBOUND(#938,.T.);
#940= IFCFACE((#939));
#941= IFCPOLYLOOP((#929,#934,#620,#924));
#942= IFCFACEOUTERBOUND(#941,.T.);
#943= IFCFACE((#942));
#944= IFCPOLYLOOP((#933,#928,#923,#617));
#945= IFCFACEOUTERBOUND(#944,.T.);
#946= IFCFACE((#945));
#947= IFCCLOSEDSHELL((#927,#932,#937,#940,#943,#946));
#948= IFCFACETEDBREP(#947);
#949= IFCSTYLEDITEM(#948,(#616),$);
#950= IFCSHAPEREPRESENTATION(#12,'Body','Brep',(#948));
#951= IFCPRODUCTDEFINITIONSHAPE($,$,(#950));
#952= IFCCARTESIANPOINT((42328.025102521,29897.8895536871,16871.9990400617));
#953= IFCDIRECTION((-7.01321550877765E-08,-3.19310000049882E-05,-0.999999999490203));
#954= IFCDIRECTION((0.999999995189076,-9.80910000269788E-05,-6.70000094188714E-08));
#955= IFCAXIS2PLACEMENT3D(#952,#953,#954);
#956= IFCLOCALPLACEMENT(#42,#955);
#957= IFCPLATE('1GIVShTlnEe9iUcyjkgBn7',#612,'PLATE-10','PL10*184',$,#956,#951,'ID5049f72b-76fc-4ea0-9b1e-9bcb6ea8bc47');
#958= IFCPLATETYPE('0NL98iCJvCwQkwbNWNKKvH',#5,'PL10*184',$,$,$,$,$,$,.NOTDEFINED.);
#959= IFCPROPERTYSINGLEVALUE('Area per tons',$,IFCAREAMEASURE(27.951),$);
#960= IFCPROPERTYSINGLEVALUE('Net surface area',$,IFCAREAMEASURE(0.094),$);
#961= IFCPROPERTYSINGLEVALUE('Height',$,IFCLENGTHMEASURE(184.),$);
#962= IFCPROPERTYSET('06P4RDHsT6Q8wf3cuPD2FB',#5,'Tekla Quantity','Quantity Properties to Shared building elements',(#716,#661,#717,#959,#960,#961,#666,#667));
#963= IFCQUANTITYLENGTH('Width',$,$,183.982284546476);
#964= IFCQUANTITYAREA('NetArea',$,$,0.09446335388124);
#965= IFCQUANTITYAREA('GrossArea',$,$,0.0430518551631834);
#966= IFCQUANTITYVOLUME('NetVolume',$,$,0.000430518541151848);
#967= IFCQUANTITYVOLUME('GrossVolume',$,$,0.000430518541151848);
#968= IFCELEMENTQUANTITY('32XSm$bE9Dpel7MMEhJQHF',#5,'BaseQuantities',$,$,(#963,#964,#965,#674,#966,#967));
#969= IFCRELAGGREGATES('1pam1Hcib2dvUm$Q$x4J_a',#5,$,$,#37,(#39));
#970= IFCRELAGGREGATES('3N5MQBsej7URl4B6PnNMHw',#5,$,$,#39,(#41));
#971= IFCRELAGGREGATES('03Hym3R0HEDQlLc7HU6CJD',#5,$,$,#41,(#43));
#972= IFCRELCONTAINEDINSPATIALSTRUCTURE('2$yMHDjQP4jQ7F4EOfGMdi',#5,$,$,(#957,#916,#873,#831,#794,#766,#712,#653,#585,#458,#451,#444,#437,#430,#421,#412,#403,#394,#386,#378,#370,#362,#353,#344,#328,#245,#238,#159,#133),#43);
#973= IFCRELDEFINESBYPROPERTIES('2bsFRFHQf2KPsukbDjmY3I',#5,$,$,(#245,#238,#159,#133),#151);
#974= IFCRELDEFINESBYPROPERTIES('3STFyufcr4V9oC24Ii6tRA',#5,$,$,(#458,#451,#444,#437,#430,#421,#412,#403,#394,#386,#378,#370,#362,#353,#344,#328),#334);
#975= IFCRELDEFINESBYPROPERTIES('0l6tV1T2P4lQmQ1dcmbPrz',#5,$,$,(#585),#593);
#976= IFCRELDEFINESBYPROPERTIES('3kG36mXF5BYOPQgEHq0UgX',#5,$,$,(#585),#602);
#977= IFCRELDEFINESBYPROPERTIES('0f8Kmj_ez5mRd6h5KpOXJY',#5,$,$,(#585),#605);
#978= IFCRELDEFINESBYPROPERTIES('0QSOCpAzj82RFGqWYZnaNd',#5,$,$,(#585),#610);
#979= IFCRELDEFINESBYPROPERTIES('3QiZOWoI9FUQl0SEqE6vdI',#5,$,$,(#831,#653),#659);
#980= IFCRELDEFINESBYPROPERTIES('2iSXkc55PDfgG7egOYOREg',#5,$,$,(#831,#653),#668);
#981= IFCRELDEFINESBYPROPERTIES('0uMq4crkz71euVrKrEoQAN',#5,$,$,(#831,#653),#670);
#982= IFCRELDEFINESBYPROPERTIES('0Z91DQ3hP3qgiVCqlxhA1U',#5,$,$,(#653),#677);
#983= IFCRELDEFINESBYPROPERTIES('00XDCV9cjBU8UFwuGCk9w6',#5,$,$,(#957,#712),#715);
#984= IFCRELDEFINESBYPROPERTIES('2WjB1Aug57rO2sqPfmFCWj',#5,$,$,(#712),#721);
#985= IFCRELDEFINESBYPROPERTIES('25b4ZzHc57oxuaaBXy81Ox',#5,$,$,(#957,#712),#723);
#986= IFCRELDEFINESBYPROPERTIES('0PHXEuLm106u$fMo8eCOZs',#5,$,$,(#712),#729);
#987= IFCRELDEFINESBYPROPERTIES('3g8O5FW9H1YA5MpJfInMC9',#5,$,$,(#916,#873,#794,#766),#770);
#988= IFCRELDEFINESBYPROPERTIES('3thday$2zD6B_MBt2Z5qUP',#5,$,$,(#794,#766),#779);
#989= IFCRELDEFINESBYPROPERTIES('33cUHmToXDnftyuS_MraQB',#5,$,$,(#916,#873,#794,#766),#781);
#990= IFCRELDEFINESBYPROPERTIES('3ou6wbrf1AegLTVQ_3fMFd',#5,$,$,(#794,#766),#788);
#991= IFCRELDEFINESBYPROPERTIES('05sfk7uQXDSwrKhQcnn98E',#5,$,$,(#831),#838);
#992= IFCRELDEFINESBYPROPERTIES('2bi9XCJFL1W84nDibSM55K',#5,$,$,(#916,#873),#876);
#993= IFCRELDEFINESBYPROPERTIES('1k21RnILn0DuWCNlIjxrcC',#5,$,$,(#873),#882);
#994= IFCRELDEFINESBYPROPERTIES('11FElGRNr22ufzL7U3fazb',#5,$,$,(#916),#922);
#995= IFCRELDEFINESBYPROPERTIES('3tzei8$G5BMB3ydgFkysN8',#5,$,$,(#957),#962);
#996= IFCRELDEFINESBYPROPERTIES('0w6adTIUn5phb3AEt$r1UP',#5,$,$,(#957),#968);
#997= IFCRELDEFINESBYTYPE('072nLUDPbAX940tJRt$ycN',#5,$,$,(#458,#451,#444,#437,#430,#421,#412,#403,#394,#386,#378,#370,#362,#353,#344,#328,#245,#238,#159,#133),#134);
#998= IFCRELDEFINESBYTYPE('2MTAxZokL1VvWUTkauefnA',#5,$,$,(#585),#586);
#999= IFCRELDEFINESBYTYPE('2_D5vDQdLAMfxCvarEZbed',#5,$,$,(#653),#654);
#1000= IFCRELDEFINESBYTYPE('0GQZL0hav8WeFNRudKqHUR',#5,$,$,(#712),#713);
#1001= IFCRELDEFINESBYTYPE('3vAykmUTLEA9BxwwE5ewcJ',#5,$,$,(#916,#873,#794,#766),#767);
#1002= IFCRELDEFINESBYTYPE('0IXSqjI556NOBSwv4yBnbL',#5,$,$,(#831),#832);
#1003= IFCRELDEFINESBYTYPE('0$pXFKZof5NBst0niXBZsV',#5,$,$,(#957),#958);
#1004= IFCRELASSOCIATESMATERIAL('145_$meCTAvfO_x$9RLrbT',#5,$,$,(#245,#238,#159,#133),#152);
#1005= IFCRELASSOCIATESMATERIAL('1xxSNAD4966OXQomfxmiRB',#5,$,$,(#458,#451,#444,#437,#430,#421,#412,#403,#394,#386,#378,#370,#362,#353,#344,#328),#335);
#1006= IFCRELASSOCIATESMATERIAL('25x1xSfmH2HwFflZQaNTzx',#5,$,$,(#957,#916,#873,#831,#794,#766,#712,#653,#585),#611);
#1007= IFCPRESENTATIONLAYERASSIGNMENT('BoltArray',$,(#126,#154,#233,#240,#321,#337,#346,#355,#364,#372,#380,#388,#396,#405,#414,#423,#432,#439,#446,#453),$);
#1008= IFCPRESENTATIONLAYERASSIGNMENT('B1-\S\?\S\Z350x250x8',$,(#578),$);
#1009= IFCPRESENTATIONLAYERASSIGNMENT('PLATE-10',$,(#646,#705,#824,#950),$);
#1010= IFCPRESENTATIONLAYERASSIGNMENT('PLATE-8',$,(#759,#789,#866,#910),$);
ENDSEC;

END-ISO-10303-21;
